G04 #@! TF.FileFunction,Soldermask,Bot*
%FSLAX46Y46*%
G04 Gerber Fmt 4.6, Leading zero omitted, Abs format (unit mm)*
G04 Created by KiCad (PCBNEW 4.0.5-e0-6337~52~ubuntu16.10.1) date Sun Jan 15 19:05:05 2017*
%MOMM*%
%LPD*%
G01*
G04 APERTURE LIST*
%ADD10C,0.100000*%
%ADD11O,1.360000X1.860000*%
%ADD12C,1.684000*%
%ADD13C,3.160000*%
G04 APERTURE END LIST*
D10*
D11*
X82540000Y-84590000D03*
X85080000Y-84590000D03*
X113020000Y-84590000D03*
X115560000Y-84590000D03*
X118100000Y-84590000D03*
X120640000Y-84590000D03*
X123180000Y-84590000D03*
X125720000Y-84590000D03*
X128260000Y-84590000D03*
X130800000Y-84590000D03*
X133340000Y-84590000D03*
X135880000Y-84590000D03*
X138420000Y-84590000D03*
X140960000Y-84590000D03*
X143500000Y-84590000D03*
X146040000Y-84590000D03*
X148580000Y-84590000D03*
X151120000Y-84590000D03*
X153660000Y-84590000D03*
X156200000Y-84590000D03*
X158740000Y-84590000D03*
X161280000Y-84590000D03*
X163820000Y-84590000D03*
X166360000Y-84590000D03*
X168900000Y-84590000D03*
X171440000Y-84590000D03*
X173980000Y-84590000D03*
X113020000Y-87130000D03*
X115560000Y-87130000D03*
X118100000Y-87130000D03*
X120640000Y-87130000D03*
X123180000Y-87130000D03*
X125720000Y-87130000D03*
X128260000Y-87130000D03*
X130800000Y-87130000D03*
X133340000Y-87130000D03*
X135880000Y-87130000D03*
X138420000Y-87130000D03*
X140960000Y-87130000D03*
X143500000Y-87130000D03*
X146040000Y-87130000D03*
X148580000Y-87130000D03*
X151120000Y-87130000D03*
X153660000Y-87130000D03*
X156200000Y-87130000D03*
X158740000Y-87130000D03*
X161280000Y-87130000D03*
X163820000Y-87130000D03*
X166360000Y-87130000D03*
X168900000Y-87130000D03*
X171440000Y-87130000D03*
X173980000Y-87130000D03*
X82540000Y-137930000D03*
X85080000Y-137930000D03*
X113020000Y-135390000D03*
X115560000Y-135390000D03*
X118100000Y-135390000D03*
X120640000Y-135390000D03*
X123180000Y-135390000D03*
X125720000Y-135390000D03*
X128260000Y-135390000D03*
X130800000Y-135390000D03*
X133340000Y-135390000D03*
X135880000Y-135390000D03*
X138420000Y-135390000D03*
X140960000Y-135390000D03*
X143500000Y-135390000D03*
X146040000Y-135390000D03*
X148580000Y-135390000D03*
X151120000Y-135390000D03*
X153660000Y-135390000D03*
X156200000Y-135390000D03*
X158740000Y-135390000D03*
X161280000Y-135390000D03*
X163820000Y-135390000D03*
X166360000Y-135390000D03*
X168900000Y-135390000D03*
X171440000Y-135390000D03*
X173980000Y-135390000D03*
X113020000Y-137930000D03*
X115560000Y-137930000D03*
X118100000Y-137930000D03*
X120640000Y-137930000D03*
X123180000Y-137930000D03*
X125720000Y-137930000D03*
X128260000Y-137930000D03*
X130800000Y-137930000D03*
X133340000Y-137930000D03*
X135880000Y-137930000D03*
X138420000Y-137930000D03*
X140960000Y-137930000D03*
X143500000Y-137930000D03*
X146040000Y-137930000D03*
X148580000Y-137930000D03*
X151120000Y-137930000D03*
X153660000Y-137930000D03*
X156200000Y-137930000D03*
X158740000Y-137930000D03*
X161280000Y-137930000D03*
X163820000Y-137930000D03*
X166360000Y-137930000D03*
X168900000Y-137930000D03*
X171440000Y-137930000D03*
X173980000Y-137930000D03*
D12*
X88824600Y-97916800D03*
X94424600Y-108916800D03*
X83324600Y-108916800D03*
X94424600Y-100616800D03*
X83324600Y-100616800D03*
D13*
X83324600Y-104766800D03*
X94424600Y-104766800D03*
D12*
X104950000Y-97900000D03*
X110550000Y-108900000D03*
X99450000Y-108900000D03*
X110550000Y-100600000D03*
X99450000Y-100600000D03*
D13*
X99450000Y-104750000D03*
X110550000Y-104750000D03*
M02*
