M48
INCH,TZ
T1C0.016
T2C0.030
T3C0.031
T4C0.081
%
G90
G05
T1
X34090Y-50230
X34100Y-45760
X35400Y-46790
X35410Y-51320
X38070Y-50200
X38090Y-45700
X39160Y-51500
X39450Y-46840
X42095Y-50278
X42100Y-45690
X42540Y-51330
X43040Y-37130
X43430Y-46760
X46100Y-45770
X46110Y-41120
X46120Y-50230
X46650Y-48510
X47440Y-51230
X47480Y-46720
X47490Y-42330
X50080Y-50240
X50090Y-41210
X50090Y-45700
X51400Y-46750
X51410Y-42300
X51480Y-51160
X52380Y-48390
X52990Y-37560
X53460Y-40700
X54090Y-45740
X54090Y-50220
X54091Y-41265
X54642Y-36996
X54740Y-38040
X54741Y-37727
X55441Y-38302
X55441Y-38302
X55450Y-42190
X55460Y-46740
X55500Y-51170
X58080Y-45700
X58080Y-50200
X58088Y-41252
X59370Y-46760
X59410Y-42240
X59430Y-51250
X62090Y-41240
X62090Y-45680
X62090Y-50210
X63272Y-42170
X63350Y-51230
X63390Y-46820
X65540Y-51330
X66090Y-41250
X66090Y-45710
X66090Y-50200
X67290Y-42220
X67420Y-46840
T2
X32805Y-39613
X32805Y-42881
X34970Y-38550
X37175Y-39613
X37175Y-42881
X39154Y-39606
X39154Y-42874
X41319Y-38543
X43524Y-39606
X43524Y-42874
T3
X32496Y-33303
X32496Y-54303
X33496Y-33303
X33496Y-54303
X44496Y-33303
X44496Y-34303
X44496Y-53303
X44496Y-54303
X45496Y-33303
X45496Y-34303
X45496Y-53303
X45496Y-54303
X46496Y-33303
X46496Y-34303
X46496Y-53303
X46496Y-54303
X47496Y-33303
X47496Y-34303
X47496Y-53303
X47496Y-54303
X48496Y-33303
X48496Y-34303
X48496Y-53303
X48496Y-54303
X49496Y-33303
X49496Y-34303
X49496Y-53303
X49496Y-54303
X50496Y-33303
X50496Y-34303
X50496Y-53303
X50496Y-54303
X51496Y-33303
X51496Y-34303
X51496Y-53303
X51496Y-54303
X52496Y-33303
X52496Y-34303
X52496Y-53303
X52496Y-54303
X53496Y-33303
X53496Y-34303
X53496Y-53303
X53496Y-54303
X54496Y-33303
X54496Y-34303
X54496Y-53303
X54496Y-54303
X55496Y-33303
X55496Y-34303
X55496Y-53303
X55496Y-54303
X56496Y-33303
X56496Y-34303
X56496Y-53303
X56496Y-54303
X57496Y-33303
X57496Y-34303
X57496Y-53303
X57496Y-54303
X58496Y-33303
X58496Y-34303
X58496Y-53303
X58496Y-54303
X59496Y-33303
X59496Y-34303
X59496Y-53303
X59496Y-54303
X60496Y-33303
X60496Y-34303
X60496Y-53303
X60496Y-54303
X61496Y-33303
X61496Y-34303
X61496Y-53303
X61496Y-54303
X62496Y-33303
X62496Y-34303
X62496Y-53303
X62496Y-54303
X63496Y-33303
X63496Y-34303
X63496Y-53303
X63496Y-54303
X64496Y-33303
X64496Y-34303
X64496Y-53303
X64496Y-54303
X65496Y-33303
X65496Y-34303
X65496Y-53303
X65496Y-54303
X66496Y-33303
X66496Y-34303
X66496Y-53303
X66496Y-54303
X67496Y-33303
X67496Y-34303
X67496Y-53303
X67496Y-54303
X68496Y-33303
X68496Y-34303
X68496Y-53303
X68496Y-54303
T4
X32805Y-41247
X37175Y-41247
X39154Y-41240
X43524Y-41240
T0
M30
