G04 #@! TF.FileFunction,Copper,L1,Top,Signal*
%FSLAX46Y46*%
G04 Gerber Fmt 4.6, Leading zero omitted, Abs format (unit mm)*
G04 Created by KiCad (PCBNEW 4.0.5-e0-6337~52~ubuntu16.10.1) date Sun Jan 15 19:05:05 2017*
%MOMM*%
%LPD*%
G01*
G04 APERTURE LIST*
%ADD10C,0.100000*%
%ADD11R,1.000000X1.250000*%
%ADD12R,2.750000X1.000000*%
%ADD13O,1.200000X1.700000*%
%ADD14R,1.198880X1.198880*%
%ADD15R,1.300000X0.700000*%
%ADD16R,0.700000X1.300000*%
%ADD17C,1.524000*%
%ADD18C,3.000000*%
%ADD19R,2.000000X0.320000*%
%ADD20C,0.600000*%
%ADD21C,0.200000*%
%ADD22C,0.400000*%
%ADD23C,0.250000*%
%ADD24C,0.254000*%
G04 APERTURE END LIST*
D10*
D11*
X133666000Y-89500000D03*
X131666000Y-89500000D03*
D12*
X115235000Y-128370000D03*
X120985000Y-128370000D03*
X120985000Y-132370000D03*
X115235000Y-132370000D03*
D13*
X82540000Y-84590000D03*
X85080000Y-84590000D03*
X113020000Y-84590000D03*
X115560000Y-84590000D03*
X118100000Y-84590000D03*
X120640000Y-84590000D03*
X123180000Y-84590000D03*
X125720000Y-84590000D03*
X128260000Y-84590000D03*
X130800000Y-84590000D03*
X133340000Y-84590000D03*
X135880000Y-84590000D03*
X138420000Y-84590000D03*
X140960000Y-84590000D03*
X143500000Y-84590000D03*
X146040000Y-84590000D03*
X148580000Y-84590000D03*
X151120000Y-84590000D03*
X153660000Y-84590000D03*
X156200000Y-84590000D03*
X158740000Y-84590000D03*
X161280000Y-84590000D03*
X163820000Y-84590000D03*
X166360000Y-84590000D03*
X168900000Y-84590000D03*
X171440000Y-84590000D03*
X173980000Y-84590000D03*
X113020000Y-87130000D03*
X115560000Y-87130000D03*
X118100000Y-87130000D03*
X120640000Y-87130000D03*
X123180000Y-87130000D03*
X125720000Y-87130000D03*
X128260000Y-87130000D03*
X130800000Y-87130000D03*
X133340000Y-87130000D03*
X135880000Y-87130000D03*
X138420000Y-87130000D03*
X140960000Y-87130000D03*
X143500000Y-87130000D03*
X146040000Y-87130000D03*
X148580000Y-87130000D03*
X151120000Y-87130000D03*
X153660000Y-87130000D03*
X156200000Y-87130000D03*
X158740000Y-87130000D03*
X161280000Y-87130000D03*
X163820000Y-87130000D03*
X166360000Y-87130000D03*
X168900000Y-87130000D03*
X171440000Y-87130000D03*
X173980000Y-87130000D03*
X82540000Y-137930000D03*
X85080000Y-137930000D03*
X113020000Y-135390000D03*
X115560000Y-135390000D03*
X118100000Y-135390000D03*
X120640000Y-135390000D03*
X123180000Y-135390000D03*
X125720000Y-135390000D03*
X128260000Y-135390000D03*
X130800000Y-135390000D03*
X133340000Y-135390000D03*
X135880000Y-135390000D03*
X138420000Y-135390000D03*
X140960000Y-135390000D03*
X143500000Y-135390000D03*
X146040000Y-135390000D03*
X148580000Y-135390000D03*
X151120000Y-135390000D03*
X153660000Y-135390000D03*
X156200000Y-135390000D03*
X158740000Y-135390000D03*
X161280000Y-135390000D03*
X163820000Y-135390000D03*
X166360000Y-135390000D03*
X168900000Y-135390000D03*
X171440000Y-135390000D03*
X173980000Y-135390000D03*
X113020000Y-137930000D03*
X115560000Y-137930000D03*
X118100000Y-137930000D03*
X120640000Y-137930000D03*
X123180000Y-137930000D03*
X125720000Y-137930000D03*
X128260000Y-137930000D03*
X130800000Y-137930000D03*
X133340000Y-137930000D03*
X135880000Y-137930000D03*
X138420000Y-137930000D03*
X140960000Y-137930000D03*
X143500000Y-137930000D03*
X146040000Y-137930000D03*
X148580000Y-137930000D03*
X151120000Y-137930000D03*
X153660000Y-137930000D03*
X156200000Y-137930000D03*
X158740000Y-137930000D03*
X161280000Y-137930000D03*
X163820000Y-137930000D03*
X166360000Y-137930000D03*
X168900000Y-137930000D03*
X171440000Y-137930000D03*
X173980000Y-137930000D03*
D14*
X149639020Y-102430000D03*
X147540980Y-102430000D03*
X119159020Y-125290000D03*
X117060980Y-125290000D03*
X98839020Y-113860000D03*
X96740980Y-113860000D03*
D11*
X133666000Y-97270000D03*
X131666000Y-97270000D03*
X133666000Y-99048000D03*
X131666000Y-99048000D03*
D14*
X159799020Y-102430000D03*
X157700980Y-102430000D03*
D12*
X115235000Y-116940000D03*
X120985000Y-116940000D03*
X120985000Y-120940000D03*
X115235000Y-120940000D03*
X84755000Y-116940000D03*
X90505000Y-116940000D03*
X90505000Y-120940000D03*
X84755000Y-120940000D03*
D14*
X169959020Y-102430000D03*
X167860980Y-102430000D03*
D12*
X145715000Y-116940000D03*
X151465000Y-116940000D03*
X151465000Y-120940000D03*
X145715000Y-120940000D03*
X155875000Y-116940000D03*
X161625000Y-116940000D03*
X161625000Y-120940000D03*
X155875000Y-120940000D03*
X94915000Y-116940000D03*
X100665000Y-116940000D03*
X100665000Y-120940000D03*
X94915000Y-120940000D03*
X105075000Y-116940000D03*
X110825000Y-116940000D03*
X110825000Y-120940000D03*
X105075000Y-120940000D03*
X125395000Y-116940000D03*
X131145000Y-116940000D03*
X131145000Y-120940000D03*
X125395000Y-120940000D03*
X135555000Y-116940000D03*
X141305000Y-116940000D03*
X141305000Y-120940000D03*
X135555000Y-120940000D03*
X84755000Y-128370000D03*
X90505000Y-128370000D03*
X90505000Y-132370000D03*
X84755000Y-132370000D03*
X94915000Y-128370000D03*
X100665000Y-128370000D03*
X100665000Y-132370000D03*
X94915000Y-132370000D03*
X105075000Y-128370000D03*
X110825000Y-128370000D03*
X110825000Y-132370000D03*
X105075000Y-132370000D03*
X125395000Y-128370000D03*
X131145000Y-128370000D03*
X131145000Y-132370000D03*
X125395000Y-132370000D03*
X135555000Y-128370000D03*
X141305000Y-128370000D03*
X141305000Y-132370000D03*
X135555000Y-132370000D03*
X145715000Y-128370000D03*
X151465000Y-128370000D03*
X151465000Y-132370000D03*
X145715000Y-132370000D03*
X155875000Y-128370000D03*
X161625000Y-128370000D03*
X161625000Y-132370000D03*
X155875000Y-132370000D03*
X166035000Y-116940000D03*
X171785000Y-116940000D03*
X171785000Y-120940000D03*
X166035000Y-120940000D03*
X165806400Y-128200400D03*
X171556400Y-128200400D03*
X171556400Y-132200400D03*
X165806400Y-132200400D03*
X166035000Y-105510000D03*
X171785000Y-105510000D03*
X171785000Y-109510000D03*
X166035000Y-109510000D03*
X115235000Y-105510000D03*
X120985000Y-105510000D03*
X120985000Y-109510000D03*
X115235000Y-109510000D03*
X125395000Y-105510000D03*
X131145000Y-105510000D03*
X131145000Y-109510000D03*
X125395000Y-109510000D03*
X135555000Y-105510000D03*
X141305000Y-105510000D03*
X141305000Y-109510000D03*
X135555000Y-109510000D03*
X145715000Y-105510000D03*
X151465000Y-105510000D03*
X151465000Y-109510000D03*
X145715000Y-109510000D03*
X155875000Y-105510000D03*
X161625000Y-105510000D03*
X161625000Y-109510000D03*
X155875000Y-109510000D03*
D14*
X88679020Y-125290000D03*
X86580980Y-125290000D03*
X98839020Y-125290000D03*
X96740980Y-125290000D03*
X108999020Y-125290000D03*
X106900980Y-125290000D03*
X129319020Y-125290000D03*
X127220980Y-125290000D03*
X139479020Y-125290000D03*
X137380980Y-125290000D03*
X149639020Y-125290000D03*
X147540980Y-125290000D03*
X159799020Y-125290000D03*
X157700980Y-125290000D03*
X169959020Y-125290000D03*
X167860980Y-125290000D03*
X88679020Y-113860000D03*
X86580980Y-113860000D03*
X108999020Y-113860000D03*
X106900980Y-113860000D03*
X119159020Y-113860000D03*
X117060980Y-113860000D03*
X129319020Y-113860000D03*
X127220980Y-113860000D03*
X139479020Y-113860000D03*
X137380980Y-113860000D03*
X149639020Y-113860000D03*
X147540980Y-113860000D03*
X159799020Y-113860000D03*
X157700980Y-113860000D03*
X169959020Y-113860000D03*
X167860980Y-113860000D03*
X119159020Y-102430000D03*
X117060980Y-102430000D03*
X129319020Y-102430000D03*
X127220980Y-102430000D03*
X139479020Y-102430000D03*
X137380980Y-102430000D03*
D15*
X174250000Y-95050000D03*
X174250000Y-96950000D03*
D16*
X167050000Y-99500000D03*
X168950000Y-99500000D03*
X165950000Y-99500000D03*
X164050000Y-99500000D03*
D11*
X133666000Y-93714000D03*
X131666000Y-93714000D03*
X133666000Y-91750000D03*
X131666000Y-91750000D03*
D16*
X133616000Y-95492000D03*
X131716000Y-95492000D03*
D11*
X85251800Y-96003800D03*
X83251800Y-96003800D03*
X92472000Y-96003800D03*
X94472000Y-96003800D03*
X101406200Y-96003800D03*
X99406200Y-96003800D03*
X108601000Y-96003800D03*
X110601000Y-96003800D03*
D16*
X83314500Y-97731000D03*
X85214500Y-97731000D03*
X92522000Y-97731000D03*
X94422000Y-97731000D03*
X99443500Y-97731000D03*
X101343500Y-97731000D03*
X108651000Y-97731000D03*
X110551000Y-97731000D03*
D17*
X88824600Y-97916800D03*
X94424600Y-108916800D03*
X83324600Y-108916800D03*
X94424600Y-100616800D03*
X83324600Y-100616800D03*
D18*
X83324600Y-104766800D03*
X94424600Y-104766800D03*
D17*
X104950000Y-97900000D03*
X110550000Y-108900000D03*
X99450000Y-108900000D03*
X110550000Y-100600000D03*
X99450000Y-100600000D03*
D18*
X99450000Y-104750000D03*
X110550000Y-104750000D03*
D19*
X136700564Y-90330454D03*
X136700564Y-90950454D03*
X136700564Y-91570454D03*
X136700564Y-92190454D03*
X136700564Y-92810454D03*
X136700564Y-93430454D03*
X136700564Y-94050454D03*
X136700564Y-94670454D03*
X136700564Y-95290454D03*
X136700564Y-95910454D03*
X136700564Y-96530454D03*
X136700564Y-97150454D03*
X136700564Y-97770454D03*
X136700564Y-98390454D03*
D20*
X86614000Y-116230400D03*
X86588600Y-127584200D03*
X96697800Y-127508000D03*
X96748600Y-116078000D03*
X106922478Y-127706395D03*
X106934000Y-116052600D03*
X117119400Y-104444800D03*
X117144800Y-127584200D03*
X117094000Y-116255800D03*
X127203200Y-127609600D03*
X127228600Y-116078000D03*
X127228600Y-104673400D03*
X170916600Y-107238800D03*
X171246800Y-118973600D03*
X161010600Y-118922800D03*
X166471600Y-130378200D03*
X160909000Y-130124200D03*
X150799800Y-118770400D03*
X140868400Y-118719600D03*
X150952200Y-130175000D03*
X140970000Y-129971800D03*
X130556000Y-118745000D03*
X139042857Y-95826368D03*
X89941400Y-130352800D03*
X120599200Y-118668800D03*
X139039600Y-96621600D03*
X130759200Y-129946400D03*
X110312200Y-118770400D03*
X120497600Y-130124200D03*
X108051600Y-130378200D03*
X100203000Y-118973600D03*
X99466400Y-130810000D03*
X89916000Y-118846600D03*
X138791499Y-93970444D03*
X120624600Y-107518200D03*
X130581400Y-107442000D03*
X140843000Y-107162600D03*
X150901400Y-107289600D03*
X160710589Y-107112972D03*
X118491000Y-123215400D03*
X133045200Y-122910600D03*
X140819652Y-97286805D03*
X140819654Y-97286805D03*
X135788400Y-103378000D03*
X137388600Y-127558800D03*
X137388600Y-116179600D03*
X137390133Y-104814348D03*
X147543370Y-104780114D03*
X147523200Y-127508000D03*
X147523200Y-116078000D03*
X157708600Y-127533400D03*
X157708600Y-116027200D03*
X157708600Y-104749600D03*
X167868600Y-127508000D03*
X167868600Y-116103400D03*
X167868600Y-104775000D03*
X109321600Y-94310200D03*
X134594600Y-95402400D03*
D21*
X86580980Y-113860000D02*
X86580980Y-116197380D01*
X86580980Y-116197380D02*
X86614000Y-116230400D01*
X86588600Y-127584200D02*
X86588600Y-125297620D01*
X86588600Y-125297620D02*
X86580980Y-125290000D01*
X174250000Y-95050000D02*
X174250000Y-94500000D01*
X174250000Y-94500000D02*
X167260010Y-87510010D01*
X167260010Y-87510010D02*
X167260010Y-85740010D01*
X167260010Y-85740010D02*
X166360000Y-84840000D01*
X166360000Y-84840000D02*
X166360000Y-84590000D01*
X167050000Y-99500000D02*
X167050000Y-89560000D01*
X164620000Y-87130000D02*
X163820000Y-87130000D01*
X167050000Y-89560000D02*
X164620000Y-87130000D01*
X165950000Y-99500000D02*
X165950000Y-99200000D01*
X163820000Y-84840000D02*
X163820000Y-84590000D01*
X165950000Y-99200000D02*
X162919990Y-96169990D01*
X162919990Y-96169990D02*
X162919990Y-85740010D01*
X162919990Y-85740010D02*
X163820000Y-84840000D01*
X96697800Y-127508000D02*
X96697800Y-125333180D01*
X96697800Y-125333180D02*
X96740980Y-125290000D01*
X96740980Y-113860000D02*
X96740980Y-116070380D01*
X96740980Y-116070380D02*
X96748600Y-116078000D01*
X106922478Y-127706395D02*
X106922478Y-125311498D01*
X106922478Y-125311498D02*
X106900980Y-125290000D01*
X106900980Y-113860000D02*
X106900980Y-116019580D01*
X106900980Y-116019580D02*
X106934000Y-116052600D01*
X117119400Y-104444800D02*
X117119400Y-102488420D01*
X117119400Y-102488420D02*
X117060980Y-102430000D01*
X117144800Y-127584200D02*
X117144800Y-125373820D01*
X117144800Y-125373820D02*
X117060980Y-125290000D01*
X117060980Y-113860000D02*
X117060980Y-116222780D01*
X117060980Y-116222780D02*
X117094000Y-116255800D01*
X127203200Y-127609600D02*
X127203200Y-125307780D01*
X127203200Y-125307780D02*
X127220980Y-125290000D01*
X127228600Y-116078000D02*
X127228600Y-113867620D01*
X127228600Y-113867620D02*
X127220980Y-113860000D01*
X127220980Y-102430000D02*
X127220980Y-104665780D01*
X127220980Y-104665780D02*
X127228600Y-104673400D01*
X171785000Y-105510000D02*
X171785000Y-106370400D01*
X171785000Y-106370400D02*
X170916600Y-107238800D01*
X166035000Y-105510000D02*
X171785000Y-105510000D01*
X171785000Y-116940000D02*
X171785000Y-118435400D01*
X171785000Y-118435400D02*
X171246800Y-118973600D01*
X166035000Y-116940000D02*
X171785000Y-116940000D01*
X161625000Y-116940000D02*
X161625000Y-118308400D01*
X161625000Y-118308400D02*
X161010600Y-118922800D01*
X161625000Y-116940000D02*
X155875000Y-116940000D01*
X165806400Y-128200400D02*
X165806400Y-129713000D01*
X165806400Y-129713000D02*
X166471600Y-130378200D01*
X166035000Y-128370000D02*
X171785000Y-128370000D01*
X161625000Y-128370000D02*
X161625000Y-129408200D01*
X161625000Y-129408200D02*
X160909000Y-130124200D01*
X155875000Y-128370000D02*
X161625000Y-128370000D01*
X151465000Y-116940000D02*
X151465000Y-118105200D01*
X151465000Y-118105200D02*
X150799800Y-118770400D01*
X151465000Y-116940000D02*
X145715000Y-116940000D01*
X141305000Y-116940000D02*
X141305000Y-118283000D01*
X141305000Y-118283000D02*
X140868400Y-118719600D01*
X141305000Y-116940000D02*
X139730000Y-116940000D01*
X139730000Y-116940000D02*
X135555000Y-116940000D01*
X151465000Y-128370000D02*
X151465000Y-129662200D01*
X151465000Y-129662200D02*
X150952200Y-130175000D01*
X145715000Y-128370000D02*
X151465000Y-128370000D01*
X141305000Y-128370000D02*
X141305000Y-129636800D01*
X141305000Y-129636800D02*
X140970000Y-129971800D01*
X135555000Y-128370000D02*
X141305000Y-128370000D01*
X131145000Y-116940000D02*
X131145000Y-118156000D01*
X131145000Y-118156000D02*
X130556000Y-118745000D01*
X131145000Y-116940000D02*
X125395000Y-116940000D01*
X138958771Y-95910454D02*
X139042857Y-95826368D01*
X136700564Y-95910454D02*
X138958771Y-95910454D01*
X90505000Y-128370000D02*
X90505000Y-129789200D01*
X90505000Y-129789200D02*
X89941400Y-130352800D01*
X84755000Y-128370000D02*
X90505000Y-128370000D01*
X120985000Y-116940000D02*
X120985000Y-118283000D01*
X120985000Y-118283000D02*
X120599200Y-118668800D01*
X120985000Y-116940000D02*
X115235000Y-116940000D01*
X136700564Y-96530454D02*
X138948454Y-96530454D01*
X138948454Y-96530454D02*
X139039600Y-96621600D01*
X131145000Y-128370000D02*
X131145000Y-129560600D01*
X131145000Y-129560600D02*
X130759200Y-129946400D01*
X125395000Y-128370000D02*
X131145000Y-128370000D01*
X110825000Y-116940000D02*
X110825000Y-118257600D01*
X110825000Y-118257600D02*
X110312200Y-118770400D01*
X110825000Y-116940000D02*
X105075000Y-116940000D01*
X120985000Y-128370000D02*
X120985000Y-129636800D01*
X120985000Y-129636800D02*
X120497600Y-130124200D01*
X115235000Y-128370000D02*
X120985000Y-128370000D01*
X110825000Y-128370000D02*
X109950000Y-128370000D01*
X109950000Y-128370000D02*
X108051600Y-130268400D01*
X108051600Y-130268400D02*
X108051600Y-130378200D01*
X105075000Y-128370000D02*
X110825000Y-128370000D01*
X100665000Y-116940000D02*
X100665000Y-118511600D01*
X100665000Y-118511600D02*
X100203000Y-118973600D01*
X100665000Y-116940000D02*
X94915000Y-116940000D01*
X100665000Y-128370000D02*
X100665000Y-129611400D01*
X100665000Y-129611400D02*
X99466400Y-130810000D01*
X94915000Y-128370000D02*
X100665000Y-128370000D01*
X90505000Y-116940000D02*
X90505000Y-118257600D01*
X90505000Y-118257600D02*
X89916000Y-118846600D01*
X90505000Y-116940000D02*
X84755000Y-116940000D01*
D22*
X136700564Y-94050454D02*
X138711489Y-94050454D01*
X138711489Y-94050454D02*
X138791499Y-93970444D01*
D21*
X120985000Y-105510000D02*
X120985000Y-107157800D01*
X120985000Y-107157800D02*
X120624600Y-107518200D01*
X115235000Y-105510000D02*
X120985000Y-105510000D01*
X131145000Y-105510000D02*
X131145000Y-106878400D01*
X131145000Y-106878400D02*
X130581400Y-107442000D01*
X125395000Y-105510000D02*
X131145000Y-105510000D01*
X141305000Y-105510000D02*
X141305000Y-106700600D01*
X141305000Y-106700600D02*
X140843000Y-107162600D01*
X135555000Y-105510000D02*
X141305000Y-105510000D01*
X151465000Y-105510000D02*
X151465000Y-106726000D01*
X151465000Y-106726000D02*
X150901400Y-107289600D01*
X145715000Y-105510000D02*
X151465000Y-105510000D01*
X160722028Y-107112972D02*
X160710589Y-107112972D01*
X161625000Y-105510000D02*
X161625000Y-106210000D01*
X161625000Y-106210000D02*
X160722028Y-107112972D01*
X155875000Y-105510000D02*
X161625000Y-105510000D01*
D22*
X134669494Y-93714000D02*
X134566000Y-93714000D01*
X136700564Y-92810454D02*
X135573040Y-92810454D01*
X135573040Y-92810454D02*
X134669494Y-93714000D01*
X134566000Y-93714000D02*
X133666000Y-93714000D01*
X133045200Y-122910600D02*
X118795800Y-122910600D01*
X118795800Y-122910600D02*
X118491000Y-123215400D01*
X140819654Y-96862541D02*
X140819654Y-97286805D01*
X140819654Y-95908346D02*
X140819654Y-96862541D01*
X140868400Y-95859600D02*
X140819654Y-95908346D01*
X136700564Y-94670454D02*
X139679254Y-94670454D01*
X140868400Y-94259400D02*
X140868400Y-95859600D01*
X139679254Y-94670454D02*
X140868400Y-95859600D01*
X139420600Y-92811600D02*
X140868400Y-94259400D01*
X138101710Y-92811600D02*
X139420600Y-92811600D01*
X136700564Y-92810454D02*
X138100564Y-92810454D01*
X138100564Y-92810454D02*
X138101710Y-92811600D01*
X136700564Y-94670454D02*
X134622454Y-94670454D01*
X134622454Y-94670454D02*
X133666000Y-93714000D01*
D21*
X118100000Y-135390000D02*
X118100000Y-136440000D01*
X118100000Y-136440000D02*
X118100000Y-137930000D01*
X137380980Y-102430000D02*
X137380980Y-103229440D01*
X137380980Y-103229440D02*
X137232420Y-103378000D01*
X137232420Y-103378000D02*
X135788400Y-103378000D01*
X137388600Y-127558800D02*
X137388600Y-125297620D01*
X137388600Y-125297620D02*
X137380980Y-125290000D01*
X137388600Y-116179600D02*
X137388600Y-113867620D01*
X137388600Y-113867620D02*
X137380980Y-113860000D01*
X137380980Y-102430000D02*
X137380980Y-104805195D01*
X137380980Y-104805195D02*
X137390133Y-104814348D01*
X147540980Y-102430000D02*
X147540980Y-104777724D01*
X147540980Y-104777724D02*
X147543370Y-104780114D01*
X147523200Y-127508000D02*
X147523200Y-125307780D01*
X147523200Y-125307780D02*
X147540980Y-125290000D01*
X147523200Y-116078000D02*
X147523200Y-113877780D01*
X147523200Y-113877780D02*
X147540980Y-113860000D01*
X157708600Y-127533400D02*
X157708600Y-125297620D01*
X157708600Y-125297620D02*
X157700980Y-125290000D01*
X157708600Y-116027200D02*
X157708600Y-113867620D01*
X157708600Y-113867620D02*
X157700980Y-113860000D01*
X157700980Y-102430000D02*
X157700980Y-104741980D01*
X157700980Y-104741980D02*
X157708600Y-104749600D01*
X167868600Y-127508000D02*
X167868600Y-125297620D01*
X167868600Y-125297620D02*
X167860980Y-125290000D01*
X167868600Y-116103400D02*
X167868600Y-113867620D01*
X167868600Y-113867620D02*
X167860980Y-113860000D01*
X167860980Y-102430000D02*
X167860980Y-104767380D01*
X167860980Y-104767380D02*
X167868600Y-104775000D01*
X84755000Y-120940000D02*
X84755000Y-121640000D01*
X84755000Y-121640000D02*
X83079999Y-123315001D01*
X83079999Y-129994999D02*
X84755000Y-131670000D01*
X83079999Y-123315001D02*
X83079999Y-129994999D01*
X84755000Y-131670000D02*
X84755000Y-132370000D01*
X94424600Y-108916800D02*
X93362599Y-109978801D01*
X88723297Y-109978801D02*
X83079999Y-115622099D01*
X93362599Y-109978801D02*
X88723297Y-109978801D01*
X83079999Y-115622099D02*
X83079999Y-118564999D01*
X83079999Y-118564999D02*
X84755000Y-120240000D01*
X84755000Y-120240000D02*
X84755000Y-120940000D01*
X125720000Y-87380000D02*
X125720000Y-87130000D01*
X115235000Y-109510000D02*
X115235000Y-108810000D01*
X115235000Y-108810000D02*
X113559999Y-107134999D01*
X113559999Y-107134999D02*
X113559999Y-99540001D01*
X113559999Y-99540001D02*
X125720000Y-87380000D01*
X110550000Y-108900000D02*
X114625000Y-108900000D01*
X114625000Y-108900000D02*
X115235000Y-109510000D01*
X94424600Y-108916800D02*
X95469801Y-109962001D01*
X95469801Y-109962001D02*
X109487999Y-109962001D01*
X109487999Y-109962001D02*
X109788001Y-109661999D01*
X109788001Y-109661999D02*
X110550000Y-108900000D01*
X166035000Y-109510000D02*
X171785000Y-109510000D01*
X161625000Y-109510000D02*
X166035000Y-109510000D01*
X155875000Y-109510000D02*
X161625000Y-109510000D01*
X151465000Y-109510000D02*
X155875000Y-109510000D01*
X145715000Y-109510000D02*
X151465000Y-109510000D01*
X141305000Y-109510000D02*
X145715000Y-109510000D01*
X135555000Y-109510000D02*
X141305000Y-109510000D01*
X131145000Y-109510000D02*
X132720000Y-109510000D01*
X132720000Y-109510000D02*
X135555000Y-109510000D01*
X125395000Y-109510000D02*
X131145000Y-109510000D01*
X120985000Y-109510000D02*
X125395000Y-109510000D01*
X115235000Y-109510000D02*
X120985000Y-109510000D01*
X166035000Y-132370000D02*
X171785000Y-132370000D01*
X161625000Y-132370000D02*
X166035000Y-132370000D01*
X155875000Y-132370000D02*
X157450000Y-132370000D01*
X157450000Y-132370000D02*
X161625000Y-132370000D01*
X151465000Y-132370000D02*
X153040000Y-132370000D01*
X153040000Y-132370000D02*
X155875000Y-132370000D01*
X145715000Y-132370000D02*
X151465000Y-132370000D01*
X141305000Y-132370000D02*
X145715000Y-132370000D01*
X135555000Y-132370000D02*
X141305000Y-132370000D01*
X131145000Y-132370000D02*
X135555000Y-132370000D01*
X125395000Y-132370000D02*
X126970000Y-132370000D01*
X126970000Y-132370000D02*
X131145000Y-132370000D01*
X120985000Y-132370000D02*
X125395000Y-132370000D01*
X115235000Y-132370000D02*
X116810000Y-132370000D01*
X116810000Y-132370000D02*
X120985000Y-132370000D01*
X110825000Y-132370000D02*
X115235000Y-132370000D01*
X105075000Y-132370000D02*
X110825000Y-132370000D01*
X100665000Y-132370000D02*
X105075000Y-132370000D01*
X94915000Y-132370000D02*
X100665000Y-132370000D01*
X90505000Y-132370000D02*
X94915000Y-132370000D01*
X84755000Y-132370000D02*
X90505000Y-132370000D01*
X166035000Y-120940000D02*
X171785000Y-120940000D01*
X161625000Y-120940000D02*
X163200000Y-120940000D01*
X163200000Y-120940000D02*
X166035000Y-120940000D01*
X155875000Y-120940000D02*
X161625000Y-120940000D01*
X151465000Y-120940000D02*
X155875000Y-120940000D01*
X145715000Y-120940000D02*
X151465000Y-120940000D01*
X141305000Y-120940000D02*
X145715000Y-120940000D01*
X135555000Y-120940000D02*
X141305000Y-120940000D01*
X131145000Y-120940000D02*
X135555000Y-120940000D01*
X125395000Y-120940000D02*
X131145000Y-120940000D01*
X120985000Y-120940000D02*
X125395000Y-120940000D01*
X115235000Y-120940000D02*
X116810000Y-120940000D01*
X116810000Y-120940000D02*
X120985000Y-120940000D01*
X110825000Y-120940000D02*
X115235000Y-120940000D01*
X105075000Y-120940000D02*
X110825000Y-120940000D01*
X100665000Y-120940000D02*
X102240000Y-120940000D01*
X102240000Y-120940000D02*
X105075000Y-120940000D01*
X94915000Y-120940000D02*
X100665000Y-120940000D01*
X90505000Y-120940000D02*
X94915000Y-120940000D01*
X84755000Y-120940000D02*
X90505000Y-120940000D01*
X159799020Y-125290000D02*
X160598460Y-125290000D01*
X160598460Y-125290000D02*
X161497901Y-124390559D01*
X161497901Y-124390559D02*
X169859019Y-124390559D01*
X169859019Y-124390559D02*
X169959020Y-124490560D01*
X169959020Y-124490560D02*
X169959020Y-125290000D01*
X149639020Y-125290000D02*
X150438460Y-125290000D01*
X150438460Y-125290000D02*
X151337901Y-124390559D01*
X151337901Y-124390559D02*
X159699019Y-124390559D01*
X159699019Y-124390559D02*
X159799020Y-124490560D01*
X159799020Y-124490560D02*
X159799020Y-125290000D01*
X139479020Y-125290000D02*
X140278460Y-125290000D01*
X140278460Y-125290000D02*
X141177901Y-124390559D01*
X141177901Y-124390559D02*
X149539019Y-124390559D01*
X149539019Y-124390559D02*
X149639020Y-124490560D01*
X149639020Y-124490560D02*
X149639020Y-125290000D01*
X129319020Y-125290000D02*
X130118460Y-125290000D01*
X130118460Y-125290000D02*
X131017901Y-124390559D01*
X131017901Y-124390559D02*
X139379019Y-124390559D01*
X139379019Y-124390559D02*
X139479020Y-124490560D01*
X139479020Y-124490560D02*
X139479020Y-125290000D01*
X119159020Y-125290000D02*
X119958460Y-125290000D01*
X119958460Y-125290000D02*
X120857901Y-124390559D01*
X120857901Y-124390559D02*
X129219019Y-124390559D01*
X129219019Y-124390559D02*
X129319020Y-124490560D01*
X129319020Y-124490560D02*
X129319020Y-125290000D01*
X108999020Y-125290000D02*
X109798460Y-125290000D01*
X109798460Y-125290000D02*
X110697901Y-124390559D01*
X110697901Y-124390559D02*
X119059019Y-124390559D01*
X119059019Y-124390559D02*
X119159020Y-124490560D01*
X119159020Y-124490560D02*
X119159020Y-125290000D01*
X98839020Y-125290000D02*
X99638460Y-125290000D01*
X108899019Y-124390559D02*
X108999020Y-124490560D01*
X99638460Y-125290000D02*
X100537901Y-124390559D01*
X100537901Y-124390559D02*
X108899019Y-124390559D01*
X108999020Y-124490560D02*
X108999020Y-125290000D01*
X88679020Y-125290000D02*
X89478460Y-125290000D01*
X89478460Y-125290000D02*
X90377901Y-124390559D01*
X90377901Y-124390559D02*
X98739019Y-124390559D01*
X98739019Y-124390559D02*
X98839020Y-124490560D01*
X98839020Y-124490560D02*
X98839020Y-125290000D01*
X169959020Y-125290000D02*
X170758460Y-125290000D01*
X170758460Y-125290000D02*
X174250000Y-121798460D01*
X174250000Y-121798460D02*
X174250000Y-97500000D01*
X174250000Y-97500000D02*
X174250000Y-96950000D01*
X159799020Y-113860000D02*
X160598460Y-113860000D01*
X160598460Y-113860000D02*
X161497901Y-112960559D01*
X161497901Y-112960559D02*
X169859019Y-112960559D01*
X169859019Y-112960559D02*
X169959020Y-113060560D01*
X169959020Y-113060560D02*
X169959020Y-113860000D01*
X149639020Y-113860000D02*
X150438460Y-113860000D01*
X150438460Y-113860000D02*
X151337901Y-112960559D01*
X151337901Y-112960559D02*
X159699019Y-112960559D01*
X159699019Y-112960559D02*
X159799020Y-113060560D01*
X159799020Y-113060560D02*
X159799020Y-113860000D01*
X139479020Y-113860000D02*
X140278460Y-113860000D01*
X140278460Y-113860000D02*
X141177901Y-112960559D01*
X141177901Y-112960559D02*
X149539019Y-112960559D01*
X149539019Y-112960559D02*
X149639020Y-113060560D01*
X149639020Y-113060560D02*
X149639020Y-113860000D01*
X129319020Y-113860000D02*
X130118460Y-113860000D01*
X130118460Y-113860000D02*
X131017901Y-112960559D01*
X131017901Y-112960559D02*
X139379019Y-112960559D01*
X139379019Y-112960559D02*
X139479020Y-113060560D01*
X139479020Y-113060560D02*
X139479020Y-113860000D01*
X119159020Y-113860000D02*
X119958460Y-113860000D01*
X119958460Y-113860000D02*
X120857901Y-112960559D01*
X129219019Y-112960559D02*
X129319020Y-113060560D01*
X129319020Y-113060560D02*
X129319020Y-113860000D01*
X120857901Y-112960559D02*
X129219019Y-112960559D01*
X108999020Y-113860000D02*
X109798460Y-113860000D01*
X119059019Y-112960559D02*
X119159020Y-113060560D01*
X109798460Y-113860000D02*
X110697901Y-112960559D01*
X110697901Y-112960559D02*
X119059019Y-112960559D01*
X119159020Y-113060560D02*
X119159020Y-113860000D01*
X98839020Y-113860000D02*
X99638460Y-113860000D01*
X99638460Y-113860000D02*
X100537901Y-112960559D01*
X100537901Y-112960559D02*
X108899019Y-112960559D01*
X108899019Y-112960559D02*
X108999020Y-113060560D01*
X108999020Y-113060560D02*
X108999020Y-113860000D01*
X88679020Y-113860000D02*
X89478460Y-113860000D01*
X89478460Y-113860000D02*
X90377901Y-112960559D01*
X90377901Y-112960559D02*
X98739019Y-112960559D01*
X98739019Y-112960559D02*
X98839020Y-113060560D01*
X98839020Y-113060560D02*
X98839020Y-113860000D01*
X169959020Y-113860000D02*
X170758460Y-113860000D01*
X170758460Y-113860000D02*
X173460001Y-111158459D01*
X173460001Y-111158459D02*
X173460001Y-103460001D01*
X173460001Y-103460001D02*
X169500000Y-99500000D01*
X169500000Y-99500000D02*
X168950000Y-99500000D01*
D22*
X136700564Y-97770454D02*
X134166454Y-97770454D01*
X134166454Y-97770454D02*
X133666000Y-97270000D01*
X136700564Y-98390454D02*
X134323546Y-98390454D01*
X134323546Y-98390454D02*
X133666000Y-99048000D01*
D23*
X134496454Y-90330454D02*
X133666000Y-89500000D01*
X136700564Y-90330454D02*
X134496454Y-90330454D01*
X136700564Y-90950454D02*
X134576456Y-90950454D01*
X134426001Y-90799999D02*
X132840999Y-90799999D01*
X134576456Y-90950454D02*
X134426001Y-90799999D01*
X132840999Y-90799999D02*
X131666000Y-89625000D01*
X131666000Y-89625000D02*
X131666000Y-89500000D01*
X136700564Y-91570454D02*
X133845546Y-91570454D01*
X133845546Y-91570454D02*
X133666000Y-91750000D01*
X132491001Y-92700001D02*
X131666000Y-91875000D01*
X136700564Y-92190454D02*
X135450564Y-92190454D01*
X135450564Y-92190454D02*
X134941017Y-92700001D01*
X134941017Y-92700001D02*
X132491001Y-92700001D01*
X131666000Y-91875000D02*
X131666000Y-91750000D01*
D22*
X136700564Y-97150454D02*
X135274454Y-97150454D01*
X135274454Y-97150454D02*
X133616000Y-95492000D01*
D21*
X121920000Y-86385400D02*
X122453400Y-85852000D01*
X93888200Y-94462600D02*
X106197400Y-94462600D01*
X117125789Y-93237011D02*
X121920000Y-88442800D01*
X92472000Y-96003800D02*
X92472000Y-95878800D01*
X106197400Y-94462600D02*
X107422989Y-93237011D01*
X92472000Y-95878800D02*
X93888200Y-94462600D01*
X107422989Y-93237011D02*
X117125789Y-93237011D01*
X121920000Y-88442800D02*
X121920000Y-86385400D01*
X122453400Y-85852000D02*
X123658000Y-85852000D01*
X123658000Y-85852000D02*
X124920000Y-84590000D01*
X124920000Y-84590000D02*
X125720000Y-84590000D01*
X92522000Y-97731000D02*
X92522000Y-96053800D01*
X92522000Y-96053800D02*
X92472000Y-96003800D01*
X88407400Y-93548200D02*
X106527600Y-93548200D01*
X106527600Y-93548200D02*
X107238800Y-92837000D01*
X85951800Y-96003800D02*
X88407400Y-93548200D01*
X119405400Y-83591400D02*
X120040400Y-82956400D01*
X130437000Y-84590000D02*
X130800000Y-84590000D01*
X107238800Y-92837000D02*
X114808000Y-92837000D01*
X85251800Y-96003800D02*
X85951800Y-96003800D01*
X114808000Y-92837000D02*
X119405400Y-88239600D01*
X119405400Y-88239600D02*
X119405400Y-83591400D01*
X120040400Y-82956400D02*
X128803400Y-82956400D01*
X128803400Y-82956400D02*
X130437000Y-84590000D01*
X85251800Y-96003800D02*
X85251800Y-97693700D01*
X85251800Y-97693700D02*
X85214500Y-97731000D01*
X108601000Y-96003800D02*
X108601000Y-95030800D01*
X108601000Y-95030800D02*
X109321600Y-94310200D01*
X108651000Y-97731000D02*
X108651000Y-96053800D01*
X108651000Y-96053800D02*
X108601000Y-96003800D01*
X131095001Y-88574999D02*
X132540000Y-87130000D01*
X127000000Y-87985600D02*
X127660400Y-88646000D01*
X127000000Y-86385400D02*
X127000000Y-87985600D01*
X126441200Y-85826600D02*
X127000000Y-86385400D01*
X125069600Y-85826600D02*
X126441200Y-85826600D01*
X130865999Y-88646000D02*
X130865999Y-88634999D01*
X130865999Y-88634999D02*
X130925999Y-88574999D01*
X124460000Y-87824300D02*
X124460000Y-86436200D01*
X107588678Y-93637022D02*
X118647278Y-93637022D01*
X127660400Y-88646000D02*
X130865999Y-88646000D01*
X105221900Y-96003800D02*
X107588678Y-93637022D01*
X101406200Y-96003800D02*
X105221900Y-96003800D01*
X130925999Y-88574999D02*
X131095001Y-88574999D01*
X118647278Y-93637022D02*
X124460000Y-87824300D01*
X124460000Y-86436200D02*
X125069600Y-85826600D01*
X132540000Y-87130000D02*
X133340000Y-87130000D01*
X101343500Y-97731000D02*
X101343500Y-96066500D01*
X101343500Y-96066500D02*
X101406200Y-96003800D01*
X161497901Y-101530559D02*
X161497901Y-101502099D01*
X161497901Y-101502099D02*
X163500000Y-99500000D01*
X163500000Y-99500000D02*
X164050000Y-99500000D01*
X159799020Y-102430000D02*
X160598460Y-102430000D01*
X160598460Y-102430000D02*
X161497901Y-101530559D01*
X161497901Y-101530559D02*
X169859019Y-101530559D01*
X169859019Y-101530559D02*
X169959020Y-101630560D01*
X169959020Y-101630560D02*
X169959020Y-102430000D01*
X149639020Y-102430000D02*
X150438460Y-102430000D01*
X150438460Y-102430000D02*
X151337901Y-101530559D01*
X151337901Y-101530559D02*
X159699019Y-101530559D01*
X159699019Y-101530559D02*
X159799020Y-101630560D01*
X159799020Y-101630560D02*
X159799020Y-102430000D01*
X139479020Y-102430000D02*
X140278460Y-102430000D01*
X140278460Y-102430000D02*
X141177901Y-101530559D01*
X141177901Y-101530559D02*
X149539019Y-101530559D01*
X149539019Y-101530559D02*
X149639020Y-101630560D01*
X149639020Y-101630560D02*
X149639020Y-102430000D01*
X129319020Y-102430000D02*
X130118460Y-102430000D01*
X130118460Y-102430000D02*
X131017901Y-101530559D01*
X131017901Y-101530559D02*
X139379019Y-101530559D01*
X139379019Y-101530559D02*
X139479020Y-101630560D01*
X139479020Y-101630560D02*
X139479020Y-102430000D01*
X119159020Y-102430000D02*
X119159020Y-101630560D01*
X119159020Y-101630560D02*
X119259021Y-101530559D01*
X119259021Y-101530559D02*
X129219019Y-101530559D01*
X129219019Y-101530559D02*
X129319020Y-101630560D01*
X129319020Y-101630560D02*
X129319020Y-102430000D01*
X83314500Y-97731000D02*
X83314500Y-100606700D01*
X83314500Y-100606700D02*
X83324600Y-100616800D01*
X94424600Y-100616800D02*
X94424600Y-97733600D01*
X94424600Y-97733600D02*
X94422000Y-97731000D01*
X99450000Y-100600000D02*
X99450000Y-97737500D01*
X99450000Y-97737500D02*
X99443500Y-97731000D01*
X110550000Y-100600000D02*
X110550000Y-97732000D01*
X110550000Y-97732000D02*
X110551000Y-97731000D01*
D23*
X136700564Y-95290454D02*
X134706546Y-95290454D01*
X134706546Y-95290454D02*
X134594600Y-95402400D01*
D24*
G36*
X175820000Y-81574091D02*
X175820000Y-141945909D01*
X173695908Y-144070000D01*
X82844091Y-144070000D01*
X80720000Y-141945908D01*
X80720000Y-138252696D01*
X81294744Y-138252696D01*
X81417353Y-138723701D01*
X81710875Y-139111933D01*
X82130624Y-139358286D01*
X82222391Y-139373462D01*
X82413000Y-139248731D01*
X82413000Y-138057000D01*
X82667000Y-138057000D01*
X82667000Y-139248731D01*
X82857609Y-139373462D01*
X82949376Y-139358286D01*
X83369125Y-139111933D01*
X83662647Y-138723701D01*
X83785256Y-138252696D01*
X83834744Y-138252696D01*
X83957353Y-138723701D01*
X84250875Y-139111933D01*
X84670624Y-139358286D01*
X84762391Y-139373462D01*
X84953000Y-139248731D01*
X84953000Y-138057000D01*
X85207000Y-138057000D01*
X85207000Y-139248731D01*
X85397609Y-139373462D01*
X85489376Y-139358286D01*
X85909125Y-139111933D01*
X86202647Y-138723701D01*
X86325256Y-138252696D01*
X111774744Y-138252696D01*
X111897353Y-138723701D01*
X112190875Y-139111933D01*
X112610624Y-139358286D01*
X112702391Y-139373462D01*
X112893000Y-139248731D01*
X112893000Y-138057000D01*
X113147000Y-138057000D01*
X113147000Y-139248731D01*
X113337609Y-139373462D01*
X113429376Y-139358286D01*
X113849125Y-139111933D01*
X114142647Y-138723701D01*
X114265256Y-138252696D01*
X114102547Y-138057000D01*
X113147000Y-138057000D01*
X112893000Y-138057000D01*
X111937453Y-138057000D01*
X111774744Y-138252696D01*
X86325256Y-138252696D01*
X86162547Y-138057000D01*
X85207000Y-138057000D01*
X84953000Y-138057000D01*
X83997453Y-138057000D01*
X83834744Y-138252696D01*
X83785256Y-138252696D01*
X83622547Y-138057000D01*
X82667000Y-138057000D01*
X82413000Y-138057000D01*
X81457453Y-138057000D01*
X81294744Y-138252696D01*
X80720000Y-138252696D01*
X80720000Y-137607304D01*
X81294744Y-137607304D01*
X81457453Y-137803000D01*
X82413000Y-137803000D01*
X82413000Y-136611269D01*
X82667000Y-136611269D01*
X82667000Y-137803000D01*
X83622547Y-137803000D01*
X83785256Y-137607304D01*
X83834744Y-137607304D01*
X83997453Y-137803000D01*
X84953000Y-137803000D01*
X84953000Y-136611269D01*
X85207000Y-136611269D01*
X85207000Y-137803000D01*
X86162547Y-137803000D01*
X86325256Y-137607304D01*
X86202647Y-137136299D01*
X85909125Y-136748067D01*
X85489376Y-136501714D01*
X85397609Y-136486538D01*
X85207000Y-136611269D01*
X84953000Y-136611269D01*
X84762391Y-136486538D01*
X84670624Y-136501714D01*
X84250875Y-136748067D01*
X83957353Y-137136299D01*
X83834744Y-137607304D01*
X83785256Y-137607304D01*
X83662647Y-137136299D01*
X83369125Y-136748067D01*
X82949376Y-136501714D01*
X82857609Y-136486538D01*
X82667000Y-136611269D01*
X82413000Y-136611269D01*
X82222391Y-136486538D01*
X82130624Y-136501714D01*
X81710875Y-136748067D01*
X81417353Y-137136299D01*
X81294744Y-137607304D01*
X80720000Y-137607304D01*
X80720000Y-135712696D01*
X111774744Y-135712696D01*
X111897353Y-136183701D01*
X112190875Y-136571933D01*
X112340928Y-136660000D01*
X112190875Y-136748067D01*
X111897353Y-137136299D01*
X111774744Y-137607304D01*
X111937453Y-137803000D01*
X112893000Y-137803000D01*
X112893000Y-135517000D01*
X113147000Y-135517000D01*
X113147000Y-137803000D01*
X114102547Y-137803000D01*
X114265256Y-137607304D01*
X114142647Y-137136299D01*
X113849125Y-136748067D01*
X113699072Y-136660000D01*
X113849125Y-136571933D01*
X114142647Y-136183701D01*
X114265256Y-135712696D01*
X114102547Y-135517000D01*
X113147000Y-135517000D01*
X112893000Y-135517000D01*
X111937453Y-135517000D01*
X111774744Y-135712696D01*
X80720000Y-135712696D01*
X80720000Y-135067304D01*
X111774744Y-135067304D01*
X111937453Y-135263000D01*
X112893000Y-135263000D01*
X112893000Y-134071269D01*
X113147000Y-134071269D01*
X113147000Y-135263000D01*
X114102547Y-135263000D01*
X114229002Y-135110907D01*
X114325000Y-135110907D01*
X114325000Y-135669093D01*
X114419009Y-136141707D01*
X114686723Y-136542370D01*
X114862769Y-136660000D01*
X114686723Y-136777630D01*
X114419009Y-137178293D01*
X114325000Y-137650907D01*
X114325000Y-138209093D01*
X114419009Y-138681707D01*
X114686723Y-139082370D01*
X115087386Y-139350084D01*
X115560000Y-139444093D01*
X116032614Y-139350084D01*
X116433277Y-139082370D01*
X116700991Y-138681707D01*
X116795000Y-138209093D01*
X116795000Y-137650907D01*
X116700991Y-137178293D01*
X116433277Y-136777630D01*
X116257231Y-136660000D01*
X116433277Y-136542370D01*
X116700991Y-136141707D01*
X116795000Y-135669093D01*
X116795000Y-135110907D01*
X116865000Y-135110907D01*
X116865000Y-135669093D01*
X116959009Y-136141707D01*
X117226723Y-136542370D01*
X117365000Y-136634764D01*
X117365000Y-136685236D01*
X117226723Y-136777630D01*
X116959009Y-137178293D01*
X116865000Y-137650907D01*
X116865000Y-138209093D01*
X116959009Y-138681707D01*
X117226723Y-139082370D01*
X117627386Y-139350084D01*
X118100000Y-139444093D01*
X118572614Y-139350084D01*
X118973277Y-139082370D01*
X119240991Y-138681707D01*
X119335000Y-138209093D01*
X119335000Y-137650907D01*
X119240991Y-137178293D01*
X118973277Y-136777630D01*
X118835000Y-136685236D01*
X118835000Y-136634764D01*
X118973277Y-136542370D01*
X119240991Y-136141707D01*
X119335000Y-135669093D01*
X119335000Y-135110907D01*
X119405000Y-135110907D01*
X119405000Y-135669093D01*
X119499009Y-136141707D01*
X119766723Y-136542370D01*
X119942769Y-136660000D01*
X119766723Y-136777630D01*
X119499009Y-137178293D01*
X119405000Y-137650907D01*
X119405000Y-138209093D01*
X119499009Y-138681707D01*
X119766723Y-139082370D01*
X120167386Y-139350084D01*
X120640000Y-139444093D01*
X121112614Y-139350084D01*
X121513277Y-139082370D01*
X121780991Y-138681707D01*
X121875000Y-138209093D01*
X121875000Y-137650907D01*
X121780991Y-137178293D01*
X121513277Y-136777630D01*
X121337231Y-136660000D01*
X121513277Y-136542370D01*
X121780991Y-136141707D01*
X121875000Y-135669093D01*
X121875000Y-135110907D01*
X121945000Y-135110907D01*
X121945000Y-135669093D01*
X122039009Y-136141707D01*
X122306723Y-136542370D01*
X122482769Y-136660000D01*
X122306723Y-136777630D01*
X122039009Y-137178293D01*
X121945000Y-137650907D01*
X121945000Y-138209093D01*
X122039009Y-138681707D01*
X122306723Y-139082370D01*
X122707386Y-139350084D01*
X123180000Y-139444093D01*
X123652614Y-139350084D01*
X124053277Y-139082370D01*
X124320991Y-138681707D01*
X124415000Y-138209093D01*
X124415000Y-137650907D01*
X124320991Y-137178293D01*
X124053277Y-136777630D01*
X123877231Y-136660000D01*
X124053277Y-136542370D01*
X124320991Y-136141707D01*
X124415000Y-135669093D01*
X124415000Y-135110907D01*
X124485000Y-135110907D01*
X124485000Y-135669093D01*
X124579009Y-136141707D01*
X124846723Y-136542370D01*
X125022769Y-136660000D01*
X124846723Y-136777630D01*
X124579009Y-137178293D01*
X124485000Y-137650907D01*
X124485000Y-138209093D01*
X124579009Y-138681707D01*
X124846723Y-139082370D01*
X125247386Y-139350084D01*
X125720000Y-139444093D01*
X126192614Y-139350084D01*
X126593277Y-139082370D01*
X126860991Y-138681707D01*
X126955000Y-138209093D01*
X126955000Y-137650907D01*
X126860991Y-137178293D01*
X126593277Y-136777630D01*
X126417231Y-136660000D01*
X126593277Y-136542370D01*
X126860991Y-136141707D01*
X126955000Y-135669093D01*
X126955000Y-135110907D01*
X127025000Y-135110907D01*
X127025000Y-135669093D01*
X127119009Y-136141707D01*
X127386723Y-136542370D01*
X127562769Y-136660000D01*
X127386723Y-136777630D01*
X127119009Y-137178293D01*
X127025000Y-137650907D01*
X127025000Y-138209093D01*
X127119009Y-138681707D01*
X127386723Y-139082370D01*
X127787386Y-139350084D01*
X128260000Y-139444093D01*
X128732614Y-139350084D01*
X129133277Y-139082370D01*
X129400991Y-138681707D01*
X129495000Y-138209093D01*
X129495000Y-137650907D01*
X129400991Y-137178293D01*
X129133277Y-136777630D01*
X128957231Y-136660000D01*
X129133277Y-136542370D01*
X129400991Y-136141707D01*
X129495000Y-135669093D01*
X129495000Y-135110907D01*
X129565000Y-135110907D01*
X129565000Y-135669093D01*
X129659009Y-136141707D01*
X129926723Y-136542370D01*
X130102769Y-136660000D01*
X129926723Y-136777630D01*
X129659009Y-137178293D01*
X129565000Y-137650907D01*
X129565000Y-138209093D01*
X129659009Y-138681707D01*
X129926723Y-139082370D01*
X130327386Y-139350084D01*
X130800000Y-139444093D01*
X131272614Y-139350084D01*
X131673277Y-139082370D01*
X131940991Y-138681707D01*
X132035000Y-138209093D01*
X132035000Y-137650907D01*
X131940991Y-137178293D01*
X131673277Y-136777630D01*
X131497231Y-136660000D01*
X131673277Y-136542370D01*
X131940991Y-136141707D01*
X132035000Y-135669093D01*
X132035000Y-135110907D01*
X132105000Y-135110907D01*
X132105000Y-135669093D01*
X132199009Y-136141707D01*
X132466723Y-136542370D01*
X132642769Y-136660000D01*
X132466723Y-136777630D01*
X132199009Y-137178293D01*
X132105000Y-137650907D01*
X132105000Y-138209093D01*
X132199009Y-138681707D01*
X132466723Y-139082370D01*
X132867386Y-139350084D01*
X133340000Y-139444093D01*
X133812614Y-139350084D01*
X134213277Y-139082370D01*
X134480991Y-138681707D01*
X134575000Y-138209093D01*
X134575000Y-137650907D01*
X134480991Y-137178293D01*
X134213277Y-136777630D01*
X134037231Y-136660000D01*
X134213277Y-136542370D01*
X134480991Y-136141707D01*
X134575000Y-135669093D01*
X134575000Y-135110907D01*
X134645000Y-135110907D01*
X134645000Y-135669093D01*
X134739009Y-136141707D01*
X135006723Y-136542370D01*
X135182769Y-136660000D01*
X135006723Y-136777630D01*
X134739009Y-137178293D01*
X134645000Y-137650907D01*
X134645000Y-138209093D01*
X134739009Y-138681707D01*
X135006723Y-139082370D01*
X135407386Y-139350084D01*
X135880000Y-139444093D01*
X136352614Y-139350084D01*
X136753277Y-139082370D01*
X137020991Y-138681707D01*
X137115000Y-138209093D01*
X137115000Y-137650907D01*
X137020991Y-137178293D01*
X136753277Y-136777630D01*
X136577231Y-136660000D01*
X136753277Y-136542370D01*
X137020991Y-136141707D01*
X137115000Y-135669093D01*
X137115000Y-135110907D01*
X137185000Y-135110907D01*
X137185000Y-135669093D01*
X137279009Y-136141707D01*
X137546723Y-136542370D01*
X137722769Y-136660000D01*
X137546723Y-136777630D01*
X137279009Y-137178293D01*
X137185000Y-137650907D01*
X137185000Y-138209093D01*
X137279009Y-138681707D01*
X137546723Y-139082370D01*
X137947386Y-139350084D01*
X138420000Y-139444093D01*
X138892614Y-139350084D01*
X139293277Y-139082370D01*
X139560991Y-138681707D01*
X139655000Y-138209093D01*
X139655000Y-137650907D01*
X139560991Y-137178293D01*
X139293277Y-136777630D01*
X139117231Y-136660000D01*
X139293277Y-136542370D01*
X139560991Y-136141707D01*
X139655000Y-135669093D01*
X139655000Y-135110907D01*
X139725000Y-135110907D01*
X139725000Y-135669093D01*
X139819009Y-136141707D01*
X140086723Y-136542370D01*
X140262769Y-136660000D01*
X140086723Y-136777630D01*
X139819009Y-137178293D01*
X139725000Y-137650907D01*
X139725000Y-138209093D01*
X139819009Y-138681707D01*
X140086723Y-139082370D01*
X140487386Y-139350084D01*
X140960000Y-139444093D01*
X141432614Y-139350084D01*
X141833277Y-139082370D01*
X142100991Y-138681707D01*
X142195000Y-138209093D01*
X142195000Y-137650907D01*
X142100991Y-137178293D01*
X141833277Y-136777630D01*
X141657231Y-136660000D01*
X141833277Y-136542370D01*
X142100991Y-136141707D01*
X142195000Y-135669093D01*
X142195000Y-135110907D01*
X142265000Y-135110907D01*
X142265000Y-135669093D01*
X142359009Y-136141707D01*
X142626723Y-136542370D01*
X142802769Y-136660000D01*
X142626723Y-136777630D01*
X142359009Y-137178293D01*
X142265000Y-137650907D01*
X142265000Y-138209093D01*
X142359009Y-138681707D01*
X142626723Y-139082370D01*
X143027386Y-139350084D01*
X143500000Y-139444093D01*
X143972614Y-139350084D01*
X144373277Y-139082370D01*
X144640991Y-138681707D01*
X144735000Y-138209093D01*
X144735000Y-137650907D01*
X144640991Y-137178293D01*
X144373277Y-136777630D01*
X144197231Y-136660000D01*
X144373277Y-136542370D01*
X144640991Y-136141707D01*
X144735000Y-135669093D01*
X144735000Y-135110907D01*
X144805000Y-135110907D01*
X144805000Y-135669093D01*
X144899009Y-136141707D01*
X145166723Y-136542370D01*
X145342769Y-136660000D01*
X145166723Y-136777630D01*
X144899009Y-137178293D01*
X144805000Y-137650907D01*
X144805000Y-138209093D01*
X144899009Y-138681707D01*
X145166723Y-139082370D01*
X145567386Y-139350084D01*
X146040000Y-139444093D01*
X146512614Y-139350084D01*
X146913277Y-139082370D01*
X147180991Y-138681707D01*
X147275000Y-138209093D01*
X147275000Y-137650907D01*
X147180991Y-137178293D01*
X146913277Y-136777630D01*
X146737231Y-136660000D01*
X146913277Y-136542370D01*
X147180991Y-136141707D01*
X147275000Y-135669093D01*
X147275000Y-135110907D01*
X147345000Y-135110907D01*
X147345000Y-135669093D01*
X147439009Y-136141707D01*
X147706723Y-136542370D01*
X147882769Y-136660000D01*
X147706723Y-136777630D01*
X147439009Y-137178293D01*
X147345000Y-137650907D01*
X147345000Y-138209093D01*
X147439009Y-138681707D01*
X147706723Y-139082370D01*
X148107386Y-139350084D01*
X148580000Y-139444093D01*
X149052614Y-139350084D01*
X149453277Y-139082370D01*
X149720991Y-138681707D01*
X149815000Y-138209093D01*
X149815000Y-137650907D01*
X149720991Y-137178293D01*
X149453277Y-136777630D01*
X149277231Y-136660000D01*
X149453277Y-136542370D01*
X149720991Y-136141707D01*
X149815000Y-135669093D01*
X149815000Y-135110907D01*
X149885000Y-135110907D01*
X149885000Y-135669093D01*
X149979009Y-136141707D01*
X150246723Y-136542370D01*
X150422769Y-136660000D01*
X150246723Y-136777630D01*
X149979009Y-137178293D01*
X149885000Y-137650907D01*
X149885000Y-138209093D01*
X149979009Y-138681707D01*
X150246723Y-139082370D01*
X150647386Y-139350084D01*
X151120000Y-139444093D01*
X151592614Y-139350084D01*
X151993277Y-139082370D01*
X152260991Y-138681707D01*
X152355000Y-138209093D01*
X152355000Y-137650907D01*
X152260991Y-137178293D01*
X151993277Y-136777630D01*
X151817231Y-136660000D01*
X151993277Y-136542370D01*
X152260991Y-136141707D01*
X152355000Y-135669093D01*
X152355000Y-135110907D01*
X152425000Y-135110907D01*
X152425000Y-135669093D01*
X152519009Y-136141707D01*
X152786723Y-136542370D01*
X152962769Y-136660000D01*
X152786723Y-136777630D01*
X152519009Y-137178293D01*
X152425000Y-137650907D01*
X152425000Y-138209093D01*
X152519009Y-138681707D01*
X152786723Y-139082370D01*
X153187386Y-139350084D01*
X153660000Y-139444093D01*
X154132614Y-139350084D01*
X154533277Y-139082370D01*
X154800991Y-138681707D01*
X154895000Y-138209093D01*
X154895000Y-137650907D01*
X154800991Y-137178293D01*
X154533277Y-136777630D01*
X154357231Y-136660000D01*
X154533277Y-136542370D01*
X154800991Y-136141707D01*
X154895000Y-135669093D01*
X154895000Y-135110907D01*
X154965000Y-135110907D01*
X154965000Y-135669093D01*
X155059009Y-136141707D01*
X155326723Y-136542370D01*
X155502769Y-136660000D01*
X155326723Y-136777630D01*
X155059009Y-137178293D01*
X154965000Y-137650907D01*
X154965000Y-138209093D01*
X155059009Y-138681707D01*
X155326723Y-139082370D01*
X155727386Y-139350084D01*
X156200000Y-139444093D01*
X156672614Y-139350084D01*
X157073277Y-139082370D01*
X157340991Y-138681707D01*
X157435000Y-138209093D01*
X157435000Y-137650907D01*
X157340991Y-137178293D01*
X157073277Y-136777630D01*
X156897231Y-136660000D01*
X157073277Y-136542370D01*
X157340991Y-136141707D01*
X157435000Y-135669093D01*
X157435000Y-135110907D01*
X157505000Y-135110907D01*
X157505000Y-135669093D01*
X157599009Y-136141707D01*
X157866723Y-136542370D01*
X158042769Y-136660000D01*
X157866723Y-136777630D01*
X157599009Y-137178293D01*
X157505000Y-137650907D01*
X157505000Y-138209093D01*
X157599009Y-138681707D01*
X157866723Y-139082370D01*
X158267386Y-139350084D01*
X158740000Y-139444093D01*
X159212614Y-139350084D01*
X159613277Y-139082370D01*
X159880991Y-138681707D01*
X159975000Y-138209093D01*
X159975000Y-137650907D01*
X159880991Y-137178293D01*
X159613277Y-136777630D01*
X159437231Y-136660000D01*
X159613277Y-136542370D01*
X159880991Y-136141707D01*
X159975000Y-135669093D01*
X159975000Y-135110907D01*
X160045000Y-135110907D01*
X160045000Y-135669093D01*
X160139009Y-136141707D01*
X160406723Y-136542370D01*
X160582769Y-136660000D01*
X160406723Y-136777630D01*
X160139009Y-137178293D01*
X160045000Y-137650907D01*
X160045000Y-138209093D01*
X160139009Y-138681707D01*
X160406723Y-139082370D01*
X160807386Y-139350084D01*
X161280000Y-139444093D01*
X161752614Y-139350084D01*
X162153277Y-139082370D01*
X162420991Y-138681707D01*
X162515000Y-138209093D01*
X162515000Y-137650907D01*
X162420991Y-137178293D01*
X162153277Y-136777630D01*
X161977231Y-136660000D01*
X162153277Y-136542370D01*
X162420991Y-136141707D01*
X162515000Y-135669093D01*
X162515000Y-135110907D01*
X162585000Y-135110907D01*
X162585000Y-135669093D01*
X162679009Y-136141707D01*
X162946723Y-136542370D01*
X163122769Y-136660000D01*
X162946723Y-136777630D01*
X162679009Y-137178293D01*
X162585000Y-137650907D01*
X162585000Y-138209093D01*
X162679009Y-138681707D01*
X162946723Y-139082370D01*
X163347386Y-139350084D01*
X163820000Y-139444093D01*
X164292614Y-139350084D01*
X164693277Y-139082370D01*
X164960991Y-138681707D01*
X165055000Y-138209093D01*
X165055000Y-137650907D01*
X164960991Y-137178293D01*
X164693277Y-136777630D01*
X164517231Y-136660000D01*
X164693277Y-136542370D01*
X164960991Y-136141707D01*
X165055000Y-135669093D01*
X165055000Y-135110907D01*
X165125000Y-135110907D01*
X165125000Y-135669093D01*
X165219009Y-136141707D01*
X165486723Y-136542370D01*
X165662769Y-136660000D01*
X165486723Y-136777630D01*
X165219009Y-137178293D01*
X165125000Y-137650907D01*
X165125000Y-138209093D01*
X165219009Y-138681707D01*
X165486723Y-139082370D01*
X165887386Y-139350084D01*
X166360000Y-139444093D01*
X166832614Y-139350084D01*
X167233277Y-139082370D01*
X167500991Y-138681707D01*
X167595000Y-138209093D01*
X167595000Y-137650907D01*
X167500991Y-137178293D01*
X167233277Y-136777630D01*
X167057231Y-136660000D01*
X167233277Y-136542370D01*
X167500991Y-136141707D01*
X167595000Y-135669093D01*
X167595000Y-135110907D01*
X167665000Y-135110907D01*
X167665000Y-135669093D01*
X167759009Y-136141707D01*
X168026723Y-136542370D01*
X168202769Y-136660000D01*
X168026723Y-136777630D01*
X167759009Y-137178293D01*
X167665000Y-137650907D01*
X167665000Y-138209093D01*
X167759009Y-138681707D01*
X168026723Y-139082370D01*
X168427386Y-139350084D01*
X168900000Y-139444093D01*
X169372614Y-139350084D01*
X169773277Y-139082370D01*
X170040991Y-138681707D01*
X170135000Y-138209093D01*
X170135000Y-137650907D01*
X170040991Y-137178293D01*
X169773277Y-136777630D01*
X169597231Y-136660000D01*
X169773277Y-136542370D01*
X170040991Y-136141707D01*
X170135000Y-135669093D01*
X170135000Y-135110907D01*
X170205000Y-135110907D01*
X170205000Y-135669093D01*
X170299009Y-136141707D01*
X170566723Y-136542370D01*
X170742769Y-136660000D01*
X170566723Y-136777630D01*
X170299009Y-137178293D01*
X170205000Y-137650907D01*
X170205000Y-138209093D01*
X170299009Y-138681707D01*
X170566723Y-139082370D01*
X170967386Y-139350084D01*
X171440000Y-139444093D01*
X171912614Y-139350084D01*
X172313277Y-139082370D01*
X172580991Y-138681707D01*
X172666326Y-138252696D01*
X172734744Y-138252696D01*
X172857353Y-138723701D01*
X173150875Y-139111933D01*
X173570624Y-139358286D01*
X173662391Y-139373462D01*
X173853000Y-139248731D01*
X173853000Y-138057000D01*
X174107000Y-138057000D01*
X174107000Y-139248731D01*
X174297609Y-139373462D01*
X174389376Y-139358286D01*
X174809125Y-139111933D01*
X175102647Y-138723701D01*
X175225256Y-138252696D01*
X175062547Y-138057000D01*
X174107000Y-138057000D01*
X173853000Y-138057000D01*
X172897453Y-138057000D01*
X172734744Y-138252696D01*
X172666326Y-138252696D01*
X172675000Y-138209093D01*
X172675000Y-137650907D01*
X172580991Y-137178293D01*
X172313277Y-136777630D01*
X172137231Y-136660000D01*
X172313277Y-136542370D01*
X172580991Y-136141707D01*
X172666326Y-135712696D01*
X172734744Y-135712696D01*
X172857353Y-136183701D01*
X173150875Y-136571933D01*
X173300928Y-136660000D01*
X173150875Y-136748067D01*
X172857353Y-137136299D01*
X172734744Y-137607304D01*
X172897453Y-137803000D01*
X173853000Y-137803000D01*
X173853000Y-135517000D01*
X174107000Y-135517000D01*
X174107000Y-137803000D01*
X175062547Y-137803000D01*
X175225256Y-137607304D01*
X175102647Y-137136299D01*
X174809125Y-136748067D01*
X174659072Y-136660000D01*
X174809125Y-136571933D01*
X175102647Y-136183701D01*
X175225256Y-135712696D01*
X175062547Y-135517000D01*
X174107000Y-135517000D01*
X173853000Y-135517000D01*
X172897453Y-135517000D01*
X172734744Y-135712696D01*
X172666326Y-135712696D01*
X172675000Y-135669093D01*
X172675000Y-135110907D01*
X172666327Y-135067304D01*
X172734744Y-135067304D01*
X172897453Y-135263000D01*
X173853000Y-135263000D01*
X173853000Y-134071269D01*
X174107000Y-134071269D01*
X174107000Y-135263000D01*
X175062547Y-135263000D01*
X175225256Y-135067304D01*
X175102647Y-134596299D01*
X174809125Y-134208067D01*
X174389376Y-133961714D01*
X174297609Y-133946538D01*
X174107000Y-134071269D01*
X173853000Y-134071269D01*
X173662391Y-133946538D01*
X173570624Y-133961714D01*
X173150875Y-134208067D01*
X172857353Y-134596299D01*
X172734744Y-135067304D01*
X172666327Y-135067304D01*
X172580991Y-134638293D01*
X172313277Y-134237630D01*
X171912614Y-133969916D01*
X171440000Y-133875907D01*
X170967386Y-133969916D01*
X170566723Y-134237630D01*
X170299009Y-134638293D01*
X170205000Y-135110907D01*
X170135000Y-135110907D01*
X170040991Y-134638293D01*
X169773277Y-134237630D01*
X169372614Y-133969916D01*
X168900000Y-133875907D01*
X168427386Y-133969916D01*
X168026723Y-134237630D01*
X167759009Y-134638293D01*
X167665000Y-135110907D01*
X167595000Y-135110907D01*
X167500991Y-134638293D01*
X167233277Y-134237630D01*
X166832614Y-133969916D01*
X166360000Y-133875907D01*
X165887386Y-133969916D01*
X165486723Y-134237630D01*
X165219009Y-134638293D01*
X165125000Y-135110907D01*
X165055000Y-135110907D01*
X164960991Y-134638293D01*
X164693277Y-134237630D01*
X164292614Y-133969916D01*
X163820000Y-133875907D01*
X163347386Y-133969916D01*
X162946723Y-134237630D01*
X162679009Y-134638293D01*
X162585000Y-135110907D01*
X162515000Y-135110907D01*
X162420991Y-134638293D01*
X162153277Y-134237630D01*
X161752614Y-133969916D01*
X161280000Y-133875907D01*
X160807386Y-133969916D01*
X160406723Y-134237630D01*
X160139009Y-134638293D01*
X160045000Y-135110907D01*
X159975000Y-135110907D01*
X159880991Y-134638293D01*
X159613277Y-134237630D01*
X159212614Y-133969916D01*
X158740000Y-133875907D01*
X158267386Y-133969916D01*
X157866723Y-134237630D01*
X157599009Y-134638293D01*
X157505000Y-135110907D01*
X157435000Y-135110907D01*
X157340991Y-134638293D01*
X157073277Y-134237630D01*
X156672614Y-133969916D01*
X156200000Y-133875907D01*
X155727386Y-133969916D01*
X155326723Y-134237630D01*
X155059009Y-134638293D01*
X154965000Y-135110907D01*
X154895000Y-135110907D01*
X154800991Y-134638293D01*
X154533277Y-134237630D01*
X154132614Y-133969916D01*
X153660000Y-133875907D01*
X153187386Y-133969916D01*
X152786723Y-134237630D01*
X152519009Y-134638293D01*
X152425000Y-135110907D01*
X152355000Y-135110907D01*
X152260991Y-134638293D01*
X151993277Y-134237630D01*
X151592614Y-133969916D01*
X151120000Y-133875907D01*
X150647386Y-133969916D01*
X150246723Y-134237630D01*
X149979009Y-134638293D01*
X149885000Y-135110907D01*
X149815000Y-135110907D01*
X149720991Y-134638293D01*
X149453277Y-134237630D01*
X149052614Y-133969916D01*
X148580000Y-133875907D01*
X148107386Y-133969916D01*
X147706723Y-134237630D01*
X147439009Y-134638293D01*
X147345000Y-135110907D01*
X147275000Y-135110907D01*
X147180991Y-134638293D01*
X146913277Y-134237630D01*
X146512614Y-133969916D01*
X146040000Y-133875907D01*
X145567386Y-133969916D01*
X145166723Y-134237630D01*
X144899009Y-134638293D01*
X144805000Y-135110907D01*
X144735000Y-135110907D01*
X144640991Y-134638293D01*
X144373277Y-134237630D01*
X143972614Y-133969916D01*
X143500000Y-133875907D01*
X143027386Y-133969916D01*
X142626723Y-134237630D01*
X142359009Y-134638293D01*
X142265000Y-135110907D01*
X142195000Y-135110907D01*
X142100991Y-134638293D01*
X141833277Y-134237630D01*
X141432614Y-133969916D01*
X140960000Y-133875907D01*
X140487386Y-133969916D01*
X140086723Y-134237630D01*
X139819009Y-134638293D01*
X139725000Y-135110907D01*
X139655000Y-135110907D01*
X139560991Y-134638293D01*
X139293277Y-134237630D01*
X138892614Y-133969916D01*
X138420000Y-133875907D01*
X137947386Y-133969916D01*
X137546723Y-134237630D01*
X137279009Y-134638293D01*
X137185000Y-135110907D01*
X137115000Y-135110907D01*
X137020991Y-134638293D01*
X136753277Y-134237630D01*
X136352614Y-133969916D01*
X135880000Y-133875907D01*
X135407386Y-133969916D01*
X135006723Y-134237630D01*
X134739009Y-134638293D01*
X134645000Y-135110907D01*
X134575000Y-135110907D01*
X134480991Y-134638293D01*
X134213277Y-134237630D01*
X133812614Y-133969916D01*
X133340000Y-133875907D01*
X132867386Y-133969916D01*
X132466723Y-134237630D01*
X132199009Y-134638293D01*
X132105000Y-135110907D01*
X132035000Y-135110907D01*
X131940991Y-134638293D01*
X131673277Y-134237630D01*
X131272614Y-133969916D01*
X130800000Y-133875907D01*
X130327386Y-133969916D01*
X129926723Y-134237630D01*
X129659009Y-134638293D01*
X129565000Y-135110907D01*
X129495000Y-135110907D01*
X129400991Y-134638293D01*
X129133277Y-134237630D01*
X128732614Y-133969916D01*
X128260000Y-133875907D01*
X127787386Y-133969916D01*
X127386723Y-134237630D01*
X127119009Y-134638293D01*
X127025000Y-135110907D01*
X126955000Y-135110907D01*
X126860991Y-134638293D01*
X126593277Y-134237630D01*
X126192614Y-133969916D01*
X125720000Y-133875907D01*
X125247386Y-133969916D01*
X124846723Y-134237630D01*
X124579009Y-134638293D01*
X124485000Y-135110907D01*
X124415000Y-135110907D01*
X124320991Y-134638293D01*
X124053277Y-134237630D01*
X123652614Y-133969916D01*
X123180000Y-133875907D01*
X122707386Y-133969916D01*
X122306723Y-134237630D01*
X122039009Y-134638293D01*
X121945000Y-135110907D01*
X121875000Y-135110907D01*
X121780991Y-134638293D01*
X121513277Y-134237630D01*
X121112614Y-133969916D01*
X120640000Y-133875907D01*
X120167386Y-133969916D01*
X119766723Y-134237630D01*
X119499009Y-134638293D01*
X119405000Y-135110907D01*
X119335000Y-135110907D01*
X119240991Y-134638293D01*
X118973277Y-134237630D01*
X118572614Y-133969916D01*
X118100000Y-133875907D01*
X117627386Y-133969916D01*
X117226723Y-134237630D01*
X116959009Y-134638293D01*
X116865000Y-135110907D01*
X116795000Y-135110907D01*
X116700991Y-134638293D01*
X116433277Y-134237630D01*
X116032614Y-133969916D01*
X115560000Y-133875907D01*
X115087386Y-133969916D01*
X114686723Y-134237630D01*
X114419009Y-134638293D01*
X114325000Y-135110907D01*
X114229002Y-135110907D01*
X114265256Y-135067304D01*
X114142647Y-134596299D01*
X113849125Y-134208067D01*
X113429376Y-133961714D01*
X113337609Y-133946538D01*
X113147000Y-134071269D01*
X112893000Y-134071269D01*
X112702391Y-133946538D01*
X112610624Y-133961714D01*
X112190875Y-134208067D01*
X111897353Y-134596299D01*
X111774744Y-135067304D01*
X80720000Y-135067304D01*
X80720000Y-109897013D01*
X82523992Y-109897013D01*
X82593457Y-110139197D01*
X83116902Y-110325944D01*
X83671968Y-110298162D01*
X84055743Y-110139197D01*
X84125208Y-109897013D01*
X83324600Y-109096405D01*
X82523992Y-109897013D01*
X80720000Y-109897013D01*
X80720000Y-108709102D01*
X81915456Y-108709102D01*
X81943238Y-109264168D01*
X82102203Y-109647943D01*
X82344387Y-109717408D01*
X83144995Y-108916800D01*
X83504205Y-108916800D01*
X84304813Y-109717408D01*
X84546997Y-109647943D01*
X84733744Y-109124498D01*
X84705962Y-108569432D01*
X84546997Y-108185657D01*
X84304813Y-108116192D01*
X83504205Y-108916800D01*
X83144995Y-108916800D01*
X82344387Y-108116192D01*
X82102203Y-108185657D01*
X81915456Y-108709102D01*
X80720000Y-108709102D01*
X80720000Y-107936587D01*
X82523992Y-107936587D01*
X83324600Y-108737195D01*
X84125208Y-107936587D01*
X84055743Y-107694403D01*
X83532298Y-107507656D01*
X82977232Y-107535438D01*
X82593457Y-107694403D01*
X82523992Y-107936587D01*
X80720000Y-107936587D01*
X80720000Y-105189615D01*
X81189230Y-105189615D01*
X81513580Y-105974600D01*
X82113641Y-106575709D01*
X82898059Y-106901428D01*
X83747415Y-106902170D01*
X84532400Y-106577820D01*
X85133509Y-105977759D01*
X85459228Y-105193341D01*
X85459231Y-105189615D01*
X92289230Y-105189615D01*
X92613580Y-105974600D01*
X93213641Y-106575709D01*
X93998059Y-106901428D01*
X94847415Y-106902170D01*
X95632400Y-106577820D01*
X96233509Y-105977759D01*
X96559228Y-105193341D01*
X96559245Y-105172815D01*
X97314630Y-105172815D01*
X97638980Y-105957800D01*
X98239041Y-106558909D01*
X99023459Y-106884628D01*
X99872815Y-106885370D01*
X100657800Y-106561020D01*
X101258909Y-105960959D01*
X101584628Y-105176541D01*
X101584631Y-105172815D01*
X108414630Y-105172815D01*
X108738980Y-105957800D01*
X109339041Y-106558909D01*
X110123459Y-106884628D01*
X110972815Y-106885370D01*
X111757800Y-106561020D01*
X112358909Y-105960959D01*
X112684628Y-105176541D01*
X112685370Y-104327185D01*
X112361020Y-103542200D01*
X111760959Y-102941091D01*
X110976541Y-102615372D01*
X110127185Y-102614630D01*
X109342200Y-102938980D01*
X108741091Y-103539041D01*
X108415372Y-104323459D01*
X108414630Y-105172815D01*
X101584631Y-105172815D01*
X101585370Y-104327185D01*
X101261020Y-103542200D01*
X100660959Y-102941091D01*
X99876541Y-102615372D01*
X99027185Y-102614630D01*
X98242200Y-102938980D01*
X97641091Y-103539041D01*
X97315372Y-104323459D01*
X97314630Y-105172815D01*
X96559245Y-105172815D01*
X96559970Y-104343985D01*
X96235620Y-103559000D01*
X95635559Y-102957891D01*
X94851141Y-102632172D01*
X94001785Y-102631430D01*
X93216800Y-102955780D01*
X92615691Y-103555841D01*
X92289972Y-104340259D01*
X92289230Y-105189615D01*
X85459231Y-105189615D01*
X85459970Y-104343985D01*
X85135620Y-103559000D01*
X84535559Y-102957891D01*
X83751141Y-102632172D01*
X82901785Y-102631430D01*
X82116800Y-102955780D01*
X81515691Y-103555841D01*
X81189972Y-104340259D01*
X81189230Y-105189615D01*
X80720000Y-105189615D01*
X80720000Y-100893461D01*
X81927358Y-100893461D01*
X82139590Y-101407103D01*
X82532230Y-101800429D01*
X83045500Y-102013557D01*
X83601261Y-102014042D01*
X84114903Y-101801810D01*
X84508229Y-101409170D01*
X84721357Y-100895900D01*
X84721842Y-100340139D01*
X84509610Y-99826497D01*
X84116970Y-99433171D01*
X84049500Y-99405155D01*
X84049500Y-98887844D01*
X84115941Y-98845090D01*
X84260931Y-98632890D01*
X84263581Y-98619803D01*
X84400410Y-98832441D01*
X84612610Y-98977431D01*
X84864500Y-99028440D01*
X85564500Y-99028440D01*
X85799817Y-98984162D01*
X86015941Y-98845090D01*
X86160931Y-98632890D01*
X86211940Y-98381000D01*
X86211940Y-98193461D01*
X87427358Y-98193461D01*
X87639590Y-98707103D01*
X88032230Y-99100429D01*
X88545500Y-99313557D01*
X89101261Y-99314042D01*
X89614903Y-99101810D01*
X90008229Y-98709170D01*
X90221357Y-98195900D01*
X90221842Y-97640139D01*
X90009610Y-97126497D01*
X89616970Y-96733171D01*
X89103700Y-96520043D01*
X88547939Y-96519558D01*
X88034297Y-96731790D01*
X87640971Y-97124430D01*
X87427843Y-97637700D01*
X87427358Y-98193461D01*
X86211940Y-98193461D01*
X86211940Y-97081000D01*
X86211816Y-97080340D01*
X86348231Y-96880690D01*
X86399240Y-96628800D01*
X86399240Y-96571821D01*
X86471523Y-96523523D01*
X88711847Y-94283200D01*
X93028153Y-94283200D01*
X92579994Y-94731360D01*
X91972000Y-94731360D01*
X91736683Y-94775638D01*
X91520559Y-94914710D01*
X91375569Y-95126910D01*
X91324560Y-95378800D01*
X91324560Y-96628800D01*
X91368838Y-96864117D01*
X91507910Y-97080241D01*
X91524560Y-97091617D01*
X91524560Y-98381000D01*
X91568838Y-98616317D01*
X91707910Y-98832441D01*
X91920110Y-98977431D01*
X92172000Y-99028440D01*
X92872000Y-99028440D01*
X93107317Y-98984162D01*
X93323441Y-98845090D01*
X93468431Y-98632890D01*
X93471081Y-98619803D01*
X93607910Y-98832441D01*
X93689600Y-98888257D01*
X93689600Y-99408939D01*
X93634297Y-99431790D01*
X93240971Y-99824430D01*
X93027843Y-100337700D01*
X93027358Y-100893461D01*
X93239590Y-101407103D01*
X93632230Y-101800429D01*
X94145500Y-102013557D01*
X94701261Y-102014042D01*
X95214903Y-101801810D01*
X95608229Y-101409170D01*
X95821357Y-100895900D01*
X95821842Y-100340139D01*
X95609610Y-99826497D01*
X95216970Y-99433171D01*
X95159600Y-99409349D01*
X95159600Y-98886171D01*
X95223441Y-98845090D01*
X95368431Y-98632890D01*
X95419440Y-98381000D01*
X95419440Y-97081000D01*
X95419184Y-97079641D01*
X95510327Y-96988499D01*
X95607000Y-96755110D01*
X95607000Y-96289550D01*
X95448250Y-96130800D01*
X94599000Y-96130800D01*
X94599000Y-96150800D01*
X94345000Y-96150800D01*
X94345000Y-96130800D01*
X94325000Y-96130800D01*
X94325000Y-95876800D01*
X94345000Y-95876800D01*
X94345000Y-95856800D01*
X94599000Y-95856800D01*
X94599000Y-95876800D01*
X95448250Y-95876800D01*
X95607000Y-95718050D01*
X95607000Y-95252490D01*
X95584264Y-95197600D01*
X98293936Y-95197600D01*
X98271200Y-95252490D01*
X98271200Y-95718050D01*
X98429950Y-95876800D01*
X99279200Y-95876800D01*
X99279200Y-95856800D01*
X99533200Y-95856800D01*
X99533200Y-95876800D01*
X99553200Y-95876800D01*
X99553200Y-96130800D01*
X99533200Y-96130800D01*
X99533200Y-96150800D01*
X99279200Y-96150800D01*
X99279200Y-96130800D01*
X98429950Y-96130800D01*
X98271200Y-96289550D01*
X98271200Y-96755110D01*
X98367873Y-96988499D01*
X98448471Y-97069096D01*
X98446060Y-97081000D01*
X98446060Y-98381000D01*
X98490338Y-98616317D01*
X98629410Y-98832441D01*
X98715000Y-98890922D01*
X98715000Y-99392139D01*
X98659697Y-99414990D01*
X98266371Y-99807630D01*
X98053243Y-100320900D01*
X98052758Y-100876661D01*
X98264990Y-101390303D01*
X98657630Y-101783629D01*
X99170900Y-101996757D01*
X99726661Y-101997242D01*
X100240303Y-101785010D01*
X100633629Y-101392370D01*
X100846757Y-100879100D01*
X100847242Y-100323339D01*
X100635010Y-99809697D01*
X100242370Y-99416371D01*
X100185000Y-99392549D01*
X100185000Y-98883661D01*
X100244941Y-98845090D01*
X100389931Y-98632890D01*
X100392581Y-98619803D01*
X100529410Y-98832441D01*
X100741610Y-98977431D01*
X100993500Y-99028440D01*
X101693500Y-99028440D01*
X101928817Y-98984162D01*
X102144941Y-98845090D01*
X102289931Y-98632890D01*
X102340940Y-98381000D01*
X102340940Y-97103637D01*
X102357641Y-97092890D01*
X102502631Y-96880690D01*
X102531364Y-96738800D01*
X104135845Y-96738800D01*
X103766371Y-97107630D01*
X103553243Y-97620900D01*
X103552758Y-98176661D01*
X103764990Y-98690303D01*
X104157630Y-99083629D01*
X104670900Y-99296757D01*
X105226661Y-99297242D01*
X105740303Y-99085010D01*
X106133629Y-98692370D01*
X106346757Y-98179100D01*
X106347242Y-97623339D01*
X106135010Y-97109697D01*
X105742370Y-96716371D01*
X105563909Y-96642268D01*
X105741623Y-96523523D01*
X107893125Y-94372022D01*
X108220332Y-94372022D01*
X108081277Y-94511077D01*
X107921949Y-94749528D01*
X107918741Y-94765654D01*
X107865683Y-94775638D01*
X107649559Y-94914710D01*
X107504569Y-95126910D01*
X107453560Y-95378800D01*
X107453560Y-96628800D01*
X107497838Y-96864117D01*
X107636910Y-97080241D01*
X107653560Y-97091617D01*
X107653560Y-98381000D01*
X107697838Y-98616317D01*
X107836910Y-98832441D01*
X108049110Y-98977431D01*
X108301000Y-99028440D01*
X109001000Y-99028440D01*
X109236317Y-98984162D01*
X109452441Y-98845090D01*
X109597431Y-98632890D01*
X109600081Y-98619803D01*
X109736910Y-98832441D01*
X109815000Y-98885798D01*
X109815000Y-99392139D01*
X109759697Y-99414990D01*
X109366371Y-99807630D01*
X109153243Y-100320900D01*
X109152758Y-100876661D01*
X109364990Y-101390303D01*
X109757630Y-101783629D01*
X110270900Y-101996757D01*
X110826661Y-101997242D01*
X111340303Y-101785010D01*
X111733629Y-101392370D01*
X111946757Y-100879100D01*
X111947242Y-100323339D01*
X111735010Y-99809697D01*
X111342370Y-99416371D01*
X111285000Y-99392549D01*
X111285000Y-98888487D01*
X111352441Y-98845090D01*
X111497431Y-98632890D01*
X111548440Y-98381000D01*
X111548440Y-97081000D01*
X111548184Y-97079641D01*
X111639327Y-96988499D01*
X111736000Y-96755110D01*
X111736000Y-96289550D01*
X111577250Y-96130800D01*
X110728000Y-96130800D01*
X110728000Y-96150800D01*
X110474000Y-96150800D01*
X110474000Y-96130800D01*
X110454000Y-96130800D01*
X110454000Y-95876800D01*
X110474000Y-95876800D01*
X110474000Y-94902550D01*
X110728000Y-94902550D01*
X110728000Y-95876800D01*
X111577250Y-95876800D01*
X111736000Y-95718050D01*
X111736000Y-95252490D01*
X111639327Y-95019101D01*
X111460698Y-94840473D01*
X111227309Y-94743800D01*
X110886750Y-94743800D01*
X110728000Y-94902550D01*
X110474000Y-94902550D01*
X110315250Y-94743800D01*
X110153957Y-94743800D01*
X110256438Y-94496999D01*
X110256547Y-94372022D01*
X117688532Y-94372022D01*
X113040276Y-99020278D01*
X112880948Y-99258729D01*
X112824999Y-99540001D01*
X112824999Y-107134999D01*
X112864066Y-107331401D01*
X112880948Y-107416271D01*
X113040276Y-107654722D01*
X113550554Y-108165000D01*
X111757861Y-108165000D01*
X111735010Y-108109697D01*
X111342370Y-107716371D01*
X110829100Y-107503243D01*
X110273339Y-107502758D01*
X109759697Y-107714990D01*
X109366371Y-108107630D01*
X109153243Y-108620900D01*
X109152758Y-109176661D01*
X109173558Y-109227001D01*
X100816581Y-109227001D01*
X100859144Y-109107698D01*
X100831362Y-108552632D01*
X100672397Y-108168857D01*
X100430213Y-108099392D01*
X99629605Y-108900000D01*
X99643748Y-108914143D01*
X99464143Y-109093748D01*
X99450000Y-109079605D01*
X99435858Y-109093748D01*
X99256253Y-108914143D01*
X99270395Y-108900000D01*
X98469787Y-108099392D01*
X98227603Y-108168857D01*
X98040856Y-108692302D01*
X98067619Y-109227001D01*
X95808443Y-109227001D01*
X95821357Y-109195900D01*
X95821842Y-108640139D01*
X95609610Y-108126497D01*
X95403261Y-107919787D01*
X98649392Y-107919787D01*
X99450000Y-108720395D01*
X100250608Y-107919787D01*
X100181143Y-107677603D01*
X99657698Y-107490856D01*
X99102632Y-107518638D01*
X98718857Y-107677603D01*
X98649392Y-107919787D01*
X95403261Y-107919787D01*
X95216970Y-107733171D01*
X94703700Y-107520043D01*
X94147939Y-107519558D01*
X93634297Y-107731790D01*
X93240971Y-108124430D01*
X93027843Y-108637700D01*
X93027358Y-109193461D01*
X93048158Y-109243801D01*
X88723297Y-109243801D01*
X88442025Y-109299750D01*
X88203574Y-109459077D01*
X82560276Y-115102376D01*
X82400948Y-115340827D01*
X82344999Y-115622099D01*
X82344999Y-118564999D01*
X82389119Y-118786801D01*
X82400948Y-118846271D01*
X82560276Y-119084722D01*
X83285832Y-119810279D01*
X83144683Y-119836838D01*
X82928559Y-119975910D01*
X82783569Y-120188110D01*
X82732560Y-120440000D01*
X82732560Y-121440000D01*
X82776838Y-121675317D01*
X82915910Y-121891441D01*
X83128110Y-122036431D01*
X83286956Y-122068598D01*
X82560276Y-122795278D01*
X82400948Y-123033729D01*
X82344999Y-123315001D01*
X82344999Y-129994999D01*
X82380804Y-130175000D01*
X82400948Y-130276271D01*
X82560276Y-130514722D01*
X83285832Y-131240279D01*
X83144683Y-131266838D01*
X82928559Y-131405910D01*
X82783569Y-131618110D01*
X82732560Y-131870000D01*
X82732560Y-132870000D01*
X82776838Y-133105317D01*
X82915910Y-133321441D01*
X83128110Y-133466431D01*
X83380000Y-133517440D01*
X86130000Y-133517440D01*
X86365317Y-133473162D01*
X86581441Y-133334090D01*
X86726431Y-133121890D01*
X86729851Y-133105000D01*
X88526778Y-133105000D01*
X88526838Y-133105317D01*
X88665910Y-133321441D01*
X88878110Y-133466431D01*
X89130000Y-133517440D01*
X91880000Y-133517440D01*
X92115317Y-133473162D01*
X92331441Y-133334090D01*
X92476431Y-133121890D01*
X92479851Y-133105000D01*
X92936778Y-133105000D01*
X92936838Y-133105317D01*
X93075910Y-133321441D01*
X93288110Y-133466431D01*
X93540000Y-133517440D01*
X96290000Y-133517440D01*
X96525317Y-133473162D01*
X96741441Y-133334090D01*
X96886431Y-133121890D01*
X96889851Y-133105000D01*
X98686778Y-133105000D01*
X98686838Y-133105317D01*
X98825910Y-133321441D01*
X99038110Y-133466431D01*
X99290000Y-133517440D01*
X102040000Y-133517440D01*
X102275317Y-133473162D01*
X102491441Y-133334090D01*
X102636431Y-133121890D01*
X102639851Y-133105000D01*
X103096778Y-133105000D01*
X103096838Y-133105317D01*
X103235910Y-133321441D01*
X103448110Y-133466431D01*
X103700000Y-133517440D01*
X106450000Y-133517440D01*
X106685317Y-133473162D01*
X106901441Y-133334090D01*
X107046431Y-133121890D01*
X107049851Y-133105000D01*
X108846778Y-133105000D01*
X108846838Y-133105317D01*
X108985910Y-133321441D01*
X109198110Y-133466431D01*
X109450000Y-133517440D01*
X112200000Y-133517440D01*
X112435317Y-133473162D01*
X112651441Y-133334090D01*
X112796431Y-133121890D01*
X112799851Y-133105000D01*
X113256778Y-133105000D01*
X113256838Y-133105317D01*
X113395910Y-133321441D01*
X113608110Y-133466431D01*
X113860000Y-133517440D01*
X116610000Y-133517440D01*
X116845317Y-133473162D01*
X117061441Y-133334090D01*
X117206431Y-133121890D01*
X117209851Y-133105000D01*
X119006778Y-133105000D01*
X119006838Y-133105317D01*
X119145910Y-133321441D01*
X119358110Y-133466431D01*
X119610000Y-133517440D01*
X122360000Y-133517440D01*
X122595317Y-133473162D01*
X122811441Y-133334090D01*
X122956431Y-133121890D01*
X122959851Y-133105000D01*
X123416778Y-133105000D01*
X123416838Y-133105317D01*
X123555910Y-133321441D01*
X123768110Y-133466431D01*
X124020000Y-133517440D01*
X126770000Y-133517440D01*
X127005317Y-133473162D01*
X127221441Y-133334090D01*
X127366431Y-133121890D01*
X127369851Y-133105000D01*
X129166778Y-133105000D01*
X129166838Y-133105317D01*
X129305910Y-133321441D01*
X129518110Y-133466431D01*
X129770000Y-133517440D01*
X132520000Y-133517440D01*
X132755317Y-133473162D01*
X132971441Y-133334090D01*
X133116431Y-133121890D01*
X133119851Y-133105000D01*
X133576778Y-133105000D01*
X133576838Y-133105317D01*
X133715910Y-133321441D01*
X133928110Y-133466431D01*
X134180000Y-133517440D01*
X136930000Y-133517440D01*
X137165317Y-133473162D01*
X137381441Y-133334090D01*
X137526431Y-133121890D01*
X137529851Y-133105000D01*
X139326778Y-133105000D01*
X139326838Y-133105317D01*
X139465910Y-133321441D01*
X139678110Y-133466431D01*
X139930000Y-133517440D01*
X142680000Y-133517440D01*
X142915317Y-133473162D01*
X143131441Y-133334090D01*
X143276431Y-133121890D01*
X143279851Y-133105000D01*
X143736778Y-133105000D01*
X143736838Y-133105317D01*
X143875910Y-133321441D01*
X144088110Y-133466431D01*
X144340000Y-133517440D01*
X147090000Y-133517440D01*
X147325317Y-133473162D01*
X147541441Y-133334090D01*
X147686431Y-133121890D01*
X147689851Y-133105000D01*
X149486778Y-133105000D01*
X149486838Y-133105317D01*
X149625910Y-133321441D01*
X149838110Y-133466431D01*
X150090000Y-133517440D01*
X152840000Y-133517440D01*
X153075317Y-133473162D01*
X153291441Y-133334090D01*
X153436431Y-133121890D01*
X153439851Y-133105000D01*
X153896778Y-133105000D01*
X153896838Y-133105317D01*
X154035910Y-133321441D01*
X154248110Y-133466431D01*
X154500000Y-133517440D01*
X157250000Y-133517440D01*
X157485317Y-133473162D01*
X157701441Y-133334090D01*
X157846431Y-133121890D01*
X157849851Y-133105000D01*
X159646778Y-133105000D01*
X159646838Y-133105317D01*
X159785910Y-133321441D01*
X159998110Y-133466431D01*
X160250000Y-133517440D01*
X163000000Y-133517440D01*
X163235317Y-133473162D01*
X163451441Y-133334090D01*
X163596431Y-133121890D01*
X163599851Y-133105000D01*
X163937169Y-133105000D01*
X163967310Y-133151841D01*
X164179510Y-133296831D01*
X164431400Y-133347840D01*
X167181400Y-133347840D01*
X167416717Y-133303562D01*
X167632841Y-133164490D01*
X167673489Y-133105000D01*
X169687169Y-133105000D01*
X169717310Y-133151841D01*
X169929510Y-133296831D01*
X170181400Y-133347840D01*
X172931400Y-133347840D01*
X173166717Y-133303562D01*
X173382841Y-133164490D01*
X173527831Y-132952290D01*
X173578840Y-132700400D01*
X173578840Y-131700400D01*
X173534562Y-131465083D01*
X173395490Y-131248959D01*
X173183290Y-131103969D01*
X172931400Y-131052960D01*
X170181400Y-131052960D01*
X169946083Y-131097238D01*
X169729959Y-131236310D01*
X169584969Y-131448510D01*
X169547204Y-131635000D01*
X167816534Y-131635000D01*
X167784562Y-131465083D01*
X167645490Y-131248959D01*
X167433290Y-131103969D01*
X167181400Y-131052960D01*
X167119107Y-131052960D01*
X167263792Y-130908527D01*
X167406438Y-130564999D01*
X167406762Y-130193033D01*
X167264717Y-129849257D01*
X167001927Y-129586008D01*
X166658399Y-129443362D01*
X166576137Y-129443290D01*
X166541400Y-129408554D01*
X166541400Y-129347840D01*
X167181400Y-129347840D01*
X167416717Y-129303562D01*
X167632841Y-129164490D01*
X167673489Y-129105000D01*
X169687169Y-129105000D01*
X169717310Y-129151841D01*
X169929510Y-129296831D01*
X170181400Y-129347840D01*
X172931400Y-129347840D01*
X173166717Y-129303562D01*
X173382841Y-129164490D01*
X173527831Y-128952290D01*
X173578840Y-128700400D01*
X173578840Y-127700400D01*
X173534562Y-127465083D01*
X173395490Y-127248959D01*
X173183290Y-127103969D01*
X172931400Y-127052960D01*
X170181400Y-127052960D01*
X169946083Y-127097238D01*
X169729959Y-127236310D01*
X169584969Y-127448510D01*
X169547204Y-127635000D01*
X168803490Y-127635000D01*
X168803762Y-127322833D01*
X168661717Y-126979057D01*
X168603600Y-126920838D01*
X168603600Y-126509939D01*
X168695737Y-126492602D01*
X168911861Y-126353530D01*
X168912543Y-126352533D01*
X169107690Y-126485871D01*
X169359580Y-126536880D01*
X170558460Y-126536880D01*
X170793777Y-126492602D01*
X171009901Y-126353530D01*
X171154891Y-126141330D01*
X171205900Y-125889440D01*
X171205900Y-125858021D01*
X171278183Y-125809723D01*
X174769723Y-122318184D01*
X174929051Y-122079732D01*
X174949732Y-121975762D01*
X174985000Y-121798460D01*
X174985000Y-97931446D01*
X175135317Y-97903162D01*
X175351441Y-97764090D01*
X175496431Y-97551890D01*
X175547440Y-97300000D01*
X175547440Y-96600000D01*
X175503162Y-96364683D01*
X175364090Y-96148559D01*
X175151890Y-96003569D01*
X175138803Y-96000919D01*
X175351441Y-95864090D01*
X175496431Y-95651890D01*
X175547440Y-95400000D01*
X175547440Y-94700000D01*
X175503162Y-94464683D01*
X175364090Y-94248559D01*
X175151890Y-94103569D01*
X174900000Y-94052560D01*
X174818022Y-94052560D01*
X174769724Y-93980277D01*
X169345019Y-88555573D01*
X169372614Y-88550084D01*
X169773277Y-88282370D01*
X170040991Y-87881707D01*
X170135000Y-87409093D01*
X170135000Y-86850907D01*
X170040991Y-86378293D01*
X169773277Y-85977630D01*
X169597231Y-85860000D01*
X169773277Y-85742370D01*
X170040991Y-85341707D01*
X170135000Y-84869093D01*
X170135000Y-84310907D01*
X170205000Y-84310907D01*
X170205000Y-84869093D01*
X170299009Y-85341707D01*
X170566723Y-85742370D01*
X170742769Y-85860000D01*
X170566723Y-85977630D01*
X170299009Y-86378293D01*
X170205000Y-86850907D01*
X170205000Y-87409093D01*
X170299009Y-87881707D01*
X170566723Y-88282370D01*
X170967386Y-88550084D01*
X171440000Y-88644093D01*
X171912614Y-88550084D01*
X172313277Y-88282370D01*
X172580991Y-87881707D01*
X172666326Y-87452696D01*
X172734744Y-87452696D01*
X172857353Y-87923701D01*
X173150875Y-88311933D01*
X173570624Y-88558286D01*
X173662391Y-88573462D01*
X173853000Y-88448731D01*
X173853000Y-87257000D01*
X174107000Y-87257000D01*
X174107000Y-88448731D01*
X174297609Y-88573462D01*
X174389376Y-88558286D01*
X174809125Y-88311933D01*
X175102647Y-87923701D01*
X175225256Y-87452696D01*
X175062547Y-87257000D01*
X174107000Y-87257000D01*
X173853000Y-87257000D01*
X172897453Y-87257000D01*
X172734744Y-87452696D01*
X172666326Y-87452696D01*
X172675000Y-87409093D01*
X172675000Y-86850907D01*
X172580991Y-86378293D01*
X172313277Y-85977630D01*
X172137231Y-85860000D01*
X172313277Y-85742370D01*
X172580991Y-85341707D01*
X172666326Y-84912696D01*
X172734744Y-84912696D01*
X172857353Y-85383701D01*
X173150875Y-85771933D01*
X173300928Y-85860000D01*
X173150875Y-85948067D01*
X172857353Y-86336299D01*
X172734744Y-86807304D01*
X172897453Y-87003000D01*
X173853000Y-87003000D01*
X173853000Y-84717000D01*
X174107000Y-84717000D01*
X174107000Y-87003000D01*
X175062547Y-87003000D01*
X175225256Y-86807304D01*
X175102647Y-86336299D01*
X174809125Y-85948067D01*
X174659072Y-85860000D01*
X174809125Y-85771933D01*
X175102647Y-85383701D01*
X175225256Y-84912696D01*
X175062547Y-84717000D01*
X174107000Y-84717000D01*
X173853000Y-84717000D01*
X172897453Y-84717000D01*
X172734744Y-84912696D01*
X172666326Y-84912696D01*
X172675000Y-84869093D01*
X172675000Y-84310907D01*
X172666327Y-84267304D01*
X172734744Y-84267304D01*
X172897453Y-84463000D01*
X173853000Y-84463000D01*
X173853000Y-83271269D01*
X174107000Y-83271269D01*
X174107000Y-84463000D01*
X175062547Y-84463000D01*
X175225256Y-84267304D01*
X175102647Y-83796299D01*
X174809125Y-83408067D01*
X174389376Y-83161714D01*
X174297609Y-83146538D01*
X174107000Y-83271269D01*
X173853000Y-83271269D01*
X173662391Y-83146538D01*
X173570624Y-83161714D01*
X173150875Y-83408067D01*
X172857353Y-83796299D01*
X172734744Y-84267304D01*
X172666327Y-84267304D01*
X172580991Y-83838293D01*
X172313277Y-83437630D01*
X171912614Y-83169916D01*
X171440000Y-83075907D01*
X170967386Y-83169916D01*
X170566723Y-83437630D01*
X170299009Y-83838293D01*
X170205000Y-84310907D01*
X170135000Y-84310907D01*
X170040991Y-83838293D01*
X169773277Y-83437630D01*
X169372614Y-83169916D01*
X168900000Y-83075907D01*
X168427386Y-83169916D01*
X168026723Y-83437630D01*
X167759009Y-83838293D01*
X167665000Y-84310907D01*
X167665000Y-84869093D01*
X167723714Y-85164267D01*
X167567382Y-85007936D01*
X167595000Y-84869093D01*
X167595000Y-84310907D01*
X167500991Y-83838293D01*
X167233277Y-83437630D01*
X166832614Y-83169916D01*
X166360000Y-83075907D01*
X165887386Y-83169916D01*
X165486723Y-83437630D01*
X165219009Y-83838293D01*
X165125000Y-84310907D01*
X165125000Y-84869093D01*
X165219009Y-85341707D01*
X165486723Y-85742370D01*
X165662769Y-85860000D01*
X165486723Y-85977630D01*
X165219009Y-86378293D01*
X165167366Y-86637920D01*
X165139723Y-86610277D01*
X164986812Y-86508105D01*
X164960991Y-86378293D01*
X164693277Y-85977630D01*
X164517231Y-85860000D01*
X164693277Y-85742370D01*
X164960991Y-85341707D01*
X165055000Y-84869093D01*
X165055000Y-84310907D01*
X164960991Y-83838293D01*
X164693277Y-83437630D01*
X164292614Y-83169916D01*
X163820000Y-83075907D01*
X163347386Y-83169916D01*
X162946723Y-83437630D01*
X162679009Y-83838293D01*
X162585000Y-84310907D01*
X162585000Y-84869093D01*
X162612618Y-85007936D01*
X162456286Y-85164268D01*
X162515000Y-84869093D01*
X162515000Y-84310907D01*
X162420991Y-83838293D01*
X162153277Y-83437630D01*
X161752614Y-83169916D01*
X161280000Y-83075907D01*
X160807386Y-83169916D01*
X160406723Y-83437630D01*
X160139009Y-83838293D01*
X160045000Y-84310907D01*
X160045000Y-84869093D01*
X160139009Y-85341707D01*
X160406723Y-85742370D01*
X160582769Y-85860000D01*
X160406723Y-85977630D01*
X160139009Y-86378293D01*
X160045000Y-86850907D01*
X160045000Y-87409093D01*
X160139009Y-87881707D01*
X160406723Y-88282370D01*
X160807386Y-88550084D01*
X161280000Y-88644093D01*
X161752614Y-88550084D01*
X162153277Y-88282370D01*
X162184990Y-88234908D01*
X162184990Y-96169990D01*
X162232668Y-96409683D01*
X162240939Y-96451262D01*
X162400267Y-96689713D01*
X163913114Y-98202560D01*
X163700000Y-98202560D01*
X163464683Y-98246838D01*
X163248559Y-98385910D01*
X163103569Y-98598110D01*
X163052560Y-98850000D01*
X163052560Y-98931978D01*
X162980277Y-98980276D01*
X160978178Y-100982376D01*
X160920871Y-101068142D01*
X160712452Y-101276561D01*
X160650350Y-101234129D01*
X160398460Y-101183120D01*
X160367042Y-101183120D01*
X160318744Y-101110837D01*
X160218742Y-101010836D01*
X159980291Y-100851508D01*
X159699019Y-100795559D01*
X151337901Y-100795559D01*
X151056629Y-100851508D01*
X150818178Y-101010835D01*
X150552452Y-101276561D01*
X150490350Y-101234129D01*
X150238460Y-101183120D01*
X150207042Y-101183120D01*
X150158744Y-101110837D01*
X150058742Y-101010836D01*
X149820291Y-100851508D01*
X149539019Y-100795559D01*
X141177901Y-100795559D01*
X140896629Y-100851508D01*
X140658178Y-101010835D01*
X140392452Y-101276561D01*
X140330350Y-101234129D01*
X140078460Y-101183120D01*
X140047042Y-101183120D01*
X139998744Y-101110837D01*
X139898742Y-101010836D01*
X139660291Y-100851508D01*
X139379019Y-100795559D01*
X131017901Y-100795559D01*
X130736629Y-100851508D01*
X130498178Y-101010835D01*
X130232452Y-101276561D01*
X130170350Y-101234129D01*
X129918460Y-101183120D01*
X129887042Y-101183120D01*
X129838744Y-101110837D01*
X129738742Y-101010836D01*
X129500291Y-100851508D01*
X129219019Y-100795559D01*
X119259021Y-100795559D01*
X118977749Y-100851508D01*
X118739298Y-101010835D01*
X118639297Y-101110837D01*
X118590999Y-101183120D01*
X118559580Y-101183120D01*
X118324263Y-101227398D01*
X118108139Y-101366470D01*
X118107457Y-101367467D01*
X117912310Y-101234129D01*
X117660420Y-101183120D01*
X116461540Y-101183120D01*
X116226223Y-101227398D01*
X116010099Y-101366470D01*
X115865109Y-101578670D01*
X115814100Y-101830560D01*
X115814100Y-103029440D01*
X115858378Y-103264757D01*
X115997450Y-103480881D01*
X116209650Y-103625871D01*
X116384400Y-103661259D01*
X116384400Y-103857381D01*
X116327208Y-103914473D01*
X116184562Y-104258001D01*
X116184471Y-104362560D01*
X114294999Y-104362560D01*
X114294999Y-99844447D01*
X114805696Y-99333750D01*
X130531000Y-99333750D01*
X130531000Y-99799310D01*
X130627673Y-100032699D01*
X130806302Y-100211327D01*
X131039691Y-100308000D01*
X131380250Y-100308000D01*
X131539000Y-100149250D01*
X131539000Y-99175000D01*
X130689750Y-99175000D01*
X130531000Y-99333750D01*
X114805696Y-99333750D01*
X116583696Y-97555750D01*
X130531000Y-97555750D01*
X130531000Y-98021310D01*
X130588033Y-98159000D01*
X130531000Y-98296690D01*
X130531000Y-98762250D01*
X130689750Y-98921000D01*
X131539000Y-98921000D01*
X131539000Y-97397000D01*
X130689750Y-97397000D01*
X130531000Y-97555750D01*
X116583696Y-97555750D01*
X117620756Y-96518690D01*
X130531000Y-96518690D01*
X130531000Y-96984250D01*
X130689750Y-97143000D01*
X131539000Y-97143000D01*
X131539000Y-96668250D01*
X131589000Y-96618250D01*
X131589000Y-95619000D01*
X130889750Y-95619000D01*
X130731000Y-95777750D01*
X130731000Y-96181975D01*
X130627673Y-96285301D01*
X130531000Y-96518690D01*
X117620756Y-96518690D01*
X120139696Y-93999750D01*
X130531000Y-93999750D01*
X130531000Y-94465310D01*
X130627673Y-94698699D01*
X130731000Y-94802025D01*
X130731000Y-95206250D01*
X130889750Y-95365000D01*
X131589000Y-95365000D01*
X131589000Y-94365750D01*
X131539000Y-94315750D01*
X131539000Y-93841000D01*
X130689750Y-93841000D01*
X130531000Y-93999750D01*
X120139696Y-93999750D01*
X125532625Y-88606822D01*
X125720000Y-88644093D01*
X126192614Y-88550084D01*
X126412164Y-88403385D01*
X126480277Y-88505323D01*
X127140677Y-89165724D01*
X127379128Y-89325051D01*
X127660400Y-89381000D01*
X130518560Y-89381000D01*
X130518560Y-90125000D01*
X130562838Y-90360317D01*
X130701910Y-90576441D01*
X130771711Y-90624134D01*
X130714559Y-90660910D01*
X130569569Y-90873110D01*
X130518560Y-91125000D01*
X130518560Y-92375000D01*
X130562838Y-92610317D01*
X130634810Y-92722164D01*
X130627673Y-92729301D01*
X130531000Y-92962690D01*
X130531000Y-93428250D01*
X130689750Y-93587000D01*
X131539000Y-93587000D01*
X131539000Y-93567000D01*
X131793000Y-93567000D01*
X131793000Y-93587000D01*
X131813000Y-93587000D01*
X131813000Y-93841000D01*
X131793000Y-93841000D01*
X131793000Y-94815250D01*
X131843000Y-94865250D01*
X131843000Y-95365000D01*
X131863000Y-95365000D01*
X131863000Y-95619000D01*
X131843000Y-95619000D01*
X131843000Y-96118750D01*
X131793000Y-96168750D01*
X131793000Y-97143000D01*
X131813000Y-97143000D01*
X131813000Y-97397000D01*
X131793000Y-97397000D01*
X131793000Y-98921000D01*
X131813000Y-98921000D01*
X131813000Y-99175000D01*
X131793000Y-99175000D01*
X131793000Y-100149250D01*
X131951750Y-100308000D01*
X132292309Y-100308000D01*
X132525698Y-100211327D01*
X132666936Y-100070090D01*
X132701910Y-100124441D01*
X132914110Y-100269431D01*
X133166000Y-100320440D01*
X134166000Y-100320440D01*
X134401317Y-100276162D01*
X134617441Y-100137090D01*
X134762431Y-99924890D01*
X134813440Y-99673000D01*
X134813440Y-99225454D01*
X136700564Y-99225454D01*
X136839117Y-99197894D01*
X137700564Y-99197894D01*
X137935881Y-99153616D01*
X138152005Y-99014544D01*
X138296995Y-98802344D01*
X138348004Y-98550454D01*
X138348004Y-98230454D01*
X138318743Y-98074947D01*
X138348004Y-97930454D01*
X138348004Y-97610454D01*
X138318743Y-97454947D01*
X138348004Y-97310454D01*
X138348004Y-97265454D01*
X138361194Y-97265454D01*
X138509273Y-97413792D01*
X138852801Y-97556438D01*
X139224767Y-97556762D01*
X139568543Y-97414717D01*
X139831792Y-97151927D01*
X139974438Y-96808399D01*
X139974762Y-96436433D01*
X139888564Y-96227817D01*
X139937617Y-96109685D01*
X139984654Y-96156722D01*
X139984654Y-96859566D01*
X139884814Y-97100006D01*
X139884490Y-97471972D01*
X140026535Y-97815748D01*
X140289325Y-98078997D01*
X140632853Y-98221643D01*
X141004819Y-98221967D01*
X141004821Y-98221967D01*
X141348597Y-98079922D01*
X141611846Y-97817132D01*
X141754492Y-97473604D01*
X141754816Y-97101638D01*
X141654654Y-96859227D01*
X141654654Y-96104661D01*
X141703400Y-95859600D01*
X141703400Y-94259400D01*
X141639839Y-93939859D01*
X141458834Y-93668966D01*
X140011034Y-92221166D01*
X139841452Y-92107855D01*
X139740141Y-92040161D01*
X139420600Y-91976600D01*
X138337871Y-91976600D01*
X138318743Y-91874947D01*
X138348004Y-91730454D01*
X138348004Y-91410454D01*
X138318743Y-91254947D01*
X138348004Y-91110454D01*
X138348004Y-90790454D01*
X138318743Y-90634947D01*
X138348004Y-90490454D01*
X138348004Y-90170454D01*
X138303726Y-89935137D01*
X138164654Y-89719013D01*
X137952454Y-89574023D01*
X137700564Y-89523014D01*
X135700564Y-89523014D01*
X135465247Y-89567292D01*
X135460333Y-89570454D01*
X134813440Y-89570454D01*
X134813440Y-88875000D01*
X134769162Y-88639683D01*
X134630090Y-88423559D01*
X134417890Y-88278569D01*
X134239900Y-88242525D01*
X134480991Y-87881707D01*
X134575000Y-87409093D01*
X134575000Y-86850907D01*
X134480991Y-86378293D01*
X134213277Y-85977630D01*
X134037231Y-85860000D01*
X134213277Y-85742370D01*
X134480991Y-85341707D01*
X134575000Y-84869093D01*
X134575000Y-84310907D01*
X134645000Y-84310907D01*
X134645000Y-84869093D01*
X134739009Y-85341707D01*
X135006723Y-85742370D01*
X135182769Y-85860000D01*
X135006723Y-85977630D01*
X134739009Y-86378293D01*
X134645000Y-86850907D01*
X134645000Y-87409093D01*
X134739009Y-87881707D01*
X135006723Y-88282370D01*
X135407386Y-88550084D01*
X135880000Y-88644093D01*
X136352614Y-88550084D01*
X136753277Y-88282370D01*
X137020991Y-87881707D01*
X137115000Y-87409093D01*
X137115000Y-86850907D01*
X137020991Y-86378293D01*
X136753277Y-85977630D01*
X136577231Y-85860000D01*
X136753277Y-85742370D01*
X137020991Y-85341707D01*
X137115000Y-84869093D01*
X137115000Y-84310907D01*
X137185000Y-84310907D01*
X137185000Y-84869093D01*
X137279009Y-85341707D01*
X137546723Y-85742370D01*
X137722769Y-85860000D01*
X137546723Y-85977630D01*
X137279009Y-86378293D01*
X137185000Y-86850907D01*
X137185000Y-87409093D01*
X137279009Y-87881707D01*
X137546723Y-88282370D01*
X137947386Y-88550084D01*
X138420000Y-88644093D01*
X138892614Y-88550084D01*
X139293277Y-88282370D01*
X139560991Y-87881707D01*
X139655000Y-87409093D01*
X139655000Y-86850907D01*
X139560991Y-86378293D01*
X139293277Y-85977630D01*
X139117231Y-85860000D01*
X139293277Y-85742370D01*
X139560991Y-85341707D01*
X139655000Y-84869093D01*
X139655000Y-84310907D01*
X139725000Y-84310907D01*
X139725000Y-84869093D01*
X139819009Y-85341707D01*
X140086723Y-85742370D01*
X140262769Y-85860000D01*
X140086723Y-85977630D01*
X139819009Y-86378293D01*
X139725000Y-86850907D01*
X139725000Y-87409093D01*
X139819009Y-87881707D01*
X140086723Y-88282370D01*
X140487386Y-88550084D01*
X140960000Y-88644093D01*
X141432614Y-88550084D01*
X141833277Y-88282370D01*
X142100991Y-87881707D01*
X142195000Y-87409093D01*
X142195000Y-86850907D01*
X142100991Y-86378293D01*
X141833277Y-85977630D01*
X141657231Y-85860000D01*
X141833277Y-85742370D01*
X142100991Y-85341707D01*
X142195000Y-84869093D01*
X142195000Y-84310907D01*
X142265000Y-84310907D01*
X142265000Y-84869093D01*
X142359009Y-85341707D01*
X142626723Y-85742370D01*
X142802769Y-85860000D01*
X142626723Y-85977630D01*
X142359009Y-86378293D01*
X142265000Y-86850907D01*
X142265000Y-87409093D01*
X142359009Y-87881707D01*
X142626723Y-88282370D01*
X143027386Y-88550084D01*
X143500000Y-88644093D01*
X143972614Y-88550084D01*
X144373277Y-88282370D01*
X144640991Y-87881707D01*
X144735000Y-87409093D01*
X144735000Y-86850907D01*
X144640991Y-86378293D01*
X144373277Y-85977630D01*
X144197231Y-85860000D01*
X144373277Y-85742370D01*
X144640991Y-85341707D01*
X144735000Y-84869093D01*
X144735000Y-84310907D01*
X144805000Y-84310907D01*
X144805000Y-84869093D01*
X144899009Y-85341707D01*
X145166723Y-85742370D01*
X145342769Y-85860000D01*
X145166723Y-85977630D01*
X144899009Y-86378293D01*
X144805000Y-86850907D01*
X144805000Y-87409093D01*
X144899009Y-87881707D01*
X145166723Y-88282370D01*
X145567386Y-88550084D01*
X146040000Y-88644093D01*
X146512614Y-88550084D01*
X146913277Y-88282370D01*
X147180991Y-87881707D01*
X147275000Y-87409093D01*
X147275000Y-86850907D01*
X147180991Y-86378293D01*
X146913277Y-85977630D01*
X146737231Y-85860000D01*
X146913277Y-85742370D01*
X147180991Y-85341707D01*
X147275000Y-84869093D01*
X147275000Y-84310907D01*
X147345000Y-84310907D01*
X147345000Y-84869093D01*
X147439009Y-85341707D01*
X147706723Y-85742370D01*
X147882769Y-85860000D01*
X147706723Y-85977630D01*
X147439009Y-86378293D01*
X147345000Y-86850907D01*
X147345000Y-87409093D01*
X147439009Y-87881707D01*
X147706723Y-88282370D01*
X148107386Y-88550084D01*
X148580000Y-88644093D01*
X149052614Y-88550084D01*
X149453277Y-88282370D01*
X149720991Y-87881707D01*
X149815000Y-87409093D01*
X149815000Y-86850907D01*
X149720991Y-86378293D01*
X149453277Y-85977630D01*
X149277231Y-85860000D01*
X149453277Y-85742370D01*
X149720991Y-85341707D01*
X149815000Y-84869093D01*
X149815000Y-84310907D01*
X149885000Y-84310907D01*
X149885000Y-84869093D01*
X149979009Y-85341707D01*
X150246723Y-85742370D01*
X150422769Y-85860000D01*
X150246723Y-85977630D01*
X149979009Y-86378293D01*
X149885000Y-86850907D01*
X149885000Y-87409093D01*
X149979009Y-87881707D01*
X150246723Y-88282370D01*
X150647386Y-88550084D01*
X151120000Y-88644093D01*
X151592614Y-88550084D01*
X151993277Y-88282370D01*
X152260991Y-87881707D01*
X152355000Y-87409093D01*
X152355000Y-86850907D01*
X152260991Y-86378293D01*
X151993277Y-85977630D01*
X151817231Y-85860000D01*
X151993277Y-85742370D01*
X152260991Y-85341707D01*
X152355000Y-84869093D01*
X152355000Y-84310907D01*
X152425000Y-84310907D01*
X152425000Y-84869093D01*
X152519009Y-85341707D01*
X152786723Y-85742370D01*
X152962769Y-85860000D01*
X152786723Y-85977630D01*
X152519009Y-86378293D01*
X152425000Y-86850907D01*
X152425000Y-87409093D01*
X152519009Y-87881707D01*
X152786723Y-88282370D01*
X153187386Y-88550084D01*
X153660000Y-88644093D01*
X154132614Y-88550084D01*
X154533277Y-88282370D01*
X154800991Y-87881707D01*
X154895000Y-87409093D01*
X154895000Y-86850907D01*
X154800991Y-86378293D01*
X154533277Y-85977630D01*
X154357231Y-85860000D01*
X154533277Y-85742370D01*
X154800991Y-85341707D01*
X154895000Y-84869093D01*
X154895000Y-84310907D01*
X154965000Y-84310907D01*
X154965000Y-84869093D01*
X155059009Y-85341707D01*
X155326723Y-85742370D01*
X155502769Y-85860000D01*
X155326723Y-85977630D01*
X155059009Y-86378293D01*
X154965000Y-86850907D01*
X154965000Y-87409093D01*
X155059009Y-87881707D01*
X155326723Y-88282370D01*
X155727386Y-88550084D01*
X156200000Y-88644093D01*
X156672614Y-88550084D01*
X157073277Y-88282370D01*
X157340991Y-87881707D01*
X157435000Y-87409093D01*
X157435000Y-86850907D01*
X157340991Y-86378293D01*
X157073277Y-85977630D01*
X156897231Y-85860000D01*
X157073277Y-85742370D01*
X157340991Y-85341707D01*
X157435000Y-84869093D01*
X157435000Y-84310907D01*
X157505000Y-84310907D01*
X157505000Y-84869093D01*
X157599009Y-85341707D01*
X157866723Y-85742370D01*
X158042769Y-85860000D01*
X157866723Y-85977630D01*
X157599009Y-86378293D01*
X157505000Y-86850907D01*
X157505000Y-87409093D01*
X157599009Y-87881707D01*
X157866723Y-88282370D01*
X158267386Y-88550084D01*
X158740000Y-88644093D01*
X159212614Y-88550084D01*
X159613277Y-88282370D01*
X159880991Y-87881707D01*
X159975000Y-87409093D01*
X159975000Y-86850907D01*
X159880991Y-86378293D01*
X159613277Y-85977630D01*
X159437231Y-85860000D01*
X159613277Y-85742370D01*
X159880991Y-85341707D01*
X159975000Y-84869093D01*
X159975000Y-84310907D01*
X159880991Y-83838293D01*
X159613277Y-83437630D01*
X159212614Y-83169916D01*
X158740000Y-83075907D01*
X158267386Y-83169916D01*
X157866723Y-83437630D01*
X157599009Y-83838293D01*
X157505000Y-84310907D01*
X157435000Y-84310907D01*
X157340991Y-83838293D01*
X157073277Y-83437630D01*
X156672614Y-83169916D01*
X156200000Y-83075907D01*
X155727386Y-83169916D01*
X155326723Y-83437630D01*
X155059009Y-83838293D01*
X154965000Y-84310907D01*
X154895000Y-84310907D01*
X154800991Y-83838293D01*
X154533277Y-83437630D01*
X154132614Y-83169916D01*
X153660000Y-83075907D01*
X153187386Y-83169916D01*
X152786723Y-83437630D01*
X152519009Y-83838293D01*
X152425000Y-84310907D01*
X152355000Y-84310907D01*
X152260991Y-83838293D01*
X151993277Y-83437630D01*
X151592614Y-83169916D01*
X151120000Y-83075907D01*
X150647386Y-83169916D01*
X150246723Y-83437630D01*
X149979009Y-83838293D01*
X149885000Y-84310907D01*
X149815000Y-84310907D01*
X149720991Y-83838293D01*
X149453277Y-83437630D01*
X149052614Y-83169916D01*
X148580000Y-83075907D01*
X148107386Y-83169916D01*
X147706723Y-83437630D01*
X147439009Y-83838293D01*
X147345000Y-84310907D01*
X147275000Y-84310907D01*
X147180991Y-83838293D01*
X146913277Y-83437630D01*
X146512614Y-83169916D01*
X146040000Y-83075907D01*
X145567386Y-83169916D01*
X145166723Y-83437630D01*
X144899009Y-83838293D01*
X144805000Y-84310907D01*
X144735000Y-84310907D01*
X144640991Y-83838293D01*
X144373277Y-83437630D01*
X143972614Y-83169916D01*
X143500000Y-83075907D01*
X143027386Y-83169916D01*
X142626723Y-83437630D01*
X142359009Y-83838293D01*
X142265000Y-84310907D01*
X142195000Y-84310907D01*
X142100991Y-83838293D01*
X141833277Y-83437630D01*
X141432614Y-83169916D01*
X140960000Y-83075907D01*
X140487386Y-83169916D01*
X140086723Y-83437630D01*
X139819009Y-83838293D01*
X139725000Y-84310907D01*
X139655000Y-84310907D01*
X139560991Y-83838293D01*
X139293277Y-83437630D01*
X138892614Y-83169916D01*
X138420000Y-83075907D01*
X137947386Y-83169916D01*
X137546723Y-83437630D01*
X137279009Y-83838293D01*
X137185000Y-84310907D01*
X137115000Y-84310907D01*
X137020991Y-83838293D01*
X136753277Y-83437630D01*
X136352614Y-83169916D01*
X135880000Y-83075907D01*
X135407386Y-83169916D01*
X135006723Y-83437630D01*
X134739009Y-83838293D01*
X134645000Y-84310907D01*
X134575000Y-84310907D01*
X134480991Y-83838293D01*
X134213277Y-83437630D01*
X133812614Y-83169916D01*
X133340000Y-83075907D01*
X132867386Y-83169916D01*
X132466723Y-83437630D01*
X132199009Y-83838293D01*
X132105000Y-84310907D01*
X132105000Y-84869093D01*
X132199009Y-85341707D01*
X132466723Y-85742370D01*
X132642769Y-85860000D01*
X132466723Y-85977630D01*
X132199009Y-86378293D01*
X132173188Y-86508105D01*
X132020276Y-86610277D01*
X131992634Y-86637919D01*
X131940991Y-86378293D01*
X131673277Y-85977630D01*
X131497231Y-85860000D01*
X131673277Y-85742370D01*
X131940991Y-85341707D01*
X132035000Y-84869093D01*
X132035000Y-84310907D01*
X131940991Y-83838293D01*
X131673277Y-83437630D01*
X131272614Y-83169916D01*
X130800000Y-83075907D01*
X130327386Y-83169916D01*
X130164919Y-83278473D01*
X129323123Y-82436677D01*
X129084672Y-82277349D01*
X128803400Y-82221400D01*
X120040400Y-82221400D01*
X119759128Y-82277349D01*
X119520677Y-82436676D01*
X118885677Y-83071677D01*
X118743667Y-83284210D01*
X118572614Y-83169916D01*
X118100000Y-83075907D01*
X117627386Y-83169916D01*
X117226723Y-83437630D01*
X116959009Y-83838293D01*
X116865000Y-84310907D01*
X116865000Y-84869093D01*
X116959009Y-85341707D01*
X117226723Y-85742370D01*
X117402769Y-85860000D01*
X117226723Y-85977630D01*
X116959009Y-86378293D01*
X116865000Y-86850907D01*
X116865000Y-87409093D01*
X116959009Y-87881707D01*
X117226723Y-88282370D01*
X117627386Y-88550084D01*
X117984445Y-88621108D01*
X114503554Y-92102000D01*
X107238800Y-92102000D01*
X106957528Y-92157949D01*
X106719077Y-92317276D01*
X106223154Y-92813200D01*
X88407400Y-92813200D01*
X88126128Y-92869149D01*
X87887677Y-93028476D01*
X86080977Y-94835177D01*
X86003690Y-94782369D01*
X85751800Y-94731360D01*
X84751800Y-94731360D01*
X84516483Y-94775638D01*
X84300359Y-94914710D01*
X84253831Y-94982806D01*
X84111498Y-94840473D01*
X83878109Y-94743800D01*
X83537550Y-94743800D01*
X83378800Y-94902550D01*
X83378800Y-95876800D01*
X83398800Y-95876800D01*
X83398800Y-96130800D01*
X83378800Y-96130800D01*
X83378800Y-96150800D01*
X83124800Y-96150800D01*
X83124800Y-96130800D01*
X82275550Y-96130800D01*
X82116800Y-96289550D01*
X82116800Y-96755110D01*
X82213473Y-96988499D01*
X82317060Y-97092085D01*
X82317060Y-98381000D01*
X82361338Y-98616317D01*
X82500410Y-98832441D01*
X82579500Y-98886481D01*
X82579500Y-99413113D01*
X82534297Y-99431790D01*
X82140971Y-99824430D01*
X81927843Y-100337700D01*
X81927358Y-100893461D01*
X80720000Y-100893461D01*
X80720000Y-95252490D01*
X82116800Y-95252490D01*
X82116800Y-95718050D01*
X82275550Y-95876800D01*
X83124800Y-95876800D01*
X83124800Y-94902550D01*
X82966050Y-94743800D01*
X82625491Y-94743800D01*
X82392102Y-94840473D01*
X82213473Y-95019101D01*
X82116800Y-95252490D01*
X80720000Y-95252490D01*
X80720000Y-87452696D01*
X111774744Y-87452696D01*
X111897353Y-87923701D01*
X112190875Y-88311933D01*
X112610624Y-88558286D01*
X112702391Y-88573462D01*
X112893000Y-88448731D01*
X112893000Y-87257000D01*
X113147000Y-87257000D01*
X113147000Y-88448731D01*
X113337609Y-88573462D01*
X113429376Y-88558286D01*
X113849125Y-88311933D01*
X114142647Y-87923701D01*
X114265256Y-87452696D01*
X114102547Y-87257000D01*
X113147000Y-87257000D01*
X112893000Y-87257000D01*
X111937453Y-87257000D01*
X111774744Y-87452696D01*
X80720000Y-87452696D01*
X80720000Y-84912696D01*
X81294744Y-84912696D01*
X81417353Y-85383701D01*
X81710875Y-85771933D01*
X82130624Y-86018286D01*
X82222391Y-86033462D01*
X82413000Y-85908731D01*
X82413000Y-84717000D01*
X82667000Y-84717000D01*
X82667000Y-85908731D01*
X82857609Y-86033462D01*
X82949376Y-86018286D01*
X83369125Y-85771933D01*
X83662647Y-85383701D01*
X83785256Y-84912696D01*
X83834744Y-84912696D01*
X83957353Y-85383701D01*
X84250875Y-85771933D01*
X84670624Y-86018286D01*
X84762391Y-86033462D01*
X84953000Y-85908731D01*
X84953000Y-84717000D01*
X85207000Y-84717000D01*
X85207000Y-85908731D01*
X85397609Y-86033462D01*
X85489376Y-86018286D01*
X85909125Y-85771933D01*
X86202647Y-85383701D01*
X86325256Y-84912696D01*
X111774744Y-84912696D01*
X111897353Y-85383701D01*
X112190875Y-85771933D01*
X112340928Y-85860000D01*
X112190875Y-85948067D01*
X111897353Y-86336299D01*
X111774744Y-86807304D01*
X111937453Y-87003000D01*
X112893000Y-87003000D01*
X112893000Y-84717000D01*
X113147000Y-84717000D01*
X113147000Y-87003000D01*
X114102547Y-87003000D01*
X114265256Y-86807304D01*
X114142647Y-86336299D01*
X113849125Y-85948067D01*
X113699072Y-85860000D01*
X113849125Y-85771933D01*
X114142647Y-85383701D01*
X114265256Y-84912696D01*
X114102547Y-84717000D01*
X113147000Y-84717000D01*
X112893000Y-84717000D01*
X111937453Y-84717000D01*
X111774744Y-84912696D01*
X86325256Y-84912696D01*
X86162547Y-84717000D01*
X85207000Y-84717000D01*
X84953000Y-84717000D01*
X83997453Y-84717000D01*
X83834744Y-84912696D01*
X83785256Y-84912696D01*
X83622547Y-84717000D01*
X82667000Y-84717000D01*
X82413000Y-84717000D01*
X81457453Y-84717000D01*
X81294744Y-84912696D01*
X80720000Y-84912696D01*
X80720000Y-84267304D01*
X81294744Y-84267304D01*
X81457453Y-84463000D01*
X82413000Y-84463000D01*
X82413000Y-83271269D01*
X82667000Y-83271269D01*
X82667000Y-84463000D01*
X83622547Y-84463000D01*
X83785256Y-84267304D01*
X83834744Y-84267304D01*
X83997453Y-84463000D01*
X84953000Y-84463000D01*
X84953000Y-83271269D01*
X85207000Y-83271269D01*
X85207000Y-84463000D01*
X86162547Y-84463000D01*
X86325256Y-84267304D01*
X111774744Y-84267304D01*
X111937453Y-84463000D01*
X112893000Y-84463000D01*
X112893000Y-83271269D01*
X113147000Y-83271269D01*
X113147000Y-84463000D01*
X114102547Y-84463000D01*
X114229002Y-84310907D01*
X114325000Y-84310907D01*
X114325000Y-84869093D01*
X114419009Y-85341707D01*
X114686723Y-85742370D01*
X114862769Y-85860000D01*
X114686723Y-85977630D01*
X114419009Y-86378293D01*
X114325000Y-86850907D01*
X114325000Y-87409093D01*
X114419009Y-87881707D01*
X114686723Y-88282370D01*
X115087386Y-88550084D01*
X115560000Y-88644093D01*
X116032614Y-88550084D01*
X116433277Y-88282370D01*
X116700991Y-87881707D01*
X116795000Y-87409093D01*
X116795000Y-86850907D01*
X116700991Y-86378293D01*
X116433277Y-85977630D01*
X116257231Y-85860000D01*
X116433277Y-85742370D01*
X116700991Y-85341707D01*
X116795000Y-84869093D01*
X116795000Y-84310907D01*
X116700991Y-83838293D01*
X116433277Y-83437630D01*
X116032614Y-83169916D01*
X115560000Y-83075907D01*
X115087386Y-83169916D01*
X114686723Y-83437630D01*
X114419009Y-83838293D01*
X114325000Y-84310907D01*
X114229002Y-84310907D01*
X114265256Y-84267304D01*
X114142647Y-83796299D01*
X113849125Y-83408067D01*
X113429376Y-83161714D01*
X113337609Y-83146538D01*
X113147000Y-83271269D01*
X112893000Y-83271269D01*
X112702391Y-83146538D01*
X112610624Y-83161714D01*
X112190875Y-83408067D01*
X111897353Y-83796299D01*
X111774744Y-84267304D01*
X86325256Y-84267304D01*
X86202647Y-83796299D01*
X85909125Y-83408067D01*
X85489376Y-83161714D01*
X85397609Y-83146538D01*
X85207000Y-83271269D01*
X84953000Y-83271269D01*
X84762391Y-83146538D01*
X84670624Y-83161714D01*
X84250875Y-83408067D01*
X83957353Y-83796299D01*
X83834744Y-84267304D01*
X83785256Y-84267304D01*
X83662647Y-83796299D01*
X83369125Y-83408067D01*
X82949376Y-83161714D01*
X82857609Y-83146538D01*
X82667000Y-83271269D01*
X82413000Y-83271269D01*
X82222391Y-83146538D01*
X82130624Y-83161714D01*
X81710875Y-83408067D01*
X81417353Y-83796299D01*
X81294744Y-84267304D01*
X80720000Y-84267304D01*
X80720000Y-81574092D01*
X82844091Y-79450000D01*
X173695908Y-79450000D01*
X175820000Y-81574091D01*
X175820000Y-81574091D01*
G37*
X175820000Y-81574091D02*
X175820000Y-141945909D01*
X173695908Y-144070000D01*
X82844091Y-144070000D01*
X80720000Y-141945908D01*
X80720000Y-138252696D01*
X81294744Y-138252696D01*
X81417353Y-138723701D01*
X81710875Y-139111933D01*
X82130624Y-139358286D01*
X82222391Y-139373462D01*
X82413000Y-139248731D01*
X82413000Y-138057000D01*
X82667000Y-138057000D01*
X82667000Y-139248731D01*
X82857609Y-139373462D01*
X82949376Y-139358286D01*
X83369125Y-139111933D01*
X83662647Y-138723701D01*
X83785256Y-138252696D01*
X83834744Y-138252696D01*
X83957353Y-138723701D01*
X84250875Y-139111933D01*
X84670624Y-139358286D01*
X84762391Y-139373462D01*
X84953000Y-139248731D01*
X84953000Y-138057000D01*
X85207000Y-138057000D01*
X85207000Y-139248731D01*
X85397609Y-139373462D01*
X85489376Y-139358286D01*
X85909125Y-139111933D01*
X86202647Y-138723701D01*
X86325256Y-138252696D01*
X111774744Y-138252696D01*
X111897353Y-138723701D01*
X112190875Y-139111933D01*
X112610624Y-139358286D01*
X112702391Y-139373462D01*
X112893000Y-139248731D01*
X112893000Y-138057000D01*
X113147000Y-138057000D01*
X113147000Y-139248731D01*
X113337609Y-139373462D01*
X113429376Y-139358286D01*
X113849125Y-139111933D01*
X114142647Y-138723701D01*
X114265256Y-138252696D01*
X114102547Y-138057000D01*
X113147000Y-138057000D01*
X112893000Y-138057000D01*
X111937453Y-138057000D01*
X111774744Y-138252696D01*
X86325256Y-138252696D01*
X86162547Y-138057000D01*
X85207000Y-138057000D01*
X84953000Y-138057000D01*
X83997453Y-138057000D01*
X83834744Y-138252696D01*
X83785256Y-138252696D01*
X83622547Y-138057000D01*
X82667000Y-138057000D01*
X82413000Y-138057000D01*
X81457453Y-138057000D01*
X81294744Y-138252696D01*
X80720000Y-138252696D01*
X80720000Y-137607304D01*
X81294744Y-137607304D01*
X81457453Y-137803000D01*
X82413000Y-137803000D01*
X82413000Y-136611269D01*
X82667000Y-136611269D01*
X82667000Y-137803000D01*
X83622547Y-137803000D01*
X83785256Y-137607304D01*
X83834744Y-137607304D01*
X83997453Y-137803000D01*
X84953000Y-137803000D01*
X84953000Y-136611269D01*
X85207000Y-136611269D01*
X85207000Y-137803000D01*
X86162547Y-137803000D01*
X86325256Y-137607304D01*
X86202647Y-137136299D01*
X85909125Y-136748067D01*
X85489376Y-136501714D01*
X85397609Y-136486538D01*
X85207000Y-136611269D01*
X84953000Y-136611269D01*
X84762391Y-136486538D01*
X84670624Y-136501714D01*
X84250875Y-136748067D01*
X83957353Y-137136299D01*
X83834744Y-137607304D01*
X83785256Y-137607304D01*
X83662647Y-137136299D01*
X83369125Y-136748067D01*
X82949376Y-136501714D01*
X82857609Y-136486538D01*
X82667000Y-136611269D01*
X82413000Y-136611269D01*
X82222391Y-136486538D01*
X82130624Y-136501714D01*
X81710875Y-136748067D01*
X81417353Y-137136299D01*
X81294744Y-137607304D01*
X80720000Y-137607304D01*
X80720000Y-135712696D01*
X111774744Y-135712696D01*
X111897353Y-136183701D01*
X112190875Y-136571933D01*
X112340928Y-136660000D01*
X112190875Y-136748067D01*
X111897353Y-137136299D01*
X111774744Y-137607304D01*
X111937453Y-137803000D01*
X112893000Y-137803000D01*
X112893000Y-135517000D01*
X113147000Y-135517000D01*
X113147000Y-137803000D01*
X114102547Y-137803000D01*
X114265256Y-137607304D01*
X114142647Y-137136299D01*
X113849125Y-136748067D01*
X113699072Y-136660000D01*
X113849125Y-136571933D01*
X114142647Y-136183701D01*
X114265256Y-135712696D01*
X114102547Y-135517000D01*
X113147000Y-135517000D01*
X112893000Y-135517000D01*
X111937453Y-135517000D01*
X111774744Y-135712696D01*
X80720000Y-135712696D01*
X80720000Y-135067304D01*
X111774744Y-135067304D01*
X111937453Y-135263000D01*
X112893000Y-135263000D01*
X112893000Y-134071269D01*
X113147000Y-134071269D01*
X113147000Y-135263000D01*
X114102547Y-135263000D01*
X114229002Y-135110907D01*
X114325000Y-135110907D01*
X114325000Y-135669093D01*
X114419009Y-136141707D01*
X114686723Y-136542370D01*
X114862769Y-136660000D01*
X114686723Y-136777630D01*
X114419009Y-137178293D01*
X114325000Y-137650907D01*
X114325000Y-138209093D01*
X114419009Y-138681707D01*
X114686723Y-139082370D01*
X115087386Y-139350084D01*
X115560000Y-139444093D01*
X116032614Y-139350084D01*
X116433277Y-139082370D01*
X116700991Y-138681707D01*
X116795000Y-138209093D01*
X116795000Y-137650907D01*
X116700991Y-137178293D01*
X116433277Y-136777630D01*
X116257231Y-136660000D01*
X116433277Y-136542370D01*
X116700991Y-136141707D01*
X116795000Y-135669093D01*
X116795000Y-135110907D01*
X116865000Y-135110907D01*
X116865000Y-135669093D01*
X116959009Y-136141707D01*
X117226723Y-136542370D01*
X117365000Y-136634764D01*
X117365000Y-136685236D01*
X117226723Y-136777630D01*
X116959009Y-137178293D01*
X116865000Y-137650907D01*
X116865000Y-138209093D01*
X116959009Y-138681707D01*
X117226723Y-139082370D01*
X117627386Y-139350084D01*
X118100000Y-139444093D01*
X118572614Y-139350084D01*
X118973277Y-139082370D01*
X119240991Y-138681707D01*
X119335000Y-138209093D01*
X119335000Y-137650907D01*
X119240991Y-137178293D01*
X118973277Y-136777630D01*
X118835000Y-136685236D01*
X118835000Y-136634764D01*
X118973277Y-136542370D01*
X119240991Y-136141707D01*
X119335000Y-135669093D01*
X119335000Y-135110907D01*
X119405000Y-135110907D01*
X119405000Y-135669093D01*
X119499009Y-136141707D01*
X119766723Y-136542370D01*
X119942769Y-136660000D01*
X119766723Y-136777630D01*
X119499009Y-137178293D01*
X119405000Y-137650907D01*
X119405000Y-138209093D01*
X119499009Y-138681707D01*
X119766723Y-139082370D01*
X120167386Y-139350084D01*
X120640000Y-139444093D01*
X121112614Y-139350084D01*
X121513277Y-139082370D01*
X121780991Y-138681707D01*
X121875000Y-138209093D01*
X121875000Y-137650907D01*
X121780991Y-137178293D01*
X121513277Y-136777630D01*
X121337231Y-136660000D01*
X121513277Y-136542370D01*
X121780991Y-136141707D01*
X121875000Y-135669093D01*
X121875000Y-135110907D01*
X121945000Y-135110907D01*
X121945000Y-135669093D01*
X122039009Y-136141707D01*
X122306723Y-136542370D01*
X122482769Y-136660000D01*
X122306723Y-136777630D01*
X122039009Y-137178293D01*
X121945000Y-137650907D01*
X121945000Y-138209093D01*
X122039009Y-138681707D01*
X122306723Y-139082370D01*
X122707386Y-139350084D01*
X123180000Y-139444093D01*
X123652614Y-139350084D01*
X124053277Y-139082370D01*
X124320991Y-138681707D01*
X124415000Y-138209093D01*
X124415000Y-137650907D01*
X124320991Y-137178293D01*
X124053277Y-136777630D01*
X123877231Y-136660000D01*
X124053277Y-136542370D01*
X124320991Y-136141707D01*
X124415000Y-135669093D01*
X124415000Y-135110907D01*
X124485000Y-135110907D01*
X124485000Y-135669093D01*
X124579009Y-136141707D01*
X124846723Y-136542370D01*
X125022769Y-136660000D01*
X124846723Y-136777630D01*
X124579009Y-137178293D01*
X124485000Y-137650907D01*
X124485000Y-138209093D01*
X124579009Y-138681707D01*
X124846723Y-139082370D01*
X125247386Y-139350084D01*
X125720000Y-139444093D01*
X126192614Y-139350084D01*
X126593277Y-139082370D01*
X126860991Y-138681707D01*
X126955000Y-138209093D01*
X126955000Y-137650907D01*
X126860991Y-137178293D01*
X126593277Y-136777630D01*
X126417231Y-136660000D01*
X126593277Y-136542370D01*
X126860991Y-136141707D01*
X126955000Y-135669093D01*
X126955000Y-135110907D01*
X127025000Y-135110907D01*
X127025000Y-135669093D01*
X127119009Y-136141707D01*
X127386723Y-136542370D01*
X127562769Y-136660000D01*
X127386723Y-136777630D01*
X127119009Y-137178293D01*
X127025000Y-137650907D01*
X127025000Y-138209093D01*
X127119009Y-138681707D01*
X127386723Y-139082370D01*
X127787386Y-139350084D01*
X128260000Y-139444093D01*
X128732614Y-139350084D01*
X129133277Y-139082370D01*
X129400991Y-138681707D01*
X129495000Y-138209093D01*
X129495000Y-137650907D01*
X129400991Y-137178293D01*
X129133277Y-136777630D01*
X128957231Y-136660000D01*
X129133277Y-136542370D01*
X129400991Y-136141707D01*
X129495000Y-135669093D01*
X129495000Y-135110907D01*
X129565000Y-135110907D01*
X129565000Y-135669093D01*
X129659009Y-136141707D01*
X129926723Y-136542370D01*
X130102769Y-136660000D01*
X129926723Y-136777630D01*
X129659009Y-137178293D01*
X129565000Y-137650907D01*
X129565000Y-138209093D01*
X129659009Y-138681707D01*
X129926723Y-139082370D01*
X130327386Y-139350084D01*
X130800000Y-139444093D01*
X131272614Y-139350084D01*
X131673277Y-139082370D01*
X131940991Y-138681707D01*
X132035000Y-138209093D01*
X132035000Y-137650907D01*
X131940991Y-137178293D01*
X131673277Y-136777630D01*
X131497231Y-136660000D01*
X131673277Y-136542370D01*
X131940991Y-136141707D01*
X132035000Y-135669093D01*
X132035000Y-135110907D01*
X132105000Y-135110907D01*
X132105000Y-135669093D01*
X132199009Y-136141707D01*
X132466723Y-136542370D01*
X132642769Y-136660000D01*
X132466723Y-136777630D01*
X132199009Y-137178293D01*
X132105000Y-137650907D01*
X132105000Y-138209093D01*
X132199009Y-138681707D01*
X132466723Y-139082370D01*
X132867386Y-139350084D01*
X133340000Y-139444093D01*
X133812614Y-139350084D01*
X134213277Y-139082370D01*
X134480991Y-138681707D01*
X134575000Y-138209093D01*
X134575000Y-137650907D01*
X134480991Y-137178293D01*
X134213277Y-136777630D01*
X134037231Y-136660000D01*
X134213277Y-136542370D01*
X134480991Y-136141707D01*
X134575000Y-135669093D01*
X134575000Y-135110907D01*
X134645000Y-135110907D01*
X134645000Y-135669093D01*
X134739009Y-136141707D01*
X135006723Y-136542370D01*
X135182769Y-136660000D01*
X135006723Y-136777630D01*
X134739009Y-137178293D01*
X134645000Y-137650907D01*
X134645000Y-138209093D01*
X134739009Y-138681707D01*
X135006723Y-139082370D01*
X135407386Y-139350084D01*
X135880000Y-139444093D01*
X136352614Y-139350084D01*
X136753277Y-139082370D01*
X137020991Y-138681707D01*
X137115000Y-138209093D01*
X137115000Y-137650907D01*
X137020991Y-137178293D01*
X136753277Y-136777630D01*
X136577231Y-136660000D01*
X136753277Y-136542370D01*
X137020991Y-136141707D01*
X137115000Y-135669093D01*
X137115000Y-135110907D01*
X137185000Y-135110907D01*
X137185000Y-135669093D01*
X137279009Y-136141707D01*
X137546723Y-136542370D01*
X137722769Y-136660000D01*
X137546723Y-136777630D01*
X137279009Y-137178293D01*
X137185000Y-137650907D01*
X137185000Y-138209093D01*
X137279009Y-138681707D01*
X137546723Y-139082370D01*
X137947386Y-139350084D01*
X138420000Y-139444093D01*
X138892614Y-139350084D01*
X139293277Y-139082370D01*
X139560991Y-138681707D01*
X139655000Y-138209093D01*
X139655000Y-137650907D01*
X139560991Y-137178293D01*
X139293277Y-136777630D01*
X139117231Y-136660000D01*
X139293277Y-136542370D01*
X139560991Y-136141707D01*
X139655000Y-135669093D01*
X139655000Y-135110907D01*
X139725000Y-135110907D01*
X139725000Y-135669093D01*
X139819009Y-136141707D01*
X140086723Y-136542370D01*
X140262769Y-136660000D01*
X140086723Y-136777630D01*
X139819009Y-137178293D01*
X139725000Y-137650907D01*
X139725000Y-138209093D01*
X139819009Y-138681707D01*
X140086723Y-139082370D01*
X140487386Y-139350084D01*
X140960000Y-139444093D01*
X141432614Y-139350084D01*
X141833277Y-139082370D01*
X142100991Y-138681707D01*
X142195000Y-138209093D01*
X142195000Y-137650907D01*
X142100991Y-137178293D01*
X141833277Y-136777630D01*
X141657231Y-136660000D01*
X141833277Y-136542370D01*
X142100991Y-136141707D01*
X142195000Y-135669093D01*
X142195000Y-135110907D01*
X142265000Y-135110907D01*
X142265000Y-135669093D01*
X142359009Y-136141707D01*
X142626723Y-136542370D01*
X142802769Y-136660000D01*
X142626723Y-136777630D01*
X142359009Y-137178293D01*
X142265000Y-137650907D01*
X142265000Y-138209093D01*
X142359009Y-138681707D01*
X142626723Y-139082370D01*
X143027386Y-139350084D01*
X143500000Y-139444093D01*
X143972614Y-139350084D01*
X144373277Y-139082370D01*
X144640991Y-138681707D01*
X144735000Y-138209093D01*
X144735000Y-137650907D01*
X144640991Y-137178293D01*
X144373277Y-136777630D01*
X144197231Y-136660000D01*
X144373277Y-136542370D01*
X144640991Y-136141707D01*
X144735000Y-135669093D01*
X144735000Y-135110907D01*
X144805000Y-135110907D01*
X144805000Y-135669093D01*
X144899009Y-136141707D01*
X145166723Y-136542370D01*
X145342769Y-136660000D01*
X145166723Y-136777630D01*
X144899009Y-137178293D01*
X144805000Y-137650907D01*
X144805000Y-138209093D01*
X144899009Y-138681707D01*
X145166723Y-139082370D01*
X145567386Y-139350084D01*
X146040000Y-139444093D01*
X146512614Y-139350084D01*
X146913277Y-139082370D01*
X147180991Y-138681707D01*
X147275000Y-138209093D01*
X147275000Y-137650907D01*
X147180991Y-137178293D01*
X146913277Y-136777630D01*
X146737231Y-136660000D01*
X146913277Y-136542370D01*
X147180991Y-136141707D01*
X147275000Y-135669093D01*
X147275000Y-135110907D01*
X147345000Y-135110907D01*
X147345000Y-135669093D01*
X147439009Y-136141707D01*
X147706723Y-136542370D01*
X147882769Y-136660000D01*
X147706723Y-136777630D01*
X147439009Y-137178293D01*
X147345000Y-137650907D01*
X147345000Y-138209093D01*
X147439009Y-138681707D01*
X147706723Y-139082370D01*
X148107386Y-139350084D01*
X148580000Y-139444093D01*
X149052614Y-139350084D01*
X149453277Y-139082370D01*
X149720991Y-138681707D01*
X149815000Y-138209093D01*
X149815000Y-137650907D01*
X149720991Y-137178293D01*
X149453277Y-136777630D01*
X149277231Y-136660000D01*
X149453277Y-136542370D01*
X149720991Y-136141707D01*
X149815000Y-135669093D01*
X149815000Y-135110907D01*
X149885000Y-135110907D01*
X149885000Y-135669093D01*
X149979009Y-136141707D01*
X150246723Y-136542370D01*
X150422769Y-136660000D01*
X150246723Y-136777630D01*
X149979009Y-137178293D01*
X149885000Y-137650907D01*
X149885000Y-138209093D01*
X149979009Y-138681707D01*
X150246723Y-139082370D01*
X150647386Y-139350084D01*
X151120000Y-139444093D01*
X151592614Y-139350084D01*
X151993277Y-139082370D01*
X152260991Y-138681707D01*
X152355000Y-138209093D01*
X152355000Y-137650907D01*
X152260991Y-137178293D01*
X151993277Y-136777630D01*
X151817231Y-136660000D01*
X151993277Y-136542370D01*
X152260991Y-136141707D01*
X152355000Y-135669093D01*
X152355000Y-135110907D01*
X152425000Y-135110907D01*
X152425000Y-135669093D01*
X152519009Y-136141707D01*
X152786723Y-136542370D01*
X152962769Y-136660000D01*
X152786723Y-136777630D01*
X152519009Y-137178293D01*
X152425000Y-137650907D01*
X152425000Y-138209093D01*
X152519009Y-138681707D01*
X152786723Y-139082370D01*
X153187386Y-139350084D01*
X153660000Y-139444093D01*
X154132614Y-139350084D01*
X154533277Y-139082370D01*
X154800991Y-138681707D01*
X154895000Y-138209093D01*
X154895000Y-137650907D01*
X154800991Y-137178293D01*
X154533277Y-136777630D01*
X154357231Y-136660000D01*
X154533277Y-136542370D01*
X154800991Y-136141707D01*
X154895000Y-135669093D01*
X154895000Y-135110907D01*
X154965000Y-135110907D01*
X154965000Y-135669093D01*
X155059009Y-136141707D01*
X155326723Y-136542370D01*
X155502769Y-136660000D01*
X155326723Y-136777630D01*
X155059009Y-137178293D01*
X154965000Y-137650907D01*
X154965000Y-138209093D01*
X155059009Y-138681707D01*
X155326723Y-139082370D01*
X155727386Y-139350084D01*
X156200000Y-139444093D01*
X156672614Y-139350084D01*
X157073277Y-139082370D01*
X157340991Y-138681707D01*
X157435000Y-138209093D01*
X157435000Y-137650907D01*
X157340991Y-137178293D01*
X157073277Y-136777630D01*
X156897231Y-136660000D01*
X157073277Y-136542370D01*
X157340991Y-136141707D01*
X157435000Y-135669093D01*
X157435000Y-135110907D01*
X157505000Y-135110907D01*
X157505000Y-135669093D01*
X157599009Y-136141707D01*
X157866723Y-136542370D01*
X158042769Y-136660000D01*
X157866723Y-136777630D01*
X157599009Y-137178293D01*
X157505000Y-137650907D01*
X157505000Y-138209093D01*
X157599009Y-138681707D01*
X157866723Y-139082370D01*
X158267386Y-139350084D01*
X158740000Y-139444093D01*
X159212614Y-139350084D01*
X159613277Y-139082370D01*
X159880991Y-138681707D01*
X159975000Y-138209093D01*
X159975000Y-137650907D01*
X159880991Y-137178293D01*
X159613277Y-136777630D01*
X159437231Y-136660000D01*
X159613277Y-136542370D01*
X159880991Y-136141707D01*
X159975000Y-135669093D01*
X159975000Y-135110907D01*
X160045000Y-135110907D01*
X160045000Y-135669093D01*
X160139009Y-136141707D01*
X160406723Y-136542370D01*
X160582769Y-136660000D01*
X160406723Y-136777630D01*
X160139009Y-137178293D01*
X160045000Y-137650907D01*
X160045000Y-138209093D01*
X160139009Y-138681707D01*
X160406723Y-139082370D01*
X160807386Y-139350084D01*
X161280000Y-139444093D01*
X161752614Y-139350084D01*
X162153277Y-139082370D01*
X162420991Y-138681707D01*
X162515000Y-138209093D01*
X162515000Y-137650907D01*
X162420991Y-137178293D01*
X162153277Y-136777630D01*
X161977231Y-136660000D01*
X162153277Y-136542370D01*
X162420991Y-136141707D01*
X162515000Y-135669093D01*
X162515000Y-135110907D01*
X162585000Y-135110907D01*
X162585000Y-135669093D01*
X162679009Y-136141707D01*
X162946723Y-136542370D01*
X163122769Y-136660000D01*
X162946723Y-136777630D01*
X162679009Y-137178293D01*
X162585000Y-137650907D01*
X162585000Y-138209093D01*
X162679009Y-138681707D01*
X162946723Y-139082370D01*
X163347386Y-139350084D01*
X163820000Y-139444093D01*
X164292614Y-139350084D01*
X164693277Y-139082370D01*
X164960991Y-138681707D01*
X165055000Y-138209093D01*
X165055000Y-137650907D01*
X164960991Y-137178293D01*
X164693277Y-136777630D01*
X164517231Y-136660000D01*
X164693277Y-136542370D01*
X164960991Y-136141707D01*
X165055000Y-135669093D01*
X165055000Y-135110907D01*
X165125000Y-135110907D01*
X165125000Y-135669093D01*
X165219009Y-136141707D01*
X165486723Y-136542370D01*
X165662769Y-136660000D01*
X165486723Y-136777630D01*
X165219009Y-137178293D01*
X165125000Y-137650907D01*
X165125000Y-138209093D01*
X165219009Y-138681707D01*
X165486723Y-139082370D01*
X165887386Y-139350084D01*
X166360000Y-139444093D01*
X166832614Y-139350084D01*
X167233277Y-139082370D01*
X167500991Y-138681707D01*
X167595000Y-138209093D01*
X167595000Y-137650907D01*
X167500991Y-137178293D01*
X167233277Y-136777630D01*
X167057231Y-136660000D01*
X167233277Y-136542370D01*
X167500991Y-136141707D01*
X167595000Y-135669093D01*
X167595000Y-135110907D01*
X167665000Y-135110907D01*
X167665000Y-135669093D01*
X167759009Y-136141707D01*
X168026723Y-136542370D01*
X168202769Y-136660000D01*
X168026723Y-136777630D01*
X167759009Y-137178293D01*
X167665000Y-137650907D01*
X167665000Y-138209093D01*
X167759009Y-138681707D01*
X168026723Y-139082370D01*
X168427386Y-139350084D01*
X168900000Y-139444093D01*
X169372614Y-139350084D01*
X169773277Y-139082370D01*
X170040991Y-138681707D01*
X170135000Y-138209093D01*
X170135000Y-137650907D01*
X170040991Y-137178293D01*
X169773277Y-136777630D01*
X169597231Y-136660000D01*
X169773277Y-136542370D01*
X170040991Y-136141707D01*
X170135000Y-135669093D01*
X170135000Y-135110907D01*
X170205000Y-135110907D01*
X170205000Y-135669093D01*
X170299009Y-136141707D01*
X170566723Y-136542370D01*
X170742769Y-136660000D01*
X170566723Y-136777630D01*
X170299009Y-137178293D01*
X170205000Y-137650907D01*
X170205000Y-138209093D01*
X170299009Y-138681707D01*
X170566723Y-139082370D01*
X170967386Y-139350084D01*
X171440000Y-139444093D01*
X171912614Y-139350084D01*
X172313277Y-139082370D01*
X172580991Y-138681707D01*
X172666326Y-138252696D01*
X172734744Y-138252696D01*
X172857353Y-138723701D01*
X173150875Y-139111933D01*
X173570624Y-139358286D01*
X173662391Y-139373462D01*
X173853000Y-139248731D01*
X173853000Y-138057000D01*
X174107000Y-138057000D01*
X174107000Y-139248731D01*
X174297609Y-139373462D01*
X174389376Y-139358286D01*
X174809125Y-139111933D01*
X175102647Y-138723701D01*
X175225256Y-138252696D01*
X175062547Y-138057000D01*
X174107000Y-138057000D01*
X173853000Y-138057000D01*
X172897453Y-138057000D01*
X172734744Y-138252696D01*
X172666326Y-138252696D01*
X172675000Y-138209093D01*
X172675000Y-137650907D01*
X172580991Y-137178293D01*
X172313277Y-136777630D01*
X172137231Y-136660000D01*
X172313277Y-136542370D01*
X172580991Y-136141707D01*
X172666326Y-135712696D01*
X172734744Y-135712696D01*
X172857353Y-136183701D01*
X173150875Y-136571933D01*
X173300928Y-136660000D01*
X173150875Y-136748067D01*
X172857353Y-137136299D01*
X172734744Y-137607304D01*
X172897453Y-137803000D01*
X173853000Y-137803000D01*
X173853000Y-135517000D01*
X174107000Y-135517000D01*
X174107000Y-137803000D01*
X175062547Y-137803000D01*
X175225256Y-137607304D01*
X175102647Y-137136299D01*
X174809125Y-136748067D01*
X174659072Y-136660000D01*
X174809125Y-136571933D01*
X175102647Y-136183701D01*
X175225256Y-135712696D01*
X175062547Y-135517000D01*
X174107000Y-135517000D01*
X173853000Y-135517000D01*
X172897453Y-135517000D01*
X172734744Y-135712696D01*
X172666326Y-135712696D01*
X172675000Y-135669093D01*
X172675000Y-135110907D01*
X172666327Y-135067304D01*
X172734744Y-135067304D01*
X172897453Y-135263000D01*
X173853000Y-135263000D01*
X173853000Y-134071269D01*
X174107000Y-134071269D01*
X174107000Y-135263000D01*
X175062547Y-135263000D01*
X175225256Y-135067304D01*
X175102647Y-134596299D01*
X174809125Y-134208067D01*
X174389376Y-133961714D01*
X174297609Y-133946538D01*
X174107000Y-134071269D01*
X173853000Y-134071269D01*
X173662391Y-133946538D01*
X173570624Y-133961714D01*
X173150875Y-134208067D01*
X172857353Y-134596299D01*
X172734744Y-135067304D01*
X172666327Y-135067304D01*
X172580991Y-134638293D01*
X172313277Y-134237630D01*
X171912614Y-133969916D01*
X171440000Y-133875907D01*
X170967386Y-133969916D01*
X170566723Y-134237630D01*
X170299009Y-134638293D01*
X170205000Y-135110907D01*
X170135000Y-135110907D01*
X170040991Y-134638293D01*
X169773277Y-134237630D01*
X169372614Y-133969916D01*
X168900000Y-133875907D01*
X168427386Y-133969916D01*
X168026723Y-134237630D01*
X167759009Y-134638293D01*
X167665000Y-135110907D01*
X167595000Y-135110907D01*
X167500991Y-134638293D01*
X167233277Y-134237630D01*
X166832614Y-133969916D01*
X166360000Y-133875907D01*
X165887386Y-133969916D01*
X165486723Y-134237630D01*
X165219009Y-134638293D01*
X165125000Y-135110907D01*
X165055000Y-135110907D01*
X164960991Y-134638293D01*
X164693277Y-134237630D01*
X164292614Y-133969916D01*
X163820000Y-133875907D01*
X163347386Y-133969916D01*
X162946723Y-134237630D01*
X162679009Y-134638293D01*
X162585000Y-135110907D01*
X162515000Y-135110907D01*
X162420991Y-134638293D01*
X162153277Y-134237630D01*
X161752614Y-133969916D01*
X161280000Y-133875907D01*
X160807386Y-133969916D01*
X160406723Y-134237630D01*
X160139009Y-134638293D01*
X160045000Y-135110907D01*
X159975000Y-135110907D01*
X159880991Y-134638293D01*
X159613277Y-134237630D01*
X159212614Y-133969916D01*
X158740000Y-133875907D01*
X158267386Y-133969916D01*
X157866723Y-134237630D01*
X157599009Y-134638293D01*
X157505000Y-135110907D01*
X157435000Y-135110907D01*
X157340991Y-134638293D01*
X157073277Y-134237630D01*
X156672614Y-133969916D01*
X156200000Y-133875907D01*
X155727386Y-133969916D01*
X155326723Y-134237630D01*
X155059009Y-134638293D01*
X154965000Y-135110907D01*
X154895000Y-135110907D01*
X154800991Y-134638293D01*
X154533277Y-134237630D01*
X154132614Y-133969916D01*
X153660000Y-133875907D01*
X153187386Y-133969916D01*
X152786723Y-134237630D01*
X152519009Y-134638293D01*
X152425000Y-135110907D01*
X152355000Y-135110907D01*
X152260991Y-134638293D01*
X151993277Y-134237630D01*
X151592614Y-133969916D01*
X151120000Y-133875907D01*
X150647386Y-133969916D01*
X150246723Y-134237630D01*
X149979009Y-134638293D01*
X149885000Y-135110907D01*
X149815000Y-135110907D01*
X149720991Y-134638293D01*
X149453277Y-134237630D01*
X149052614Y-133969916D01*
X148580000Y-133875907D01*
X148107386Y-133969916D01*
X147706723Y-134237630D01*
X147439009Y-134638293D01*
X147345000Y-135110907D01*
X147275000Y-135110907D01*
X147180991Y-134638293D01*
X146913277Y-134237630D01*
X146512614Y-133969916D01*
X146040000Y-133875907D01*
X145567386Y-133969916D01*
X145166723Y-134237630D01*
X144899009Y-134638293D01*
X144805000Y-135110907D01*
X144735000Y-135110907D01*
X144640991Y-134638293D01*
X144373277Y-134237630D01*
X143972614Y-133969916D01*
X143500000Y-133875907D01*
X143027386Y-133969916D01*
X142626723Y-134237630D01*
X142359009Y-134638293D01*
X142265000Y-135110907D01*
X142195000Y-135110907D01*
X142100991Y-134638293D01*
X141833277Y-134237630D01*
X141432614Y-133969916D01*
X140960000Y-133875907D01*
X140487386Y-133969916D01*
X140086723Y-134237630D01*
X139819009Y-134638293D01*
X139725000Y-135110907D01*
X139655000Y-135110907D01*
X139560991Y-134638293D01*
X139293277Y-134237630D01*
X138892614Y-133969916D01*
X138420000Y-133875907D01*
X137947386Y-133969916D01*
X137546723Y-134237630D01*
X137279009Y-134638293D01*
X137185000Y-135110907D01*
X137115000Y-135110907D01*
X137020991Y-134638293D01*
X136753277Y-134237630D01*
X136352614Y-133969916D01*
X135880000Y-133875907D01*
X135407386Y-133969916D01*
X135006723Y-134237630D01*
X134739009Y-134638293D01*
X134645000Y-135110907D01*
X134575000Y-135110907D01*
X134480991Y-134638293D01*
X134213277Y-134237630D01*
X133812614Y-133969916D01*
X133340000Y-133875907D01*
X132867386Y-133969916D01*
X132466723Y-134237630D01*
X132199009Y-134638293D01*
X132105000Y-135110907D01*
X132035000Y-135110907D01*
X131940991Y-134638293D01*
X131673277Y-134237630D01*
X131272614Y-133969916D01*
X130800000Y-133875907D01*
X130327386Y-133969916D01*
X129926723Y-134237630D01*
X129659009Y-134638293D01*
X129565000Y-135110907D01*
X129495000Y-135110907D01*
X129400991Y-134638293D01*
X129133277Y-134237630D01*
X128732614Y-133969916D01*
X128260000Y-133875907D01*
X127787386Y-133969916D01*
X127386723Y-134237630D01*
X127119009Y-134638293D01*
X127025000Y-135110907D01*
X126955000Y-135110907D01*
X126860991Y-134638293D01*
X126593277Y-134237630D01*
X126192614Y-133969916D01*
X125720000Y-133875907D01*
X125247386Y-133969916D01*
X124846723Y-134237630D01*
X124579009Y-134638293D01*
X124485000Y-135110907D01*
X124415000Y-135110907D01*
X124320991Y-134638293D01*
X124053277Y-134237630D01*
X123652614Y-133969916D01*
X123180000Y-133875907D01*
X122707386Y-133969916D01*
X122306723Y-134237630D01*
X122039009Y-134638293D01*
X121945000Y-135110907D01*
X121875000Y-135110907D01*
X121780991Y-134638293D01*
X121513277Y-134237630D01*
X121112614Y-133969916D01*
X120640000Y-133875907D01*
X120167386Y-133969916D01*
X119766723Y-134237630D01*
X119499009Y-134638293D01*
X119405000Y-135110907D01*
X119335000Y-135110907D01*
X119240991Y-134638293D01*
X118973277Y-134237630D01*
X118572614Y-133969916D01*
X118100000Y-133875907D01*
X117627386Y-133969916D01*
X117226723Y-134237630D01*
X116959009Y-134638293D01*
X116865000Y-135110907D01*
X116795000Y-135110907D01*
X116700991Y-134638293D01*
X116433277Y-134237630D01*
X116032614Y-133969916D01*
X115560000Y-133875907D01*
X115087386Y-133969916D01*
X114686723Y-134237630D01*
X114419009Y-134638293D01*
X114325000Y-135110907D01*
X114229002Y-135110907D01*
X114265256Y-135067304D01*
X114142647Y-134596299D01*
X113849125Y-134208067D01*
X113429376Y-133961714D01*
X113337609Y-133946538D01*
X113147000Y-134071269D01*
X112893000Y-134071269D01*
X112702391Y-133946538D01*
X112610624Y-133961714D01*
X112190875Y-134208067D01*
X111897353Y-134596299D01*
X111774744Y-135067304D01*
X80720000Y-135067304D01*
X80720000Y-109897013D01*
X82523992Y-109897013D01*
X82593457Y-110139197D01*
X83116902Y-110325944D01*
X83671968Y-110298162D01*
X84055743Y-110139197D01*
X84125208Y-109897013D01*
X83324600Y-109096405D01*
X82523992Y-109897013D01*
X80720000Y-109897013D01*
X80720000Y-108709102D01*
X81915456Y-108709102D01*
X81943238Y-109264168D01*
X82102203Y-109647943D01*
X82344387Y-109717408D01*
X83144995Y-108916800D01*
X83504205Y-108916800D01*
X84304813Y-109717408D01*
X84546997Y-109647943D01*
X84733744Y-109124498D01*
X84705962Y-108569432D01*
X84546997Y-108185657D01*
X84304813Y-108116192D01*
X83504205Y-108916800D01*
X83144995Y-108916800D01*
X82344387Y-108116192D01*
X82102203Y-108185657D01*
X81915456Y-108709102D01*
X80720000Y-108709102D01*
X80720000Y-107936587D01*
X82523992Y-107936587D01*
X83324600Y-108737195D01*
X84125208Y-107936587D01*
X84055743Y-107694403D01*
X83532298Y-107507656D01*
X82977232Y-107535438D01*
X82593457Y-107694403D01*
X82523992Y-107936587D01*
X80720000Y-107936587D01*
X80720000Y-105189615D01*
X81189230Y-105189615D01*
X81513580Y-105974600D01*
X82113641Y-106575709D01*
X82898059Y-106901428D01*
X83747415Y-106902170D01*
X84532400Y-106577820D01*
X85133509Y-105977759D01*
X85459228Y-105193341D01*
X85459231Y-105189615D01*
X92289230Y-105189615D01*
X92613580Y-105974600D01*
X93213641Y-106575709D01*
X93998059Y-106901428D01*
X94847415Y-106902170D01*
X95632400Y-106577820D01*
X96233509Y-105977759D01*
X96559228Y-105193341D01*
X96559245Y-105172815D01*
X97314630Y-105172815D01*
X97638980Y-105957800D01*
X98239041Y-106558909D01*
X99023459Y-106884628D01*
X99872815Y-106885370D01*
X100657800Y-106561020D01*
X101258909Y-105960959D01*
X101584628Y-105176541D01*
X101584631Y-105172815D01*
X108414630Y-105172815D01*
X108738980Y-105957800D01*
X109339041Y-106558909D01*
X110123459Y-106884628D01*
X110972815Y-106885370D01*
X111757800Y-106561020D01*
X112358909Y-105960959D01*
X112684628Y-105176541D01*
X112685370Y-104327185D01*
X112361020Y-103542200D01*
X111760959Y-102941091D01*
X110976541Y-102615372D01*
X110127185Y-102614630D01*
X109342200Y-102938980D01*
X108741091Y-103539041D01*
X108415372Y-104323459D01*
X108414630Y-105172815D01*
X101584631Y-105172815D01*
X101585370Y-104327185D01*
X101261020Y-103542200D01*
X100660959Y-102941091D01*
X99876541Y-102615372D01*
X99027185Y-102614630D01*
X98242200Y-102938980D01*
X97641091Y-103539041D01*
X97315372Y-104323459D01*
X97314630Y-105172815D01*
X96559245Y-105172815D01*
X96559970Y-104343985D01*
X96235620Y-103559000D01*
X95635559Y-102957891D01*
X94851141Y-102632172D01*
X94001785Y-102631430D01*
X93216800Y-102955780D01*
X92615691Y-103555841D01*
X92289972Y-104340259D01*
X92289230Y-105189615D01*
X85459231Y-105189615D01*
X85459970Y-104343985D01*
X85135620Y-103559000D01*
X84535559Y-102957891D01*
X83751141Y-102632172D01*
X82901785Y-102631430D01*
X82116800Y-102955780D01*
X81515691Y-103555841D01*
X81189972Y-104340259D01*
X81189230Y-105189615D01*
X80720000Y-105189615D01*
X80720000Y-100893461D01*
X81927358Y-100893461D01*
X82139590Y-101407103D01*
X82532230Y-101800429D01*
X83045500Y-102013557D01*
X83601261Y-102014042D01*
X84114903Y-101801810D01*
X84508229Y-101409170D01*
X84721357Y-100895900D01*
X84721842Y-100340139D01*
X84509610Y-99826497D01*
X84116970Y-99433171D01*
X84049500Y-99405155D01*
X84049500Y-98887844D01*
X84115941Y-98845090D01*
X84260931Y-98632890D01*
X84263581Y-98619803D01*
X84400410Y-98832441D01*
X84612610Y-98977431D01*
X84864500Y-99028440D01*
X85564500Y-99028440D01*
X85799817Y-98984162D01*
X86015941Y-98845090D01*
X86160931Y-98632890D01*
X86211940Y-98381000D01*
X86211940Y-98193461D01*
X87427358Y-98193461D01*
X87639590Y-98707103D01*
X88032230Y-99100429D01*
X88545500Y-99313557D01*
X89101261Y-99314042D01*
X89614903Y-99101810D01*
X90008229Y-98709170D01*
X90221357Y-98195900D01*
X90221842Y-97640139D01*
X90009610Y-97126497D01*
X89616970Y-96733171D01*
X89103700Y-96520043D01*
X88547939Y-96519558D01*
X88034297Y-96731790D01*
X87640971Y-97124430D01*
X87427843Y-97637700D01*
X87427358Y-98193461D01*
X86211940Y-98193461D01*
X86211940Y-97081000D01*
X86211816Y-97080340D01*
X86348231Y-96880690D01*
X86399240Y-96628800D01*
X86399240Y-96571821D01*
X86471523Y-96523523D01*
X88711847Y-94283200D01*
X93028153Y-94283200D01*
X92579994Y-94731360D01*
X91972000Y-94731360D01*
X91736683Y-94775638D01*
X91520559Y-94914710D01*
X91375569Y-95126910D01*
X91324560Y-95378800D01*
X91324560Y-96628800D01*
X91368838Y-96864117D01*
X91507910Y-97080241D01*
X91524560Y-97091617D01*
X91524560Y-98381000D01*
X91568838Y-98616317D01*
X91707910Y-98832441D01*
X91920110Y-98977431D01*
X92172000Y-99028440D01*
X92872000Y-99028440D01*
X93107317Y-98984162D01*
X93323441Y-98845090D01*
X93468431Y-98632890D01*
X93471081Y-98619803D01*
X93607910Y-98832441D01*
X93689600Y-98888257D01*
X93689600Y-99408939D01*
X93634297Y-99431790D01*
X93240971Y-99824430D01*
X93027843Y-100337700D01*
X93027358Y-100893461D01*
X93239590Y-101407103D01*
X93632230Y-101800429D01*
X94145500Y-102013557D01*
X94701261Y-102014042D01*
X95214903Y-101801810D01*
X95608229Y-101409170D01*
X95821357Y-100895900D01*
X95821842Y-100340139D01*
X95609610Y-99826497D01*
X95216970Y-99433171D01*
X95159600Y-99409349D01*
X95159600Y-98886171D01*
X95223441Y-98845090D01*
X95368431Y-98632890D01*
X95419440Y-98381000D01*
X95419440Y-97081000D01*
X95419184Y-97079641D01*
X95510327Y-96988499D01*
X95607000Y-96755110D01*
X95607000Y-96289550D01*
X95448250Y-96130800D01*
X94599000Y-96130800D01*
X94599000Y-96150800D01*
X94345000Y-96150800D01*
X94345000Y-96130800D01*
X94325000Y-96130800D01*
X94325000Y-95876800D01*
X94345000Y-95876800D01*
X94345000Y-95856800D01*
X94599000Y-95856800D01*
X94599000Y-95876800D01*
X95448250Y-95876800D01*
X95607000Y-95718050D01*
X95607000Y-95252490D01*
X95584264Y-95197600D01*
X98293936Y-95197600D01*
X98271200Y-95252490D01*
X98271200Y-95718050D01*
X98429950Y-95876800D01*
X99279200Y-95876800D01*
X99279200Y-95856800D01*
X99533200Y-95856800D01*
X99533200Y-95876800D01*
X99553200Y-95876800D01*
X99553200Y-96130800D01*
X99533200Y-96130800D01*
X99533200Y-96150800D01*
X99279200Y-96150800D01*
X99279200Y-96130800D01*
X98429950Y-96130800D01*
X98271200Y-96289550D01*
X98271200Y-96755110D01*
X98367873Y-96988499D01*
X98448471Y-97069096D01*
X98446060Y-97081000D01*
X98446060Y-98381000D01*
X98490338Y-98616317D01*
X98629410Y-98832441D01*
X98715000Y-98890922D01*
X98715000Y-99392139D01*
X98659697Y-99414990D01*
X98266371Y-99807630D01*
X98053243Y-100320900D01*
X98052758Y-100876661D01*
X98264990Y-101390303D01*
X98657630Y-101783629D01*
X99170900Y-101996757D01*
X99726661Y-101997242D01*
X100240303Y-101785010D01*
X100633629Y-101392370D01*
X100846757Y-100879100D01*
X100847242Y-100323339D01*
X100635010Y-99809697D01*
X100242370Y-99416371D01*
X100185000Y-99392549D01*
X100185000Y-98883661D01*
X100244941Y-98845090D01*
X100389931Y-98632890D01*
X100392581Y-98619803D01*
X100529410Y-98832441D01*
X100741610Y-98977431D01*
X100993500Y-99028440D01*
X101693500Y-99028440D01*
X101928817Y-98984162D01*
X102144941Y-98845090D01*
X102289931Y-98632890D01*
X102340940Y-98381000D01*
X102340940Y-97103637D01*
X102357641Y-97092890D01*
X102502631Y-96880690D01*
X102531364Y-96738800D01*
X104135845Y-96738800D01*
X103766371Y-97107630D01*
X103553243Y-97620900D01*
X103552758Y-98176661D01*
X103764990Y-98690303D01*
X104157630Y-99083629D01*
X104670900Y-99296757D01*
X105226661Y-99297242D01*
X105740303Y-99085010D01*
X106133629Y-98692370D01*
X106346757Y-98179100D01*
X106347242Y-97623339D01*
X106135010Y-97109697D01*
X105742370Y-96716371D01*
X105563909Y-96642268D01*
X105741623Y-96523523D01*
X107893125Y-94372022D01*
X108220332Y-94372022D01*
X108081277Y-94511077D01*
X107921949Y-94749528D01*
X107918741Y-94765654D01*
X107865683Y-94775638D01*
X107649559Y-94914710D01*
X107504569Y-95126910D01*
X107453560Y-95378800D01*
X107453560Y-96628800D01*
X107497838Y-96864117D01*
X107636910Y-97080241D01*
X107653560Y-97091617D01*
X107653560Y-98381000D01*
X107697838Y-98616317D01*
X107836910Y-98832441D01*
X108049110Y-98977431D01*
X108301000Y-99028440D01*
X109001000Y-99028440D01*
X109236317Y-98984162D01*
X109452441Y-98845090D01*
X109597431Y-98632890D01*
X109600081Y-98619803D01*
X109736910Y-98832441D01*
X109815000Y-98885798D01*
X109815000Y-99392139D01*
X109759697Y-99414990D01*
X109366371Y-99807630D01*
X109153243Y-100320900D01*
X109152758Y-100876661D01*
X109364990Y-101390303D01*
X109757630Y-101783629D01*
X110270900Y-101996757D01*
X110826661Y-101997242D01*
X111340303Y-101785010D01*
X111733629Y-101392370D01*
X111946757Y-100879100D01*
X111947242Y-100323339D01*
X111735010Y-99809697D01*
X111342370Y-99416371D01*
X111285000Y-99392549D01*
X111285000Y-98888487D01*
X111352441Y-98845090D01*
X111497431Y-98632890D01*
X111548440Y-98381000D01*
X111548440Y-97081000D01*
X111548184Y-97079641D01*
X111639327Y-96988499D01*
X111736000Y-96755110D01*
X111736000Y-96289550D01*
X111577250Y-96130800D01*
X110728000Y-96130800D01*
X110728000Y-96150800D01*
X110474000Y-96150800D01*
X110474000Y-96130800D01*
X110454000Y-96130800D01*
X110454000Y-95876800D01*
X110474000Y-95876800D01*
X110474000Y-94902550D01*
X110728000Y-94902550D01*
X110728000Y-95876800D01*
X111577250Y-95876800D01*
X111736000Y-95718050D01*
X111736000Y-95252490D01*
X111639327Y-95019101D01*
X111460698Y-94840473D01*
X111227309Y-94743800D01*
X110886750Y-94743800D01*
X110728000Y-94902550D01*
X110474000Y-94902550D01*
X110315250Y-94743800D01*
X110153957Y-94743800D01*
X110256438Y-94496999D01*
X110256547Y-94372022D01*
X117688532Y-94372022D01*
X113040276Y-99020278D01*
X112880948Y-99258729D01*
X112824999Y-99540001D01*
X112824999Y-107134999D01*
X112864066Y-107331401D01*
X112880948Y-107416271D01*
X113040276Y-107654722D01*
X113550554Y-108165000D01*
X111757861Y-108165000D01*
X111735010Y-108109697D01*
X111342370Y-107716371D01*
X110829100Y-107503243D01*
X110273339Y-107502758D01*
X109759697Y-107714990D01*
X109366371Y-108107630D01*
X109153243Y-108620900D01*
X109152758Y-109176661D01*
X109173558Y-109227001D01*
X100816581Y-109227001D01*
X100859144Y-109107698D01*
X100831362Y-108552632D01*
X100672397Y-108168857D01*
X100430213Y-108099392D01*
X99629605Y-108900000D01*
X99643748Y-108914143D01*
X99464143Y-109093748D01*
X99450000Y-109079605D01*
X99435858Y-109093748D01*
X99256253Y-108914143D01*
X99270395Y-108900000D01*
X98469787Y-108099392D01*
X98227603Y-108168857D01*
X98040856Y-108692302D01*
X98067619Y-109227001D01*
X95808443Y-109227001D01*
X95821357Y-109195900D01*
X95821842Y-108640139D01*
X95609610Y-108126497D01*
X95403261Y-107919787D01*
X98649392Y-107919787D01*
X99450000Y-108720395D01*
X100250608Y-107919787D01*
X100181143Y-107677603D01*
X99657698Y-107490856D01*
X99102632Y-107518638D01*
X98718857Y-107677603D01*
X98649392Y-107919787D01*
X95403261Y-107919787D01*
X95216970Y-107733171D01*
X94703700Y-107520043D01*
X94147939Y-107519558D01*
X93634297Y-107731790D01*
X93240971Y-108124430D01*
X93027843Y-108637700D01*
X93027358Y-109193461D01*
X93048158Y-109243801D01*
X88723297Y-109243801D01*
X88442025Y-109299750D01*
X88203574Y-109459077D01*
X82560276Y-115102376D01*
X82400948Y-115340827D01*
X82344999Y-115622099D01*
X82344999Y-118564999D01*
X82389119Y-118786801D01*
X82400948Y-118846271D01*
X82560276Y-119084722D01*
X83285832Y-119810279D01*
X83144683Y-119836838D01*
X82928559Y-119975910D01*
X82783569Y-120188110D01*
X82732560Y-120440000D01*
X82732560Y-121440000D01*
X82776838Y-121675317D01*
X82915910Y-121891441D01*
X83128110Y-122036431D01*
X83286956Y-122068598D01*
X82560276Y-122795278D01*
X82400948Y-123033729D01*
X82344999Y-123315001D01*
X82344999Y-129994999D01*
X82380804Y-130175000D01*
X82400948Y-130276271D01*
X82560276Y-130514722D01*
X83285832Y-131240279D01*
X83144683Y-131266838D01*
X82928559Y-131405910D01*
X82783569Y-131618110D01*
X82732560Y-131870000D01*
X82732560Y-132870000D01*
X82776838Y-133105317D01*
X82915910Y-133321441D01*
X83128110Y-133466431D01*
X83380000Y-133517440D01*
X86130000Y-133517440D01*
X86365317Y-133473162D01*
X86581441Y-133334090D01*
X86726431Y-133121890D01*
X86729851Y-133105000D01*
X88526778Y-133105000D01*
X88526838Y-133105317D01*
X88665910Y-133321441D01*
X88878110Y-133466431D01*
X89130000Y-133517440D01*
X91880000Y-133517440D01*
X92115317Y-133473162D01*
X92331441Y-133334090D01*
X92476431Y-133121890D01*
X92479851Y-133105000D01*
X92936778Y-133105000D01*
X92936838Y-133105317D01*
X93075910Y-133321441D01*
X93288110Y-133466431D01*
X93540000Y-133517440D01*
X96290000Y-133517440D01*
X96525317Y-133473162D01*
X96741441Y-133334090D01*
X96886431Y-133121890D01*
X96889851Y-133105000D01*
X98686778Y-133105000D01*
X98686838Y-133105317D01*
X98825910Y-133321441D01*
X99038110Y-133466431D01*
X99290000Y-133517440D01*
X102040000Y-133517440D01*
X102275317Y-133473162D01*
X102491441Y-133334090D01*
X102636431Y-133121890D01*
X102639851Y-133105000D01*
X103096778Y-133105000D01*
X103096838Y-133105317D01*
X103235910Y-133321441D01*
X103448110Y-133466431D01*
X103700000Y-133517440D01*
X106450000Y-133517440D01*
X106685317Y-133473162D01*
X106901441Y-133334090D01*
X107046431Y-133121890D01*
X107049851Y-133105000D01*
X108846778Y-133105000D01*
X108846838Y-133105317D01*
X108985910Y-133321441D01*
X109198110Y-133466431D01*
X109450000Y-133517440D01*
X112200000Y-133517440D01*
X112435317Y-133473162D01*
X112651441Y-133334090D01*
X112796431Y-133121890D01*
X112799851Y-133105000D01*
X113256778Y-133105000D01*
X113256838Y-133105317D01*
X113395910Y-133321441D01*
X113608110Y-133466431D01*
X113860000Y-133517440D01*
X116610000Y-133517440D01*
X116845317Y-133473162D01*
X117061441Y-133334090D01*
X117206431Y-133121890D01*
X117209851Y-133105000D01*
X119006778Y-133105000D01*
X119006838Y-133105317D01*
X119145910Y-133321441D01*
X119358110Y-133466431D01*
X119610000Y-133517440D01*
X122360000Y-133517440D01*
X122595317Y-133473162D01*
X122811441Y-133334090D01*
X122956431Y-133121890D01*
X122959851Y-133105000D01*
X123416778Y-133105000D01*
X123416838Y-133105317D01*
X123555910Y-133321441D01*
X123768110Y-133466431D01*
X124020000Y-133517440D01*
X126770000Y-133517440D01*
X127005317Y-133473162D01*
X127221441Y-133334090D01*
X127366431Y-133121890D01*
X127369851Y-133105000D01*
X129166778Y-133105000D01*
X129166838Y-133105317D01*
X129305910Y-133321441D01*
X129518110Y-133466431D01*
X129770000Y-133517440D01*
X132520000Y-133517440D01*
X132755317Y-133473162D01*
X132971441Y-133334090D01*
X133116431Y-133121890D01*
X133119851Y-133105000D01*
X133576778Y-133105000D01*
X133576838Y-133105317D01*
X133715910Y-133321441D01*
X133928110Y-133466431D01*
X134180000Y-133517440D01*
X136930000Y-133517440D01*
X137165317Y-133473162D01*
X137381441Y-133334090D01*
X137526431Y-133121890D01*
X137529851Y-133105000D01*
X139326778Y-133105000D01*
X139326838Y-133105317D01*
X139465910Y-133321441D01*
X139678110Y-133466431D01*
X139930000Y-133517440D01*
X142680000Y-133517440D01*
X142915317Y-133473162D01*
X143131441Y-133334090D01*
X143276431Y-133121890D01*
X143279851Y-133105000D01*
X143736778Y-133105000D01*
X143736838Y-133105317D01*
X143875910Y-133321441D01*
X144088110Y-133466431D01*
X144340000Y-133517440D01*
X147090000Y-133517440D01*
X147325317Y-133473162D01*
X147541441Y-133334090D01*
X147686431Y-133121890D01*
X147689851Y-133105000D01*
X149486778Y-133105000D01*
X149486838Y-133105317D01*
X149625910Y-133321441D01*
X149838110Y-133466431D01*
X150090000Y-133517440D01*
X152840000Y-133517440D01*
X153075317Y-133473162D01*
X153291441Y-133334090D01*
X153436431Y-133121890D01*
X153439851Y-133105000D01*
X153896778Y-133105000D01*
X153896838Y-133105317D01*
X154035910Y-133321441D01*
X154248110Y-133466431D01*
X154500000Y-133517440D01*
X157250000Y-133517440D01*
X157485317Y-133473162D01*
X157701441Y-133334090D01*
X157846431Y-133121890D01*
X157849851Y-133105000D01*
X159646778Y-133105000D01*
X159646838Y-133105317D01*
X159785910Y-133321441D01*
X159998110Y-133466431D01*
X160250000Y-133517440D01*
X163000000Y-133517440D01*
X163235317Y-133473162D01*
X163451441Y-133334090D01*
X163596431Y-133121890D01*
X163599851Y-133105000D01*
X163937169Y-133105000D01*
X163967310Y-133151841D01*
X164179510Y-133296831D01*
X164431400Y-133347840D01*
X167181400Y-133347840D01*
X167416717Y-133303562D01*
X167632841Y-133164490D01*
X167673489Y-133105000D01*
X169687169Y-133105000D01*
X169717310Y-133151841D01*
X169929510Y-133296831D01*
X170181400Y-133347840D01*
X172931400Y-133347840D01*
X173166717Y-133303562D01*
X173382841Y-133164490D01*
X173527831Y-132952290D01*
X173578840Y-132700400D01*
X173578840Y-131700400D01*
X173534562Y-131465083D01*
X173395490Y-131248959D01*
X173183290Y-131103969D01*
X172931400Y-131052960D01*
X170181400Y-131052960D01*
X169946083Y-131097238D01*
X169729959Y-131236310D01*
X169584969Y-131448510D01*
X169547204Y-131635000D01*
X167816534Y-131635000D01*
X167784562Y-131465083D01*
X167645490Y-131248959D01*
X167433290Y-131103969D01*
X167181400Y-131052960D01*
X167119107Y-131052960D01*
X167263792Y-130908527D01*
X167406438Y-130564999D01*
X167406762Y-130193033D01*
X167264717Y-129849257D01*
X167001927Y-129586008D01*
X166658399Y-129443362D01*
X166576137Y-129443290D01*
X166541400Y-129408554D01*
X166541400Y-129347840D01*
X167181400Y-129347840D01*
X167416717Y-129303562D01*
X167632841Y-129164490D01*
X167673489Y-129105000D01*
X169687169Y-129105000D01*
X169717310Y-129151841D01*
X169929510Y-129296831D01*
X170181400Y-129347840D01*
X172931400Y-129347840D01*
X173166717Y-129303562D01*
X173382841Y-129164490D01*
X173527831Y-128952290D01*
X173578840Y-128700400D01*
X173578840Y-127700400D01*
X173534562Y-127465083D01*
X173395490Y-127248959D01*
X173183290Y-127103969D01*
X172931400Y-127052960D01*
X170181400Y-127052960D01*
X169946083Y-127097238D01*
X169729959Y-127236310D01*
X169584969Y-127448510D01*
X169547204Y-127635000D01*
X168803490Y-127635000D01*
X168803762Y-127322833D01*
X168661717Y-126979057D01*
X168603600Y-126920838D01*
X168603600Y-126509939D01*
X168695737Y-126492602D01*
X168911861Y-126353530D01*
X168912543Y-126352533D01*
X169107690Y-126485871D01*
X169359580Y-126536880D01*
X170558460Y-126536880D01*
X170793777Y-126492602D01*
X171009901Y-126353530D01*
X171154891Y-126141330D01*
X171205900Y-125889440D01*
X171205900Y-125858021D01*
X171278183Y-125809723D01*
X174769723Y-122318184D01*
X174929051Y-122079732D01*
X174949732Y-121975762D01*
X174985000Y-121798460D01*
X174985000Y-97931446D01*
X175135317Y-97903162D01*
X175351441Y-97764090D01*
X175496431Y-97551890D01*
X175547440Y-97300000D01*
X175547440Y-96600000D01*
X175503162Y-96364683D01*
X175364090Y-96148559D01*
X175151890Y-96003569D01*
X175138803Y-96000919D01*
X175351441Y-95864090D01*
X175496431Y-95651890D01*
X175547440Y-95400000D01*
X175547440Y-94700000D01*
X175503162Y-94464683D01*
X175364090Y-94248559D01*
X175151890Y-94103569D01*
X174900000Y-94052560D01*
X174818022Y-94052560D01*
X174769724Y-93980277D01*
X169345019Y-88555573D01*
X169372614Y-88550084D01*
X169773277Y-88282370D01*
X170040991Y-87881707D01*
X170135000Y-87409093D01*
X170135000Y-86850907D01*
X170040991Y-86378293D01*
X169773277Y-85977630D01*
X169597231Y-85860000D01*
X169773277Y-85742370D01*
X170040991Y-85341707D01*
X170135000Y-84869093D01*
X170135000Y-84310907D01*
X170205000Y-84310907D01*
X170205000Y-84869093D01*
X170299009Y-85341707D01*
X170566723Y-85742370D01*
X170742769Y-85860000D01*
X170566723Y-85977630D01*
X170299009Y-86378293D01*
X170205000Y-86850907D01*
X170205000Y-87409093D01*
X170299009Y-87881707D01*
X170566723Y-88282370D01*
X170967386Y-88550084D01*
X171440000Y-88644093D01*
X171912614Y-88550084D01*
X172313277Y-88282370D01*
X172580991Y-87881707D01*
X172666326Y-87452696D01*
X172734744Y-87452696D01*
X172857353Y-87923701D01*
X173150875Y-88311933D01*
X173570624Y-88558286D01*
X173662391Y-88573462D01*
X173853000Y-88448731D01*
X173853000Y-87257000D01*
X174107000Y-87257000D01*
X174107000Y-88448731D01*
X174297609Y-88573462D01*
X174389376Y-88558286D01*
X174809125Y-88311933D01*
X175102647Y-87923701D01*
X175225256Y-87452696D01*
X175062547Y-87257000D01*
X174107000Y-87257000D01*
X173853000Y-87257000D01*
X172897453Y-87257000D01*
X172734744Y-87452696D01*
X172666326Y-87452696D01*
X172675000Y-87409093D01*
X172675000Y-86850907D01*
X172580991Y-86378293D01*
X172313277Y-85977630D01*
X172137231Y-85860000D01*
X172313277Y-85742370D01*
X172580991Y-85341707D01*
X172666326Y-84912696D01*
X172734744Y-84912696D01*
X172857353Y-85383701D01*
X173150875Y-85771933D01*
X173300928Y-85860000D01*
X173150875Y-85948067D01*
X172857353Y-86336299D01*
X172734744Y-86807304D01*
X172897453Y-87003000D01*
X173853000Y-87003000D01*
X173853000Y-84717000D01*
X174107000Y-84717000D01*
X174107000Y-87003000D01*
X175062547Y-87003000D01*
X175225256Y-86807304D01*
X175102647Y-86336299D01*
X174809125Y-85948067D01*
X174659072Y-85860000D01*
X174809125Y-85771933D01*
X175102647Y-85383701D01*
X175225256Y-84912696D01*
X175062547Y-84717000D01*
X174107000Y-84717000D01*
X173853000Y-84717000D01*
X172897453Y-84717000D01*
X172734744Y-84912696D01*
X172666326Y-84912696D01*
X172675000Y-84869093D01*
X172675000Y-84310907D01*
X172666327Y-84267304D01*
X172734744Y-84267304D01*
X172897453Y-84463000D01*
X173853000Y-84463000D01*
X173853000Y-83271269D01*
X174107000Y-83271269D01*
X174107000Y-84463000D01*
X175062547Y-84463000D01*
X175225256Y-84267304D01*
X175102647Y-83796299D01*
X174809125Y-83408067D01*
X174389376Y-83161714D01*
X174297609Y-83146538D01*
X174107000Y-83271269D01*
X173853000Y-83271269D01*
X173662391Y-83146538D01*
X173570624Y-83161714D01*
X173150875Y-83408067D01*
X172857353Y-83796299D01*
X172734744Y-84267304D01*
X172666327Y-84267304D01*
X172580991Y-83838293D01*
X172313277Y-83437630D01*
X171912614Y-83169916D01*
X171440000Y-83075907D01*
X170967386Y-83169916D01*
X170566723Y-83437630D01*
X170299009Y-83838293D01*
X170205000Y-84310907D01*
X170135000Y-84310907D01*
X170040991Y-83838293D01*
X169773277Y-83437630D01*
X169372614Y-83169916D01*
X168900000Y-83075907D01*
X168427386Y-83169916D01*
X168026723Y-83437630D01*
X167759009Y-83838293D01*
X167665000Y-84310907D01*
X167665000Y-84869093D01*
X167723714Y-85164267D01*
X167567382Y-85007936D01*
X167595000Y-84869093D01*
X167595000Y-84310907D01*
X167500991Y-83838293D01*
X167233277Y-83437630D01*
X166832614Y-83169916D01*
X166360000Y-83075907D01*
X165887386Y-83169916D01*
X165486723Y-83437630D01*
X165219009Y-83838293D01*
X165125000Y-84310907D01*
X165125000Y-84869093D01*
X165219009Y-85341707D01*
X165486723Y-85742370D01*
X165662769Y-85860000D01*
X165486723Y-85977630D01*
X165219009Y-86378293D01*
X165167366Y-86637920D01*
X165139723Y-86610277D01*
X164986812Y-86508105D01*
X164960991Y-86378293D01*
X164693277Y-85977630D01*
X164517231Y-85860000D01*
X164693277Y-85742370D01*
X164960991Y-85341707D01*
X165055000Y-84869093D01*
X165055000Y-84310907D01*
X164960991Y-83838293D01*
X164693277Y-83437630D01*
X164292614Y-83169916D01*
X163820000Y-83075907D01*
X163347386Y-83169916D01*
X162946723Y-83437630D01*
X162679009Y-83838293D01*
X162585000Y-84310907D01*
X162585000Y-84869093D01*
X162612618Y-85007936D01*
X162456286Y-85164268D01*
X162515000Y-84869093D01*
X162515000Y-84310907D01*
X162420991Y-83838293D01*
X162153277Y-83437630D01*
X161752614Y-83169916D01*
X161280000Y-83075907D01*
X160807386Y-83169916D01*
X160406723Y-83437630D01*
X160139009Y-83838293D01*
X160045000Y-84310907D01*
X160045000Y-84869093D01*
X160139009Y-85341707D01*
X160406723Y-85742370D01*
X160582769Y-85860000D01*
X160406723Y-85977630D01*
X160139009Y-86378293D01*
X160045000Y-86850907D01*
X160045000Y-87409093D01*
X160139009Y-87881707D01*
X160406723Y-88282370D01*
X160807386Y-88550084D01*
X161280000Y-88644093D01*
X161752614Y-88550084D01*
X162153277Y-88282370D01*
X162184990Y-88234908D01*
X162184990Y-96169990D01*
X162232668Y-96409683D01*
X162240939Y-96451262D01*
X162400267Y-96689713D01*
X163913114Y-98202560D01*
X163700000Y-98202560D01*
X163464683Y-98246838D01*
X163248559Y-98385910D01*
X163103569Y-98598110D01*
X163052560Y-98850000D01*
X163052560Y-98931978D01*
X162980277Y-98980276D01*
X160978178Y-100982376D01*
X160920871Y-101068142D01*
X160712452Y-101276561D01*
X160650350Y-101234129D01*
X160398460Y-101183120D01*
X160367042Y-101183120D01*
X160318744Y-101110837D01*
X160218742Y-101010836D01*
X159980291Y-100851508D01*
X159699019Y-100795559D01*
X151337901Y-100795559D01*
X151056629Y-100851508D01*
X150818178Y-101010835D01*
X150552452Y-101276561D01*
X150490350Y-101234129D01*
X150238460Y-101183120D01*
X150207042Y-101183120D01*
X150158744Y-101110837D01*
X150058742Y-101010836D01*
X149820291Y-100851508D01*
X149539019Y-100795559D01*
X141177901Y-100795559D01*
X140896629Y-100851508D01*
X140658178Y-101010835D01*
X140392452Y-101276561D01*
X140330350Y-101234129D01*
X140078460Y-101183120D01*
X140047042Y-101183120D01*
X139998744Y-101110837D01*
X139898742Y-101010836D01*
X139660291Y-100851508D01*
X139379019Y-100795559D01*
X131017901Y-100795559D01*
X130736629Y-100851508D01*
X130498178Y-101010835D01*
X130232452Y-101276561D01*
X130170350Y-101234129D01*
X129918460Y-101183120D01*
X129887042Y-101183120D01*
X129838744Y-101110837D01*
X129738742Y-101010836D01*
X129500291Y-100851508D01*
X129219019Y-100795559D01*
X119259021Y-100795559D01*
X118977749Y-100851508D01*
X118739298Y-101010835D01*
X118639297Y-101110837D01*
X118590999Y-101183120D01*
X118559580Y-101183120D01*
X118324263Y-101227398D01*
X118108139Y-101366470D01*
X118107457Y-101367467D01*
X117912310Y-101234129D01*
X117660420Y-101183120D01*
X116461540Y-101183120D01*
X116226223Y-101227398D01*
X116010099Y-101366470D01*
X115865109Y-101578670D01*
X115814100Y-101830560D01*
X115814100Y-103029440D01*
X115858378Y-103264757D01*
X115997450Y-103480881D01*
X116209650Y-103625871D01*
X116384400Y-103661259D01*
X116384400Y-103857381D01*
X116327208Y-103914473D01*
X116184562Y-104258001D01*
X116184471Y-104362560D01*
X114294999Y-104362560D01*
X114294999Y-99844447D01*
X114805696Y-99333750D01*
X130531000Y-99333750D01*
X130531000Y-99799310D01*
X130627673Y-100032699D01*
X130806302Y-100211327D01*
X131039691Y-100308000D01*
X131380250Y-100308000D01*
X131539000Y-100149250D01*
X131539000Y-99175000D01*
X130689750Y-99175000D01*
X130531000Y-99333750D01*
X114805696Y-99333750D01*
X116583696Y-97555750D01*
X130531000Y-97555750D01*
X130531000Y-98021310D01*
X130588033Y-98159000D01*
X130531000Y-98296690D01*
X130531000Y-98762250D01*
X130689750Y-98921000D01*
X131539000Y-98921000D01*
X131539000Y-97397000D01*
X130689750Y-97397000D01*
X130531000Y-97555750D01*
X116583696Y-97555750D01*
X117620756Y-96518690D01*
X130531000Y-96518690D01*
X130531000Y-96984250D01*
X130689750Y-97143000D01*
X131539000Y-97143000D01*
X131539000Y-96668250D01*
X131589000Y-96618250D01*
X131589000Y-95619000D01*
X130889750Y-95619000D01*
X130731000Y-95777750D01*
X130731000Y-96181975D01*
X130627673Y-96285301D01*
X130531000Y-96518690D01*
X117620756Y-96518690D01*
X120139696Y-93999750D01*
X130531000Y-93999750D01*
X130531000Y-94465310D01*
X130627673Y-94698699D01*
X130731000Y-94802025D01*
X130731000Y-95206250D01*
X130889750Y-95365000D01*
X131589000Y-95365000D01*
X131589000Y-94365750D01*
X131539000Y-94315750D01*
X131539000Y-93841000D01*
X130689750Y-93841000D01*
X130531000Y-93999750D01*
X120139696Y-93999750D01*
X125532625Y-88606822D01*
X125720000Y-88644093D01*
X126192614Y-88550084D01*
X126412164Y-88403385D01*
X126480277Y-88505323D01*
X127140677Y-89165724D01*
X127379128Y-89325051D01*
X127660400Y-89381000D01*
X130518560Y-89381000D01*
X130518560Y-90125000D01*
X130562838Y-90360317D01*
X130701910Y-90576441D01*
X130771711Y-90624134D01*
X130714559Y-90660910D01*
X130569569Y-90873110D01*
X130518560Y-91125000D01*
X130518560Y-92375000D01*
X130562838Y-92610317D01*
X130634810Y-92722164D01*
X130627673Y-92729301D01*
X130531000Y-92962690D01*
X130531000Y-93428250D01*
X130689750Y-93587000D01*
X131539000Y-93587000D01*
X131539000Y-93567000D01*
X131793000Y-93567000D01*
X131793000Y-93587000D01*
X131813000Y-93587000D01*
X131813000Y-93841000D01*
X131793000Y-93841000D01*
X131793000Y-94815250D01*
X131843000Y-94865250D01*
X131843000Y-95365000D01*
X131863000Y-95365000D01*
X131863000Y-95619000D01*
X131843000Y-95619000D01*
X131843000Y-96118750D01*
X131793000Y-96168750D01*
X131793000Y-97143000D01*
X131813000Y-97143000D01*
X131813000Y-97397000D01*
X131793000Y-97397000D01*
X131793000Y-98921000D01*
X131813000Y-98921000D01*
X131813000Y-99175000D01*
X131793000Y-99175000D01*
X131793000Y-100149250D01*
X131951750Y-100308000D01*
X132292309Y-100308000D01*
X132525698Y-100211327D01*
X132666936Y-100070090D01*
X132701910Y-100124441D01*
X132914110Y-100269431D01*
X133166000Y-100320440D01*
X134166000Y-100320440D01*
X134401317Y-100276162D01*
X134617441Y-100137090D01*
X134762431Y-99924890D01*
X134813440Y-99673000D01*
X134813440Y-99225454D01*
X136700564Y-99225454D01*
X136839117Y-99197894D01*
X137700564Y-99197894D01*
X137935881Y-99153616D01*
X138152005Y-99014544D01*
X138296995Y-98802344D01*
X138348004Y-98550454D01*
X138348004Y-98230454D01*
X138318743Y-98074947D01*
X138348004Y-97930454D01*
X138348004Y-97610454D01*
X138318743Y-97454947D01*
X138348004Y-97310454D01*
X138348004Y-97265454D01*
X138361194Y-97265454D01*
X138509273Y-97413792D01*
X138852801Y-97556438D01*
X139224767Y-97556762D01*
X139568543Y-97414717D01*
X139831792Y-97151927D01*
X139974438Y-96808399D01*
X139974762Y-96436433D01*
X139888564Y-96227817D01*
X139937617Y-96109685D01*
X139984654Y-96156722D01*
X139984654Y-96859566D01*
X139884814Y-97100006D01*
X139884490Y-97471972D01*
X140026535Y-97815748D01*
X140289325Y-98078997D01*
X140632853Y-98221643D01*
X141004819Y-98221967D01*
X141004821Y-98221967D01*
X141348597Y-98079922D01*
X141611846Y-97817132D01*
X141754492Y-97473604D01*
X141754816Y-97101638D01*
X141654654Y-96859227D01*
X141654654Y-96104661D01*
X141703400Y-95859600D01*
X141703400Y-94259400D01*
X141639839Y-93939859D01*
X141458834Y-93668966D01*
X140011034Y-92221166D01*
X139841452Y-92107855D01*
X139740141Y-92040161D01*
X139420600Y-91976600D01*
X138337871Y-91976600D01*
X138318743Y-91874947D01*
X138348004Y-91730454D01*
X138348004Y-91410454D01*
X138318743Y-91254947D01*
X138348004Y-91110454D01*
X138348004Y-90790454D01*
X138318743Y-90634947D01*
X138348004Y-90490454D01*
X138348004Y-90170454D01*
X138303726Y-89935137D01*
X138164654Y-89719013D01*
X137952454Y-89574023D01*
X137700564Y-89523014D01*
X135700564Y-89523014D01*
X135465247Y-89567292D01*
X135460333Y-89570454D01*
X134813440Y-89570454D01*
X134813440Y-88875000D01*
X134769162Y-88639683D01*
X134630090Y-88423559D01*
X134417890Y-88278569D01*
X134239900Y-88242525D01*
X134480991Y-87881707D01*
X134575000Y-87409093D01*
X134575000Y-86850907D01*
X134480991Y-86378293D01*
X134213277Y-85977630D01*
X134037231Y-85860000D01*
X134213277Y-85742370D01*
X134480991Y-85341707D01*
X134575000Y-84869093D01*
X134575000Y-84310907D01*
X134645000Y-84310907D01*
X134645000Y-84869093D01*
X134739009Y-85341707D01*
X135006723Y-85742370D01*
X135182769Y-85860000D01*
X135006723Y-85977630D01*
X134739009Y-86378293D01*
X134645000Y-86850907D01*
X134645000Y-87409093D01*
X134739009Y-87881707D01*
X135006723Y-88282370D01*
X135407386Y-88550084D01*
X135880000Y-88644093D01*
X136352614Y-88550084D01*
X136753277Y-88282370D01*
X137020991Y-87881707D01*
X137115000Y-87409093D01*
X137115000Y-86850907D01*
X137020991Y-86378293D01*
X136753277Y-85977630D01*
X136577231Y-85860000D01*
X136753277Y-85742370D01*
X137020991Y-85341707D01*
X137115000Y-84869093D01*
X137115000Y-84310907D01*
X137185000Y-84310907D01*
X137185000Y-84869093D01*
X137279009Y-85341707D01*
X137546723Y-85742370D01*
X137722769Y-85860000D01*
X137546723Y-85977630D01*
X137279009Y-86378293D01*
X137185000Y-86850907D01*
X137185000Y-87409093D01*
X137279009Y-87881707D01*
X137546723Y-88282370D01*
X137947386Y-88550084D01*
X138420000Y-88644093D01*
X138892614Y-88550084D01*
X139293277Y-88282370D01*
X139560991Y-87881707D01*
X139655000Y-87409093D01*
X139655000Y-86850907D01*
X139560991Y-86378293D01*
X139293277Y-85977630D01*
X139117231Y-85860000D01*
X139293277Y-85742370D01*
X139560991Y-85341707D01*
X139655000Y-84869093D01*
X139655000Y-84310907D01*
X139725000Y-84310907D01*
X139725000Y-84869093D01*
X139819009Y-85341707D01*
X140086723Y-85742370D01*
X140262769Y-85860000D01*
X140086723Y-85977630D01*
X139819009Y-86378293D01*
X139725000Y-86850907D01*
X139725000Y-87409093D01*
X139819009Y-87881707D01*
X140086723Y-88282370D01*
X140487386Y-88550084D01*
X140960000Y-88644093D01*
X141432614Y-88550084D01*
X141833277Y-88282370D01*
X142100991Y-87881707D01*
X142195000Y-87409093D01*
X142195000Y-86850907D01*
X142100991Y-86378293D01*
X141833277Y-85977630D01*
X141657231Y-85860000D01*
X141833277Y-85742370D01*
X142100991Y-85341707D01*
X142195000Y-84869093D01*
X142195000Y-84310907D01*
X142265000Y-84310907D01*
X142265000Y-84869093D01*
X142359009Y-85341707D01*
X142626723Y-85742370D01*
X142802769Y-85860000D01*
X142626723Y-85977630D01*
X142359009Y-86378293D01*
X142265000Y-86850907D01*
X142265000Y-87409093D01*
X142359009Y-87881707D01*
X142626723Y-88282370D01*
X143027386Y-88550084D01*
X143500000Y-88644093D01*
X143972614Y-88550084D01*
X144373277Y-88282370D01*
X144640991Y-87881707D01*
X144735000Y-87409093D01*
X144735000Y-86850907D01*
X144640991Y-86378293D01*
X144373277Y-85977630D01*
X144197231Y-85860000D01*
X144373277Y-85742370D01*
X144640991Y-85341707D01*
X144735000Y-84869093D01*
X144735000Y-84310907D01*
X144805000Y-84310907D01*
X144805000Y-84869093D01*
X144899009Y-85341707D01*
X145166723Y-85742370D01*
X145342769Y-85860000D01*
X145166723Y-85977630D01*
X144899009Y-86378293D01*
X144805000Y-86850907D01*
X144805000Y-87409093D01*
X144899009Y-87881707D01*
X145166723Y-88282370D01*
X145567386Y-88550084D01*
X146040000Y-88644093D01*
X146512614Y-88550084D01*
X146913277Y-88282370D01*
X147180991Y-87881707D01*
X147275000Y-87409093D01*
X147275000Y-86850907D01*
X147180991Y-86378293D01*
X146913277Y-85977630D01*
X146737231Y-85860000D01*
X146913277Y-85742370D01*
X147180991Y-85341707D01*
X147275000Y-84869093D01*
X147275000Y-84310907D01*
X147345000Y-84310907D01*
X147345000Y-84869093D01*
X147439009Y-85341707D01*
X147706723Y-85742370D01*
X147882769Y-85860000D01*
X147706723Y-85977630D01*
X147439009Y-86378293D01*
X147345000Y-86850907D01*
X147345000Y-87409093D01*
X147439009Y-87881707D01*
X147706723Y-88282370D01*
X148107386Y-88550084D01*
X148580000Y-88644093D01*
X149052614Y-88550084D01*
X149453277Y-88282370D01*
X149720991Y-87881707D01*
X149815000Y-87409093D01*
X149815000Y-86850907D01*
X149720991Y-86378293D01*
X149453277Y-85977630D01*
X149277231Y-85860000D01*
X149453277Y-85742370D01*
X149720991Y-85341707D01*
X149815000Y-84869093D01*
X149815000Y-84310907D01*
X149885000Y-84310907D01*
X149885000Y-84869093D01*
X149979009Y-85341707D01*
X150246723Y-85742370D01*
X150422769Y-85860000D01*
X150246723Y-85977630D01*
X149979009Y-86378293D01*
X149885000Y-86850907D01*
X149885000Y-87409093D01*
X149979009Y-87881707D01*
X150246723Y-88282370D01*
X150647386Y-88550084D01*
X151120000Y-88644093D01*
X151592614Y-88550084D01*
X151993277Y-88282370D01*
X152260991Y-87881707D01*
X152355000Y-87409093D01*
X152355000Y-86850907D01*
X152260991Y-86378293D01*
X151993277Y-85977630D01*
X151817231Y-85860000D01*
X151993277Y-85742370D01*
X152260991Y-85341707D01*
X152355000Y-84869093D01*
X152355000Y-84310907D01*
X152425000Y-84310907D01*
X152425000Y-84869093D01*
X152519009Y-85341707D01*
X152786723Y-85742370D01*
X152962769Y-85860000D01*
X152786723Y-85977630D01*
X152519009Y-86378293D01*
X152425000Y-86850907D01*
X152425000Y-87409093D01*
X152519009Y-87881707D01*
X152786723Y-88282370D01*
X153187386Y-88550084D01*
X153660000Y-88644093D01*
X154132614Y-88550084D01*
X154533277Y-88282370D01*
X154800991Y-87881707D01*
X154895000Y-87409093D01*
X154895000Y-86850907D01*
X154800991Y-86378293D01*
X154533277Y-85977630D01*
X154357231Y-85860000D01*
X154533277Y-85742370D01*
X154800991Y-85341707D01*
X154895000Y-84869093D01*
X154895000Y-84310907D01*
X154965000Y-84310907D01*
X154965000Y-84869093D01*
X155059009Y-85341707D01*
X155326723Y-85742370D01*
X155502769Y-85860000D01*
X155326723Y-85977630D01*
X155059009Y-86378293D01*
X154965000Y-86850907D01*
X154965000Y-87409093D01*
X155059009Y-87881707D01*
X155326723Y-88282370D01*
X155727386Y-88550084D01*
X156200000Y-88644093D01*
X156672614Y-88550084D01*
X157073277Y-88282370D01*
X157340991Y-87881707D01*
X157435000Y-87409093D01*
X157435000Y-86850907D01*
X157340991Y-86378293D01*
X157073277Y-85977630D01*
X156897231Y-85860000D01*
X157073277Y-85742370D01*
X157340991Y-85341707D01*
X157435000Y-84869093D01*
X157435000Y-84310907D01*
X157505000Y-84310907D01*
X157505000Y-84869093D01*
X157599009Y-85341707D01*
X157866723Y-85742370D01*
X158042769Y-85860000D01*
X157866723Y-85977630D01*
X157599009Y-86378293D01*
X157505000Y-86850907D01*
X157505000Y-87409093D01*
X157599009Y-87881707D01*
X157866723Y-88282370D01*
X158267386Y-88550084D01*
X158740000Y-88644093D01*
X159212614Y-88550084D01*
X159613277Y-88282370D01*
X159880991Y-87881707D01*
X159975000Y-87409093D01*
X159975000Y-86850907D01*
X159880991Y-86378293D01*
X159613277Y-85977630D01*
X159437231Y-85860000D01*
X159613277Y-85742370D01*
X159880991Y-85341707D01*
X159975000Y-84869093D01*
X159975000Y-84310907D01*
X159880991Y-83838293D01*
X159613277Y-83437630D01*
X159212614Y-83169916D01*
X158740000Y-83075907D01*
X158267386Y-83169916D01*
X157866723Y-83437630D01*
X157599009Y-83838293D01*
X157505000Y-84310907D01*
X157435000Y-84310907D01*
X157340991Y-83838293D01*
X157073277Y-83437630D01*
X156672614Y-83169916D01*
X156200000Y-83075907D01*
X155727386Y-83169916D01*
X155326723Y-83437630D01*
X155059009Y-83838293D01*
X154965000Y-84310907D01*
X154895000Y-84310907D01*
X154800991Y-83838293D01*
X154533277Y-83437630D01*
X154132614Y-83169916D01*
X153660000Y-83075907D01*
X153187386Y-83169916D01*
X152786723Y-83437630D01*
X152519009Y-83838293D01*
X152425000Y-84310907D01*
X152355000Y-84310907D01*
X152260991Y-83838293D01*
X151993277Y-83437630D01*
X151592614Y-83169916D01*
X151120000Y-83075907D01*
X150647386Y-83169916D01*
X150246723Y-83437630D01*
X149979009Y-83838293D01*
X149885000Y-84310907D01*
X149815000Y-84310907D01*
X149720991Y-83838293D01*
X149453277Y-83437630D01*
X149052614Y-83169916D01*
X148580000Y-83075907D01*
X148107386Y-83169916D01*
X147706723Y-83437630D01*
X147439009Y-83838293D01*
X147345000Y-84310907D01*
X147275000Y-84310907D01*
X147180991Y-83838293D01*
X146913277Y-83437630D01*
X146512614Y-83169916D01*
X146040000Y-83075907D01*
X145567386Y-83169916D01*
X145166723Y-83437630D01*
X144899009Y-83838293D01*
X144805000Y-84310907D01*
X144735000Y-84310907D01*
X144640991Y-83838293D01*
X144373277Y-83437630D01*
X143972614Y-83169916D01*
X143500000Y-83075907D01*
X143027386Y-83169916D01*
X142626723Y-83437630D01*
X142359009Y-83838293D01*
X142265000Y-84310907D01*
X142195000Y-84310907D01*
X142100991Y-83838293D01*
X141833277Y-83437630D01*
X141432614Y-83169916D01*
X140960000Y-83075907D01*
X140487386Y-83169916D01*
X140086723Y-83437630D01*
X139819009Y-83838293D01*
X139725000Y-84310907D01*
X139655000Y-84310907D01*
X139560991Y-83838293D01*
X139293277Y-83437630D01*
X138892614Y-83169916D01*
X138420000Y-83075907D01*
X137947386Y-83169916D01*
X137546723Y-83437630D01*
X137279009Y-83838293D01*
X137185000Y-84310907D01*
X137115000Y-84310907D01*
X137020991Y-83838293D01*
X136753277Y-83437630D01*
X136352614Y-83169916D01*
X135880000Y-83075907D01*
X135407386Y-83169916D01*
X135006723Y-83437630D01*
X134739009Y-83838293D01*
X134645000Y-84310907D01*
X134575000Y-84310907D01*
X134480991Y-83838293D01*
X134213277Y-83437630D01*
X133812614Y-83169916D01*
X133340000Y-83075907D01*
X132867386Y-83169916D01*
X132466723Y-83437630D01*
X132199009Y-83838293D01*
X132105000Y-84310907D01*
X132105000Y-84869093D01*
X132199009Y-85341707D01*
X132466723Y-85742370D01*
X132642769Y-85860000D01*
X132466723Y-85977630D01*
X132199009Y-86378293D01*
X132173188Y-86508105D01*
X132020276Y-86610277D01*
X131992634Y-86637919D01*
X131940991Y-86378293D01*
X131673277Y-85977630D01*
X131497231Y-85860000D01*
X131673277Y-85742370D01*
X131940991Y-85341707D01*
X132035000Y-84869093D01*
X132035000Y-84310907D01*
X131940991Y-83838293D01*
X131673277Y-83437630D01*
X131272614Y-83169916D01*
X130800000Y-83075907D01*
X130327386Y-83169916D01*
X130164919Y-83278473D01*
X129323123Y-82436677D01*
X129084672Y-82277349D01*
X128803400Y-82221400D01*
X120040400Y-82221400D01*
X119759128Y-82277349D01*
X119520677Y-82436676D01*
X118885677Y-83071677D01*
X118743667Y-83284210D01*
X118572614Y-83169916D01*
X118100000Y-83075907D01*
X117627386Y-83169916D01*
X117226723Y-83437630D01*
X116959009Y-83838293D01*
X116865000Y-84310907D01*
X116865000Y-84869093D01*
X116959009Y-85341707D01*
X117226723Y-85742370D01*
X117402769Y-85860000D01*
X117226723Y-85977630D01*
X116959009Y-86378293D01*
X116865000Y-86850907D01*
X116865000Y-87409093D01*
X116959009Y-87881707D01*
X117226723Y-88282370D01*
X117627386Y-88550084D01*
X117984445Y-88621108D01*
X114503554Y-92102000D01*
X107238800Y-92102000D01*
X106957528Y-92157949D01*
X106719077Y-92317276D01*
X106223154Y-92813200D01*
X88407400Y-92813200D01*
X88126128Y-92869149D01*
X87887677Y-93028476D01*
X86080977Y-94835177D01*
X86003690Y-94782369D01*
X85751800Y-94731360D01*
X84751800Y-94731360D01*
X84516483Y-94775638D01*
X84300359Y-94914710D01*
X84253831Y-94982806D01*
X84111498Y-94840473D01*
X83878109Y-94743800D01*
X83537550Y-94743800D01*
X83378800Y-94902550D01*
X83378800Y-95876800D01*
X83398800Y-95876800D01*
X83398800Y-96130800D01*
X83378800Y-96130800D01*
X83378800Y-96150800D01*
X83124800Y-96150800D01*
X83124800Y-96130800D01*
X82275550Y-96130800D01*
X82116800Y-96289550D01*
X82116800Y-96755110D01*
X82213473Y-96988499D01*
X82317060Y-97092085D01*
X82317060Y-98381000D01*
X82361338Y-98616317D01*
X82500410Y-98832441D01*
X82579500Y-98886481D01*
X82579500Y-99413113D01*
X82534297Y-99431790D01*
X82140971Y-99824430D01*
X81927843Y-100337700D01*
X81927358Y-100893461D01*
X80720000Y-100893461D01*
X80720000Y-95252490D01*
X82116800Y-95252490D01*
X82116800Y-95718050D01*
X82275550Y-95876800D01*
X83124800Y-95876800D01*
X83124800Y-94902550D01*
X82966050Y-94743800D01*
X82625491Y-94743800D01*
X82392102Y-94840473D01*
X82213473Y-95019101D01*
X82116800Y-95252490D01*
X80720000Y-95252490D01*
X80720000Y-87452696D01*
X111774744Y-87452696D01*
X111897353Y-87923701D01*
X112190875Y-88311933D01*
X112610624Y-88558286D01*
X112702391Y-88573462D01*
X112893000Y-88448731D01*
X112893000Y-87257000D01*
X113147000Y-87257000D01*
X113147000Y-88448731D01*
X113337609Y-88573462D01*
X113429376Y-88558286D01*
X113849125Y-88311933D01*
X114142647Y-87923701D01*
X114265256Y-87452696D01*
X114102547Y-87257000D01*
X113147000Y-87257000D01*
X112893000Y-87257000D01*
X111937453Y-87257000D01*
X111774744Y-87452696D01*
X80720000Y-87452696D01*
X80720000Y-84912696D01*
X81294744Y-84912696D01*
X81417353Y-85383701D01*
X81710875Y-85771933D01*
X82130624Y-86018286D01*
X82222391Y-86033462D01*
X82413000Y-85908731D01*
X82413000Y-84717000D01*
X82667000Y-84717000D01*
X82667000Y-85908731D01*
X82857609Y-86033462D01*
X82949376Y-86018286D01*
X83369125Y-85771933D01*
X83662647Y-85383701D01*
X83785256Y-84912696D01*
X83834744Y-84912696D01*
X83957353Y-85383701D01*
X84250875Y-85771933D01*
X84670624Y-86018286D01*
X84762391Y-86033462D01*
X84953000Y-85908731D01*
X84953000Y-84717000D01*
X85207000Y-84717000D01*
X85207000Y-85908731D01*
X85397609Y-86033462D01*
X85489376Y-86018286D01*
X85909125Y-85771933D01*
X86202647Y-85383701D01*
X86325256Y-84912696D01*
X111774744Y-84912696D01*
X111897353Y-85383701D01*
X112190875Y-85771933D01*
X112340928Y-85860000D01*
X112190875Y-85948067D01*
X111897353Y-86336299D01*
X111774744Y-86807304D01*
X111937453Y-87003000D01*
X112893000Y-87003000D01*
X112893000Y-84717000D01*
X113147000Y-84717000D01*
X113147000Y-87003000D01*
X114102547Y-87003000D01*
X114265256Y-86807304D01*
X114142647Y-86336299D01*
X113849125Y-85948067D01*
X113699072Y-85860000D01*
X113849125Y-85771933D01*
X114142647Y-85383701D01*
X114265256Y-84912696D01*
X114102547Y-84717000D01*
X113147000Y-84717000D01*
X112893000Y-84717000D01*
X111937453Y-84717000D01*
X111774744Y-84912696D01*
X86325256Y-84912696D01*
X86162547Y-84717000D01*
X85207000Y-84717000D01*
X84953000Y-84717000D01*
X83997453Y-84717000D01*
X83834744Y-84912696D01*
X83785256Y-84912696D01*
X83622547Y-84717000D01*
X82667000Y-84717000D01*
X82413000Y-84717000D01*
X81457453Y-84717000D01*
X81294744Y-84912696D01*
X80720000Y-84912696D01*
X80720000Y-84267304D01*
X81294744Y-84267304D01*
X81457453Y-84463000D01*
X82413000Y-84463000D01*
X82413000Y-83271269D01*
X82667000Y-83271269D01*
X82667000Y-84463000D01*
X83622547Y-84463000D01*
X83785256Y-84267304D01*
X83834744Y-84267304D01*
X83997453Y-84463000D01*
X84953000Y-84463000D01*
X84953000Y-83271269D01*
X85207000Y-83271269D01*
X85207000Y-84463000D01*
X86162547Y-84463000D01*
X86325256Y-84267304D01*
X111774744Y-84267304D01*
X111937453Y-84463000D01*
X112893000Y-84463000D01*
X112893000Y-83271269D01*
X113147000Y-83271269D01*
X113147000Y-84463000D01*
X114102547Y-84463000D01*
X114229002Y-84310907D01*
X114325000Y-84310907D01*
X114325000Y-84869093D01*
X114419009Y-85341707D01*
X114686723Y-85742370D01*
X114862769Y-85860000D01*
X114686723Y-85977630D01*
X114419009Y-86378293D01*
X114325000Y-86850907D01*
X114325000Y-87409093D01*
X114419009Y-87881707D01*
X114686723Y-88282370D01*
X115087386Y-88550084D01*
X115560000Y-88644093D01*
X116032614Y-88550084D01*
X116433277Y-88282370D01*
X116700991Y-87881707D01*
X116795000Y-87409093D01*
X116795000Y-86850907D01*
X116700991Y-86378293D01*
X116433277Y-85977630D01*
X116257231Y-85860000D01*
X116433277Y-85742370D01*
X116700991Y-85341707D01*
X116795000Y-84869093D01*
X116795000Y-84310907D01*
X116700991Y-83838293D01*
X116433277Y-83437630D01*
X116032614Y-83169916D01*
X115560000Y-83075907D01*
X115087386Y-83169916D01*
X114686723Y-83437630D01*
X114419009Y-83838293D01*
X114325000Y-84310907D01*
X114229002Y-84310907D01*
X114265256Y-84267304D01*
X114142647Y-83796299D01*
X113849125Y-83408067D01*
X113429376Y-83161714D01*
X113337609Y-83146538D01*
X113147000Y-83271269D01*
X112893000Y-83271269D01*
X112702391Y-83146538D01*
X112610624Y-83161714D01*
X112190875Y-83408067D01*
X111897353Y-83796299D01*
X111774744Y-84267304D01*
X86325256Y-84267304D01*
X86202647Y-83796299D01*
X85909125Y-83408067D01*
X85489376Y-83161714D01*
X85397609Y-83146538D01*
X85207000Y-83271269D01*
X84953000Y-83271269D01*
X84762391Y-83146538D01*
X84670624Y-83161714D01*
X84250875Y-83408067D01*
X83957353Y-83796299D01*
X83834744Y-84267304D01*
X83785256Y-84267304D01*
X83662647Y-83796299D01*
X83369125Y-83408067D01*
X82949376Y-83161714D01*
X82857609Y-83146538D01*
X82667000Y-83271269D01*
X82413000Y-83271269D01*
X82222391Y-83146538D01*
X82130624Y-83161714D01*
X81710875Y-83408067D01*
X81417353Y-83796299D01*
X81294744Y-84267304D01*
X80720000Y-84267304D01*
X80720000Y-81574092D01*
X82844091Y-79450000D01*
X173695908Y-79450000D01*
X175820000Y-81574091D01*
M02*
