G04 #@! TF.FileFunction,Soldermask,Top*
%FSLAX46Y46*%
G04 Gerber Fmt 4.6, Leading zero omitted, Abs format (unit mm)*
G04 Created by KiCad (PCBNEW 4.0.5-e0-6337~52~ubuntu16.10.1) date Sun Jan 15 19:05:05 2017*
%MOMM*%
%LPD*%
G01*
G04 APERTURE LIST*
%ADD10C,0.100000*%
%ADD11C,0.010000*%
%ADD12R,1.160000X1.410000*%
%ADD13R,2.910000X1.160000*%
%ADD14O,1.360000X1.860000*%
%ADD15R,1.358880X1.358880*%
%ADD16R,1.460000X0.860000*%
%ADD17R,0.860000X1.460000*%
%ADD18C,1.684000*%
%ADD19C,3.160000*%
%ADD20R,2.160000X0.480000*%
G04 APERTURE END LIST*
D10*
D11*
G36*
X97577999Y-84655577D02*
X97610373Y-84715281D01*
X97616957Y-84777953D01*
X97618778Y-84885493D01*
X97616401Y-85026577D01*
X97610386Y-85189882D01*
X97601295Y-85364082D01*
X97589691Y-85537853D01*
X97576137Y-85699871D01*
X97561192Y-85838813D01*
X97551008Y-85911334D01*
X97529846Y-86063605D01*
X97511103Y-86233918D01*
X97498778Y-86385864D01*
X97498633Y-86388317D01*
X97484753Y-86625412D01*
X97555728Y-86501206D01*
X97605901Y-86410298D01*
X97667201Y-86294910D01*
X97721982Y-86188600D01*
X97772525Y-86094391D01*
X97817536Y-86020511D01*
X97848146Y-85981377D01*
X97850468Y-85979677D01*
X97892270Y-85978187D01*
X97924671Y-86015898D01*
X97938439Y-86075568D01*
X97929747Y-86127758D01*
X97912571Y-86197549D01*
X97904663Y-86279866D01*
X97906058Y-86356132D01*
X97916789Y-86407767D01*
X97929221Y-86419334D01*
X97941112Y-86414528D01*
X97955170Y-86396222D01*
X97973595Y-86358581D01*
X97998588Y-86295770D01*
X98032349Y-86201953D01*
X98077078Y-86071297D01*
X98126448Y-85923494D01*
X98305266Y-85923494D01*
X98306722Y-85996471D01*
X98311301Y-86016820D01*
X98331759Y-86047782D01*
X98350900Y-86029287D01*
X98369109Y-85959701D01*
X98386772Y-85837390D01*
X98404274Y-85660718D01*
X98409103Y-85602482D01*
X98419551Y-85462979D01*
X98426971Y-85345210D01*
X98430800Y-85259797D01*
X98430473Y-85217362D01*
X98429683Y-85214721D01*
X98418919Y-85233583D01*
X98401625Y-85292798D01*
X98381135Y-85377142D01*
X98360783Y-85471391D01*
X98343904Y-85560322D01*
X98333832Y-85628712D01*
X98332746Y-85657334D01*
X98331539Y-85709271D01*
X98321906Y-85791810D01*
X98315296Y-85833376D01*
X98305266Y-85923494D01*
X98126448Y-85923494D01*
X98134976Y-85897966D01*
X98199564Y-85702476D01*
X98253123Y-85542539D01*
X98303540Y-85396783D01*
X98347101Y-85275584D01*
X98380093Y-85189320D01*
X98396537Y-85152143D01*
X98424746Y-85078467D01*
X98448102Y-84980950D01*
X98453798Y-84944722D01*
X98474488Y-84856877D01*
X98504246Y-84813765D01*
X98537132Y-84819109D01*
X98566421Y-84874167D01*
X98573186Y-84920550D01*
X98580384Y-85014020D01*
X98587527Y-85145227D01*
X98594131Y-85304819D01*
X98599707Y-85483447D01*
X98601161Y-85541639D01*
X98615341Y-86145612D01*
X98697697Y-85993195D01*
X98766196Y-85873586D01*
X98826272Y-85782186D01*
X98872589Y-85726327D01*
X98899807Y-85713342D01*
X98900832Y-85714200D01*
X98897556Y-85745064D01*
X98875754Y-85812444D01*
X98842023Y-85897222D01*
X98795342Y-86041772D01*
X98764366Y-86209507D01*
X98751336Y-86379024D01*
X98758491Y-86528920D01*
X98769779Y-86587716D01*
X98780619Y-86624592D01*
X98791932Y-86640763D01*
X98807509Y-86630330D01*
X98831141Y-86587397D01*
X98866620Y-86506065D01*
X98917737Y-86380439D01*
X98942153Y-86319605D01*
X98995707Y-86181917D01*
X99040489Y-86058930D01*
X99072559Y-85962069D01*
X99087975Y-85902756D01*
X99088772Y-85894541D01*
X99108748Y-85830846D01*
X99143757Y-85785559D01*
X99182236Y-85755975D01*
X99212658Y-85759152D01*
X99254546Y-85799907D01*
X99269039Y-85816463D01*
X99321158Y-85900179D01*
X99355966Y-85998326D01*
X99358238Y-86010111D01*
X99374709Y-86090464D01*
X99391796Y-86148587D01*
X99395456Y-86156672D01*
X99418546Y-86150424D01*
X99466240Y-86101786D01*
X99533475Y-86016387D01*
X99579547Y-85952060D01*
X99665516Y-85833856D01*
X99732474Y-85758434D01*
X99789739Y-85719758D01*
X99846628Y-85711789D01*
X99912459Y-85728490D01*
X99920116Y-85731370D01*
X99964544Y-85770239D01*
X100012633Y-85843372D01*
X100053616Y-85930463D01*
X100076726Y-86011204D01*
X100078535Y-86030154D01*
X100088757Y-86045405D01*
X100116488Y-86007821D01*
X100161401Y-85918117D01*
X100223167Y-85777006D01*
X100301455Y-85585206D01*
X100395936Y-85343430D01*
X100402161Y-85327226D01*
X100458816Y-85181974D01*
X100510421Y-85054066D01*
X100552838Y-84953425D01*
X100581931Y-84889976D01*
X100591036Y-84874167D01*
X100632593Y-84849859D01*
X100691039Y-84839266D01*
X100740935Y-84844546D01*
X100757417Y-84860056D01*
X100762880Y-84902072D01*
X100768355Y-84951778D01*
X100782087Y-85003896D01*
X100814286Y-85095072D01*
X100860279Y-85212879D01*
X100915397Y-85344891D01*
X100920790Y-85357376D01*
X101008355Y-85570618D01*
X101080601Y-85769026D01*
X101134669Y-85943507D01*
X101167703Y-86084969D01*
X101177111Y-86173164D01*
X101179249Y-86206994D01*
X101190467Y-86219032D01*
X101217970Y-86205022D01*
X101268963Y-86160709D01*
X101350650Y-86081839D01*
X101379079Y-86053895D01*
X101480248Y-85957600D01*
X101562812Y-85891297D01*
X101645240Y-85844488D01*
X101746000Y-85806672D01*
X101882667Y-85767590D01*
X101935505Y-85760384D01*
X102039949Y-85752526D01*
X102191166Y-85744148D01*
X102384321Y-85735379D01*
X102614582Y-85726351D01*
X102877116Y-85717194D01*
X103167088Y-85708038D01*
X103479666Y-85699015D01*
X103810017Y-85690255D01*
X104153306Y-85681889D01*
X104504701Y-85674048D01*
X104859368Y-85666862D01*
X105212474Y-85660461D01*
X105559186Y-85654977D01*
X105894669Y-85650541D01*
X106214092Y-85647282D01*
X106377048Y-85646066D01*
X106528245Y-85644035D01*
X106657377Y-85640273D01*
X106754926Y-85635219D01*
X106811370Y-85629315D01*
X106821548Y-85625477D01*
X106846197Y-85620470D01*
X106909013Y-85627459D01*
X106954431Y-85636071D01*
X107043298Y-85650274D01*
X107088503Y-85644217D01*
X107097953Y-85632474D01*
X107125898Y-85615270D01*
X107141466Y-85620994D01*
X107179286Y-85628118D01*
X107263699Y-85635137D01*
X107384853Y-85641514D01*
X107532899Y-85646713D01*
X107668222Y-85649732D01*
X107830604Y-85652468D01*
X107973819Y-85654905D01*
X108088136Y-85656877D01*
X108163822Y-85658215D01*
X108190333Y-85658724D01*
X108226689Y-85658690D01*
X108309590Y-85658147D01*
X108429142Y-85657175D01*
X108575448Y-85655852D01*
X108698333Y-85654663D01*
X108960030Y-85653357D01*
X109172146Y-85655093D01*
X109333165Y-85659816D01*
X109441572Y-85667469D01*
X109495852Y-85677997D01*
X109502234Y-85684102D01*
X109475113Y-85727530D01*
X109405355Y-85767755D01*
X109306748Y-85800087D01*
X109193081Y-85819835D01*
X109093444Y-85823163D01*
X109036003Y-85827333D01*
X108945724Y-85840589D01*
X108867667Y-85855046D01*
X108828059Y-85862686D01*
X108787309Y-85869286D01*
X108741292Y-85874904D01*
X108685883Y-85879600D01*
X108616957Y-85883432D01*
X108530388Y-85886458D01*
X108422053Y-85888737D01*
X108287825Y-85890328D01*
X108123581Y-85891288D01*
X107925195Y-85891676D01*
X107688542Y-85891551D01*
X107409497Y-85890972D01*
X107083935Y-85889996D01*
X106707732Y-85888683D01*
X106539333Y-85888066D01*
X106224753Y-85887514D01*
X105904739Y-85888081D01*
X105588052Y-85889677D01*
X105283451Y-85892213D01*
X104999695Y-85895601D01*
X104745544Y-85899750D01*
X104529756Y-85904572D01*
X104361090Y-85909977D01*
X104352111Y-85910341D01*
X104105184Y-85919232D01*
X103824330Y-85927269D01*
X103531993Y-85933942D01*
X103250617Y-85938739D01*
X103002643Y-85941150D01*
X102997444Y-85941173D01*
X102782553Y-85942926D01*
X102563714Y-85946146D01*
X102354764Y-85950527D01*
X102169536Y-85955761D01*
X102021866Y-85961542D01*
X101980023Y-85963729D01*
X101819031Y-85974674D01*
X101703512Y-85990165D01*
X101622523Y-86016544D01*
X101565120Y-86060151D01*
X101520360Y-86127326D01*
X101477301Y-86224410D01*
X101461591Y-86264111D01*
X101411227Y-86380118D01*
X101352621Y-86497307D01*
X101316570Y-86560445D01*
X101259052Y-86662049D01*
X101206695Y-86768735D01*
X101190986Y-86805668D01*
X101134104Y-86898949D01*
X101063548Y-86945667D01*
X100990799Y-86946020D01*
X100927339Y-86900207D01*
X100884651Y-86808428D01*
X100882748Y-86800334D01*
X100876660Y-86753831D01*
X100867971Y-86661948D01*
X100857600Y-86535641D01*
X100846468Y-86385864D01*
X100839593Y-86286122D01*
X100823558Y-86095097D01*
X100800894Y-85889901D01*
X100774307Y-85692093D01*
X100746502Y-85523233D01*
X100739048Y-85484963D01*
X100712317Y-85352499D01*
X100690255Y-85240862D01*
X100675046Y-85161268D01*
X100668873Y-85124935D01*
X100668835Y-85124286D01*
X100659784Y-85126127D01*
X100636587Y-85169307D01*
X100604088Y-85242010D01*
X100567132Y-85332420D01*
X100530564Y-85428724D01*
X100499227Y-85519105D01*
X100479205Y-85586778D01*
X100453249Y-85680842D01*
X100429468Y-85753450D01*
X100415589Y-85784334D01*
X100399918Y-85822085D01*
X100374001Y-85901504D01*
X100341898Y-86009657D01*
X100318127Y-86094778D01*
X100264366Y-86288962D01*
X100221308Y-86435942D01*
X100186246Y-86543341D01*
X100156468Y-86618783D01*
X100129267Y-86669890D01*
X100101933Y-86704286D01*
X100101270Y-86704952D01*
X100061476Y-86753181D01*
X100048222Y-86782767D01*
X100028896Y-86819416D01*
X100005007Y-86843399D01*
X99965584Y-86860324D01*
X99932663Y-86836880D01*
X99904762Y-86769214D01*
X99880400Y-86653473D01*
X99858097Y-86485803D01*
X99854365Y-86451493D01*
X99830400Y-86254709D01*
X99805615Y-86105527D01*
X99780672Y-86005486D01*
X99756232Y-85956126D01*
X99732956Y-85958984D01*
X99711505Y-86015600D01*
X99698001Y-86087569D01*
X99647827Y-86276291D01*
X99561085Y-86438680D01*
X99444356Y-86563159D01*
X99415889Y-86583913D01*
X99340567Y-86633163D01*
X99295626Y-86653481D01*
X99264911Y-86647882D01*
X99232267Y-86619378D01*
X99231242Y-86618353D01*
X99194301Y-86556802D01*
X99165954Y-86465812D01*
X99159463Y-86428423D01*
X99147511Y-86339051D01*
X99137861Y-86269140D01*
X99135077Y-86250000D01*
X99125895Y-86253895D01*
X99107460Y-86302687D01*
X99083431Y-86386324D01*
X99078561Y-86405222D01*
X99020784Y-86632948D01*
X98974830Y-86812187D01*
X98938611Y-86949157D01*
X98910042Y-87050075D01*
X98887035Y-87121157D01*
X98867505Y-87168622D01*
X98849363Y-87198686D01*
X98830524Y-87217566D01*
X98808901Y-87231480D01*
X98799458Y-87236793D01*
X98717192Y-87260215D01*
X98651785Y-87236609D01*
X98615698Y-87170867D01*
X98614493Y-87164197D01*
X98604414Y-87107133D01*
X98587744Y-87018409D01*
X98575578Y-86955556D01*
X98557526Y-86871037D01*
X98544104Y-86835506D01*
X98531031Y-86842213D01*
X98519982Y-86867924D01*
X98506564Y-86940884D01*
X98511409Y-86987868D01*
X98513965Y-87023073D01*
X98482664Y-87037802D01*
X98428673Y-87040222D01*
X98362105Y-87034624D01*
X98326396Y-87007042D01*
X98301863Y-86941296D01*
X98299928Y-86934389D01*
X98274895Y-86786864D01*
X98275809Y-86611076D01*
X98302897Y-86397469D01*
X98314220Y-86334745D01*
X98332633Y-86226898D01*
X98343347Y-86141717D01*
X98344751Y-86093126D01*
X98342812Y-86087405D01*
X98322869Y-86097907D01*
X98295871Y-86148828D01*
X98267330Y-86225563D01*
X98242760Y-86313503D01*
X98228629Y-86389922D01*
X98215816Y-86464104D01*
X98192178Y-86576816D01*
X98161233Y-86711996D01*
X98130733Y-86836854D01*
X98093809Y-86989807D01*
X98058958Y-87145477D01*
X98030678Y-87283170D01*
X98016247Y-87363687D01*
X97991141Y-87493951D01*
X97962750Y-87576456D01*
X97926565Y-87619874D01*
X97878078Y-87632878D01*
X97876282Y-87632889D01*
X97831234Y-87605889D01*
X97792679Y-87529314D01*
X97762000Y-87409801D01*
X97740579Y-87253989D01*
X97729800Y-87068514D01*
X97729280Y-86927334D01*
X97735246Y-86574556D01*
X97667907Y-86701556D01*
X97621022Y-86807440D01*
X97579371Y-86930222D01*
X97565376Y-86983778D01*
X97535101Y-87090963D01*
X97497153Y-87191194D01*
X97476869Y-87232336D01*
X97441205Y-87310857D01*
X97423983Y-87380394D01*
X97423691Y-87387558D01*
X97414349Y-87443426D01*
X97389569Y-87533634D01*
X97354440Y-87639941D01*
X97349356Y-87654056D01*
X97305082Y-87765314D01*
X97268729Y-87830083D01*
X97235076Y-87856765D01*
X97222220Y-87858667D01*
X97193483Y-87851795D01*
X97177512Y-87822973D01*
X97170743Y-87759893D01*
X97169556Y-87676888D01*
X97164684Y-87573014D01*
X97151563Y-87500627D01*
X97137189Y-87475105D01*
X97123853Y-87446975D01*
X97116920Y-87379591D01*
X97116214Y-87267695D01*
X97121557Y-87106031D01*
X97123451Y-87064850D01*
X97130620Y-86947355D01*
X97142099Y-86798175D01*
X97157008Y-86625712D01*
X97174466Y-86438368D01*
X97193589Y-86244545D01*
X97213498Y-86052644D01*
X97233309Y-85871067D01*
X97252142Y-85708216D01*
X97269114Y-85572493D01*
X97283345Y-85472299D01*
X97293952Y-85416036D01*
X97297397Y-85407196D01*
X97325571Y-85412378D01*
X97349630Y-85428759D01*
X97376696Y-85441079D01*
X97394603Y-85415508D01*
X97409559Y-85346212D01*
X97419156Y-85271644D01*
X97419597Y-85224557D01*
X97417347Y-85218384D01*
X97397845Y-85234692D01*
X97356425Y-85288468D01*
X97300971Y-85369244D01*
X97283099Y-85396675D01*
X97206502Y-85514870D01*
X97124689Y-85639975D01*
X97057298Y-85742000D01*
X96949230Y-85910331D01*
X96871620Y-86046937D01*
X96818696Y-86163374D01*
X96784682Y-86271199D01*
X96777732Y-86301556D01*
X96736834Y-86453816D01*
X96688559Y-86553986D01*
X96630355Y-86606213D01*
X96583944Y-86616457D01*
X96558360Y-86591563D01*
X96548667Y-86526901D01*
X96548667Y-86436912D01*
X96491123Y-86498679D01*
X96437597Y-86543295D01*
X96395031Y-86560445D01*
X96371378Y-86575716D01*
X96367069Y-86628609D01*
X96372203Y-86677654D01*
X96378148Y-86751525D01*
X96368284Y-86777969D01*
X96354263Y-86774059D01*
X96300755Y-86719622D01*
X96240277Y-86624331D01*
X96180084Y-86501955D01*
X96127434Y-86366264D01*
X96109725Y-86310023D01*
X96049031Y-86101935D01*
X96030150Y-86225357D01*
X96020739Y-86297861D01*
X96007783Y-86412737D01*
X95992764Y-86556136D01*
X95977162Y-86714208D01*
X95971681Y-86772111D01*
X95956519Y-86924173D01*
X95941330Y-87058871D01*
X95927517Y-87164935D01*
X95916485Y-87231094D01*
X95912805Y-87244834D01*
X95872777Y-87279913D01*
X95804040Y-87294284D01*
X95730836Y-87286787D01*
X95677408Y-87256263D01*
X95677270Y-87256097D01*
X95655398Y-87206710D01*
X95635961Y-87124875D01*
X95629240Y-87079708D01*
X95614221Y-86985687D01*
X95595187Y-86907739D01*
X95586798Y-86885000D01*
X95576400Y-86838031D01*
X95564996Y-86745963D01*
X95553677Y-86620105D01*
X95543534Y-86471762D01*
X95539166Y-86391111D01*
X95517586Y-85953667D01*
X95465383Y-86052445D01*
X95407590Y-86140876D01*
X95338361Y-86221098D01*
X95334076Y-86225175D01*
X95286065Y-86290733D01*
X95234900Y-86392396D01*
X95188109Y-86510847D01*
X95153216Y-86626765D01*
X95137749Y-86720831D01*
X95137556Y-86729624D01*
X95120514Y-86787845D01*
X95085509Y-86844244D01*
X95011042Y-86899106D01*
X94923585Y-86907464D01*
X94833248Y-86874316D01*
X94750140Y-86804660D01*
X94684372Y-86703492D01*
X94658366Y-86633102D01*
X94624748Y-86513030D01*
X94408430Y-86480106D01*
X94285925Y-86463767D01*
X94169013Y-86452033D01*
X94082137Y-86447337D01*
X94079222Y-86447331D01*
X93995755Y-86442666D01*
X93880105Y-86430223D01*
X93755577Y-86412563D01*
X93740556Y-86410118D01*
X93688784Y-86403458D01*
X93617020Y-86397629D01*
X93522073Y-86392597D01*
X93400753Y-86388323D01*
X93249871Y-86384772D01*
X93066238Y-86381906D01*
X92846664Y-86379690D01*
X92587959Y-86378086D01*
X92286934Y-86377058D01*
X91940399Y-86376570D01*
X91545165Y-86376584D01*
X91098042Y-86377064D01*
X90890111Y-86377402D01*
X90507360Y-86378314D01*
X90138834Y-86379645D01*
X89788696Y-86381356D01*
X89461104Y-86383406D01*
X89160220Y-86385753D01*
X88890203Y-86388358D01*
X88655213Y-86391179D01*
X88459412Y-86394175D01*
X88306959Y-86397307D01*
X88202015Y-86400532D01*
X88148740Y-86403811D01*
X88145500Y-86404298D01*
X88025556Y-86426548D01*
X88025556Y-86145597D01*
X88328944Y-86129260D01*
X88435983Y-86125486D01*
X88589150Y-86122860D01*
X88778141Y-86121418D01*
X88992651Y-86121195D01*
X89222376Y-86122227D01*
X89457011Y-86124548D01*
X89507222Y-86125221D01*
X89776642Y-86128514D01*
X90075000Y-86131321D01*
X90384500Y-86133528D01*
X90687343Y-86135025D01*
X90965733Y-86135700D01*
X91158222Y-86135575D01*
X91371985Y-86135281D01*
X91576052Y-86135451D01*
X91760967Y-86136041D01*
X91917272Y-86137010D01*
X92035513Y-86138315D01*
X92103667Y-86139816D01*
X92205666Y-86142287D01*
X92342736Y-86143917D01*
X92493507Y-86144508D01*
X92583444Y-86144271D01*
X92747710Y-86145379D01*
X92940878Y-86149992D01*
X93154264Y-86157592D01*
X93379187Y-86167659D01*
X93606964Y-86179672D01*
X93828912Y-86193113D01*
X94036349Y-86207461D01*
X94220592Y-86222196D01*
X94372958Y-86236799D01*
X94484765Y-86250750D01*
X94540406Y-86261424D01*
X94638547Y-86294021D01*
X94708204Y-86336697D01*
X94765612Y-86403530D01*
X94827008Y-86508595D01*
X94828320Y-86511056D01*
X94867850Y-86576250D01*
X94899741Y-86613513D01*
X94907158Y-86616889D01*
X94928675Y-86592856D01*
X94962306Y-86530268D01*
X94995743Y-86454611D01*
X95066981Y-86291448D01*
X95149387Y-86121700D01*
X95238181Y-85953373D01*
X95328582Y-85794472D01*
X95415811Y-85653004D01*
X95495087Y-85536974D01*
X95561631Y-85454388D01*
X95610661Y-85413251D01*
X95619195Y-85410452D01*
X95687952Y-85422632D01*
X95733447Y-85480912D01*
X95747800Y-85549807D01*
X95755633Y-85621297D01*
X95771439Y-85728115D01*
X95792189Y-85850226D01*
X95798225Y-85883111D01*
X95819208Y-86004345D01*
X95835310Y-86114189D01*
X95843791Y-86193408D01*
X95844430Y-86207667D01*
X95847449Y-86247613D01*
X95858309Y-86253186D01*
X95882462Y-86219274D01*
X95925355Y-86140768D01*
X95934702Y-86123000D01*
X95978819Y-86031809D01*
X96008155Y-85957235D01*
X96016306Y-85916350D01*
X96031852Y-85889748D01*
X96087642Y-85888128D01*
X96153214Y-85912902D01*
X96210521Y-85977796D01*
X96229994Y-86010111D01*
X96269337Y-86092806D01*
X96292038Y-86165681D01*
X96294202Y-86184835D01*
X96303485Y-86245370D01*
X96330399Y-86253934D01*
X96375491Y-86210199D01*
X96439307Y-86113838D01*
X96453696Y-86089378D01*
X96523029Y-85976533D01*
X96573537Y-85912265D01*
X96609239Y-85893535D01*
X96634156Y-85917305D01*
X96644187Y-85945457D01*
X96656176Y-85971176D01*
X96674268Y-85966785D01*
X96704060Y-85926106D01*
X96751147Y-85842955D01*
X96771751Y-85804548D01*
X96828198Y-85696334D01*
X96878067Y-85596729D01*
X96912041Y-85524428D01*
X96915950Y-85515271D01*
X96950935Y-85457219D01*
X96988017Y-85431617D01*
X96989535Y-85431556D01*
X97020623Y-85407917D01*
X97028444Y-85372519D01*
X97045414Y-85309587D01*
X97086340Y-85239828D01*
X97087405Y-85238464D01*
X97210858Y-85076567D01*
X97312181Y-84933887D01*
X97386303Y-84817922D01*
X97428150Y-84736170D01*
X97429326Y-84733056D01*
X97472754Y-84663819D01*
X97527056Y-84637527D01*
X97577999Y-84655577D01*
X97577999Y-84655577D01*
G37*
X97577999Y-84655577D02*
X97610373Y-84715281D01*
X97616957Y-84777953D01*
X97618778Y-84885493D01*
X97616401Y-85026577D01*
X97610386Y-85189882D01*
X97601295Y-85364082D01*
X97589691Y-85537853D01*
X97576137Y-85699871D01*
X97561192Y-85838813D01*
X97551008Y-85911334D01*
X97529846Y-86063605D01*
X97511103Y-86233918D01*
X97498778Y-86385864D01*
X97498633Y-86388317D01*
X97484753Y-86625412D01*
X97555728Y-86501206D01*
X97605901Y-86410298D01*
X97667201Y-86294910D01*
X97721982Y-86188600D01*
X97772525Y-86094391D01*
X97817536Y-86020511D01*
X97848146Y-85981377D01*
X97850468Y-85979677D01*
X97892270Y-85978187D01*
X97924671Y-86015898D01*
X97938439Y-86075568D01*
X97929747Y-86127758D01*
X97912571Y-86197549D01*
X97904663Y-86279866D01*
X97906058Y-86356132D01*
X97916789Y-86407767D01*
X97929221Y-86419334D01*
X97941112Y-86414528D01*
X97955170Y-86396222D01*
X97973595Y-86358581D01*
X97998588Y-86295770D01*
X98032349Y-86201953D01*
X98077078Y-86071297D01*
X98126448Y-85923494D01*
X98305266Y-85923494D01*
X98306722Y-85996471D01*
X98311301Y-86016820D01*
X98331759Y-86047782D01*
X98350900Y-86029287D01*
X98369109Y-85959701D01*
X98386772Y-85837390D01*
X98404274Y-85660718D01*
X98409103Y-85602482D01*
X98419551Y-85462979D01*
X98426971Y-85345210D01*
X98430800Y-85259797D01*
X98430473Y-85217362D01*
X98429683Y-85214721D01*
X98418919Y-85233583D01*
X98401625Y-85292798D01*
X98381135Y-85377142D01*
X98360783Y-85471391D01*
X98343904Y-85560322D01*
X98333832Y-85628712D01*
X98332746Y-85657334D01*
X98331539Y-85709271D01*
X98321906Y-85791810D01*
X98315296Y-85833376D01*
X98305266Y-85923494D01*
X98126448Y-85923494D01*
X98134976Y-85897966D01*
X98199564Y-85702476D01*
X98253123Y-85542539D01*
X98303540Y-85396783D01*
X98347101Y-85275584D01*
X98380093Y-85189320D01*
X98396537Y-85152143D01*
X98424746Y-85078467D01*
X98448102Y-84980950D01*
X98453798Y-84944722D01*
X98474488Y-84856877D01*
X98504246Y-84813765D01*
X98537132Y-84819109D01*
X98566421Y-84874167D01*
X98573186Y-84920550D01*
X98580384Y-85014020D01*
X98587527Y-85145227D01*
X98594131Y-85304819D01*
X98599707Y-85483447D01*
X98601161Y-85541639D01*
X98615341Y-86145612D01*
X98697697Y-85993195D01*
X98766196Y-85873586D01*
X98826272Y-85782186D01*
X98872589Y-85726327D01*
X98899807Y-85713342D01*
X98900832Y-85714200D01*
X98897556Y-85745064D01*
X98875754Y-85812444D01*
X98842023Y-85897222D01*
X98795342Y-86041772D01*
X98764366Y-86209507D01*
X98751336Y-86379024D01*
X98758491Y-86528920D01*
X98769779Y-86587716D01*
X98780619Y-86624592D01*
X98791932Y-86640763D01*
X98807509Y-86630330D01*
X98831141Y-86587397D01*
X98866620Y-86506065D01*
X98917737Y-86380439D01*
X98942153Y-86319605D01*
X98995707Y-86181917D01*
X99040489Y-86058930D01*
X99072559Y-85962069D01*
X99087975Y-85902756D01*
X99088772Y-85894541D01*
X99108748Y-85830846D01*
X99143757Y-85785559D01*
X99182236Y-85755975D01*
X99212658Y-85759152D01*
X99254546Y-85799907D01*
X99269039Y-85816463D01*
X99321158Y-85900179D01*
X99355966Y-85998326D01*
X99358238Y-86010111D01*
X99374709Y-86090464D01*
X99391796Y-86148587D01*
X99395456Y-86156672D01*
X99418546Y-86150424D01*
X99466240Y-86101786D01*
X99533475Y-86016387D01*
X99579547Y-85952060D01*
X99665516Y-85833856D01*
X99732474Y-85758434D01*
X99789739Y-85719758D01*
X99846628Y-85711789D01*
X99912459Y-85728490D01*
X99920116Y-85731370D01*
X99964544Y-85770239D01*
X100012633Y-85843372D01*
X100053616Y-85930463D01*
X100076726Y-86011204D01*
X100078535Y-86030154D01*
X100088757Y-86045405D01*
X100116488Y-86007821D01*
X100161401Y-85918117D01*
X100223167Y-85777006D01*
X100301455Y-85585206D01*
X100395936Y-85343430D01*
X100402161Y-85327226D01*
X100458816Y-85181974D01*
X100510421Y-85054066D01*
X100552838Y-84953425D01*
X100581931Y-84889976D01*
X100591036Y-84874167D01*
X100632593Y-84849859D01*
X100691039Y-84839266D01*
X100740935Y-84844546D01*
X100757417Y-84860056D01*
X100762880Y-84902072D01*
X100768355Y-84951778D01*
X100782087Y-85003896D01*
X100814286Y-85095072D01*
X100860279Y-85212879D01*
X100915397Y-85344891D01*
X100920790Y-85357376D01*
X101008355Y-85570618D01*
X101080601Y-85769026D01*
X101134669Y-85943507D01*
X101167703Y-86084969D01*
X101177111Y-86173164D01*
X101179249Y-86206994D01*
X101190467Y-86219032D01*
X101217970Y-86205022D01*
X101268963Y-86160709D01*
X101350650Y-86081839D01*
X101379079Y-86053895D01*
X101480248Y-85957600D01*
X101562812Y-85891297D01*
X101645240Y-85844488D01*
X101746000Y-85806672D01*
X101882667Y-85767590D01*
X101935505Y-85760384D01*
X102039949Y-85752526D01*
X102191166Y-85744148D01*
X102384321Y-85735379D01*
X102614582Y-85726351D01*
X102877116Y-85717194D01*
X103167088Y-85708038D01*
X103479666Y-85699015D01*
X103810017Y-85690255D01*
X104153306Y-85681889D01*
X104504701Y-85674048D01*
X104859368Y-85666862D01*
X105212474Y-85660461D01*
X105559186Y-85654977D01*
X105894669Y-85650541D01*
X106214092Y-85647282D01*
X106377048Y-85646066D01*
X106528245Y-85644035D01*
X106657377Y-85640273D01*
X106754926Y-85635219D01*
X106811370Y-85629315D01*
X106821548Y-85625477D01*
X106846197Y-85620470D01*
X106909013Y-85627459D01*
X106954431Y-85636071D01*
X107043298Y-85650274D01*
X107088503Y-85644217D01*
X107097953Y-85632474D01*
X107125898Y-85615270D01*
X107141466Y-85620994D01*
X107179286Y-85628118D01*
X107263699Y-85635137D01*
X107384853Y-85641514D01*
X107532899Y-85646713D01*
X107668222Y-85649732D01*
X107830604Y-85652468D01*
X107973819Y-85654905D01*
X108088136Y-85656877D01*
X108163822Y-85658215D01*
X108190333Y-85658724D01*
X108226689Y-85658690D01*
X108309590Y-85658147D01*
X108429142Y-85657175D01*
X108575448Y-85655852D01*
X108698333Y-85654663D01*
X108960030Y-85653357D01*
X109172146Y-85655093D01*
X109333165Y-85659816D01*
X109441572Y-85667469D01*
X109495852Y-85677997D01*
X109502234Y-85684102D01*
X109475113Y-85727530D01*
X109405355Y-85767755D01*
X109306748Y-85800087D01*
X109193081Y-85819835D01*
X109093444Y-85823163D01*
X109036003Y-85827333D01*
X108945724Y-85840589D01*
X108867667Y-85855046D01*
X108828059Y-85862686D01*
X108787309Y-85869286D01*
X108741292Y-85874904D01*
X108685883Y-85879600D01*
X108616957Y-85883432D01*
X108530388Y-85886458D01*
X108422053Y-85888737D01*
X108287825Y-85890328D01*
X108123581Y-85891288D01*
X107925195Y-85891676D01*
X107688542Y-85891551D01*
X107409497Y-85890972D01*
X107083935Y-85889996D01*
X106707732Y-85888683D01*
X106539333Y-85888066D01*
X106224753Y-85887514D01*
X105904739Y-85888081D01*
X105588052Y-85889677D01*
X105283451Y-85892213D01*
X104999695Y-85895601D01*
X104745544Y-85899750D01*
X104529756Y-85904572D01*
X104361090Y-85909977D01*
X104352111Y-85910341D01*
X104105184Y-85919232D01*
X103824330Y-85927269D01*
X103531993Y-85933942D01*
X103250617Y-85938739D01*
X103002643Y-85941150D01*
X102997444Y-85941173D01*
X102782553Y-85942926D01*
X102563714Y-85946146D01*
X102354764Y-85950527D01*
X102169536Y-85955761D01*
X102021866Y-85961542D01*
X101980023Y-85963729D01*
X101819031Y-85974674D01*
X101703512Y-85990165D01*
X101622523Y-86016544D01*
X101565120Y-86060151D01*
X101520360Y-86127326D01*
X101477301Y-86224410D01*
X101461591Y-86264111D01*
X101411227Y-86380118D01*
X101352621Y-86497307D01*
X101316570Y-86560445D01*
X101259052Y-86662049D01*
X101206695Y-86768735D01*
X101190986Y-86805668D01*
X101134104Y-86898949D01*
X101063548Y-86945667D01*
X100990799Y-86946020D01*
X100927339Y-86900207D01*
X100884651Y-86808428D01*
X100882748Y-86800334D01*
X100876660Y-86753831D01*
X100867971Y-86661948D01*
X100857600Y-86535641D01*
X100846468Y-86385864D01*
X100839593Y-86286122D01*
X100823558Y-86095097D01*
X100800894Y-85889901D01*
X100774307Y-85692093D01*
X100746502Y-85523233D01*
X100739048Y-85484963D01*
X100712317Y-85352499D01*
X100690255Y-85240862D01*
X100675046Y-85161268D01*
X100668873Y-85124935D01*
X100668835Y-85124286D01*
X100659784Y-85126127D01*
X100636587Y-85169307D01*
X100604088Y-85242010D01*
X100567132Y-85332420D01*
X100530564Y-85428724D01*
X100499227Y-85519105D01*
X100479205Y-85586778D01*
X100453249Y-85680842D01*
X100429468Y-85753450D01*
X100415589Y-85784334D01*
X100399918Y-85822085D01*
X100374001Y-85901504D01*
X100341898Y-86009657D01*
X100318127Y-86094778D01*
X100264366Y-86288962D01*
X100221308Y-86435942D01*
X100186246Y-86543341D01*
X100156468Y-86618783D01*
X100129267Y-86669890D01*
X100101933Y-86704286D01*
X100101270Y-86704952D01*
X100061476Y-86753181D01*
X100048222Y-86782767D01*
X100028896Y-86819416D01*
X100005007Y-86843399D01*
X99965584Y-86860324D01*
X99932663Y-86836880D01*
X99904762Y-86769214D01*
X99880400Y-86653473D01*
X99858097Y-86485803D01*
X99854365Y-86451493D01*
X99830400Y-86254709D01*
X99805615Y-86105527D01*
X99780672Y-86005486D01*
X99756232Y-85956126D01*
X99732956Y-85958984D01*
X99711505Y-86015600D01*
X99698001Y-86087569D01*
X99647827Y-86276291D01*
X99561085Y-86438680D01*
X99444356Y-86563159D01*
X99415889Y-86583913D01*
X99340567Y-86633163D01*
X99295626Y-86653481D01*
X99264911Y-86647882D01*
X99232267Y-86619378D01*
X99231242Y-86618353D01*
X99194301Y-86556802D01*
X99165954Y-86465812D01*
X99159463Y-86428423D01*
X99147511Y-86339051D01*
X99137861Y-86269140D01*
X99135077Y-86250000D01*
X99125895Y-86253895D01*
X99107460Y-86302687D01*
X99083431Y-86386324D01*
X99078561Y-86405222D01*
X99020784Y-86632948D01*
X98974830Y-86812187D01*
X98938611Y-86949157D01*
X98910042Y-87050075D01*
X98887035Y-87121157D01*
X98867505Y-87168622D01*
X98849363Y-87198686D01*
X98830524Y-87217566D01*
X98808901Y-87231480D01*
X98799458Y-87236793D01*
X98717192Y-87260215D01*
X98651785Y-87236609D01*
X98615698Y-87170867D01*
X98614493Y-87164197D01*
X98604414Y-87107133D01*
X98587744Y-87018409D01*
X98575578Y-86955556D01*
X98557526Y-86871037D01*
X98544104Y-86835506D01*
X98531031Y-86842213D01*
X98519982Y-86867924D01*
X98506564Y-86940884D01*
X98511409Y-86987868D01*
X98513965Y-87023073D01*
X98482664Y-87037802D01*
X98428673Y-87040222D01*
X98362105Y-87034624D01*
X98326396Y-87007042D01*
X98301863Y-86941296D01*
X98299928Y-86934389D01*
X98274895Y-86786864D01*
X98275809Y-86611076D01*
X98302897Y-86397469D01*
X98314220Y-86334745D01*
X98332633Y-86226898D01*
X98343347Y-86141717D01*
X98344751Y-86093126D01*
X98342812Y-86087405D01*
X98322869Y-86097907D01*
X98295871Y-86148828D01*
X98267330Y-86225563D01*
X98242760Y-86313503D01*
X98228629Y-86389922D01*
X98215816Y-86464104D01*
X98192178Y-86576816D01*
X98161233Y-86711996D01*
X98130733Y-86836854D01*
X98093809Y-86989807D01*
X98058958Y-87145477D01*
X98030678Y-87283170D01*
X98016247Y-87363687D01*
X97991141Y-87493951D01*
X97962750Y-87576456D01*
X97926565Y-87619874D01*
X97878078Y-87632878D01*
X97876282Y-87632889D01*
X97831234Y-87605889D01*
X97792679Y-87529314D01*
X97762000Y-87409801D01*
X97740579Y-87253989D01*
X97729800Y-87068514D01*
X97729280Y-86927334D01*
X97735246Y-86574556D01*
X97667907Y-86701556D01*
X97621022Y-86807440D01*
X97579371Y-86930222D01*
X97565376Y-86983778D01*
X97535101Y-87090963D01*
X97497153Y-87191194D01*
X97476869Y-87232336D01*
X97441205Y-87310857D01*
X97423983Y-87380394D01*
X97423691Y-87387558D01*
X97414349Y-87443426D01*
X97389569Y-87533634D01*
X97354440Y-87639941D01*
X97349356Y-87654056D01*
X97305082Y-87765314D01*
X97268729Y-87830083D01*
X97235076Y-87856765D01*
X97222220Y-87858667D01*
X97193483Y-87851795D01*
X97177512Y-87822973D01*
X97170743Y-87759893D01*
X97169556Y-87676888D01*
X97164684Y-87573014D01*
X97151563Y-87500627D01*
X97137189Y-87475105D01*
X97123853Y-87446975D01*
X97116920Y-87379591D01*
X97116214Y-87267695D01*
X97121557Y-87106031D01*
X97123451Y-87064850D01*
X97130620Y-86947355D01*
X97142099Y-86798175D01*
X97157008Y-86625712D01*
X97174466Y-86438368D01*
X97193589Y-86244545D01*
X97213498Y-86052644D01*
X97233309Y-85871067D01*
X97252142Y-85708216D01*
X97269114Y-85572493D01*
X97283345Y-85472299D01*
X97293952Y-85416036D01*
X97297397Y-85407196D01*
X97325571Y-85412378D01*
X97349630Y-85428759D01*
X97376696Y-85441079D01*
X97394603Y-85415508D01*
X97409559Y-85346212D01*
X97419156Y-85271644D01*
X97419597Y-85224557D01*
X97417347Y-85218384D01*
X97397845Y-85234692D01*
X97356425Y-85288468D01*
X97300971Y-85369244D01*
X97283099Y-85396675D01*
X97206502Y-85514870D01*
X97124689Y-85639975D01*
X97057298Y-85742000D01*
X96949230Y-85910331D01*
X96871620Y-86046937D01*
X96818696Y-86163374D01*
X96784682Y-86271199D01*
X96777732Y-86301556D01*
X96736834Y-86453816D01*
X96688559Y-86553986D01*
X96630355Y-86606213D01*
X96583944Y-86616457D01*
X96558360Y-86591563D01*
X96548667Y-86526901D01*
X96548667Y-86436912D01*
X96491123Y-86498679D01*
X96437597Y-86543295D01*
X96395031Y-86560445D01*
X96371378Y-86575716D01*
X96367069Y-86628609D01*
X96372203Y-86677654D01*
X96378148Y-86751525D01*
X96368284Y-86777969D01*
X96354263Y-86774059D01*
X96300755Y-86719622D01*
X96240277Y-86624331D01*
X96180084Y-86501955D01*
X96127434Y-86366264D01*
X96109725Y-86310023D01*
X96049031Y-86101935D01*
X96030150Y-86225357D01*
X96020739Y-86297861D01*
X96007783Y-86412737D01*
X95992764Y-86556136D01*
X95977162Y-86714208D01*
X95971681Y-86772111D01*
X95956519Y-86924173D01*
X95941330Y-87058871D01*
X95927517Y-87164935D01*
X95916485Y-87231094D01*
X95912805Y-87244834D01*
X95872777Y-87279913D01*
X95804040Y-87294284D01*
X95730836Y-87286787D01*
X95677408Y-87256263D01*
X95677270Y-87256097D01*
X95655398Y-87206710D01*
X95635961Y-87124875D01*
X95629240Y-87079708D01*
X95614221Y-86985687D01*
X95595187Y-86907739D01*
X95586798Y-86885000D01*
X95576400Y-86838031D01*
X95564996Y-86745963D01*
X95553677Y-86620105D01*
X95543534Y-86471762D01*
X95539166Y-86391111D01*
X95517586Y-85953667D01*
X95465383Y-86052445D01*
X95407590Y-86140876D01*
X95338361Y-86221098D01*
X95334076Y-86225175D01*
X95286065Y-86290733D01*
X95234900Y-86392396D01*
X95188109Y-86510847D01*
X95153216Y-86626765D01*
X95137749Y-86720831D01*
X95137556Y-86729624D01*
X95120514Y-86787845D01*
X95085509Y-86844244D01*
X95011042Y-86899106D01*
X94923585Y-86907464D01*
X94833248Y-86874316D01*
X94750140Y-86804660D01*
X94684372Y-86703492D01*
X94658366Y-86633102D01*
X94624748Y-86513030D01*
X94408430Y-86480106D01*
X94285925Y-86463767D01*
X94169013Y-86452033D01*
X94082137Y-86447337D01*
X94079222Y-86447331D01*
X93995755Y-86442666D01*
X93880105Y-86430223D01*
X93755577Y-86412563D01*
X93740556Y-86410118D01*
X93688784Y-86403458D01*
X93617020Y-86397629D01*
X93522073Y-86392597D01*
X93400753Y-86388323D01*
X93249871Y-86384772D01*
X93066238Y-86381906D01*
X92846664Y-86379690D01*
X92587959Y-86378086D01*
X92286934Y-86377058D01*
X91940399Y-86376570D01*
X91545165Y-86376584D01*
X91098042Y-86377064D01*
X90890111Y-86377402D01*
X90507360Y-86378314D01*
X90138834Y-86379645D01*
X89788696Y-86381356D01*
X89461104Y-86383406D01*
X89160220Y-86385753D01*
X88890203Y-86388358D01*
X88655213Y-86391179D01*
X88459412Y-86394175D01*
X88306959Y-86397307D01*
X88202015Y-86400532D01*
X88148740Y-86403811D01*
X88145500Y-86404298D01*
X88025556Y-86426548D01*
X88025556Y-86145597D01*
X88328944Y-86129260D01*
X88435983Y-86125486D01*
X88589150Y-86122860D01*
X88778141Y-86121418D01*
X88992651Y-86121195D01*
X89222376Y-86122227D01*
X89457011Y-86124548D01*
X89507222Y-86125221D01*
X89776642Y-86128514D01*
X90075000Y-86131321D01*
X90384500Y-86133528D01*
X90687343Y-86135025D01*
X90965733Y-86135700D01*
X91158222Y-86135575D01*
X91371985Y-86135281D01*
X91576052Y-86135451D01*
X91760967Y-86136041D01*
X91917272Y-86137010D01*
X92035513Y-86138315D01*
X92103667Y-86139816D01*
X92205666Y-86142287D01*
X92342736Y-86143917D01*
X92493507Y-86144508D01*
X92583444Y-86144271D01*
X92747710Y-86145379D01*
X92940878Y-86149992D01*
X93154264Y-86157592D01*
X93379187Y-86167659D01*
X93606964Y-86179672D01*
X93828912Y-86193113D01*
X94036349Y-86207461D01*
X94220592Y-86222196D01*
X94372958Y-86236799D01*
X94484765Y-86250750D01*
X94540406Y-86261424D01*
X94638547Y-86294021D01*
X94708204Y-86336697D01*
X94765612Y-86403530D01*
X94827008Y-86508595D01*
X94828320Y-86511056D01*
X94867850Y-86576250D01*
X94899741Y-86613513D01*
X94907158Y-86616889D01*
X94928675Y-86592856D01*
X94962306Y-86530268D01*
X94995743Y-86454611D01*
X95066981Y-86291448D01*
X95149387Y-86121700D01*
X95238181Y-85953373D01*
X95328582Y-85794472D01*
X95415811Y-85653004D01*
X95495087Y-85536974D01*
X95561631Y-85454388D01*
X95610661Y-85413251D01*
X95619195Y-85410452D01*
X95687952Y-85422632D01*
X95733447Y-85480912D01*
X95747800Y-85549807D01*
X95755633Y-85621297D01*
X95771439Y-85728115D01*
X95792189Y-85850226D01*
X95798225Y-85883111D01*
X95819208Y-86004345D01*
X95835310Y-86114189D01*
X95843791Y-86193408D01*
X95844430Y-86207667D01*
X95847449Y-86247613D01*
X95858309Y-86253186D01*
X95882462Y-86219274D01*
X95925355Y-86140768D01*
X95934702Y-86123000D01*
X95978819Y-86031809D01*
X96008155Y-85957235D01*
X96016306Y-85916350D01*
X96031852Y-85889748D01*
X96087642Y-85888128D01*
X96153214Y-85912902D01*
X96210521Y-85977796D01*
X96229994Y-86010111D01*
X96269337Y-86092806D01*
X96292038Y-86165681D01*
X96294202Y-86184835D01*
X96303485Y-86245370D01*
X96330399Y-86253934D01*
X96375491Y-86210199D01*
X96439307Y-86113838D01*
X96453696Y-86089378D01*
X96523029Y-85976533D01*
X96573537Y-85912265D01*
X96609239Y-85893535D01*
X96634156Y-85917305D01*
X96644187Y-85945457D01*
X96656176Y-85971176D01*
X96674268Y-85966785D01*
X96704060Y-85926106D01*
X96751147Y-85842955D01*
X96771751Y-85804548D01*
X96828198Y-85696334D01*
X96878067Y-85596729D01*
X96912041Y-85524428D01*
X96915950Y-85515271D01*
X96950935Y-85457219D01*
X96988017Y-85431617D01*
X96989535Y-85431556D01*
X97020623Y-85407917D01*
X97028444Y-85372519D01*
X97045414Y-85309587D01*
X97086340Y-85239828D01*
X97087405Y-85238464D01*
X97210858Y-85076567D01*
X97312181Y-84933887D01*
X97386303Y-84817922D01*
X97428150Y-84736170D01*
X97429326Y-84733056D01*
X97472754Y-84663819D01*
X97527056Y-84637527D01*
X97577999Y-84655577D01*
D12*
X133666000Y-89500000D03*
X131666000Y-89500000D03*
D13*
X115235000Y-128370000D03*
X120985000Y-128370000D03*
X120985000Y-132370000D03*
X115235000Y-132370000D03*
D14*
X82540000Y-84590000D03*
X85080000Y-84590000D03*
X113020000Y-84590000D03*
X115560000Y-84590000D03*
X118100000Y-84590000D03*
X120640000Y-84590000D03*
X123180000Y-84590000D03*
X125720000Y-84590000D03*
X128260000Y-84590000D03*
X130800000Y-84590000D03*
X133340000Y-84590000D03*
X135880000Y-84590000D03*
X138420000Y-84590000D03*
X140960000Y-84590000D03*
X143500000Y-84590000D03*
X146040000Y-84590000D03*
X148580000Y-84590000D03*
X151120000Y-84590000D03*
X153660000Y-84590000D03*
X156200000Y-84590000D03*
X158740000Y-84590000D03*
X161280000Y-84590000D03*
X163820000Y-84590000D03*
X166360000Y-84590000D03*
X168900000Y-84590000D03*
X171440000Y-84590000D03*
X173980000Y-84590000D03*
X113020000Y-87130000D03*
X115560000Y-87130000D03*
X118100000Y-87130000D03*
X120640000Y-87130000D03*
X123180000Y-87130000D03*
X125720000Y-87130000D03*
X128260000Y-87130000D03*
X130800000Y-87130000D03*
X133340000Y-87130000D03*
X135880000Y-87130000D03*
X138420000Y-87130000D03*
X140960000Y-87130000D03*
X143500000Y-87130000D03*
X146040000Y-87130000D03*
X148580000Y-87130000D03*
X151120000Y-87130000D03*
X153660000Y-87130000D03*
X156200000Y-87130000D03*
X158740000Y-87130000D03*
X161280000Y-87130000D03*
X163820000Y-87130000D03*
X166360000Y-87130000D03*
X168900000Y-87130000D03*
X171440000Y-87130000D03*
X173980000Y-87130000D03*
X82540000Y-137930000D03*
X85080000Y-137930000D03*
X113020000Y-135390000D03*
X115560000Y-135390000D03*
X118100000Y-135390000D03*
X120640000Y-135390000D03*
X123180000Y-135390000D03*
X125720000Y-135390000D03*
X128260000Y-135390000D03*
X130800000Y-135390000D03*
X133340000Y-135390000D03*
X135880000Y-135390000D03*
X138420000Y-135390000D03*
X140960000Y-135390000D03*
X143500000Y-135390000D03*
X146040000Y-135390000D03*
X148580000Y-135390000D03*
X151120000Y-135390000D03*
X153660000Y-135390000D03*
X156200000Y-135390000D03*
X158740000Y-135390000D03*
X161280000Y-135390000D03*
X163820000Y-135390000D03*
X166360000Y-135390000D03*
X168900000Y-135390000D03*
X171440000Y-135390000D03*
X173980000Y-135390000D03*
X113020000Y-137930000D03*
X115560000Y-137930000D03*
X118100000Y-137930000D03*
X120640000Y-137930000D03*
X123180000Y-137930000D03*
X125720000Y-137930000D03*
X128260000Y-137930000D03*
X130800000Y-137930000D03*
X133340000Y-137930000D03*
X135880000Y-137930000D03*
X138420000Y-137930000D03*
X140960000Y-137930000D03*
X143500000Y-137930000D03*
X146040000Y-137930000D03*
X148580000Y-137930000D03*
X151120000Y-137930000D03*
X153660000Y-137930000D03*
X156200000Y-137930000D03*
X158740000Y-137930000D03*
X161280000Y-137930000D03*
X163820000Y-137930000D03*
X166360000Y-137930000D03*
X168900000Y-137930000D03*
X171440000Y-137930000D03*
X173980000Y-137930000D03*
D15*
X149639020Y-102430000D03*
X147540980Y-102430000D03*
X119159020Y-125290000D03*
X117060980Y-125290000D03*
X98839020Y-113860000D03*
X96740980Y-113860000D03*
D12*
X133666000Y-97270000D03*
X131666000Y-97270000D03*
X133666000Y-99048000D03*
X131666000Y-99048000D03*
D15*
X159799020Y-102430000D03*
X157700980Y-102430000D03*
D13*
X115235000Y-116940000D03*
X120985000Y-116940000D03*
X120985000Y-120940000D03*
X115235000Y-120940000D03*
X84755000Y-116940000D03*
X90505000Y-116940000D03*
X90505000Y-120940000D03*
X84755000Y-120940000D03*
D15*
X169959020Y-102430000D03*
X167860980Y-102430000D03*
D13*
X145715000Y-116940000D03*
X151465000Y-116940000D03*
X151465000Y-120940000D03*
X145715000Y-120940000D03*
X155875000Y-116940000D03*
X161625000Y-116940000D03*
X161625000Y-120940000D03*
X155875000Y-120940000D03*
X94915000Y-116940000D03*
X100665000Y-116940000D03*
X100665000Y-120940000D03*
X94915000Y-120940000D03*
X105075000Y-116940000D03*
X110825000Y-116940000D03*
X110825000Y-120940000D03*
X105075000Y-120940000D03*
X125395000Y-116940000D03*
X131145000Y-116940000D03*
X131145000Y-120940000D03*
X125395000Y-120940000D03*
X135555000Y-116940000D03*
X141305000Y-116940000D03*
X141305000Y-120940000D03*
X135555000Y-120940000D03*
X84755000Y-128370000D03*
X90505000Y-128370000D03*
X90505000Y-132370000D03*
X84755000Y-132370000D03*
X94915000Y-128370000D03*
X100665000Y-128370000D03*
X100665000Y-132370000D03*
X94915000Y-132370000D03*
X105075000Y-128370000D03*
X110825000Y-128370000D03*
X110825000Y-132370000D03*
X105075000Y-132370000D03*
X125395000Y-128370000D03*
X131145000Y-128370000D03*
X131145000Y-132370000D03*
X125395000Y-132370000D03*
X135555000Y-128370000D03*
X141305000Y-128370000D03*
X141305000Y-132370000D03*
X135555000Y-132370000D03*
X145715000Y-128370000D03*
X151465000Y-128370000D03*
X151465000Y-132370000D03*
X145715000Y-132370000D03*
X155875000Y-128370000D03*
X161625000Y-128370000D03*
X161625000Y-132370000D03*
X155875000Y-132370000D03*
X166035000Y-116940000D03*
X171785000Y-116940000D03*
X171785000Y-120940000D03*
X166035000Y-120940000D03*
X165806400Y-128200400D03*
X171556400Y-128200400D03*
X171556400Y-132200400D03*
X165806400Y-132200400D03*
X166035000Y-105510000D03*
X171785000Y-105510000D03*
X171785000Y-109510000D03*
X166035000Y-109510000D03*
X115235000Y-105510000D03*
X120985000Y-105510000D03*
X120985000Y-109510000D03*
X115235000Y-109510000D03*
X125395000Y-105510000D03*
X131145000Y-105510000D03*
X131145000Y-109510000D03*
X125395000Y-109510000D03*
X135555000Y-105510000D03*
X141305000Y-105510000D03*
X141305000Y-109510000D03*
X135555000Y-109510000D03*
X145715000Y-105510000D03*
X151465000Y-105510000D03*
X151465000Y-109510000D03*
X145715000Y-109510000D03*
X155875000Y-105510000D03*
X161625000Y-105510000D03*
X161625000Y-109510000D03*
X155875000Y-109510000D03*
D15*
X88679020Y-125290000D03*
X86580980Y-125290000D03*
X98839020Y-125290000D03*
X96740980Y-125290000D03*
X108999020Y-125290000D03*
X106900980Y-125290000D03*
X129319020Y-125290000D03*
X127220980Y-125290000D03*
X139479020Y-125290000D03*
X137380980Y-125290000D03*
X149639020Y-125290000D03*
X147540980Y-125290000D03*
X159799020Y-125290000D03*
X157700980Y-125290000D03*
X169959020Y-125290000D03*
X167860980Y-125290000D03*
X88679020Y-113860000D03*
X86580980Y-113860000D03*
X108999020Y-113860000D03*
X106900980Y-113860000D03*
X119159020Y-113860000D03*
X117060980Y-113860000D03*
X129319020Y-113860000D03*
X127220980Y-113860000D03*
X139479020Y-113860000D03*
X137380980Y-113860000D03*
X149639020Y-113860000D03*
X147540980Y-113860000D03*
X159799020Y-113860000D03*
X157700980Y-113860000D03*
X169959020Y-113860000D03*
X167860980Y-113860000D03*
X119159020Y-102430000D03*
X117060980Y-102430000D03*
X129319020Y-102430000D03*
X127220980Y-102430000D03*
X139479020Y-102430000D03*
X137380980Y-102430000D03*
D16*
X174250000Y-95050000D03*
X174250000Y-96950000D03*
D17*
X167050000Y-99500000D03*
X168950000Y-99500000D03*
X165950000Y-99500000D03*
X164050000Y-99500000D03*
D12*
X133666000Y-93714000D03*
X131666000Y-93714000D03*
X133666000Y-91750000D03*
X131666000Y-91750000D03*
D17*
X133616000Y-95492000D03*
X131716000Y-95492000D03*
D12*
X85251800Y-96003800D03*
X83251800Y-96003800D03*
X92472000Y-96003800D03*
X94472000Y-96003800D03*
X101406200Y-96003800D03*
X99406200Y-96003800D03*
X108601000Y-96003800D03*
X110601000Y-96003800D03*
D17*
X83314500Y-97731000D03*
X85214500Y-97731000D03*
X92522000Y-97731000D03*
X94422000Y-97731000D03*
X99443500Y-97731000D03*
X101343500Y-97731000D03*
X108651000Y-97731000D03*
X110551000Y-97731000D03*
D18*
X88824600Y-97916800D03*
X94424600Y-108916800D03*
X83324600Y-108916800D03*
X94424600Y-100616800D03*
X83324600Y-100616800D03*
D19*
X83324600Y-104766800D03*
X94424600Y-104766800D03*
D18*
X104950000Y-97900000D03*
X110550000Y-108900000D03*
X99450000Y-108900000D03*
X110550000Y-100600000D03*
X99450000Y-100600000D03*
D19*
X99450000Y-104750000D03*
X110550000Y-104750000D03*
D20*
X136700564Y-90330454D03*
X136700564Y-90950454D03*
X136700564Y-91570454D03*
X136700564Y-92190454D03*
X136700564Y-92810454D03*
X136700564Y-93430454D03*
X136700564Y-94050454D03*
X136700564Y-94670454D03*
X136700564Y-95290454D03*
X136700564Y-95910454D03*
X136700564Y-96530454D03*
X136700564Y-97150454D03*
X136700564Y-97770454D03*
X136700564Y-98390454D03*
M02*
