M48
INCH,TZ
T1C0.016
T2C0.040
T3C0.047
%
G90
G05
T1
X33500Y-43500
X33500Y-48000
X34500Y-50800
X35700Y-48600
X37500Y-43500
X37500Y-48000
X38500Y-46300
X38500Y-50800
X39600Y-48200
X41500Y-43500
X41500Y-48000
X42500Y-38500
X42600Y-41800
X42600Y-50800
X43600Y-48200
X43800Y-37500
X45500Y-43500
X45500Y-48000
X46500Y-38500
X47200Y-42800
X47700Y-39000
X47800Y-48100
X48000Y-55500
X48100Y-47000
X49000Y-39000
X49000Y-43500
X49000Y-48000
X49800Y-42800
X50500Y-50800
X51750Y-38250
X52200Y-45200
X52500Y-48000
X53000Y-39000
X53000Y-43500
X53000Y-48000
X54000Y-55500
X54500Y-41800
X54600Y-48600
X54600Y-51200
X55600Y-51700
X55750Y-38250
X56200Y-45300
X56600Y-49800
X57000Y-37500
X57000Y-39000
X57000Y-43500
X57000Y-48000
X58500Y-41900
X58500Y-50800
X59750Y-38250
X60200Y-45400
X60600Y-49800
X61000Y-37500
X61000Y-39000
X61000Y-43500
X61000Y-48000
X62300Y-50800
X62500Y-41800
X63000Y-47300
X63750Y-38250
X63750Y-42750
X64200Y-45400
X64500Y-49700
X65000Y-39000
X65000Y-43500
X65000Y-48000
X66250Y-38250
X66500Y-41800
X66500Y-50800
T2
X32500Y-33500
X32500Y-54500
X33500Y-33500
X33500Y-54500
X44500Y-33500
X44500Y-34500
X44500Y-53500
X44500Y-54500
X45500Y-33500
X45500Y-34500
X45500Y-53500
X45500Y-54500
X46500Y-33500
X46500Y-34500
X46500Y-53500
X46500Y-54500
X47500Y-33500
X47500Y-34500
X47500Y-53500
X47500Y-54500
X48500Y-33500
X48500Y-34500
X48500Y-53500
X48500Y-54500
X49500Y-33500
X49500Y-34500
X49500Y-53500
X49500Y-54500
X50500Y-33500
X50500Y-34500
X50500Y-53500
X50500Y-54500
X51500Y-33500
X51500Y-34500
X51500Y-53500
X51500Y-54500
X52500Y-33500
X52500Y-34500
X52500Y-53500
X52500Y-54500
X53500Y-33500
X53500Y-34500
X53500Y-53500
X53500Y-54500
X54500Y-33500
X54500Y-34500
X54500Y-53500
X54500Y-54500
X55500Y-33500
X55500Y-34500
X55500Y-53500
X55500Y-54500
X56500Y-33500
X56500Y-34500
X56500Y-53500
X56500Y-54500
X57500Y-33500
X57500Y-34500
X57500Y-53500
X57500Y-54500
X58500Y-33500
X58500Y-34500
X58500Y-53500
X58500Y-54500
X59500Y-33500
X59500Y-34500
X59500Y-53500
X59500Y-54500
X60500Y-33500
X60500Y-34500
X60500Y-53500
X60500Y-54500
X61500Y-33500
X61500Y-34500
X61500Y-53500
X61500Y-54500
X62500Y-33500
X62500Y-34500
X62500Y-53500
X62500Y-54500
X63500Y-33500
X63500Y-34500
X63500Y-53500
X63500Y-54500
X64500Y-33500
X64500Y-34500
X64500Y-53500
X64500Y-54500
X65500Y-33500
X65500Y-34500
X65500Y-53500
X65500Y-54500
X66500Y-33500
X66500Y-34500
X66500Y-53500
X66500Y-54500
X67500Y-33500
X67500Y-34500
X67500Y-53500
X67500Y-54500
X68500Y-33500
X68500Y-34500
X68500Y-53500
X68500Y-54500
T3
X33600Y-41900
X34600Y-41900
X35600Y-41900
X37500Y-41900
X38500Y-41900
X39500Y-41900
T0
M30
