G04 #@! TF.FileFunction,Legend,Top*
%FSLAX46Y46*%
G04 Gerber Fmt 4.6, Leading zero omitted, Abs format (unit mm)*
G04 Created by KiCad (PCBNEW 4.0.4+dfsg1-stable) date Wed Nov 30 20:07:11 2016*
%MOMM*%
%LPD*%
G01*
G04 APERTURE LIST*
%ADD10C,0.100000*%
%ADD11C,0.200000*%
%ADD12C,0.300000*%
%ADD13C,1.000000*%
%ADD14C,0.150000*%
%ADD15C,0.254000*%
G04 APERTURE END LIST*
D10*
D11*
X161925000Y-109347000D02*
X161925000Y-111379000D01*
X161925000Y-111379000D02*
X162433000Y-110871000D01*
X161925000Y-111379000D02*
X161417000Y-110871000D01*
X90932000Y-109220000D02*
X91440000Y-109728000D01*
X90932000Y-109220000D02*
X90424000Y-109728000D01*
X90932000Y-111252000D02*
X90932000Y-109220000D01*
X135128000Y-119380000D02*
X141732000Y-119380000D01*
X141732000Y-120142000D02*
X135128000Y-120142000D01*
X141732000Y-119380000D02*
X141732000Y-120142000D01*
X135128000Y-119380000D02*
X135128000Y-120142000D01*
X124968000Y-119380000D02*
X131572000Y-119380000D01*
X131572000Y-120142000D02*
X124968000Y-120142000D01*
X131572000Y-119380000D02*
X131572000Y-120142000D01*
X124968000Y-119380000D02*
X124968000Y-120142000D01*
X104648000Y-119380000D02*
X104648000Y-120142000D01*
X111252000Y-119380000D02*
X111252000Y-120142000D01*
X111252000Y-120142000D02*
X104648000Y-120142000D01*
X104648000Y-119380000D02*
X111252000Y-119380000D01*
X94488000Y-119380000D02*
X101092000Y-119380000D01*
X101092000Y-120142000D02*
X94488000Y-120142000D01*
X101092000Y-119380000D02*
X101092000Y-120142000D01*
X94488000Y-119380000D02*
X94488000Y-120142000D01*
X145288000Y-119380000D02*
X145288000Y-120142000D01*
X151892000Y-119380000D02*
X151892000Y-120142000D01*
X151892000Y-120142000D02*
X145288000Y-120142000D01*
X145288000Y-119380000D02*
X151892000Y-119380000D01*
D12*
X144712572Y-98190857D02*
X145212572Y-98190857D01*
X145426858Y-98976571D02*
X144712572Y-98976571D01*
X144712572Y-97476571D01*
X145426858Y-97476571D01*
X134481143Y-98976571D02*
X134481143Y-97476571D01*
X134838286Y-97476571D01*
X135052571Y-97548000D01*
X135195429Y-97690857D01*
X135266857Y-97833714D01*
X135338286Y-98119429D01*
X135338286Y-98333714D01*
X135266857Y-98619429D01*
X135195429Y-98762286D01*
X135052571Y-98905143D01*
X134838286Y-98976571D01*
X134481143Y-98976571D01*
X125178286Y-98833714D02*
X125106857Y-98905143D01*
X124892571Y-98976571D01*
X124749714Y-98976571D01*
X124535429Y-98905143D01*
X124392571Y-98762286D01*
X124321143Y-98619429D01*
X124249714Y-98333714D01*
X124249714Y-98119429D01*
X124321143Y-97833714D01*
X124392571Y-97690857D01*
X124535429Y-97548000D01*
X124749714Y-97476571D01*
X124892571Y-97476571D01*
X125106857Y-97548000D01*
X125178286Y-97619429D01*
X114661143Y-98190857D02*
X114875429Y-98262286D01*
X114946857Y-98333714D01*
X115018286Y-98476571D01*
X115018286Y-98690857D01*
X114946857Y-98833714D01*
X114875429Y-98905143D01*
X114732571Y-98976571D01*
X114161143Y-98976571D01*
X114161143Y-97476571D01*
X114661143Y-97476571D01*
X114804000Y-97548000D01*
X114875429Y-97619429D01*
X114946857Y-97762286D01*
X114946857Y-97905143D01*
X114875429Y-98048000D01*
X114804000Y-98119429D01*
X114661143Y-98190857D01*
X114161143Y-98190857D01*
X104036857Y-98548000D02*
X104751143Y-98548000D01*
X103894000Y-98976571D02*
X104394000Y-97476571D01*
X104894000Y-98976571D01*
X157250000Y-96158857D02*
X157464286Y-96230286D01*
X157535714Y-96301714D01*
X157607143Y-96444571D01*
X157607143Y-96658857D01*
X157535714Y-96801714D01*
X157464286Y-96873143D01*
X157321428Y-96944571D01*
X156750000Y-96944571D01*
X156750000Y-95444571D01*
X157250000Y-95444571D01*
X157392857Y-95516000D01*
X157464286Y-95587429D01*
X157535714Y-95730286D01*
X157535714Y-95873143D01*
X157464286Y-96016000D01*
X157392857Y-96087429D01*
X157250000Y-96158857D01*
X156750000Y-96158857D01*
X158250000Y-96944571D02*
X158250000Y-95444571D01*
X158821428Y-95444571D01*
X158964286Y-95516000D01*
X159035714Y-95587429D01*
X159107143Y-95730286D01*
X159107143Y-95944571D01*
X159035714Y-96087429D01*
X158964286Y-96158857D01*
X158821428Y-96230286D01*
X158250000Y-96230286D01*
X159750000Y-96944571D02*
X159750000Y-95444571D01*
X160250000Y-96516000D01*
X160750000Y-95444571D01*
X160750000Y-96944571D01*
X168410001Y-96158857D02*
X167910001Y-96158857D01*
X167910001Y-96944571D02*
X167910001Y-95444571D01*
X168624287Y-95444571D01*
X169052858Y-95444571D02*
X170052858Y-96944571D01*
X170052858Y-95444571D02*
X169052858Y-96944571D01*
X154908286Y-122344571D02*
X154051143Y-122344571D01*
X154479715Y-122344571D02*
X154479715Y-120844571D01*
X154336858Y-121058857D01*
X154194000Y-121201714D01*
X154051143Y-121273143D01*
X156194000Y-120844571D02*
X155908286Y-120844571D01*
X155765429Y-120916000D01*
X155694000Y-120987429D01*
X155551143Y-121201714D01*
X155479714Y-121487429D01*
X155479714Y-122058857D01*
X155551143Y-122201714D01*
X155622571Y-122273143D01*
X155765429Y-122344571D01*
X156051143Y-122344571D01*
X156194000Y-122273143D01*
X156265429Y-122201714D01*
X156336857Y-122058857D01*
X156336857Y-121701714D01*
X156265429Y-121558857D01*
X156194000Y-121487429D01*
X156051143Y-121416000D01*
X155765429Y-121416000D01*
X155622571Y-121487429D01*
X155551143Y-121558857D01*
X155479714Y-121701714D01*
X144748286Y-122344571D02*
X143891143Y-122344571D01*
X144319715Y-122344571D02*
X144319715Y-120844571D01*
X144176858Y-121058857D01*
X144034000Y-121201714D01*
X143891143Y-121273143D01*
X146105429Y-120844571D02*
X145391143Y-120844571D01*
X145319714Y-121558857D01*
X145391143Y-121487429D01*
X145534000Y-121416000D01*
X145891143Y-121416000D01*
X146034000Y-121487429D01*
X146105429Y-121558857D01*
X146176857Y-121701714D01*
X146176857Y-122058857D01*
X146105429Y-122201714D01*
X146034000Y-122273143D01*
X145891143Y-122344571D01*
X145534000Y-122344571D01*
X145391143Y-122273143D01*
X145319714Y-122201714D01*
X134588286Y-122344571D02*
X133731143Y-122344571D01*
X134159715Y-122344571D02*
X134159715Y-120844571D01*
X134016858Y-121058857D01*
X133874000Y-121201714D01*
X133731143Y-121273143D01*
X135874000Y-121344571D02*
X135874000Y-122344571D01*
X135516857Y-120773143D02*
X135159714Y-121844571D01*
X136088286Y-121844571D01*
X124428286Y-122344571D02*
X123571143Y-122344571D01*
X123999715Y-122344571D02*
X123999715Y-120844571D01*
X123856858Y-121058857D01*
X123714000Y-121201714D01*
X123571143Y-121273143D01*
X124928286Y-120844571D02*
X125856857Y-120844571D01*
X125356857Y-121416000D01*
X125571143Y-121416000D01*
X125714000Y-121487429D01*
X125785429Y-121558857D01*
X125856857Y-121701714D01*
X125856857Y-122058857D01*
X125785429Y-122201714D01*
X125714000Y-122273143D01*
X125571143Y-122344571D01*
X125142571Y-122344571D01*
X124999714Y-122273143D01*
X124928286Y-122201714D01*
X114268286Y-122344571D02*
X113411143Y-122344571D01*
X113839715Y-122344571D02*
X113839715Y-120844571D01*
X113696858Y-121058857D01*
X113554000Y-121201714D01*
X113411143Y-121273143D01*
X114839714Y-120987429D02*
X114911143Y-120916000D01*
X115054000Y-120844571D01*
X115411143Y-120844571D01*
X115554000Y-120916000D01*
X115625429Y-120987429D01*
X115696857Y-121130286D01*
X115696857Y-121273143D01*
X115625429Y-121487429D01*
X114768286Y-122344571D01*
X115696857Y-122344571D01*
X104108286Y-122344571D02*
X103251143Y-122344571D01*
X103679715Y-122344571D02*
X103679715Y-120844571D01*
X103536858Y-121058857D01*
X103394000Y-121201714D01*
X103251143Y-121273143D01*
X105536857Y-122344571D02*
X104679714Y-122344571D01*
X105108286Y-122344571D02*
X105108286Y-120844571D01*
X104965429Y-121058857D01*
X104822571Y-121201714D01*
X104679714Y-121273143D01*
X93948286Y-122344571D02*
X93091143Y-122344571D01*
X93519715Y-122344571D02*
X93519715Y-120844571D01*
X93376858Y-121058857D01*
X93234000Y-121201714D01*
X93091143Y-121273143D01*
X94876857Y-120844571D02*
X95019714Y-120844571D01*
X95162571Y-120916000D01*
X95234000Y-120987429D01*
X95305429Y-121130286D01*
X95376857Y-121416000D01*
X95376857Y-121773143D01*
X95305429Y-122058857D01*
X95234000Y-122201714D01*
X95162571Y-122273143D01*
X95019714Y-122344571D01*
X94876857Y-122344571D01*
X94734000Y-122273143D01*
X94662571Y-122201714D01*
X94591143Y-122058857D01*
X94519714Y-121773143D01*
X94519714Y-121416000D01*
X94591143Y-121130286D01*
X94662571Y-120987429D01*
X94734000Y-120916000D01*
X94876857Y-120844571D01*
X83788286Y-122344571D02*
X84074001Y-122344571D01*
X84216858Y-122273143D01*
X84288286Y-122201714D01*
X84431144Y-121987429D01*
X84502572Y-121701714D01*
X84502572Y-121130286D01*
X84431144Y-120987429D01*
X84359715Y-120916000D01*
X84216858Y-120844571D01*
X83931144Y-120844571D01*
X83788286Y-120916000D01*
X83716858Y-120987429D01*
X83645429Y-121130286D01*
X83645429Y-121487429D01*
X83716858Y-121630286D01*
X83788286Y-121701714D01*
X83931144Y-121773143D01*
X84216858Y-121773143D01*
X84359715Y-121701714D01*
X84431144Y-121630286D01*
X84502572Y-121487429D01*
D11*
X172720000Y-110998000D02*
X172720000Y-108966000D01*
X171704000Y-109982000D02*
X172720000Y-110998000D01*
X172720000Y-108966000D02*
X171704000Y-109982000D01*
D13*
X172825210Y-121666000D02*
G75*
G03X172825210Y-121666000I-359210J0D01*
G01*
D12*
X155051144Y-110057429D02*
X154908286Y-109986000D01*
X154836858Y-109914571D01*
X154765429Y-109771714D01*
X154765429Y-109700286D01*
X154836858Y-109557429D01*
X154908286Y-109486000D01*
X155051144Y-109414571D01*
X155336858Y-109414571D01*
X155479715Y-109486000D01*
X155551144Y-109557429D01*
X155622572Y-109700286D01*
X155622572Y-109771714D01*
X155551144Y-109914571D01*
X155479715Y-109986000D01*
X155336858Y-110057429D01*
X155051144Y-110057429D01*
X154908286Y-110128857D01*
X154836858Y-110200286D01*
X154765429Y-110343143D01*
X154765429Y-110628857D01*
X154836858Y-110771714D01*
X154908286Y-110843143D01*
X155051144Y-110914571D01*
X155336858Y-110914571D01*
X155479715Y-110843143D01*
X155551144Y-110771714D01*
X155622572Y-110628857D01*
X155622572Y-110343143D01*
X155551144Y-110200286D01*
X155479715Y-110128857D01*
X155336858Y-110057429D01*
X144534001Y-109414571D02*
X145534001Y-109414571D01*
X144891144Y-110914571D01*
X135159715Y-109414571D02*
X134874001Y-109414571D01*
X134731144Y-109486000D01*
X134659715Y-109557429D01*
X134516858Y-109771714D01*
X134445429Y-110057429D01*
X134445429Y-110628857D01*
X134516858Y-110771714D01*
X134588286Y-110843143D01*
X134731144Y-110914571D01*
X135016858Y-110914571D01*
X135159715Y-110843143D01*
X135231144Y-110771714D01*
X135302572Y-110628857D01*
X135302572Y-110271714D01*
X135231144Y-110128857D01*
X135159715Y-110057429D01*
X135016858Y-109986000D01*
X134731144Y-109986000D01*
X134588286Y-110057429D01*
X134516858Y-110128857D01*
X134445429Y-110271714D01*
X125071144Y-109414571D02*
X124356858Y-109414571D01*
X124285429Y-110128857D01*
X124356858Y-110057429D01*
X124499715Y-109986000D01*
X124856858Y-109986000D01*
X124999715Y-110057429D01*
X125071144Y-110128857D01*
X125142572Y-110271714D01*
X125142572Y-110628857D01*
X125071144Y-110771714D01*
X124999715Y-110843143D01*
X124856858Y-110914571D01*
X124499715Y-110914571D01*
X124356858Y-110843143D01*
X124285429Y-110771714D01*
X114839715Y-109914571D02*
X114839715Y-110914571D01*
X114482572Y-109343143D02*
X114125429Y-110414571D01*
X115054001Y-110414571D01*
X103894001Y-109414571D02*
X104822572Y-109414571D01*
X104322572Y-109986000D01*
X104536858Y-109986000D01*
X104679715Y-110057429D01*
X104751144Y-110128857D01*
X104822572Y-110271714D01*
X104822572Y-110628857D01*
X104751144Y-110771714D01*
X104679715Y-110843143D01*
X104536858Y-110914571D01*
X104108286Y-110914571D01*
X103965429Y-110843143D01*
X103894001Y-110771714D01*
X93805429Y-109557429D02*
X93876858Y-109486000D01*
X94019715Y-109414571D01*
X94376858Y-109414571D01*
X94519715Y-109486000D01*
X94591144Y-109557429D01*
X94662572Y-109700286D01*
X94662572Y-109843143D01*
X94591144Y-110057429D01*
X93734001Y-110914571D01*
X94662572Y-110914571D01*
X84502572Y-110914571D02*
X83645429Y-110914571D01*
X84074001Y-110914571D02*
X84074001Y-109414571D01*
X83931144Y-109628857D01*
X83788286Y-109771714D01*
X83645429Y-109843143D01*
D14*
X88880000Y-115570000D02*
G75*
G03X88880000Y-115570000I-1250000J0D01*
G01*
X90880000Y-118320000D02*
X90880000Y-118970000D01*
X90880000Y-118970000D02*
X84380000Y-118970000D01*
X84380000Y-118970000D02*
X84380000Y-118320000D01*
X90880000Y-112820000D02*
X90880000Y-112170000D01*
X90880000Y-112170000D02*
X84380000Y-112170000D01*
X84380000Y-112170000D02*
X84380000Y-112820000D01*
X90880000Y-114320000D02*
X90880000Y-116820000D01*
X84380000Y-114320000D02*
X84380000Y-116820000D01*
X99040000Y-115570000D02*
G75*
G03X99040000Y-115570000I-1250000J0D01*
G01*
X101040000Y-118320000D02*
X101040000Y-118970000D01*
X101040000Y-118970000D02*
X94540000Y-118970000D01*
X94540000Y-118970000D02*
X94540000Y-118320000D01*
X101040000Y-112820000D02*
X101040000Y-112170000D01*
X101040000Y-112170000D02*
X94540000Y-112170000D01*
X94540000Y-112170000D02*
X94540000Y-112820000D01*
X101040000Y-114320000D02*
X101040000Y-116820000D01*
X94540000Y-114320000D02*
X94540000Y-116820000D01*
X109200000Y-115570000D02*
G75*
G03X109200000Y-115570000I-1250000J0D01*
G01*
X111200000Y-118320000D02*
X111200000Y-118970000D01*
X111200000Y-118970000D02*
X104700000Y-118970000D01*
X104700000Y-118970000D02*
X104700000Y-118320000D01*
X111200000Y-112820000D02*
X111200000Y-112170000D01*
X111200000Y-112170000D02*
X104700000Y-112170000D01*
X104700000Y-112170000D02*
X104700000Y-112820000D01*
X111200000Y-114320000D02*
X111200000Y-116820000D01*
X104700000Y-114320000D02*
X104700000Y-116820000D01*
X119360000Y-115570000D02*
G75*
G03X119360000Y-115570000I-1250000J0D01*
G01*
X121360000Y-118320000D02*
X121360000Y-118970000D01*
X121360000Y-118970000D02*
X114860000Y-118970000D01*
X114860000Y-118970000D02*
X114860000Y-118320000D01*
X121360000Y-112820000D02*
X121360000Y-112170000D01*
X121360000Y-112170000D02*
X114860000Y-112170000D01*
X114860000Y-112170000D02*
X114860000Y-112820000D01*
X121360000Y-114320000D02*
X121360000Y-116820000D01*
X114860000Y-114320000D02*
X114860000Y-116820000D01*
X129520000Y-115570000D02*
G75*
G03X129520000Y-115570000I-1250000J0D01*
G01*
X131520000Y-118320000D02*
X131520000Y-118970000D01*
X131520000Y-118970000D02*
X125020000Y-118970000D01*
X125020000Y-118970000D02*
X125020000Y-118320000D01*
X131520000Y-112820000D02*
X131520000Y-112170000D01*
X131520000Y-112170000D02*
X125020000Y-112170000D01*
X125020000Y-112170000D02*
X125020000Y-112820000D01*
X131520000Y-114320000D02*
X131520000Y-116820000D01*
X125020000Y-114320000D02*
X125020000Y-116820000D01*
X139680000Y-115570000D02*
G75*
G03X139680000Y-115570000I-1250000J0D01*
G01*
X141680000Y-118320000D02*
X141680000Y-118970000D01*
X141680000Y-118970000D02*
X135180000Y-118970000D01*
X135180000Y-118970000D02*
X135180000Y-118320000D01*
X141680000Y-112820000D02*
X141680000Y-112170000D01*
X141680000Y-112170000D02*
X135180000Y-112170000D01*
X135180000Y-112170000D02*
X135180000Y-112820000D01*
X141680000Y-114320000D02*
X141680000Y-116820000D01*
X135180000Y-114320000D02*
X135180000Y-116820000D01*
X149840000Y-115570000D02*
G75*
G03X149840000Y-115570000I-1250000J0D01*
G01*
X151840000Y-118320000D02*
X151840000Y-118970000D01*
X151840000Y-118970000D02*
X145340000Y-118970000D01*
X145340000Y-118970000D02*
X145340000Y-118320000D01*
X151840000Y-112820000D02*
X151840000Y-112170000D01*
X151840000Y-112170000D02*
X145340000Y-112170000D01*
X145340000Y-112170000D02*
X145340000Y-112820000D01*
X151840000Y-114320000D02*
X151840000Y-116820000D01*
X145340000Y-114320000D02*
X145340000Y-116820000D01*
X160000000Y-115570000D02*
G75*
G03X160000000Y-115570000I-1250000J0D01*
G01*
X162000000Y-118320000D02*
X162000000Y-118970000D01*
X162000000Y-118970000D02*
X155500000Y-118970000D01*
X155500000Y-118970000D02*
X155500000Y-118320000D01*
X162000000Y-112820000D02*
X162000000Y-112170000D01*
X162000000Y-112170000D02*
X155500000Y-112170000D01*
X155500000Y-112170000D02*
X155500000Y-112820000D01*
X162000000Y-114320000D02*
X162000000Y-116820000D01*
X155500000Y-114320000D02*
X155500000Y-116820000D01*
X88880000Y-127000000D02*
G75*
G03X88880000Y-127000000I-1250000J0D01*
G01*
X90880000Y-129750000D02*
X90880000Y-130400000D01*
X90880000Y-130400000D02*
X84380000Y-130400000D01*
X84380000Y-130400000D02*
X84380000Y-129750000D01*
X90880000Y-124250000D02*
X90880000Y-123600000D01*
X90880000Y-123600000D02*
X84380000Y-123600000D01*
X84380000Y-123600000D02*
X84380000Y-124250000D01*
X90880000Y-125750000D02*
X90880000Y-128250000D01*
X84380000Y-125750000D02*
X84380000Y-128250000D01*
X99040000Y-127000000D02*
G75*
G03X99040000Y-127000000I-1250000J0D01*
G01*
X101040000Y-129750000D02*
X101040000Y-130400000D01*
X101040000Y-130400000D02*
X94540000Y-130400000D01*
X94540000Y-130400000D02*
X94540000Y-129750000D01*
X101040000Y-124250000D02*
X101040000Y-123600000D01*
X101040000Y-123600000D02*
X94540000Y-123600000D01*
X94540000Y-123600000D02*
X94540000Y-124250000D01*
X101040000Y-125750000D02*
X101040000Y-128250000D01*
X94540000Y-125750000D02*
X94540000Y-128250000D01*
X109200000Y-127000000D02*
G75*
G03X109200000Y-127000000I-1250000J0D01*
G01*
X111200000Y-129750000D02*
X111200000Y-130400000D01*
X111200000Y-130400000D02*
X104700000Y-130400000D01*
X104700000Y-130400000D02*
X104700000Y-129750000D01*
X111200000Y-124250000D02*
X111200000Y-123600000D01*
X111200000Y-123600000D02*
X104700000Y-123600000D01*
X104700000Y-123600000D02*
X104700000Y-124250000D01*
X111200000Y-125750000D02*
X111200000Y-128250000D01*
X104700000Y-125750000D02*
X104700000Y-128250000D01*
X119360000Y-127000000D02*
G75*
G03X119360000Y-127000000I-1250000J0D01*
G01*
X121360000Y-129750000D02*
X121360000Y-130400000D01*
X121360000Y-130400000D02*
X114860000Y-130400000D01*
X114860000Y-130400000D02*
X114860000Y-129750000D01*
X121360000Y-124250000D02*
X121360000Y-123600000D01*
X121360000Y-123600000D02*
X114860000Y-123600000D01*
X114860000Y-123600000D02*
X114860000Y-124250000D01*
X121360000Y-125750000D02*
X121360000Y-128250000D01*
X114860000Y-125750000D02*
X114860000Y-128250000D01*
X129520000Y-127000000D02*
G75*
G03X129520000Y-127000000I-1250000J0D01*
G01*
X131520000Y-129750000D02*
X131520000Y-130400000D01*
X131520000Y-130400000D02*
X125020000Y-130400000D01*
X125020000Y-130400000D02*
X125020000Y-129750000D01*
X131520000Y-124250000D02*
X131520000Y-123600000D01*
X131520000Y-123600000D02*
X125020000Y-123600000D01*
X125020000Y-123600000D02*
X125020000Y-124250000D01*
X131520000Y-125750000D02*
X131520000Y-128250000D01*
X125020000Y-125750000D02*
X125020000Y-128250000D01*
X139680000Y-127000000D02*
G75*
G03X139680000Y-127000000I-1250000J0D01*
G01*
X141680000Y-129750000D02*
X141680000Y-130400000D01*
X141680000Y-130400000D02*
X135180000Y-130400000D01*
X135180000Y-130400000D02*
X135180000Y-129750000D01*
X141680000Y-124250000D02*
X141680000Y-123600000D01*
X141680000Y-123600000D02*
X135180000Y-123600000D01*
X135180000Y-123600000D02*
X135180000Y-124250000D01*
X141680000Y-125750000D02*
X141680000Y-128250000D01*
X135180000Y-125750000D02*
X135180000Y-128250000D01*
X149840000Y-127000000D02*
G75*
G03X149840000Y-127000000I-1250000J0D01*
G01*
X151840000Y-129750000D02*
X151840000Y-130400000D01*
X151840000Y-130400000D02*
X145340000Y-130400000D01*
X145340000Y-130400000D02*
X145340000Y-129750000D01*
X151840000Y-124250000D02*
X151840000Y-123600000D01*
X151840000Y-123600000D02*
X145340000Y-123600000D01*
X145340000Y-123600000D02*
X145340000Y-124250000D01*
X151840000Y-125750000D02*
X151840000Y-128250000D01*
X145340000Y-125750000D02*
X145340000Y-128250000D01*
X160000000Y-127000000D02*
G75*
G03X160000000Y-127000000I-1250000J0D01*
G01*
X162000000Y-129750000D02*
X162000000Y-130400000D01*
X162000000Y-130400000D02*
X155500000Y-130400000D01*
X155500000Y-130400000D02*
X155500000Y-129750000D01*
X162000000Y-124250000D02*
X162000000Y-123600000D01*
X162000000Y-123600000D02*
X155500000Y-123600000D01*
X155500000Y-123600000D02*
X155500000Y-124250000D01*
X162000000Y-125750000D02*
X162000000Y-128250000D01*
X155500000Y-125750000D02*
X155500000Y-128250000D01*
X172720000Y-83820000D02*
X111760000Y-83820000D01*
X111760000Y-88900000D02*
X175260000Y-88900000D01*
X111760000Y-88900000D02*
X111760000Y-83820000D01*
X175260000Y-88900000D02*
X175260000Y-86360000D01*
X175540000Y-85090000D02*
X175540000Y-83540000D01*
X175260000Y-86360000D02*
X172720000Y-86360000D01*
X172720000Y-86360000D02*
X172720000Y-83820000D01*
X175540000Y-83540000D02*
X173990000Y-83540000D01*
X172720000Y-134620000D02*
X111760000Y-134620000D01*
X111760000Y-139700000D02*
X175260000Y-139700000D01*
X111760000Y-139700000D02*
X111760000Y-134620000D01*
X175260000Y-139700000D02*
X175260000Y-137160000D01*
X175540000Y-135890000D02*
X175540000Y-134340000D01*
X175260000Y-137160000D02*
X172720000Y-137160000D01*
X172720000Y-137160000D02*
X172720000Y-134620000D01*
X175540000Y-134340000D02*
X173990000Y-134340000D01*
X170160000Y-115570000D02*
G75*
G03X170160000Y-115570000I-1250000J0D01*
G01*
X172160000Y-118320000D02*
X172160000Y-118970000D01*
X172160000Y-118970000D02*
X165660000Y-118970000D01*
X165660000Y-118970000D02*
X165660000Y-118320000D01*
X172160000Y-112820000D02*
X172160000Y-112170000D01*
X172160000Y-112170000D02*
X165660000Y-112170000D01*
X165660000Y-112170000D02*
X165660000Y-112820000D01*
X172160000Y-114320000D02*
X172160000Y-116820000D01*
X165660000Y-114320000D02*
X165660000Y-116820000D01*
X170160000Y-127000000D02*
G75*
G03X170160000Y-127000000I-1250000J0D01*
G01*
X172160000Y-129750000D02*
X172160000Y-130400000D01*
X172160000Y-130400000D02*
X165660000Y-130400000D01*
X165660000Y-130400000D02*
X165660000Y-129750000D01*
X172160000Y-124250000D02*
X172160000Y-123600000D01*
X172160000Y-123600000D02*
X165660000Y-123600000D01*
X165660000Y-123600000D02*
X165660000Y-124250000D01*
X172160000Y-125750000D02*
X172160000Y-128250000D01*
X165660000Y-125750000D02*
X165660000Y-128250000D01*
X81000000Y-85090000D02*
X81000000Y-83540000D01*
X82550000Y-83540000D02*
X81000000Y-83540000D01*
X81280000Y-86360000D02*
X83820000Y-86360000D01*
X86360000Y-83820000D02*
X83820000Y-83820000D01*
X83820000Y-83820000D02*
X83820000Y-86360000D01*
X83820000Y-86360000D02*
X86360000Y-86360000D01*
X86360000Y-86360000D02*
X86360000Y-83820000D01*
X81000000Y-138430000D02*
X81000000Y-136880000D01*
X82550000Y-136880000D02*
X81000000Y-136880000D01*
X81280000Y-139700000D02*
X83820000Y-139700000D01*
X86360000Y-137160000D02*
X83820000Y-137160000D01*
X83820000Y-137160000D02*
X83820000Y-139700000D01*
X83820000Y-139700000D02*
X86360000Y-139700000D01*
X86360000Y-139700000D02*
X86360000Y-137160000D01*
X170160000Y-104140000D02*
G75*
G03X170160000Y-104140000I-1250000J0D01*
G01*
X172160000Y-106890000D02*
X172160000Y-107540000D01*
X172160000Y-107540000D02*
X165660000Y-107540000D01*
X165660000Y-107540000D02*
X165660000Y-106890000D01*
X172160000Y-101390000D02*
X172160000Y-100740000D01*
X172160000Y-100740000D02*
X165660000Y-100740000D01*
X165660000Y-100740000D02*
X165660000Y-101390000D01*
X172160000Y-102890000D02*
X172160000Y-105390000D01*
X165660000Y-102890000D02*
X165660000Y-105390000D01*
X109200000Y-104140000D02*
G75*
G03X109200000Y-104140000I-1250000J0D01*
G01*
X111200000Y-106890000D02*
X111200000Y-107540000D01*
X111200000Y-107540000D02*
X104700000Y-107540000D01*
X104700000Y-107540000D02*
X104700000Y-106890000D01*
X111200000Y-101390000D02*
X111200000Y-100740000D01*
X111200000Y-100740000D02*
X104700000Y-100740000D01*
X104700000Y-100740000D02*
X104700000Y-101390000D01*
X111200000Y-102890000D02*
X111200000Y-105390000D01*
X104700000Y-102890000D02*
X104700000Y-105390000D01*
X119360000Y-104140000D02*
G75*
G03X119360000Y-104140000I-1250000J0D01*
G01*
X121360000Y-106890000D02*
X121360000Y-107540000D01*
X121360000Y-107540000D02*
X114860000Y-107540000D01*
X114860000Y-107540000D02*
X114860000Y-106890000D01*
X121360000Y-101390000D02*
X121360000Y-100740000D01*
X121360000Y-100740000D02*
X114860000Y-100740000D01*
X114860000Y-100740000D02*
X114860000Y-101390000D01*
X121360000Y-102890000D02*
X121360000Y-105390000D01*
X114860000Y-102890000D02*
X114860000Y-105390000D01*
X129520000Y-104140000D02*
G75*
G03X129520000Y-104140000I-1250000J0D01*
G01*
X131520000Y-106890000D02*
X131520000Y-107540000D01*
X131520000Y-107540000D02*
X125020000Y-107540000D01*
X125020000Y-107540000D02*
X125020000Y-106890000D01*
X131520000Y-101390000D02*
X131520000Y-100740000D01*
X131520000Y-100740000D02*
X125020000Y-100740000D01*
X125020000Y-100740000D02*
X125020000Y-101390000D01*
X131520000Y-102890000D02*
X131520000Y-105390000D01*
X125020000Y-102890000D02*
X125020000Y-105390000D01*
X139680000Y-104140000D02*
G75*
G03X139680000Y-104140000I-1250000J0D01*
G01*
X141680000Y-106890000D02*
X141680000Y-107540000D01*
X141680000Y-107540000D02*
X135180000Y-107540000D01*
X135180000Y-107540000D02*
X135180000Y-106890000D01*
X141680000Y-101390000D02*
X141680000Y-100740000D01*
X141680000Y-100740000D02*
X135180000Y-100740000D01*
X135180000Y-100740000D02*
X135180000Y-101390000D01*
X141680000Y-102890000D02*
X141680000Y-105390000D01*
X135180000Y-102890000D02*
X135180000Y-105390000D01*
X149840000Y-104140000D02*
G75*
G03X149840000Y-104140000I-1250000J0D01*
G01*
X151840000Y-106890000D02*
X151840000Y-107540000D01*
X151840000Y-107540000D02*
X145340000Y-107540000D01*
X145340000Y-107540000D02*
X145340000Y-106890000D01*
X151840000Y-101390000D02*
X151840000Y-100740000D01*
X151840000Y-100740000D02*
X145340000Y-100740000D01*
X145340000Y-100740000D02*
X145340000Y-101390000D01*
X151840000Y-102890000D02*
X151840000Y-105390000D01*
X145340000Y-102890000D02*
X145340000Y-105390000D01*
X160000000Y-104140000D02*
G75*
G03X160000000Y-104140000I-1250000J0D01*
G01*
X162000000Y-106890000D02*
X162000000Y-107540000D01*
X162000000Y-107540000D02*
X155500000Y-107540000D01*
X155500000Y-107540000D02*
X155500000Y-106890000D01*
X162000000Y-101390000D02*
X162000000Y-100740000D01*
X162000000Y-100740000D02*
X155500000Y-100740000D01*
X155500000Y-100740000D02*
X155500000Y-101390000D01*
X162000000Y-102890000D02*
X162000000Y-105390000D01*
X155500000Y-102890000D02*
X155500000Y-105390000D01*
X126670000Y-122670000D02*
X129370000Y-122670000D01*
X126670000Y-121170000D02*
X129370000Y-121170000D01*
X128170000Y-122070000D02*
X128170000Y-121820000D01*
X128170000Y-121820000D02*
X128020000Y-121970000D01*
X127920000Y-121570000D02*
X127920000Y-122270000D01*
X128270000Y-121920000D02*
X128620000Y-121920000D01*
X127920000Y-121920000D02*
X128270000Y-121570000D01*
X128270000Y-121570000D02*
X128270000Y-122270000D01*
X128270000Y-122270000D02*
X127920000Y-121920000D01*
X136830000Y-122670000D02*
X139530000Y-122670000D01*
X136830000Y-121170000D02*
X139530000Y-121170000D01*
X138330000Y-122070000D02*
X138330000Y-121820000D01*
X138330000Y-121820000D02*
X138180000Y-121970000D01*
X138080000Y-121570000D02*
X138080000Y-122270000D01*
X138430000Y-121920000D02*
X138780000Y-121920000D01*
X138080000Y-121920000D02*
X138430000Y-121570000D01*
X138430000Y-121570000D02*
X138430000Y-122270000D01*
X138430000Y-122270000D02*
X138080000Y-121920000D01*
X146990000Y-122670000D02*
X149690000Y-122670000D01*
X146990000Y-121170000D02*
X149690000Y-121170000D01*
X148490000Y-122070000D02*
X148490000Y-121820000D01*
X148490000Y-121820000D02*
X148340000Y-121970000D01*
X148240000Y-121570000D02*
X148240000Y-122270000D01*
X148590000Y-121920000D02*
X148940000Y-121920000D01*
X148240000Y-121920000D02*
X148590000Y-121570000D01*
X148590000Y-121570000D02*
X148590000Y-122270000D01*
X148590000Y-122270000D02*
X148240000Y-121920000D01*
X157150000Y-122670000D02*
X159850000Y-122670000D01*
X157150000Y-121170000D02*
X159850000Y-121170000D01*
X158650000Y-122070000D02*
X158650000Y-121820000D01*
X158650000Y-121820000D02*
X158500000Y-121970000D01*
X158400000Y-121570000D02*
X158400000Y-122270000D01*
X158750000Y-121920000D02*
X159100000Y-121920000D01*
X158400000Y-121920000D02*
X158750000Y-121570000D01*
X158750000Y-121570000D02*
X158750000Y-122270000D01*
X158750000Y-122270000D02*
X158400000Y-121920000D01*
X167310000Y-122670000D02*
X170010000Y-122670000D01*
X167310000Y-121170000D02*
X170010000Y-121170000D01*
X168810000Y-122070000D02*
X168810000Y-121820000D01*
X168810000Y-121820000D02*
X168660000Y-121970000D01*
X168560000Y-121570000D02*
X168560000Y-122270000D01*
X168910000Y-121920000D02*
X169260000Y-121920000D01*
X168560000Y-121920000D02*
X168910000Y-121570000D01*
X168910000Y-121570000D02*
X168910000Y-122270000D01*
X168910000Y-122270000D02*
X168560000Y-121920000D01*
X126670000Y-111240000D02*
X129370000Y-111240000D01*
X126670000Y-109740000D02*
X129370000Y-109740000D01*
X128170000Y-110640000D02*
X128170000Y-110390000D01*
X128170000Y-110390000D02*
X128020000Y-110540000D01*
X127920000Y-110140000D02*
X127920000Y-110840000D01*
X128270000Y-110490000D02*
X128620000Y-110490000D01*
X127920000Y-110490000D02*
X128270000Y-110140000D01*
X128270000Y-110140000D02*
X128270000Y-110840000D01*
X128270000Y-110840000D02*
X127920000Y-110490000D01*
X136830000Y-111240000D02*
X139530000Y-111240000D01*
X136830000Y-109740000D02*
X139530000Y-109740000D01*
X138330000Y-110640000D02*
X138330000Y-110390000D01*
X138330000Y-110390000D02*
X138180000Y-110540000D01*
X138080000Y-110140000D02*
X138080000Y-110840000D01*
X138430000Y-110490000D02*
X138780000Y-110490000D01*
X138080000Y-110490000D02*
X138430000Y-110140000D01*
X138430000Y-110140000D02*
X138430000Y-110840000D01*
X138430000Y-110840000D02*
X138080000Y-110490000D01*
X146990000Y-111240000D02*
X149690000Y-111240000D01*
X146990000Y-109740000D02*
X149690000Y-109740000D01*
X148490000Y-110640000D02*
X148490000Y-110390000D01*
X148490000Y-110390000D02*
X148340000Y-110540000D01*
X148240000Y-110140000D02*
X148240000Y-110840000D01*
X148590000Y-110490000D02*
X148940000Y-110490000D01*
X148240000Y-110490000D02*
X148590000Y-110140000D01*
X148590000Y-110140000D02*
X148590000Y-110840000D01*
X148590000Y-110840000D02*
X148240000Y-110490000D01*
X157150000Y-111240000D02*
X159850000Y-111240000D01*
X157150000Y-109740000D02*
X159850000Y-109740000D01*
X158650000Y-110640000D02*
X158650000Y-110390000D01*
X158650000Y-110390000D02*
X158500000Y-110540000D01*
X158400000Y-110140000D02*
X158400000Y-110840000D01*
X158750000Y-110490000D02*
X159100000Y-110490000D01*
X158400000Y-110490000D02*
X158750000Y-110140000D01*
X158750000Y-110140000D02*
X158750000Y-110840000D01*
X158750000Y-110840000D02*
X158400000Y-110490000D01*
X167310000Y-111240000D02*
X170010000Y-111240000D01*
X167310000Y-109740000D02*
X170010000Y-109740000D01*
X168810000Y-110640000D02*
X168810000Y-110390000D01*
X168810000Y-110390000D02*
X168660000Y-110540000D01*
X168560000Y-110140000D02*
X168560000Y-110840000D01*
X168910000Y-110490000D02*
X169260000Y-110490000D01*
X168560000Y-110490000D02*
X168910000Y-110140000D01*
X168910000Y-110140000D02*
X168910000Y-110840000D01*
X168910000Y-110840000D02*
X168560000Y-110490000D01*
X126670000Y-99810000D02*
X129370000Y-99810000D01*
X126670000Y-98310000D02*
X129370000Y-98310000D01*
X128170000Y-99210000D02*
X128170000Y-98960000D01*
X128170000Y-98960000D02*
X128020000Y-99110000D01*
X127920000Y-98710000D02*
X127920000Y-99410000D01*
X128270000Y-99060000D02*
X128620000Y-99060000D01*
X127920000Y-99060000D02*
X128270000Y-98710000D01*
X128270000Y-98710000D02*
X128270000Y-99410000D01*
X128270000Y-99410000D02*
X127920000Y-99060000D01*
X136830000Y-99810000D02*
X139530000Y-99810000D01*
X136830000Y-98310000D02*
X139530000Y-98310000D01*
X138330000Y-99210000D02*
X138330000Y-98960000D01*
X138330000Y-98960000D02*
X138180000Y-99110000D01*
X138080000Y-98710000D02*
X138080000Y-99410000D01*
X138430000Y-99060000D02*
X138780000Y-99060000D01*
X138080000Y-99060000D02*
X138430000Y-98710000D01*
X138430000Y-98710000D02*
X138430000Y-99410000D01*
X138430000Y-99410000D02*
X138080000Y-99060000D01*
X146990000Y-99810000D02*
X149690000Y-99810000D01*
X146990000Y-98310000D02*
X149690000Y-98310000D01*
X148490000Y-99210000D02*
X148490000Y-98960000D01*
X148490000Y-98960000D02*
X148340000Y-99110000D01*
X148240000Y-98710000D02*
X148240000Y-99410000D01*
X148590000Y-99060000D02*
X148940000Y-99060000D01*
X148240000Y-99060000D02*
X148590000Y-98710000D01*
X148590000Y-98710000D02*
X148590000Y-99410000D01*
X148590000Y-99410000D02*
X148240000Y-99060000D01*
X157150000Y-99810000D02*
X159850000Y-99810000D01*
X157150000Y-98310000D02*
X159850000Y-98310000D01*
X158650000Y-99210000D02*
X158650000Y-98960000D01*
X158650000Y-98960000D02*
X158500000Y-99110000D01*
X158400000Y-98710000D02*
X158400000Y-99410000D01*
X158750000Y-99060000D02*
X159100000Y-99060000D01*
X158400000Y-99060000D02*
X158750000Y-98710000D01*
X158750000Y-98710000D02*
X158750000Y-99410000D01*
X158750000Y-99410000D02*
X158400000Y-99060000D01*
X167310000Y-99810000D02*
X170010000Y-99810000D01*
X167310000Y-98310000D02*
X170010000Y-98310000D01*
X168810000Y-99210000D02*
X168810000Y-98960000D01*
X168810000Y-98960000D02*
X168660000Y-99110000D01*
X168560000Y-98710000D02*
X168560000Y-99410000D01*
X168910000Y-99060000D02*
X169260000Y-99060000D01*
X168560000Y-99060000D02*
X168910000Y-98710000D01*
X168910000Y-98710000D02*
X168910000Y-99410000D01*
X168910000Y-99410000D02*
X168560000Y-99060000D01*
X106350000Y-99810000D02*
X109050000Y-99810000D01*
X106350000Y-98310000D02*
X109050000Y-98310000D01*
X107850000Y-99210000D02*
X107850000Y-98960000D01*
X107850000Y-98960000D02*
X107700000Y-99110000D01*
X107600000Y-98710000D02*
X107600000Y-99410000D01*
X107950000Y-99060000D02*
X108300000Y-99060000D01*
X107600000Y-99060000D02*
X107950000Y-98710000D01*
X107950000Y-98710000D02*
X107950000Y-99410000D01*
X107950000Y-99410000D02*
X107600000Y-99060000D01*
X116510000Y-111240000D02*
X119210000Y-111240000D01*
X116510000Y-109740000D02*
X119210000Y-109740000D01*
X118010000Y-110640000D02*
X118010000Y-110390000D01*
X118010000Y-110390000D02*
X117860000Y-110540000D01*
X117760000Y-110140000D02*
X117760000Y-110840000D01*
X118110000Y-110490000D02*
X118460000Y-110490000D01*
X117760000Y-110490000D02*
X118110000Y-110140000D01*
X118110000Y-110140000D02*
X118110000Y-110840000D01*
X118110000Y-110840000D02*
X117760000Y-110490000D01*
X106350000Y-111240000D02*
X109050000Y-111240000D01*
X106350000Y-109740000D02*
X109050000Y-109740000D01*
X107850000Y-110640000D02*
X107850000Y-110390000D01*
X107850000Y-110390000D02*
X107700000Y-110540000D01*
X107600000Y-110140000D02*
X107600000Y-110840000D01*
X107950000Y-110490000D02*
X108300000Y-110490000D01*
X107600000Y-110490000D02*
X107950000Y-110140000D01*
X107950000Y-110140000D02*
X107950000Y-110840000D01*
X107950000Y-110840000D02*
X107600000Y-110490000D01*
X96190000Y-111240000D02*
X98890000Y-111240000D01*
X96190000Y-109740000D02*
X98890000Y-109740000D01*
X97690000Y-110640000D02*
X97690000Y-110390000D01*
X97690000Y-110390000D02*
X97540000Y-110540000D01*
X97440000Y-110140000D02*
X97440000Y-110840000D01*
X97790000Y-110490000D02*
X98140000Y-110490000D01*
X97440000Y-110490000D02*
X97790000Y-110140000D01*
X97790000Y-110140000D02*
X97790000Y-110840000D01*
X97790000Y-110840000D02*
X97440000Y-110490000D01*
X86030000Y-111240000D02*
X88730000Y-111240000D01*
X86030000Y-109740000D02*
X88730000Y-109740000D01*
X87530000Y-110640000D02*
X87530000Y-110390000D01*
X87530000Y-110390000D02*
X87380000Y-110540000D01*
X87280000Y-110140000D02*
X87280000Y-110840000D01*
X87630000Y-110490000D02*
X87980000Y-110490000D01*
X87280000Y-110490000D02*
X87630000Y-110140000D01*
X87630000Y-110140000D02*
X87630000Y-110840000D01*
X87630000Y-110840000D02*
X87280000Y-110490000D01*
X116510000Y-99810000D02*
X119210000Y-99810000D01*
X116510000Y-98310000D02*
X119210000Y-98310000D01*
X118010000Y-99210000D02*
X118010000Y-98960000D01*
X118010000Y-98960000D02*
X117860000Y-99110000D01*
X117760000Y-98710000D02*
X117760000Y-99410000D01*
X118110000Y-99060000D02*
X118460000Y-99060000D01*
X117760000Y-99060000D02*
X118110000Y-98710000D01*
X118110000Y-98710000D02*
X118110000Y-99410000D01*
X118110000Y-99410000D02*
X117760000Y-99060000D01*
X116510000Y-122670000D02*
X119210000Y-122670000D01*
X116510000Y-121170000D02*
X119210000Y-121170000D01*
X118010000Y-122070000D02*
X118010000Y-121820000D01*
X118010000Y-121820000D02*
X117860000Y-121970000D01*
X117760000Y-121570000D02*
X117760000Y-122270000D01*
X118110000Y-121920000D02*
X118460000Y-121920000D01*
X117760000Y-121920000D02*
X118110000Y-121570000D01*
X118110000Y-121570000D02*
X118110000Y-122270000D01*
X118110000Y-122270000D02*
X117760000Y-121920000D01*
X106350000Y-122670000D02*
X109050000Y-122670000D01*
X106350000Y-121170000D02*
X109050000Y-121170000D01*
X107850000Y-122070000D02*
X107850000Y-121820000D01*
X107850000Y-121820000D02*
X107700000Y-121970000D01*
X107600000Y-121570000D02*
X107600000Y-122270000D01*
X107950000Y-121920000D02*
X108300000Y-121920000D01*
X107600000Y-121920000D02*
X107950000Y-121570000D01*
X107950000Y-121570000D02*
X107950000Y-122270000D01*
X107950000Y-122270000D02*
X107600000Y-121920000D01*
X96190000Y-122670000D02*
X98890000Y-122670000D01*
X96190000Y-121170000D02*
X98890000Y-121170000D01*
X97690000Y-122070000D02*
X97690000Y-121820000D01*
X97690000Y-121820000D02*
X97540000Y-121970000D01*
X97440000Y-121570000D02*
X97440000Y-122270000D01*
X97790000Y-121920000D02*
X98140000Y-121920000D01*
X97440000Y-121920000D02*
X97790000Y-121570000D01*
X97790000Y-121570000D02*
X97790000Y-122270000D01*
X97790000Y-122270000D02*
X97440000Y-121920000D01*
X86030000Y-122670000D02*
X88730000Y-122670000D01*
X86030000Y-121170000D02*
X88730000Y-121170000D01*
X87530000Y-122070000D02*
X87530000Y-121820000D01*
X87530000Y-121820000D02*
X87380000Y-121970000D01*
X87280000Y-121570000D02*
X87280000Y-122270000D01*
X87630000Y-121920000D02*
X87980000Y-121920000D01*
X87280000Y-121920000D02*
X87630000Y-121570000D01*
X87630000Y-121570000D02*
X87630000Y-122270000D01*
X87630000Y-122270000D02*
X87280000Y-121920000D01*
X99441000Y-103505000D02*
X100457000Y-103505000D01*
X100457000Y-103505000D02*
X100457000Y-104902000D01*
X96139000Y-103505000D02*
X95123000Y-103505000D01*
X95123000Y-103505000D02*
X95123000Y-104902000D01*
X97790000Y-104267000D02*
X97790000Y-104902000D01*
X97790000Y-104267000D02*
X98298000Y-104775000D01*
X97790000Y-104267000D02*
X97282000Y-104775000D01*
X96139000Y-104267000D02*
X96139000Y-102870000D01*
X96139000Y-102870000D02*
X99441000Y-102870000D01*
X99441000Y-102870000D02*
X99441000Y-104267000D01*
X99441000Y-104267000D02*
X96139000Y-104267000D01*
X89535000Y-103505000D02*
X90551000Y-103505000D01*
X90551000Y-103505000D02*
X90551000Y-104902000D01*
X86233000Y-103505000D02*
X85217000Y-103505000D01*
X85217000Y-103505000D02*
X85217000Y-104902000D01*
X87884000Y-104267000D02*
X87884000Y-104902000D01*
X87884000Y-104267000D02*
X88392000Y-104775000D01*
X87884000Y-104267000D02*
X87376000Y-104775000D01*
X86233000Y-104267000D02*
X86233000Y-102870000D01*
X86233000Y-102870000D02*
X89535000Y-102870000D01*
X89535000Y-102870000D02*
X89535000Y-104267000D01*
X89535000Y-104267000D02*
X86233000Y-104267000D01*
D15*
G36*
X90805000Y-131699000D02*
X84455000Y-131699000D01*
X84455000Y-131191000D01*
X90805000Y-131191000D01*
X90805000Y-131699000D01*
X90805000Y-131699000D01*
G37*
X90805000Y-131699000D02*
X84455000Y-131699000D01*
X84455000Y-131191000D01*
X90805000Y-131191000D01*
X90805000Y-131699000D01*
G36*
X111125000Y-131699000D02*
X104775000Y-131699000D01*
X104775000Y-131191000D01*
X111125000Y-131191000D01*
X111125000Y-131699000D01*
X111125000Y-131699000D01*
G37*
X111125000Y-131699000D02*
X104775000Y-131699000D01*
X104775000Y-131191000D01*
X111125000Y-131191000D01*
X111125000Y-131699000D01*
G36*
X100965000Y-131699000D02*
X94615000Y-131699000D01*
X94615000Y-131191000D01*
X100965000Y-131191000D01*
X100965000Y-131699000D01*
X100965000Y-131699000D01*
G37*
X100965000Y-131699000D02*
X94615000Y-131699000D01*
X94615000Y-131191000D01*
X100965000Y-131191000D01*
X100965000Y-131699000D01*
G36*
X131445000Y-131699000D02*
X125095000Y-131699000D01*
X125095000Y-131191000D01*
X131445000Y-131191000D01*
X131445000Y-131699000D01*
X131445000Y-131699000D01*
G37*
X131445000Y-131699000D02*
X125095000Y-131699000D01*
X125095000Y-131191000D01*
X131445000Y-131191000D01*
X131445000Y-131699000D01*
G36*
X121285000Y-131699000D02*
X114935000Y-131699000D01*
X114935000Y-131191000D01*
X121285000Y-131191000D01*
X121285000Y-131699000D01*
X121285000Y-131699000D01*
G37*
X121285000Y-131699000D02*
X114935000Y-131699000D01*
X114935000Y-131191000D01*
X121285000Y-131191000D01*
X121285000Y-131699000D01*
G36*
X152019000Y-131699000D02*
X145669000Y-131699000D01*
X145669000Y-131191000D01*
X152019000Y-131191000D01*
X152019000Y-131699000D01*
X152019000Y-131699000D01*
G37*
X152019000Y-131699000D02*
X145669000Y-131699000D01*
X145669000Y-131191000D01*
X152019000Y-131191000D01*
X152019000Y-131699000D01*
G36*
X141605000Y-131699000D02*
X135255000Y-131699000D01*
X135255000Y-131191000D01*
X141605000Y-131191000D01*
X141605000Y-131699000D01*
X141605000Y-131699000D01*
G37*
X141605000Y-131699000D02*
X135255000Y-131699000D01*
X135255000Y-131191000D01*
X141605000Y-131191000D01*
X141605000Y-131699000D01*
G36*
X161925000Y-131699000D02*
X155575000Y-131699000D01*
X155575000Y-131191000D01*
X161925000Y-131191000D01*
X161925000Y-131699000D01*
X161925000Y-131699000D01*
G37*
X161925000Y-131699000D02*
X155575000Y-131699000D01*
X155575000Y-131191000D01*
X161925000Y-131191000D01*
X161925000Y-131699000D01*
M02*
