<?xml version="1.0" encoding="UTF-8" standalone="no"?>
<!-- Created with Inkscape (http://www.inkscape.org/) -->

<svg
   xmlns:dc="http://purl.org/dc/elements/1.1/"
   xmlns:cc="http://creativecommons.org/ns#"
   xmlns:rdf="http://www.w3.org/1999/02/22-rdf-syntax-ns#"
   xmlns:svg="http://www.w3.org/2000/svg"
   xmlns="http://www.w3.org/2000/svg"
   xmlns:sodipodi="http://sodipodi.sourceforge.net/DTD/sodipodi-0.dtd"
   xmlns:inkscape="http://www.inkscape.org/namespaces/inkscape"
   width="77.952751"
   height="24.803148"
   id="svg5412"
   version="1.1"
   inkscape:version="0.48.4 r9939"
   sodipodi:docname="logo_hand_line.svg"
   inkscape:export-filename="C:\Users\chouteau\Documents\GitHub\Pocket_Open_Source_Synthesizer\media\logo\logo_hand_line.png"
   inkscape:export-xdpi="900"
   inkscape:export-ydpi="900">
  <defs
     id="defs5414" />
  <sodipodi:namedview
     id="base"
     pagecolor="#ffffff"
     bordercolor="#666666"
     borderopacity="1.0"
     inkscape:pageopacity="0.0"
     inkscape:pageshadow="2"
     inkscape:zoom="7.9195959"
     inkscape:cx="60.925217"
     inkscape:cy="27.112857"
     inkscape:document-units="mm"
     inkscape:current-layer="layer1"
     showgrid="false"
     units="mm"
     inkscape:window-width="1920"
     inkscape:window-height="1018"
     inkscape:window-x="-8"
     inkscape:window-y="-8"
     inkscape:window-maximized="1" />
  <metadata
     id="metadata5417">
    <rdf:RDF>
      <cc:Work
         rdf:about="">
        <dc:format>image/svg+xml</dc:format>
        <dc:type
           rdf:resource="http://purl.org/dc/dcmitype/StillImage" />
        <dc:title></dc:title>
      </cc:Work>
    </rdf:RDF>
  </metadata>
  <g
     inkscape:label="Layer 1"
     inkscape:groupmode="layer"
     id="layer1"
     transform="translate(0,-1027.559)">
    <path
       inkscape:connector-curvature="0"
       id="path14"
       d="m 0.8805261,1041.398 c 0.058833,0.038 0.591244,-0.047 0.7446163,-0.091 0.07165,-0.022 0.2228379,0.051 0.4522103,0 0.2346373,-0.055 0.5255102,0.052 0.5264242,0.032 0.0011,-0.025 0.08988,5e-4 0.231804,-0.013 0.136891,-0.014 0.269724,0.02 0.270867,-0.01 0.0016,-0.035 0.377315,-0.017 0.451943,0.01 0.04006,0.01 0.201533,0.065 0.371157,0 0.05677,-0.028 0.193794,-0.033 0.264758,-0.04 0.131627,-0.01 0.336829,0.065 0.486766,-0.014 0.05173,-0.028 0.148336,-0.044 0.223879,-0.04 0.07051,0 0.172374,-0.018 0.223879,-0.04 0.05677,-0.028 0.107132,-0.025 0.121097,4e-4 0.01396,0.026 0.104388,0.035 0.190917,0.019 0.09157,-0.016 0.470423,-0.024 0.843329,-0.012 0.372906,0.012 0.703722,0.1598 0.729589,0.1459 0.05196,-0.033 0.834166,-0.1438 1.056673,-0.1539 0.09592,-7e-4 0.540243,-0.01 0.984113,-7e-4 0.44387,0.01 1.0443191,0.01 1.3371041,0.01 0.292784,0 0.610292,0.01 0.70598,0.012 0.975646,0.074 1.631264,0.084 2.597291,0.037 0.354134,-0.019 0.268519,-0.023 1.58754,0.047 0.56886,0.031 1.123297,0.046 1.234779,0.036 0.298964,-0.027 1.536716,-0.056 2.17219,-0.048 0.302857,0 0.671413,0 0.81334,-0.019 0.516435,-0.037 1.251717,0 1.379914,0.063 0.06891,0.038 0.228234,0.086 0.353223,0.1119 0.210148,0.04 1.311928,0.1151 1.428903,0.095 0.02541,0 0.06066,0 0.07554,0 0.01488,0.01 0.170544,0.023 0.351389,0.041 0.180845,0.018 0.451427,0.061 0.605948,0.1032 0.189774,0.044 0.32575,0.05 0.417774,0.024 0.08722,-0.031 0.132541,-0.029 0.136205,0 0.0071,0.066 0.01511,0.1117 0.05129,0.2041 0.01328,0.041 0.05678,0.1944 0.0957,0.3375 0.09524,0.3475 0.226196,0.5754 0.374079,0.6528 0.06913,0.033 0.122474,0.081 0.121331,0.1065 -9.15e-4,0.02 0.02839,0.042 0.0586,0.043 0.03525,0 0.124304,0.041 0.203282,0.08 0.167114,0.098 0.278825,0.083 0.527879,-0.067 0.160924,-0.099 0.209452,-0.1671 0.269647,-0.3814 0.04189,-0.1444 0.0769,-0.3598 0.08697,-0.4704 0.0053,-0.1158 0.04783,-0.2754 0.09155,-0.3491 0.04395,-0.079 0.08446,-0.193 0.08698,-0.2484 0.0046,-0.1007 0.06157,-0.2445 0.267574,-0.6691 0.05562,-0.1136 0.161377,-0.2198 0.274917,-0.2752 0.149708,-0.074 0.219524,-0.1667 0.342669,-0.4336 0.08904,-0.1827 0.183575,-0.3752 0.210814,-0.4194 0.02747,-0.049 0.05104,-0.1238 0.05287,-0.1641 0.0021,-0.045 0.02335,-0.07 0.04281,-0.054 0.02449,0.016 0.04213,0.1836 0.0387,0.3702 -0.0034,0.1866 0.0041,0.3534 0.0181,0.3793 0.01419,0.021 0.02794,0.3848 0.03895,0.8092 0.03602,1.7629 0.0477,1.8391 0.24892,1.9643 0.06868,0.043 0.0799,0.1298 0.06938,0.4725 -0.01852,0.519 0.07375,0.8209 0.286873,0.9063 0.08928,0.034 0.144677,0.037 0.146049,0.01 0.0011,-0.025 0.08218,-0.032 0.187254,-0.012 0.17993,0.038 0.195496,0.029 0.289344,-0.1483 0.07737,-0.1479 0.107346,-0.3635 0.153328,-1.0427 0.03157,-0.473 0.08031,-0.9906 0.107997,-1.1558 0.05172,-0.361 0.0659,-0.5623 0.04323,-0.7298 -0.0069,-0.071 0.0254,-0.226 0.06637,-0.3503 0.04601,-0.124 0.09155,-0.3491 0.108484,-0.4997 0.04531,-0.442 0.0508,-0.4519 0.101162,-0.4496 0.02518,0 0.04716,0.073 0.0435,0.1534 -0.0039,0.086 0.01145,0.1923 0.03435,0.2438 0.02312,0.046 0.0609,0.2147 0.08426,0.3671 0.0545,0.3558 0.206747,0.7816 0.385315,1.0723 0.08013,0.1247 0.159566,0.2646 0.187725,0.3113 0.121107,0.2225 0.268538,0.421 0.313864,0.423 0.07051,0 0.06729,-0.2593 -0.01101,-0.4244 -0.03686,-0.077 -0.06685,-0.1948 -0.06388,-0.2603 0.0041,-0.091 0.02495,-0.1048 0.130021,-0.085 0.07486,0.018 0.171916,-0.01 0.260504,-0.069 0.140779,-0.1 0.342669,-0.4336 0.349072,-0.5746 0.0018,-0.04 0.02335,-0.07 0.04853,-0.068 0.02014,10e-4 0.03846,0.042 0.0364,0.087 -0.0023,0.05 -0.0064,0.252 -0.01051,0.4537 -0.01051,0.3427 -0.0062,0.358 0.100282,0.3477 0.217699,-0.015 0.280649,-0.068 0.36076,-0.2763 0.04051,-0.1142 0.107351,-0.2525 0.145348,-0.3113 0.04303,-0.059 0.08377,-0.2889 0.106422,-0.5655 0.0167,-0.2566 0.05698,-0.4768 0.08811,-0.4956 0.08309,-0.052 0.290478,-0.3956 0.294823,-0.4912 0.0023,-0.05 0.07279,-0.1582 0.157256,-0.2402 0.08447,-0.082 0.172135,-0.2344 0.191817,-0.3344 0.02472,-0.1 0.07943,-0.1932 0.115365,-0.2068 0.04097,-0.013 0.15291,-0.1444 0.250879,-0.3015 0.0927,-0.1522 0.194796,-0.2889 0.225927,-0.3076 0.03113,-0.019 0.03708,-0.039 0.01694,-0.04 -0.02518,0 0.0027,-0.061 0.0618,-0.1385 0.05379,-0.073 0.119715,-0.1914 0.138025,-0.2612 0.02335,-0.07 0.109871,-0.1969 0.199374,-0.2786 0.0847,-0.087 0.159319,-0.1745 0.160691,-0.2047 0.0014,-0.03 0.08286,-0.1577 0.17465,-0.2898 0.0966,-0.1268 0.204182,-0.2733 0.23165,-0.3226 0.04326,-0.064 0.0522,0.073 0.03276,0.5011 -0.01464,0.3224 -0.04667,0.5833 -0.06682,0.5824 -0.02014,-9e-4 -0.04189,0.033 -0.04372,0.074 -0.0057,0.1259 -0.07439,0.082 -0.146969,-0.098 -0.109205,-0.2623 -0.220916,-0.2472 -0.233952,0.04 -0.02562,0.453 -0.134992,1.528 -0.161774,1.5621 -0.01099,0.02 -0.05263,0.3811 -0.08718,0.8085 -0.03958,0.4272 -0.09542,0.8788 -0.121282,1.0038 -0.114206,0.5146 -0.27362,3.6918 -0.178852,3.6053 0.06318,-0.058 0.156584,0.108 0.149494,0.2641 -0.0041,0.091 0.01695,0.1825 0.04625,0.204 0.05403,0.033 0.0035,0.7016 -0.05468,0.7595 -0.02083,0.014 -0.01327,0.07 0.01466,0.1218 0.08265,0.1804 0.318199,0.1053 0.373815,-0.1193 0.110777,-0.439 0.233231,-0.8019 0.296638,-0.8646 0.105755,-0.1062 0.21058,-0.5254 0.179667,-0.7337 -0.0158,-0.097 -0.0064,-0.1921 0.01968,-0.2111 0.057,-0.033 0.255454,-0.4022 0.352275,-0.6451 0.0396,-0.094 0.0856,-0.3291 0.109627,-0.5249 0.0238,-0.1907 0.07415,-0.4104 0.117871,-0.4841 0.04395,-0.079 0.115136,-0.2017 0.15382,-0.2757 0.04395,-0.079 0.09499,-0.2026 0.113759,-0.2824 0.03136,-0.1349 0.223635,-0.3684 0.304214,-0.3647 0.02518,0 0.03754,0.062 0.03411,0.1378 -0.0037,0.081 -0.02904,0.6396 -0.05672,1.249 l -0.05031,1.1079 0.137364,0.309 c 0.07303,0.1699 0.143319,0.4002 0.153397,0.5117 0.03893,0.3651 0.04283,0.3905 0.131189,0.445 0.117667,0.076 0.313844,-0.021 0.38709,-0.1894 0.0792,-0.1881 0.138015,-0.4832 0.166154,-0.8806 0.01396,-0.1962 0.07369,-0.5114 0.132741,-0.7005 0.208054,-0.692 0.360944,-1.2806 0.472402,-1.8458 0.04532,-0.22 0.100704,-0.4395 0.128171,-0.4887 0.03273,-0.054 0.02907,-0.085 -0.01122,-0.086 -0.03525,0 -0.04327,-0.047 -0.01878,-0.1422 0.02358,-0.075 0.06752,-0.2644 0.100018,-0.4244 0.0595,-0.3102 0.182879,-0.5821 0.308321,-0.6774 0.09408,-0.071 0.06226,-0.1485 -0.06365,-0.1543 -0.07051,0 -0.08401,-0.039 -0.06067,-0.2197 0.0103,-0.1156 0.04188,-0.3665 0.06064,-0.5574 0.02448,-0.2058 0.06706,-0.3654 0.10849,-0.3887 0.04693,-0.033 0.04784,-0.053 0.01327,-0.07 -0.02953,-0.016 -0.0419,-0.078 -0.02885,-0.1426 0.01808,-0.065 0.0062,-0.136 -0.02336,-0.1525 -0.03434,-0.022 -0.03182,-0.077 0.0018,-0.1513 0.02815,-0.064 0.05379,-0.1842 0.06225,-0.2596 0.02402,-0.3067 0.0421,-0.3715 0.09178,-0.3541 0.02953,0.016 0.05311,-0.058 0.05379,-0.1843 -5e-6,-0.111 0.03204,-0.2609 0.07049,-0.3299 0.0879,-0.1575 0.163425,-0.4871 0.100017,-0.4244 -0.02152,0.029 -0.08904,0.1827 -0.146949,0.3466 -0.05287,0.1642 -0.121539,0.3427 -0.1442,0.3972 -0.08355,0.1728 -0.278332,0.6838 -0.36691,0.9674 -0.05219,0.149 -0.146258,0.4425 -0.216069,0.6463 -0.06477,0.2039 -0.141679,0.4528 -0.171205,0.5473 -0.242841,0.9024 -0.383834,1.3401 -0.464179,1.4424 -0.05356,0.068 -0.113764,0.1715 -0.136882,0.236 -0.05127,0.1289 -0.08172,0.1326 -0.207398,0.011 -0.08241,-0.074 -0.09409,-0.1506 -0.07946,-0.4729 0.01464,-0.2113 0.0492,-0.4167 0.08102,-0.4505 0.03205,-0.039 0.07691,-0.1378 0.09591,-0.2228 0.03616,-0.1295 0.01853,-0.1859 -0.08219,-0.3015 -0.11538,-0.1263 -0.140332,-0.1325 -0.219077,-0.065 -0.04716,0.038 -0.124065,0.176 -0.165493,0.3104 -0.04619,0.1291 -0.16865,0.3809 -0.272571,0.5579 -0.191588,0.3294 -0.252018,0.4377 -0.702261,1.2398 -0.274678,0.4922 -0.359374,0.5792 -0.228219,0.247 0.04624,-0.1291 0.08467,-0.5311 0.115544,-1.322 0.02813,-0.6194 0.06794,-1.1626 0.09517,-1.2068 0.02198,-0.039 0.0586,-0.179 0.07988,-0.3143 0.02106,-0.1303 0.05722,-0.2598 0.0737,-0.2894 0.05929,-0.083 0.203118,-3.5839 0.153895,-3.7224 -0.05357,-0.1538 -0.130722,-0.233 -0.285014,-0.2804 -0.144448,-0.042 -0.213806,0.041 -0.245157,0.2866 -0.01671,0.1456 -0.11536,0.3177 -0.357082,0.6398 -0.182665,0.2441 -0.33374,0.4593 -0.334655,0.4794 -9.15e-4,0.02 -0.07531,0.1026 -0.159776,0.1845 -0.0895,0.082 -0.192737,0.2436 -0.228442,0.3631 -0.04051,0.1142 -0.08492,0.203 -0.104378,0.187 -0.05883,-0.038 -0.309713,0.2635 -0.320238,0.3842 -0.0078,0.06 -0.0078,0.1712 -0.0062,0.247 4.62e-4,0.1009 -0.02151,0.1403 -0.08195,0.1375 -0.04533,0 -0.06433,-0.028 -0.04807,-0.053 0.01648,-0.029 0.0073,-0.05 -0.02289,-0.052 -0.03022,0 -0.07829,0.057 -0.116971,0.1309 -0.03388,0.079 -0.100485,0.2125 -0.149927,0.3011 -0.07714,0.1428 -0.07828,0.168 -0.01487,0.2163 0.05861,0.043 0.05334,0.048 -0.02678,0.034 -0.07509,-0.014 -0.122926,0.04 -0.218375,0.2525 -0.06729,0.1484 -0.144434,0.2912 -0.170987,0.3203 -0.02129,0.024 -0.05516,0.1034 -0.06317,0.1687 -0.01305,0.065 -0.05745,0.1538 -0.09934,0.1872 -0.04212,0.038 -0.09156,0.1271 -0.1101,0.202 -0.07965,0.3092 -0.105287,0.3182 -0.298273,0.1227 -0.115837,-0.1163 -0.124537,-0.147 -0.0609,-0.2148 0.05883,-0.073 0.05906,-0.078 -0.02289,-0.052 -0.05128,0.018 -0.107361,0.031 -0.117433,0.03 -0.01007,-4e-4 -0.02106,0.019 -0.02243,0.049 -0.0011,0.025 -0.08309,0.1627 -0.180373,0.3047 -0.183351,0.2591 -0.522351,0.8342 -0.629016,1.0716 l -0.05608,0.1236 -0.07212,-0.19 c -0.04052,-0.1078 -0.0696,-0.2454 -0.06663,-0.3109 0.01121,-0.2468 -0.280236,-0.9413 -0.414383,-0.9877 -0.05448,-0.023 -0.09317,-0.06 -0.09203,-0.085 0.0023,-0.05 -0.314307,-0.08 -0.367184,-0.027 -0.02083,0.014 -0.01305,0.065 0.02061,0.1018 0.0332,0.047 0.0364,0.087 0.0053,0.1063 -0.05219,0.038 -0.455509,0.8069 -0.580026,1.104 -0.04006,0.1042 -0.08927,0.1878 -0.109414,0.1868 -0.01511,-6e-4 -0.04786,-0.2797 -0.06779,-0.6187 -0.02451,-0.3493 -0.06619,-0.654 -0.09984,-0.6909 -0.03365,-0.037 -0.07052,-0.2252 -0.08197,-0.4175 -0.0062,-0.1971 -0.03939,-0.3551 -0.05954,-0.356 -0.02518,0 -0.0435,-0.042 -0.04121,-0.093 0.0025,-0.055 -0.02771,-0.1678 -0.06892,-0.2605 -0.04556,-0.108 -0.05724,-0.1843 -0.02016,-0.223 0.09065,-0.1069 0.02997,-0.4376 -0.08861,-0.4935 -0.09912,-0.04 -0.371305,-0.047 -0.403352,-0.01 -0.187472,0.2388 -0.26896,0.3663 -0.277656,0.4466 -0.0073,0.05 -0.03525,0.1094 -0.06615,0.1232 -0.03113,0.019 -0.09019,0.097 -0.139402,0.1804 -0.09888,0.1772 -0.305816,0.3999 -0.302843,0.3344 -0.0014,-0.081 -0.713706,1.2696 -0.833644,1.5771 -0.06821,0.1685 -0.135734,0.3218 -0.157251,0.3511 -0.02129,0.024 -0.07233,0.1481 -0.113301,0.2725 -0.04097,0.1243 -0.120396,0.3175 -0.181054,0.4308 -0.05585,0.1186 -0.106894,0.2424 -0.108494,0.2777 -0.0016,0.035 -0.02403,0.085 -0.05059,0.1137 -0.02632,0.024 -0.07622,0.1227 -0.10575,0.2173 l -0.05332,0.1742 -0.06365,-0.1543 c -0.0364,-0.087 -0.08745,-0.1856 -0.121107,-0.2225 -0.03365,-0.037 -0.0609,-0.1037 -0.05907,-0.144 0.0018,-0.04 -0.01694,-0.071 -0.04212,-0.073 -0.02518,0 -0.06318,-0.053 -0.08058,-0.1146 -0.04282,-0.1685 -0.209024,-0.3981 -0.313183,-0.4382 -0.04968,-0.017 -0.08791,-0.064 -0.08631,-0.1 0.0048,-0.1057 -0.177877,-0.1948 -0.463796,-0.233 -0.140555,-0.017 -0.400378,-0.074 -0.579394,-0.1323 -0.273788,-0.083 -0.570465,-0.1066 -1.960909,-0.1597 -2.110616,-0.086 -2.956695,-0.1241 -3.157227,-0.1534 -0.09042,-0.01 -0.176952,0.01 -0.188168,0.032 -0.01671,0.035 -0.02655,0.029 -0.02472,-0.011 -6.91e-4,-0.096 -0.102558,-0.075 -0.111939,0.02 -0.0023,0.05 -0.01808,0.065 -0.02655,0.029 -0.01351,-0.036 -0.05838,-0.048 -0.104388,-0.035 -0.04097,0.013 -0.09569,0 -0.119039,-0.046 -0.02793,-0.052 -0.04304,-0.052 -0.04487,-0.012 -0.0034,0.076 -0.235552,0.075 -0.277676,0 -0.03732,-0.067 -0.271496,-0.022 -0.407239,0.077 -0.09408,0.071 -0.09912,0.071 -0.02976,-0.011 0.07989,-0.092 0.05036,-0.1087 -0.08379,-0.044 -0.154515,0.069 -0.377937,0.099 -0.339939,0.04 0.02152,-0.029 -0.03319,-0.047 -0.14422,-0.047 -0.101181,0.01 -0.182675,0.022 -0.183589,0.042 -0.0011,0.025 -0.09248,0.036 -0.208313,0.031 -0.120869,-0.01 -0.19046,-0.029 -0.168943,-0.058 0.01648,-0.03 0.0073,-0.05 -0.01786,-0.051 -0.03022,0 -0.05631,0.018 -0.05746,0.043 -0.0011,0.025 -0.238759,0.034 -0.530858,0.021 -0.352532,-0.016 -0.517811,-0.044 -0.49103,-0.078 0.02175,-0.034 0.0018,-0.04 -0.06501,-0.013 -0.05128,0.018 -0.329181,0.025 -0.616243,0.012 -0.282026,-0.013 -0.514377,-0.01 -0.515291,0.012 -6.86e-4,0.015 -0.122241,0.025 -0.268061,0.013 -0.140785,-0.011 -0.36352,0 -0.491254,0.038 -0.280649,0.068 -0.270577,0.069 -0.222049,10e-5 0.02701,-0.039 -0.0027,-0.051 -0.08928,-0.034 -0.320939,0.066 -0.497663,0.068 -0.494918,0.01 0.0023,-0.05 -0.01282,-0.051 -0.06021,-0.01 -0.08424,0.077 -0.159552,0.068 -0.110567,-0.01 0.03227,-0.044 0.0222,-0.044 -0.04052,0 -0.04693,0.033 -0.184047,0.052 -0.304915,0.047 -0.45279,-0.031 -2.0618471,-0.048 -2.1085451,-0.02 -0.02587,0.014 -0.09088,10e-4 -0.140098,-0.026 -0.09821,-0.06 -0.304692,-0.069 -0.387557,-0.023 -0.0309,0.014 -0.142386,0.024 -0.252953,0.014 -0.110567,-0.01 -0.328036,-0.033 -0.480036,-0.02 -0.152229,0.018 -0.365121,2e-4 -0.471567,0.011 -0.243338,0.024 -0.36535,-0.017 -0.365808,-0.01 -4.57e-4,0.01 -0.183361,0 -0.411361,0.018 -0.111253,0.01 -0.273003,-0.046 -0.37052,-0.01 -0.102782,0.041 -0.199644,0.019 -0.219103,0 -0.01442,-0.016 -0.08382,-0.053 -0.1415,-0.01 -0.07874,0.067 -0.0931,0.065 -0.09059,0.01 0.0018,-0.04 -0.03492,-0.034 -0.06147,-0.01 -0.02129,0.024 -0.09771,0 -0.183785,0 -0.08104,0.01 -0.167309,-0.044 -0.19867,-0.021 -0.0261,0.019 -0.139758,0.024 -0.215301,0.021 -0.08058,0 -0.253056,-0.027 -0.314862,3e-4 -0.149022,0.059 -0.24761,0.01 -0.313309,0.01 -0.03045,0 -0.157984,-0.015 -0.285032,0 -0.127048,0.019 -0.133079,0 -0.158031,0 -0.09173,-0.039 -0.129621,-0.063 -0.130993,-0.033 -0.0011,0.025 -0.05448,-0.211 -0.08141,-0.026 -0.008,0.055 -0.177182,-0.082 -0.204224,0.01 -0.01648,0.03 -0.08865,0.02 -0.138324,0 -0.04968,-0.017 -0.132635,-0.044 -0.169718,-0.01 -0.04767,0.055 -0.09535,0.041 -0.114808,0.025 -0.03937,-0.022 -0.269038,-0.078 -0.382807,-0.017 -0.0364,0.024 -0.110838,0.018 -0.109237,-0.017 0.0018,-0.04 -0.0012,-0.026 -0.06394,0.021 -0.05265,0.048 -0.08511,0.01 -0.130434,0.01 -0.04533,0 -0.12975,-0.028 -0.14623,0 -0.01625,0.024 -0.10902,0.013 -0.189599,0.01 -0.080579,0 -0.173125,-0.026 -0.1896057,0 -0.016252,0.024 -0.1608475,0.044 -0.2817158,0.039 -0.1208683,-0.01 -0.1989445,-0.051 -0.2154252,-0.022 -0.016252,0.024 -0.049721,0.041 -0.1151918,0.038 -0.060434,0 -0.1371529,-0.03 -0.1582124,-0.01 -0.021059,0.019 -0.1667347,0.01 -0.1971804,0.013 -0.1918323,0 -0.4152863,0 -0.4168872,0.032 -0.00114,0.025 0.053202,0.7741 0.012913,0.7722 -0.080579,0 -0.064605,-0.01 0.00384,0.041 z"
       sodipodi:nodetypes="cccscsccccscscsccsscccccccccssccccccsscccccsccccscscccccscccccccsscsccscsccsssccccccsscccsscccsccssscccccssccccccccccccssscccccccccsccssccccccccccsccccccscccccccccccccccccccscccccscsccccccccccccssccccscsccccscscssccccccccccscsccccsssccsccccccccccsccccccsscsssccssccccssccccccsccsccccscccsccscsscscccscscscscsscssc" />
    <path
       inkscape:connector-curvature="0"
       id="path34"
       d="m 37.202002,1042.7959 c 0.01123,0.3083 0.14677,0.7687 0.235134,0.8231 0.09844,0.055 0.246316,0.021 0.249975,-0.059 0.0016,-0.035 0.02174,-0.034 0.0602,0.01 0.03365,0.037 0.09798,0.065 0.148341,0.067 0.08561,0 0.09111,-0.01 0.02197,-0.1504 -0.06433,-0.1392 -0.0625,-0.1794 0.01738,-0.3827 0.04578,-0.1191 0.08743,-0.2585 0.08926,-0.2988 0.0057,-0.1259 0.123156,-0.045 0.166199,0.1186 0.02152,0.082 0.05174,0.1941 0.06937,0.2504 0.02267,0.057 0.04877,0.1486 0.06639,0.2049 0.01763,0.056 0.03366,0.2589 0.03001,0.4505 -0.0041,0.3127 0.0087,0.3638 0.124781,0.475 0.188864,0.1751 0.412286,0.1449 0.659964,-0.086 0.147645,-0.1396 0.191593,-0.2184 0.198225,-0.3644 0.0048,-0.1058 0.04829,-0.2855 0.09384,-0.3995 0.04555,-0.114 0.08789,-0.2685 0.09109,-0.339 0.0059,-0.131 0.09979,-0.4194 0.182193,-0.5671 0.02747,-0.049 0.05699,-0.2547 0.06636,-0.4612 0.01006,-0.2216 0.03753,-0.3819 0.07324,-0.3903 0.03067,-0.01 0.06203,-0.1436 0.07416,-0.2995 0.0071,-0.1561 0.03272,-0.276 0.05218,-0.26 0.04899,0.033 0.10667,-0.1264 0.07416,-0.1884 -0.01877,-0.031 -0.0018,-0.071 0.03433,-0.089 0.05173,-0.028 0.08835,-0.1676 0.1181,-0.4892 0.0064,-0.03 0.02793,-0.059 0.05814,-0.058 0.02518,0 0.04144,0.088 0.03183,0.1882 -0.03295,0.3921 0.01859,1.1464 0.100097,1.3519 0.130498,0.3491 0.444123,0.5551 0.509583,0.3361 0.01808,-0.065 0.1172,-0.136 0.250656,-0.1855 0.374959,-0.1444 0.735253,-0.6327 0.844194,-1.1425 0.03296,-0.1701 0.09178,-0.3542 0.124513,-0.4082 0.04944,-0.089 0.113754,-0.3935 0.154486,-0.7348 0.01121,-0.1358 0.156803,-0.1191 0.170773,0.018 0.0078,0.051 0.05907,0.144 0.106684,0.2067 0.05746,0.068 0.100276,0.2367 0.124324,0.4851 0.05955,0.689 0.139471,1.3739 0.185493,1.5829 0.02519,0.1122 0.02817,0.2688 0.0099,0.3386 -0.04394,0.1898 -4.42e-4,0.3432 0.108753,0.3834 0.04945,0.023 0.08859,0.05 0.08768,0.07 -0.02563,0.12 0.0055,0.2122 0.06594,0.215 0.09065,0 0.240354,-0.1809 0.246072,-0.3068 0.0046,-0.1007 0.121544,-0.2316 0.202123,-0.228 0.0554,0 0.22547,-0.2976 0.230501,-0.4084 0.0021,-0.045 0.02953,-0.095 0.06043,-0.1083 0.03113,-0.019 0.04326,-0.064 0.02976,-0.1 -0.0085,-0.036 0.0039,-0.086 0.02495,-0.1049 0.02632,-0.024 0.06661,-0.1332 0.08675,-0.2433 0.03868,-0.185 0.283577,-1.1327 0.372384,-1.4214 0.02335,-0.07 0.06226,-0.1486 0.08378,-0.1779 0.02655,-0.029 0.03319,-0.064 0.0238,-0.08 -0.01442,-0.016 0.01098,-0.1307 0.06225,-0.2596 0.05104,-0.1239 0.08789,-0.2685 0.08011,-0.3194 -0.008,-0.046 0.01373,-0.08 0.04372,-0.074 0.02999,0.01 0.08378,-0.067 0.118343,-0.1611 0.02953,-0.095 0.03753,-0.1598 0.01144,-0.1408 -0.05173,0.028 0.0057,-0.1259 0.08057,-0.2184 0.03182,-0.034 0.05882,-0.1841 0.07049,-0.3299 0.0119,-0.1508 0.03204,-0.261 0.05172,-0.25 0.01465,0.011 0.02106,-0.019 0.0085,-0.075 -0.01259,-0.056 0.03685,-0.1447 0.116279,-0.2268 0.07394,-0.072 0.13986,-0.1905 0.143062,-0.261 0.0032,-0.071 0.08354,-0.2839 0.182883,-0.4711 l 0.177166,-0.3452 0.07098,0.3262 c 0.03732,0.1783 0.116086,0.5553 0.184086,0.8359 0.06296,0.2805 0.127535,0.6367 0.150892,0.7891 0.01832,0.1522 0.05198,0.3001 0.07075,0.3313 0.02404,0.026 0.05793,0.2802 0.0806,0.5587 0.01764,0.2784 0.04764,0.6179 0.07146,0.7603 0.04168,0.3047 0.06,0.5679 0.07559,1.1136 0.02981,1.2328 0.04859,1.3749 0.170156,1.5873 0.140109,0.2486 0.296235,0.3668 0.385738,0.285 0.03159,-0.029 0.118348,-0.05 0.19389,-0.047 0.141013,0.01 0.28225,-0.1032 0.235319,-0.1811 -0.01374,-0.031 0.0034,-0.075 0.04509,-0.1039 0.04166,-0.028 0.09293,-0.1573 0.118795,-0.2822 0.05264,-0.2702 0.289091,-0.6985 0.423233,-0.763 0.0515,-0.023 0.09477,-0.087 0.09683,-0.1319 0.0023,-0.05 0.09179,-0.2431 0.196163,-0.4302 0.109414,-0.1868 0.210813,-0.4193 0.230496,-0.5194 0.01945,-0.095 0.07118,-0.2339 0.114902,-0.3076 0.04372,-0.074 0.0792,-0.1882 0.08263,-0.2638 0.005,-0.1108 0.05219,-0.149 0.172139,-0.1234 0.01992,0.01 0.06272,-0.048 0.09087,-0.1119 0.02815,-0.064 0.07165,-0.133 0.09751,-0.147 0.05677,-0.028 0.719255,-0.058 1.223559,-0.05 0.181531,0 0.692701,-0.029 1.138857,-0.074 0.628603,-0.062 1.07293,-0.067 1.969828,-0.037 0.634787,0.024 1.477201,0.032 1.866588,0.014 0.389158,-0.013 0.970606,-0.037 1.289029,-0.047 0.318422,-0.011 0.828677,-0.023 1.136571,-0.024 0.807618,0 1.297957,-0.022 1.440342,-0.046 0.07096,-0.01 0.263482,-0.023 0.430134,-0.026 0.166651,0 0.404266,-0.012 0.530628,-0.016 0.409989,-0.027 1.772731,-0.031 3.053979,-0.018 0.413653,0 1.004258,2e-4 1.312609,-0.011 0.303543,-0.016 0.7584,-0.031 1.010895,-0.035 0.247459,0 0.732533,-0.017 1.071329,-0.032 0.333532,-0.01 0.631581,-0.017 0.656304,-0.01 0.01992,0.01 0.186797,0 0.369242,-0.019 0.182218,-0.012 1.43737,0.02 2.797367,0.077 2.453306,0.096 3.179659,0.104 3.274427,0.017 0.03136,-0.024 0.203506,-0.036 0.384808,-0.028 0.181303,0.01 0.353447,0 0.384808,-0.028 0.03708,-0.039 0.326203,-0.071 0.618988,-0.073 0.03548,0 0.05151,-0.023 0.03777,-0.054 -0.01396,-0.026 0.0016,-0.035 0.0412,-0.018 0.0396,0.017 0.09042,0.01 0.106903,-0.02 0.02152,-0.029 0.0673,-0.037 0.106675,-0.015 0.05448,0.023 0.07051,0 0.0483,-0.063 -0.01236,-0.061 -0.0066,-0.076 0.01694,-0.04 0.05655,0.088 0.317056,0.1305 0.460585,0.082 0.07691,-0.027 0.254096,-0.039 0.399916,-0.027 0.231207,0.021 0.28752,0 0.393046,-0.098 0.08447,-0.082 0.156574,-0.114 0.210828,-0.086 0.06433,0.028 0.07989,0.019 0.05768,-0.048 -0.01763,-0.056 -0.0011,-0.086 0.04418,-0.084 0.04029,0 0.07669,-0.022 0.07783,-0.047 0.0014,-0.03 -0.04304,-0.052 -0.09844,-0.055 -0.06043,0 -0.102324,0.031 -0.104611,0.081 -0.0032,0.071 -0.01808,0.065 -0.07943,-0.029 -0.06113,-0.099 -0.09089,-0.1101 -0.153606,-0.062 -0.04189,0.033 -0.06524,0.103 -0.05264,0.1591 0.01649,0.082 -0.0082,0.07 -0.108738,-0.05 -0.114922,-0.1365 -0.154526,-0.1534 -0.347273,-0.1319 -0.121554,0.01 -0.231892,-0.01 -0.245858,-0.031 -0.01877,-0.031 -0.05448,-0.023 -0.08653,0.016 -0.03205,0.039 -0.100262,0.096 -0.147188,0.1296 -0.07302,0.052 -0.0831,0.052 -0.05403,-0.033 0.03571,-0.1195 -0.116985,-0.2022 -0.162306,-0.093 -0.02197,0.039 -0.08401,0.072 -0.144215,0.064 -0.100723,0 -0.100495,-0.01 -0.003,-0.046 0.09752,-0.036 0.09775,-0.041 -0.01305,-0.046 -0.06021,-0.01 -0.162301,0.018 -0.219071,0.046 -0.0879,0.046 -0.11812,0.045 -0.130941,-0.01 -0.02656,-0.082 -0.348874,-0.096 -0.38275,-0.017 -0.02243,0.049 -0.0325,0.049 -0.03022,0 -0.003,-0.046 -0.02793,-0.052 -0.09477,-0.024 -0.04647,0.023 -0.19824,0.031 -0.328952,0.02 -0.176038,-0.013 -0.252266,0 -0.290264,0.058 -0.04853,0.068 -0.06364,0.068 -0.125218,-0.021 -0.06135,-0.094 -0.09729,-0.08 -0.08195,0.027 0.0073,0.061 -0.122926,0.04 -0.180616,-0.023 -0.04327,-0.047 -0.104159,-0.04 -0.248145,0.019 -0.205792,0.087 -0.364892,0.034 -0.3285,-0.1007 0.01167,-0.035 -0.02953,-0.016 -0.08767,0.041 -0.06318,0.058 -0.140551,0.094 -0.180154,0.078 -0.0396,-0.017 -0.08539,-0.01 -0.101639,0.016 -0.04349,0.069 -0.242422,0 -0.318656,-0.095 -0.0522,-0.073 -0.05723,-0.073 -0.06066,0 -0.0032,0.071 -0.0238,0.08 -0.09729,0.031 -0.06387,-0.038 -0.09912,-0.04 -0.116061,-3e-4 -0.02289,0.06 -0.387324,0.083 -0.420061,0.026 -0.0092,-0.021 -0.08447,-0.029 -0.155664,-0.017 -0.106675,0.015 -0.126362,0 -0.09363,-0.05 0.038,-0.059 0.03273,-0.054 -0.04533,0 -0.07852,0.062 -0.09866,0.061 -0.135977,-0.01 -0.02335,-0.041 -0.04327,-0.047 -0.04464,-0.017 -0.0043,0.096 -0.201671,0.107 -0.283627,0.023 -0.05746,-0.068 -0.08768,-0.07 -0.13529,-0.021 -0.04761,0.048 -0.04784,0.053 0.0089,0.026 0.05151,-0.023 0.06135,-0.017 0.03434,0.022 -0.02152,0.029 -0.06226,0.037 -0.0918,0.021 -0.0293,-0.022 -0.07028,-0.01 -0.09202,0.026 -0.02701,0.039 -0.06753,0.042 -0.106675,0.015 -0.03937,-0.022 -0.139412,-0.042 -0.23052,-0.036 -0.105989,2e-4 -0.165737,-0.018 -0.164136,-0.053 0.0023,-0.05 -0.01809,-0.046 -0.07554,0 -0.04693,0.033 -0.138264,0.044 -0.223193,0.025 -0.07989,-0.019 -0.165965,-0.013 -0.202819,0.021 -0.05242,0.043 -0.07234,0.037 -0.109424,-0.035 -0.05586,-0.1035 -0.150861,-0.1229 -0.114917,-0.025 0.03114,0.092 -0.330782,0.061 -0.382064,-0.033 -0.02793,-0.052 -0.04327,-0.047 -0.0657,0 -0.02289,0.059 -0.03777,0.054 -0.08035,-0.01 -0.04235,-0.068 -0.05265,-0.063 -0.05608,0.013 -0.0032,0.071 -0.02907,0.084 -0.09843,0.056 -0.05471,-0.018 -0.110567,-0.01 -0.132084,0.019 -0.01648,0.03 -0.057,0.033 -0.08653,0.016 -0.0293,-0.022 -0.07051,0 -0.09729,0.031 -0.0325,0.049 -0.04784,0.053 -0.04555,0 0.0014,-0.03 -0.03755,-0.062 -0.08791,-0.064 -0.07051,0 -0.07509,-0.014 -0.0078,-0.051 0.0467,-0.028 0.05265,-0.048 0.0174,-0.05 -0.03022,0 -0.07669,0.022 -0.0982,0.051 -0.02197,0.039 -0.04693,0.033 -0.07509,-0.013 -0.02793,-0.052 -0.04281,-0.057 -0.04487,-0.012 -0.0016,0.035 -0.03823,0.064 -0.07852,0.062 -0.04029,0 -0.0744,-0.029 -0.07326,-0.054 0.0014,-0.03 -0.01786,-0.051 -0.04807,-0.053 -0.03022,0 -0.03228,0.044 -0.0057,0.1259 0.02656,0.082 0.0245,0.1273 -0.0057,0.1259 -0.03022,0 -0.04922,-0.027 -0.04785,-0.058 0.0016,-0.035 -0.0483,-0.048 -0.124304,-0.041 -0.101638,0.015 -0.126133,-7e-4 -0.122702,-0.076 0.0037,-0.081 -0.01122,-0.086 -0.09889,-0.045 -0.05677,0.028 -0.13277,0.034 -0.167108,0.013 -0.03411,-0.027 -0.0348,-0.012 0.008,0.046 0.05678,0.083 0.05655,0.088 -0.02747,0.049 -0.04968,-0.017 -0.10828,-0.06 -0.127053,-0.092 -0.02358,-0.036 -0.03915,-0.027 -0.04143,0.023 -0.0021,0.045 -0.04967,0.094 -0.105755,0.1062 -0.09179,0.021 -0.124989,-0.026 -0.09959,-0.1408 0.0062,-0.025 -0.02907,-0.026 -0.08035,-0.01 -0.05151,0.023 -0.162987,0.033 -0.243337,0.024 -0.115832,-0.01 -0.13117,-9e-4 -0.057,0.033 0.08905,0.039 0.08882,0.044 0.01191,0.071 -0.04601,0.013 -0.121783,0.015 -0.161387,0 -0.03937,-0.022 -0.07508,-0.014 -0.07646,0.017 -0.0014,0.03 -0.08676,0.021 -0.231436,-0.016 -0.18428,-0.054 -0.234871,-0.051 -0.27264,0 -0.038,0.059 -0.06295,0.053 -0.140327,-0.022 -0.0483,-0.048 -0.111944,-0.091 -0.137125,-0.092 -0.02518,0 -0.01122,0.025 0.0277,0.057 0.0538,0.038 0.0032,0.041 -0.171917,0.01 -0.175122,-0.033 -0.235785,-0.031 -0.212663,0.016 0.02358,0.036 -0.01259,0.055 -0.09317,0.051 -0.07051,0 -0.129798,-0.031 -0.128426,-0.061 0.0011,-0.025 -0.02358,-0.036 -0.05471,-0.018 -0.0309,0.014 -0.147422,0.024 -0.263254,0.018 -0.115603,-0.01 -0.237615,0.01 -0.274241,0.038 -0.03663,0.029 -0.122697,0.035 -0.192747,0.022 -0.06478,-0.018 -0.110567,-0.01 -0.09637,0.011 0.01397,0.026 -0.0021,0.045 -0.02724,0.044 -0.03022,0 -0.05448,-0.023 -0.05357,-0.043 0.0011,-0.025 -0.07348,-0.049 -0.164135,-0.053 -0.08561,0 -0.131398,0 -0.09683,0.021 0.08928,0.034 0.01511,0.1117 -0.100719,0.1064 -0.10576,0 -0.127282,-0.086 -0.02999,-0.1174 0.03594,-0.014 -0.0037,-0.03 -0.08928,-0.034 -0.08035,-0.01 -0.197783,0.021 -0.255011,0.059 -0.05219,0.038 -0.134142,0.065 -0.174432,0.063 -0.05036,0 -0.0396,-0.017 0.02724,-0.044 0.09248,-0.036 0.08767,-0.041 -0.03319,-0.047 -0.07028,-0.01 -0.141928,0.014 -0.153601,0.048 -0.03388,0.079 -0.245853,0.08 -0.241965,-0.01 0.0016,-0.035 -0.04235,-0.068 -0.09775,-0.07 -0.0554,0 -0.102324,0.031 -0.104154,0.071 -0.003,0.065 -0.01808,0.065 -0.106446,0.01 -0.0831,-0.059 -0.108509,-0.055 -0.152228,0.018 -0.03228,0.044 -0.07897,0.072 -0.103468,0.056 -0.02427,-0.021 -0.03274,-0.057 -0.01649,-0.082 0.02129,-0.024 -0.03319,-0.047 -0.11881,-0.051 -0.08058,0 -0.167338,0.018 -0.183819,0.047 -0.02152,0.029 -0.07234,0.037 -0.11194,0.02 -0.04441,-0.022 -0.115603,-0.01 -0.157493,0.023 -0.06272,0.048 -0.07279,0.047 -0.04029,0 0.04899,-0.079 -0.02656,-0.082 -0.110796,-0.01 -0.05265,0.048 -0.07279,0.047 -0.105759,0 -0.0419,-0.078 -0.386185,-0.053 -0.440206,0.025 -0.01625,0.024 -0.06753,0.042 -0.112626,0.035 -0.07051,0 -0.06501,-0.013 0.01717,-0.045 0.08218,-0.032 0.05746,-0.043 -0.09889,-0.045 -0.111025,0 -0.25341,0.024 -0.32071,0.061 -0.0673,0.037 -0.112854,0.04 -0.111482,0.01 0.0011,-0.025 -0.06822,-0.053 -0.148798,-0.057 -0.08561,0 -0.152229,0.018 -0.15383,0.054 -0.0023,0.05 -0.01717,0.045 -0.0451,-0.01 -0.02816,-0.047 -0.08814,-0.06 -0.195039,-0.039 -0.0863,0.011 -0.319109,0.026 -0.52605,0.026 -0.201904,10e-4 -0.535207,0.01 -0.737111,0.01 -0.227086,-2e-4 -0.389844,0.028 -0.416626,0.062 -0.02724,0.044 -0.05265,0.048 -0.07096,0.01 -0.04212,-0.072 -0.339259,-0.086 -0.503618,-0.023 -0.09775,0.041 -0.148108,0.039 -0.19664,0 -0.06776,-0.064 -0.265545,-0.042 -0.385494,0.043 -0.06249,0.043 -0.0673,0.037 -0.02953,-0.016 0.03273,-0.054 0.01808,-0.065 -0.07875,-0.044 -0.06616,0.012 -0.294157,0.032 -0.501326,0.038 -0.20717,0.01 -0.616701,0.023 -0.909943,0.034 -0.293471,0.017 -0.768244,0.026 -1.050956,0.028 -0.287748,0 -0.540472,0.011 -0.556038,0.02 -0.0206,0.01 -0.42464,0.016 -0.893919,0.015 -0.474087,-0.01 -0.928487,0 -1.009523,0 -0.08607,0.01 -0.268519,0.023 -0.405182,0.032 -0.672785,0.035 -1.093532,0.077 -1.134965,0.1 -0.06707,0.032 -0.24795,0.079 -0.52611,0.1995 l -0.331904,0.1018 -0.225118,0.1153 c -0.01007,0.1106 -0.04861,0.057 -0.05502,0.087 -0.0062,0.025 -0.06015,-0.01 -0.05602,0.012 0.0039,0.025 0.03039,0.1077 0.0011,0.086 -0.06364,-0.043 -0.874889,0.7071 -1.095551,1.01 l -0.161377,0.2198 -0.0245,-0.2383 c -0.01402,-0.1369 -0.03097,-0.3194 -0.03692,-0.4105 -0.006,-0.091 -0.04373,-0.2593 -0.08357,-0.3823 -0.03503,-0.1176 -0.0957,-0.3374 -0.129131,-0.4903 -0.03343,-0.1529 -0.07693,-0.3063 -0.100967,-0.3326 -0.01877,-0.031 -0.100047,-0.2417 -0.1756,-0.4672 -0.07555,-0.2255 -0.258018,-0.6527 -0.39584,-0.9516 -0.142857,-0.2992 -0.26557,-0.5975 -0.28297,-0.6588 -0.01214,-0.066 -0.0957,-0.2264 -0.185668,-0.3567 -0.165746,-0.2396 -0.175823,-0.3511 -0.06389,-0.5933 0.03342,-0.069 0.02907,-0.085 -0.01236,-0.061 -0.03617,0.019 -0.06066,0 -0.05883,-0.038 0.0039,-0.086 -0.09958,-0.1408 -0.270816,-0.1486 -0.146049,-0.01 -0.295752,0.1784 -0.395546,0.4867 -0.03593,0.1245 -0.09293,0.2683 -0.115589,0.3228 -0.06707,0.1433 -0.455951,1.1501 -0.54865,1.4133 -0.04097,0.1243 -0.154959,0.4119 -0.256358,0.6445 -0.09636,0.2328 -0.215845,0.5301 -0.267346,0.6641 -0.04646,0.1341 -0.119252,0.2923 -0.157021,0.3461 -0.038,0.059 -0.116051,0.2218 -0.168238,0.3708 -0.09201,0.2482 -0.107808,0.2626 -0.164354,0.1742 -0.038,-0.052 -0.06319,-0.1643 -0.05976,-0.2399 0.0037,-0.081 -0.01191,-0.1822 -0.03481,-0.2337 -0.02312,-0.046 -0.09616,-0.2163 -0.164609,-0.3758 -0.127749,-0.2986 -0.205355,-0.3677 -0.513939,-0.4624 -0.21404,-0.065 -0.409531,0.017 -0.50933,0.214 -0.03342,0.069 -0.135967,0.2159 -0.221577,0.323 -0.251337,0.3116 -0.494202,0.6589 -0.71738,1.0171 -0.11445,0.1866 -0.21677,0.3283 -0.226156,0.3128 -0.0096,-0.011 -0.04579,-0.2141 -0.07511,-0.4576 -0.08587,-0.665 -0.194387,-0.9425 -0.421706,-1.0487 -0.108738,-0.05 -0.156584,-0.108 -0.157961,-0.1888 l 0.005,-0.1108 -0.05036,0.1087 c -0.02815,0.064 -0.08584,0.1122 -0.121092,0.1106 -0.04029,0 -0.112854,0.04 -0.165732,0.093 -0.08469,0.087 -0.08538,0.1021 -0.02013,0.2211 0.07028,0.1193 0.05861,0.1541 -0.227737,0.7921 -0.168237,0.3708 -0.321823,0.7524 -0.346542,0.8522 -0.01945,0.095 -0.05905,0.1891 -0.07965,0.1983 -0.03617,0.019 -0.195476,0.415 -0.261394,0.6442 -0.0062,0.025 -0.06226,0.1485 -0.123374,0.2719 l -0.105979,0.2223 -0.05175,-0.3051 c -0.02771,-0.1678 -0.07556,-0.3365 -0.103945,-0.3782 -0.0712,-0.099 0.01298,-1.6194 0.09058,-1.6613 0.03113,-0.019 0.05562,-0.1135 0.05516,-0.2144 0.0018,-0.1514 0.194094,-0.6069 0.288405,-0.6834 0.04693,-0.033 0.172816,-0.3605 0.153586,-0.3816 -0.01419,-0.021 -0.132308,0.1353 -0.327332,0.4292 -0.0325,0.049 -0.136425,0.226 -0.240116,0.3979 -0.09843,0.1671 -0.196625,0.3292 -0.218142,0.3585 -0.02129,0.024 -0.08263,0.1527 -0.13894,0.2814 -0.05654,0.1336 -0.116737,0.2369 -0.131845,0.2362 -0.02014,-9e-4 -0.01627,-0.3086 6.56e-4,-0.6813 0.02219,-0.3774 0.02126,-0.6904 0.0018,-0.7064 -0.01969,-0.011 -0.02771,-0.2788 -0.01857,-0.5913 0.0091,-0.3125 0.0089,-0.6405 0.0025,-0.7215 -0.0062,-0.086 -0.02062,-0.3239 -0.02635,-0.5311 -0.01077,-0.2074 -0.02611,-0.4251 -0.03871,-0.4812 -0.0076,-0.056 -0.02863,-0.2587 -0.04993,-0.4565 -0.04649,-0.532 -0.128226,-0.7325 -0.287091,-0.6791 -0.05654,0.023 -0.08263,0.2637 -0.133174,1.2656 -0.0789,1.6265 -0.151434,2.4458 -0.27273,3.1165 -0.05401,0.3004 -0.106187,0.6715 -0.112591,0.8125 -0.0082,0.1813 -0.03226,0.266 -0.07759,0.2639 -0.04532,0 -0.06821,0.1685 -0.09589,0.6668 -0.01647,0.3627 -0.02881,0.7456 -0.02308,0.8418 z"
       sodipodi:nodetypes="ccsssccsscscccsssssccccccsccccccccccccccssssccsccccccscccccscsccccccccccsscsccsccsscscccccsccscccccccccscccscccccccccssssccccccsccccsccccccccccscccsccscccccccscsccccccsccccccccsccccsscsccssssssscscccccscccccccscccscscssccsccssscscccscccsssccccsccccscccscsssscccccccccccsccccccccccccccccscscscccccssccccccccsccccccccccccsccccccccccccccscccsccscccccccsscc" />
  </g>
</svg>
