<?xml version="1.0" encoding="UTF-8" standalone="no"?>
<!-- Created with Inkscape (http://www.inkscape.org/) -->

<svg
   xmlns:dc="http://purl.org/dc/elements/1.1/"
   xmlns:cc="http://creativecommons.org/ns#"
   xmlns:rdf="http://www.w3.org/1999/02/22-rdf-syntax-ns#"
   xmlns:svg="http://www.w3.org/2000/svg"
   xmlns="http://www.w3.org/2000/svg"
   xmlns:sodipodi="http://sodipodi.sourceforge.net/DTD/sodipodi-0.dtd"
   xmlns:inkscape="http://www.inkscape.org/namespaces/inkscape"
   width="77.952751"
   height="24.803148"
   id="svg5379"
   version="1.1"
   inkscape:version="0.48.4 r9939"
   sodipodi:docname="logo_script_text.svg"
   inkscape:export-filename="C:\Users\chouteau\Documents\GitHub\Pocket_Open_Source_Synthesizer\media\logo\logo_script_text.png"
   inkscape:export-xdpi="900"
   inkscape:export-ydpi="900">
  <defs
     id="defs5381" />
  <sodipodi:namedview
     id="base"
     pagecolor="#ffffff"
     bordercolor="#666666"
     borderopacity="1.0"
     inkscape:pageopacity="0.0"
     inkscape:pageshadow="2"
     inkscape:zoom="11.2"
     inkscape:cx="47.16476"
     inkscape:cy="4.6672272"
     inkscape:document-units="mm"
     inkscape:current-layer="layer1"
     showgrid="false"
     units="mm"
     inkscape:window-width="1920"
     inkscape:window-height="1018"
     inkscape:window-x="-8"
     inkscape:window-y="-8"
     inkscape:window-maximized="1" />
  <metadata
     id="metadata5384">
    <rdf:RDF>
      <cc:Work
         rdf:about="">
        <dc:format>image/svg+xml</dc:format>
        <dc:type
           rdf:resource="http://purl.org/dc/dcmitype/StillImage" />
        <dc:title></dc:title>
      </cc:Work>
    </rdf:RDF>
  </metadata>
  <g
     inkscape:label="Layer 1"
     inkscape:groupmode="layer"
     id="layer1"
     transform="translate(0,-1027.559)">
    <path
       inkscape:connector-curvature="0"
       id="path12"
       d="m 0.5489064,1037.3642 c 0.0336,0.037 0.15269,0.083 0.2628,0.1028 0.23006,0.046 0.30493,0.1753 0.33448,0.6359 0.0875,1.1849 0.19123,1.9012 0.29745,2.118 0.0462,0.093 0.0852,0.236 0.0817,0.3115 -0.003,0.076 0.025,0.2282 0.0602,0.3409 0.0353,0.1126 0.0582,0.2751 0.0593,0.361 -0.004,0.086 0.0217,0.1877 0.0607,0.2197 0.0389,0.032 0.0746,0.1346 0.0856,0.226 0.022,0.1826 0.13281,0.7428 0.19257,0.9827 0.0263,0.087 0.035,0.3397 0.0248,0.5663 -0.0103,0.2267 -0.004,0.4137 0.0215,0.4148 0.0201,9e-4 0.15201,0.098 0.29325,0.2102 0.26739,0.2241 0.68059,0.4598 0.90494,0.5205 0.15452,0.042 0.2953,-0.057 0.30284,-0.2235 0.003,-0.06 0.0433,-0.1746 0.0872,-0.2534 0.0437,-0.074 0.0838,-0.1779 0.0858,-0.2232 0.002,-0.045 0.025,-0.1048 0.0513,-0.1289 0.0634,-0.063 0.29596,-0.8495 0.30396,-1.0258 0.009,-0.1913 0.34699,-1.0843 0.46533,-1.2455 0.0586,-0.068 0.10232,-0.1417 0.10347,-0.1669 9.1e-4,-0.02 0.0678,-0.1584 0.14534,-0.3113 0.0776,-0.1529 0.18266,-0.3551 0.23233,-0.4487 0.0446,-0.094 0.12636,-0.2264 0.17488,-0.2949 0.0485,-0.068 0.13162,-0.2312 0.18793,-0.3598 0.0565,-0.1337 0.13253,-0.2514 0.16824,-0.2599 0.0359,-0.014 0.0845,-0.082 0.10804,-0.1565 0.0895,-0.3038 0.098,0.065 0.0335,1.2631 -0.0368,0.6998 -0.10157,1.4589 -0.14231,1.6892 -0.0405,0.2253 -0.06,0.4313 -0.051,0.4569 0.014,0.026 0.0215,0.1928 0.0181,0.3793 -0.005,0.343 0.0538,0.4819 0.23192,0.5606 0.0497,0.017 0.0877,0.07 0.0856,0.115 -0.002,0.04 0.0419,0.078 0.0973,0.08 0.0554,0 0.0998,0.025 0.0987,0.05 -0.003,0.06 0.38574,0.2849 0.55101,0.3126 0.0701,0.013 0.15017,0.027 0.1749,0.038 0.18909,0.059 0.37702,-0.1898 0.39211,-0.5222 0.0146,-0.3223 0.24742,-0.892 0.6187,-1.5111 0.0488,-0.073 0.24606,-0.4177 0.37219,-0.6391 0.0552,-0.1035 0.23942,-0.4938 0.40766,-0.8646 0.0227,-0.054 0.0948,-0.1976 0.15588,-0.321 0.0561,-0.1236 0.12428,-0.2921 0.14809,-0.3718 0.024,-0.085 0.0806,-0.2184 0.11948,-0.2973 0.11674,-0.237 0.19822,-0.4755 0.20394,-0.6014 0.003,-0.065 0.0414,-0.1344 0.0879,-0.1575 0.0877,-0.041 0.18174,-0.3349 0.1989,-0.6016 0.004,-0.096 0.0684,-0.2846 0.1403,-0.4226 0.14375,-0.2761 0.25659,-0.6494 0.29572,-0.9555 0.01,-0.1055 0.0421,-0.2605 0.0709,-0.3399 0.035,-0.1044 0.0314,-0.1349 -0.0151,-0.1118 -0.0311,0.019 -0.0561,0.013 -0.0547,-0.018 0.001,-0.025 -0.006,-0.081 -0.0199,-0.1169 -0.0133,-0.041 0.0247,-0.1 0.0968,-0.1319 0.0929,-0.046 0.1474196,-0.1346 0.2021196,-0.339 0.0423,-0.1545 0.095,-0.3136 0.12222,-0.3578 0.022,-0.039 0.0952,-0.2077 0.16298,-0.3661 0.0964,-0.2328 0.1046,-0.3031 0.0556,-0.3356 -0.0488,-0.038 -0.0483,-0.048 -0.003,-0.046 0.0755,0 0.20326,-0.2532 0.26643,-0.5329 0.0385,-0.1799 0.0298,-0.2106 -0.073,-0.2809 -0.0636,-0.043 -0.18219,-0.099 -0.26712,-0.1181 -0.13964,-0.037 -0.17581,-0.018 -0.36191,0.1905 -0.1117096,0.1261 -0.2179196,0.2424 -0.2387496,0.2566 -0.0419,0.033 -0.1568,0.2301 -0.15908,0.2805 -9.2e-4,0.02 0.0249,0.01 0.052,-0.033 0.043,-0.059 0.0527,-0.048 0.0479,0.058 -0.006,0.1309 -0.23943,0.3827 -0.30216,0.3193 -0.0192,-0.021 -0.002,-0.066 0.0295,-0.095 0.0368,-0.034 0.0641,-0.078 0.0652,-0.103 10e-4,-0.025 -0.0348,-0.012 -0.0769,0.027 -0.0526,0.048 -0.0712,0.1229 -0.0556,0.2246 0.0201,0.1119 -0.0142,0.2012 -0.1323,0.3573 -0.26369,0.3615 -0.28613,0.4109 -0.22729,0.4489 0.0391,0.027 0.0261,0.092 -0.04,0.2152 -0.0499,0.099 -0.11354,0.1664 -0.13323,0.1554 -0.0636,-0.043 -0.22456,0.1665 -0.20395,0.2683 0.0126,0.056 0.002,0.1717 -0.027,0.2612 -0.024,0.085 -0.0657,0.2241 -0.0842,0.299 -0.0297,0.1 -0.0616,0.1335 -0.11102,0.111 -0.0396,-0.017 -0.0803,-0.01 -0.0815,0.017 -0.006,0.03 -0.0183,0.07 -0.0247,0.1 -0.006,0.025 -0.0199,0.1051 -0.0281,0.1754 -0.003,0.071 -0.041,0.1243 -0.0813,0.1225 -0.0453,0 -0.0849,0.092 -0.11422,0.2925 -0.0483,0.2855 -0.17326,0.5927 -0.27192,0.6538 -0.0623,0.038 -0.1529,0.3665 -0.16731,0.5728 -0.004,0.086 -0.0549,0.2094 -0.1085,0.2777 -0.0584,0.063 -0.12017,0.2014 -0.14489,0.3012 -0.0247,0.1 -0.0632,0.1687 -0.0877,0.1525 -0.0245,-0.016 -0.046,0.013 -0.0483,0.063 -0.003,0.055 -0.0417,0.1394 -0.0845,0.193 -0.0426,0.049 -0.0824,0.1476 -0.0856,0.2181 -0.008,0.07 -0.033,0.1701 -0.0607,0.2244 -0.0227,0.054 -0.008,-0.606 0.0311,-1.4621 0.0935,-1.9488 0.0926,-2.0397 0.012,-2.0433 -0.0353,0 -0.11836,-0.061 -0.1907,-0.1349 -0.11584,-0.1162 -0.17558,-0.1341 -0.49286,-0.1485 -0.39786,-0.018 -1.00655,0.05 -1.00929,0.1106 -10e-4,0.025 0.0208,0.097 0.0479,0.1687 0.0458,0.103 0.0339,0.1429 -0.0611,0.2344 -0.0634,0.063 -0.15153,0.2253 -0.19823,0.3645 -0.0522,0.149 -0.17144,0.3303 -0.29848,0.4608 -0.11629,0.1158 -0.21289,0.2427 -0.21472,0.2829 -0.002,0.04 -0.0609,0.1184 -0.12429,0.1811 -0.0684,0.062 -0.18221,0.234 -0.2495,0.3823 -0.0673,0.1484 -0.16984,0.2951 -0.22204,0.3331 -0.0572,0.038 -0.10644,0.1213 -0.10918,0.1818 -0.003,0.065 -0.0272,0.1552 -0.0547,0.2044 -0.0272,0.044 -0.0829,0.1577 -0.12223,0.2468 -0.0398,0.099 -0.0822,0.1426 -0.10072,0.1064 -0.0325,-0.062 -0.21586,0.3082 -0.22249,0.4542 -0.002,0.045 -0.0298,0.1 -0.0556,0.1136 -0.0309,0.014 -0.0561,0.1236 -0.0613,0.2394 -0.0144,0.2063 -0.0146,0.2113 -0.0794,0.082 -0.065,-0.1241 -0.065,-0.1241 -0.0749,-0.018 -0.003,0.06 -0.0256,0.12 -0.0465,0.1341 -0.0208,0.014 -0.0769,0.1379 -0.1236,0.277 -0.0936,0.2834 -0.16801,0.3659 -0.15932,0.1745 0.003,-0.071 -0.009,-0.1316 -0.0344,-0.1328 -0.0201,-9e-4 -0.0712,-0.099 -0.11103,-0.222 -0.22299,-0.646 -0.29649,-0.9168 -0.33634,-1.2618 -0.0259,-0.2081 -0.0598,-0.462 -0.0806,-0.5588 -0.0208,-0.097 -0.0334,-0.2639 -0.0289,-0.3646 0.0185,-0.408 -0.21524,-1.2614 -0.35121,-1.2675 -0.0302,-10e-4 -0.0842,-0.034 -0.1179,-0.071 -0.15956,-0.1536 -0.21817,-0.1967 -0.26853,-0.199 -0.0252,-10e-4 -0.0492,-0.027 -0.0481,-0.053 10e-4,-0.03 -0.0733,-0.054 -0.16894,-0.058 -0.0957,0 -0.19024,-0.034 -0.2042,-0.06 -0.0188,-0.031 -0.0485,-0.043 -0.0744,-0.029 -0.0259,0.014 -0.16757,0.023 -0.32392,0.021 -0.21701,3e-4 -0.27332,0.018 -0.27103,0.079 -0.002,0.045 0.0302,0.1124 0.0689,0.1495 z" />
    <path
       inkscape:connector-curvature="0"
       id="path20"
       d="m 10.013486,1042.8709 c 0.0813,0.3216 0.12341,0.3942 0.46474,0.768 0.39925,0.4319 0.65907,0.6002 1.1572,0.7439 0.26898,0.078 0.73689,0.1092 0.96054,0.074 0.20351,-0.036 0.56817,-0.1761 0.57022,-0.2214 0.003,-0.055 0.13941,-0.1804 0.1948,-0.1779 0.0403,0 0.16322,-0.149 0.1552,-0.1948 6.9e-4,-0.015 0.0389,-0.079 0.0925,-0.1472 0.10186,-0.1316 0.12841,-0.2717 0.0405,-0.2252 -0.0311,0.019 -0.0453,0 -0.033,-0.052 0.0128,-0.06 -0.0208,-0.097 -0.0959,-0.1104 -0.0698,-0.018 -0.10576,0 -0.087,0.026 0.014,0.026 -0.008,0.055 -0.0478,0.053 -0.0456,0 -0.0961,0.01 -0.12155,0.01 -0.16803,0.033 -0.47226,0.064 -0.49675,0.048 -0.0149,-0.01 -0.0515,0.023 -0.079,0.072 -0.038,0.059 -0.089,0.072 -0.17878,0.047 -0.0696,-0.023 -0.12041,-0.016 -0.12178,0.015 -10e-4,0.03 -0.0634,0.063 -0.14468,0.074 -0.5336,0.082 -0.97083,0.042 -0.96488,-0.089 0.002,-0.04 -0.0362,-0.092 -0.0852,-0.125 -0.0687,-0.043 -0.0806,-0.1146 -0.0566,-0.4214 0.0144,-0.2063 0.0659,-0.4512 0.11054,-0.5451 0.0449,-0.099 0.0987,-0.2831 0.12497,-0.4182 0.0213,-0.1353 0.0625,-0.2646 0.089,-0.2937 0.0215,-0.029 0.078,-0.163 0.11422,-0.2926 0.0412,-0.1293 0.0813,-0.2335 0.0863,-0.2332 0.005,2e-4 0.0891,0.039 0.18313,0.079 0.43472,0.2064 1.20778,0.186 1.48544,-0.039 0.0577,-0.048 0.13529,-0.09 0.17603,-0.098 0.0408,-0.01 0.1298,-0.08 0.20396,-0.1573 0.0691,-0.078 0.15268,-0.1394 0.1829,-0.138 0.0957,0 0.34886,-0.2365 0.31635,-0.2986 -0.0236,-0.036 -0.008,-0.041 0.0261,-0.019 0.0733,0.054 0.42715,-0.2935 0.58142,-0.5792 0.0657,-0.113 0.11903,-0.2873 0.12337,-0.3829 0.007,-0.1612 -0.0208,-0.2079 -0.2255,-0.3686 -0.12636,-0.1067 -0.32827,-0.2168 -0.45281,-0.2527 -0.22411,-0.066 -1.42478,-0.1858 -2.28574,-0.2299 -0.4029,-0.018 -0.45371,-0.011 -0.47271,0.074 -0.0183,0.07 -0.004,0.086 0.0575,0.068 0.041,-0.013 0.0909,-10e-4 0.10965,0.03 0.0327,0.057 -0.0824,0.1476 -0.16184,0.1188 -0.0545,-0.023 -0.24653,0.2058 -0.39531,0.4816 -0.0604,0.1083 -0.14673,0.2306 -0.19366,0.2638 -0.0469,0.033 -0.0748,0.092 -0.0613,0.1284 0.0131,0.046 -0.0385,0.069 -0.16481,0.073 -0.16185,0.01 -0.18794,0.027 -0.20854,0.147 -0.0137,0.08 -0.005,0.2117 0.022,0.2937 0.0346,0.1277 0.0218,0.1877 -0.0879,0.3795 -0.0872,0.1424 -0.13482,0.1907 -0.13711,0.13 0.004,-0.091 -9.2e-4,-0.091 -0.0456,0 -0.0227,0.054 -0.0325,0.16 -0.0258,0.236 0.0114,0.081 -0.003,0.1715 -0.0396,0.2052 -0.0744,0.082 -0.2403296,0.7359 -0.2448896,0.9477 9.2e-4,0.091 0.041,0.3198 0.0875,0.5187 z m 2.19154,-2.5853 c 0.13207,-0.1302 0.29964,-0.2639 0.38204,-0.3006 0.0774,-0.037 0.22228,-0.116 0.32094,-0.1772 0.17626,-0.103 0.3642,-0.1298 0.36054,-0.049 -0.004,0.086 -0.14146,0.3368 -0.18152,0.3299 -0.0552,-0.01 -0.29689,0.2035 -0.29964,0.264 -10e-4,0.025 -0.0222,0.044 -0.0524,0.043 -0.0252,-10e-4 -0.15474,0.074 -0.29003,0.1634 -0.26576,0.1848 -0.48415,0.2152 -0.47706,0.059 0.003,-0.055 0.1101,-0.2019 0.23715,-0.3324 z" />
    <path
       inkscape:connector-curvature="0"
       id="path24"
       d="m 15.686176,1040.5295 c 0.10576,0.1158 0.13988,0.2536 0.10372,0.3832 -0.006,0.025 -0.0531,0.1692 -0.10003,0.3134 -0.11833,0.3832 -0.17301,1.0317 -0.0876,1.1517 0.033,0.052 0.0643,0.1391 0.0616,0.1996 -0.006,0.136 0.31685,0.6906 0.54807,0.9332 0.10118,0.1056 0.27105,0.2546 0.37841,0.3352 0.1076,0.076 0.20512,0.1506 0.21954,0.1664 0.062,0.079 0.49013,0.32 0.71836,0.406 0.62015,0.2351 1.89453,0.2879 1.97464,0.08 0.0117,-0.035 0.0423,-0.043 0.0668,-0.027 0.11263,0.076 0.36076,-0.2763 0.37174,-0.518 0.007,-0.1662 -0.0355,-0.2186 -0.12408,-0.157 -0.0316,0.029 -0.0829,0.047 -0.10256,0.036 -0.0249,-0.01 -0.13643,0 -0.24814,0.019 -0.43746,0.076 -1.33618,0.086 -1.41402,0.022 -0.0243,-0.021 -0.18336,-0.074 -0.34796,-0.1168 -0.33422,-0.086 -0.73094,-0.3511 -0.80329,-0.5361 -0.0275,-0.062 -0.0476,-0.1737 -0.0446,-0.2392 0.006,-0.1259 0.11809,-0.6002 0.17417,-0.7238 0.0394,-0.089 0.052,-0.144 0.068,-0.2745 0.0254,-0.2259 0.0762,-0.2337 0.51415,-0.098 0.45806,0.1369 0.82616,0.1435 1.03882,0.017 0.0673,-0.037 0.15452,-0.069 0.18977,-0.067 0.0403,0 0.11285,-0.04 0.16573,-0.093 0.0529,-0.053 0.12544,-0.095 0.1607,-0.094 0.0655,0 0.29644,-0.1935 0.65101,-0.5558 0.10071,-0.1065 0.17534,-0.1939 0.17076,-0.2042 -0.0192,-0.021 0.16275,-0.25 0.28933,-0.3704 0.3532,-0.3322 0.66634,-0.8933 0.68143,-1.2257 0.0128,-0.282 -0.0625,-0.4015 -0.37568,-0.6176 -0.13232,-0.087 -0.13735,-0.087 -0.94612,-0.2802 -0.47959,-0.1075 -1.24921,-0.1627 -1.86133,-0.1299 -0.1417,0.01 -0.33192,0.1969 -0.29598,0.2944 0.0135,0.036 0.0346,0.017 0.0577,-0.048 0.0346,-0.094 0.18153,-0.1078 0.17718,-0.012 -0.003,0.06 -0.29644,0.1934 -0.3349,0.1513 -0.0243,-0.021 -0.0247,-0.011 -0.011,0.02 0.0137,0.031 -0.103,0.1568 -0.25523,0.2862 -0.15726,0.1291 -0.27858,0.2447 -0.26393,0.2555 0.0433,0.047 -0.0955,0.2126 -0.15496,0.1897 -0.0346,-0.017 -0.0664,0.017 -0.0742,0.077 -0.003,0.06 -0.0355,0.1145 -0.0661,0.1232 -0.0256,0.01 -0.0526,0.048 -0.0545,0.088 -0.002,0.04 -0.0385,0.069 -0.0787,0.067 -0.0453,0 -0.0925,0.036 -0.10965,0.081 -0.0174,0.05 -0.0565,0.1337 -0.0792,0.1882 -0.0277,0.054 -0.057,0.1437 -0.0696,0.1987 -0.0249,0.1048 -0.0909,0.1119 -0.41022,0.032 -0.15978,-0.037 -0.18519,-0.034 -0.18381,0.047 -0.002,0.055 0.0485,0.1536 0.11584,0.2273 z m 1.71688,0.3101 c 0.0208,-0.014 0.0609,-0.1184 0.0813,-0.2335 0.0201,-0.1101 0.0822,-0.2537 0.14009,-0.3065 0.0581,-0.058 0.1291,-0.1758 0.1529,-0.2555 0.024,-0.085 0.13276,-0.2564 0.2447,-0.3876 0.11697,-0.1309 0.20853,-0.258 0.20967,-0.2832 0.004,-0.086 0.48071,-0.4727 0.57639,-0.4683 0.0201,9e-4 0.0836,0.049 0.14652,0.1075 0.063,0.058 0.15154,0.1078 0.20694,0.1104 0.0504,0 0.089,0.039 0.0872,0.08 -0.002,0.04 -0.0286,0.074 -0.0538,0.073 -0.0302,-0 -0.0515,0.023 -0.0531,0.058 -0.001,0.03 -0.0346,0.094 -0.0767,0.1327 -0.0424,0.043 -0.0868,0.1324 -0.10506,0.2022 -0.0133,0.07 -0.0144,0.095 -0.003,0.06 0.0165,-0.03 0.0481,-0.058 0.0732,-0.057 0.0252,10e-4 0.0467,-0.028 0.0485,-0.068 0.002,-0.035 0.0396,-0.094 0.0815,-0.1275 0.0941,-0.071 0.0936,-0.061 0.0131,0.157 -0.0396,0.094 -0.13643,0.226 -0.2154,0.2981 -0.084,0.072 -0.1536,0.1595 -0.15543,0.1998 -0.002,0.04 -0.0391,0.084 -0.0803,0.1024 -0.041,0.013 -0.0783,0.057 -0.0801,0.097 -0.002,0.04 -0.0774,0.1478 -0.16206,0.2348 -0.0897,0.087 -0.15749,0.1342 -0.15634,0.109 0.001,-0.025 -0.0872,0.031 -0.19755,0.1273 -0.19984,0.1776 -0.51414,0.3198 -0.68537,0.312 -0.0655,0 -0.0941,-0.04 -0.0902,-0.1252 0.003,-0.071 0.0263,-0.135 0.0522,-0.149 z" />
    <path
       inkscape:connector-curvature="0"
       id="path26"
       d="m 25.683566,1043.638 c 0.0394,0.022 0.0728,0.064 0.0712,0.099 -0.004,0.091 0.32347,0.2115 0.54574,0.2064 0.34384,-0.015 0.54047,-0.1218 0.64141,-0.3443 0.0508,-0.1188 0.092,-0.2482 0.0943,-0.2985 0.002,-0.045 0.019,-0.085 0.0442,-0.084 0.0554,0 0.23463,-0.388 0.27422,-0.5931 0.0195,-0.095 0.0922,-0.2532 0.16206,-0.3459 0.0755,-0.1076 0.13871,-0.2764 0.16228,-0.462 0.0222,-0.1554 0.0758,-0.3347 0.12382,-0.3931 0.0433,-0.064 0.0835,-0.1728 0.0872,-0.2534 0.003,-0.076 0.0675,-0.2644 0.14031,-0.4226 0.0726,-0.1531 0.16526,-0.4164 0.20806,-0.581 0.0428,-0.1646 0.1014,-0.3436 0.13413,-0.3976 0.0327,-0.054 0.0909,-0.223 0.12795,-0.3727 0.043,-0.1696 0.0982,-0.2731 0.13848,-0.2713 0.0504,0 0.065,0.1241 0.0577,0.5073 -0.002,0.2775 0.004,0.6916 0.0186,0.9244 0.0147,0.2328 0.0204,0.662 0.0119,0.9594 -0.01,0.3276 0.01,0.5656 0.0428,0.6126 0.0476,0.063 0.0424,0.067 -0.007,0.035 -0.054,-0.033 -0.0659,0.01 -0.0696,0.1987 -0.005,0.3429 -0.0123,0.3829 -0.0661,0.3452 -0.0293,-0.022 -0.052,0.033 -0.0559,0.1185 -0.004,0.086 0.0131,0.1571 0.0382,0.1582 0.0604,0 0.44,0.4237 0.43725,0.4842 -9.1e-4,0.02 0.0284,0.042 0.0636,0.043 0.0353,0 0.10897,0.045 0.16185,0.1032 0.13026,0.1321 0.38482,0.1941 0.51392,0.1293 0.13392,-0.059 0.20511,-0.1824 0.31154,-0.5258 0.0471,-0.1493 0.11971,-0.3024 0.15679,-0.3411 0.0421,-0.038 0.0989,-0.1772 0.11994,-0.3075 0.0261,-0.13 0.092,-0.3591 0.15449,-0.5127 0.0572,-0.1488 0.11239,-0.3633 0.11742,-0.4741 0.005,-0.1108 0.0517,-0.25 0.10002,-0.3134 0.0538,-0.073 0.0902,-0.2079 0.0922,-0.3642 0.003,-0.1715 0.0268,-0.2562 0.0831,-0.2738 0.046,-0.013 0.0748,-0.092 0.0801,-0.2083 0.01,-0.2166 0.12154,-0.4538 0.20715,-0.4499 0.0655,0 0.16343,-0.4871 0.13045,-0.6501 -0.0128,-0.051 0.0105,-0.1206 0.0524,-0.1541 0.0836,-0.062 0.10324,-0.1618 0.0256,-0.1199 -0.0309,0.014 -0.0506,0 -0.0495,-0.022 0.001,-0.03 0.0327,-0.054 0.073,-0.052 0.0755,0 0.26598,-0.5229 0.28886,-0.8044 0.005,-0.1058 0.0272,-0.1553 0.046,-0.1241 0.0185,0.036 0.0387,0.037 0.0398,0.012 0.001,-0.03 0.0263,-0.1351 0.0561,-0.2347 0.0302,-0.1096 0.0334,-0.1801 0.007,-0.1611 -0.0259,0.014 -0.0417,-0.083 -0.036,-0.2086 0.006,-0.141 0.0302,-0.2206 0.0595,-0.1991 0.0245,0.016 0.0506,0 0.0526,-0.048 0.002,-0.04 0.0343,-0.089 0.0753,-0.1026 0.0513,-0.018 0.0808,-0.1124 0.0936,-0.2834 0.0249,-0.3269 0.0673,-0.7035 0.084,-0.738 0.006,-0.015 0.0121,-0.045 0.008,-0.07 -0.0224,-0.1726 0.0126,-0.4991 0.0652,-0.5471 0.0316,-0.029 0.0591,-0.078 0.0602,-0.1033 10e-4,-0.03 -0.0504,0 -0.10896,0.066 -0.0902,0.097 -0.10049,0.1014 -0.0716,0.022 0.0277,-0.054 0.0577,-0.1589 0.0765,-0.2387 0.0135,-0.075 0.0465,-0.1342 0.0666,-0.1333 0.0201,9e-4 0.0531,-0.058 0.0716,-0.133 0.0311,-0.1298 0.0261,-0.13 -0.0435,-0.042 -0.1069,0.1314 -0.0906,0 0.0172,-0.1557 0.07,-0.098 0.076,-0.1176 0.0201,-0.1101 -0.14239,0.024 -0.036,-0.2085 0.17991,-0.4056 0.16848,-0.1539 0.20647,-0.2127 0.16321,-0.2601 -0.0433,-0.047 -0.0948,-0.024 -0.21129,0.096 -0.0849,0.092 -0.17076,0.2042 -0.18839,0.2589 -0.0227,0.054 -0.0542,0.083 -0.0787,0.067 -0.0195,-0.016 -0.0941,0.071 -0.16023,0.1946 -0.0661,0.1232 -0.14169,0.2308 -0.16779,0.2498 -0.0259,0.014 -0.0485,0.068 -0.051,0.1238 -0.003,0.055 -0.0291,0.084 -0.0536,0.068 -0.0293,-0.021 -0.0517,0.028 -0.0558,0.1186 -0.004,0.081 -0.0275,0.1603 -0.0533,0.1742 -0.0467,0.028 -0.1236,0.277 -0.0833,0.2788 0.0403,0 0.34061,-0.6103 0.31725,-0.6517 -0.014,-0.026 0.002,-0.035 0.0417,-0.028 0.0398,0.012 0.0613,-0.017 0.0543,-0.083 -0.008,-0.056 0.004,-0.081 0.0229,-0.06 0.0192,0.021 0.0712,-0.012 0.10919,-0.071 0.0655,-0.108 0.0655,-0.108 0.0483,0.048 -0.009,0.085 -0.0369,0.1447 -0.0611,0.1234 -0.0245,-0.016 -0.0357,0.01 -0.0176,0.055 0.0131,0.046 0.0115,0.081 -0.009,0.08 -0.095,-0.02 -0.12636,0 -0.063,0.053 0.049,0.033 0.0531,0.053 0.008,0.051 -0.0302,-10e-4 -0.0625,0.043 -0.0652,0.103 -0.002,0.055 -0.0243,0.09 -0.0437,0.074 -0.0245,-0.016 -0.0831,0.052 -0.13276,0.1454 -0.1101,0.2019 -0.11674,0.2369 -0.0389,0.19 0.0723,-0.037 -0.0428,0.1646 -0.15954,0.2905 -0.0687,0.068 -0.076,0.1177 -0.0359,0.2355 0.0398,0.123 0.0339,0.1429 -0.0254,0.115 -0.0396,-0.017 -0.0957,0 -0.1227,0.035 -0.0755,0.1076 -0.0618,0.1385 0.0499,0.1233 0.0609,-0.01 0.0907,0 0.0742,0.034 -0.0213,0.024 -0.052,0.033 -0.0765,0.017 -0.0195,-0.016 -0.057,0.033 -0.0806,0.1074 -0.0188,0.08 -0.0675,0.1534 -0.0987,0.1722 -0.0467,0.028 -0.0428,0.054 0.0108,0.096 0.0634,0.048 0.0632,0.053 -0.0114,0.03 -0.0446,-0.017 -0.0959,7e-4 -0.11286,0.04 -0.0506,0.1137 -0.0423,0.1545 0.0169,0.071 0.027,-0.039 0.063,-0.053 0.0774,-0.037 0.0192,0.021 0.0121,0.066 -0.01,0.1005 -0.0268,0.034 -0.0401,0.1041 -0.0325,0.16 0.003,0.056 -0.0137,0.08 -0.043,0.059 -0.0293,-0.022 -0.0549,-0.013 -0.0561,0.013 -10e-4,0.03 0.0277,0.057 0.0577,0.063 0.0352,0 0.0142,0.021 -0.0524,0.043 -0.0616,0.022 -0.11422,0.071 -0.11582,0.1057 -0.002,0.045 0.0131,0.046 0.0508,-0.01 0.0433,-0.064 0.0533,-0.063 0.0501,0.01 -0.002,0.045 -0.0497,0.094 -0.10576,0.1063 -0.0561,0.013 -0.10369,0.061 -0.10575,0.1062 -0.003,0.055 0.0217,0.077 0.073,0.059 0.0613,-0.017 0.0659,-0.01 0.007,0.071 -0.0327,0.054 -0.0801,0.097 -0.10026,0.096 -0.0353,0 -0.0948,0.1975 -0.12062,0.4336 -0.009,0.085 -0.032,0.1499 -0.0515,0.1339 -0.049,-0.033 -0.1101,0.2019 -0.0799,0.3143 0.0169,0.071 0.0167,0.076 -0.0211,0.019 -0.033,-0.052 -0.06,-0.013 -0.0975,0.147 -0.0762,0.3447 -0.0794,0.4152 -0.0368,0.4777 0.0474,0.068 -0.005,0.2319 -0.0643,0.1939 -0.0197,-0.011 -0.0268,0.034 -0.0147,0.1003 0.0149,0.1167 -0.027,0.1501 -0.16207,0.1238 -0.0201,-9e-4 -0.0362,0.019 -0.0373,0.044 -10e-4,0.03 0.0279,0.052 0.0579,0.058 0.0353,0 0.014,0.026 -0.0529,0.053 -0.0668,0.027 -0.10965,0.081 -0.0959,0.1117 0.009,0.036 -0.009,0.09 -0.041,0.1243 -0.0368,0.034 -0.0375,0.049 -0.007,0.035 0.0362,-0.019 0.0442,0.027 0.0245,0.1273 -0.0199,0.1051 -0.0412,0.1293 -0.0694,0.083 -0.0327,-0.057 -0.043,-0.052 -0.0462,0.018 -0.002,0.05 -0.041,0.1243 -0.0831,0.1628 -0.0687,0.067 -0.11056,0.212 -0.0959,0.3337 0.004,0.025 -0.0213,0.024 -0.0508,0.01 -0.0293,-0.022 -0.0403,-0.1128 -0.0261,-0.203 0.0144,-0.095 0.007,-0.1561 -0.0135,-0.147 -0.0208,0.014 -0.043,-0.052 -0.044,-0.1433 -9.2e-4,-0.091 -0.004,-0.2474 -0.0147,-0.3438 -0.0208,-0.3189 0.043,-1.3909 0.12925,-2.0683 0.11739,-0.9182 0.14048,-1.5378 0.0608,-1.7837 -0.0353,-0.1126 -0.0582,-0.2752 -0.0591,-0.366 0.006,-0.136 -0.0176,-0.1674 -0.18132,-0.2303 -0.0991,-0.04 -0.36467,-0.082 -0.58603,-0.097 -0.22136,-0.015 -0.46218,-0.046 -0.53681,-0.07 -0.11927,-0.041 -0.14536,-0.022 -0.27469,0.1591 -0.14559,0.2053 -0.26232,0.4423 -0.22203,0.4441 0.0151,7e-4 0.0746,-0.087 0.13482,-0.1907 0.0604,-0.1083 0.13574,-0.2108 0.16664,-0.2246 0.0311,-0.019 0.0133,0.041 -0.0412,0.1294 -0.0547,0.093 -0.10438,0.187 -0.11079,0.217 -0.0302,0.1096 -0.16434,0.3962 -0.1957,0.4201 -0.0208,0.014 -0.0552,0.1034 -0.0796,0.1982 -0.0245,0.095 -0.065,0.209 -0.092,0.2482 -0.087,0.1373 -0.0478,-0.058 0.0723,-0.3702 0.13711,-0.3521 0.13825,-0.3773 0.0426,-0.3816 -0.0453,0 -0.0618,0.027 -0.0488,0.073 0.0133,0.041 -0.0302,0.2207 -0.0936,0.3944 -0.0687,0.1786 -0.12246,0.3628 -0.12474,0.4132 -0.003,0.065 -0.0135,0.075 -0.0414,0.023 -0.0515,-0.088 -0.18999,0.2942 -0.14992,0.4121 0.0268,0.077 0.0421,0.073 0.10209,-0.026 0.0382,-0.064 0.078,-0.163 0.0806,-0.2184 0.003,-0.055 0.0314,-0.1349 0.0584,-0.174 0.0428,-0.054 0.0515,-0.023 0.0446,0.1282 -0.005,0.1108 -0.0117,0.2568 -0.0146,0.3223 -0.003,0.071 -0.0263,0.1351 -0.0471,0.1493 -0.0208,0.014 -0.0389,0.079 -0.0366,0.1396 0.002,0.066 -0.0197,0.1 -0.049,0.079 -0.0343,-0.022 -0.0405,0 -0.0181,0.065 0.0179,0.051 0.0167,0.077 -0.008,0.055 -0.0575,-0.068 -0.24903,0.5943 -0.2877,1.0013 -0.0195,0.206 -0.0636,0.4008 -0.10071,0.4395 -0.0371,0.039 -0.0492,0.084 -0.035,0.1044 0.0195,0.016 -0.004,0.091 -0.0426,0.1596 -0.082,0.1375 -0.2591,0.7048 -0.31334,1.0102 -0.0481,0.2804 -0.17395,0.6078 -0.23003,0.6204 -0.0359,0.014 -0.009,-0.1317 0.0561,-0.3457 0.11765,-0.3681 0.12518,-0.7564 0.011,-0.5748 -0.0272,0.044 -0.0588,0.184 -0.0696,0.3097 -0.0105,0.1206 -0.0403,0.2202 -0.0604,0.2193 -0.0252,-10e-4 -0.0371,0.039 -0.0291,0.085 0.003,0.051 -0.0105,0.1206 -0.032,0.1499 -0.0268,0.034 -0.0281,0.064 -0.003,0.065 0.0201,0 0.0142,0.021 -0.0169,0.04 -0.0934,0.056 -0.31107,0.7379 -0.28245,0.8855 0.0211,0.092 0.009,0.1266 -0.0247,0.1 -0.0293,-0.022 -0.0408,0.01 -0.0284,0.069 0.0124,0.061 -0.005,0.1007 -0.0449,0.099 -0.0353,0 -0.046,0.013 -0.0316,0.029 0.0142,0.021 -0.004,0.081 -0.0467,0.1392 -0.0428,0.054 -0.0815,0.1275 -0.0833,0.1678 -0.002,0.035 -0.0526,0.1591 -0.11307,0.2674 -0.1323,0.2463 -0.15289,0.4775 -0.049,0.5226 z" />
    <path
       inkscape:connector-curvature="0"
       id="path28"
       d="m 32.244756,1043.0679 c 0.1266,0.2127 0.19962,0.2715 0.5556,0.434 0.24242,0.1069 0.39351,0.1137 0.58923,0.027 0.0826,-0.042 0.1742,-0.058 0.1987,-0.041 0.16643,0.1135 1.19445,-0.7431 1.27479,-1.0675 0.0185,-0.075 0.0957,-0.2177 0.17098,-0.3203 0.20419,-0.2733 0.21172,-0.6615 0.0247,-1.21 -0.0804,-0.2308 -0.1859,-0.4626 -0.23397,-0.5153 -0.0721,-0.079 -0.0794,-0.1399 -0.0467,-0.3049 0.0254,-0.1149 0.0499,-0.2097 0.0549,-0.2095 0,0 0.0721,-0.032 0.15978,-0.073 0.0826,-0.042 0.28156,-0.088 0.43379,-0.1064 0.30423,-0.032 0.34979,-0.035 0.36581,-0.054 0.0103,-0.01 0.12178,-0.015 0.25318,-0.019 l 0.24242,0 -0.0146,0.2113 c -0.0224,0.3825 -0.25862,1.1388 -0.40741,1.3037 -0.0265,0.029 -0.0602,0.1032 -0.073,0.1632 -0.0128,0.06 -0.0359,0.1245 -0.0568,0.1387 -0.0211,0.019 -0.0385,0.069 -0.0403,0.1092 -0.002,0.04 -0.0398,0.099 -0.0865,0.1273 -0.0678,0.047 -0.0641,0.078 0.0641,0.2552 0.076,0.1044 0.23511,0.2681 0.35209,0.3592 0.11698,0.091 0.21885,0.1815 0.23304,0.2023 0.0332,0.047 0.25434,0.1781 0.3292,0.1967 0.0749,0.019 0.24447,-0.1605 0.32344,-0.3437 0.0391,-0.084 0.0817,-0.3546 0.10299,-0.6009 0.0165,-0.2516 0.0469,-0.4773 0.0632,-0.5018 0.0648,-0.093 0.0879,-0.8236 0.0418,-1.1436 -0.0392,-0.2491 -0.0799,-0.3519 -0.19598,-0.4631 -0.29966,-0.2912 -0.85479,-0.4022 -1.5555,-0.3078 -0.16734,0.018 -0.61327,0.058 -0.98777,0.081 -0.87034,0.051 -1.06332,0.078 -1.20868,0.1671 -0.12979,0.08 -0.15519,0.1948 -0.0444,0.1999 0.1108,0 0.0941,0.04 -0.11833,0.2721 -0.10622,0.1163 -0.19778,0.2434 -0.20442,0.2784 -0.007,0.035 -0.0403,0.1092 -0.073,0.1632 -0.0277,0.054 -0.10094,0.2226 -0.15816,0.3714 -0.0572,0.1487 -0.1204,0.3175 -0.14306,0.3719 -0.12932,0.2919 -0.16571,0.4265 -0.2156,0.7472 -0.10779,0.7067 -0.10023,0.8736 0.0305,1.1066 z m 0.83368,-0.6889 c 0.1268,-0.4585 0.21332,-0.6968 0.24857,-0.6952 0.0252,10e-4 0.0417,-0.028 0.0435,-0.069 0.005,-0.1057 0.21539,-0.5201 0.29986,-0.602 0.0684,-0.062 0.0829,-0.047 0.10553,0.1208 0.0309,0.2083 0.0181,0.6014 -0.0226,0.7206 -0.0119,0.04 -0.0623,0.1486 -0.11696,0.242 -0.12086,0.2166 -0.12223,0.2468 4.6e-4,0.101 0.13872,-0.1653 0.28567,-0.5119 0.29413,-0.6982 0.004,-0.086 0.0217,-0.1454 0.0359,-0.1246 0.0385,0.042 0.0284,0.4858 -0.0107,0.4588 -0.0195,-0.016 -0.0531,0.058 -0.0776,0.1529 -0.0197,0.1 -0.0529,0.1641 -0.0673,0.1483 -0.0144,-0.016 -0.0732,0.057 -0.12338,0.161 -0.0552,0.1034 -0.18381,0.2692 -0.2843,0.3706 -0.1053,0.096 -0.19068,0.1983 -0.19159,0.2184 -9.2e-4,0.02 -0.0584,0.063 -0.13025,0.09 -0.12339,0.05 -0.12842,0.05 -0.0936,-0.1607 0.0153,-0.1154 0.0595,-0.3102 0.0904,-0.4349 z" />
    <path
       inkscape:connector-curvature="0"
       id="path32"
       d="m 37.094766,1036.9496 c 0.0387,0.037 0.11767,0.076 0.17284,0.084 0.0602,0.01 0.16688,0.1035 0.2477,0.2132 0.23763,0.3236 0.53957,0.4534 0.86188,0.357 0.18932,-0.057 0.23279,-0.5698 0.0712,-0.7891 -0.16666,-0.2195 -0.51898,-0.5736 -0.58445,-0.5766 -0.0302,-10e-4 -0.1037,-0.05 -0.15658,-0.108 -0.15865,-0.1738 -0.30309,-0.1046 -0.50567,0.2445 -0.19181,0.3345 -0.21813,0.4695 -0.10688,0.5755 z" />
    <path
       inkscape:connector-curvature="0"
       id="path36"
       d="m 37.742826,1042.0155 c 0.0224,0.062 0.11332,0.1717 0.20077,0.2464 0.2287,0.187 0.1993,0.029 0.52779,0.018 0.13779,-0.1789 0.47008,-0.7425 0.70676,-1.0648 0.56006,-1.0558 1.40725,-1.5952 1.32342,-1.1933 l -0.11796,0.5656 -0.11861,0.6742 c -0.13791,0.876 -0.0979,0.9343 -0.23391,0.9281 -0.0353,0 -0.0742,-0.034 -0.0874,-0.075 -0.0401,-0.1179 -0.20488,-0.045 -0.30903,0.1373 -0.12086,0.2166 -0.13755,0.5842 -0.0393,0.7552 0.11722,0.1971 0.34064,0.2779 0.78451,0.2829 0.33811,3e-4 0.40931,-0.012 0.57114,-0.1305 0.10439,-0.076 0.24471,-0.1655 0.31682,-0.1975 0.0673,-0.037 0.14673,-0.1195 0.17488,-0.1839 0.0281,-0.064 0.0861,-0.1172 0.12636,-0.1153 0.13597,0.01 0.65353,-0.5003 0.7499,-0.7331 0.0453,-0.1089 0.15428,-0.064 0.36627,0.158 0.33744,0.3484 0.81565,0.4862 1.0013,0.2877 0.0321,-0.039 0.10392,-0.066 0.15428,-0.064 0.0554,0 0.0973,-0.031 0.0991,-0.071 0.002,-0.04 0.0336,-0.074 0.0639,-0.073 0.0453,0 0.0412,-0.018 -0.008,-0.051 -0.0392,-0.027 -0.17398,-0.058 -0.29988,-0.064 -0.43792,-0.025 -0.43792,-0.025 -0.41619,-0.5034 0.0105,-0.2317 0.0394,-0.4221 0.0645,-0.421 0.0252,0 0.0371,-0.039 0.0195,-0.095 -0.0124,-0.061 0.005,-0.1057 0.0561,-0.1236 0.041,-0.013 0.0785,-0.062 0.0803,-0.1023 0.002,-0.045 0.0231,-0.065 0.0526,-0.048 0.0245,0.016 0.0506,0 0.0524,-0.043 0.002,-0.045 0.0238,-0.08 0.054,-0.078 0.0705,0 0.0577,0.063 -0.0339,0.1902 -0.0694,0.083 -0.0703,0.1028 -0.0137,0.08 0.041,-0.013 0.10071,-0.1064 0.14077,-0.2106 0.0353,-0.1094 0.11033,-0.2069 0.1774,-0.2392 0.0668,-0.027 0.0881,-0.052 0.0478,-0.053 -0.0401,-0.01 0.0483,-0.034 0.12661,-0.091 0.073,-0.052 0.18308,-0.2106 0.3467,-0.4469 0.12001,-0.2577 0.0144,-0.4651 -0.10993,-0.2841 -0.0122,0.1355 -0.0614,0.071 -0.27182,0.3826 -0.0977,0.1445 -0.20085,0.2496 -0.37894,0.3929 -0.26759,0.225 -0.28666,0.2927 -0.45288,0.2684 -0.0508,-0.1033 0.0707,-0.3679 0.16704,-0.4897 0.0426,-0.049 0.0815,-0.1275 0.0835,-0.1728 0.002,-0.045 0.13963,-0.1854 0.30193,-0.3143 0.1671,-0.1236 0.3191,-0.2479 0.33535,-0.2724 0.0211,-0.019 0.0817,-0.021 0.14124,0 0.0598,0.018 0.1053,0.015 0.10668,-0.015 10e-4,-0.025 -0.0426,-0.062 -0.0971,-0.085 -0.1092,-0.04 -0.5549,-0.01 -0.55719,0.045 -6.8e-4,0.015 -0.0733,0.057 -0.16069,0.094 -0.18496,0.072 -0.70573,0.5382 -0.75746,0.6771 -0.0227,0.054 -0.06,0.098 -0.0851,0.097 -0.0655,0 -0.21081,0.3084 -0.2179,0.4645 -0.003,0.065 -0.0362,0.1296 -0.0719,0.1381 -0.041,0.013 -0.0721,0.143 -0.0874,0.3694 l -0.0208,0.3473 -0.28065,0.179 c -0.15085,0.099 -0.31223,0.2079 -0.35916,0.2411 -0.0471,0.038 -0.13483,0.08 -0.19618,0.097 -0.0611,0.012 -0.10804,0.046 -0.10919,0.071 -10e-4,0.025 -0.18724,0.1227 -0.40883,0.2237 -0.2264,0.096 -0.4006,0.1533 -0.38412,0.1238 0.0114,-0.03 0.0401,-0.2152 0.0588,-0.4061 0.13066,-1.0992 0.15904,-1.2796 0.19933,-1.2778 0.0201,9e-4 0.0444,-0.089 0.0494,-0.1996 0.005,-0.1108 0.0293,-0.2006 0.0545,-0.1994 0.0604,0 0.13116,-0.2212 0.15908,-0.5025 0.0108,-0.1257 0.0481,-0.2804 0.081,-0.3395 0.0872,-0.1424 0.008,-0.2873 -0.19071,-0.3569 -0.31293,-0.11 -0.28939,-0.035 -0.42489,0 -0.14543,0.092 -0.20025,0.1523 -0.53312,0.3453 -0.34853,0.1816 -0.4385,0.3238 -0.73067,0.513 -0.14559,0.1242 -0.23051,0.177 -0.48322,0.5188 -0.0913,0.122 -0.1051,0.1388 -0.21369,0.2881 -0.17333,0.1727 -0.23427,0.3063 -0.30089,0.3748 -0.21402,0.2679 -0.32458,0.3688 -0.42622,0.3844 -0.11675,0.015 -0.14353,0.049 -0.15909,0.1694 -0.009,0.085 9.2e-4,0.2019 0.0236,0.2585 z"
       sodipodi:nodetypes="ccccsccsccccccsscccsssccssccscssccccccccscccscccscsccssccccccscccssscccccccccccc" />
    <path
       inkscape:connector-curvature="0"
       id="path44"
       d="m 48.587356,1043.1388 c 0.12362,0.1671 0.42579,0.1808 0.63433,0.034 0.1671,-0.1236 0.46102,-0.4837 0.59378,-0.7401 0.0497,-0.094 0.20417,-0.3844 0.34197,-0.6405 0.1378,-0.2562 0.2598,-0.4979 0.26666,-0.538 0.0119,-0.04 0.0391,-0.084 0.065,-0.098 0.0259,-0.014 0.0659,-0.1181 0.0911,-0.228 0.0201,-0.1101 0.0588,-0.2951 0.0794,-0.4153 0.0254,-0.1149 0.0657,-0.2241 0.0865,-0.2383 0.0259,-0.014 0.049,-0.079 0.0522,-0.149 0.003,-0.071 0.0549,-0.2094 0.11536,-0.3177 0.0604,-0.1083 0.14009,-0.3066 0.17671,-0.4462 0.0369,-0.1447 0.10025,-0.3184 0.14374,-0.3871 0.0437,-0.074 0.0794,-0.1932 0.0829,-0.2687 0.007,-0.1461 0.1545,-0.5128 0.24537,-0.6248 0.032,-0.039 0.0602,-0.1032 0.0673,-0.1483 0.0156,-0.1204 0.2076,-0.5709 0.27078,-0.6286 0.0316,-0.029 0.0343,0.022 -0.002,0.1513 -0.0252,0.1099 -0.057,0.4768 -0.0723,0.8142 -0.0153,0.3375 -0.0428,0.6087 -0.0622,0.5927 -0.0146,-0.011 -0.0327,0.054 -0.032,0.15 -0.004,0.096 -0.0231,0.1755 -0.0382,0.1748 -0.0353,0 -0.0217,0.2564 0.0169,0.2935 0.01,0.011 -0.003,0.075 -0.0368,0.1447 -0.0343,0.089 -0.0353,0.1094 0.0112,0.086 0.0414,-0.023 0.0458,-0.01 0.0124,0.061 -0.0224,0.049 -0.0414,0.1344 -0.0435,0.1797 -0.003,0.055 -0.0236,0.075 -0.0781,0.052 -0.0593,-0.028 -0.0698,-0.018 -0.0327,0.054 0.0231,0.046 0.0282,0.1577 0.009,0.2477 -0.0272,0.1552 -0.0323,0.155 -0.062,0.033 l -0.0295,-0.1275 -0.0112,0.1357 c -0.009,0.096 0.0137,0.142 0.0641,0.1442 0.0403,0 0.0744,0.029 0.073,0.059 -0.001,0.03 -0.0323,0.044 -0.0719,0.027 -0.10897,-0.045 -0.13414,0.065 -0.1609,0.6538 -0.0167,0.3677 -0.008,0.5144 0.0293,0.4657 0.0433,-0.064 0.0533,-0.063 0.0501,0.01 -0.002,0.045 -0.0346,0.094 -0.0755,0.1075 -0.0565,0.023 -0.076,0.1177 -0.0794,0.4153 -0.006,0.353 0.007,0.399 0.10967,0.4743 0.0684,0.048 0.18452,0.1598 0.26647,0.2443 0.0767,0.089 0.20283,0.2009 0.27128,0.2495 0.14674,0.1025 0.64258,0.1856 0.64624,0.105 10e-4,-0.025 0.10964,-0.1918 0.24401,-0.3724 0.12933,-0.1809 0.26484,-0.3867 0.29345,-0.4611 0.0336,-0.074 0.11147,-0.2321 0.17259,-0.3555 0.0611,-0.1234 0.11238,-0.2523 0.10895,-0.2878 -0.011,-0.091 0.081,-0.4505 0.13412,-0.5086 0.0215,-0.029 0.073,-0.1632 0.11444,-0.2976 0.0366,-0.1397 0.11582,-0.3278 0.16549,-0.4215 0.0989,-0.1772 0.3715,-0.8461 0.44955,-1.1201 0.0288,-0.079 0.0849,-0.203 0.13344,-0.2715 0.0483,-0.063 0.0936,-0.1724 0.1069,-0.2424 0.0133,-0.07 0.0586,-0.179 0.0968,-0.2429 0.038,-0.059 0.0627,-0.1586 0.0499,-0.2097 -0.0128,-0.051 -0.006,-0.086 0.0183,-0.07 0.0636,0.043 0.15039,-0.089 0.21745,-0.3434 0.0735,-0.2843 0.15679,-0.4521 0.2891,-0.5874 0.0529,-0.053 0.097,-0.1369 0.0993,-0.1872 0.006,-0.1259 0.23072,-0.6355 0.28108,-0.6332 0.0201,9e-4 0.0591,-0.078 0.0785,-0.1731 0.0616,-0.2445 0.11903,-0.1763 0.14422,0.158 0.008,0.1568 0.036,0.3195 0.0639,0.3713 0.0598,0.1288 0.26239,1.112 0.28804,1.4362 0.0183,0.1522 0.0463,0.426 0.0632,0.6084 0.022,0.1827 0.0431,0.4965 0.049,0.6987 0.006,0.2071 0.0211,0.4248 0.0337,0.4809 0.0506,0.3304 0.0623,0.7397 0.0332,1.1572 -0.0199,0.2161 -0.0435,0.2907 -0.0938,0.2884 -0.0604,0 -0.0682,0.057 -0.0584,0.285 0.008,0.1619 0.0312,0.3144 0.0499,0.3455 0.019,0.026 0.0469,0.1888 0.0595,0.3559 0.033,0.4961 0.0909,0.7763 0.19073,0.912 0.095,0.1305 0.24083,0.1422 0.24655,0.016 0.001,-0.03 0.0499,-0.099 0.10758,-0.1465 0.0577,-0.048 0.10667,-0.1263 0.10896,-0.1767 0.002,-0.05 0.0776,-0.1529 0.16687,-0.2296 0.14696,-0.1245 0.18633,-0.2136 0.30374,-0.6877 0.10437,-0.4091 0.13343,-0.6046 0.11076,-0.7721 -0.0195,-0.1271 -0.0392,-0.3601 -0.0467,-0.527 -0.0378,-0.8344 -0.0756,-1.3357 -0.11269,-1.5191 -0.0202,-0.1119 -0.038,-0.2742 -0.0339,-0.3649 0.004,-0.091 -0.0344,-0.2438 -0.0852,-0.347 -0.0508,-0.1032 -0.0902,-0.2362 -0.087,-0.3068 0.003,-0.065 -0.0169,-0.1824 -0.0435,-0.2643 -0.0268,-0.077 -0.071,-0.3262 -0.10622,-0.5499 -0.0302,-0.2234 -0.10716,-0.5297 -0.166,-0.6787 -0.0588,-0.1491 -0.10783,-0.2926 -0.10669,-0.3178 10e-4,-0.025 -0.0634,-0.1593 -0.13805,-0.2939 -0.0797,-0.1348 -0.13896,-0.2738 -0.13759,-0.304 0.002,-0.035 -0.0359,-0.098 -0.0847,-0.135 -0.0488,-0.038 -0.12523,-0.1319 -0.17216,-0.2097 -0.0797,-0.1348 -0.0792,-0.1449 0.0169,-0.2617 0.0536,-0.068 0.12682,-0.1254 0.16207,-0.1238 0.0705,0 0.18702,-0.2287 0.14993,-0.3011 -0.0327,-0.057 -0.49974,-0.2195 -0.65082,-0.2263 -0.1813,-0.01 -0.47591,0.1449 -0.49605,0.255 -0.0126,0.055 -0.0499,0.099 -0.0902,0.097 -0.0755,0 -0.18313,0.2541 -0.14123,0.3317 0.0142,0.021 0.0304,0.1074 0.0421,0.1836 0.0105,0.1014 0.005,0.1163 -0.033,0.059 -0.0327,-0.057 -0.0479,-0.058 -0.0499,-0.012 -0.002,0.035 -0.0275,0.049 -0.0568,0.028 -0.0394,-0.022 -0.0382,-0.047 0.004,-0.086 0.0842,-0.077 0.0783,-0.168 -0.0124,-0.1721 -0.0806,0 -0.0808,0 -0.1085,0.1666 -0.008,0.065 -0.0469,0.1442 -0.084,0.1829 -0.0323,0.044 -0.0552,0.1035 -0.0467,0.1392 0.0133,0.041 0.0552,0.01 0.10965,-0.081 0.071,-0.1179 0.0865,-0.1273 0.0829,-0.047 -0.002,0.055 -0.0474,0.1543 -0.10598,0.2223 -0.0904,0.1019 -0.11102,0.111 -0.14834,0.044 -0.0376,-0.062 -0.0529,-0.058 -0.0868,0.021 -0.0407,0.1192 -0.16823,0.3708 -0.31175,0.6419 l -0.10484,0.1971 0.12727,-0.1355 c 0.0689,-0.073 0.16756,-0.2448 0.2241,-0.3785 0.0568,-0.1387 0.11719,-0.247 0.13734,-0.246 0.0604,0 -0.0169,0.3726 -0.09,0.4248 -0.11492,0.086 -0.29781,0.4457 -0.24492,0.5037 0.0288,0.032 -0.004,0.091 -0.0881,0.1625 -0.0735,0.062 -0.13254,0.1403 -0.13414,0.1756 -0.002,0.035 -0.0284,0.069 -0.054,0.078 -0.0307,0.01 -0.0636,0.068 -0.0769,0.1378 -0.008,0.07 -0.0483,0.1744 -0.0865,0.2383 -0.038,0.059 -0.0625,0.1536 -0.0549,0.2095 0.008,0.051 -0.0359,0.1245 -0.0881,0.1625 -0.0625,0.043 -0.10163,0.1266 -0.10621,0.2273 -0.005,0.1209 -0.0323,0.155 -0.10781,0.1516 -0.0705,0 -0.0847,-0.024 -0.0563,-0.093 0.095,-0.2026 0.1014,-0.2326 0.0488,-0.1846 -0.0737,0.067 -0.19388,0.3798 -0.13184,0.3473 0.0829,-0.047 0.0419,0.2997 -0.0515,0.467 -0.0444,0.089 -0.098,0.1571 -0.10804,0.1566 -0.0151,-7e-4 -0.005,-0.1062 0.0206,-0.2312 0.0281,-0.1754 0.0254,-0.226 -0.0213,-0.1978 -0.0465,0.023 -0.0611,0.1234 -0.0497,0.3157 0.008,0.1568 -0.01,0.3225 -0.0423,0.3766 -0.0385,0.069 -0.0391,0.084 0.002,0.066 0.1037,-0.061 0.0575,0.068 -0.0684,0.1735 -0.0632,0.058 -0.0849,0.092 -0.0538,0.073 0.0362,-0.018 0.0662,-0.012 0.065,0.013 -0.002,0.045 -0.12087,0.1055 -0.19137,0.1023 -0.0151,-7e-4 -0.0124,-0.061 0.006,-0.136 0.0311,-0.1298 0.0261,-0.13 -0.0435,-0.042 -0.0426,0.048 -0.0762,0.1227 -0.0778,0.158 -0.002,0.035 -0.0353,0.1094 -0.068,0.1634 -0.0538,0.073 -0.0554,0.1085 -0.007,0.1612 0.0529,0.058 0.0581,0.053 0.0364,-0.024 -0.0314,-0.087 0.0307,-0.1197 0.0929,-0.046 0.0481,0.053 -0.073,0.1632 -0.17374,0.1586 -0.0504,0 -0.10301,0.046 -0.12636,0.1154 -0.0181,0.065 -0.0526,0.1591 -0.0751,0.2086 -0.0227,0.054 -0.0185,0.075 0.0176,0.056 0.0311,-0.019 0.0701,-0.098 0.0941,-0.1825 0.019,-0.085 0.057,-0.1437 0.0815,-0.1275 0.0831,0.059 -0.23712,0.7765 -0.34288,0.7717 -0.0554,0 -0.0426,-0.062 0.0444,-0.1998 0.13047,-0.2061 0.0916,-0.2381 -0.0389,-0.032 l -0.12956,0.1858 0.0384,-0.2909 c 0.0176,-0.1657 0.0547,-0.3155 0.0813,-0.3445 0.0263,-0.024 0.0501,-0.1037 0.0533,-0.1742 0.003,-0.075 0.0446,-0.2049 0.0888,-0.2887 0.0492,-0.084 0.1181,-0.3782 0.15083,-0.6543 0.0378,-0.2758 0.0842,-0.521 0.1007,-0.5505 0.14031,-0.2005 0.25539,-1.7345 0.16518,-2.1928 -0.13128,-0.6671 -0.22812,-0.7573 -0.83177,-0.7998 -0.22136,-0.015 -0.42739,-0.035 -0.45211,-0.046 -0.15865,-0.063 -0.55053,0.4544 -0.56379,0.7465 -0.004,0.086 -0.0195,0.095 -0.0474,0.043 -0.0279,-0.052 -0.0598,-0.018 -0.11148,0.1211 -0.0353,0.1094 -0.103,0.2678 -0.15244,0.3564 -0.0444,0.089 -0.0693,0.1937 -0.0561,0.2347 0.009,0.036 -0.0366,0.1396 -0.11125,0.2271 -0.14443,0.1801 -0.15611,0.2149 -0.073,0.1632 0.0362,-0.018 0.0506,0 0.0336,0.037 -0.0169,0.04 -0.0533,0.063 -0.0833,0.057 -0.0249,-0.01 -0.0687,0.067 -0.0936,0.1724 -0.0247,0.1 -0.1046,0.3031 -0.1767,0.4461 -0.0721,0.1431 -0.13436,0.2917 -0.13619,0.332 -0.002,0.035 -0.0238,0.08 -0.0497,0.094 -0.0467,0.028 -0.14786,0.3667 -0.13138,0.4482 0.004,0.02 -0.0334,0.069 -0.0856,0.1071 -0.0833,0.057 -0.084,0.072 -0.0206,0.1202 0.049,0.033 0.0531,0.053 0.008,0.051 -0.0302,-10e-4 -0.063,0.053 -0.0659,0.1181 -0.003,0.065 -0.0412,0.1294 -0.0771,0.1429 -0.041,0.013 -0.0957,0.1067 -0.12017,0.2014 -0.0197,0.1001 -0.0586,0.179 -0.0838,0.1779 -0.0252,-10e-4 -0.0471,0.038 -0.0497,0.094 -0.002,0.05 -0.0433,0.1747 -0.0881,0.2736 -0.0499,0.099 -0.0751,0.2085 -0.0563,0.2396 0.0236,0.036 0.008,0.041 -0.0309,0.014 -0.049,-0.033 -0.0598,-0.018 -0.0433,0.064 0.0174,0.061 0.005,0.1012 -0.0188,0.08 -0.0245,-0.016 -0.0449,-0.012 -0.0511,0.013 -0.0169,0.1507 -0.0748,0.3146 -0.14672,0.4526 -0.0776,0.1529 -0.13596,0.3269 -0.16433,0.5073 -0.007,0.045 -0.0298,0.1 -0.046,0.1241 -0.0165,0.03 -0.051,0.1238 -0.0751,0.2085 -0.0192,0.09 -0.0629,0.1637 -0.0881,0.1626 -0.0856,0 -0.068,0.3855 0.0273,0.5109 z" />
    <path
       inkscape:connector-curvature="0"
       id="path54"
       d="m 58.885056,1042.6418 c 0.051,0.098 0.19024,0.256 0.30219,0.3468 0.17009,0.144 0.23464,0.1671 0.43174,0.1609 0.32346,-0.011 0.62654,-0.128 0.69864,-0.271 0.0604,-0.1083 0.12247,-0.1408 0.23235,-0.1156 0.0249,0.01 0.0309,-0.014 0.0169,-0.04 -0.014,-0.026 0.0659,-0.1182 0.1806,-0.1988 0.18771,-0.1327 0.21335,-0.1417 0.23991,-0.06 0.062,0.1896 0.34568,0.5002 0.57667,0.6369 0.24563,0.1474 0.42556,0.1858 0.90881,0.2128 0.44318,0.02 0.49927,0.01 0.84401,-0.1383 0.20075,-0.087 0.40242,-0.1937 0.43974,-0.2374 0.10094,-0.1115 0.15543,-0.089 0.37108,0.1632 0.13415,0.1575 0.25136,0.2436 0.36628,0.269 0.25478,0.057 0.3127,0 0.25775,-0.2306 -0.0254,-0.1071 -0.0272,-0.2888 -0.002,-0.4038 0.0201,-0.1101 0.0659,-0.3401 0.0936,-0.5054 0.0742,-0.4105 0.11352,-0.4995 0.24766,-0.5641 0.0618,-0.027 0.15108,-0.1041 0.19434,-0.1678 0.092,-0.1371 0.53335,-0.6318 0.53198,-0.6016 -0.008,0.1813 0.1067,0.6508 0.21774,0.8728 0.2397,0.5004 1.23758,1.4188 1.35616,1.2526 0.0323,-0.044 0.0476,-0.048 0.0458,-0.01 -10e-4,0.03 0.0611,0.099 0.14491,0.1429 0.0785,0.049 0.22114,0.1311 0.30469,0.1803 0.23579,0.1419 0.85616,0.1499 1.22036,0.02 0.26142,-0.089 0.28683,-0.093 0.42945,-0.011 0.24082,0.1422 0.59061,0.1076 0.91726,-0.084 0.0726,-0.042 0.21129,-0.096 0.31361,-0.127 0.1021,-0.026 0.24196,-0.1051 0.30537,-0.1679 0.0687,-0.067 0.16688,-0.1185 0.21724,-0.1163 0.0504,0 0.14375,-0.054 0.21243,-0.1215 0.0636,-0.068 0.17351,-0.1536 0.24562,-0.1857 0.0723,-0.037 0.28133,-0.1941 0.46514,-0.3523 0.18404,-0.1632 0.38205,-0.3006 0.43332,-0.3184 0.051,-0.013 0.0925,-0.036 0.0934,-0.056 9.2e-4,-0.02 0.0224,-0.1605 0.0494,-0.3107 0.0435,-0.2907 0.0808,-0.3344 0.3999,-0.4713 0.10805,-0.046 0.19618,-0.097 0.19732,-0.1223 9.2e-4,-0.02 0.0671,-0.032 0.14765,-0.029 0.0806,0 0.22823,-0.025 0.32575,-0.061 0.10255,-0.036 0.30056,-0.062 0.44158,-0.056 0.29713,0.013 0.33971,0.076 0.24083,0.3642 -0.0989,0.2882 -0.11876,0.9484 -0.0359,1.2348 0.10418,0.3731 0.33517,0.7318 0.56569,0.8785 0.10783,0.071 0.34064,0.1669 0.51553,0.2051 0.34956,0.082 0.51804,0.039 0.78564,-0.1864 0.0735,-0.062 0.20762,-0.1268 0.29415,-0.143 0.0815,-0.017 0.1536,-0.049 0.15452,-0.069 0.001,-0.025 0.0641,-0.078 0.14123,-0.1097 0.12384,-0.06 0.0787,-0.067 -0.4805,-0.087 l -0.60965,-0.023 -0.11905,-0.1568 c -0.0616,-0.089 -0.14148,-0.2184 -0.17307,-0.3006 -0.0318,-0.077 -0.0744,-0.1396 -0.0945,-0.1405 -0.0504,0 -0.16576,-0.4617 -0.18729,-0.7655 -0.0167,-0.2985 -0.1415,-0.6625 -0.24864,-0.7481 -0.22869,-0.187 -0.70118,-0.2286 -1.5983,-0.1432 -0.59289,0.054 -0.65928,0.071 -0.62768,0.1532 0.0133,0.041 -0.003,0.071 -0.0334,0.069 -0.0302,-10e-4 -0.0497,-0.017 -0.0435,-0.042 0.0341,-0.084 -0.0115,-0.081 -0.38458,0.023 -0.37817,0.1039 -0.8076,0.4478 -0.81721,0.6593 -0.003,0.06 -0.0256,0.1199 -0.0565,0.1337 -0.0776,0.042 -0.057,0.3658 0.0197,0.344 0.0872,-0.031 0.0778,0.064 -0.011,0.1307 -0.0417,0.028 -0.1014,0.1216 -0.14031,0.2006 -0.0389,0.079 -0.10805,0.1566 -0.15406,0.1696 -0.0511,0.013 -0.12475,0.08 -0.16298,0.144 -0.0385,0.069 -0.0808,0.1124 -0.0952,0.097 -0.01,-0.011 -0.10233,0.031 -0.19641,0.1021 -0.0989,0.066 -0.17626,0.103 -0.17534,0.083 9.1e-4,-0.02 -0.0295,-0.016 -0.0662,0.012 -0.0994,0.076 -0.69453,0.1804 -0.72246,0.1287 -0.0142,-0.021 0.0543,-0.083 0.15245,-0.1344 0.0982,-0.051 0.22411,-0.1563 0.27813,-0.2346 0.0538,-0.073 0.14466,-0.1852 0.20258,-0.2381 0.27469,-0.2702 0.39257,-0.4212 0.36464,-0.473 -0.014,-0.026 -0.008,-0.036 0.0211,-0.019 0.11263,0.076 0.49764,-0.6233 0.51136,-0.9255 0.005,-0.1108 -0.11951,-0.2578 -0.33515,-0.3988 -0.13736,-0.087 -0.51003,-0.1039 -0.85638,-0.034 -0.12728,0.025 -0.30515,0.052 -0.40129,0.058 -0.18748,0.017 -0.32437,0.1418 -0.3001,0.2741 0.008,0.051 -0.008,0.075 -0.043,0.059 -0.0298,-0.011 -0.0611,0.012 -0.0684,0.062 -0.0169,0.1506 -0.0819,0.3596 -0.20737,0.6769 -0.0629,0.1637 -0.12588,0.4384 -0.13846,0.6043 l -0.024,0.3068 -0.28866,0.1332 c -0.15955,0.068 -0.38961,0.1337 -0.51117,0.1433 -0.24265,0.01 -0.18954,0.062 -0.60208,-0.6329 -0.17353,-0.2905 -0.29509,-0.3919 -0.40382,-0.3312 -0.0259,0.014 -0.054,0.078 -0.0568,0.1387 -0.003,0.06 -0.0266,0.1401 -0.0483,0.1745 -0.07,0.098 -0.21198,-0.1106 -0.24633,-0.3544 -0.027,-0.1829 -0.0154,-0.2177 0.0883,-0.2786 0.0673,-0.037 0.13689,-0.125 0.15497,-0.1898 0.0181,-0.065 0.0817,-0.1325 0.14283,-0.1449 0.0563,-0.018 0.18267,-0.133 0.27424,-0.26 0.0968,-0.1319 0.27353,-0.356 0.39646,-0.5069 0.12795,-0.1506 0.23027,-0.2923 0.23165,-0.3225 10e-4,-0.025 0.0277,-0.054 0.0584,-0.063 0.0357,-0.01 0.0787,-0.1781 0.10391,-0.399 0.0368,-0.3668 0.0332,-0.3972 -0.10235,-0.6355 -0.16391,-0.28 -0.14468,-0.2589 -0.43473,-0.5395 -0.11584,-0.1163 -0.24266,-0.2129 -0.28295,-0.2148 -0.0907,0 -0.0847,-0.024 0.0799,-0.3143 0.0769,-0.1378 0.11788,-0.2621 0.0881,-0.2735 -0.0694,-0.028 0.0497,-0.3157 0.17006,-0.4112 0.0524,-0.043 0.0849,-0.092 0.0705,-0.1078 -0.0144,-0.016 0.04,-0.2152 0.12108,-0.4436 0.2472,-0.665 0.25773,-0.7857 0.0803,-0.9906 -0.14377,-0.168 -0.15361,-0.1735 -0.51713,-0.1698 -0.29302,0.01 -0.39992,0.027 -0.49446,0.1088 -0.0682,0.058 -0.16161,0.1137 -0.21266,0.1266 -0.0716,0.022 -0.36465,0.3619 -0.36785,0.4324 -4.6e-4,0.01 0.0499,0.012 0.1108,0.01 l 0.11697,-0.02 -0.11308,0.045 c -0.0771,0.032 -0.10965,0.081 -0.0977,0.152 0.008,0.056 -0.01,0.1005 -0.0398,0.099 -0.0302,-10e-4 -0.046,0.013 -0.0266,0.029 0.0144,0.016 -0.0185,0.075 -0.0767,0.1328 -0.0529,0.053 -0.10186,0.1316 -0.10346,0.1669 -0.002,0.035 -0.0231,0.065 -0.0483,0.063 -0.0403,0 -0.1188,0.1712 -0.10072,0.2174 0.004,0.015 -0.0437,0.074 -0.10209,0.1367 -0.0634,0.063 -0.17145,0.2193 -0.23325,0.3578 -0.0666,0.1333 -0.17121,0.3253 -0.23118,0.4235 -0.0549,0.098 -0.10553,0.2122 -0.10736,0.2525 -0.002,0.035 -0.046,0.1241 -0.0943,0.1875 -0.0536,0.068 -0.0881,0.1625 -0.0856,0.2182 0.008,0.051 -0.004,0.081 -0.0281,0.064 -0.0245,-0.016 -0.079,0.072 -0.12017,0.2014 -0.0412,0.1294 -0.0987,0.2832 -0.13161,0.3423 -0.033,0.059 -0.0469,0.1442 -0.0288,0.1904 0.0131,0.046 0.007,0.071 -0.0176,0.055 -0.0538,-0.038 -0.13025,0.201 -0.0929,0.2683 0.0188,0.031 -0.007,0.05 -0.0476,0.048 -0.0504,0 -0.0826,0.042 -0.0856,0.1071 -0.003,0.065 -0.0435,0.1798 -0.0874,0.2585 -0.0439,0.079 -0.0955,0.2127 -0.11445,0.2976 -0.0829,0.3798 -0.10551,0.4343 -0.25499,0.5032 -0.0874,0.036 -0.18221,0.1229 -0.2154,0.187 -0.0334,0.069 -0.0762,0.1227 -0.0964,0.1218 -0.0604,0 -0.67757,0.5849 -0.71213,0.6792 -0.0227,0.054 -0.0542,0.083 -0.0737,0.067 -0.0247,-0.011 -0.10782,0.041 -0.19228,0.1225 -0.27423,0.2601 -0.60684,0.472 -0.73778,0.4661 -0.12087,-0.01 -0.12568,-0.011 -0.0785,-0.271 0.18743,-1.127 0.32544,-1.7213 0.44584,-1.9278 0.30718,-0.5411 -0.21133,-0.9028 -0.85114,-0.5937 -0.19091,0.092 -0.35138,0.07 -0.54688,-0.07 -0.26395,-0.1887 -1.11666,0.03 -1.44995,0.3681 -0.1275,0.1406 -0.14421,0.1752 -0.092,0.2482 0.0524,0.068 0.0469,0.078 -0.0222,0.044 -0.0497,-0.017 -0.10026,-0.015 -0.11651,0.01 -0.0215,0.029 0.003,0.051 0.043,0.052 0.0957,0 0.0998,0.025 0.008,0.1618 -0.10873,0.1717 -0.16138,0.2198 -0.24654,0.2058 -0.0401,-0.01 -0.0453,0 -0.0156,0.01 0.0842,0.034 0.0778,0.064 -0.0483,0.2855 -0.0552,0.1035 -0.12406,0.2871 -0.14969,0.407 -0.0206,0.1202 -0.0604,0.2193 -0.0856,0.2182 -0.0554,0 -0.0538,-0.038 0.011,-0.2418 0.0291,-0.084 0.0375,-0.1598 0.0174,-0.1607 -0.0504,0 -0.18265,0.5771 -0.19409,0.829 10e-6,0.111 0.0378,0.2792 0.0939,0.3777 z m 0.80873,-0.695 c 0.0819,-0.2486 0.16709,-0.4567 0.18792,-0.4709 0.0208,-0.014 0.0698,-0.093 0.10415,-0.182 0.0916,-0.2381 0.48001,-0.6797 0.64437,-0.7428 0.23074,-0.08 0.38504,-0.033 0.3681,0.1176 -0.0487,0.4066 -0.0844,0.5261 -0.14488,0.5233 -0.0504,0 -0.0684,0.062 -0.0707,0.2239 9.3e-4,0.2019 4.7e-4,0.212 -0.0449,0.099 l -0.0497,-0.1284 -0.0987,0.1721 c -0.0597,0.093 -0.10552,0.2122 -0.11307,0.2674 -0.003,0.06 -0.0288,0.079 -0.0783,0.057 -0.0396,-0.017 -0.0753,-0.01 -0.0767,0.022 -10e-4,0.03 -0.0341,0.084 -0.071,0.1179 -0.0321,0.039 -0.13826,0.1552 -0.22387,0.2624 -0.14375,0.165 -0.37884,0.3411 -0.46446,0.3372 -0.0604,0 -0.014,-0.2479 0.1316,-0.6753 z m 6.70502,-4.1819 c 0.0492,-0.084 0.10987,-0.1969 0.1426,-0.2509 0.0987,-0.1722 0.17488,-0.2949 0.20121,-0.3189 0.0842,-0.077 0.38089,-0.4975 0.43125,-0.6062 0.0286,-0.074 0.076,-0.1177 0.10553,-0.1012 0.0343,0.022 0.0325,0.062 -0.006,0.1259 -0.0382,0.064 -0.0348,0.099 0.01,0.1165 0.0295,0.016 0.0188,0.031 -0.0366,0.029 -0.0657,0 -0.087,0.026 -0.0703,0.1028 0.0126,0.056 9.2e-4,0.091 -0.0233,0.07 -0.0245,-0.016 -0.0456,0 -0.0474,0.043 -0.002,0.035 -0.0526,0.1591 -0.11331,0.2724 -0.0604,0.1083 -0.11124,0.2271 -0.11261,0.2574 -10e-4,0.025 -0.0224,0.05 -0.0426,0.049 -0.0403,0 -0.20303,0.3591 -0.20738,0.4548 -0.003,0.06 -0.07,0.098 -0.24814,0.1301 -0.17787,0.027 -0.17787,0.027 -0.12682,-0.097 0.0284,-0.069 0.0945,-0.1926 0.14374,-0.2761 z m 0.21665,2.0083 c 0.038,-0.059 0.0877,-0.1525 0.1204,-0.2065 0.0277,-0.054 0.0568,-0.1388 0.0591,-0.1891 0.002,-0.05 0.0304,-0.1147 0.062,-0.1435 0.0316,-0.029 0.0659,-0.1182 0.0797,-0.1983 0.0243,-0.2008 0.0922,-0.3642 0.14763,-0.3617 0.0252,10e-4 0.0469,-0.033 0.0488,-0.073 0.002,-0.04 0.0286,-0.074 0.0588,-0.073 0.12087,0.01 0.28731,0.3411 0.29167,0.5785 0.002,0.076 0.0181,0.1572 0.0376,0.1733 0.0192,0.021 0.0325,0.062 0.0311,0.092 -0.001,0.03 -0.0261,0.019 -0.0494,-0.022 -0.0376,-0.062 -0.0481,-0.053 -0.0529,0.053 -0.003,0.071 -0.0636,0.1788 -0.13711,0.241 -0.0682,0.057 -0.11675,0.1259 -0.10782,0.1516 0.0142,0.021 -0.003,0.055 -0.0336,0.074 -0.0412,0.018 -0.046,0.013 -0.0243,-0.021 0.0217,-0.034 0.0178,-0.06 -0.0124,-0.061 -0.0252,-10e-4 -0.0719,0.027 -0.0936,0.061 -0.0217,0.034 -0.14536,0.089 -0.27286,0.1188 -0.12751,0.03 -0.266,0.079 -0.30789,0.1122 -0.0625,0.043 -0.062,0.033 0.008,-0.07 0.0485,-0.068 0.11377,-0.1715 0.14696,-0.2356 z" />
    <path
       style="fill:#ffffff;stroke:#ffffff;stroke-width:0.1;stroke-linecap:round;stroke-linejoin:round;stroke-miterlimit:4;stroke-opacity:1;stroke-dasharray:none"
       d="m 70.533106,1041.2871 c -0.0638,0.1307 -0.10845,0.2073 -0.18617,0.3287 -0.13488,0.1899 -0.25163,0.3436 -0.40367,0.4967 -0.10694,0.086 -0.11444,0.072 -0.22137,0.1583 -0.0648,0.034 -0.14177,0.05 -0.15488,0.022 0.032,-0.1482 0.0594,-0.2983 0.0942,-0.4454 0.0756,-0.1161 0.115,-0.3455 0.19257,-0.4599 0.1213,-0.2015 0.21894,-0.3224 0.39092,-0.3677 0.073,-0.038 0.19027,-0.016 0.26331,0.023 0.0288,0.037 0.034,0.032 0.0354,0.092 0.004,0.076 -0.007,0.1187 -0.0103,0.1517 z"
       id="path4837"
       inkscape:connector-curvature="0"
       sodipodi:nodetypes="ccccccccccc" />
  </g>
</svg>
