G04 #@! TF.FileFunction,Legend,Bot*
%FSLAX46Y46*%
G04 Gerber Fmt 4.6, Leading zero omitted, Abs format (unit mm)*
G04 Created by KiCad (PCBNEW 4.0.7-e0-6372~58~ubuntu16.10.1) date Sun Oct 29 19:34:23 2017*
%MOMM*%
%LPD*%
G01*
G04 APERTURE LIST*
%ADD10C,0.100000*%
%ADD11C,0.250000*%
%ADD12C,0.200000*%
%ADD13C,0.150000*%
G04 APERTURE END LIST*
D10*
D11*
X159902381Y-95138095D02*
X159902381Y-95709524D01*
X160902381Y-95423809D02*
X159902381Y-95423809D01*
X159902381Y-95947619D02*
X160902381Y-96614286D01*
X159902381Y-96614286D02*
X160902381Y-95947619D01*
X163202381Y-95733334D02*
X162726190Y-95400000D01*
X163202381Y-95161905D02*
X162202381Y-95161905D01*
X162202381Y-95542858D01*
X162250000Y-95638096D01*
X162297619Y-95685715D01*
X162392857Y-95733334D01*
X162535714Y-95733334D01*
X162630952Y-95685715D01*
X162678571Y-95638096D01*
X162726190Y-95542858D01*
X162726190Y-95161905D01*
X162202381Y-96066667D02*
X163202381Y-96733334D01*
X162202381Y-96733334D02*
X163202381Y-96066667D01*
D12*
X111715600Y-81330877D02*
X111677505Y-81254686D01*
X111677505Y-81140401D01*
X111715600Y-81026115D01*
X111791790Y-80949924D01*
X111867981Y-80911829D01*
X112020362Y-80873734D01*
X112134648Y-80873734D01*
X112287029Y-80911829D01*
X112363219Y-80949924D01*
X112439410Y-81026115D01*
X112477505Y-81140401D01*
X112477505Y-81216591D01*
X112439410Y-81330877D01*
X112401314Y-81368972D01*
X112134648Y-81368972D01*
X112134648Y-81216591D01*
X112477505Y-81711829D02*
X111677505Y-81711829D01*
X112477505Y-82168972D01*
X111677505Y-82168972D01*
X112477505Y-82549924D02*
X111677505Y-82549924D01*
X111677505Y-82740400D01*
X111715600Y-82854686D01*
X111791790Y-82930877D01*
X111867981Y-82968972D01*
X112020362Y-83007067D01*
X112134648Y-83007067D01*
X112287029Y-82968972D01*
X112363219Y-82930877D01*
X112439410Y-82854686D01*
X112477505Y-82740400D01*
X112477505Y-82549924D01*
X113696805Y-80918214D02*
X114496805Y-81184881D01*
X113696805Y-81451548D01*
X114077757Y-81984881D02*
X114115852Y-82099167D01*
X114153948Y-82137262D01*
X114230138Y-82175357D01*
X114344424Y-82175357D01*
X114420614Y-82137262D01*
X114458710Y-82099167D01*
X114496805Y-82022976D01*
X114496805Y-81718214D01*
X113696805Y-81718214D01*
X113696805Y-81984881D01*
X113734900Y-82061071D01*
X113772995Y-82099167D01*
X113849186Y-82137262D01*
X113925376Y-82137262D01*
X114001567Y-82099167D01*
X114039662Y-82061071D01*
X114077757Y-81984881D01*
X114077757Y-81718214D01*
X114268233Y-82480119D02*
X114268233Y-82861071D01*
X114496805Y-82403928D02*
X113696805Y-82670595D01*
X114496805Y-82937262D01*
X113696805Y-83089642D02*
X113696805Y-83546785D01*
X114496805Y-83318214D02*
X113696805Y-83318214D01*
D11*
X170838762Y-95050124D02*
X170886381Y-95192981D01*
X170886381Y-95431077D01*
X170838762Y-95526315D01*
X170791143Y-95573934D01*
X170695905Y-95621553D01*
X170600667Y-95621553D01*
X170505429Y-95573934D01*
X170457810Y-95526315D01*
X170410190Y-95431077D01*
X170362571Y-95240600D01*
X170314952Y-95145362D01*
X170267333Y-95097743D01*
X170172095Y-95050124D01*
X170076857Y-95050124D01*
X169981619Y-95097743D01*
X169934000Y-95145362D01*
X169886381Y-95240600D01*
X169886381Y-95478696D01*
X169934000Y-95621553D01*
X170791143Y-96621553D02*
X170838762Y-96573934D01*
X170886381Y-96431077D01*
X170886381Y-96335839D01*
X170838762Y-96192981D01*
X170743524Y-96097743D01*
X170648286Y-96050124D01*
X170457810Y-96002505D01*
X170314952Y-96002505D01*
X170124476Y-96050124D01*
X170029238Y-96097743D01*
X169934000Y-96192981D01*
X169886381Y-96335839D01*
X169886381Y-96431077D01*
X169934000Y-96573934D01*
X169981619Y-96621553D01*
X170886381Y-97526315D02*
X170886381Y-97050124D01*
X169886381Y-97050124D01*
X168806762Y-95051714D02*
X168854381Y-95194571D01*
X168854381Y-95432667D01*
X168806762Y-95527905D01*
X168759143Y-95575524D01*
X168663905Y-95623143D01*
X168568667Y-95623143D01*
X168473429Y-95575524D01*
X168425810Y-95527905D01*
X168378190Y-95432667D01*
X168330571Y-95242190D01*
X168282952Y-95146952D01*
X168235333Y-95099333D01*
X168140095Y-95051714D01*
X168044857Y-95051714D01*
X167949619Y-95099333D01*
X167902000Y-95146952D01*
X167854381Y-95242190D01*
X167854381Y-95480286D01*
X167902000Y-95623143D01*
X168854381Y-96051714D02*
X167854381Y-96051714D01*
X167854381Y-96289809D01*
X167902000Y-96432667D01*
X167997238Y-96527905D01*
X168092476Y-96575524D01*
X168282952Y-96623143D01*
X168425810Y-96623143D01*
X168616286Y-96575524D01*
X168711524Y-96527905D01*
X168806762Y-96432667D01*
X168854381Y-96289809D01*
X168854381Y-96051714D01*
X168568667Y-97004095D02*
X168568667Y-97480286D01*
X168854381Y-96908857D02*
X167854381Y-97242190D01*
X168854381Y-97575524D01*
X166568381Y-85510905D02*
X165568381Y-85510905D01*
X166282667Y-85844239D01*
X165568381Y-86177572D01*
X166568381Y-86177572D01*
X166473143Y-87225191D02*
X166520762Y-87177572D01*
X166568381Y-87034715D01*
X166568381Y-86939477D01*
X166520762Y-86796619D01*
X166425524Y-86701381D01*
X166330286Y-86653762D01*
X166139810Y-86606143D01*
X165996952Y-86606143D01*
X165806476Y-86653762D01*
X165711238Y-86701381D01*
X165616000Y-86796619D01*
X165568381Y-86939477D01*
X165568381Y-87034715D01*
X165616000Y-87177572D01*
X165663619Y-87225191D01*
X166568381Y-88129953D02*
X166568381Y-87653762D01*
X165568381Y-87653762D01*
X166568381Y-88463286D02*
X165568381Y-88463286D01*
X166568381Y-89034715D02*
X165996952Y-88606143D01*
X165568381Y-89034715D02*
X166139810Y-88463286D01*
X164790381Y-85983962D02*
X164790381Y-85507771D01*
X163790381Y-85507771D01*
X164790381Y-86888724D02*
X164314190Y-86555390D01*
X164790381Y-86317295D02*
X163790381Y-86317295D01*
X163790381Y-86698248D01*
X163838000Y-86793486D01*
X163885619Y-86841105D01*
X163980857Y-86888724D01*
X164123714Y-86888724D01*
X164218952Y-86841105D01*
X164266571Y-86793486D01*
X164314190Y-86698248D01*
X164314190Y-86317295D01*
X164695143Y-87888724D02*
X164742762Y-87841105D01*
X164790381Y-87698248D01*
X164790381Y-87603010D01*
X164742762Y-87460152D01*
X164647524Y-87364914D01*
X164552286Y-87317295D01*
X164361810Y-87269676D01*
X164218952Y-87269676D01*
X164028476Y-87317295D01*
X163933238Y-87364914D01*
X163838000Y-87460152D01*
X163790381Y-87603010D01*
X163790381Y-87698248D01*
X163838000Y-87841105D01*
X163885619Y-87888724D01*
X164790381Y-88793486D02*
X164790381Y-88317295D01*
X163790381Y-88317295D01*
X164790381Y-89126819D02*
X163790381Y-89126819D01*
X164790381Y-89698248D02*
X164218952Y-89269676D01*
X163790381Y-89698248D02*
X164361810Y-89126819D01*
X162964762Y-85482324D02*
X163012381Y-85625181D01*
X163012381Y-85863277D01*
X162964762Y-85958515D01*
X162917143Y-86006134D01*
X162821905Y-86053753D01*
X162726667Y-86053753D01*
X162631429Y-86006134D01*
X162583810Y-85958515D01*
X162536190Y-85863277D01*
X162488571Y-85672800D01*
X162440952Y-85577562D01*
X162393333Y-85529943D01*
X162298095Y-85482324D01*
X162202857Y-85482324D01*
X162107619Y-85529943D01*
X162060000Y-85577562D01*
X162012381Y-85672800D01*
X162012381Y-85910896D01*
X162060000Y-86053753D01*
X162917143Y-87053753D02*
X162964762Y-87006134D01*
X163012381Y-86863277D01*
X163012381Y-86768039D01*
X162964762Y-86625181D01*
X162869524Y-86529943D01*
X162774286Y-86482324D01*
X162583810Y-86434705D01*
X162440952Y-86434705D01*
X162250476Y-86482324D01*
X162155238Y-86529943D01*
X162060000Y-86625181D01*
X162012381Y-86768039D01*
X162012381Y-86863277D01*
X162060000Y-87006134D01*
X162107619Y-87053753D01*
X163012381Y-87958515D02*
X163012381Y-87482324D01*
X162012381Y-87482324D01*
X163012381Y-88291848D02*
X162012381Y-88291848D01*
X163012381Y-88863277D02*
X162440952Y-88434705D01*
X162012381Y-88863277D02*
X162583810Y-88291848D01*
X161234381Y-85456924D02*
X160234381Y-85456924D01*
X160234381Y-85695019D01*
X160282000Y-85837877D01*
X160377238Y-85933115D01*
X160472476Y-85980734D01*
X160662952Y-86028353D01*
X160805810Y-86028353D01*
X160996286Y-85980734D01*
X161091524Y-85933115D01*
X161186762Y-85837877D01*
X161234381Y-85695019D01*
X161234381Y-85456924D01*
X160234381Y-86647400D02*
X160234381Y-86837877D01*
X160282000Y-86933115D01*
X160377238Y-87028353D01*
X160567714Y-87075972D01*
X160901048Y-87075972D01*
X161091524Y-87028353D01*
X161186762Y-86933115D01*
X161234381Y-86837877D01*
X161234381Y-86647400D01*
X161186762Y-86552162D01*
X161091524Y-86456924D01*
X160901048Y-86409305D01*
X160567714Y-86409305D01*
X160377238Y-86456924D01*
X160282000Y-86552162D01*
X160234381Y-86647400D01*
X160234381Y-87504543D02*
X161043905Y-87504543D01*
X161139143Y-87552162D01*
X161186762Y-87599781D01*
X161234381Y-87695019D01*
X161234381Y-87885496D01*
X161186762Y-87980734D01*
X161139143Y-88028353D01*
X161043905Y-88075972D01*
X160234381Y-88075972D01*
X160234381Y-88409305D02*
X160234381Y-88980734D01*
X161234381Y-88695019D02*
X160234381Y-88695019D01*
X159456381Y-85463191D02*
X158456381Y-85463191D01*
X158456381Y-85701286D01*
X158504000Y-85844144D01*
X158599238Y-85939382D01*
X158694476Y-85987001D01*
X158884952Y-86034620D01*
X159027810Y-86034620D01*
X159218286Y-85987001D01*
X159313524Y-85939382D01*
X159408762Y-85844144D01*
X159456381Y-85701286D01*
X159456381Y-85463191D01*
X159456381Y-86463191D02*
X158456381Y-86463191D01*
X159456381Y-86939381D02*
X158456381Y-86939381D01*
X159456381Y-87510810D01*
X158456381Y-87510810D01*
X116708181Y-97956881D02*
X115708181Y-97956881D01*
X115708181Y-98194976D01*
X115755800Y-98337834D01*
X115851038Y-98433072D01*
X115946276Y-98480691D01*
X116136752Y-98528310D01*
X116279610Y-98528310D01*
X116470086Y-98480691D01*
X116565324Y-98433072D01*
X116660562Y-98337834D01*
X116708181Y-98194976D01*
X116708181Y-97956881D01*
X116422467Y-98909262D02*
X116422467Y-99385453D01*
X116708181Y-98814024D02*
X115708181Y-99147357D01*
X116708181Y-99480691D01*
X115708181Y-99671167D02*
X115708181Y-100242596D01*
X116708181Y-99956881D02*
X115708181Y-99956881D01*
X116708181Y-101099739D02*
X116708181Y-100528310D01*
X116708181Y-100814024D02*
X115708181Y-100814024D01*
X115851038Y-100718786D01*
X115946276Y-100623548D01*
X115993895Y-100528310D01*
X114955581Y-97944181D02*
X113955581Y-97944181D01*
X113955581Y-98182276D01*
X114003200Y-98325134D01*
X114098438Y-98420372D01*
X114193676Y-98467991D01*
X114384152Y-98515610D01*
X114527010Y-98515610D01*
X114717486Y-98467991D01*
X114812724Y-98420372D01*
X114907962Y-98325134D01*
X114955581Y-98182276D01*
X114955581Y-97944181D01*
X114669867Y-98896562D02*
X114669867Y-99372753D01*
X114955581Y-98801324D02*
X113955581Y-99134657D01*
X114955581Y-99467991D01*
X113955581Y-99658467D02*
X113955581Y-100229896D01*
X114955581Y-99944181D02*
X113955581Y-99944181D01*
X113955581Y-100753705D02*
X113955581Y-100848944D01*
X114003200Y-100944182D01*
X114050819Y-100991801D01*
X114146057Y-101039420D01*
X114336533Y-101087039D01*
X114574629Y-101087039D01*
X114765105Y-101039420D01*
X114860343Y-100991801D01*
X114907962Y-100944182D01*
X114955581Y-100848944D01*
X114955581Y-100753705D01*
X114907962Y-100658467D01*
X114860343Y-100610848D01*
X114765105Y-100563229D01*
X114574629Y-100515610D01*
X114336533Y-100515610D01*
X114146057Y-100563229D01*
X114050819Y-100610848D01*
X114003200Y-100658467D01*
X113955581Y-100753705D01*
X112980743Y-98540962D02*
X113028362Y-98493343D01*
X113075981Y-98350486D01*
X113075981Y-98255248D01*
X113028362Y-98112390D01*
X112933124Y-98017152D01*
X112837886Y-97969533D01*
X112647410Y-97921914D01*
X112504552Y-97921914D01*
X112314076Y-97969533D01*
X112218838Y-98017152D01*
X112123600Y-98112390D01*
X112075981Y-98255248D01*
X112075981Y-98350486D01*
X112123600Y-98493343D01*
X112171219Y-98540962D01*
X113075981Y-99445724D02*
X113075981Y-98969533D01*
X112075981Y-98969533D01*
X113075981Y-99779057D02*
X112075981Y-99779057D01*
X113075981Y-100350486D02*
X112504552Y-99921914D01*
X112075981Y-100350486D02*
X112647410Y-99779057D01*
X111215443Y-98488596D02*
X111263062Y-98440977D01*
X111310681Y-98298120D01*
X111310681Y-98202882D01*
X111263062Y-98060024D01*
X111167824Y-97964786D01*
X111072586Y-97917167D01*
X110882110Y-97869548D01*
X110739252Y-97869548D01*
X110548776Y-97917167D01*
X110453538Y-97964786D01*
X110358300Y-98060024D01*
X110310681Y-98202882D01*
X110310681Y-98298120D01*
X110358300Y-98440977D01*
X110405919Y-98488596D01*
X111310681Y-98917167D02*
X110310681Y-98917167D01*
X111024967Y-99250501D01*
X110310681Y-99583834D01*
X111310681Y-99583834D01*
X111310681Y-100060024D02*
X110310681Y-100060024D01*
X110310681Y-100298119D01*
X110358300Y-100440977D01*
X110453538Y-100536215D01*
X110548776Y-100583834D01*
X110739252Y-100631453D01*
X110882110Y-100631453D01*
X111072586Y-100583834D01*
X111167824Y-100536215D01*
X111263062Y-100440977D01*
X111310681Y-100298119D01*
X111310681Y-100060024D01*
X109329481Y-97956881D02*
X108329481Y-97956881D01*
X108329481Y-98194976D01*
X108377100Y-98337834D01*
X108472338Y-98433072D01*
X108567576Y-98480691D01*
X108758052Y-98528310D01*
X108900910Y-98528310D01*
X109091386Y-98480691D01*
X109186624Y-98433072D01*
X109281862Y-98337834D01*
X109329481Y-98194976D01*
X109329481Y-97956881D01*
X109043767Y-98909262D02*
X109043767Y-99385453D01*
X109329481Y-98814024D02*
X108329481Y-99147357D01*
X109329481Y-99480691D01*
X108329481Y-99671167D02*
X108329481Y-100242596D01*
X109329481Y-99956881D02*
X108329481Y-99956881D01*
X108329481Y-100480691D02*
X108329481Y-101099739D01*
X108710433Y-100766405D01*
X108710433Y-100909263D01*
X108758052Y-101004501D01*
X108805671Y-101052120D01*
X108900910Y-101099739D01*
X109139005Y-101099739D01*
X109234243Y-101052120D01*
X109281862Y-101004501D01*
X109329481Y-100909263D01*
X109329481Y-100623548D01*
X109281862Y-100528310D01*
X109234243Y-100480691D01*
X107449881Y-97982281D02*
X106449881Y-97982281D01*
X106449881Y-98220376D01*
X106497500Y-98363234D01*
X106592738Y-98458472D01*
X106687976Y-98506091D01*
X106878452Y-98553710D01*
X107021310Y-98553710D01*
X107211786Y-98506091D01*
X107307024Y-98458472D01*
X107402262Y-98363234D01*
X107449881Y-98220376D01*
X107449881Y-97982281D01*
X107164167Y-98934662D02*
X107164167Y-99410853D01*
X107449881Y-98839424D02*
X106449881Y-99172757D01*
X107449881Y-99506091D01*
X106449881Y-99696567D02*
X106449881Y-100267996D01*
X107449881Y-99982281D02*
X106449881Y-99982281D01*
X106545119Y-100553710D02*
X106497500Y-100601329D01*
X106449881Y-100696567D01*
X106449881Y-100934663D01*
X106497500Y-101029901D01*
X106545119Y-101077520D01*
X106640357Y-101125139D01*
X106735595Y-101125139D01*
X106878452Y-101077520D01*
X107449881Y-100506091D01*
X107449881Y-101125139D01*
X105582981Y-97964928D02*
X104582981Y-97964928D01*
X104582981Y-98203023D01*
X104630600Y-98345881D01*
X104725838Y-98441119D01*
X104821076Y-98488738D01*
X105011552Y-98536357D01*
X105154410Y-98536357D01*
X105344886Y-98488738D01*
X105440124Y-98441119D01*
X105535362Y-98345881D01*
X105582981Y-98203023D01*
X105582981Y-97964928D01*
X105059171Y-98964928D02*
X105059171Y-99298262D01*
X105582981Y-99441119D02*
X105582981Y-98964928D01*
X104582981Y-98964928D01*
X104582981Y-99441119D01*
X104582981Y-99726833D02*
X104582981Y-100298262D01*
X105582981Y-100012547D02*
X104582981Y-100012547D01*
X105059171Y-100631595D02*
X105059171Y-100964929D01*
X105582981Y-101107786D02*
X105582981Y-100631595D01*
X104582981Y-100631595D01*
X104582981Y-101107786D01*
X105487743Y-102107786D02*
X105535362Y-102060167D01*
X105582981Y-101917310D01*
X105582981Y-101822072D01*
X105535362Y-101679214D01*
X105440124Y-101583976D01*
X105344886Y-101536357D01*
X105154410Y-101488738D01*
X105011552Y-101488738D01*
X104821076Y-101536357D01*
X104725838Y-101583976D01*
X104630600Y-101679214D01*
X104582981Y-101822072D01*
X104582981Y-101917310D01*
X104630600Y-102060167D01*
X104678219Y-102107786D01*
X104582981Y-102393500D02*
X104582981Y-102964929D01*
X105582981Y-102679214D02*
X104582981Y-102679214D01*
X133488247Y-83135181D02*
X133821581Y-82658990D01*
X134059676Y-83135181D02*
X134059676Y-82135181D01*
X133678723Y-82135181D01*
X133583485Y-82182800D01*
X133535866Y-82230419D01*
X133488247Y-82325657D01*
X133488247Y-82468514D01*
X133535866Y-82563752D01*
X133583485Y-82611371D01*
X133678723Y-82658990D01*
X134059676Y-82658990D01*
X132678723Y-83087562D02*
X132773961Y-83135181D01*
X132964438Y-83135181D01*
X133059676Y-83087562D01*
X133107295Y-82992324D01*
X133107295Y-82611371D01*
X133059676Y-82516133D01*
X132964438Y-82468514D01*
X132773961Y-82468514D01*
X132678723Y-82516133D01*
X132631104Y-82611371D01*
X132631104Y-82706610D01*
X133107295Y-82801848D01*
X132297771Y-82468514D02*
X132059676Y-83135181D01*
X131821580Y-82468514D01*
X131440628Y-82754229D02*
X130678723Y-82754229D01*
X130202533Y-83135181D02*
X130202533Y-82135181D01*
X129964438Y-82135181D01*
X129821580Y-82182800D01*
X129726342Y-82278038D01*
X129678723Y-82373276D01*
X129631104Y-82563752D01*
X129631104Y-82706610D01*
X129678723Y-82897086D01*
X129726342Y-82992324D01*
X129821580Y-83087562D01*
X129964438Y-83135181D01*
X130202533Y-83135181D01*
X154744681Y-83536043D02*
X153744681Y-83536043D01*
X154744681Y-84107472D01*
X153744681Y-84107472D01*
X154744681Y-85155091D02*
X154268490Y-84821757D01*
X154744681Y-84583662D02*
X153744681Y-84583662D01*
X153744681Y-84964615D01*
X153792300Y-85059853D01*
X153839919Y-85107472D01*
X153935157Y-85155091D01*
X154078014Y-85155091D01*
X154173252Y-85107472D01*
X154220871Y-85059853D01*
X154268490Y-84964615D01*
X154268490Y-84583662D01*
X154697062Y-85536043D02*
X154744681Y-85678900D01*
X154744681Y-85916996D01*
X154697062Y-86012234D01*
X154649443Y-86059853D01*
X154554205Y-86107472D01*
X154458967Y-86107472D01*
X154363729Y-86059853D01*
X154316110Y-86012234D01*
X154268490Y-85916996D01*
X154220871Y-85726519D01*
X154173252Y-85631281D01*
X154125633Y-85583662D01*
X154030395Y-85536043D01*
X153935157Y-85536043D01*
X153839919Y-85583662D01*
X153792300Y-85631281D01*
X153744681Y-85726519D01*
X153744681Y-85964615D01*
X153792300Y-86107472D01*
X153744681Y-86393186D02*
X153744681Y-86964615D01*
X154744681Y-86678900D02*
X153744681Y-86678900D01*
X152245962Y-83517053D02*
X152293581Y-83659910D01*
X152293581Y-83898006D01*
X152245962Y-83993244D01*
X152198343Y-84040863D01*
X152103105Y-84088482D01*
X152007867Y-84088482D01*
X151912629Y-84040863D01*
X151865010Y-83993244D01*
X151817390Y-83898006D01*
X151769771Y-83707529D01*
X151722152Y-83612291D01*
X151674533Y-83564672D01*
X151579295Y-83517053D01*
X151484057Y-83517053D01*
X151388819Y-83564672D01*
X151341200Y-83612291D01*
X151293581Y-83707529D01*
X151293581Y-83945625D01*
X151341200Y-84088482D01*
X151293581Y-84421815D02*
X152293581Y-84659910D01*
X151579295Y-84850387D01*
X152293581Y-85040863D01*
X151293581Y-85278958D01*
X152293581Y-85659910D02*
X151293581Y-85659910D01*
X151293581Y-85898005D01*
X151341200Y-86040863D01*
X151436438Y-86136101D01*
X151531676Y-86183720D01*
X151722152Y-86231339D01*
X151865010Y-86231339D01*
X152055486Y-86183720D01*
X152150724Y-86136101D01*
X152245962Y-86040863D01*
X152293581Y-85898005D01*
X152293581Y-85659910D01*
X152293581Y-86659910D02*
X151293581Y-86659910D01*
X151293581Y-87326576D02*
X151293581Y-87517053D01*
X151341200Y-87612291D01*
X151436438Y-87707529D01*
X151626914Y-87755148D01*
X151960248Y-87755148D01*
X152150724Y-87707529D01*
X152245962Y-87612291D01*
X152293581Y-87517053D01*
X152293581Y-87326576D01*
X152245962Y-87231338D01*
X152150724Y-87136100D01*
X151960248Y-87088481D01*
X151626914Y-87088481D01*
X151436438Y-87136100D01*
X151341200Y-87231338D01*
X151293581Y-87326576D01*
X148788500Y-84023296D02*
X148740881Y-83928058D01*
X148740881Y-83785201D01*
X148788500Y-83642343D01*
X148883738Y-83547105D01*
X148978976Y-83499486D01*
X149169452Y-83451867D01*
X149312310Y-83451867D01*
X149502786Y-83499486D01*
X149598024Y-83547105D01*
X149693262Y-83642343D01*
X149740881Y-83785201D01*
X149740881Y-83880439D01*
X149693262Y-84023296D01*
X149645643Y-84070915D01*
X149312310Y-84070915D01*
X149312310Y-83880439D01*
X149740881Y-84499486D02*
X148740881Y-84499486D01*
X149740881Y-85070915D01*
X148740881Y-85070915D01*
X149740881Y-85547105D02*
X148740881Y-85547105D01*
X148740881Y-85785200D01*
X148788500Y-85928058D01*
X148883738Y-86023296D01*
X148978976Y-86070915D01*
X149169452Y-86118534D01*
X149312310Y-86118534D01*
X149502786Y-86070915D01*
X149598024Y-86023296D01*
X149693262Y-85928058D01*
X149740881Y-85785200D01*
X149740881Y-85547105D01*
X147140562Y-83437695D02*
X147188181Y-83580552D01*
X147188181Y-83818648D01*
X147140562Y-83913886D01*
X147092943Y-83961505D01*
X146997705Y-84009124D01*
X146902467Y-84009124D01*
X146807229Y-83961505D01*
X146759610Y-83913886D01*
X146711990Y-83818648D01*
X146664371Y-83628171D01*
X146616752Y-83532933D01*
X146569133Y-83485314D01*
X146473895Y-83437695D01*
X146378657Y-83437695D01*
X146283419Y-83485314D01*
X146235800Y-83532933D01*
X146188181Y-83628171D01*
X146188181Y-83866267D01*
X146235800Y-84009124D01*
X146188181Y-84342457D02*
X147188181Y-84580552D01*
X146473895Y-84771029D01*
X147188181Y-84961505D01*
X146188181Y-85199600D01*
X147092943Y-86151981D02*
X147140562Y-86104362D01*
X147188181Y-85961505D01*
X147188181Y-85866267D01*
X147140562Y-85723409D01*
X147045324Y-85628171D01*
X146950086Y-85580552D01*
X146759610Y-85532933D01*
X146616752Y-85532933D01*
X146426276Y-85580552D01*
X146331038Y-85628171D01*
X146235800Y-85723409D01*
X146188181Y-85866267D01*
X146188181Y-85961505D01*
X146235800Y-86104362D01*
X146283419Y-86151981D01*
X147188181Y-87056743D02*
X147188181Y-86580552D01*
X146188181Y-86580552D01*
X147188181Y-87390076D02*
X146188181Y-87390076D01*
X147188181Y-87961505D02*
X146616752Y-87532933D01*
X146188181Y-87961505D02*
X146759610Y-87390076D01*
X143711681Y-83451867D02*
X144711681Y-83785200D01*
X143711681Y-84118534D01*
X144616443Y-85023296D02*
X144664062Y-84975677D01*
X144711681Y-84832820D01*
X144711681Y-84737582D01*
X144664062Y-84594724D01*
X144568824Y-84499486D01*
X144473586Y-84451867D01*
X144283110Y-84404248D01*
X144140252Y-84404248D01*
X143949776Y-84451867D01*
X143854538Y-84499486D01*
X143759300Y-84594724D01*
X143711681Y-84737582D01*
X143711681Y-84832820D01*
X143759300Y-84975677D01*
X143806919Y-85023296D01*
X144616443Y-86023296D02*
X144664062Y-85975677D01*
X144711681Y-85832820D01*
X144711681Y-85737582D01*
X144664062Y-85594724D01*
X144568824Y-85499486D01*
X144473586Y-85451867D01*
X144283110Y-85404248D01*
X144140252Y-85404248D01*
X143949776Y-85451867D01*
X143854538Y-85499486D01*
X143759300Y-85594724D01*
X143711681Y-85737582D01*
X143711681Y-85832820D01*
X143759300Y-85975677D01*
X143806919Y-86023296D01*
D13*
X115714800Y-86178200D02*
G75*
G03X115714800Y-86178200I-250000J0D01*
G01*
X113564800Y-92928200D02*
X113564800Y-91928200D01*
X113564800Y-91928200D02*
X112564800Y-91928200D01*
X112564800Y-91928200D02*
X112564800Y-92928200D01*
X114964800Y-86928200D02*
X116214800Y-86928200D01*
X116214800Y-86928200D02*
X116214800Y-85328200D01*
X116214800Y-85328200D02*
X117014800Y-85328200D01*
X117014800Y-85328200D02*
X117014800Y-89428200D01*
X116214800Y-86928200D02*
X117014800Y-86928200D01*
X111164800Y-86928200D02*
X109914800Y-86928200D01*
X109914800Y-86928200D02*
X109914800Y-85328200D01*
X109914800Y-85328200D02*
X109114800Y-85328200D01*
X109114800Y-85328200D02*
X109114800Y-89428200D01*
X109914800Y-86928200D02*
X109114800Y-86928200D01*
X115264800Y-92928200D02*
X110864800Y-92928200D01*
X115264800Y-88028200D02*
X115264800Y-91428200D01*
X115264800Y-91428200D02*
X114264800Y-91428200D01*
X114264800Y-91428200D02*
X114264800Y-88028200D01*
X114264800Y-88028200D02*
X115264800Y-88028200D01*
X110864800Y-88028200D02*
X110864800Y-91428200D01*
X110864800Y-91428200D02*
X111864800Y-91428200D01*
X111864800Y-91428200D02*
X111864800Y-88028200D01*
X111864800Y-88028200D02*
X110864800Y-88028200D01*
X113164800Y-86928200D02*
X112964800Y-86928200D01*
M02*
