G04 #@! TF.FileFunction,Soldermask,Bot*
%FSLAX46Y46*%
G04 Gerber Fmt 4.6, Leading zero omitted, Abs format (unit mm)*
G04 Created by KiCad (PCBNEW 4.0.7-e0-6372~58~ubuntu16.10.1) date Sun Oct 29 19:34:23 2017*
%MOMM*%
%LPD*%
G01*
G04 APERTURE LIST*
%ADD10C,0.100000*%
%ADD11C,1.860000*%
%ADD12C,3.160000*%
%ADD13O,1.410000X1.110000*%
%ADD14O,1.160000X1.710000*%
%ADD15R,1.160000X3.660000*%
%ADD16R,1.760000X3.560000*%
%ADD17C,1.660000*%
%ADD18R,1.684000X1.760000*%
G04 APERTURE END LIST*
D10*
D11*
X98863200Y-102166800D03*
X104863200Y-112366800D03*
X93363200Y-113166800D03*
X104463200Y-104866800D03*
X93363200Y-104866800D03*
D12*
X92913200Y-109016800D03*
X104913200Y-109016800D03*
D11*
X84429600Y-102166800D03*
X90429600Y-112366800D03*
X78929600Y-113166800D03*
X90029600Y-104866800D03*
X78929600Y-104866800D03*
D12*
X78479600Y-109016800D03*
X90479600Y-109016800D03*
D11*
X173042400Y-94022400D03*
X166042400Y-94022400D03*
D13*
X125657880Y-85026940D03*
X120657880Y-85026940D03*
D14*
X126657880Y-82326940D03*
X119657880Y-82326940D03*
D15*
X114064800Y-85928200D03*
X112064800Y-85928200D03*
D16*
X116464800Y-91478200D03*
X109664800Y-91478200D03*
D17*
X112585500Y-96774000D03*
X110756700Y-96774000D03*
X114414300Y-96774000D03*
X116243100Y-96774000D03*
X106997500Y-96824800D03*
X108877100Y-96824800D03*
X105117900Y-96824800D03*
D11*
X79078000Y-94030800D03*
X86078000Y-94030800D03*
D17*
X159004000Y-84328000D03*
X160782000Y-84328000D03*
X164338000Y-84328000D03*
X166116000Y-84328000D03*
X170434000Y-93980000D03*
X162560000Y-84328000D03*
X168402000Y-93980000D03*
X162550000Y-94000000D03*
X160350000Y-94000000D03*
D18*
X144212400Y-82046800D03*
X146752400Y-82046800D03*
X149292400Y-82046800D03*
X151832400Y-82046800D03*
X154372400Y-82046800D03*
M02*
