G04 #@! TF.FileFunction,Copper,L2,Bot,Signal*
%FSLAX46Y46*%
G04 Gerber Fmt 4.6, Leading zero omitted, Abs format (unit mm)*
G04 Created by KiCad (PCBNEW 4.0.7-e0-6372~58~ubuntu16.10.1) date Sun Oct 29 19:34:23 2017*
%MOMM*%
%LPD*%
G01*
G04 APERTURE LIST*
%ADD10C,0.100000*%
%ADD11C,1.700000*%
%ADD12C,3.000000*%
%ADD13O,1.250000X0.950000*%
%ADD14O,1.000000X1.550000*%
%ADD15R,1.000000X3.500000*%
%ADD16R,1.600000X3.400000*%
%ADD17C,1.500000*%
%ADD18R,1.524000X1.600000*%
%ADD19C,0.600000*%
%ADD20C,0.160000*%
%ADD21C,0.250000*%
%ADD22C,0.500000*%
%ADD23C,0.200000*%
G04 APERTURE END LIST*
D10*
D11*
X98863200Y-102166800D03*
X104863200Y-112366800D03*
X93363200Y-113166800D03*
X104463200Y-104866800D03*
X93363200Y-104866800D03*
D12*
X92913200Y-109016800D03*
X104913200Y-109016800D03*
D11*
X84429600Y-102166800D03*
X90429600Y-112366800D03*
X78929600Y-113166800D03*
X90029600Y-104866800D03*
X78929600Y-104866800D03*
D12*
X78479600Y-109016800D03*
X90479600Y-109016800D03*
D13*
X125657880Y-85026940D03*
X120657880Y-85026940D03*
D14*
X126657880Y-82326940D03*
X119657880Y-82326940D03*
D15*
X114064800Y-85928200D03*
X112064800Y-85928200D03*
D16*
X116464800Y-91478200D03*
X109664800Y-91478200D03*
D17*
X112585500Y-96774000D03*
X110756700Y-96774000D03*
X114414300Y-96774000D03*
X116243100Y-96774000D03*
X106997500Y-96824800D03*
X108877100Y-96824800D03*
X105117900Y-96824800D03*
X159004000Y-84328000D03*
X160782000Y-84328000D03*
X164338000Y-84328000D03*
X166116000Y-84328000D03*
X170434000Y-93980000D03*
X162560000Y-84328000D03*
X168402000Y-93980000D03*
X162550000Y-94000000D03*
X160350000Y-94000000D03*
D18*
X144212400Y-82046800D03*
X146752400Y-82046800D03*
X149292400Y-82046800D03*
X151832400Y-82046800D03*
X154372400Y-82046800D03*
D19*
X148950000Y-100950000D03*
X91160600Y-128041400D03*
X91185998Y-116662200D03*
X150168388Y-101091357D03*
X100838000Y-128066800D03*
X100787200Y-116662200D03*
X151366084Y-99495125D03*
X110337604Y-128092200D03*
X110312200Y-116662200D03*
X152527000Y-99504500D03*
X119938802Y-128066800D03*
X119888000Y-116662200D03*
X153809700Y-99504500D03*
X129489200Y-128117598D03*
X129463800Y-116738400D03*
X153226860Y-84850960D03*
X157835711Y-85589490D03*
X153047700Y-82575400D03*
X157592212Y-87137431D03*
X157073600Y-90322400D03*
X149501328Y-88454571D03*
X170650004Y-91100000D03*
X163410041Y-102090220D03*
X146000000Y-108850012D03*
X122500000Y-108850000D03*
X166527480Y-98140520D03*
X170434000Y-93980000D03*
X148759850Y-88287752D03*
X169869235Y-91308811D03*
X145999990Y-109650000D03*
X122500000Y-109650000D03*
X165209220Y-98425000D03*
X165178740Y-102087680D03*
X168402000Y-93980000D03*
X152800000Y-94550000D03*
X152050000Y-94550000D03*
X151300000Y-94550000D03*
X150550000Y-94550000D03*
X163150006Y-96750000D03*
X163900000Y-96750000D03*
X164650000Y-96750000D03*
X165400000Y-96749996D03*
X154700000Y-96750000D03*
X154000000Y-96749996D03*
X153250002Y-96750000D03*
X152550000Y-96750000D03*
X121150000Y-90450000D03*
X127250000Y-101050000D03*
X126550000Y-101050000D03*
X125850000Y-101050000D03*
X125149996Y-101050000D03*
X146550000Y-91150000D03*
X146550000Y-91850000D03*
X145849988Y-91850000D03*
X145865069Y-91135328D03*
X114250000Y-83150000D03*
X113500000Y-83150000D03*
X112800000Y-83150000D03*
X145359957Y-101063142D03*
X149809766Y-97845710D03*
X124703840Y-96647000D03*
X117373400Y-88871300D03*
X112077500Y-86487000D03*
X112090200Y-83134200D03*
X138598466Y-92904690D03*
X162518600Y-89763600D03*
X157623923Y-89507016D03*
X149292400Y-81894400D03*
X148869200Y-85582800D03*
X149569200Y-85582800D03*
X148869200Y-84982800D03*
X149569200Y-84982800D03*
X133969200Y-84982800D03*
X133169200Y-84982800D03*
X132469200Y-84982800D03*
X131769200Y-84982800D03*
X140446000Y-91643200D03*
X163195000Y-82870800D03*
X161467800Y-82870800D03*
X140665200Y-85979000D03*
X140665200Y-85267800D03*
X141351000Y-85267800D03*
X141351000Y-85953600D03*
X141884400Y-86868000D03*
X144195800Y-86868000D03*
X135458200Y-82270600D03*
X143027400Y-85902800D03*
X145854336Y-98882200D03*
X146939000Y-98221800D03*
X121158000Y-91236800D03*
X121158000Y-91998800D03*
X169514300Y-89006900D03*
X170439300Y-89006900D03*
X170439300Y-88081900D03*
X169514300Y-88081900D03*
X120205500Y-92430600D03*
X120208000Y-93057800D03*
X146107029Y-89959655D03*
X127669200Y-88582800D03*
X162330010Y-107550002D03*
X166035000Y-121088400D03*
X161603329Y-88132709D03*
X160500446Y-86199242D03*
X144461322Y-83357440D03*
X145495912Y-82849441D03*
X156902941Y-85430970D03*
X145557664Y-85642788D03*
X145639916Y-89310176D03*
X123244367Y-87280010D03*
X146038277Y-88142801D03*
X123181048Y-86119990D03*
X154844978Y-99469929D03*
X139090400Y-128168400D03*
X139039600Y-116763800D03*
X156112558Y-100705646D03*
X148590000Y-116797710D03*
X148615400Y-128168400D03*
X157250000Y-100050000D03*
X158343600Y-116797710D03*
X158343600Y-128168400D03*
X160547089Y-97212790D03*
X167843200Y-128168400D03*
X167817800Y-116738398D03*
X164080488Y-86292919D03*
X162585399Y-88417400D03*
X165048771Y-86625411D03*
X163766916Y-86985227D03*
X163068203Y-87284257D03*
X162306149Y-87608950D03*
X113804700Y-97802700D03*
X156386968Y-93191772D03*
X116243100Y-96774000D03*
X157279106Y-93183533D03*
X155744165Y-88475584D03*
X107061000Y-96852700D03*
X155100000Y-88950000D03*
X108839000Y-96852700D03*
X154077398Y-89018601D03*
X113144300Y-95250000D03*
X153479381Y-89550010D03*
X110629700Y-96852700D03*
X164896800Y-81940400D03*
X87378000Y-97730800D03*
X166624000Y-81940400D03*
X79978000Y-90330800D03*
X172375625Y-87819990D03*
X168750012Y-91400000D03*
X147724007Y-99590904D03*
X148342263Y-100191765D03*
X147131442Y-100248120D03*
X144320260Y-101391720D03*
X147850000Y-91700000D03*
X150869200Y-84930010D03*
X155638500Y-82602291D03*
X127600000Y-89550002D03*
X144400000Y-90250000D03*
X171475400Y-90601800D03*
X170078400Y-84896200D03*
X133000000Y-102450000D03*
X144726660Y-100299520D03*
X157055820Y-123197620D03*
X168650000Y-132549992D03*
X161000000Y-98450004D03*
X162267900Y-109626402D03*
X163319280Y-97744089D03*
X169000000Y-113658400D03*
X169367200Y-136518400D03*
X149512598Y-100287401D03*
X92506800Y-120986800D03*
X92557600Y-132416800D03*
X160205643Y-100443284D03*
X160172400Y-113658400D03*
X160172400Y-125088400D03*
X150772390Y-100031358D03*
X102006400Y-120986800D03*
X102006400Y-132416800D03*
X152000155Y-100283064D03*
X111658400Y-120986800D03*
X111760000Y-132416800D03*
X153160167Y-100228400D03*
X121259600Y-120986800D03*
X121208800Y-132416800D03*
X154320179Y-100241208D03*
X130708400Y-121037600D03*
X130708400Y-132467600D03*
X155480190Y-100215617D03*
X140462000Y-121088400D03*
X140411200Y-132518400D03*
X156440429Y-101435386D03*
X150063200Y-121088400D03*
X150012400Y-132518400D03*
X156750000Y-99400000D03*
X159592390Y-121088400D03*
X159766000Y-132518400D03*
X82450000Y-120950000D03*
X82450000Y-132400000D03*
X148452203Y-101595799D03*
X161870642Y-98450383D03*
X166035000Y-109658400D03*
X142062200Y-101605080D03*
X105117900Y-96824800D03*
X125200000Y-105300000D03*
X146519968Y-101150420D03*
X157410130Y-97560130D03*
X156600000Y-97550000D03*
X122300000Y-86700000D03*
X146700000Y-89250000D03*
D20*
X149208060Y-101208060D02*
X148950000Y-100950000D01*
X143859538Y-107236122D02*
X149208060Y-101887600D01*
X91185998Y-116662200D02*
X92087700Y-116662200D01*
X101513778Y-107236122D02*
X143859538Y-107236122D01*
X149208060Y-101887600D02*
X149208060Y-101208060D01*
X92087700Y-116662200D02*
X101513778Y-107236122D01*
X91160600Y-128041400D02*
X91160600Y-116687598D01*
X91160600Y-116687598D02*
X91185998Y-116662200D01*
X102878480Y-111221520D02*
X146137160Y-111221520D01*
X100787200Y-113312800D02*
X102878480Y-111221520D01*
X100787200Y-116662200D02*
X100787200Y-113312800D01*
X150168388Y-101515621D02*
X150168388Y-101091357D01*
X146137160Y-111221520D02*
X150168388Y-107190292D01*
X150168388Y-107190292D02*
X150168388Y-101515621D01*
X100487201Y-116962199D02*
X100787200Y-116662200D01*
X100838000Y-128066800D02*
X100838000Y-121336412D01*
X100838000Y-121336412D02*
X100487201Y-120985613D01*
X100487201Y-120985613D02*
X100487201Y-116962199D01*
X151366084Y-99919389D02*
X151366084Y-99495125D01*
X151366084Y-107010860D02*
X151366084Y-99919389D01*
X114784466Y-112189934D02*
X146187010Y-112189934D01*
X110312200Y-116662200D02*
X114784466Y-112189934D01*
X146187010Y-112189934D02*
X151366084Y-107010860D01*
D21*
X110312200Y-128066796D02*
X110337604Y-128092200D01*
D20*
X110312200Y-116662200D02*
X110312200Y-128066796D01*
D21*
X110324900Y-116649500D02*
X110312200Y-116662200D01*
D20*
X152527000Y-99928764D02*
X152527000Y-99504500D01*
X152580156Y-99981920D02*
X152527000Y-99928764D01*
X152580156Y-100561465D02*
X152580156Y-99981920D01*
X123640244Y-112909956D02*
X146485250Y-112909956D01*
X152501575Y-100640046D02*
X152580156Y-100561465D01*
X152501575Y-106893633D02*
X152501575Y-100640046D01*
X119888000Y-116662200D02*
X123640244Y-112909956D01*
X146485250Y-112909956D02*
X146505731Y-112889477D01*
X146505731Y-112889477D02*
X152501575Y-106893633D01*
D21*
X119888000Y-128015998D02*
X119938802Y-128066800D01*
D20*
X119888000Y-116662200D02*
X119888000Y-128015998D01*
D21*
X119926100Y-116624100D02*
X119888000Y-116662200D01*
D20*
X153740168Y-99998296D02*
X153809700Y-99928764D01*
X132572222Y-113629978D02*
X146783494Y-113629978D01*
X153740168Y-100506801D02*
X153740168Y-99998296D01*
X153661588Y-100585381D02*
X153740168Y-100506801D01*
X153661588Y-106751884D02*
X153661588Y-100585381D01*
X129463800Y-116738400D02*
X132572222Y-113629978D01*
X146783494Y-113629978D02*
X153661588Y-106751884D01*
X153809700Y-99928764D02*
X153809700Y-99504500D01*
D21*
X129463800Y-128092198D02*
X129489200Y-128117598D01*
D20*
X129463800Y-116738400D02*
X129463800Y-128092198D01*
X157592212Y-88646103D02*
X157592212Y-87561695D01*
X156773601Y-89464714D02*
X157592212Y-88646103D01*
X157592212Y-87561695D02*
X157592212Y-87137431D01*
X156773601Y-90022401D02*
X156773601Y-89464714D01*
X157073600Y-90322400D02*
X156773601Y-90022401D01*
D21*
X153047700Y-82575400D02*
X152361000Y-82575400D01*
X152361000Y-82575400D02*
X151832400Y-82046800D01*
D20*
X157835711Y-85589490D02*
X157835711Y-85165226D01*
X157835711Y-85165226D02*
X157521445Y-84850960D01*
X157521445Y-84850960D02*
X153651124Y-84850960D01*
X153651124Y-84850960D02*
X153226860Y-84850960D01*
X157805027Y-85620174D02*
X157835711Y-85589490D01*
X157805027Y-85653973D02*
X157805027Y-85620174D01*
X159370560Y-86169500D02*
X151786399Y-86169500D01*
X149801327Y-88154572D02*
X149501328Y-88454571D01*
X161101184Y-90539984D02*
X160822611Y-90261411D01*
X151786399Y-86169500D02*
X149801327Y-88154572D01*
X170089988Y-90539984D02*
X161101184Y-90539984D01*
X170650004Y-91100000D02*
X170089988Y-90539984D01*
X160822611Y-90261411D02*
X160822611Y-87621551D01*
X160822611Y-87621551D02*
X159370560Y-86169500D01*
X166227481Y-97840521D02*
X164089359Y-97840521D01*
X166527480Y-98140520D02*
X166227481Y-97840521D01*
X163410041Y-101665956D02*
X163410041Y-102090220D01*
X164089359Y-97840521D02*
X163410041Y-98519839D01*
X163410041Y-98519839D02*
X163410041Y-101665956D01*
X145999988Y-108850000D02*
X146000000Y-108850012D01*
X122500000Y-108850000D02*
X145999988Y-108850000D01*
X148759850Y-88712016D02*
X148759850Y-88287752D01*
X152472902Y-86489511D02*
X149851379Y-89111034D01*
X149158868Y-89111034D02*
X148759850Y-88712016D01*
X169869235Y-91308811D02*
X169420419Y-90859995D01*
X169420419Y-90859995D02*
X160968632Y-90859995D01*
X149851379Y-89111034D02*
X149158868Y-89111034D01*
X160502600Y-90393963D02*
X160502600Y-87754103D01*
X160968632Y-90859995D02*
X160502600Y-90393963D01*
X160502600Y-87754103D02*
X159238008Y-86489511D01*
X159238008Y-86489511D02*
X152472902Y-86489511D01*
X122924264Y-109650000D02*
X145999990Y-109650000D01*
X122500000Y-109650000D02*
X122924264Y-109650000D01*
X165178740Y-98455480D02*
X165209220Y-98425000D01*
X165178740Y-102087680D02*
X165178740Y-98455480D01*
D21*
X151300000Y-94550000D02*
X152050000Y-94550000D01*
D20*
X152550000Y-96750000D02*
X150905476Y-96750000D01*
X150905476Y-96750000D02*
X149809766Y-97845710D01*
D22*
X164650000Y-96750000D02*
X163900000Y-96750000D01*
D21*
X154699996Y-96749996D02*
X154700000Y-96750000D01*
X154000000Y-96749996D02*
X154699996Y-96749996D01*
X152550000Y-96750000D02*
X153250002Y-96750000D01*
X126550000Y-101050000D02*
X127250000Y-101050000D01*
X125149996Y-101050000D02*
X125850000Y-101050000D01*
X146550000Y-91150000D02*
X145879741Y-91150000D01*
X145879741Y-91150000D02*
X145865069Y-91135328D01*
X146550000Y-91850000D02*
X146550000Y-91150000D01*
X145849988Y-91850000D02*
X146550000Y-91850000D01*
X145643188Y-91643200D02*
X145849988Y-91850000D01*
X140446000Y-91643200D02*
X145643188Y-91643200D01*
X145865069Y-91834919D02*
X145849988Y-91850000D01*
D22*
X112800000Y-83150000D02*
X113500000Y-83150000D01*
D23*
X140446000Y-91643200D02*
X139746000Y-91643200D01*
X139746000Y-91643200D02*
X138598466Y-92790734D01*
X138598466Y-92790734D02*
X138598466Y-92904690D01*
D22*
X149306000Y-81894400D02*
X149292400Y-81894400D01*
X149313900Y-81902300D02*
X149306000Y-81894400D01*
D21*
X149569200Y-85582800D02*
X148869200Y-85582800D01*
X149569200Y-85082800D02*
X148869200Y-85082800D01*
D22*
X133169200Y-84982800D02*
X133969200Y-84982800D01*
X131769200Y-84982800D02*
X132469200Y-84982800D01*
D23*
X140665200Y-85267800D02*
X140665200Y-85979000D01*
X141351000Y-85953600D02*
X141351000Y-85267800D01*
D22*
X115064800Y-85928200D02*
X114064800Y-85928200D01*
X115540302Y-85928200D02*
X115064800Y-85928200D01*
X120205500Y-90593398D02*
X115540302Y-85928200D01*
X120205500Y-92430600D02*
X120205500Y-90593398D01*
X120208000Y-93057800D02*
X120208000Y-92433100D01*
X120208000Y-92433100D02*
X120205500Y-92430600D01*
D20*
X144900326Y-89428990D02*
X145430991Y-89959655D01*
X128515389Y-89428989D02*
X129839258Y-89428990D01*
X145430991Y-89959655D02*
X145682765Y-89959655D01*
X129839258Y-89428990D02*
X144900326Y-89428990D01*
X145682765Y-89959655D02*
X146107029Y-89959655D01*
X127669200Y-88582800D02*
X128515389Y-89428989D01*
X162630009Y-107850001D02*
X162330010Y-107550002D01*
X166035000Y-111254992D02*
X162630009Y-107850001D01*
X166035000Y-121088400D02*
X166035000Y-111254992D01*
D21*
X161603329Y-87302125D02*
X160800445Y-86499241D01*
X161603329Y-88132709D02*
X161603329Y-87302125D01*
X160800445Y-86499241D02*
X160500446Y-86199242D01*
D22*
X144461322Y-82933176D02*
X144461322Y-83357440D01*
X144461322Y-82129722D02*
X144461322Y-82933176D01*
X144233900Y-81902300D02*
X144461322Y-82129722D01*
X144233900Y-81902300D02*
X144233900Y-82627211D01*
D20*
X152525070Y-85430970D02*
X156478677Y-85430970D01*
X145557664Y-85642788D02*
X146850452Y-84350000D01*
X146850452Y-84350000D02*
X151444100Y-84350000D01*
X151444100Y-84350000D02*
X152525070Y-85430970D01*
X156478677Y-85430970D02*
X156902941Y-85430970D01*
D21*
X145495912Y-82168288D02*
X145495912Y-82425177D01*
X145761900Y-81902300D02*
X145495912Y-82168288D01*
X145495912Y-82425177D02*
X145495912Y-82849441D01*
X146773900Y-81902300D02*
X145761900Y-81902300D01*
D20*
X123244367Y-87280010D02*
X127620878Y-87280010D01*
X145339917Y-89010177D02*
X145639916Y-89310176D01*
X129748955Y-89010177D02*
X145339917Y-89010177D01*
X129699122Y-89060010D02*
X129748955Y-89010177D01*
X129400878Y-89060010D02*
X129699122Y-89060010D01*
X127620878Y-87280010D02*
X129400878Y-89060010D01*
X127548522Y-86119990D02*
X129571333Y-88142801D01*
X145614013Y-88142801D02*
X146038277Y-88142801D01*
X129571333Y-88142801D02*
X145614013Y-88142801D01*
X123181048Y-86119990D02*
X127548522Y-86119990D01*
X154900181Y-100519610D02*
X154900181Y-99949396D01*
X154844978Y-99894193D02*
X154844978Y-99469929D01*
X147081736Y-114350000D02*
X154821600Y-106610136D01*
X141453400Y-114350000D02*
X147081736Y-114350000D01*
X139039600Y-116763800D02*
X141453400Y-114350000D01*
X154821600Y-106610136D02*
X154821600Y-100598191D01*
X154821600Y-100598191D02*
X154900181Y-100519610D01*
X154900181Y-99949396D02*
X154844978Y-99894193D01*
X139039600Y-116763800D02*
X139039600Y-128117600D01*
D21*
X139039600Y-128117600D02*
X139090400Y-128168400D01*
D20*
X155770301Y-101047903D02*
X155812559Y-101005645D01*
X148590000Y-116797710D02*
X148590000Y-113860000D01*
X148590000Y-113860000D02*
X155770301Y-106679699D01*
X155770301Y-106679699D02*
X155770301Y-101047903D01*
X155812559Y-101005645D02*
X156112558Y-100705646D01*
X148590000Y-128143000D02*
X148590000Y-116797710D01*
D21*
X148590000Y-128143000D02*
X148615400Y-128168400D01*
D20*
X157549999Y-100349999D02*
X157250000Y-100050000D01*
X158343600Y-101143600D02*
X157549999Y-100349999D01*
X158343600Y-116797710D02*
X158343600Y-101143600D01*
X158343600Y-128168400D02*
X158343600Y-116797710D01*
X167817800Y-116738398D02*
X167817800Y-110507780D01*
X167817800Y-110507780D02*
X162470020Y-105160000D01*
X162470020Y-105160000D02*
X162470020Y-98191359D01*
X162470020Y-98191359D02*
X161491451Y-97212790D01*
X161491451Y-97212790D02*
X160971353Y-97212790D01*
X160971353Y-97212790D02*
X160547089Y-97212790D01*
X167843200Y-116763798D02*
X167817800Y-116738398D01*
X167843200Y-128168400D02*
X167843200Y-116763798D01*
X164080488Y-84585512D02*
X164338000Y-84328000D01*
X164080488Y-86292919D02*
X164080488Y-84585512D01*
X163256782Y-88417400D02*
X163009663Y-88417400D01*
X165048771Y-86625411D02*
X163256782Y-88417400D01*
X163009663Y-88417400D02*
X162585399Y-88417400D01*
X165048771Y-86625411D02*
X166116000Y-85558182D01*
X166116000Y-85558182D02*
X166116000Y-84328000D01*
X163766916Y-86985227D02*
X163466917Y-86685228D01*
X163466917Y-86685228D02*
X163466917Y-85234917D01*
X163466917Y-85234917D02*
X163309999Y-85077999D01*
X163309999Y-85077999D02*
X162560000Y-84328000D01*
X163118800Y-87233660D02*
X163068203Y-87284257D01*
X163068203Y-87284257D02*
X163068203Y-86614203D01*
X163068203Y-86614203D02*
X160782000Y-84328000D01*
X160439464Y-85318001D02*
X159994001Y-85318001D01*
X159994001Y-85318001D02*
X159753999Y-85077999D01*
X162306149Y-87608950D02*
X162306149Y-87184686D01*
X162306149Y-87184686D02*
X160439464Y-85318001D01*
X159753999Y-85077999D02*
X159004000Y-84328000D01*
X113804700Y-97802700D02*
X113804700Y-97383600D01*
X113804700Y-97383600D02*
X114414300Y-96774000D01*
X115967149Y-95221151D02*
X115164299Y-96024001D01*
X154357589Y-95221151D02*
X115967149Y-95221151D01*
X156386968Y-93191772D02*
X154357589Y-95221151D01*
X115164299Y-96024001D02*
X114414300Y-96774000D01*
X157279106Y-93183533D02*
X154857039Y-95605600D01*
X154857039Y-95605600D02*
X116547900Y-95605600D01*
X116547900Y-95605600D02*
X116243100Y-95910400D01*
X116243100Y-95910400D02*
X116243100Y-96774000D01*
X153955700Y-87744300D02*
X155012881Y-87744300D01*
X106997500Y-96824800D02*
X110041189Y-93781111D01*
X147918889Y-93781111D02*
X153955700Y-87744300D01*
X110041189Y-93781111D02*
X147918889Y-93781111D01*
X155012881Y-87744300D02*
X155444166Y-88175585D01*
X155444166Y-88175585D02*
X155744165Y-88475584D01*
X154550001Y-88400001D02*
X154800001Y-88650001D01*
X153809131Y-88400001D02*
X154550001Y-88400001D01*
X108877100Y-96824800D02*
X111560778Y-94141122D01*
X148068010Y-94141122D02*
X153809131Y-88400001D01*
X111560778Y-94141122D02*
X148068010Y-94141122D01*
X154800001Y-88650001D02*
X155100000Y-88950000D01*
X154077398Y-89442865D02*
X154077398Y-89018601D01*
X154077398Y-89772602D02*
X154077398Y-89442865D01*
X148988858Y-94861142D02*
X154077398Y-89772602D01*
X114498358Y-94861142D02*
X148988858Y-94861142D01*
X113533158Y-94861142D02*
X113444299Y-94950001D01*
X114498358Y-94861142D02*
X113533158Y-94861142D01*
X113444299Y-94950001D02*
X113144300Y-95250000D01*
X113335499Y-96024001D02*
X112585500Y-96774000D01*
X114498358Y-94861142D02*
X113335499Y-96024001D01*
X153179382Y-89850009D02*
X153479381Y-89550010D01*
X148528260Y-94501131D02*
X153179382Y-89850009D01*
X113029569Y-94501131D02*
X148528260Y-94501131D01*
X110756700Y-96774000D02*
X113029569Y-94501131D01*
X164896800Y-81940400D02*
X163732811Y-80776411D01*
X163732811Y-80776411D02*
X98158389Y-80776411D01*
X98158389Y-80776411D02*
X87784800Y-91150000D01*
X87784800Y-91150000D02*
X87784800Y-97324000D01*
X87784800Y-97324000D02*
X87378000Y-97730800D01*
X166624000Y-81940400D02*
X166624000Y-81516136D01*
X166624000Y-81516136D02*
X165524264Y-80416400D01*
X165524264Y-80416400D02*
X89918400Y-80416400D01*
X89918400Y-80416400D02*
X80004000Y-90330800D01*
X80004000Y-90330800D02*
X79978000Y-90330800D01*
X172375625Y-88244254D02*
X172375625Y-87819990D01*
X172375625Y-90742975D02*
X172375625Y-88244254D01*
X168750012Y-91400000D02*
X169200012Y-91850000D01*
X171268600Y-91850000D02*
X172375625Y-90742975D01*
X169200012Y-91850000D02*
X171268600Y-91850000D01*
X147724007Y-99590904D02*
X147724007Y-100658457D01*
X147459988Y-102108276D02*
X143565775Y-106002489D01*
X91165289Y-106002489D02*
X90029600Y-104866800D01*
X147724007Y-100658457D02*
X147459988Y-100922476D01*
X147459988Y-100922476D02*
X147459988Y-102108276D01*
X143565775Y-106002489D02*
X91165289Y-106002489D01*
X148342263Y-100191765D02*
X148342263Y-100616029D01*
X148342263Y-100616029D02*
X147819999Y-101138293D01*
X147819999Y-101138293D02*
X147819999Y-102257397D01*
X147819999Y-102257397D02*
X143714896Y-106362500D01*
X143714896Y-106362500D02*
X80425300Y-106362500D01*
X80425300Y-106362500D02*
X78929600Y-104866800D01*
X104463200Y-104866800D02*
X105313199Y-104016801D01*
X105313199Y-104016801D02*
X144533199Y-104016801D01*
X144533199Y-104016801D02*
X145939967Y-102610033D01*
X145939967Y-102610033D02*
X145939967Y-100872019D01*
X145939967Y-100872019D02*
X146563866Y-100248120D01*
X146563866Y-100248120D02*
X147131442Y-100248120D01*
X93363200Y-104866800D02*
X100683200Y-104866800D01*
X100683200Y-104866800D02*
X102400000Y-103150000D01*
X102400000Y-103150000D02*
X142561980Y-103150000D01*
X142561980Y-103150000D02*
X144020261Y-101691719D01*
X144020261Y-101691719D02*
X144320260Y-101391720D01*
X150869200Y-84930010D02*
X150569201Y-85230009D01*
X150569201Y-85230009D02*
X150569201Y-85619997D01*
X150569201Y-85619997D02*
X148150000Y-88039198D01*
X148150000Y-88039198D02*
X148150000Y-91400000D01*
X148150000Y-91400000D02*
X147850000Y-91700000D01*
X155638500Y-82224900D02*
X155638500Y-82602291D01*
X155315900Y-81902300D02*
X155638500Y-82224900D01*
X154393900Y-81902300D02*
X155315900Y-81902300D01*
X128299998Y-90250000D02*
X127899999Y-89850001D01*
X144400000Y-90250000D02*
X128299998Y-90250000D01*
X127899999Y-89850001D02*
X127600000Y-89550002D01*
X171475400Y-90177536D02*
X171475400Y-90601800D01*
X171475400Y-86953200D02*
X171475400Y-90177536D01*
X170078400Y-85556200D02*
X171475400Y-86953200D01*
X170078400Y-84896200D02*
X170078400Y-85556200D01*
X154973936Y-98732340D02*
X147525740Y-98732340D01*
X145958560Y-100299520D02*
X145150924Y-100299520D01*
X147525740Y-98732340D02*
X145958560Y-100299520D01*
X145150924Y-100299520D02*
X144726660Y-100299520D01*
X157055820Y-100814224D02*
X154973936Y-98732340D01*
X157055820Y-123197620D02*
X157055820Y-100814224D01*
X144726660Y-100299520D02*
X144426661Y-100599519D01*
X144426661Y-100599519D02*
X144286961Y-100599519D01*
X144286961Y-100599519D02*
X142460980Y-102425500D01*
X142460980Y-102425500D02*
X133024500Y-102425500D01*
X133024500Y-102425500D02*
X133000000Y-102450000D01*
X168350001Y-132249993D02*
X168650000Y-132549992D01*
X162267900Y-126167892D02*
X168350001Y-132249993D01*
X162267900Y-109626402D02*
X162267900Y-126167892D01*
X161750000Y-109108502D02*
X161750000Y-99150000D01*
X161050004Y-98450004D02*
X161000000Y-98450004D01*
X161750000Y-99150000D02*
X161050004Y-98450004D01*
X162267900Y-109626402D02*
X161750000Y-109108502D01*
X169299999Y-113958399D02*
X169000000Y-113658400D01*
X169367200Y-136518400D02*
X169667199Y-136218401D01*
X169667199Y-136218401D02*
X169667199Y-114325599D01*
X169667199Y-114325599D02*
X169299999Y-113958399D01*
X169000000Y-111100000D02*
X162830031Y-104930031D01*
X162830031Y-98233338D02*
X163019281Y-98044088D01*
X163019281Y-98044088D02*
X163319280Y-97744089D01*
X169000000Y-113658400D02*
X169000000Y-111100000D01*
X162830031Y-104930031D02*
X162830031Y-98233338D01*
X149512598Y-100711665D02*
X149512598Y-100287401D01*
X146052747Y-110796801D02*
X149588377Y-107261171D01*
X92506800Y-120986800D02*
X102696799Y-110796801D01*
X149588377Y-107261171D02*
X149588377Y-100787444D01*
X102696799Y-110796801D02*
X146052747Y-110796801D01*
X149588377Y-100787444D02*
X149512598Y-100711665D01*
X92557600Y-132416800D02*
X92557600Y-121037600D01*
X92557600Y-121037600D02*
X92506800Y-120986800D01*
X160172400Y-100476527D02*
X160205643Y-100443284D01*
X160172400Y-113658400D02*
X160172400Y-100476527D01*
X160172400Y-125088400D02*
X160172400Y-113658400D01*
X150772390Y-100455622D02*
X150772390Y-100031358D01*
X106621281Y-111810800D02*
X146057012Y-111810800D01*
X106065281Y-112366800D02*
X106621281Y-111810800D01*
X104863200Y-112366800D02*
X106065281Y-112366800D01*
X150772390Y-107095422D02*
X150772390Y-100455622D01*
X146057012Y-111810800D02*
X150772390Y-107095422D01*
X102006400Y-120986800D02*
X102006400Y-115232180D01*
X102006400Y-115232180D02*
X104863200Y-112375380D01*
X104863200Y-112375380D02*
X104863200Y-112366800D01*
X102006400Y-132416800D02*
X102006400Y-120986800D01*
X146336131Y-112549945D02*
X152000155Y-106885921D01*
X111658400Y-120986800D02*
X120095255Y-112549945D01*
X120095255Y-112549945D02*
X146336131Y-112549945D01*
X152000155Y-106885921D02*
X152000155Y-100707328D01*
X152000155Y-100707328D02*
X152000155Y-100283064D01*
X111760000Y-132416800D02*
X111760000Y-121088400D01*
X111760000Y-121088400D02*
X111658400Y-120986800D01*
X153160167Y-106744173D02*
X153160167Y-100652664D01*
X153160167Y-100652664D02*
X153160167Y-100228400D01*
X128976433Y-113269967D02*
X146634373Y-113269967D01*
X121259600Y-120986800D02*
X128976433Y-113269967D01*
X146634373Y-113269967D02*
X153160167Y-106744173D01*
X121208800Y-121037600D02*
X121259600Y-120986800D01*
X121208800Y-132416800D02*
X121208800Y-121037600D01*
X154320179Y-100665472D02*
X154320179Y-100241208D01*
X146932615Y-113989989D02*
X154320179Y-106602425D01*
X137756011Y-113989989D02*
X146932615Y-113989989D01*
X154320179Y-106602425D02*
X154320179Y-100665472D01*
X130708400Y-121037600D02*
X137756011Y-113989989D01*
X130708400Y-132467600D02*
X130708400Y-121037600D01*
X155480190Y-100639881D02*
X155480190Y-100215617D01*
X141152467Y-120788401D02*
X155401601Y-106539267D01*
X155401601Y-100718470D02*
X155480190Y-100639881D01*
X155401601Y-106539267D02*
X155401601Y-100718470D01*
X140462000Y-121088400D02*
X140761999Y-120788401D01*
X140761999Y-120788401D02*
X141152467Y-120788401D01*
X140411200Y-132518400D02*
X140411200Y-121139200D01*
X140411200Y-121139200D02*
X140462000Y-121088400D01*
X156440429Y-101859650D02*
X156440429Y-101435386D01*
X156440429Y-114711171D02*
X156440429Y-101859650D01*
X150063200Y-121088400D02*
X156440429Y-114711171D01*
X150012400Y-132518400D02*
X150012400Y-121139200D01*
X150012400Y-121139200D02*
X150063200Y-121088400D01*
X157424264Y-99400000D02*
X157174264Y-99400000D01*
X157174264Y-99400000D02*
X156750000Y-99400000D01*
X159592390Y-101568126D02*
X157424264Y-99400000D01*
X159592390Y-121088400D02*
X159592390Y-101568126D01*
X159592390Y-121512664D02*
X159592390Y-121088400D01*
X159592390Y-131920526D02*
X159592390Y-121512664D01*
X159766000Y-132094136D02*
X159592390Y-131920526D01*
X159766000Y-132518400D02*
X159766000Y-132094136D01*
X82450000Y-120525736D02*
X82450000Y-120950000D01*
X90429600Y-112366800D02*
X82450000Y-120346400D01*
X82450000Y-120346400D02*
X82450000Y-120525736D01*
X82450000Y-132400000D02*
X82450000Y-120950000D01*
X148452203Y-102134325D02*
X148452203Y-102020063D01*
X101443928Y-106796840D02*
X143789688Y-106796840D01*
X143789688Y-106796840D02*
X148452203Y-102134325D01*
X91279599Y-111516801D02*
X96723967Y-111516801D01*
X90429600Y-112366800D02*
X91279599Y-111516801D01*
X148452203Y-102020063D02*
X148452203Y-101595799D01*
X96723967Y-111516801D02*
X101443928Y-106796840D01*
X162110011Y-98689752D02*
X161870642Y-98450383D01*
X164500000Y-108123400D02*
X162110011Y-105733411D01*
X164500000Y-108998400D02*
X164500000Y-108123400D01*
X166035000Y-109658400D02*
X165160000Y-109658400D01*
X162110011Y-105733411D02*
X162110011Y-98689752D01*
X165160000Y-109658400D02*
X164500000Y-108998400D01*
X132425060Y-102166800D02*
X132986780Y-101605080D01*
X132986780Y-101605080D02*
X142062200Y-101605080D01*
X98863200Y-102166800D02*
X132425060Y-102166800D01*
X84429600Y-102166800D02*
X98863200Y-102166800D01*
X125624264Y-105300000D02*
X125200000Y-105300000D01*
X143759132Y-105300000D02*
X125624264Y-105300000D01*
X146519968Y-102539164D02*
X143759132Y-105300000D01*
X146519968Y-101150420D02*
X146519968Y-102539164D01*
X159870260Y-95100000D02*
X161450000Y-95100000D01*
X161450000Y-95100000D02*
X162550000Y-94000000D01*
X157410130Y-97560130D02*
X159870260Y-95100000D01*
X156600000Y-97550000D02*
X160150000Y-94000000D01*
X160150000Y-94000000D02*
X160350000Y-94000000D01*
X127550000Y-86700000D02*
X129500000Y-88650000D01*
X122300000Y-86700000D02*
X127550000Y-86700000D01*
X146400001Y-88950001D02*
X146700000Y-89250000D01*
X146178586Y-88728586D02*
X146400001Y-88950001D01*
X145770317Y-88728586D02*
X146178586Y-88728586D01*
X129500000Y-88650000D02*
X145691731Y-88650000D01*
X145691731Y-88650000D02*
X145770317Y-88728586D01*
G36*
X80012722Y-89600830D02*
X79833431Y-89600673D01*
X79565028Y-89711575D01*
X79359497Y-89916748D01*
X79248127Y-90184957D01*
X79247873Y-90475369D01*
X79358775Y-90743772D01*
X79563948Y-90949303D01*
X79832157Y-91060673D01*
X80122569Y-91060927D01*
X80390972Y-90950025D01*
X80596503Y-90744852D01*
X80707873Y-90476643D01*
X80707985Y-90348063D01*
X90129648Y-80926400D01*
X97287151Y-80926400D01*
X87424176Y-90789376D01*
X87313621Y-90954831D01*
X87274800Y-91150000D01*
X87274800Y-93575412D01*
X87163764Y-93306685D01*
X86804009Y-92946301D01*
X86333725Y-92751022D01*
X85824509Y-92750578D01*
X85353885Y-92945036D01*
X84993501Y-93304791D01*
X84798222Y-93775075D01*
X84797778Y-94284291D01*
X84992236Y-94754915D01*
X85351991Y-95115299D01*
X85822275Y-95310578D01*
X86331491Y-95311022D01*
X86802115Y-95116564D01*
X87162499Y-94756809D01*
X87274800Y-94486358D01*
X87274800Y-97000709D01*
X87233431Y-97000673D01*
X86965028Y-97111575D01*
X86759497Y-97316748D01*
X86648127Y-97584957D01*
X86647873Y-97875369D01*
X86758775Y-98143772D01*
X86963948Y-98349303D01*
X87232157Y-98460673D01*
X87522569Y-98460927D01*
X87790972Y-98350025D01*
X87996503Y-98144852D01*
X88107873Y-97876643D01*
X88108008Y-97722041D01*
X88145424Y-97684625D01*
X88255979Y-97519169D01*
X88258971Y-97504127D01*
X88294800Y-97324000D01*
X88294800Y-97058487D01*
X103937695Y-97058487D01*
X104116961Y-97492343D01*
X104448611Y-97824572D01*
X104882154Y-98004595D01*
X105351587Y-98005005D01*
X105785443Y-97825739D01*
X106057884Y-97553773D01*
X106328211Y-97824572D01*
X106761754Y-98004595D01*
X107231187Y-98005005D01*
X107665043Y-97825739D01*
X107937484Y-97553773D01*
X108207811Y-97824572D01*
X108641354Y-98004595D01*
X109110787Y-98005005D01*
X109544643Y-97825739D01*
X109842484Y-97528417D01*
X110087411Y-97773772D01*
X110520954Y-97953795D01*
X110990387Y-97954205D01*
X111424243Y-97774939D01*
X111671240Y-97528373D01*
X111916211Y-97773772D01*
X112349754Y-97953795D01*
X112819187Y-97954205D01*
X113074659Y-97848646D01*
X113074573Y-97947269D01*
X113185475Y-98215672D01*
X113390648Y-98421203D01*
X113658857Y-98532573D01*
X113949269Y-98532827D01*
X114217672Y-98421925D01*
X114423203Y-98216752D01*
X114532264Y-97954104D01*
X114647987Y-97954205D01*
X115081843Y-97774939D01*
X115328840Y-97528373D01*
X115573811Y-97773772D01*
X116007354Y-97953795D01*
X116476787Y-97954205D01*
X116910643Y-97774939D01*
X116991153Y-97694569D01*
X155869873Y-97694569D01*
X155980775Y-97962972D01*
X156185948Y-98168503D01*
X156454157Y-98279873D01*
X156744569Y-98280127D01*
X156994362Y-98176914D01*
X156996078Y-98178633D01*
X157264287Y-98290003D01*
X157554699Y-98290257D01*
X157823102Y-98179355D01*
X158028633Y-97974182D01*
X158140003Y-97705973D01*
X158140138Y-97551370D01*
X158334149Y-97357359D01*
X159816962Y-97357359D01*
X159927864Y-97625762D01*
X160133037Y-97831293D01*
X160401246Y-97942663D01*
X160474884Y-97942727D01*
X160381497Y-98035952D01*
X160270127Y-98304161D01*
X160269873Y-98594573D01*
X160380775Y-98862976D01*
X160585948Y-99068507D01*
X160854157Y-99179877D01*
X161058807Y-99180056D01*
X161240000Y-99361249D01*
X161240000Y-109108502D01*
X161270943Y-109264064D01*
X161278821Y-109303671D01*
X161389376Y-109469126D01*
X161537907Y-109617657D01*
X161537773Y-109770971D01*
X161648675Y-110039374D01*
X161757900Y-110148790D01*
X161757900Y-126167892D01*
X161796721Y-126363061D01*
X161907276Y-126528516D01*
X167920007Y-132541248D01*
X167919873Y-132694561D01*
X168030775Y-132962964D01*
X168235948Y-133168495D01*
X168504157Y-133279865D01*
X168794569Y-133280119D01*
X169062972Y-133169217D01*
X169157199Y-133075154D01*
X169157199Y-135815309D01*
X168954228Y-135899175D01*
X168748697Y-136104348D01*
X168637327Y-136372557D01*
X168637073Y-136662969D01*
X168747975Y-136931372D01*
X168953148Y-137136903D01*
X169221357Y-137248273D01*
X169511769Y-137248527D01*
X169780172Y-137137625D01*
X169985703Y-136932452D01*
X170097073Y-136664243D01*
X170097238Y-136475139D01*
X170138378Y-136413570D01*
X170177199Y-136218401D01*
X170177199Y-114325599D01*
X170138378Y-114130430D01*
X170044947Y-113990602D01*
X170027823Y-113964974D01*
X169729993Y-113667145D01*
X169730127Y-113513831D01*
X169619225Y-113245428D01*
X169510000Y-113136012D01*
X169510000Y-111100000D01*
X169471179Y-110904831D01*
X169398995Y-110796801D01*
X169360625Y-110739376D01*
X163340031Y-104718783D01*
X163340031Y-102820159D01*
X163554610Y-102820347D01*
X163823013Y-102709445D01*
X164028544Y-102504272D01*
X164139914Y-102236063D01*
X164140168Y-101945651D01*
X164029266Y-101677248D01*
X163920041Y-101567832D01*
X163920041Y-98731087D01*
X164300608Y-98350521D01*
X164479285Y-98350521D01*
X164479093Y-98569569D01*
X164589995Y-98837972D01*
X164668740Y-98916854D01*
X164668740Y-101565314D01*
X164560237Y-101673628D01*
X164448867Y-101941837D01*
X164448613Y-102232249D01*
X164559515Y-102500652D01*
X164764688Y-102706183D01*
X165032897Y-102817553D01*
X165323309Y-102817807D01*
X165591712Y-102706905D01*
X165797243Y-102501732D01*
X165908613Y-102233523D01*
X165908867Y-101943111D01*
X165797965Y-101674708D01*
X165688740Y-101565292D01*
X165688740Y-98977793D01*
X165827723Y-98839052D01*
X165935122Y-98580406D01*
X166113428Y-98759023D01*
X166381637Y-98870393D01*
X166672049Y-98870647D01*
X166940452Y-98759745D01*
X167145983Y-98554572D01*
X167257353Y-98286363D01*
X167257607Y-97995951D01*
X167146705Y-97727548D01*
X166941532Y-97522017D01*
X166673323Y-97410647D01*
X166484219Y-97410482D01*
X166422650Y-97369342D01*
X166227481Y-97330521D01*
X164089359Y-97330521D01*
X163949734Y-97358294D01*
X163938505Y-97331117D01*
X163733332Y-97125586D01*
X163465123Y-97014216D01*
X163174711Y-97013962D01*
X162906308Y-97124864D01*
X162700777Y-97330037D01*
X162591974Y-97592064D01*
X161852075Y-96852166D01*
X161686620Y-96741611D01*
X161491451Y-96702790D01*
X161069455Y-96702790D01*
X160961141Y-96594287D01*
X160692932Y-96482917D01*
X160402520Y-96482663D01*
X160134117Y-96593565D01*
X159928586Y-96798738D01*
X159817216Y-97066947D01*
X159816962Y-97357359D01*
X158334149Y-97357359D01*
X160081509Y-95610000D01*
X161450000Y-95610000D01*
X161645169Y-95571179D01*
X161810624Y-95460624D01*
X162156824Y-95114424D01*
X162314254Y-95179795D01*
X162783687Y-95180205D01*
X163217543Y-95000939D01*
X163549772Y-94669289D01*
X163713125Y-94275891D01*
X164762178Y-94275891D01*
X164956636Y-94746515D01*
X165316391Y-95106899D01*
X165786675Y-95302178D01*
X166295891Y-95302622D01*
X166766515Y-95108164D01*
X167126899Y-94748409D01*
X167285208Y-94367158D01*
X167401061Y-94647543D01*
X167732711Y-94979772D01*
X168166254Y-95159795D01*
X168635687Y-95160205D01*
X169069543Y-94980939D01*
X169401772Y-94649289D01*
X169417817Y-94610649D01*
X169433061Y-94647543D01*
X169764711Y-94979772D01*
X170198254Y-95159795D01*
X170667687Y-95160205D01*
X171101543Y-94980939D01*
X171433772Y-94649289D01*
X171588820Y-94275891D01*
X171762178Y-94275891D01*
X171956636Y-94746515D01*
X172316391Y-95106899D01*
X172786675Y-95302178D01*
X173295891Y-95302622D01*
X173766515Y-95108164D01*
X174126899Y-94748409D01*
X174322178Y-94278125D01*
X174322622Y-93768909D01*
X174128164Y-93298285D01*
X173768409Y-92937901D01*
X173298125Y-92742622D01*
X172788909Y-92742178D01*
X172318285Y-92936636D01*
X171957901Y-93296391D01*
X171762622Y-93766675D01*
X171762178Y-94275891D01*
X171588820Y-94275891D01*
X171613795Y-94215746D01*
X171614205Y-93746313D01*
X171434939Y-93312457D01*
X171103289Y-92980228D01*
X170669746Y-92800205D01*
X170200313Y-92799795D01*
X169766457Y-92979061D01*
X169434228Y-93310711D01*
X169418183Y-93349351D01*
X169402939Y-93312457D01*
X169071289Y-92980228D01*
X168637746Y-92800205D01*
X168168313Y-92799795D01*
X167734457Y-92979061D01*
X167402228Y-93310711D01*
X167267431Y-93635337D01*
X167128164Y-93298285D01*
X166768409Y-92937901D01*
X166298125Y-92742622D01*
X165788909Y-92742178D01*
X165318285Y-92936636D01*
X164957901Y-93296391D01*
X164762622Y-93766675D01*
X164762178Y-94275891D01*
X163713125Y-94275891D01*
X163729795Y-94235746D01*
X163730205Y-93766313D01*
X163550939Y-93332457D01*
X163219289Y-93000228D01*
X162785746Y-92820205D01*
X162316313Y-92819795D01*
X161882457Y-92999061D01*
X161550228Y-93330711D01*
X161449976Y-93572144D01*
X161350939Y-93332457D01*
X161019289Y-93000228D01*
X160585746Y-92820205D01*
X160116313Y-92819795D01*
X159682457Y-92999061D01*
X159350228Y-93330711D01*
X159170205Y-93764254D01*
X159169795Y-94233687D01*
X159177183Y-94251568D01*
X156608745Y-96820007D01*
X156455431Y-96819873D01*
X156187028Y-96930775D01*
X155981497Y-97135948D01*
X155870127Y-97404157D01*
X155869873Y-97694569D01*
X116991153Y-97694569D01*
X117242872Y-97443289D01*
X117422895Y-97009746D01*
X117423305Y-96540313D01*
X117247817Y-96115600D01*
X154857039Y-96115600D01*
X155052208Y-96076779D01*
X155217663Y-95966224D01*
X157270361Y-93913526D01*
X157423675Y-93913660D01*
X157692078Y-93802758D01*
X157897609Y-93597585D01*
X158008979Y-93329376D01*
X158009233Y-93038964D01*
X157898331Y-92770561D01*
X157693158Y-92565030D01*
X157424949Y-92453660D01*
X157134537Y-92453406D01*
X156866134Y-92564308D01*
X156829040Y-92601338D01*
X156801020Y-92573269D01*
X156532811Y-92461899D01*
X156242399Y-92461645D01*
X155973996Y-92572547D01*
X155768465Y-92777720D01*
X155657095Y-93045929D01*
X155656960Y-93200531D01*
X154146341Y-94711151D01*
X149860097Y-94711151D01*
X154438022Y-90133227D01*
X154548577Y-89967771D01*
X154559942Y-89910634D01*
X154587398Y-89772602D01*
X154587398Y-89540967D01*
X154622991Y-89505436D01*
X154685948Y-89568503D01*
X154954157Y-89679873D01*
X155244569Y-89680127D01*
X155512972Y-89569225D01*
X155718503Y-89364052D01*
X155784290Y-89205620D01*
X155888734Y-89205711D01*
X156157137Y-89094809D01*
X156362668Y-88889636D01*
X156474038Y-88621427D01*
X156474292Y-88331015D01*
X156363390Y-88062612D01*
X156158217Y-87857081D01*
X155890008Y-87745711D01*
X155735406Y-87745576D01*
X155373505Y-87383676D01*
X155208050Y-87273121D01*
X155012881Y-87234300D01*
X153955700Y-87234300D01*
X153760531Y-87273121D01*
X153595076Y-87383676D01*
X147707641Y-93271111D01*
X120909858Y-93271111D01*
X120937873Y-93203643D01*
X120938127Y-92913231D01*
X120888000Y-92791915D01*
X120888000Y-92690530D01*
X120935373Y-92576443D01*
X120935627Y-92286031D01*
X120885500Y-92164715D01*
X120885500Y-90593398D01*
X120833738Y-90333173D01*
X120686333Y-90112565D01*
X120686330Y-90112563D01*
X117418337Y-86844569D01*
X121569873Y-86844569D01*
X121680775Y-87112972D01*
X121885948Y-87318503D01*
X122154157Y-87429873D01*
X122444569Y-87430127D01*
X122514260Y-87401331D01*
X122514240Y-87424579D01*
X122625142Y-87692982D01*
X122830315Y-87898513D01*
X123098524Y-88009883D01*
X123388936Y-88010137D01*
X123657339Y-87899235D01*
X123766755Y-87790010D01*
X127409630Y-87790010D01*
X127487596Y-87867976D01*
X127256228Y-87963575D01*
X127050697Y-88168748D01*
X126939327Y-88436957D01*
X126939073Y-88727369D01*
X127049975Y-88995772D01*
X127085885Y-89031744D01*
X126981497Y-89135950D01*
X126870127Y-89404159D01*
X126869873Y-89694571D01*
X126980775Y-89962974D01*
X127185948Y-90168505D01*
X127454157Y-90279875D01*
X127608760Y-90280010D01*
X127939374Y-90610624D01*
X128104829Y-90721179D01*
X128299998Y-90760000D01*
X143877634Y-90760000D01*
X143985948Y-90868503D01*
X144254157Y-90979873D01*
X144544569Y-90980127D01*
X144812972Y-90869225D01*
X145018503Y-90664052D01*
X145129873Y-90395843D01*
X145129904Y-90360061D01*
X145164272Y-90383025D01*
X145235822Y-90430834D01*
X145430991Y-90469655D01*
X145584663Y-90469655D01*
X145692977Y-90578158D01*
X145961186Y-90689528D01*
X146251598Y-90689782D01*
X146520001Y-90578880D01*
X146725532Y-90373707D01*
X146836902Y-90105498D01*
X146837012Y-89980120D01*
X146844569Y-89980127D01*
X147112972Y-89869225D01*
X147318503Y-89664052D01*
X147429873Y-89395843D01*
X147430127Y-89105431D01*
X147319225Y-88837028D01*
X147114052Y-88631497D01*
X146845843Y-88520127D01*
X146691240Y-88519992D01*
X146677706Y-88506457D01*
X146768150Y-88288644D01*
X146768404Y-87998232D01*
X146657502Y-87729829D01*
X146452329Y-87524298D01*
X146184120Y-87412928D01*
X145893708Y-87412674D01*
X145625305Y-87523576D01*
X145515889Y-87632801D01*
X129782582Y-87632801D01*
X127937138Y-85787357D01*
X144827537Y-85787357D01*
X144938439Y-86055760D01*
X145143612Y-86261291D01*
X145411821Y-86372661D01*
X145702233Y-86372915D01*
X145970636Y-86262013D01*
X146176167Y-86056840D01*
X146287537Y-85788631D01*
X146287672Y-85634028D01*
X147061701Y-84860000D01*
X150139261Y-84860000D01*
X150139162Y-84973271D01*
X150098022Y-85034840D01*
X150059201Y-85230009D01*
X150059201Y-85408748D01*
X147789376Y-87678574D01*
X147678821Y-87844029D01*
X147640000Y-88039198D01*
X147640000Y-90996909D01*
X147437028Y-91080775D01*
X147231497Y-91285948D01*
X147120127Y-91554157D01*
X147119873Y-91844569D01*
X147230775Y-92112972D01*
X147435948Y-92318503D01*
X147704157Y-92429873D01*
X147994569Y-92430127D01*
X148262972Y-92319225D01*
X148468503Y-92114052D01*
X148579873Y-91845843D01*
X148580038Y-91656740D01*
X148621179Y-91595169D01*
X148629083Y-91555431D01*
X148660000Y-91400000D01*
X148660000Y-89333415D01*
X148798244Y-89471659D01*
X148887337Y-89531189D01*
X148963699Y-89582213D01*
X149158868Y-89621034D01*
X149851379Y-89621034D01*
X150046548Y-89582213D01*
X150212003Y-89471658D01*
X152684151Y-86999511D01*
X156862332Y-86999511D01*
X156862085Y-87282000D01*
X156972987Y-87550403D01*
X157082212Y-87659819D01*
X157082212Y-88434854D01*
X156412977Y-89104090D01*
X156302422Y-89269545D01*
X156263601Y-89464714D01*
X156263601Y-90022401D01*
X156296490Y-90187748D01*
X156302422Y-90217570D01*
X156343637Y-90279252D01*
X156343473Y-90466969D01*
X156454375Y-90735372D01*
X156659548Y-90940903D01*
X156927757Y-91052273D01*
X157218169Y-91052527D01*
X157486572Y-90941625D01*
X157692103Y-90736452D01*
X157803473Y-90468243D01*
X157803727Y-90177831D01*
X157692825Y-89909428D01*
X157487652Y-89703897D01*
X157323732Y-89635831D01*
X157952837Y-89006727D01*
X158026018Y-88897204D01*
X158063391Y-88841272D01*
X158102212Y-88646103D01*
X158102212Y-87659797D01*
X158210715Y-87551483D01*
X158322085Y-87283274D01*
X158322333Y-86999511D01*
X159026760Y-86999511D01*
X159992600Y-87965352D01*
X159992600Y-90393963D01*
X160020137Y-90532401D01*
X160031421Y-90589132D01*
X160141976Y-90754587D01*
X160608008Y-91220620D01*
X160686996Y-91273398D01*
X160773463Y-91331174D01*
X160968632Y-91369995D01*
X168020038Y-91369995D01*
X168019885Y-91544569D01*
X168130787Y-91812972D01*
X168335960Y-92018503D01*
X168604169Y-92129873D01*
X168758771Y-92130008D01*
X168839387Y-92210624D01*
X168950334Y-92284757D01*
X169004843Y-92321179D01*
X169200012Y-92360000D01*
X171268600Y-92360000D01*
X171463769Y-92321179D01*
X171629224Y-92210624D01*
X172736250Y-91103599D01*
X172835253Y-90955431D01*
X172846804Y-90938144D01*
X172885625Y-90742975D01*
X172885625Y-88342356D01*
X172994128Y-88234042D01*
X173105498Y-87965833D01*
X173105752Y-87675421D01*
X172994850Y-87407018D01*
X172789677Y-87201487D01*
X172521468Y-87090117D01*
X172231056Y-87089863D01*
X171985400Y-87191366D01*
X171985400Y-86953200D01*
X171946579Y-86758031D01*
X171924147Y-86724459D01*
X171836024Y-86592575D01*
X170625239Y-85381791D01*
X170696903Y-85310252D01*
X170808273Y-85042043D01*
X170808527Y-84751631D01*
X170697625Y-84483228D01*
X170492452Y-84277697D01*
X170224243Y-84166327D01*
X169933831Y-84166073D01*
X169665428Y-84276975D01*
X169459897Y-84482148D01*
X169348527Y-84750357D01*
X169348273Y-85040769D01*
X169459175Y-85309172D01*
X169568400Y-85418588D01*
X169568400Y-85556200D01*
X169598216Y-85706096D01*
X169607221Y-85751369D01*
X169717776Y-85916824D01*
X170965400Y-87164449D01*
X170965400Y-90079434D01*
X170856897Y-90187748D01*
X170781172Y-90370114D01*
X170641244Y-90369992D01*
X170450612Y-90179360D01*
X170285157Y-90068805D01*
X170089988Y-90029984D01*
X161332611Y-90029984D01*
X161332611Y-88810729D01*
X161457486Y-88862582D01*
X161747898Y-88862836D01*
X161945800Y-88781064D01*
X161966174Y-88830372D01*
X162171347Y-89035903D01*
X162439556Y-89147273D01*
X162729968Y-89147527D01*
X162998371Y-89036625D01*
X163107787Y-88927400D01*
X163256782Y-88927400D01*
X163451951Y-88888579D01*
X163617406Y-88778024D01*
X165040027Y-87355404D01*
X165193340Y-87355538D01*
X165461743Y-87244636D01*
X165667274Y-87039463D01*
X165778644Y-86771254D01*
X165778779Y-86616651D01*
X166476625Y-85918806D01*
X166550078Y-85808876D01*
X166587179Y-85753351D01*
X166626000Y-85558182D01*
X166626000Y-85394035D01*
X166783543Y-85328939D01*
X167115772Y-84997289D01*
X167295795Y-84563746D01*
X167296205Y-84094313D01*
X167116939Y-83660457D01*
X166785289Y-83328228D01*
X166351746Y-83148205D01*
X165882313Y-83147795D01*
X165448457Y-83327061D01*
X165226905Y-83548227D01*
X165007289Y-83328228D01*
X164573746Y-83148205D01*
X164104313Y-83147795D01*
X163670457Y-83327061D01*
X163448905Y-83548227D01*
X163229289Y-83328228D01*
X162795746Y-83148205D01*
X162326313Y-83147795D01*
X161892457Y-83327061D01*
X161670905Y-83548227D01*
X161451289Y-83328228D01*
X161017746Y-83148205D01*
X160548313Y-83147795D01*
X160114457Y-83327061D01*
X159892905Y-83548227D01*
X159673289Y-83328228D01*
X159239746Y-83148205D01*
X158770313Y-83147795D01*
X158336457Y-83327061D01*
X158004228Y-83658711D01*
X157824205Y-84092254D01*
X157823891Y-84451462D01*
X157716614Y-84379781D01*
X157521445Y-84340960D01*
X153749226Y-84340960D01*
X153640912Y-84232457D01*
X153372703Y-84121087D01*
X153082291Y-84120833D01*
X152813888Y-84231735D01*
X152608357Y-84436908D01*
X152503876Y-84688527D01*
X151804724Y-83989376D01*
X151639269Y-83878821D01*
X151444100Y-83840000D01*
X146850452Y-83840000D01*
X146655283Y-83878821D01*
X146489827Y-83989376D01*
X145566409Y-84912795D01*
X145413095Y-84912661D01*
X145144692Y-85023563D01*
X144939161Y-85228736D01*
X144827791Y-85496945D01*
X144827537Y-85787357D01*
X127937138Y-85787357D01*
X127909146Y-85759366D01*
X127743691Y-85648811D01*
X127548522Y-85609990D01*
X126691127Y-85609990D01*
X126816412Y-85362845D01*
X126707202Y-85200940D01*
X125831880Y-85200940D01*
X125831880Y-85220940D01*
X125483880Y-85220940D01*
X125483880Y-85200940D01*
X124608558Y-85200940D01*
X124499348Y-85362845D01*
X124624633Y-85609990D01*
X123703414Y-85609990D01*
X123595100Y-85501487D01*
X123326891Y-85390117D01*
X123036479Y-85389863D01*
X122768076Y-85500765D01*
X122562545Y-85705938D01*
X122451815Y-85972607D01*
X122445843Y-85970127D01*
X122155431Y-85969873D01*
X121887028Y-86080775D01*
X121681497Y-86285948D01*
X121570127Y-86554157D01*
X121569873Y-86844569D01*
X117418337Y-86844569D01*
X116021135Y-85447367D01*
X115987403Y-85424828D01*
X115894639Y-85362845D01*
X119499348Y-85362845D01*
X119635377Y-85631185D01*
X119933027Y-85919082D01*
X120318193Y-86071158D01*
X120483880Y-85940976D01*
X120483880Y-85200940D01*
X120831880Y-85200940D01*
X120831880Y-85940976D01*
X120997567Y-86071158D01*
X121382733Y-85919082D01*
X121680383Y-85631185D01*
X121816412Y-85362845D01*
X121707202Y-85200940D01*
X120831880Y-85200940D01*
X120483880Y-85200940D01*
X119608558Y-85200940D01*
X119499348Y-85362845D01*
X115894639Y-85362845D01*
X115800527Y-85299962D01*
X115753632Y-85290634D01*
X115540302Y-85248199D01*
X115540297Y-85248200D01*
X115003224Y-85248200D01*
X115003224Y-84691035D01*
X119499348Y-84691035D01*
X119608558Y-84852940D01*
X120483880Y-84852940D01*
X120483880Y-84112904D01*
X120831880Y-84112904D01*
X120831880Y-84852940D01*
X121707202Y-84852940D01*
X121816412Y-84691035D01*
X124499348Y-84691035D01*
X124608558Y-84852940D01*
X125483880Y-84852940D01*
X125483880Y-84112904D01*
X125831880Y-84112904D01*
X125831880Y-84852940D01*
X126707202Y-84852940D01*
X126816412Y-84691035D01*
X126680383Y-84422695D01*
X126382733Y-84134798D01*
X125997567Y-83982722D01*
X125831880Y-84112904D01*
X125483880Y-84112904D01*
X125318193Y-83982722D01*
X124933027Y-84134798D01*
X124635377Y-84422695D01*
X124499348Y-84691035D01*
X121816412Y-84691035D01*
X121680383Y-84422695D01*
X121382733Y-84134798D01*
X120997567Y-83982722D01*
X120831880Y-84112904D01*
X120483880Y-84112904D01*
X120318193Y-83982722D01*
X119933027Y-84134798D01*
X119635377Y-84422695D01*
X119499348Y-84691035D01*
X115003224Y-84691035D01*
X115003224Y-84178200D01*
X114973241Y-84018852D01*
X114879066Y-83872500D01*
X114735371Y-83774318D01*
X114564800Y-83739776D01*
X113564800Y-83739776D01*
X113405452Y-83769759D01*
X113259100Y-83863934D01*
X113160918Y-84007629D01*
X113150961Y-84056799D01*
X113063283Y-83845125D01*
X112897876Y-83679718D01*
X112681761Y-83590200D01*
X112385800Y-83590200D01*
X112238800Y-83737200D01*
X112238800Y-85754200D01*
X112258800Y-85754200D01*
X112258800Y-86102200D01*
X112238800Y-86102200D01*
X112238800Y-88119200D01*
X112385800Y-88266200D01*
X112681761Y-88266200D01*
X112897876Y-88176682D01*
X113063283Y-88011275D01*
X113149763Y-87802492D01*
X113156359Y-87837548D01*
X113250534Y-87983900D01*
X113394229Y-88082082D01*
X113564800Y-88116624D01*
X114564800Y-88116624D01*
X114724148Y-88086641D01*
X114870500Y-87992466D01*
X114968682Y-87848771D01*
X115003224Y-87678200D01*
X115003224Y-86608200D01*
X115258636Y-86608200D01*
X119525500Y-90875063D01*
X119525500Y-92164649D01*
X119475627Y-92284757D01*
X119475373Y-92575169D01*
X119528000Y-92702536D01*
X119528000Y-92791849D01*
X119478127Y-92911957D01*
X119477873Y-93202369D01*
X119506277Y-93271111D01*
X117684409Y-93271111D01*
X117703224Y-93178200D01*
X117703224Y-89778200D01*
X117673241Y-89618852D01*
X117579066Y-89472500D01*
X117435371Y-89374318D01*
X117264800Y-89339776D01*
X115664800Y-89339776D01*
X115505452Y-89369759D01*
X115359100Y-89463934D01*
X115260918Y-89607629D01*
X115226376Y-89778200D01*
X115226376Y-93178200D01*
X115243858Y-93271111D01*
X110884409Y-93271111D01*
X110903224Y-93178200D01*
X110903224Y-89778200D01*
X110873241Y-89618852D01*
X110779066Y-89472500D01*
X110635371Y-89374318D01*
X110464800Y-89339776D01*
X108864800Y-89339776D01*
X108705452Y-89369759D01*
X108559100Y-89463934D01*
X108460918Y-89607629D01*
X108426376Y-89778200D01*
X108426376Y-93178200D01*
X108456359Y-93337548D01*
X108550534Y-93483900D01*
X108694229Y-93582082D01*
X108864800Y-93616624D01*
X109484427Y-93616624D01*
X107390676Y-95710376D01*
X107233246Y-95645005D01*
X106763813Y-95644595D01*
X106329957Y-95823861D01*
X106057516Y-96095827D01*
X105787189Y-95825028D01*
X105353646Y-95645005D01*
X104884213Y-95644595D01*
X104450357Y-95823861D01*
X104118128Y-96155511D01*
X103938105Y-96589054D01*
X103937695Y-97058487D01*
X88294800Y-97058487D01*
X88294800Y-91361248D01*
X93406848Y-86249200D01*
X110976800Y-86249200D01*
X110976800Y-87795160D01*
X111066317Y-88011275D01*
X111231724Y-88176682D01*
X111447839Y-88266200D01*
X111743800Y-88266200D01*
X111890800Y-88119200D01*
X111890800Y-86102200D01*
X111123800Y-86102200D01*
X110976800Y-86249200D01*
X93406848Y-86249200D01*
X95594808Y-84061240D01*
X110976800Y-84061240D01*
X110976800Y-85607200D01*
X111123800Y-85754200D01*
X111890800Y-85754200D01*
X111890800Y-83737200D01*
X111743800Y-83590200D01*
X111447839Y-83590200D01*
X111231724Y-83679718D01*
X111066317Y-83845125D01*
X110976800Y-84061240D01*
X95594808Y-84061240D01*
X96982407Y-82673641D01*
X118559538Y-82673641D01*
X118670583Y-83088500D01*
X118931935Y-83429285D01*
X119318012Y-83635494D01*
X119483880Y-83526713D01*
X119483880Y-82500940D01*
X119831880Y-82500940D01*
X119831880Y-83526713D01*
X119997748Y-83635494D01*
X120383825Y-83429285D01*
X120645177Y-83088500D01*
X120756222Y-82673641D01*
X125559538Y-82673641D01*
X125670583Y-83088500D01*
X125931935Y-83429285D01*
X126318012Y-83635494D01*
X126483880Y-83526713D01*
X126483880Y-82500940D01*
X126831880Y-82500940D01*
X126831880Y-83526713D01*
X126997748Y-83635494D01*
X127383825Y-83429285D01*
X127645177Y-83088500D01*
X127756222Y-82673641D01*
X127606916Y-82500940D01*
X126831880Y-82500940D01*
X126483880Y-82500940D01*
X125708844Y-82500940D01*
X125559538Y-82673641D01*
X120756222Y-82673641D01*
X120606916Y-82500940D01*
X119831880Y-82500940D01*
X119483880Y-82500940D01*
X118708844Y-82500940D01*
X118559538Y-82673641D01*
X96982407Y-82673641D01*
X98369638Y-81286411D01*
X118884528Y-81286411D01*
X118670583Y-81565380D01*
X118559538Y-81980239D01*
X118708844Y-82152940D01*
X119483880Y-82152940D01*
X119483880Y-82132940D01*
X119831880Y-82132940D01*
X119831880Y-82152940D01*
X120606916Y-82152940D01*
X120756222Y-81980239D01*
X120645177Y-81565380D01*
X120431232Y-81286411D01*
X125884528Y-81286411D01*
X125670583Y-81565380D01*
X125559538Y-81980239D01*
X125708844Y-82152940D01*
X126483880Y-82152940D01*
X126483880Y-82132940D01*
X126831880Y-82132940D01*
X126831880Y-82152940D01*
X127606916Y-82152940D01*
X127756222Y-81980239D01*
X127645177Y-81565380D01*
X127431232Y-81286411D01*
X143011976Y-81286411D01*
X143011976Y-82846800D01*
X143041959Y-83006148D01*
X143136134Y-83152500D01*
X143279829Y-83250682D01*
X143450400Y-83285224D01*
X143731385Y-83285224D01*
X143731195Y-83502009D01*
X143842097Y-83770412D01*
X144047270Y-83975943D01*
X144315479Y-84087313D01*
X144605891Y-84087567D01*
X144874294Y-83976665D01*
X145079825Y-83771492D01*
X145187632Y-83511864D01*
X145350069Y-83579314D01*
X145640481Y-83579568D01*
X145908884Y-83468666D01*
X146092646Y-83285224D01*
X147514400Y-83285224D01*
X147673748Y-83255241D01*
X147820100Y-83161066D01*
X147918282Y-83017371D01*
X147942400Y-82898274D01*
X147942400Y-82963761D01*
X148031918Y-83179876D01*
X148197325Y-83345283D01*
X148413440Y-83434800D01*
X148971400Y-83434800D01*
X149118400Y-83287800D01*
X149118400Y-82220800D01*
X149098400Y-82220800D01*
X149098400Y-81872800D01*
X149118400Y-81872800D01*
X149118400Y-81852800D01*
X149466400Y-81852800D01*
X149466400Y-81872800D01*
X149486400Y-81872800D01*
X149486400Y-82220800D01*
X149466400Y-82220800D01*
X149466400Y-83287800D01*
X149613400Y-83434800D01*
X150171360Y-83434800D01*
X150387475Y-83345283D01*
X150552882Y-83179876D01*
X150642400Y-82963761D01*
X150642400Y-82902200D01*
X150661959Y-83006148D01*
X150756134Y-83152500D01*
X150899829Y-83250682D01*
X151070400Y-83285224D01*
X152594400Y-83285224D01*
X152753748Y-83255241D01*
X152764580Y-83248271D01*
X152901857Y-83305273D01*
X153192269Y-83305527D01*
X153396558Y-83221116D01*
X153439829Y-83250682D01*
X153610400Y-83285224D01*
X155134400Y-83285224D01*
X155293748Y-83255241D01*
X155299105Y-83251794D01*
X155492657Y-83332164D01*
X155783069Y-83332418D01*
X156051472Y-83221516D01*
X156257003Y-83016343D01*
X156368373Y-82748134D01*
X156368627Y-82457722D01*
X156257725Y-82189319D01*
X156112482Y-82043823D01*
X156109679Y-82029731D01*
X156081337Y-81987315D01*
X155999124Y-81864275D01*
X155676524Y-81541676D01*
X155572824Y-81472385D01*
X155572824Y-81286411D01*
X163521563Y-81286411D01*
X164166807Y-81931655D01*
X164166673Y-82084969D01*
X164277575Y-82353372D01*
X164482748Y-82558903D01*
X164750957Y-82670273D01*
X165041369Y-82670527D01*
X165309772Y-82559625D01*
X165515303Y-82354452D01*
X165626673Y-82086243D01*
X165626927Y-81795831D01*
X165516025Y-81527428D01*
X165310852Y-81321897D01*
X165042643Y-81210527D01*
X164888040Y-81210392D01*
X164604048Y-80926400D01*
X165313016Y-80926400D01*
X165978347Y-81591732D01*
X165894127Y-81794557D01*
X165893873Y-82084969D01*
X166004775Y-82353372D01*
X166209948Y-82558903D01*
X166478157Y-82670273D01*
X166768569Y-82670527D01*
X167036972Y-82559625D01*
X167242503Y-82354452D01*
X167353873Y-82086243D01*
X167354127Y-81795831D01*
X167243225Y-81527428D01*
X167109625Y-81393595D01*
X167095179Y-81320967D01*
X167045622Y-81246800D01*
X166984625Y-81155512D01*
X166140912Y-80311800D01*
X173779642Y-80311800D01*
X176025000Y-82557158D01*
X176025000Y-139490822D01*
X173780822Y-141735000D01*
X78339578Y-141735000D01*
X76095400Y-139490822D01*
X76095400Y-114214482D01*
X78127991Y-114214482D01*
X78214665Y-114446851D01*
X78758940Y-114623007D01*
X79329197Y-114577468D01*
X79644535Y-114446851D01*
X79731209Y-114214482D01*
X78929600Y-113412873D01*
X78127991Y-114214482D01*
X76095400Y-114214482D01*
X76095400Y-112996140D01*
X77473393Y-112996140D01*
X77518932Y-113566397D01*
X77649549Y-113881735D01*
X77881918Y-113968409D01*
X78683527Y-113166800D01*
X79175673Y-113166800D01*
X79977282Y-113968409D01*
X80209651Y-113881735D01*
X80385807Y-113337460D01*
X80340268Y-112767203D01*
X80209651Y-112451865D01*
X79977282Y-112365191D01*
X79175673Y-113166800D01*
X78683527Y-113166800D01*
X77881918Y-112365191D01*
X77649549Y-112451865D01*
X77473393Y-112996140D01*
X76095400Y-112996140D01*
X76095400Y-112119118D01*
X78127991Y-112119118D01*
X78929600Y-112920727D01*
X79731209Y-112119118D01*
X79644535Y-111886749D01*
X79100260Y-111710593D01*
X78530003Y-111756132D01*
X78214665Y-111886749D01*
X78127991Y-112119118D01*
X76095400Y-112119118D01*
X76095400Y-110535844D01*
X77206629Y-110535844D01*
X77373216Y-110835633D01*
X78153472Y-111120578D01*
X78983378Y-111085241D01*
X79585984Y-110835633D01*
X79752571Y-110535844D01*
X78479600Y-109262873D01*
X77206629Y-110535844D01*
X76095400Y-110535844D01*
X76095400Y-108690672D01*
X76375822Y-108690672D01*
X76411159Y-109520578D01*
X76660767Y-110123184D01*
X76960556Y-110289771D01*
X78233527Y-109016800D01*
X78725673Y-109016800D01*
X79998644Y-110289771D01*
X80298433Y-110123184D01*
X80583378Y-109342928D01*
X80555606Y-108690672D01*
X88375822Y-108690672D01*
X88411159Y-109520578D01*
X88660767Y-110123184D01*
X88960556Y-110289771D01*
X90233527Y-109016800D01*
X88960556Y-107743829D01*
X88660767Y-107910416D01*
X88375822Y-108690672D01*
X80555606Y-108690672D01*
X80548041Y-108513022D01*
X80298433Y-107910416D01*
X79998644Y-107743829D01*
X78725673Y-109016800D01*
X78233527Y-109016800D01*
X76960556Y-107743829D01*
X76660767Y-107910416D01*
X76375822Y-108690672D01*
X76095400Y-108690672D01*
X76095400Y-107497756D01*
X77206629Y-107497756D01*
X78479600Y-108770727D01*
X79752571Y-107497756D01*
X79585984Y-107197967D01*
X78805728Y-106913022D01*
X77975822Y-106948359D01*
X77373216Y-107197967D01*
X77206629Y-107497756D01*
X76095400Y-107497756D01*
X76095400Y-105120291D01*
X77649378Y-105120291D01*
X77843836Y-105590915D01*
X78203591Y-105951299D01*
X78673875Y-106146578D01*
X79183091Y-106147022D01*
X79399256Y-106057704D01*
X80064675Y-106723124D01*
X80187665Y-106805304D01*
X80230131Y-106833679D01*
X80425300Y-106872500D01*
X100647019Y-106872500D01*
X96512719Y-111006801D01*
X93606349Y-111006801D01*
X94019584Y-110835633D01*
X94186171Y-110535844D01*
X92913200Y-109262873D01*
X92899058Y-109277016D01*
X92652985Y-109030943D01*
X92667127Y-109016800D01*
X93159273Y-109016800D01*
X94432244Y-110289771D01*
X94732033Y-110123184D01*
X95016978Y-109342928D01*
X94981641Y-108513022D01*
X94732033Y-107910416D01*
X94432244Y-107743829D01*
X93159273Y-109016800D01*
X92667127Y-109016800D01*
X92652985Y-109002658D01*
X92899058Y-108756585D01*
X92913200Y-108770727D01*
X94186171Y-107497756D01*
X94019584Y-107197967D01*
X93239328Y-106913022D01*
X92409422Y-106948359D01*
X91806816Y-107197967D01*
X91696400Y-107396671D01*
X91585984Y-107197967D01*
X90805728Y-106913022D01*
X89975822Y-106948359D01*
X89373216Y-107197967D01*
X89206629Y-107497756D01*
X90479600Y-108770727D01*
X90493743Y-108756585D01*
X90739816Y-109002658D01*
X90725673Y-109016800D01*
X90739816Y-109030943D01*
X90493743Y-109277016D01*
X90479600Y-109262873D01*
X89206629Y-110535844D01*
X89373216Y-110835633D01*
X90121808Y-111109015D01*
X89705485Y-111281036D01*
X89345101Y-111640791D01*
X89149822Y-112111075D01*
X89149378Y-112620291D01*
X89238695Y-112836456D01*
X82089376Y-119985776D01*
X81978821Y-120151231D01*
X81940000Y-120346400D01*
X81940000Y-120427634D01*
X81831497Y-120535948D01*
X81720127Y-120804157D01*
X81719873Y-121094569D01*
X81830775Y-121362972D01*
X81940000Y-121472388D01*
X81940000Y-131877634D01*
X81831497Y-131985948D01*
X81720127Y-132254157D01*
X81719873Y-132544569D01*
X81830775Y-132812972D01*
X82035948Y-133018503D01*
X82304157Y-133129873D01*
X82594569Y-133130127D01*
X82862972Y-133019225D01*
X83068503Y-132814052D01*
X83179873Y-132545843D01*
X83180127Y-132255431D01*
X83069225Y-131987028D01*
X82960000Y-131877612D01*
X82960000Y-121472366D01*
X83068503Y-121364052D01*
X83179873Y-121095843D01*
X83180127Y-120805431D01*
X83069225Y-120537028D01*
X83024961Y-120492687D01*
X89959915Y-113557734D01*
X90173875Y-113646578D01*
X90683091Y-113647022D01*
X91153715Y-113452564D01*
X91514099Y-113092809D01*
X91554239Y-112996140D01*
X91906993Y-112996140D01*
X91952532Y-113566397D01*
X92083149Y-113881735D01*
X92315518Y-113968409D01*
X93117127Y-113166800D01*
X92315518Y-112365191D01*
X92083149Y-112451865D01*
X91906993Y-112996140D01*
X91554239Y-112996140D01*
X91709378Y-112622525D01*
X91709822Y-112113309D01*
X91674078Y-112026801D01*
X92596025Y-112026801D01*
X92561591Y-112119118D01*
X93363200Y-112920727D01*
X94164809Y-112119118D01*
X94130375Y-112026801D01*
X96001851Y-112026801D01*
X94809925Y-113218726D01*
X94773868Y-112767203D01*
X94643251Y-112451865D01*
X94410882Y-112365191D01*
X93609273Y-113166800D01*
X93623416Y-113180943D01*
X93377343Y-113427016D01*
X93363200Y-113412873D01*
X92561591Y-114214482D01*
X92648265Y-114446851D01*
X93192540Y-114623007D01*
X93424140Y-114604512D01*
X91876452Y-116152200D01*
X91708364Y-116152200D01*
X91600050Y-116043697D01*
X91331841Y-115932327D01*
X91041429Y-115932073D01*
X90773026Y-116042975D01*
X90567495Y-116248148D01*
X90456125Y-116516357D01*
X90455871Y-116806769D01*
X90566773Y-117075172D01*
X90650600Y-117159145D01*
X90650600Y-127519034D01*
X90542097Y-127627348D01*
X90430727Y-127895557D01*
X90430473Y-128185969D01*
X90541375Y-128454372D01*
X90746548Y-128659903D01*
X91014757Y-128771273D01*
X91305169Y-128771527D01*
X91573572Y-128660625D01*
X91779103Y-128455452D01*
X91890473Y-128187243D01*
X91890727Y-127896831D01*
X91779825Y-127628428D01*
X91670600Y-127519012D01*
X91670600Y-117209920D01*
X91708386Y-117172200D01*
X92087700Y-117172200D01*
X92282869Y-117133379D01*
X92448324Y-117022824D01*
X101725027Y-107746122D01*
X103390030Y-107746122D01*
X103094367Y-107910416D01*
X102809422Y-108690672D01*
X102844759Y-109520578D01*
X103094367Y-110123184D01*
X103388811Y-110286801D01*
X102696799Y-110286801D01*
X102501630Y-110325622D01*
X102455755Y-110356275D01*
X102336175Y-110436176D01*
X92515545Y-120256807D01*
X92362231Y-120256673D01*
X92093828Y-120367575D01*
X91888297Y-120572748D01*
X91776927Y-120840957D01*
X91776673Y-121131369D01*
X91887575Y-121399772D01*
X92047600Y-121560076D01*
X92047600Y-131894434D01*
X91939097Y-132002748D01*
X91827727Y-132270957D01*
X91827473Y-132561369D01*
X91938375Y-132829772D01*
X92143548Y-133035303D01*
X92411757Y-133146673D01*
X92702169Y-133146927D01*
X92970572Y-133036025D01*
X93176103Y-132830852D01*
X93287473Y-132562643D01*
X93287727Y-132272231D01*
X93176825Y-132003828D01*
X93067600Y-131894412D01*
X93067600Y-121458454D01*
X93125303Y-121400852D01*
X93236673Y-121132643D01*
X93236808Y-120978040D01*
X100277200Y-113937649D01*
X100277200Y-116139834D01*
X100168697Y-116248148D01*
X100057327Y-116516357D01*
X100057162Y-116705461D01*
X100016022Y-116767030D01*
X99977201Y-116962199D01*
X99977201Y-120985613D01*
X100008158Y-121141244D01*
X100016022Y-121180782D01*
X100126577Y-121346237D01*
X100328000Y-121547661D01*
X100328000Y-127544434D01*
X100219497Y-127652748D01*
X100108127Y-127920957D01*
X100107873Y-128211369D01*
X100218775Y-128479772D01*
X100423948Y-128685303D01*
X100692157Y-128796673D01*
X100982569Y-128796927D01*
X101250972Y-128686025D01*
X101456503Y-128480852D01*
X101496400Y-128384769D01*
X101496400Y-131894434D01*
X101387897Y-132002748D01*
X101276527Y-132270957D01*
X101276273Y-132561369D01*
X101387175Y-132829772D01*
X101592348Y-133035303D01*
X101860557Y-133146673D01*
X102150969Y-133146927D01*
X102419372Y-133036025D01*
X102624903Y-132830852D01*
X102736273Y-132562643D01*
X102736527Y-132272231D01*
X102625625Y-132003828D01*
X102516400Y-131894412D01*
X102516400Y-121509166D01*
X102624903Y-121400852D01*
X102736273Y-121132643D01*
X102736527Y-120842231D01*
X102625625Y-120573828D01*
X102516400Y-120464412D01*
X102516400Y-115443428D01*
X104399577Y-113560251D01*
X104607475Y-113646578D01*
X105116691Y-113647022D01*
X105587315Y-113452564D01*
X105947699Y-113092809D01*
X106037394Y-112876800D01*
X106065281Y-112876800D01*
X106260450Y-112837979D01*
X106425905Y-112727424D01*
X106832530Y-112320800D01*
X113932351Y-112320800D01*
X110320945Y-115932207D01*
X110167631Y-115932073D01*
X109899228Y-116042975D01*
X109693697Y-116248148D01*
X109582327Y-116516357D01*
X109582073Y-116806769D01*
X109692975Y-117075172D01*
X109802200Y-117184588D01*
X109802200Y-127595194D01*
X109719101Y-127678148D01*
X109607731Y-127946357D01*
X109607477Y-128236769D01*
X109718379Y-128505172D01*
X109923552Y-128710703D01*
X110191761Y-128822073D01*
X110482173Y-128822327D01*
X110750576Y-128711425D01*
X110956107Y-128506252D01*
X111067477Y-128238043D01*
X111067731Y-127947631D01*
X110956829Y-127679228D01*
X110822200Y-127544364D01*
X110822200Y-117184566D01*
X110930703Y-117076252D01*
X111042073Y-116808043D01*
X111042208Y-116653440D01*
X114995715Y-112699934D01*
X119224017Y-112699934D01*
X111667145Y-120256807D01*
X111513831Y-120256673D01*
X111245428Y-120367575D01*
X111039897Y-120572748D01*
X110928527Y-120840957D01*
X110928273Y-121131369D01*
X111039175Y-121399772D01*
X111244348Y-121605303D01*
X111250000Y-121607650D01*
X111250000Y-131894434D01*
X111141497Y-132002748D01*
X111030127Y-132270957D01*
X111029873Y-132561369D01*
X111140775Y-132829772D01*
X111345948Y-133035303D01*
X111614157Y-133146673D01*
X111904569Y-133146927D01*
X112172972Y-133036025D01*
X112378503Y-132830852D01*
X112489873Y-132562643D01*
X112490127Y-132272231D01*
X112379225Y-132003828D01*
X112270000Y-131894412D01*
X112270000Y-121407743D01*
X112276903Y-121400852D01*
X112388273Y-121132643D01*
X112388408Y-120978040D01*
X120306504Y-113059945D01*
X122769006Y-113059945D01*
X119896745Y-115932207D01*
X119743431Y-115932073D01*
X119475028Y-116042975D01*
X119269497Y-116248148D01*
X119158127Y-116516357D01*
X119157873Y-116806769D01*
X119268775Y-117075172D01*
X119378000Y-117184588D01*
X119378000Y-127595148D01*
X119320299Y-127652748D01*
X119208929Y-127920957D01*
X119208675Y-128211369D01*
X119319577Y-128479772D01*
X119524750Y-128685303D01*
X119792959Y-128796673D01*
X120083371Y-128796927D01*
X120351774Y-128686025D01*
X120557305Y-128480852D01*
X120668675Y-128212643D01*
X120668929Y-127922231D01*
X120558027Y-127653828D01*
X120398000Y-127493522D01*
X120398000Y-117184566D01*
X120506503Y-117076252D01*
X120617873Y-116808043D01*
X120618008Y-116653440D01*
X123851493Y-113419956D01*
X128105195Y-113419956D01*
X121268345Y-120256807D01*
X121115031Y-120256673D01*
X120846628Y-120367575D01*
X120641097Y-120572748D01*
X120529727Y-120840957D01*
X120529473Y-121131369D01*
X120640375Y-121399772D01*
X120698800Y-121458299D01*
X120698800Y-131894434D01*
X120590297Y-132002748D01*
X120478927Y-132270957D01*
X120478673Y-132561369D01*
X120589575Y-132829772D01*
X120794748Y-133035303D01*
X121062957Y-133146673D01*
X121353369Y-133146927D01*
X121621772Y-133036025D01*
X121827303Y-132830852D01*
X121938673Y-132562643D01*
X121938927Y-132272231D01*
X121828025Y-132003828D01*
X121718800Y-131894412D01*
X121718800Y-121559878D01*
X121878103Y-121400852D01*
X121989473Y-121132643D01*
X121989608Y-120978040D01*
X129187682Y-113779967D01*
X131700984Y-113779967D01*
X129472545Y-116008407D01*
X129319231Y-116008273D01*
X129050828Y-116119175D01*
X128845297Y-116324348D01*
X128733927Y-116592557D01*
X128733673Y-116882969D01*
X128844575Y-117151372D01*
X128953800Y-117260788D01*
X128953800Y-127620588D01*
X128870697Y-127703546D01*
X128759327Y-127971755D01*
X128759073Y-128262167D01*
X128869975Y-128530570D01*
X129075148Y-128736101D01*
X129343357Y-128847471D01*
X129633769Y-128847725D01*
X129902172Y-128736823D01*
X130107703Y-128531650D01*
X130198400Y-128313227D01*
X130198400Y-131945234D01*
X130089897Y-132053548D01*
X129978527Y-132321757D01*
X129978273Y-132612169D01*
X130089175Y-132880572D01*
X130294348Y-133086103D01*
X130562557Y-133197473D01*
X130852969Y-133197727D01*
X131121372Y-133086825D01*
X131326903Y-132881652D01*
X131438273Y-132613443D01*
X131438527Y-132323031D01*
X131327625Y-132054628D01*
X131218400Y-131945212D01*
X131218400Y-121559966D01*
X131326903Y-121451652D01*
X131438273Y-121183443D01*
X131438408Y-121028840D01*
X137967259Y-114499989D01*
X140582162Y-114499989D01*
X139048345Y-116033807D01*
X138895031Y-116033673D01*
X138626628Y-116144575D01*
X138421097Y-116349748D01*
X138309727Y-116617957D01*
X138309473Y-116908369D01*
X138420375Y-117176772D01*
X138529600Y-117286188D01*
X138529600Y-127696746D01*
X138471897Y-127754348D01*
X138360527Y-128022557D01*
X138360273Y-128312969D01*
X138471175Y-128581372D01*
X138676348Y-128786903D01*
X138944557Y-128898273D01*
X139234969Y-128898527D01*
X139503372Y-128787625D01*
X139708903Y-128582452D01*
X139820273Y-128314243D01*
X139820527Y-128023831D01*
X139709625Y-127755428D01*
X139549600Y-127595124D01*
X139549600Y-117286166D01*
X139658103Y-117177852D01*
X139769473Y-116909643D01*
X139769608Y-116755040D01*
X141664649Y-114860000D01*
X146359620Y-114860000D01*
X140941219Y-120278401D01*
X140761999Y-120278401D01*
X140566830Y-120317222D01*
X140523163Y-120346400D01*
X140505148Y-120358437D01*
X140317431Y-120358273D01*
X140049028Y-120469175D01*
X139843497Y-120674348D01*
X139732127Y-120942557D01*
X139731873Y-121232969D01*
X139842775Y-121501372D01*
X139901200Y-121559899D01*
X139901200Y-131996034D01*
X139792697Y-132104348D01*
X139681327Y-132372557D01*
X139681073Y-132662969D01*
X139791975Y-132931372D01*
X139997148Y-133136903D01*
X140265357Y-133248273D01*
X140555769Y-133248527D01*
X140824172Y-133137625D01*
X141029703Y-132932452D01*
X141141073Y-132664243D01*
X141141327Y-132373831D01*
X141030425Y-132105428D01*
X140921200Y-131996012D01*
X140921200Y-121661478D01*
X141080503Y-121502452D01*
X141166382Y-121295633D01*
X141347636Y-121259580D01*
X141513091Y-121149025D01*
X148080000Y-114582116D01*
X148080000Y-116275344D01*
X147971497Y-116383658D01*
X147860127Y-116651867D01*
X147859873Y-116942279D01*
X147970775Y-117210682D01*
X148080000Y-117320098D01*
X148080000Y-127671390D01*
X147996897Y-127754348D01*
X147885527Y-128022557D01*
X147885273Y-128312969D01*
X147996175Y-128581372D01*
X148201348Y-128786903D01*
X148469557Y-128898273D01*
X148759969Y-128898527D01*
X149028372Y-128787625D01*
X149233903Y-128582452D01*
X149345273Y-128314243D01*
X149345527Y-128023831D01*
X149234625Y-127755428D01*
X149100000Y-127620568D01*
X149100000Y-117320076D01*
X149208503Y-117211762D01*
X149319873Y-116943553D01*
X149320127Y-116653141D01*
X149209225Y-116384738D01*
X149100000Y-116275322D01*
X149100000Y-114071248D01*
X155930429Y-107240819D01*
X155930429Y-114499922D01*
X150071945Y-120358407D01*
X149918631Y-120358273D01*
X149650228Y-120469175D01*
X149444697Y-120674348D01*
X149333327Y-120942557D01*
X149333073Y-121232969D01*
X149443975Y-121501372D01*
X149502400Y-121559899D01*
X149502400Y-131996034D01*
X149393897Y-132104348D01*
X149282527Y-132372557D01*
X149282273Y-132662969D01*
X149393175Y-132931372D01*
X149598348Y-133136903D01*
X149866557Y-133248273D01*
X150156969Y-133248527D01*
X150425372Y-133137625D01*
X150630903Y-132932452D01*
X150742273Y-132664243D01*
X150742527Y-132373831D01*
X150631625Y-132105428D01*
X150522400Y-131996012D01*
X150522400Y-121661478D01*
X150681703Y-121502452D01*
X150793073Y-121234243D01*
X150793208Y-121079640D01*
X156545820Y-115327029D01*
X156545820Y-122675254D01*
X156437317Y-122783568D01*
X156325947Y-123051777D01*
X156325693Y-123342189D01*
X156436595Y-123610592D01*
X156641768Y-123816123D01*
X156909977Y-123927493D01*
X157200389Y-123927747D01*
X157468792Y-123816845D01*
X157674323Y-123611672D01*
X157785693Y-123343463D01*
X157785947Y-123053051D01*
X157675045Y-122784648D01*
X157565820Y-122675232D01*
X157565820Y-101087068D01*
X157833600Y-101354849D01*
X157833600Y-116275344D01*
X157725097Y-116383658D01*
X157613727Y-116651867D01*
X157613473Y-116942279D01*
X157724375Y-117210682D01*
X157833600Y-117320098D01*
X157833600Y-127646034D01*
X157725097Y-127754348D01*
X157613727Y-128022557D01*
X157613473Y-128312969D01*
X157724375Y-128581372D01*
X157929548Y-128786903D01*
X158197757Y-128898273D01*
X158488169Y-128898527D01*
X158756572Y-128787625D01*
X158962103Y-128582452D01*
X159073473Y-128314243D01*
X159073727Y-128023831D01*
X158962825Y-127755428D01*
X158853600Y-127646012D01*
X158853600Y-117320076D01*
X158962103Y-117211762D01*
X159073473Y-116943553D01*
X159073727Y-116653141D01*
X158962825Y-116384738D01*
X158853600Y-116275322D01*
X158853600Y-101550585D01*
X159082390Y-101779375D01*
X159082390Y-120566034D01*
X158973887Y-120674348D01*
X158862517Y-120942557D01*
X158862263Y-121232969D01*
X158973165Y-121501372D01*
X159082390Y-121610788D01*
X159082390Y-131920526D01*
X159116923Y-132094136D01*
X159121211Y-132115695D01*
X159134517Y-132135608D01*
X159036127Y-132372557D01*
X159035873Y-132662969D01*
X159146775Y-132931372D01*
X159351948Y-133136903D01*
X159620157Y-133248273D01*
X159910569Y-133248527D01*
X160178972Y-133137625D01*
X160384503Y-132932452D01*
X160495873Y-132664243D01*
X160496127Y-132373831D01*
X160385225Y-132105428D01*
X160251625Y-131971595D01*
X160237179Y-131898967D01*
X160169430Y-131797575D01*
X160126625Y-131733512D01*
X160102390Y-131709277D01*
X160102390Y-125818339D01*
X160316969Y-125818527D01*
X160585372Y-125707625D01*
X160790903Y-125502452D01*
X160902273Y-125234243D01*
X160902527Y-124943831D01*
X160791625Y-124675428D01*
X160682400Y-124566012D01*
X160682400Y-114180766D01*
X160790903Y-114072452D01*
X160902273Y-113804243D01*
X160902527Y-113513831D01*
X160791625Y-113245428D01*
X160682400Y-113136012D01*
X160682400Y-100998835D01*
X160824146Y-100857336D01*
X160935516Y-100589127D01*
X160935770Y-100298715D01*
X160824868Y-100030312D01*
X160619695Y-99824781D01*
X160351486Y-99713411D01*
X160061074Y-99713157D01*
X159792671Y-99824059D01*
X159587140Y-100029232D01*
X159475770Y-100297441D01*
X159475516Y-100587853D01*
X159575609Y-100830096D01*
X157784888Y-99039376D01*
X157619433Y-98928821D01*
X157612837Y-98927509D01*
X157424264Y-98890000D01*
X157272366Y-98890000D01*
X157164052Y-98781497D01*
X156895843Y-98670127D01*
X156605431Y-98669873D01*
X156337028Y-98780775D01*
X156131497Y-98985948D01*
X156077891Y-99115046D01*
X155334560Y-98371716D01*
X155169105Y-98261161D01*
X155164832Y-98260311D01*
X154973936Y-98222340D01*
X147525740Y-98222340D01*
X147334844Y-98260311D01*
X147330571Y-98261161D01*
X147165115Y-98371716D01*
X145747312Y-99789520D01*
X145249026Y-99789520D01*
X145140712Y-99681017D01*
X144872503Y-99569647D01*
X144582091Y-99569393D01*
X144313688Y-99680295D01*
X144108157Y-99885468D01*
X143996787Y-100153677D01*
X143996754Y-100191843D01*
X143926336Y-100238895D01*
X142766712Y-101398519D01*
X142681425Y-101192108D01*
X142476252Y-100986577D01*
X142208043Y-100875207D01*
X141917631Y-100874953D01*
X141649228Y-100985855D01*
X141539812Y-101095080D01*
X132986780Y-101095080D01*
X132813053Y-101129636D01*
X132791611Y-101133901D01*
X132626156Y-101244456D01*
X132213812Y-101656800D01*
X100037435Y-101656800D01*
X99948964Y-101442685D01*
X99589209Y-101082301D01*
X99118925Y-100887022D01*
X98609709Y-100886578D01*
X98139085Y-101081036D01*
X97778701Y-101440791D01*
X97689006Y-101656800D01*
X85603835Y-101656800D01*
X85515364Y-101442685D01*
X85155609Y-101082301D01*
X84685325Y-100887022D01*
X84176109Y-100886578D01*
X83705485Y-101081036D01*
X83345101Y-101440791D01*
X83149822Y-101911075D01*
X83149378Y-102420291D01*
X83343836Y-102890915D01*
X83703591Y-103251299D01*
X84173875Y-103446578D01*
X84683091Y-103447022D01*
X85153715Y-103252564D01*
X85514099Y-102892809D01*
X85603794Y-102676800D01*
X97688965Y-102676800D01*
X97777436Y-102890915D01*
X98137191Y-103251299D01*
X98607475Y-103446578D01*
X99116691Y-103447022D01*
X99587315Y-103252564D01*
X99947699Y-102892809D01*
X100037394Y-102676800D01*
X102214991Y-102676800D01*
X102204831Y-102678821D01*
X102162801Y-102706905D01*
X102039376Y-102789375D01*
X100471952Y-104356800D01*
X94537435Y-104356800D01*
X94448964Y-104142685D01*
X94089209Y-103782301D01*
X93618925Y-103587022D01*
X93109709Y-103586578D01*
X92639085Y-103781036D01*
X92278701Y-104140791D01*
X92083422Y-104611075D01*
X92082978Y-105120291D01*
X92236767Y-105492489D01*
X91376538Y-105492489D01*
X91220534Y-105336485D01*
X91309378Y-105122525D01*
X91309822Y-104613309D01*
X91115364Y-104142685D01*
X90755609Y-103782301D01*
X90285325Y-103587022D01*
X89776109Y-103586578D01*
X89305485Y-103781036D01*
X88945101Y-104140791D01*
X88749822Y-104611075D01*
X88749378Y-105120291D01*
X88943836Y-105590915D01*
X89204964Y-105852500D01*
X80636549Y-105852500D01*
X80120534Y-105336485D01*
X80209378Y-105122525D01*
X80209822Y-104613309D01*
X80015364Y-104142685D01*
X79655609Y-103782301D01*
X79185325Y-103587022D01*
X78676109Y-103586578D01*
X78205485Y-103781036D01*
X77845101Y-104140791D01*
X77649822Y-104611075D01*
X77649378Y-105120291D01*
X76095400Y-105120291D01*
X76095400Y-94284291D01*
X77797778Y-94284291D01*
X77992236Y-94754915D01*
X78351991Y-95115299D01*
X78822275Y-95310578D01*
X79331491Y-95311022D01*
X79802115Y-95116564D01*
X80162499Y-94756809D01*
X80357778Y-94286525D01*
X80358222Y-93777309D01*
X80163764Y-93306685D01*
X79804009Y-92946301D01*
X79333725Y-92751022D01*
X78824509Y-92750578D01*
X78353885Y-92945036D01*
X77993501Y-93304791D01*
X77798222Y-93775075D01*
X77797778Y-94284291D01*
X76095400Y-94284291D01*
X76095400Y-82556258D01*
X78339858Y-80311800D01*
X89301752Y-80311800D01*
X80012722Y-89600830D01*
X80012722Y-89600830D01*
G37*
X80012722Y-89600830D02*
X79833431Y-89600673D01*
X79565028Y-89711575D01*
X79359497Y-89916748D01*
X79248127Y-90184957D01*
X79247873Y-90475369D01*
X79358775Y-90743772D01*
X79563948Y-90949303D01*
X79832157Y-91060673D01*
X80122569Y-91060927D01*
X80390972Y-90950025D01*
X80596503Y-90744852D01*
X80707873Y-90476643D01*
X80707985Y-90348063D01*
X90129648Y-80926400D01*
X97287151Y-80926400D01*
X87424176Y-90789376D01*
X87313621Y-90954831D01*
X87274800Y-91150000D01*
X87274800Y-93575412D01*
X87163764Y-93306685D01*
X86804009Y-92946301D01*
X86333725Y-92751022D01*
X85824509Y-92750578D01*
X85353885Y-92945036D01*
X84993501Y-93304791D01*
X84798222Y-93775075D01*
X84797778Y-94284291D01*
X84992236Y-94754915D01*
X85351991Y-95115299D01*
X85822275Y-95310578D01*
X86331491Y-95311022D01*
X86802115Y-95116564D01*
X87162499Y-94756809D01*
X87274800Y-94486358D01*
X87274800Y-97000709D01*
X87233431Y-97000673D01*
X86965028Y-97111575D01*
X86759497Y-97316748D01*
X86648127Y-97584957D01*
X86647873Y-97875369D01*
X86758775Y-98143772D01*
X86963948Y-98349303D01*
X87232157Y-98460673D01*
X87522569Y-98460927D01*
X87790972Y-98350025D01*
X87996503Y-98144852D01*
X88107873Y-97876643D01*
X88108008Y-97722041D01*
X88145424Y-97684625D01*
X88255979Y-97519169D01*
X88258971Y-97504127D01*
X88294800Y-97324000D01*
X88294800Y-97058487D01*
X103937695Y-97058487D01*
X104116961Y-97492343D01*
X104448611Y-97824572D01*
X104882154Y-98004595D01*
X105351587Y-98005005D01*
X105785443Y-97825739D01*
X106057884Y-97553773D01*
X106328211Y-97824572D01*
X106761754Y-98004595D01*
X107231187Y-98005005D01*
X107665043Y-97825739D01*
X107937484Y-97553773D01*
X108207811Y-97824572D01*
X108641354Y-98004595D01*
X109110787Y-98005005D01*
X109544643Y-97825739D01*
X109842484Y-97528417D01*
X110087411Y-97773772D01*
X110520954Y-97953795D01*
X110990387Y-97954205D01*
X111424243Y-97774939D01*
X111671240Y-97528373D01*
X111916211Y-97773772D01*
X112349754Y-97953795D01*
X112819187Y-97954205D01*
X113074659Y-97848646D01*
X113074573Y-97947269D01*
X113185475Y-98215672D01*
X113390648Y-98421203D01*
X113658857Y-98532573D01*
X113949269Y-98532827D01*
X114217672Y-98421925D01*
X114423203Y-98216752D01*
X114532264Y-97954104D01*
X114647987Y-97954205D01*
X115081843Y-97774939D01*
X115328840Y-97528373D01*
X115573811Y-97773772D01*
X116007354Y-97953795D01*
X116476787Y-97954205D01*
X116910643Y-97774939D01*
X116991153Y-97694569D01*
X155869873Y-97694569D01*
X155980775Y-97962972D01*
X156185948Y-98168503D01*
X156454157Y-98279873D01*
X156744569Y-98280127D01*
X156994362Y-98176914D01*
X156996078Y-98178633D01*
X157264287Y-98290003D01*
X157554699Y-98290257D01*
X157823102Y-98179355D01*
X158028633Y-97974182D01*
X158140003Y-97705973D01*
X158140138Y-97551370D01*
X158334149Y-97357359D01*
X159816962Y-97357359D01*
X159927864Y-97625762D01*
X160133037Y-97831293D01*
X160401246Y-97942663D01*
X160474884Y-97942727D01*
X160381497Y-98035952D01*
X160270127Y-98304161D01*
X160269873Y-98594573D01*
X160380775Y-98862976D01*
X160585948Y-99068507D01*
X160854157Y-99179877D01*
X161058807Y-99180056D01*
X161240000Y-99361249D01*
X161240000Y-109108502D01*
X161270943Y-109264064D01*
X161278821Y-109303671D01*
X161389376Y-109469126D01*
X161537907Y-109617657D01*
X161537773Y-109770971D01*
X161648675Y-110039374D01*
X161757900Y-110148790D01*
X161757900Y-126167892D01*
X161796721Y-126363061D01*
X161907276Y-126528516D01*
X167920007Y-132541248D01*
X167919873Y-132694561D01*
X168030775Y-132962964D01*
X168235948Y-133168495D01*
X168504157Y-133279865D01*
X168794569Y-133280119D01*
X169062972Y-133169217D01*
X169157199Y-133075154D01*
X169157199Y-135815309D01*
X168954228Y-135899175D01*
X168748697Y-136104348D01*
X168637327Y-136372557D01*
X168637073Y-136662969D01*
X168747975Y-136931372D01*
X168953148Y-137136903D01*
X169221357Y-137248273D01*
X169511769Y-137248527D01*
X169780172Y-137137625D01*
X169985703Y-136932452D01*
X170097073Y-136664243D01*
X170097238Y-136475139D01*
X170138378Y-136413570D01*
X170177199Y-136218401D01*
X170177199Y-114325599D01*
X170138378Y-114130430D01*
X170044947Y-113990602D01*
X170027823Y-113964974D01*
X169729993Y-113667145D01*
X169730127Y-113513831D01*
X169619225Y-113245428D01*
X169510000Y-113136012D01*
X169510000Y-111100000D01*
X169471179Y-110904831D01*
X169398995Y-110796801D01*
X169360625Y-110739376D01*
X163340031Y-104718783D01*
X163340031Y-102820159D01*
X163554610Y-102820347D01*
X163823013Y-102709445D01*
X164028544Y-102504272D01*
X164139914Y-102236063D01*
X164140168Y-101945651D01*
X164029266Y-101677248D01*
X163920041Y-101567832D01*
X163920041Y-98731087D01*
X164300608Y-98350521D01*
X164479285Y-98350521D01*
X164479093Y-98569569D01*
X164589995Y-98837972D01*
X164668740Y-98916854D01*
X164668740Y-101565314D01*
X164560237Y-101673628D01*
X164448867Y-101941837D01*
X164448613Y-102232249D01*
X164559515Y-102500652D01*
X164764688Y-102706183D01*
X165032897Y-102817553D01*
X165323309Y-102817807D01*
X165591712Y-102706905D01*
X165797243Y-102501732D01*
X165908613Y-102233523D01*
X165908867Y-101943111D01*
X165797965Y-101674708D01*
X165688740Y-101565292D01*
X165688740Y-98977793D01*
X165827723Y-98839052D01*
X165935122Y-98580406D01*
X166113428Y-98759023D01*
X166381637Y-98870393D01*
X166672049Y-98870647D01*
X166940452Y-98759745D01*
X167145983Y-98554572D01*
X167257353Y-98286363D01*
X167257607Y-97995951D01*
X167146705Y-97727548D01*
X166941532Y-97522017D01*
X166673323Y-97410647D01*
X166484219Y-97410482D01*
X166422650Y-97369342D01*
X166227481Y-97330521D01*
X164089359Y-97330521D01*
X163949734Y-97358294D01*
X163938505Y-97331117D01*
X163733332Y-97125586D01*
X163465123Y-97014216D01*
X163174711Y-97013962D01*
X162906308Y-97124864D01*
X162700777Y-97330037D01*
X162591974Y-97592064D01*
X161852075Y-96852166D01*
X161686620Y-96741611D01*
X161491451Y-96702790D01*
X161069455Y-96702790D01*
X160961141Y-96594287D01*
X160692932Y-96482917D01*
X160402520Y-96482663D01*
X160134117Y-96593565D01*
X159928586Y-96798738D01*
X159817216Y-97066947D01*
X159816962Y-97357359D01*
X158334149Y-97357359D01*
X160081509Y-95610000D01*
X161450000Y-95610000D01*
X161645169Y-95571179D01*
X161810624Y-95460624D01*
X162156824Y-95114424D01*
X162314254Y-95179795D01*
X162783687Y-95180205D01*
X163217543Y-95000939D01*
X163549772Y-94669289D01*
X163713125Y-94275891D01*
X164762178Y-94275891D01*
X164956636Y-94746515D01*
X165316391Y-95106899D01*
X165786675Y-95302178D01*
X166295891Y-95302622D01*
X166766515Y-95108164D01*
X167126899Y-94748409D01*
X167285208Y-94367158D01*
X167401061Y-94647543D01*
X167732711Y-94979772D01*
X168166254Y-95159795D01*
X168635687Y-95160205D01*
X169069543Y-94980939D01*
X169401772Y-94649289D01*
X169417817Y-94610649D01*
X169433061Y-94647543D01*
X169764711Y-94979772D01*
X170198254Y-95159795D01*
X170667687Y-95160205D01*
X171101543Y-94980939D01*
X171433772Y-94649289D01*
X171588820Y-94275891D01*
X171762178Y-94275891D01*
X171956636Y-94746515D01*
X172316391Y-95106899D01*
X172786675Y-95302178D01*
X173295891Y-95302622D01*
X173766515Y-95108164D01*
X174126899Y-94748409D01*
X174322178Y-94278125D01*
X174322622Y-93768909D01*
X174128164Y-93298285D01*
X173768409Y-92937901D01*
X173298125Y-92742622D01*
X172788909Y-92742178D01*
X172318285Y-92936636D01*
X171957901Y-93296391D01*
X171762622Y-93766675D01*
X171762178Y-94275891D01*
X171588820Y-94275891D01*
X171613795Y-94215746D01*
X171614205Y-93746313D01*
X171434939Y-93312457D01*
X171103289Y-92980228D01*
X170669746Y-92800205D01*
X170200313Y-92799795D01*
X169766457Y-92979061D01*
X169434228Y-93310711D01*
X169418183Y-93349351D01*
X169402939Y-93312457D01*
X169071289Y-92980228D01*
X168637746Y-92800205D01*
X168168313Y-92799795D01*
X167734457Y-92979061D01*
X167402228Y-93310711D01*
X167267431Y-93635337D01*
X167128164Y-93298285D01*
X166768409Y-92937901D01*
X166298125Y-92742622D01*
X165788909Y-92742178D01*
X165318285Y-92936636D01*
X164957901Y-93296391D01*
X164762622Y-93766675D01*
X164762178Y-94275891D01*
X163713125Y-94275891D01*
X163729795Y-94235746D01*
X163730205Y-93766313D01*
X163550939Y-93332457D01*
X163219289Y-93000228D01*
X162785746Y-92820205D01*
X162316313Y-92819795D01*
X161882457Y-92999061D01*
X161550228Y-93330711D01*
X161449976Y-93572144D01*
X161350939Y-93332457D01*
X161019289Y-93000228D01*
X160585746Y-92820205D01*
X160116313Y-92819795D01*
X159682457Y-92999061D01*
X159350228Y-93330711D01*
X159170205Y-93764254D01*
X159169795Y-94233687D01*
X159177183Y-94251568D01*
X156608745Y-96820007D01*
X156455431Y-96819873D01*
X156187028Y-96930775D01*
X155981497Y-97135948D01*
X155870127Y-97404157D01*
X155869873Y-97694569D01*
X116991153Y-97694569D01*
X117242872Y-97443289D01*
X117422895Y-97009746D01*
X117423305Y-96540313D01*
X117247817Y-96115600D01*
X154857039Y-96115600D01*
X155052208Y-96076779D01*
X155217663Y-95966224D01*
X157270361Y-93913526D01*
X157423675Y-93913660D01*
X157692078Y-93802758D01*
X157897609Y-93597585D01*
X158008979Y-93329376D01*
X158009233Y-93038964D01*
X157898331Y-92770561D01*
X157693158Y-92565030D01*
X157424949Y-92453660D01*
X157134537Y-92453406D01*
X156866134Y-92564308D01*
X156829040Y-92601338D01*
X156801020Y-92573269D01*
X156532811Y-92461899D01*
X156242399Y-92461645D01*
X155973996Y-92572547D01*
X155768465Y-92777720D01*
X155657095Y-93045929D01*
X155656960Y-93200531D01*
X154146341Y-94711151D01*
X149860097Y-94711151D01*
X154438022Y-90133227D01*
X154548577Y-89967771D01*
X154559942Y-89910634D01*
X154587398Y-89772602D01*
X154587398Y-89540967D01*
X154622991Y-89505436D01*
X154685948Y-89568503D01*
X154954157Y-89679873D01*
X155244569Y-89680127D01*
X155512972Y-89569225D01*
X155718503Y-89364052D01*
X155784290Y-89205620D01*
X155888734Y-89205711D01*
X156157137Y-89094809D01*
X156362668Y-88889636D01*
X156474038Y-88621427D01*
X156474292Y-88331015D01*
X156363390Y-88062612D01*
X156158217Y-87857081D01*
X155890008Y-87745711D01*
X155735406Y-87745576D01*
X155373505Y-87383676D01*
X155208050Y-87273121D01*
X155012881Y-87234300D01*
X153955700Y-87234300D01*
X153760531Y-87273121D01*
X153595076Y-87383676D01*
X147707641Y-93271111D01*
X120909858Y-93271111D01*
X120937873Y-93203643D01*
X120938127Y-92913231D01*
X120888000Y-92791915D01*
X120888000Y-92690530D01*
X120935373Y-92576443D01*
X120935627Y-92286031D01*
X120885500Y-92164715D01*
X120885500Y-90593398D01*
X120833738Y-90333173D01*
X120686333Y-90112565D01*
X120686330Y-90112563D01*
X117418337Y-86844569D01*
X121569873Y-86844569D01*
X121680775Y-87112972D01*
X121885948Y-87318503D01*
X122154157Y-87429873D01*
X122444569Y-87430127D01*
X122514260Y-87401331D01*
X122514240Y-87424579D01*
X122625142Y-87692982D01*
X122830315Y-87898513D01*
X123098524Y-88009883D01*
X123388936Y-88010137D01*
X123657339Y-87899235D01*
X123766755Y-87790010D01*
X127409630Y-87790010D01*
X127487596Y-87867976D01*
X127256228Y-87963575D01*
X127050697Y-88168748D01*
X126939327Y-88436957D01*
X126939073Y-88727369D01*
X127049975Y-88995772D01*
X127085885Y-89031744D01*
X126981497Y-89135950D01*
X126870127Y-89404159D01*
X126869873Y-89694571D01*
X126980775Y-89962974D01*
X127185948Y-90168505D01*
X127454157Y-90279875D01*
X127608760Y-90280010D01*
X127939374Y-90610624D01*
X128104829Y-90721179D01*
X128299998Y-90760000D01*
X143877634Y-90760000D01*
X143985948Y-90868503D01*
X144254157Y-90979873D01*
X144544569Y-90980127D01*
X144812972Y-90869225D01*
X145018503Y-90664052D01*
X145129873Y-90395843D01*
X145129904Y-90360061D01*
X145164272Y-90383025D01*
X145235822Y-90430834D01*
X145430991Y-90469655D01*
X145584663Y-90469655D01*
X145692977Y-90578158D01*
X145961186Y-90689528D01*
X146251598Y-90689782D01*
X146520001Y-90578880D01*
X146725532Y-90373707D01*
X146836902Y-90105498D01*
X146837012Y-89980120D01*
X146844569Y-89980127D01*
X147112972Y-89869225D01*
X147318503Y-89664052D01*
X147429873Y-89395843D01*
X147430127Y-89105431D01*
X147319225Y-88837028D01*
X147114052Y-88631497D01*
X146845843Y-88520127D01*
X146691240Y-88519992D01*
X146677706Y-88506457D01*
X146768150Y-88288644D01*
X146768404Y-87998232D01*
X146657502Y-87729829D01*
X146452329Y-87524298D01*
X146184120Y-87412928D01*
X145893708Y-87412674D01*
X145625305Y-87523576D01*
X145515889Y-87632801D01*
X129782582Y-87632801D01*
X127937138Y-85787357D01*
X144827537Y-85787357D01*
X144938439Y-86055760D01*
X145143612Y-86261291D01*
X145411821Y-86372661D01*
X145702233Y-86372915D01*
X145970636Y-86262013D01*
X146176167Y-86056840D01*
X146287537Y-85788631D01*
X146287672Y-85634028D01*
X147061701Y-84860000D01*
X150139261Y-84860000D01*
X150139162Y-84973271D01*
X150098022Y-85034840D01*
X150059201Y-85230009D01*
X150059201Y-85408748D01*
X147789376Y-87678574D01*
X147678821Y-87844029D01*
X147640000Y-88039198D01*
X147640000Y-90996909D01*
X147437028Y-91080775D01*
X147231497Y-91285948D01*
X147120127Y-91554157D01*
X147119873Y-91844569D01*
X147230775Y-92112972D01*
X147435948Y-92318503D01*
X147704157Y-92429873D01*
X147994569Y-92430127D01*
X148262972Y-92319225D01*
X148468503Y-92114052D01*
X148579873Y-91845843D01*
X148580038Y-91656740D01*
X148621179Y-91595169D01*
X148629083Y-91555431D01*
X148660000Y-91400000D01*
X148660000Y-89333415D01*
X148798244Y-89471659D01*
X148887337Y-89531189D01*
X148963699Y-89582213D01*
X149158868Y-89621034D01*
X149851379Y-89621034D01*
X150046548Y-89582213D01*
X150212003Y-89471658D01*
X152684151Y-86999511D01*
X156862332Y-86999511D01*
X156862085Y-87282000D01*
X156972987Y-87550403D01*
X157082212Y-87659819D01*
X157082212Y-88434854D01*
X156412977Y-89104090D01*
X156302422Y-89269545D01*
X156263601Y-89464714D01*
X156263601Y-90022401D01*
X156296490Y-90187748D01*
X156302422Y-90217570D01*
X156343637Y-90279252D01*
X156343473Y-90466969D01*
X156454375Y-90735372D01*
X156659548Y-90940903D01*
X156927757Y-91052273D01*
X157218169Y-91052527D01*
X157486572Y-90941625D01*
X157692103Y-90736452D01*
X157803473Y-90468243D01*
X157803727Y-90177831D01*
X157692825Y-89909428D01*
X157487652Y-89703897D01*
X157323732Y-89635831D01*
X157952837Y-89006727D01*
X158026018Y-88897204D01*
X158063391Y-88841272D01*
X158102212Y-88646103D01*
X158102212Y-87659797D01*
X158210715Y-87551483D01*
X158322085Y-87283274D01*
X158322333Y-86999511D01*
X159026760Y-86999511D01*
X159992600Y-87965352D01*
X159992600Y-90393963D01*
X160020137Y-90532401D01*
X160031421Y-90589132D01*
X160141976Y-90754587D01*
X160608008Y-91220620D01*
X160686996Y-91273398D01*
X160773463Y-91331174D01*
X160968632Y-91369995D01*
X168020038Y-91369995D01*
X168019885Y-91544569D01*
X168130787Y-91812972D01*
X168335960Y-92018503D01*
X168604169Y-92129873D01*
X168758771Y-92130008D01*
X168839387Y-92210624D01*
X168950334Y-92284757D01*
X169004843Y-92321179D01*
X169200012Y-92360000D01*
X171268600Y-92360000D01*
X171463769Y-92321179D01*
X171629224Y-92210624D01*
X172736250Y-91103599D01*
X172835253Y-90955431D01*
X172846804Y-90938144D01*
X172885625Y-90742975D01*
X172885625Y-88342356D01*
X172994128Y-88234042D01*
X173105498Y-87965833D01*
X173105752Y-87675421D01*
X172994850Y-87407018D01*
X172789677Y-87201487D01*
X172521468Y-87090117D01*
X172231056Y-87089863D01*
X171985400Y-87191366D01*
X171985400Y-86953200D01*
X171946579Y-86758031D01*
X171924147Y-86724459D01*
X171836024Y-86592575D01*
X170625239Y-85381791D01*
X170696903Y-85310252D01*
X170808273Y-85042043D01*
X170808527Y-84751631D01*
X170697625Y-84483228D01*
X170492452Y-84277697D01*
X170224243Y-84166327D01*
X169933831Y-84166073D01*
X169665428Y-84276975D01*
X169459897Y-84482148D01*
X169348527Y-84750357D01*
X169348273Y-85040769D01*
X169459175Y-85309172D01*
X169568400Y-85418588D01*
X169568400Y-85556200D01*
X169598216Y-85706096D01*
X169607221Y-85751369D01*
X169717776Y-85916824D01*
X170965400Y-87164449D01*
X170965400Y-90079434D01*
X170856897Y-90187748D01*
X170781172Y-90370114D01*
X170641244Y-90369992D01*
X170450612Y-90179360D01*
X170285157Y-90068805D01*
X170089988Y-90029984D01*
X161332611Y-90029984D01*
X161332611Y-88810729D01*
X161457486Y-88862582D01*
X161747898Y-88862836D01*
X161945800Y-88781064D01*
X161966174Y-88830372D01*
X162171347Y-89035903D01*
X162439556Y-89147273D01*
X162729968Y-89147527D01*
X162998371Y-89036625D01*
X163107787Y-88927400D01*
X163256782Y-88927400D01*
X163451951Y-88888579D01*
X163617406Y-88778024D01*
X165040027Y-87355404D01*
X165193340Y-87355538D01*
X165461743Y-87244636D01*
X165667274Y-87039463D01*
X165778644Y-86771254D01*
X165778779Y-86616651D01*
X166476625Y-85918806D01*
X166550078Y-85808876D01*
X166587179Y-85753351D01*
X166626000Y-85558182D01*
X166626000Y-85394035D01*
X166783543Y-85328939D01*
X167115772Y-84997289D01*
X167295795Y-84563746D01*
X167296205Y-84094313D01*
X167116939Y-83660457D01*
X166785289Y-83328228D01*
X166351746Y-83148205D01*
X165882313Y-83147795D01*
X165448457Y-83327061D01*
X165226905Y-83548227D01*
X165007289Y-83328228D01*
X164573746Y-83148205D01*
X164104313Y-83147795D01*
X163670457Y-83327061D01*
X163448905Y-83548227D01*
X163229289Y-83328228D01*
X162795746Y-83148205D01*
X162326313Y-83147795D01*
X161892457Y-83327061D01*
X161670905Y-83548227D01*
X161451289Y-83328228D01*
X161017746Y-83148205D01*
X160548313Y-83147795D01*
X160114457Y-83327061D01*
X159892905Y-83548227D01*
X159673289Y-83328228D01*
X159239746Y-83148205D01*
X158770313Y-83147795D01*
X158336457Y-83327061D01*
X158004228Y-83658711D01*
X157824205Y-84092254D01*
X157823891Y-84451462D01*
X157716614Y-84379781D01*
X157521445Y-84340960D01*
X153749226Y-84340960D01*
X153640912Y-84232457D01*
X153372703Y-84121087D01*
X153082291Y-84120833D01*
X152813888Y-84231735D01*
X152608357Y-84436908D01*
X152503876Y-84688527D01*
X151804724Y-83989376D01*
X151639269Y-83878821D01*
X151444100Y-83840000D01*
X146850452Y-83840000D01*
X146655283Y-83878821D01*
X146489827Y-83989376D01*
X145566409Y-84912795D01*
X145413095Y-84912661D01*
X145144692Y-85023563D01*
X144939161Y-85228736D01*
X144827791Y-85496945D01*
X144827537Y-85787357D01*
X127937138Y-85787357D01*
X127909146Y-85759366D01*
X127743691Y-85648811D01*
X127548522Y-85609990D01*
X126691127Y-85609990D01*
X126816412Y-85362845D01*
X126707202Y-85200940D01*
X125831880Y-85200940D01*
X125831880Y-85220940D01*
X125483880Y-85220940D01*
X125483880Y-85200940D01*
X124608558Y-85200940D01*
X124499348Y-85362845D01*
X124624633Y-85609990D01*
X123703414Y-85609990D01*
X123595100Y-85501487D01*
X123326891Y-85390117D01*
X123036479Y-85389863D01*
X122768076Y-85500765D01*
X122562545Y-85705938D01*
X122451815Y-85972607D01*
X122445843Y-85970127D01*
X122155431Y-85969873D01*
X121887028Y-86080775D01*
X121681497Y-86285948D01*
X121570127Y-86554157D01*
X121569873Y-86844569D01*
X117418337Y-86844569D01*
X116021135Y-85447367D01*
X115987403Y-85424828D01*
X115894639Y-85362845D01*
X119499348Y-85362845D01*
X119635377Y-85631185D01*
X119933027Y-85919082D01*
X120318193Y-86071158D01*
X120483880Y-85940976D01*
X120483880Y-85200940D01*
X120831880Y-85200940D01*
X120831880Y-85940976D01*
X120997567Y-86071158D01*
X121382733Y-85919082D01*
X121680383Y-85631185D01*
X121816412Y-85362845D01*
X121707202Y-85200940D01*
X120831880Y-85200940D01*
X120483880Y-85200940D01*
X119608558Y-85200940D01*
X119499348Y-85362845D01*
X115894639Y-85362845D01*
X115800527Y-85299962D01*
X115753632Y-85290634D01*
X115540302Y-85248199D01*
X115540297Y-85248200D01*
X115003224Y-85248200D01*
X115003224Y-84691035D01*
X119499348Y-84691035D01*
X119608558Y-84852940D01*
X120483880Y-84852940D01*
X120483880Y-84112904D01*
X120831880Y-84112904D01*
X120831880Y-84852940D01*
X121707202Y-84852940D01*
X121816412Y-84691035D01*
X124499348Y-84691035D01*
X124608558Y-84852940D01*
X125483880Y-84852940D01*
X125483880Y-84112904D01*
X125831880Y-84112904D01*
X125831880Y-84852940D01*
X126707202Y-84852940D01*
X126816412Y-84691035D01*
X126680383Y-84422695D01*
X126382733Y-84134798D01*
X125997567Y-83982722D01*
X125831880Y-84112904D01*
X125483880Y-84112904D01*
X125318193Y-83982722D01*
X124933027Y-84134798D01*
X124635377Y-84422695D01*
X124499348Y-84691035D01*
X121816412Y-84691035D01*
X121680383Y-84422695D01*
X121382733Y-84134798D01*
X120997567Y-83982722D01*
X120831880Y-84112904D01*
X120483880Y-84112904D01*
X120318193Y-83982722D01*
X119933027Y-84134798D01*
X119635377Y-84422695D01*
X119499348Y-84691035D01*
X115003224Y-84691035D01*
X115003224Y-84178200D01*
X114973241Y-84018852D01*
X114879066Y-83872500D01*
X114735371Y-83774318D01*
X114564800Y-83739776D01*
X113564800Y-83739776D01*
X113405452Y-83769759D01*
X113259100Y-83863934D01*
X113160918Y-84007629D01*
X113150961Y-84056799D01*
X113063283Y-83845125D01*
X112897876Y-83679718D01*
X112681761Y-83590200D01*
X112385800Y-83590200D01*
X112238800Y-83737200D01*
X112238800Y-85754200D01*
X112258800Y-85754200D01*
X112258800Y-86102200D01*
X112238800Y-86102200D01*
X112238800Y-88119200D01*
X112385800Y-88266200D01*
X112681761Y-88266200D01*
X112897876Y-88176682D01*
X113063283Y-88011275D01*
X113149763Y-87802492D01*
X113156359Y-87837548D01*
X113250534Y-87983900D01*
X113394229Y-88082082D01*
X113564800Y-88116624D01*
X114564800Y-88116624D01*
X114724148Y-88086641D01*
X114870500Y-87992466D01*
X114968682Y-87848771D01*
X115003224Y-87678200D01*
X115003224Y-86608200D01*
X115258636Y-86608200D01*
X119525500Y-90875063D01*
X119525500Y-92164649D01*
X119475627Y-92284757D01*
X119475373Y-92575169D01*
X119528000Y-92702536D01*
X119528000Y-92791849D01*
X119478127Y-92911957D01*
X119477873Y-93202369D01*
X119506277Y-93271111D01*
X117684409Y-93271111D01*
X117703224Y-93178200D01*
X117703224Y-89778200D01*
X117673241Y-89618852D01*
X117579066Y-89472500D01*
X117435371Y-89374318D01*
X117264800Y-89339776D01*
X115664800Y-89339776D01*
X115505452Y-89369759D01*
X115359100Y-89463934D01*
X115260918Y-89607629D01*
X115226376Y-89778200D01*
X115226376Y-93178200D01*
X115243858Y-93271111D01*
X110884409Y-93271111D01*
X110903224Y-93178200D01*
X110903224Y-89778200D01*
X110873241Y-89618852D01*
X110779066Y-89472500D01*
X110635371Y-89374318D01*
X110464800Y-89339776D01*
X108864800Y-89339776D01*
X108705452Y-89369759D01*
X108559100Y-89463934D01*
X108460918Y-89607629D01*
X108426376Y-89778200D01*
X108426376Y-93178200D01*
X108456359Y-93337548D01*
X108550534Y-93483900D01*
X108694229Y-93582082D01*
X108864800Y-93616624D01*
X109484427Y-93616624D01*
X107390676Y-95710376D01*
X107233246Y-95645005D01*
X106763813Y-95644595D01*
X106329957Y-95823861D01*
X106057516Y-96095827D01*
X105787189Y-95825028D01*
X105353646Y-95645005D01*
X104884213Y-95644595D01*
X104450357Y-95823861D01*
X104118128Y-96155511D01*
X103938105Y-96589054D01*
X103937695Y-97058487D01*
X88294800Y-97058487D01*
X88294800Y-91361248D01*
X93406848Y-86249200D01*
X110976800Y-86249200D01*
X110976800Y-87795160D01*
X111066317Y-88011275D01*
X111231724Y-88176682D01*
X111447839Y-88266200D01*
X111743800Y-88266200D01*
X111890800Y-88119200D01*
X111890800Y-86102200D01*
X111123800Y-86102200D01*
X110976800Y-86249200D01*
X93406848Y-86249200D01*
X95594808Y-84061240D01*
X110976800Y-84061240D01*
X110976800Y-85607200D01*
X111123800Y-85754200D01*
X111890800Y-85754200D01*
X111890800Y-83737200D01*
X111743800Y-83590200D01*
X111447839Y-83590200D01*
X111231724Y-83679718D01*
X111066317Y-83845125D01*
X110976800Y-84061240D01*
X95594808Y-84061240D01*
X96982407Y-82673641D01*
X118559538Y-82673641D01*
X118670583Y-83088500D01*
X118931935Y-83429285D01*
X119318012Y-83635494D01*
X119483880Y-83526713D01*
X119483880Y-82500940D01*
X119831880Y-82500940D01*
X119831880Y-83526713D01*
X119997748Y-83635494D01*
X120383825Y-83429285D01*
X120645177Y-83088500D01*
X120756222Y-82673641D01*
X125559538Y-82673641D01*
X125670583Y-83088500D01*
X125931935Y-83429285D01*
X126318012Y-83635494D01*
X126483880Y-83526713D01*
X126483880Y-82500940D01*
X126831880Y-82500940D01*
X126831880Y-83526713D01*
X126997748Y-83635494D01*
X127383825Y-83429285D01*
X127645177Y-83088500D01*
X127756222Y-82673641D01*
X127606916Y-82500940D01*
X126831880Y-82500940D01*
X126483880Y-82500940D01*
X125708844Y-82500940D01*
X125559538Y-82673641D01*
X120756222Y-82673641D01*
X120606916Y-82500940D01*
X119831880Y-82500940D01*
X119483880Y-82500940D01*
X118708844Y-82500940D01*
X118559538Y-82673641D01*
X96982407Y-82673641D01*
X98369638Y-81286411D01*
X118884528Y-81286411D01*
X118670583Y-81565380D01*
X118559538Y-81980239D01*
X118708844Y-82152940D01*
X119483880Y-82152940D01*
X119483880Y-82132940D01*
X119831880Y-82132940D01*
X119831880Y-82152940D01*
X120606916Y-82152940D01*
X120756222Y-81980239D01*
X120645177Y-81565380D01*
X120431232Y-81286411D01*
X125884528Y-81286411D01*
X125670583Y-81565380D01*
X125559538Y-81980239D01*
X125708844Y-82152940D01*
X126483880Y-82152940D01*
X126483880Y-82132940D01*
X126831880Y-82132940D01*
X126831880Y-82152940D01*
X127606916Y-82152940D01*
X127756222Y-81980239D01*
X127645177Y-81565380D01*
X127431232Y-81286411D01*
X143011976Y-81286411D01*
X143011976Y-82846800D01*
X143041959Y-83006148D01*
X143136134Y-83152500D01*
X143279829Y-83250682D01*
X143450400Y-83285224D01*
X143731385Y-83285224D01*
X143731195Y-83502009D01*
X143842097Y-83770412D01*
X144047270Y-83975943D01*
X144315479Y-84087313D01*
X144605891Y-84087567D01*
X144874294Y-83976665D01*
X145079825Y-83771492D01*
X145187632Y-83511864D01*
X145350069Y-83579314D01*
X145640481Y-83579568D01*
X145908884Y-83468666D01*
X146092646Y-83285224D01*
X147514400Y-83285224D01*
X147673748Y-83255241D01*
X147820100Y-83161066D01*
X147918282Y-83017371D01*
X147942400Y-82898274D01*
X147942400Y-82963761D01*
X148031918Y-83179876D01*
X148197325Y-83345283D01*
X148413440Y-83434800D01*
X148971400Y-83434800D01*
X149118400Y-83287800D01*
X149118400Y-82220800D01*
X149098400Y-82220800D01*
X149098400Y-81872800D01*
X149118400Y-81872800D01*
X149118400Y-81852800D01*
X149466400Y-81852800D01*
X149466400Y-81872800D01*
X149486400Y-81872800D01*
X149486400Y-82220800D01*
X149466400Y-82220800D01*
X149466400Y-83287800D01*
X149613400Y-83434800D01*
X150171360Y-83434800D01*
X150387475Y-83345283D01*
X150552882Y-83179876D01*
X150642400Y-82963761D01*
X150642400Y-82902200D01*
X150661959Y-83006148D01*
X150756134Y-83152500D01*
X150899829Y-83250682D01*
X151070400Y-83285224D01*
X152594400Y-83285224D01*
X152753748Y-83255241D01*
X152764580Y-83248271D01*
X152901857Y-83305273D01*
X153192269Y-83305527D01*
X153396558Y-83221116D01*
X153439829Y-83250682D01*
X153610400Y-83285224D01*
X155134400Y-83285224D01*
X155293748Y-83255241D01*
X155299105Y-83251794D01*
X155492657Y-83332164D01*
X155783069Y-83332418D01*
X156051472Y-83221516D01*
X156257003Y-83016343D01*
X156368373Y-82748134D01*
X156368627Y-82457722D01*
X156257725Y-82189319D01*
X156112482Y-82043823D01*
X156109679Y-82029731D01*
X156081337Y-81987315D01*
X155999124Y-81864275D01*
X155676524Y-81541676D01*
X155572824Y-81472385D01*
X155572824Y-81286411D01*
X163521563Y-81286411D01*
X164166807Y-81931655D01*
X164166673Y-82084969D01*
X164277575Y-82353372D01*
X164482748Y-82558903D01*
X164750957Y-82670273D01*
X165041369Y-82670527D01*
X165309772Y-82559625D01*
X165515303Y-82354452D01*
X165626673Y-82086243D01*
X165626927Y-81795831D01*
X165516025Y-81527428D01*
X165310852Y-81321897D01*
X165042643Y-81210527D01*
X164888040Y-81210392D01*
X164604048Y-80926400D01*
X165313016Y-80926400D01*
X165978347Y-81591732D01*
X165894127Y-81794557D01*
X165893873Y-82084969D01*
X166004775Y-82353372D01*
X166209948Y-82558903D01*
X166478157Y-82670273D01*
X166768569Y-82670527D01*
X167036972Y-82559625D01*
X167242503Y-82354452D01*
X167353873Y-82086243D01*
X167354127Y-81795831D01*
X167243225Y-81527428D01*
X167109625Y-81393595D01*
X167095179Y-81320967D01*
X167045622Y-81246800D01*
X166984625Y-81155512D01*
X166140912Y-80311800D01*
X173779642Y-80311800D01*
X176025000Y-82557158D01*
X176025000Y-139490822D01*
X173780822Y-141735000D01*
X78339578Y-141735000D01*
X76095400Y-139490822D01*
X76095400Y-114214482D01*
X78127991Y-114214482D01*
X78214665Y-114446851D01*
X78758940Y-114623007D01*
X79329197Y-114577468D01*
X79644535Y-114446851D01*
X79731209Y-114214482D01*
X78929600Y-113412873D01*
X78127991Y-114214482D01*
X76095400Y-114214482D01*
X76095400Y-112996140D01*
X77473393Y-112996140D01*
X77518932Y-113566397D01*
X77649549Y-113881735D01*
X77881918Y-113968409D01*
X78683527Y-113166800D01*
X79175673Y-113166800D01*
X79977282Y-113968409D01*
X80209651Y-113881735D01*
X80385807Y-113337460D01*
X80340268Y-112767203D01*
X80209651Y-112451865D01*
X79977282Y-112365191D01*
X79175673Y-113166800D01*
X78683527Y-113166800D01*
X77881918Y-112365191D01*
X77649549Y-112451865D01*
X77473393Y-112996140D01*
X76095400Y-112996140D01*
X76095400Y-112119118D01*
X78127991Y-112119118D01*
X78929600Y-112920727D01*
X79731209Y-112119118D01*
X79644535Y-111886749D01*
X79100260Y-111710593D01*
X78530003Y-111756132D01*
X78214665Y-111886749D01*
X78127991Y-112119118D01*
X76095400Y-112119118D01*
X76095400Y-110535844D01*
X77206629Y-110535844D01*
X77373216Y-110835633D01*
X78153472Y-111120578D01*
X78983378Y-111085241D01*
X79585984Y-110835633D01*
X79752571Y-110535844D01*
X78479600Y-109262873D01*
X77206629Y-110535844D01*
X76095400Y-110535844D01*
X76095400Y-108690672D01*
X76375822Y-108690672D01*
X76411159Y-109520578D01*
X76660767Y-110123184D01*
X76960556Y-110289771D01*
X78233527Y-109016800D01*
X78725673Y-109016800D01*
X79998644Y-110289771D01*
X80298433Y-110123184D01*
X80583378Y-109342928D01*
X80555606Y-108690672D01*
X88375822Y-108690672D01*
X88411159Y-109520578D01*
X88660767Y-110123184D01*
X88960556Y-110289771D01*
X90233527Y-109016800D01*
X88960556Y-107743829D01*
X88660767Y-107910416D01*
X88375822Y-108690672D01*
X80555606Y-108690672D01*
X80548041Y-108513022D01*
X80298433Y-107910416D01*
X79998644Y-107743829D01*
X78725673Y-109016800D01*
X78233527Y-109016800D01*
X76960556Y-107743829D01*
X76660767Y-107910416D01*
X76375822Y-108690672D01*
X76095400Y-108690672D01*
X76095400Y-107497756D01*
X77206629Y-107497756D01*
X78479600Y-108770727D01*
X79752571Y-107497756D01*
X79585984Y-107197967D01*
X78805728Y-106913022D01*
X77975822Y-106948359D01*
X77373216Y-107197967D01*
X77206629Y-107497756D01*
X76095400Y-107497756D01*
X76095400Y-105120291D01*
X77649378Y-105120291D01*
X77843836Y-105590915D01*
X78203591Y-105951299D01*
X78673875Y-106146578D01*
X79183091Y-106147022D01*
X79399256Y-106057704D01*
X80064675Y-106723124D01*
X80187665Y-106805304D01*
X80230131Y-106833679D01*
X80425300Y-106872500D01*
X100647019Y-106872500D01*
X96512719Y-111006801D01*
X93606349Y-111006801D01*
X94019584Y-110835633D01*
X94186171Y-110535844D01*
X92913200Y-109262873D01*
X92899058Y-109277016D01*
X92652985Y-109030943D01*
X92667127Y-109016800D01*
X93159273Y-109016800D01*
X94432244Y-110289771D01*
X94732033Y-110123184D01*
X95016978Y-109342928D01*
X94981641Y-108513022D01*
X94732033Y-107910416D01*
X94432244Y-107743829D01*
X93159273Y-109016800D01*
X92667127Y-109016800D01*
X92652985Y-109002658D01*
X92899058Y-108756585D01*
X92913200Y-108770727D01*
X94186171Y-107497756D01*
X94019584Y-107197967D01*
X93239328Y-106913022D01*
X92409422Y-106948359D01*
X91806816Y-107197967D01*
X91696400Y-107396671D01*
X91585984Y-107197967D01*
X90805728Y-106913022D01*
X89975822Y-106948359D01*
X89373216Y-107197967D01*
X89206629Y-107497756D01*
X90479600Y-108770727D01*
X90493743Y-108756585D01*
X90739816Y-109002658D01*
X90725673Y-109016800D01*
X90739816Y-109030943D01*
X90493743Y-109277016D01*
X90479600Y-109262873D01*
X89206629Y-110535844D01*
X89373216Y-110835633D01*
X90121808Y-111109015D01*
X89705485Y-111281036D01*
X89345101Y-111640791D01*
X89149822Y-112111075D01*
X89149378Y-112620291D01*
X89238695Y-112836456D01*
X82089376Y-119985776D01*
X81978821Y-120151231D01*
X81940000Y-120346400D01*
X81940000Y-120427634D01*
X81831497Y-120535948D01*
X81720127Y-120804157D01*
X81719873Y-121094569D01*
X81830775Y-121362972D01*
X81940000Y-121472388D01*
X81940000Y-131877634D01*
X81831497Y-131985948D01*
X81720127Y-132254157D01*
X81719873Y-132544569D01*
X81830775Y-132812972D01*
X82035948Y-133018503D01*
X82304157Y-133129873D01*
X82594569Y-133130127D01*
X82862972Y-133019225D01*
X83068503Y-132814052D01*
X83179873Y-132545843D01*
X83180127Y-132255431D01*
X83069225Y-131987028D01*
X82960000Y-131877612D01*
X82960000Y-121472366D01*
X83068503Y-121364052D01*
X83179873Y-121095843D01*
X83180127Y-120805431D01*
X83069225Y-120537028D01*
X83024961Y-120492687D01*
X89959915Y-113557734D01*
X90173875Y-113646578D01*
X90683091Y-113647022D01*
X91153715Y-113452564D01*
X91514099Y-113092809D01*
X91554239Y-112996140D01*
X91906993Y-112996140D01*
X91952532Y-113566397D01*
X92083149Y-113881735D01*
X92315518Y-113968409D01*
X93117127Y-113166800D01*
X92315518Y-112365191D01*
X92083149Y-112451865D01*
X91906993Y-112996140D01*
X91554239Y-112996140D01*
X91709378Y-112622525D01*
X91709822Y-112113309D01*
X91674078Y-112026801D01*
X92596025Y-112026801D01*
X92561591Y-112119118D01*
X93363200Y-112920727D01*
X94164809Y-112119118D01*
X94130375Y-112026801D01*
X96001851Y-112026801D01*
X94809925Y-113218726D01*
X94773868Y-112767203D01*
X94643251Y-112451865D01*
X94410882Y-112365191D01*
X93609273Y-113166800D01*
X93623416Y-113180943D01*
X93377343Y-113427016D01*
X93363200Y-113412873D01*
X92561591Y-114214482D01*
X92648265Y-114446851D01*
X93192540Y-114623007D01*
X93424140Y-114604512D01*
X91876452Y-116152200D01*
X91708364Y-116152200D01*
X91600050Y-116043697D01*
X91331841Y-115932327D01*
X91041429Y-115932073D01*
X90773026Y-116042975D01*
X90567495Y-116248148D01*
X90456125Y-116516357D01*
X90455871Y-116806769D01*
X90566773Y-117075172D01*
X90650600Y-117159145D01*
X90650600Y-127519034D01*
X90542097Y-127627348D01*
X90430727Y-127895557D01*
X90430473Y-128185969D01*
X90541375Y-128454372D01*
X90746548Y-128659903D01*
X91014757Y-128771273D01*
X91305169Y-128771527D01*
X91573572Y-128660625D01*
X91779103Y-128455452D01*
X91890473Y-128187243D01*
X91890727Y-127896831D01*
X91779825Y-127628428D01*
X91670600Y-127519012D01*
X91670600Y-117209920D01*
X91708386Y-117172200D01*
X92087700Y-117172200D01*
X92282869Y-117133379D01*
X92448324Y-117022824D01*
X101725027Y-107746122D01*
X103390030Y-107746122D01*
X103094367Y-107910416D01*
X102809422Y-108690672D01*
X102844759Y-109520578D01*
X103094367Y-110123184D01*
X103388811Y-110286801D01*
X102696799Y-110286801D01*
X102501630Y-110325622D01*
X102455755Y-110356275D01*
X102336175Y-110436176D01*
X92515545Y-120256807D01*
X92362231Y-120256673D01*
X92093828Y-120367575D01*
X91888297Y-120572748D01*
X91776927Y-120840957D01*
X91776673Y-121131369D01*
X91887575Y-121399772D01*
X92047600Y-121560076D01*
X92047600Y-131894434D01*
X91939097Y-132002748D01*
X91827727Y-132270957D01*
X91827473Y-132561369D01*
X91938375Y-132829772D01*
X92143548Y-133035303D01*
X92411757Y-133146673D01*
X92702169Y-133146927D01*
X92970572Y-133036025D01*
X93176103Y-132830852D01*
X93287473Y-132562643D01*
X93287727Y-132272231D01*
X93176825Y-132003828D01*
X93067600Y-131894412D01*
X93067600Y-121458454D01*
X93125303Y-121400852D01*
X93236673Y-121132643D01*
X93236808Y-120978040D01*
X100277200Y-113937649D01*
X100277200Y-116139834D01*
X100168697Y-116248148D01*
X100057327Y-116516357D01*
X100057162Y-116705461D01*
X100016022Y-116767030D01*
X99977201Y-116962199D01*
X99977201Y-120985613D01*
X100008158Y-121141244D01*
X100016022Y-121180782D01*
X100126577Y-121346237D01*
X100328000Y-121547661D01*
X100328000Y-127544434D01*
X100219497Y-127652748D01*
X100108127Y-127920957D01*
X100107873Y-128211369D01*
X100218775Y-128479772D01*
X100423948Y-128685303D01*
X100692157Y-128796673D01*
X100982569Y-128796927D01*
X101250972Y-128686025D01*
X101456503Y-128480852D01*
X101496400Y-128384769D01*
X101496400Y-131894434D01*
X101387897Y-132002748D01*
X101276527Y-132270957D01*
X101276273Y-132561369D01*
X101387175Y-132829772D01*
X101592348Y-133035303D01*
X101860557Y-133146673D01*
X102150969Y-133146927D01*
X102419372Y-133036025D01*
X102624903Y-132830852D01*
X102736273Y-132562643D01*
X102736527Y-132272231D01*
X102625625Y-132003828D01*
X102516400Y-131894412D01*
X102516400Y-121509166D01*
X102624903Y-121400852D01*
X102736273Y-121132643D01*
X102736527Y-120842231D01*
X102625625Y-120573828D01*
X102516400Y-120464412D01*
X102516400Y-115443428D01*
X104399577Y-113560251D01*
X104607475Y-113646578D01*
X105116691Y-113647022D01*
X105587315Y-113452564D01*
X105947699Y-113092809D01*
X106037394Y-112876800D01*
X106065281Y-112876800D01*
X106260450Y-112837979D01*
X106425905Y-112727424D01*
X106832530Y-112320800D01*
X113932351Y-112320800D01*
X110320945Y-115932207D01*
X110167631Y-115932073D01*
X109899228Y-116042975D01*
X109693697Y-116248148D01*
X109582327Y-116516357D01*
X109582073Y-116806769D01*
X109692975Y-117075172D01*
X109802200Y-117184588D01*
X109802200Y-127595194D01*
X109719101Y-127678148D01*
X109607731Y-127946357D01*
X109607477Y-128236769D01*
X109718379Y-128505172D01*
X109923552Y-128710703D01*
X110191761Y-128822073D01*
X110482173Y-128822327D01*
X110750576Y-128711425D01*
X110956107Y-128506252D01*
X111067477Y-128238043D01*
X111067731Y-127947631D01*
X110956829Y-127679228D01*
X110822200Y-127544364D01*
X110822200Y-117184566D01*
X110930703Y-117076252D01*
X111042073Y-116808043D01*
X111042208Y-116653440D01*
X114995715Y-112699934D01*
X119224017Y-112699934D01*
X111667145Y-120256807D01*
X111513831Y-120256673D01*
X111245428Y-120367575D01*
X111039897Y-120572748D01*
X110928527Y-120840957D01*
X110928273Y-121131369D01*
X111039175Y-121399772D01*
X111244348Y-121605303D01*
X111250000Y-121607650D01*
X111250000Y-131894434D01*
X111141497Y-132002748D01*
X111030127Y-132270957D01*
X111029873Y-132561369D01*
X111140775Y-132829772D01*
X111345948Y-133035303D01*
X111614157Y-133146673D01*
X111904569Y-133146927D01*
X112172972Y-133036025D01*
X112378503Y-132830852D01*
X112489873Y-132562643D01*
X112490127Y-132272231D01*
X112379225Y-132003828D01*
X112270000Y-131894412D01*
X112270000Y-121407743D01*
X112276903Y-121400852D01*
X112388273Y-121132643D01*
X112388408Y-120978040D01*
X120306504Y-113059945D01*
X122769006Y-113059945D01*
X119896745Y-115932207D01*
X119743431Y-115932073D01*
X119475028Y-116042975D01*
X119269497Y-116248148D01*
X119158127Y-116516357D01*
X119157873Y-116806769D01*
X119268775Y-117075172D01*
X119378000Y-117184588D01*
X119378000Y-127595148D01*
X119320299Y-127652748D01*
X119208929Y-127920957D01*
X119208675Y-128211369D01*
X119319577Y-128479772D01*
X119524750Y-128685303D01*
X119792959Y-128796673D01*
X120083371Y-128796927D01*
X120351774Y-128686025D01*
X120557305Y-128480852D01*
X120668675Y-128212643D01*
X120668929Y-127922231D01*
X120558027Y-127653828D01*
X120398000Y-127493522D01*
X120398000Y-117184566D01*
X120506503Y-117076252D01*
X120617873Y-116808043D01*
X120618008Y-116653440D01*
X123851493Y-113419956D01*
X128105195Y-113419956D01*
X121268345Y-120256807D01*
X121115031Y-120256673D01*
X120846628Y-120367575D01*
X120641097Y-120572748D01*
X120529727Y-120840957D01*
X120529473Y-121131369D01*
X120640375Y-121399772D01*
X120698800Y-121458299D01*
X120698800Y-131894434D01*
X120590297Y-132002748D01*
X120478927Y-132270957D01*
X120478673Y-132561369D01*
X120589575Y-132829772D01*
X120794748Y-133035303D01*
X121062957Y-133146673D01*
X121353369Y-133146927D01*
X121621772Y-133036025D01*
X121827303Y-132830852D01*
X121938673Y-132562643D01*
X121938927Y-132272231D01*
X121828025Y-132003828D01*
X121718800Y-131894412D01*
X121718800Y-121559878D01*
X121878103Y-121400852D01*
X121989473Y-121132643D01*
X121989608Y-120978040D01*
X129187682Y-113779967D01*
X131700984Y-113779967D01*
X129472545Y-116008407D01*
X129319231Y-116008273D01*
X129050828Y-116119175D01*
X128845297Y-116324348D01*
X128733927Y-116592557D01*
X128733673Y-116882969D01*
X128844575Y-117151372D01*
X128953800Y-117260788D01*
X128953800Y-127620588D01*
X128870697Y-127703546D01*
X128759327Y-127971755D01*
X128759073Y-128262167D01*
X128869975Y-128530570D01*
X129075148Y-128736101D01*
X129343357Y-128847471D01*
X129633769Y-128847725D01*
X129902172Y-128736823D01*
X130107703Y-128531650D01*
X130198400Y-128313227D01*
X130198400Y-131945234D01*
X130089897Y-132053548D01*
X129978527Y-132321757D01*
X129978273Y-132612169D01*
X130089175Y-132880572D01*
X130294348Y-133086103D01*
X130562557Y-133197473D01*
X130852969Y-133197727D01*
X131121372Y-133086825D01*
X131326903Y-132881652D01*
X131438273Y-132613443D01*
X131438527Y-132323031D01*
X131327625Y-132054628D01*
X131218400Y-131945212D01*
X131218400Y-121559966D01*
X131326903Y-121451652D01*
X131438273Y-121183443D01*
X131438408Y-121028840D01*
X137967259Y-114499989D01*
X140582162Y-114499989D01*
X139048345Y-116033807D01*
X138895031Y-116033673D01*
X138626628Y-116144575D01*
X138421097Y-116349748D01*
X138309727Y-116617957D01*
X138309473Y-116908369D01*
X138420375Y-117176772D01*
X138529600Y-117286188D01*
X138529600Y-127696746D01*
X138471897Y-127754348D01*
X138360527Y-128022557D01*
X138360273Y-128312969D01*
X138471175Y-128581372D01*
X138676348Y-128786903D01*
X138944557Y-128898273D01*
X139234969Y-128898527D01*
X139503372Y-128787625D01*
X139708903Y-128582452D01*
X139820273Y-128314243D01*
X139820527Y-128023831D01*
X139709625Y-127755428D01*
X139549600Y-127595124D01*
X139549600Y-117286166D01*
X139658103Y-117177852D01*
X139769473Y-116909643D01*
X139769608Y-116755040D01*
X141664649Y-114860000D01*
X146359620Y-114860000D01*
X140941219Y-120278401D01*
X140761999Y-120278401D01*
X140566830Y-120317222D01*
X140523163Y-120346400D01*
X140505148Y-120358437D01*
X140317431Y-120358273D01*
X140049028Y-120469175D01*
X139843497Y-120674348D01*
X139732127Y-120942557D01*
X139731873Y-121232969D01*
X139842775Y-121501372D01*
X139901200Y-121559899D01*
X139901200Y-131996034D01*
X139792697Y-132104348D01*
X139681327Y-132372557D01*
X139681073Y-132662969D01*
X139791975Y-132931372D01*
X139997148Y-133136903D01*
X140265357Y-133248273D01*
X140555769Y-133248527D01*
X140824172Y-133137625D01*
X141029703Y-132932452D01*
X141141073Y-132664243D01*
X141141327Y-132373831D01*
X141030425Y-132105428D01*
X140921200Y-131996012D01*
X140921200Y-121661478D01*
X141080503Y-121502452D01*
X141166382Y-121295633D01*
X141347636Y-121259580D01*
X141513091Y-121149025D01*
X148080000Y-114582116D01*
X148080000Y-116275344D01*
X147971497Y-116383658D01*
X147860127Y-116651867D01*
X147859873Y-116942279D01*
X147970775Y-117210682D01*
X148080000Y-117320098D01*
X148080000Y-127671390D01*
X147996897Y-127754348D01*
X147885527Y-128022557D01*
X147885273Y-128312969D01*
X147996175Y-128581372D01*
X148201348Y-128786903D01*
X148469557Y-128898273D01*
X148759969Y-128898527D01*
X149028372Y-128787625D01*
X149233903Y-128582452D01*
X149345273Y-128314243D01*
X149345527Y-128023831D01*
X149234625Y-127755428D01*
X149100000Y-127620568D01*
X149100000Y-117320076D01*
X149208503Y-117211762D01*
X149319873Y-116943553D01*
X149320127Y-116653141D01*
X149209225Y-116384738D01*
X149100000Y-116275322D01*
X149100000Y-114071248D01*
X155930429Y-107240819D01*
X155930429Y-114499922D01*
X150071945Y-120358407D01*
X149918631Y-120358273D01*
X149650228Y-120469175D01*
X149444697Y-120674348D01*
X149333327Y-120942557D01*
X149333073Y-121232969D01*
X149443975Y-121501372D01*
X149502400Y-121559899D01*
X149502400Y-131996034D01*
X149393897Y-132104348D01*
X149282527Y-132372557D01*
X149282273Y-132662969D01*
X149393175Y-132931372D01*
X149598348Y-133136903D01*
X149866557Y-133248273D01*
X150156969Y-133248527D01*
X150425372Y-133137625D01*
X150630903Y-132932452D01*
X150742273Y-132664243D01*
X150742527Y-132373831D01*
X150631625Y-132105428D01*
X150522400Y-131996012D01*
X150522400Y-121661478D01*
X150681703Y-121502452D01*
X150793073Y-121234243D01*
X150793208Y-121079640D01*
X156545820Y-115327029D01*
X156545820Y-122675254D01*
X156437317Y-122783568D01*
X156325947Y-123051777D01*
X156325693Y-123342189D01*
X156436595Y-123610592D01*
X156641768Y-123816123D01*
X156909977Y-123927493D01*
X157200389Y-123927747D01*
X157468792Y-123816845D01*
X157674323Y-123611672D01*
X157785693Y-123343463D01*
X157785947Y-123053051D01*
X157675045Y-122784648D01*
X157565820Y-122675232D01*
X157565820Y-101087068D01*
X157833600Y-101354849D01*
X157833600Y-116275344D01*
X157725097Y-116383658D01*
X157613727Y-116651867D01*
X157613473Y-116942279D01*
X157724375Y-117210682D01*
X157833600Y-117320098D01*
X157833600Y-127646034D01*
X157725097Y-127754348D01*
X157613727Y-128022557D01*
X157613473Y-128312969D01*
X157724375Y-128581372D01*
X157929548Y-128786903D01*
X158197757Y-128898273D01*
X158488169Y-128898527D01*
X158756572Y-128787625D01*
X158962103Y-128582452D01*
X159073473Y-128314243D01*
X159073727Y-128023831D01*
X158962825Y-127755428D01*
X158853600Y-127646012D01*
X158853600Y-117320076D01*
X158962103Y-117211762D01*
X159073473Y-116943553D01*
X159073727Y-116653141D01*
X158962825Y-116384738D01*
X158853600Y-116275322D01*
X158853600Y-101550585D01*
X159082390Y-101779375D01*
X159082390Y-120566034D01*
X158973887Y-120674348D01*
X158862517Y-120942557D01*
X158862263Y-121232969D01*
X158973165Y-121501372D01*
X159082390Y-121610788D01*
X159082390Y-131920526D01*
X159116923Y-132094136D01*
X159121211Y-132115695D01*
X159134517Y-132135608D01*
X159036127Y-132372557D01*
X159035873Y-132662969D01*
X159146775Y-132931372D01*
X159351948Y-133136903D01*
X159620157Y-133248273D01*
X159910569Y-133248527D01*
X160178972Y-133137625D01*
X160384503Y-132932452D01*
X160495873Y-132664243D01*
X160496127Y-132373831D01*
X160385225Y-132105428D01*
X160251625Y-131971595D01*
X160237179Y-131898967D01*
X160169430Y-131797575D01*
X160126625Y-131733512D01*
X160102390Y-131709277D01*
X160102390Y-125818339D01*
X160316969Y-125818527D01*
X160585372Y-125707625D01*
X160790903Y-125502452D01*
X160902273Y-125234243D01*
X160902527Y-124943831D01*
X160791625Y-124675428D01*
X160682400Y-124566012D01*
X160682400Y-114180766D01*
X160790903Y-114072452D01*
X160902273Y-113804243D01*
X160902527Y-113513831D01*
X160791625Y-113245428D01*
X160682400Y-113136012D01*
X160682400Y-100998835D01*
X160824146Y-100857336D01*
X160935516Y-100589127D01*
X160935770Y-100298715D01*
X160824868Y-100030312D01*
X160619695Y-99824781D01*
X160351486Y-99713411D01*
X160061074Y-99713157D01*
X159792671Y-99824059D01*
X159587140Y-100029232D01*
X159475770Y-100297441D01*
X159475516Y-100587853D01*
X159575609Y-100830096D01*
X157784888Y-99039376D01*
X157619433Y-98928821D01*
X157612837Y-98927509D01*
X157424264Y-98890000D01*
X157272366Y-98890000D01*
X157164052Y-98781497D01*
X156895843Y-98670127D01*
X156605431Y-98669873D01*
X156337028Y-98780775D01*
X156131497Y-98985948D01*
X156077891Y-99115046D01*
X155334560Y-98371716D01*
X155169105Y-98261161D01*
X155164832Y-98260311D01*
X154973936Y-98222340D01*
X147525740Y-98222340D01*
X147334844Y-98260311D01*
X147330571Y-98261161D01*
X147165115Y-98371716D01*
X145747312Y-99789520D01*
X145249026Y-99789520D01*
X145140712Y-99681017D01*
X144872503Y-99569647D01*
X144582091Y-99569393D01*
X144313688Y-99680295D01*
X144108157Y-99885468D01*
X143996787Y-100153677D01*
X143996754Y-100191843D01*
X143926336Y-100238895D01*
X142766712Y-101398519D01*
X142681425Y-101192108D01*
X142476252Y-100986577D01*
X142208043Y-100875207D01*
X141917631Y-100874953D01*
X141649228Y-100985855D01*
X141539812Y-101095080D01*
X132986780Y-101095080D01*
X132813053Y-101129636D01*
X132791611Y-101133901D01*
X132626156Y-101244456D01*
X132213812Y-101656800D01*
X100037435Y-101656800D01*
X99948964Y-101442685D01*
X99589209Y-101082301D01*
X99118925Y-100887022D01*
X98609709Y-100886578D01*
X98139085Y-101081036D01*
X97778701Y-101440791D01*
X97689006Y-101656800D01*
X85603835Y-101656800D01*
X85515364Y-101442685D01*
X85155609Y-101082301D01*
X84685325Y-100887022D01*
X84176109Y-100886578D01*
X83705485Y-101081036D01*
X83345101Y-101440791D01*
X83149822Y-101911075D01*
X83149378Y-102420291D01*
X83343836Y-102890915D01*
X83703591Y-103251299D01*
X84173875Y-103446578D01*
X84683091Y-103447022D01*
X85153715Y-103252564D01*
X85514099Y-102892809D01*
X85603794Y-102676800D01*
X97688965Y-102676800D01*
X97777436Y-102890915D01*
X98137191Y-103251299D01*
X98607475Y-103446578D01*
X99116691Y-103447022D01*
X99587315Y-103252564D01*
X99947699Y-102892809D01*
X100037394Y-102676800D01*
X102214991Y-102676800D01*
X102204831Y-102678821D01*
X102162801Y-102706905D01*
X102039376Y-102789375D01*
X100471952Y-104356800D01*
X94537435Y-104356800D01*
X94448964Y-104142685D01*
X94089209Y-103782301D01*
X93618925Y-103587022D01*
X93109709Y-103586578D01*
X92639085Y-103781036D01*
X92278701Y-104140791D01*
X92083422Y-104611075D01*
X92082978Y-105120291D01*
X92236767Y-105492489D01*
X91376538Y-105492489D01*
X91220534Y-105336485D01*
X91309378Y-105122525D01*
X91309822Y-104613309D01*
X91115364Y-104142685D01*
X90755609Y-103782301D01*
X90285325Y-103587022D01*
X89776109Y-103586578D01*
X89305485Y-103781036D01*
X88945101Y-104140791D01*
X88749822Y-104611075D01*
X88749378Y-105120291D01*
X88943836Y-105590915D01*
X89204964Y-105852500D01*
X80636549Y-105852500D01*
X80120534Y-105336485D01*
X80209378Y-105122525D01*
X80209822Y-104613309D01*
X80015364Y-104142685D01*
X79655609Y-103782301D01*
X79185325Y-103587022D01*
X78676109Y-103586578D01*
X78205485Y-103781036D01*
X77845101Y-104140791D01*
X77649822Y-104611075D01*
X77649378Y-105120291D01*
X76095400Y-105120291D01*
X76095400Y-94284291D01*
X77797778Y-94284291D01*
X77992236Y-94754915D01*
X78351991Y-95115299D01*
X78822275Y-95310578D01*
X79331491Y-95311022D01*
X79802115Y-95116564D01*
X80162499Y-94756809D01*
X80357778Y-94286525D01*
X80358222Y-93777309D01*
X80163764Y-93306685D01*
X79804009Y-92946301D01*
X79333725Y-92751022D01*
X78824509Y-92750578D01*
X78353885Y-92945036D01*
X77993501Y-93304791D01*
X77798222Y-93775075D01*
X77797778Y-94284291D01*
X76095400Y-94284291D01*
X76095400Y-82556258D01*
X78339858Y-80311800D01*
X89301752Y-80311800D01*
X80012722Y-89600830D01*
G36*
X105173416Y-109002658D02*
X105159273Y-109016800D01*
X105173416Y-109030943D01*
X104927343Y-109277016D01*
X104913200Y-109262873D01*
X104899058Y-109277016D01*
X104652985Y-109030943D01*
X104667127Y-109016800D01*
X104652985Y-109002658D01*
X104899058Y-108756585D01*
X104913200Y-108770727D01*
X104927343Y-108756585D01*
X105173416Y-109002658D01*
X105173416Y-109002658D01*
G37*
X105173416Y-109002658D02*
X105159273Y-109016800D01*
X105173416Y-109030943D01*
X104927343Y-109277016D01*
X104913200Y-109262873D01*
X104899058Y-109277016D01*
X104652985Y-109030943D01*
X104667127Y-109016800D01*
X104652985Y-109002658D01*
X104899058Y-108756585D01*
X104913200Y-108770727D01*
X104927343Y-108756585D01*
X105173416Y-109002658D01*
G36*
X145429967Y-100872019D02*
X145429967Y-102398784D01*
X144321951Y-103506801D01*
X142926427Y-103506801D01*
X144311516Y-102121713D01*
X144464829Y-102121847D01*
X144733232Y-102010945D01*
X144938763Y-101805772D01*
X145050133Y-101537563D01*
X145050387Y-101247151D01*
X144947495Y-100998134D01*
X145139632Y-100918745D01*
X145249048Y-100809520D01*
X145442399Y-100809520D01*
X145429967Y-100872019D01*
X145429967Y-100872019D01*
G37*
X145429967Y-100872019D02*
X145429967Y-102398784D01*
X144321951Y-103506801D01*
X142926427Y-103506801D01*
X144311516Y-102121713D01*
X144464829Y-102121847D01*
X144733232Y-102010945D01*
X144938763Y-101805772D01*
X145050133Y-101537563D01*
X145050387Y-101247151D01*
X144947495Y-100998134D01*
X145139632Y-100918745D01*
X145249048Y-100809520D01*
X145442399Y-100809520D01*
X145429967Y-100872019D01*
M02*
