M48
INCH,TZ
T1C0.016
T2C0.020
T3C0.022
T4C0.041
T5C0.098
T6C0.067
%
G90
G05
T1
X31487Y-35563
X32461Y-47618
X32461Y-52126
X34401Y-38477
X35890Y-50410
X35900Y-45930
X36420Y-47633
X36440Y-52133
X39680Y-45930
X39700Y-50420
X40160Y-47633
X40160Y-52133
X41385Y-38120
X42150Y-38131
X42850Y-38131
X43430Y-45930
X43440Y-50430
X43555Y-38131
X43960Y-47633
X44000Y-52133
X44125Y-34050
X44130Y-32730
X44409Y-32736
X44545Y-37500
X44685Y-32736
X44805Y-38505
X44980Y-32736
X45765Y-38100
X46210Y-34989
X47200Y-45930
X47220Y-50420
X47325Y-36390
X47326Y-36637
X47697Y-35610
X47700Y-35920
X47700Y-36220
X47720Y-52133
X47740Y-47633
X48150Y-34134
X48228Y-42854
X48228Y-43169
X48496Y-33906
X48521Y-34362
X49096Y-38050
X49272Y-39783
X49291Y-41457
X49547Y-39783
X49823Y-39783
X50098Y-39783
X50236Y-35256
X50263Y-34875
X50970Y-45960
X50980Y-50440
X51460Y-47653
X51460Y-52153
X51878Y-33458
X52153Y-33458
X52362Y-40335
X52429Y-33458
X52744Y-33458
X53330Y-32390
X54566Y-36577
X54740Y-45970
X54760Y-50460
X55280Y-52173
X55294Y-36080
X55300Y-47673
X55380Y-33570
X55380Y-33850
X55650Y-33570
X55650Y-33840
X55860Y-34200
X55930Y-40002
X56310Y-33820
X56770Y-34200
X56819Y-39918
X56850Y-35531
X56875Y-32818
X56979Y-39488
X57228Y-39789
X57282Y-32618
X57306Y-33718
X57339Y-35161
X57421Y-36161
X57423Y-38930
X57427Y-35880
X57480Y-43169
X57480Y-42854
X57495Y-34702
X57522Y-35417
X57685Y-39823
X57697Y-35886
X57697Y-36161
X57756Y-35138
X57850Y-38670
X57926Y-39468
X58159Y-39209
X58209Y-36102
X58402Y-39446
X58446Y-39998
X58500Y-45983
X58510Y-50460
X58567Y-34759
X58610Y-33458
X58610Y-33694
X58642Y-39744
X58777Y-32242
X58859Y-34825
X58863Y-39483
X58886Y-33458
X58886Y-33694
X58980Y-38522
X59060Y-52173
X59080Y-47673
X59121Y-39800
X59272Y-37224
X59359Y-39382
X59397Y-33437
X59567Y-37224
X59593Y-39171
X59843Y-39482
X59862Y-37224
X60050Y-39175
X60059Y-38091
X60157Y-37224
X60255Y-32510
X60299Y-39460
X60326Y-33406
X60335Y-38091
X60425Y-35256
X60555Y-39175
X60630Y-38091
X60660Y-35047
X60756Y-39465
X60906Y-38091
X60963Y-39161
X61063Y-35020
X61213Y-39455
X61275Y-32521
X61317Y-34833
X61462Y-39648
X61570Y-36690
X61591Y-39935
X61654Y-38406
X61713Y-39134
X61773Y-33634
X61833Y-48503
X61840Y-35560
X61909Y-39390
X61921Y-36686
X61972Y-38410
X62044Y-34306
X62057Y-35239
X62140Y-33697
X62340Y-45983
X62340Y-50460
X62832Y-47673
X62900Y-52173
X63060Y-44747
X63060Y-49247
X63073Y-39545
X63189Y-33937
X63208Y-38273
X63386Y-38760
X63570Y-32626
X63623Y-34698
X63729Y-38760
X63885Y-43160
X63900Y-34492
X63909Y-42343
X63984Y-35340
X64010Y-34810
X64200Y-34364
X64232Y-38091
X64250Y-32626
X64299Y-38482
X64335Y-40193
X64475Y-34246
X64528Y-38091
X64599Y-33974
X64823Y-38091
X64920Y-32260
X64980Y-34104
X65031Y-40192
X65043Y-38750
X65118Y-38091
X65368Y-43173
X65368Y-47673
X65562Y-38638
X65600Y-32260
X66070Y-45960
X66080Y-50460
X66300Y-37000
X66398Y-52185
X66437Y-35984
X66535Y-44747
X66680Y-53747
X66738Y-34678
X66738Y-35042
X66878Y-35948
X66960Y-33424
X67100Y-37000
X67102Y-34678
X67102Y-35042
X67185Y-35866
X67510Y-35670
X67864Y-34575
T4
X31075Y-41286
X31075Y-44554
X33240Y-40223
X35445Y-41286
X35602Y-44239
X36757Y-41286
X36757Y-44554
X38923Y-40223
X41127Y-41286
X41285Y-44239
T5
X30897Y-42920
X35622Y-42920
X36580Y-42920
X41304Y-42920
T6
X31133Y-37020
X33889Y-37020
X65371Y-37017
X68127Y-37017
T2
X47109Y-32284G85X47109Y-32540
G05
X49865Y-32284G85X49865Y-32540
G05
T3
X47562Y-33475G85X47444Y-33475
G05
X49531Y-33475G85X49413Y-33475
G05
T0
M30
