M48
INCH,TZ
T1C0.016
T2C0.020
T3C0.022
T4C0.032
T5C0.039
T6C0.040
T7C0.041
T8C0.098
T9C0.169
%
G90
G05
T1
X34050Y-50490
X34060Y-46010
X34150Y-52210
X34334Y-47710
X37400Y-36300
X37677Y-36299
X38080Y-46010
X38100Y-50500
X38177Y-52213
X38324Y-47710
X39257Y-36202
X39547Y-36202
X39847Y-36192
X40147Y-36192
X41171Y-36230
X41313Y-41339
X41527Y-37472
X41807Y-37252
X41900Y-39049
X42070Y-46010
X42080Y-50510
X42150Y-52210
X42390Y-47710
X42453Y-42910
X42548Y-43210
X42610Y-44200
X43701Y-36181
X43701Y-37520
X43976Y-36181
X43976Y-37520
X44252Y-36181
X44252Y-37520
X44528Y-36181
X44528Y-37520
X45370Y-36950
X45472Y-33937
X46060Y-46010
X46075Y-42800
X46080Y-50500
X46160Y-52210
X46314Y-47710
X46370Y-43240
X46780Y-33940
X47040Y-36670
X47080Y-33940
X48090Y-36690
X49697Y-31590
X50070Y-46020
X50080Y-50500
X50106Y-43240
X50130Y-52210
X50197Y-35945
X50200Y-36800
X50200Y-37970
X50200Y-38403
X50215Y-36259
X50324Y-47710
X50380Y-43490
X50472Y-33451
X50739Y-33636
X51317Y-31600
X52008Y-34400
X52283Y-34055
X53898Y-32638
X54060Y-46010
X54080Y-50500
X54130Y-52210
X54173Y-32638
X54324Y-47710
X54412Y-43482
X54449Y-32638
X54449Y-43169
X54724Y-40217
X54764Y-32638
X55000Y-40217
X55276Y-40217
X55350Y-31570
X55551Y-40217
X56604Y-35807
X57314Y-35260
X57400Y-32750
X57400Y-33030
X57670Y-32750
X57670Y-33020
X57880Y-33380
X57980Y-39480
X58060Y-46010
X58070Y-50500
X58106Y-43248
X58130Y-52210
X58176Y-39098
X58314Y-47720
X58330Y-33000
X58410Y-43390
X58790Y-33380
X58810Y-38650
X58835Y-37625
X58852Y-38146
X58895Y-31998
X58939Y-34827
X58965Y-35325
X59160Y-37530
X59232Y-37221
X59300Y-38970
X59302Y-31798
X59326Y-32898
X59443Y-38110
X59488Y-35197
X59595Y-34925
X59624Y-37327
X59724Y-35394
X59810Y-35130
X59856Y-38351
X59870Y-37850
X59966Y-38660
X60043Y-34102
X60179Y-38389
X60389Y-34008
X60422Y-38626
X60495Y-36991
X60551Y-35315
X60591Y-35591
X60625Y-38355
X60630Y-32638
X60630Y-32874
X60778Y-33942
X60797Y-31422
X60800Y-35400
X60807Y-36948
X60879Y-38575
X60906Y-32638
X60906Y-32874
X61000Y-37800
X61011Y-38289
X61063Y-35551
X61336Y-38459
X61417Y-32611
X61442Y-35007
X61530Y-34705
X61545Y-35305
X61550Y-37980
X61902Y-37989
X62080Y-42870
X62092Y-38275
X62100Y-46010
X62100Y-50500
X62120Y-52220
X62233Y-38583
X62255Y-38006
X62275Y-31690
X62330Y-43210
X62346Y-32586
X62370Y-47710
X62548Y-38189
X62650Y-35770
X62650Y-36030
X62723Y-34460
X62849Y-38096
X62920Y-35770
X62920Y-36030
X62977Y-34265
X62989Y-38384
X63223Y-38153
X63232Y-34068
X63295Y-31701
X63472Y-38371
X63490Y-33869
X63590Y-35870
X63606Y-38086
X63793Y-32814
X63858Y-36732
X63858Y-37008
X63858Y-37283
X63858Y-37559
X63860Y-34740
X63941Y-35866
X64001Y-38072
X64064Y-33486
X64077Y-34417
X64100Y-38700
X64100Y-39070
X64160Y-32877
X64639Y-33929
X65000Y-39510
X65079Y-38321
X65100Y-31800
X65387Y-38232
X65394Y-35079
X65419Y-33459
X65581Y-34049
X65590Y-31806
X65600Y-38001
X65723Y-37711
X65780Y-36170
X65805Y-36844
X66031Y-42861
X66070Y-46000
X66080Y-50500
X66120Y-52220
X66123Y-36820
X66214Y-35550
X66270Y-31806
X66283Y-43240
X66318Y-33868
X66318Y-34232
X66365Y-36618
X66410Y-47710
X66614Y-36378
X66682Y-33868
X66682Y-34232
X66900Y-46000
X66910Y-50500
X66930Y-31810
X66957Y-35096
X66969Y-35395
X67100Y-36300
X67100Y-36600
X67100Y-36600
X67165Y-40276
X67165Y-40551
X67165Y-40827
X67165Y-41102
X67270Y-42430
X67350Y-34610
X67402Y-35079
X67413Y-34278
X67413Y-33628
X67566Y-42321
X67620Y-31810
X68580Y-32020
X68594Y-33400
X68594Y-34050
X68594Y-34700
X69010Y-37020
X69010Y-37650
T4
X54850Y-35689
X54850Y-37611
T5
X43287Y-33535
X43287Y-34535
T6
X42839Y-32308
X43839Y-32308
X44839Y-32308
X45839Y-32308
T7
X32805Y-41286
X32805Y-44554
X34970Y-40223
X37175Y-41286
X37333Y-44239
X39154Y-41280
X39154Y-44547
X41319Y-40217
X43524Y-41280
X43681Y-44232
T8
X32549Y-42920
X37431Y-42920
X38898Y-42913
X43780Y-42913
T9
X67815Y-55315
T2
X49129Y-31464G85X49129Y-31720
G05
X51885Y-31464G85X51885Y-31720
G05
T3
X49582Y-32655G85X49464Y-32655
G05
X51551Y-32655G85X51433Y-32655
G05
T0
M30
