G04 #@! TF.FileFunction,Copper,L2,Bot,Signal*
%FSLAX46Y46*%
G04 Gerber Fmt 4.6, Leading zero omitted, Abs format (unit mm)*
G04 Created by KiCad (PCBNEW 4.0.6-e0-6349~52~ubuntu16.10.1) date Mon May  8 18:25:15 2017*
%MOMM*%
%LPD*%
G01*
G04 APERTURE LIST*
%ADD10C,0.100000*%
%ADD11O,3.014980X1.506220*%
%ADD12O,1.250000X0.950000*%
%ADD13O,1.000000X1.550000*%
%ADD14C,1.501140*%
%ADD15R,2.000000X1.500000*%
%ADD16R,2.000000X1.450000*%
%ADD17R,1.500000X0.800000*%
%ADD18R,1.727200X2.032000*%
%ADD19O,1.727200X2.032000*%
%ADD20R,1.524000X1.600000*%
%ADD21C,1.700000*%
%ADD22C,3.000000*%
%ADD23C,0.600000*%
%ADD24C,0.500000*%
%ADD25C,0.250000*%
%ADD26C,0.160000*%
%ADD27C,0.400000*%
%ADD28C,0.200000*%
%ADD29C,0.254000*%
G04 APERTURE END LIST*
D10*
D11*
X109949200Y-87720000D03*
X109949200Y-85180000D03*
D12*
X130788680Y-82944140D03*
X125788680Y-82944140D03*
D13*
X131788680Y-80244140D03*
X124788680Y-80244140D03*
D14*
X139319000Y-90650060D03*
X139319000Y-95531940D03*
D15*
X174345600Y-83000000D03*
X165495600Y-83000000D03*
X174345600Y-91600000D03*
X165495600Y-91600000D03*
X82143600Y-91287600D03*
X90993600Y-91287600D03*
X82143600Y-82687600D03*
X90993600Y-82687600D03*
D16*
X118338600Y-99923600D03*
X118338600Y-86173600D03*
X126638600Y-99923600D03*
X126638600Y-86173600D03*
D17*
X120938600Y-97543600D03*
X120938600Y-96443600D03*
X120938600Y-95343600D03*
X120938600Y-94243600D03*
X120938600Y-93143600D03*
X120938600Y-92043600D03*
X120938600Y-90943600D03*
X120938600Y-89843600D03*
D18*
X116431800Y-82062000D03*
D19*
X113891800Y-82062000D03*
X111351800Y-82062000D03*
X108811800Y-82062000D03*
D20*
X149343200Y-79964000D03*
X151883200Y-79964000D03*
X154423200Y-79964000D03*
X156963200Y-79964000D03*
X159503200Y-79964000D03*
X162043200Y-79964000D03*
D21*
X104950000Y-102150000D03*
X110950000Y-112350000D03*
X99450000Y-113150000D03*
X110550000Y-104850000D03*
X99450000Y-104850000D03*
D22*
X99000000Y-109000000D03*
X111000000Y-109000000D03*
D21*
X88824600Y-102166800D03*
X94824600Y-112366800D03*
X83324600Y-113166800D03*
X94424600Y-104866800D03*
X83324600Y-104866800D03*
D22*
X82874600Y-109016800D03*
X94874600Y-109016800D03*
D23*
X99711600Y-91952800D03*
X100448200Y-91952800D03*
X101210200Y-91927400D03*
X101972200Y-91927400D03*
X151444286Y-94809746D03*
X86487000Y-128244600D03*
X86512398Y-116865400D03*
X150266398Y-95326200D03*
X96774000Y-128270000D03*
X96723200Y-116865400D03*
X152033041Y-97410406D03*
X106883204Y-128295400D03*
X106857800Y-116865400D03*
X154966950Y-97253224D03*
X117043202Y-128270000D03*
X117030500Y-108712000D03*
X116992400Y-116865400D03*
X157712888Y-97219474D03*
X127203200Y-128269998D03*
X127177800Y-116890800D03*
X127270012Y-109829598D03*
X167971079Y-93517531D03*
X168360047Y-109830664D03*
X158357660Y-82768160D03*
X162966511Y-83506690D03*
X158178500Y-80492600D03*
X162723012Y-85054631D03*
X162204400Y-88239600D03*
X168580658Y-92999427D03*
X168681400Y-121183400D03*
X166612877Y-96545420D03*
X158419800Y-121183400D03*
X169200000Y-92400000D03*
X167944800Y-132638800D03*
X166935694Y-95813431D03*
X157784800Y-132638800D03*
X148117390Y-121208800D03*
X162813157Y-98298442D03*
X137982790Y-121183400D03*
X160587074Y-96908075D03*
X162814000Y-99237800D03*
X147650200Y-132613400D03*
X137490200Y-132613400D03*
X161219414Y-97463389D03*
X158127612Y-96535352D03*
X127822790Y-121183400D03*
X171200000Y-89103810D03*
X106188600Y-94619800D03*
X153388771Y-86380011D03*
X149441078Y-95566815D03*
X86741000Y-132613400D03*
X156337000Y-96469202D03*
X117637390Y-121183400D03*
X114325400Y-85140800D03*
X105477400Y-95178600D03*
X115500000Y-86200000D03*
X170069827Y-89142646D03*
X152509444Y-86620022D03*
X158872900Y-96999686D03*
X127330200Y-132613400D03*
X153986500Y-97421145D03*
X107670600Y-121183400D03*
X157231719Y-96491594D03*
X117246400Y-132613400D03*
X154633075Y-97980235D03*
X107061000Y-132613400D03*
X147767496Y-99308747D03*
X97342790Y-121183400D03*
X147269200Y-100279200D03*
X96970600Y-132620000D03*
X150448714Y-94541728D03*
X87208190Y-121183400D03*
X92534740Y-93489780D03*
X91785440Y-93489780D03*
X91038680Y-93477080D03*
X90355420Y-93469460D03*
X111150400Y-91897200D03*
X111836200Y-91897200D03*
X112522000Y-91897200D03*
X113182400Y-91897200D03*
X127406400Y-95148400D03*
X126695200Y-95173800D03*
X126009400Y-95199200D03*
X125323600Y-95199200D03*
X154423200Y-79811600D03*
X143775000Y-90950000D03*
X139000000Y-102150000D03*
X139700000Y-102150000D03*
X140400000Y-102150000D03*
X141100000Y-102150000D03*
X170600000Y-104400000D03*
X170600000Y-103700000D03*
X170600000Y-103000000D03*
X170600000Y-102300000D03*
X154000000Y-83500000D03*
X154700000Y-83500000D03*
X154000000Y-82900000D03*
X154700000Y-82900000D03*
X151700000Y-89900000D03*
X151100000Y-89400000D03*
X155100000Y-90300000D03*
X153800000Y-89700000D03*
X153900000Y-90400000D03*
X162200000Y-95400000D03*
X162200000Y-94700000D03*
X162200000Y-94000000D03*
X162200000Y-93300000D03*
X111000000Y-95300000D03*
X111700000Y-95300000D03*
X112400000Y-95300000D03*
X113100000Y-95300000D03*
X139100000Y-82900000D03*
X138300000Y-82900000D03*
X137600000Y-82900000D03*
X136900000Y-82900000D03*
X145576800Y-89560400D03*
X168325800Y-80788000D03*
X166598600Y-80788000D03*
X174228000Y-88138000D03*
X174228000Y-86487000D03*
X174228000Y-84836000D03*
X145796000Y-83896200D03*
X145796000Y-83185000D03*
X146481800Y-83185000D03*
X146481800Y-83870800D03*
X159131000Y-90855800D03*
X159816800Y-90855800D03*
X159816800Y-91516200D03*
X159131000Y-91516200D03*
X147015200Y-84785200D03*
X149326600Y-84785200D03*
X140589000Y-80187800D03*
X175285400Y-94030800D03*
X175285400Y-95631000D03*
X148158200Y-83820000D03*
X151917400Y-89230200D03*
X150985136Y-96799400D03*
X152069800Y-96139000D03*
X150622000Y-98983800D03*
X151371298Y-88709500D03*
X154432000Y-89916000D03*
X170434000Y-92964000D03*
X170434000Y-92964000D03*
X170434000Y-92202000D03*
X174193200Y-81330800D03*
X162756282Y-87419202D03*
X165099445Y-100354232D03*
X126230380Y-80238600D03*
X130345180Y-80264000D03*
X154940000Y-96012000D03*
X165354000Y-80772000D03*
X119583200Y-86207600D03*
X118821200Y-86207600D03*
X168182800Y-90297000D03*
X168447500Y-86949500D03*
X169372500Y-86949500D03*
X169372500Y-86024500D03*
X168447500Y-86024500D03*
X155792855Y-97685428D03*
X117779802Y-109829600D03*
X158072898Y-98000482D03*
X127965200Y-110464600D03*
X159991161Y-97494167D03*
X138205340Y-110444413D03*
X148361400Y-110209594D03*
X162562618Y-96702684D03*
X166064939Y-97128328D03*
X158318200Y-109753400D03*
X154203404Y-88544400D03*
X132800000Y-86500000D03*
X120938600Y-93143600D03*
X104013002Y-89662000D03*
X149592122Y-81274640D03*
X166165333Y-84986721D03*
X164182085Y-86179348D03*
X150626712Y-80766641D03*
X162033741Y-83348170D03*
X150688464Y-83559988D03*
X154922404Y-88065393D03*
X128879829Y-85440626D03*
X155436999Y-87452848D03*
X128197627Y-84966116D03*
X159637273Y-96763565D03*
X137363200Y-128270000D03*
X137312400Y-116865400D03*
X138301388Y-109650188D03*
X161558472Y-96738780D03*
X147497800Y-128270000D03*
X147472400Y-116865400D03*
X147590012Y-109849583D03*
X165292712Y-97337339D03*
X157734000Y-116865400D03*
X157734000Y-128270000D03*
X157683200Y-108889800D03*
X167208200Y-93878400D03*
X167718087Y-108866180D03*
X167843200Y-128270000D03*
X167817800Y-116839998D03*
X166574534Y-86484208D03*
X167081200Y-91871800D03*
X149485130Y-96891179D03*
X171616684Y-107496172D03*
X169951400Y-128270000D03*
X169926000Y-116840002D03*
X170865800Y-107772200D03*
X161517768Y-91108972D03*
X127508000Y-96443600D03*
X162409906Y-91100733D03*
X127508000Y-97543600D03*
X127500000Y-91300000D03*
X161263612Y-86026724D03*
X127546799Y-92098642D03*
X160609185Y-86533644D03*
X159961477Y-87031870D03*
X159317021Y-87528400D03*
X127508000Y-93472000D03*
X170002200Y-80797400D03*
X171754800Y-80797400D03*
X171227988Y-87067010D03*
X171227998Y-85415481D03*
X170088602Y-89916092D03*
X171069000Y-87842190D03*
X166100000Y-89100000D03*
X115239806Y-93952464D03*
X150088598Y-90424000D03*
X154450900Y-93848069D03*
X104935221Y-104999845D03*
X149377400Y-98170994D03*
X152313052Y-98196187D03*
X107829978Y-108991400D03*
X106426000Y-99185719D03*
X153658233Y-93956227D03*
X153473063Y-98108965D03*
X108229400Y-112268000D03*
X152854807Y-97508104D03*
X108072869Y-109753648D03*
X156000000Y-82832550D03*
X154377342Y-86211699D03*
X160769300Y-80519491D03*
X149885400Y-88036400D03*
X132100000Y-87375000D03*
D24*
X95700000Y-92200000D02*
X99464400Y-92200000D01*
X99464400Y-92200000D02*
X99711600Y-91952800D01*
D25*
X100448200Y-91952800D02*
X99711600Y-91952800D01*
X101972200Y-91927400D02*
X101210200Y-91927400D01*
D26*
X130561477Y-101315123D02*
X134854074Y-97022526D01*
X134854074Y-97022526D02*
X146470931Y-97022525D01*
X116486842Y-101315123D02*
X130561477Y-101315123D01*
X151020530Y-93961726D02*
X151444286Y-94385482D01*
X149532860Y-93961726D02*
X151020530Y-93961726D01*
X148572732Y-94920724D02*
X148573861Y-94920724D01*
X146470931Y-97022525D02*
X148572732Y-94920724D01*
X114937449Y-99765730D02*
X116486842Y-101315123D01*
X96217848Y-99765730D02*
X114937449Y-99765730D01*
X86512398Y-109471180D02*
X96217848Y-99765730D01*
X148573861Y-94920724D02*
X149532860Y-93961726D01*
X86512398Y-116865400D02*
X86512398Y-109471180D01*
X151444286Y-94385482D02*
X151444286Y-94809746D01*
D25*
X86487000Y-116890798D02*
X86512398Y-116865400D01*
D26*
X86487000Y-128244600D02*
X86487000Y-116890798D01*
X150266398Y-95326200D02*
X150266398Y-95750464D01*
X150266398Y-95750464D02*
X149825868Y-96190994D01*
X149825868Y-96190994D02*
X149008578Y-96190994D01*
X149008578Y-96190994D02*
X147097013Y-98102559D01*
X135683271Y-98102559D02*
X131390674Y-102395156D01*
X147097013Y-98102559D02*
X135683271Y-98102559D01*
X92500000Y-113066464D02*
X96298936Y-116865400D01*
X93139612Y-106859988D02*
X92500000Y-107499600D01*
X108598113Y-100845759D02*
X105443872Y-104000000D01*
X131390674Y-102395156D02*
X116039482Y-102395156D01*
X104605675Y-104000000D02*
X101745687Y-106859988D01*
X105443872Y-104000000D02*
X104605675Y-104000000D01*
X101745687Y-106859988D02*
X93139612Y-106859988D01*
X114490084Y-100845760D02*
X108598113Y-100845759D01*
X116039482Y-102395156D02*
X114490084Y-100845760D01*
X92500000Y-107499600D02*
X92500000Y-113066464D01*
X96298936Y-116865400D02*
X96723200Y-116865400D01*
X96774000Y-128270000D02*
X96774000Y-121539612D01*
X96774000Y-121539612D02*
X96423201Y-121188813D01*
X96423201Y-121188813D02*
X96423201Y-117165399D01*
D25*
X96423201Y-117165399D02*
X96723200Y-116865400D01*
D26*
X108786013Y-106859987D02*
X106857800Y-108788200D01*
X106857800Y-108788200D02*
X106857800Y-116865400D01*
X115697001Y-105994199D02*
X114831213Y-106859987D01*
X114831213Y-106859987D02*
X108786013Y-106859987D01*
X134518401Y-105994199D02*
X115697001Y-105994199D01*
X151733042Y-100234958D02*
X151733042Y-97710405D01*
X134518401Y-105994199D02*
X137363200Y-103149400D01*
X148818600Y-103149400D02*
X151733042Y-100234958D01*
X151733042Y-97710405D02*
X152033041Y-97410406D01*
X137363200Y-103149400D02*
X148818600Y-103149400D01*
D25*
X106857800Y-128269996D02*
X106883204Y-128295400D01*
D26*
X106857800Y-116865400D02*
X106857800Y-128269996D01*
D25*
X106870500Y-116852700D02*
X106857800Y-116865400D01*
D26*
X149740360Y-105309460D02*
X155213077Y-99836743D01*
X138257931Y-105309461D02*
X149740360Y-105309460D01*
X155213077Y-99836743D02*
X155213077Y-97701833D01*
X155213077Y-97701833D02*
X154966950Y-97455706D01*
X154966950Y-97455706D02*
X154966950Y-97253224D01*
D25*
X116992400Y-128219198D02*
X117043202Y-128270000D01*
D26*
X116992400Y-116865400D02*
X116992400Y-128219198D01*
X135413128Y-108154264D02*
X138257931Y-105309461D01*
X117588236Y-108154264D02*
X135413128Y-108154264D01*
X117030500Y-108712000D02*
X117588236Y-108154264D01*
D25*
X117030500Y-116827300D02*
X116992400Y-116865400D01*
D26*
X117030500Y-108712000D02*
X117030500Y-116827300D01*
X150336847Y-106749501D02*
X157318633Y-99767715D01*
X157318633Y-97613729D02*
X157412889Y-97519473D01*
X157412889Y-97519473D02*
X157712888Y-97219474D01*
X157318633Y-99767715D02*
X157318633Y-97613729D01*
X135954522Y-109649398D02*
X138854418Y-106749502D01*
X138854418Y-106749502D02*
X150336847Y-106749501D01*
D25*
X127177800Y-128244598D02*
X127203200Y-128269998D01*
D26*
X127177800Y-116890800D02*
X127177800Y-128244598D01*
X127270012Y-109829598D02*
X127694276Y-109829598D01*
X127694276Y-109829598D02*
X127874476Y-109649398D01*
X127874476Y-109649398D02*
X135954522Y-109649398D01*
X127177800Y-116890800D02*
X127177800Y-109921810D01*
D25*
X127177800Y-109921810D02*
X127270012Y-109829598D01*
D26*
X168271078Y-93817530D02*
X167971079Y-93517531D01*
X168360047Y-93906499D02*
X168271078Y-93817530D01*
X168360047Y-109830664D02*
X168360047Y-93906499D01*
X162204400Y-88239600D02*
X162128200Y-88163400D01*
X162128200Y-88163400D02*
X162128200Y-87223600D01*
X162128200Y-87223600D02*
X162723012Y-86628788D01*
X162723012Y-86628788D02*
X162723012Y-85478895D01*
X162723012Y-85478895D02*
X162723012Y-85054631D01*
D25*
X158178500Y-80492600D02*
X157491800Y-80492600D01*
X157491800Y-80492600D02*
X156963200Y-79964000D01*
D26*
X162966511Y-83506690D02*
X162966511Y-83082426D01*
X162966511Y-83082426D02*
X162652245Y-82768160D01*
X162652245Y-82768160D02*
X158781924Y-82768160D01*
X158781924Y-82768160D02*
X158357660Y-82768160D01*
X162935827Y-83537374D02*
X162966511Y-83506690D01*
X162935827Y-83571173D02*
X162935827Y-83537374D01*
X168985049Y-110130666D02*
X168985049Y-93403818D01*
X168985049Y-93403818D02*
X168880657Y-93299426D01*
X168880657Y-93299426D02*
X168580658Y-92999427D01*
X168681400Y-121183400D02*
X168681400Y-110434315D01*
X168681400Y-110434315D02*
X168985049Y-110130666D01*
X158978600Y-120624600D02*
X158978600Y-108867220D01*
X158978600Y-108867220D02*
X166779005Y-101066815D01*
X166779005Y-101066815D02*
X166779005Y-96711548D01*
X158419800Y-121183400D02*
X158978600Y-120624600D01*
X166779005Y-96711548D02*
X166612877Y-96545420D01*
X169499999Y-110252127D02*
X169499999Y-92699999D01*
X169316400Y-110435726D02*
X169499999Y-110252127D01*
X169499999Y-92699999D02*
X169200000Y-92400000D01*
X167944800Y-132638800D02*
X169316400Y-131267200D01*
X169316400Y-131267200D02*
X169316400Y-110435726D01*
X167235693Y-101246537D02*
X167235693Y-96113430D01*
X167235693Y-96113430D02*
X166935694Y-95813431D01*
X157784800Y-132638800D02*
X159435800Y-130987800D01*
X159435800Y-130987800D02*
X159435800Y-109046430D01*
X159435800Y-109046430D02*
X167235693Y-101246537D01*
X148117390Y-114060278D02*
X148117390Y-120784536D01*
X148117390Y-120784536D02*
X148117390Y-121208800D01*
X162813157Y-98298442D02*
X162233998Y-98877601D01*
X162233998Y-98877601D02*
X162233998Y-99943670D01*
X162233998Y-99943670D02*
X148117390Y-114060278D01*
X137982790Y-120759136D02*
X137982790Y-121183400D01*
X140568157Y-108909562D02*
X137982790Y-111494929D01*
X151231578Y-108909562D02*
X140568157Y-108909562D01*
X160493434Y-99647706D02*
X151231578Y-108909562D01*
X160587074Y-97792867D02*
X160493434Y-97886507D01*
X160587074Y-96908075D02*
X160587074Y-97792867D01*
X160493434Y-97886507D02*
X160493434Y-99647706D01*
X137982790Y-111494929D02*
X137982790Y-120759136D01*
X162814000Y-99872800D02*
X162814000Y-99662064D01*
X152374600Y-110312200D02*
X162814000Y-99872800D01*
X147650200Y-132613400D02*
X152374600Y-127889000D01*
X152374600Y-127889000D02*
X152374600Y-110312200D01*
X162814000Y-99662064D02*
X162814000Y-99237800D01*
X161219414Y-97887653D02*
X161219414Y-97463389D01*
X161219414Y-97910094D02*
X161219414Y-97887653D01*
X160943447Y-99706825D02*
X160943447Y-98186061D01*
X140717278Y-109269573D02*
X151380699Y-109269573D01*
X138607800Y-131495800D02*
X138607800Y-111379051D01*
X138607800Y-111379051D02*
X140717278Y-109269573D01*
X160943447Y-98186061D02*
X161219414Y-97910094D01*
X151380699Y-109269573D02*
X160943447Y-99706825D01*
X137490200Y-132613400D02*
X138607800Y-131495800D01*
X158292890Y-97363467D02*
X158292890Y-96700630D01*
X158652900Y-99451712D02*
X158652900Y-97723477D01*
X128767969Y-110549420D02*
X136072764Y-110549420D01*
X150635091Y-107469521D02*
X158652900Y-99451712D01*
X158292890Y-96700630D02*
X158127612Y-96535352D01*
X136072764Y-110549420D02*
X139152662Y-107469522D01*
X127822790Y-111494599D02*
X128767969Y-110549420D01*
X139152662Y-107469522D02*
X150635091Y-107469521D01*
X127822790Y-121183400D02*
X127822790Y-111494599D01*
X158652900Y-97723477D02*
X158292890Y-97363467D01*
X153088772Y-86080012D02*
X153388771Y-86380011D01*
X114600000Y-86200000D02*
X116746599Y-84053400D01*
X133659600Y-84053400D02*
X135552349Y-85946149D01*
X116746599Y-84053400D02*
X133659600Y-84053400D01*
X135552349Y-85946149D02*
X152954909Y-85946149D01*
X152954909Y-85946149D02*
X153088772Y-86080012D01*
X157360743Y-84086700D02*
X169663938Y-84086700D01*
X153388771Y-86380011D02*
X153800460Y-86791700D01*
X153800460Y-86791700D02*
X154655743Y-86791700D01*
X154655743Y-86791700D02*
X157360743Y-84086700D01*
X170500001Y-84922763D02*
X170500001Y-88403811D01*
X170900001Y-88803811D02*
X171200000Y-89103810D01*
X170500001Y-88403811D02*
X170900001Y-88803811D01*
X169663938Y-84086700D02*
X170500001Y-84922763D01*
X114600000Y-86208400D02*
X106488599Y-94319801D01*
X106488599Y-94319801D02*
X106188600Y-94619800D01*
X114600000Y-86200000D02*
X114600000Y-86208400D01*
X114600000Y-86200000D02*
X111900000Y-83500000D01*
X111900000Y-83500000D02*
X110097400Y-83500000D01*
X110097400Y-83500000D02*
X108811800Y-82214400D01*
X108811800Y-82214400D02*
X108811800Y-82062000D01*
X86741000Y-132613400D02*
X87833200Y-131521200D01*
X146841081Y-97742548D02*
X149016814Y-95566815D01*
X149016814Y-95566815D02*
X149441078Y-95566815D01*
X87833200Y-131521200D02*
X87833200Y-109423200D01*
X114639206Y-100485750D02*
X116188602Y-102035145D01*
X87833200Y-109423200D02*
X96770651Y-100485749D01*
X96770651Y-100485749D02*
X114639206Y-100485750D01*
X116188602Y-102035145D02*
X131114275Y-102035145D01*
X131114275Y-102035145D02*
X135406872Y-97742548D01*
X135406872Y-97742548D02*
X146841081Y-97742548D01*
X117637390Y-121183400D02*
X117637390Y-110961199D01*
X150038600Y-106029484D02*
X156372857Y-99695227D01*
X119724305Y-108874284D02*
X135711372Y-108874284D01*
X156337000Y-96893466D02*
X156337000Y-96469202D01*
X117637390Y-110961199D02*
X119724305Y-108874284D01*
X156372857Y-99695227D02*
X156372857Y-96929323D01*
X156372857Y-96929323D02*
X156337000Y-96893466D01*
X135711372Y-108874284D02*
X138556172Y-106029484D01*
X138556172Y-106029484D02*
X150038600Y-106029484D01*
X114325400Y-85140800D02*
X111351800Y-82167200D01*
X111351800Y-82167200D02*
X111351800Y-82062000D01*
X116879151Y-84373411D02*
X115252562Y-86000000D01*
X152155581Y-86266159D02*
X135417423Y-86266159D01*
X152509444Y-86620022D02*
X152155581Y-86266159D01*
X135417423Y-86266159D02*
X133524675Y-84373411D01*
X133524675Y-84373411D02*
X116879151Y-84373411D01*
X105901664Y-95178600D02*
X105477400Y-95178600D01*
X106606804Y-95178600D02*
X105901664Y-95178600D01*
X115252562Y-86532842D02*
X106606804Y-95178600D01*
X115252562Y-86000000D02*
X115252562Y-86532842D01*
X115300000Y-86000000D02*
X115500000Y-86200000D01*
X115252562Y-86000000D02*
X115300000Y-86000000D01*
X170069827Y-88718382D02*
X170069827Y-89142646D01*
X154788295Y-87111711D02*
X157493295Y-84406711D01*
X153001133Y-87111711D02*
X154788295Y-87111711D01*
X169531386Y-84406711D02*
X170069827Y-84945152D01*
X152509444Y-86620022D02*
X153001133Y-87111711D01*
X157493295Y-84406711D02*
X169531386Y-84406711D01*
X170069827Y-84945152D02*
X170069827Y-88718382D01*
X127330200Y-132613400D02*
X128447800Y-131495800D01*
X159012911Y-97563961D02*
X158872900Y-97423950D01*
X139301785Y-107829531D02*
X150784213Y-107829531D01*
X128954369Y-110999431D02*
X136131885Y-110999431D01*
X128447800Y-111506000D02*
X128954369Y-110999431D01*
X128447800Y-131495800D02*
X128447800Y-111506000D01*
X158872900Y-97423950D02*
X158872900Y-96999686D01*
X150784213Y-107829531D02*
X159012911Y-99600833D01*
X136131885Y-110999431D02*
X139301785Y-107829531D01*
X159012911Y-99600833D02*
X159012911Y-97563961D01*
X154053064Y-97487709D02*
X153986500Y-97421145D01*
X107670600Y-121183400D02*
X112539989Y-116314011D01*
X154053064Y-99951464D02*
X154053064Y-97487709D01*
X149415088Y-104589440D02*
X154053064Y-99951464D01*
X135114885Y-107434243D02*
X137959688Y-104589440D01*
X137959688Y-104589440D02*
X149415088Y-104589440D01*
X116780020Y-107434244D02*
X135114885Y-107434243D01*
X112539989Y-111674275D02*
X116780020Y-107434244D01*
X112539989Y-116314011D02*
X112539989Y-111674275D01*
X156931720Y-96791593D02*
X157231719Y-96491594D01*
X138705293Y-106389495D02*
X150187722Y-106389494D01*
X156866202Y-99711014D02*
X156866202Y-96857111D01*
X156866202Y-96857111D02*
X156931720Y-96791593D01*
X135860494Y-109234294D02*
X138705293Y-106389495D01*
X120000705Y-109234295D02*
X135860494Y-109234294D01*
X118262400Y-131597400D02*
X118262400Y-110972600D01*
X150187722Y-106389494D02*
X156866202Y-99711014D01*
X118262400Y-110972600D02*
X120000705Y-109234295D01*
X117246400Y-132613400D02*
X118262400Y-131597400D01*
X112900000Y-111950675D02*
X117056420Y-107794255D01*
X107061000Y-132613400D02*
X112900000Y-126774400D01*
X138108809Y-104949451D02*
X149591238Y-104949450D01*
X135264007Y-107794253D02*
X138108809Y-104949451D01*
X117056420Y-107794255D02*
X135264007Y-107794253D01*
X112900000Y-126774400D02*
X112900000Y-111950675D01*
X149591238Y-104949450D02*
X154633075Y-99907613D01*
X154633075Y-98404499D02*
X154633075Y-97980235D01*
X154633075Y-99907613D02*
X154633075Y-98404499D01*
X97342790Y-121183400D02*
X97342790Y-112715210D01*
X100585132Y-111531400D02*
X102153219Y-109963313D01*
X102153219Y-108818049D02*
X109045479Y-101925789D01*
X97342790Y-112715210D02*
X98526600Y-111531400D01*
X98526600Y-111531400D02*
X100585132Y-111531400D01*
X102153219Y-109963313D02*
X102153219Y-108818049D01*
X136512475Y-99182589D02*
X147217074Y-99182589D01*
X109045479Y-101925789D02*
X114042722Y-101925790D01*
X114042722Y-101925790D02*
X115592121Y-103475189D01*
X115592121Y-103475189D02*
X132219875Y-103475189D01*
X132219875Y-103475189D02*
X136512475Y-99182589D01*
X147217074Y-99182589D02*
X147343232Y-99308747D01*
X147343232Y-99308747D02*
X147767496Y-99308747D01*
X115443000Y-103835200D02*
X132496276Y-103835200D01*
X132496276Y-103835200D02*
X136052276Y-100279200D01*
X102513230Y-127077370D02*
X102513230Y-108967170D01*
X136052276Y-100279200D02*
X146844936Y-100279200D01*
X146844936Y-100279200D02*
X147269200Y-100279200D01*
X113893600Y-102285800D02*
X115443000Y-103835200D01*
X96970600Y-132620000D02*
X102513230Y-127077370D01*
X109194600Y-102285800D02*
X113893600Y-102285800D01*
X102513230Y-108967170D02*
X109194600Y-102285800D01*
X87208190Y-109411799D02*
X96494249Y-100125740D01*
X148722982Y-95280735D02*
X149461990Y-94541728D01*
X130837876Y-101675134D02*
X135130473Y-97382537D01*
X87208190Y-121183400D02*
X87208190Y-109411799D01*
X96494249Y-100125740D02*
X114788327Y-100125740D01*
X114788327Y-100125740D02*
X116337721Y-101675134D01*
X116337721Y-101675134D02*
X130837876Y-101675134D01*
X135130473Y-97382537D02*
X146620051Y-97382537D01*
X146620051Y-97382537D02*
X148721853Y-95280735D01*
X148721853Y-95280735D02*
X148722982Y-95280735D01*
X149461990Y-94541728D02*
X150024450Y-94541728D01*
X150024450Y-94541728D02*
X150448714Y-94541728D01*
D27*
X90355420Y-93469460D02*
X91031060Y-93469460D01*
X91031060Y-93469460D02*
X91038680Y-93477080D01*
D25*
X111836200Y-91897200D02*
X111150400Y-91897200D01*
X113182400Y-91897200D02*
X112522000Y-91897200D01*
X155100000Y-90300000D02*
X155399999Y-90599999D01*
X160595400Y-87838000D02*
X160595400Y-90077200D01*
X156988600Y-90047800D02*
X156988600Y-87888800D01*
X162068600Y-86364800D02*
X160595400Y-87838000D01*
X160595400Y-90077200D02*
X160116799Y-90555801D01*
X156436401Y-90599999D02*
X156988600Y-90047800D01*
X155399999Y-90599999D02*
X156436401Y-90599999D01*
X159655600Y-85221800D02*
X161408200Y-85221800D01*
X162068600Y-85882200D02*
X162068600Y-86364800D01*
X156988600Y-87888800D02*
X159655600Y-85221800D01*
X161408200Y-85221800D02*
X162068600Y-85882200D01*
X160116799Y-90555801D02*
X159816800Y-90855800D01*
X126009400Y-95199200D02*
X126669800Y-95199200D01*
X126669800Y-95199200D02*
X126695200Y-95173800D01*
X120938600Y-95343600D02*
X125179200Y-95343600D01*
X125179200Y-95343600D02*
X125323600Y-95199200D01*
D24*
X154436800Y-79811600D02*
X154423200Y-79811600D01*
X154444700Y-79819500D02*
X154436800Y-79811600D01*
D25*
X150800001Y-89100001D02*
X146787199Y-89100001D01*
X146326800Y-89560400D02*
X145576800Y-89560400D01*
X151100000Y-89400000D02*
X150800001Y-89100001D01*
X146787199Y-89100001D02*
X146326800Y-89560400D01*
D28*
X145576800Y-89560400D02*
X145576800Y-89685400D01*
X145576800Y-89685400D02*
X144312200Y-90950000D01*
X144312200Y-90950000D02*
X143775000Y-90950000D01*
D24*
X116431800Y-82062000D02*
X117795400Y-82062000D01*
X117795400Y-82062000D02*
X118444860Y-81412540D01*
X118444860Y-81412540D02*
X123770900Y-81412540D01*
X123788680Y-80244140D02*
X124788680Y-80244140D01*
D25*
X140400000Y-102150000D02*
X139700000Y-102150000D01*
X141829400Y-102108800D02*
X141141200Y-102108800D01*
X141141200Y-102108800D02*
X141100000Y-102150000D01*
X170600000Y-103700000D02*
X170600000Y-104400000D01*
X170600000Y-102300000D02*
X170600000Y-103000000D01*
X154700000Y-83500000D02*
X154000000Y-83500000D01*
X154700000Y-83000000D02*
X154000000Y-83000000D01*
X151371298Y-88709500D02*
X151371298Y-89128702D01*
X151371298Y-89128702D02*
X151100000Y-89400000D01*
X154432000Y-89916000D02*
X154016000Y-89916000D01*
X154016000Y-89916000D02*
X153800000Y-89700000D01*
X162200000Y-94700000D02*
X162200000Y-95400000D01*
X162200000Y-93300000D02*
X162200000Y-94000000D01*
X112400000Y-95300000D02*
X111700000Y-95300000D01*
X120938600Y-95343600D02*
X113143600Y-95343600D01*
X113143600Y-95343600D02*
X113100000Y-95300000D01*
D24*
X138300000Y-82900000D02*
X139100000Y-82900000D01*
X136900000Y-82900000D02*
X137600000Y-82900000D01*
D28*
X145796000Y-83185000D02*
X145796000Y-83896200D01*
X146481800Y-83870800D02*
X146481800Y-83185000D01*
D24*
X159766000Y-90855800D02*
X159131000Y-90855800D01*
X159131000Y-91516200D02*
X159740600Y-91516200D01*
X159740600Y-91516200D02*
X159766000Y-91490800D01*
D25*
X152577798Y-89916000D02*
X151671297Y-89009499D01*
X151671297Y-89009499D02*
X151371298Y-88709500D01*
X154432000Y-89916000D02*
X152577798Y-89916000D01*
D24*
X170434000Y-92964000D02*
X172618400Y-92964000D01*
X172618400Y-92964000D02*
X175285400Y-95631000D01*
D28*
X163749618Y-82376382D02*
X163428146Y-82376382D01*
X165354000Y-80772000D02*
X163749618Y-82376382D01*
D25*
X167322222Y-85611722D02*
X166216578Y-85611722D01*
X163180546Y-87419202D02*
X162756282Y-87419202D01*
X166216578Y-85611722D02*
X164409098Y-87419202D01*
X168447500Y-86024500D02*
X167735000Y-86024500D01*
X167735000Y-86024500D02*
X167322222Y-85611722D01*
X164409098Y-87419202D02*
X163180546Y-87419202D01*
D24*
X170434000Y-92964000D02*
X171196000Y-92964000D01*
X170434000Y-92202000D02*
X171196000Y-92202000D01*
X131788680Y-80244140D02*
X130365040Y-80244140D01*
X130365040Y-80244140D02*
X130345180Y-80264000D01*
D26*
X117779802Y-109829600D02*
X119095127Y-108514275D01*
X149889482Y-105669470D02*
X155792855Y-99766097D01*
X155792855Y-98109692D02*
X155792855Y-97685428D01*
X135562250Y-108514274D02*
X138407054Y-105669470D01*
X138407054Y-105669470D02*
X149889482Y-105669470D01*
X155792855Y-99766097D02*
X155792855Y-98109692D01*
X119095127Y-108514275D02*
X135562250Y-108514274D01*
X158072898Y-99522582D02*
X158072898Y-98424746D01*
X127965200Y-110464600D02*
X128265199Y-110164601D01*
X135948451Y-110164601D02*
X139003541Y-107109511D01*
X150485969Y-107109511D02*
X158072898Y-99522582D01*
X158072898Y-98424746D02*
X158072898Y-98000482D01*
X128265199Y-110164601D02*
X135948451Y-110164601D01*
X139003541Y-107109511D02*
X150485969Y-107109511D01*
X159991161Y-97918431D02*
X159991161Y-97494167D01*
X151082455Y-108549553D02*
X159991161Y-99640847D01*
X138340167Y-110444413D02*
X140235027Y-108549553D01*
X138205340Y-110444413D02*
X138340167Y-110444413D01*
X159991161Y-99640847D02*
X159991161Y-97918431D01*
X140235027Y-108549553D02*
X151082455Y-108549553D01*
X148785664Y-110209594D02*
X148361400Y-110209594D01*
X161843469Y-99825067D02*
X151458942Y-110209594D01*
X151458942Y-110209594D02*
X148785664Y-110209594D01*
X162188155Y-97998440D02*
X162188155Y-98214175D01*
X162562618Y-97623977D02*
X162188155Y-97998440D01*
X162562618Y-96702684D02*
X162562618Y-97623977D01*
X162188155Y-98214175D02*
X161843469Y-98558861D01*
X161843469Y-98558861D02*
X161843469Y-99825067D01*
X158318200Y-108891210D02*
X166364938Y-100844472D01*
X166364938Y-97428327D02*
X166064939Y-97128328D01*
X166364938Y-100844472D02*
X166364938Y-97428327D01*
X158318200Y-109753400D02*
X158318200Y-108891210D01*
X152323800Y-88544400D02*
X153779140Y-88544400D01*
X134970058Y-87346190D02*
X151125590Y-87346190D01*
X151125590Y-87346190D02*
X152323800Y-88544400D01*
X133646189Y-87346189D02*
X134970058Y-87346190D01*
X132800000Y-86500000D02*
X133646189Y-87346189D01*
X153779140Y-88544400D02*
X154203404Y-88544400D01*
D25*
X104013002Y-89237736D02*
X104013002Y-89662000D01*
X104013002Y-84970536D02*
X104013002Y-89237736D01*
X108262548Y-80720990D02*
X104013002Y-84970536D01*
X112703190Y-80720990D02*
X108262548Y-80720990D01*
X113891800Y-81909600D02*
X112703190Y-80720990D01*
X113891800Y-82062000D02*
X113891800Y-81909600D01*
D24*
X149592122Y-80850376D02*
X149592122Y-81274640D01*
X149592122Y-80046922D02*
X149592122Y-80850376D01*
X149364700Y-79819500D02*
X149592122Y-80046922D01*
D25*
X164182085Y-86179348D02*
X164182085Y-85779315D01*
X164182085Y-85779315D02*
X164674680Y-85286720D01*
X164674680Y-85286720D02*
X165865334Y-85286720D01*
X165865334Y-85286720D02*
X166165333Y-84986721D01*
D24*
X149364700Y-79819500D02*
X149364700Y-80544411D01*
D25*
X150626712Y-80085488D02*
X150626712Y-80342377D01*
X150892700Y-79819500D02*
X150626712Y-80085488D01*
X150626712Y-80342377D02*
X150626712Y-80766641D01*
X151904700Y-79819500D02*
X150892700Y-79819500D01*
D26*
X157655870Y-83348170D02*
X161609477Y-83348170D01*
X161609477Y-83348170D02*
X162033741Y-83348170D01*
X156560240Y-82252540D02*
X157655870Y-83348170D01*
X150688464Y-83559988D02*
X151995912Y-82252540D01*
X151995912Y-82252540D02*
X156560240Y-82252540D01*
X135119179Y-86986179D02*
X151376311Y-86986179D01*
X152303731Y-87913599D02*
X154770610Y-87913599D01*
X128879829Y-85440626D02*
X133573626Y-85440626D01*
X133573626Y-85440626D02*
X135119179Y-86986179D01*
X154770610Y-87913599D02*
X154922404Y-88065393D01*
X151376311Y-86986179D02*
X152303731Y-87913599D01*
X155012735Y-87452848D02*
X155436999Y-87452848D01*
X152431540Y-87475513D02*
X154990070Y-87475513D01*
X135268301Y-86626169D02*
X151582196Y-86626169D01*
X133502757Y-84860625D02*
X135268301Y-86626169D01*
X128303118Y-84860625D02*
X133502757Y-84860625D01*
X151582196Y-86626169D02*
X152431540Y-87475513D01*
X154990070Y-87475513D02*
X155012735Y-87452848D01*
X128197627Y-84966116D02*
X128303118Y-84860625D01*
X137312400Y-110391688D02*
X138053900Y-109650188D01*
X138053900Y-109650188D02*
X138301388Y-109650188D01*
X159452902Y-97278088D02*
X159452902Y-96947936D01*
X159372920Y-99749956D02*
X159372920Y-97358070D01*
X159372920Y-97358070D02*
X159452902Y-97278088D01*
X159452902Y-96947936D02*
X159637273Y-96763565D01*
X137312400Y-116865400D02*
X137312400Y-128219200D01*
D25*
X137312400Y-128219200D02*
X137363200Y-128270000D01*
D26*
X137312400Y-116865400D02*
X137312400Y-110391688D01*
X139762034Y-108189542D02*
X150933335Y-108189541D01*
X150933335Y-108189541D02*
X159372920Y-99749956D01*
X138301388Y-109650188D02*
X139762034Y-108189542D01*
X161558472Y-96738780D02*
X161858471Y-97038779D01*
X161858471Y-97691713D02*
X161738144Y-97812040D01*
X161858471Y-97038779D02*
X161858471Y-97691713D01*
X147472400Y-116865400D02*
X147472400Y-128244600D01*
D25*
X147472400Y-128244600D02*
X147497800Y-128270000D01*
D26*
X161393458Y-98372461D02*
X161393458Y-99765946D01*
X161738144Y-97812040D02*
X161738144Y-98027775D01*
D25*
X147472400Y-109967195D02*
X147590012Y-109849583D01*
D26*
X147472400Y-116865400D02*
X147472400Y-109967195D01*
X147810011Y-109629584D02*
X147590012Y-109849583D01*
X161393458Y-99765946D02*
X151529820Y-109629584D01*
X161738144Y-98027775D02*
X161393458Y-98372461D01*
X151529820Y-109629584D02*
X147810011Y-109629584D01*
X165724446Y-97769073D02*
X165592711Y-97637338D01*
X157683200Y-108889800D02*
X165724446Y-100848554D01*
X165592711Y-97637338D02*
X165292712Y-97337339D01*
X165724446Y-100848554D02*
X165724446Y-97769073D01*
X157683200Y-108889800D02*
X157683200Y-116814600D01*
X157683200Y-116814600D02*
X157734000Y-116865400D01*
X157734000Y-116865400D02*
X157734000Y-128270000D01*
X167508199Y-94178399D02*
X167208200Y-93878400D01*
X167718087Y-94388287D02*
X167508199Y-94178399D01*
X167718087Y-108866180D02*
X167718087Y-94388287D01*
X167718087Y-116316021D02*
X167718087Y-109290444D01*
X167718087Y-109290444D02*
X167718087Y-108866180D01*
X167817800Y-116415734D02*
X167718087Y-116316021D01*
X167817800Y-116839998D02*
X167817800Y-116415734D01*
X167843200Y-116865398D02*
X167817800Y-116839998D01*
X167843200Y-128270000D02*
X167843200Y-116865398D01*
X166847799Y-87181737D02*
X166574534Y-86908472D01*
X166574534Y-86908472D02*
X166574534Y-86484208D01*
X166847799Y-90982800D02*
X166847799Y-87181737D01*
X166847799Y-90982800D02*
X166847799Y-91241601D01*
X167081200Y-91871800D02*
X167081200Y-91447536D01*
X167081200Y-91447536D02*
X166847799Y-91214135D01*
X166847799Y-91214135D02*
X166847799Y-90982800D01*
X95674599Y-111516801D02*
X94824600Y-112366800D01*
X101793208Y-107321599D02*
X101793208Y-109814192D01*
X101793208Y-109814192D02*
X100436011Y-111171389D01*
X100436011Y-111171389D02*
X96020011Y-111171389D01*
X104726696Y-104388111D02*
X101793208Y-107321599D01*
X105564894Y-104388111D02*
X104726696Y-104388111D01*
X108747235Y-101205770D02*
X105564894Y-104388111D01*
X115890360Y-102755166D02*
X114340963Y-101205770D01*
X149485130Y-96891179D02*
X148817530Y-96891179D01*
X131667072Y-102755167D02*
X115890360Y-102755166D01*
X148817530Y-96891179D02*
X147246139Y-98462570D01*
X96020011Y-111171389D02*
X95674599Y-111516801D01*
X135959669Y-98462570D02*
X131667072Y-102755167D01*
X147246139Y-98462570D02*
X135959669Y-98462570D01*
X114340963Y-101205770D02*
X108747235Y-101205770D01*
X171616684Y-107496172D02*
X171616684Y-126604716D01*
X171616684Y-126604716D02*
X170251399Y-127970001D01*
X170251399Y-127970001D02*
X169951400Y-128270000D01*
X170865800Y-107772200D02*
X169926000Y-108712000D01*
X169926000Y-116415738D02*
X169926000Y-116840002D01*
X169926000Y-108712000D02*
X169926000Y-116415738D01*
X161217769Y-91408971D02*
X161517768Y-91108972D01*
X147977373Y-93480684D02*
X148984414Y-92473644D01*
X130470916Y-93480684D02*
X147977373Y-93480684D01*
X127508000Y-96443600D02*
X130470916Y-93480684D01*
X148984414Y-92473644D02*
X160153096Y-92473644D01*
X160153096Y-92473644D02*
X161217769Y-91408971D01*
D25*
X127508000Y-96443600D02*
X127000000Y-96443600D01*
X127000000Y-96443600D02*
X120938600Y-96443600D01*
D26*
X148126494Y-93840695D02*
X131210905Y-93840695D01*
X131210905Y-93840695D02*
X127807999Y-97243601D01*
X162409906Y-91100733D02*
X160673944Y-92836695D01*
X149130495Y-92836695D02*
X148126494Y-93840695D01*
X160673944Y-92836695D02*
X149130495Y-92836695D01*
X127807999Y-97243601D02*
X127508000Y-97543600D01*
D25*
X127508000Y-97543600D02*
X120938600Y-97543600D01*
D26*
X128920310Y-92040642D02*
X128179668Y-91300000D01*
X148387932Y-91033600D02*
X147380890Y-92040642D01*
X156575572Y-91033600D02*
X148387932Y-91033600D01*
X157393611Y-90215561D02*
X156575572Y-91033600D01*
X157393611Y-88056561D02*
X157393611Y-90215561D01*
X160963613Y-85726725D02*
X159723447Y-85726725D01*
X161263612Y-86026724D02*
X160963613Y-85726725D01*
X127924264Y-91300000D02*
X127500000Y-91300000D01*
X147380890Y-92040642D02*
X128920310Y-92040642D01*
X128179668Y-91300000D02*
X127924264Y-91300000D01*
X159723447Y-85726725D02*
X157393611Y-88056561D01*
D25*
X120913200Y-89869000D02*
X126069000Y-89869000D01*
X127200001Y-91000001D02*
X127500000Y-91300000D01*
X126069000Y-89869000D02*
X127200001Y-91000001D01*
D26*
X160309186Y-86233645D02*
X159725659Y-86233645D01*
X157753621Y-90364683D02*
X156724693Y-91393611D01*
X159725659Y-86233645D02*
X157753622Y-88205682D01*
X157753622Y-88205682D02*
X157753621Y-90364683D01*
X160609185Y-86533644D02*
X160309186Y-86233645D01*
X148537053Y-91393611D02*
X147530011Y-92400653D01*
X127846798Y-92398641D02*
X127546799Y-92098642D01*
X147530011Y-92400653D02*
X127848809Y-92400652D01*
X156724693Y-91393611D02*
X148537053Y-91393611D01*
X127848809Y-92400652D02*
X127846798Y-92398641D01*
D25*
X125992893Y-90969000D02*
X127122535Y-92098642D01*
X127122535Y-92098642D02*
X127546799Y-92098642D01*
X120913200Y-90969000D02*
X125992893Y-90969000D01*
D26*
X147828252Y-93120673D02*
X130119927Y-93120673D01*
X148835294Y-92113633D02*
X147828252Y-93120673D01*
X157022935Y-92113633D02*
X148835294Y-92113633D01*
X130119927Y-93120673D02*
X128997000Y-94243600D01*
X159961477Y-87031870D02*
X159961477Y-89175091D01*
X159961477Y-89175091D02*
X157022935Y-92113633D01*
X121848600Y-94243600D02*
X120938600Y-94243600D01*
X128997000Y-94243600D02*
X121848600Y-94243600D01*
X127807999Y-93172001D02*
X127508000Y-93472000D01*
X148686174Y-91753622D02*
X147679131Y-92760663D01*
X147679131Y-92760663D02*
X128219337Y-92760663D01*
X156873814Y-91753622D02*
X148686174Y-91753622D01*
X159317021Y-89310415D02*
X156873814Y-91753622D01*
X128219337Y-92760663D02*
X127807999Y-93172001D01*
X159317021Y-87528400D02*
X159317021Y-89310415D01*
D25*
X127508000Y-93472000D02*
X126079600Y-92043600D01*
X126079600Y-92043600D02*
X120938600Y-92043600D01*
D26*
X104742789Y-78698411D02*
X92153600Y-91287600D01*
X167903211Y-78698411D02*
X104742789Y-78698411D01*
X170002200Y-80797400D02*
X167903211Y-78698411D01*
X92153600Y-91287600D02*
X90993600Y-91287600D01*
X169295800Y-78338400D02*
X96502800Y-78338400D01*
X171754800Y-80797400D02*
X169295800Y-78338400D01*
X96502800Y-78338400D02*
X92153600Y-82687600D01*
X92153600Y-82687600D02*
X90993600Y-82687600D01*
X171227988Y-87067010D02*
X174345600Y-90184622D01*
X174345600Y-90184622D02*
X174345600Y-91600000D01*
X173185600Y-85109398D02*
X171527987Y-86767011D01*
X173185600Y-83910000D02*
X173185600Y-85109398D01*
X171527987Y-86767011D02*
X171227988Y-87067010D01*
X174095600Y-83000000D02*
X173185600Y-83910000D01*
X174345600Y-83000000D02*
X174095600Y-83000000D01*
X171227998Y-85415481D02*
X171227998Y-84991217D01*
X171227998Y-84991217D02*
X169236781Y-83000000D01*
X169236781Y-83000000D02*
X169029800Y-83000000D01*
X169029800Y-83000000D02*
X165495600Y-83000000D01*
X171069000Y-87842190D02*
X171740002Y-88513192D01*
X171740002Y-88513192D02*
X171740002Y-89659998D01*
X170512866Y-89916092D02*
X170088602Y-89916092D01*
X171483908Y-89916092D02*
X170512866Y-89916092D01*
X171740002Y-89659998D02*
X171483908Y-89916092D01*
X166100000Y-89100000D02*
X165495600Y-89704400D01*
X165495600Y-89704400D02*
X165495600Y-91600000D01*
X165745600Y-91600000D02*
X165495600Y-91600000D01*
X115539805Y-93652465D02*
X115239806Y-93952464D01*
X120038270Y-89154000D02*
X115539805Y-93652465D01*
X126542800Y-89154000D02*
X120038270Y-89154000D01*
X129069431Y-91680631D02*
X126542800Y-89154000D01*
X147231769Y-91680631D02*
X129069431Y-91680631D01*
X148488400Y-90424000D02*
X147231769Y-91680631D01*
X150088598Y-90424000D02*
X148488400Y-90424000D01*
X88824600Y-102166800D02*
X93991400Y-97000000D01*
X93991400Y-97000000D02*
X118500000Y-97000000D01*
X149234618Y-93241704D02*
X153844535Y-93241704D01*
X153844535Y-93241704D02*
X154150901Y-93548070D01*
X118500000Y-97000000D02*
X120373599Y-98873599D01*
X120373599Y-98873599D02*
X131779801Y-98873599D01*
X131779801Y-98873599D02*
X136452695Y-94200705D01*
X136452695Y-94200705D02*
X148275616Y-94200705D01*
X148275616Y-94200705D02*
X149234618Y-93241704D01*
X154150901Y-93548070D02*
X154450900Y-93848069D01*
X105359485Y-104999845D02*
X104935221Y-104999845D01*
X108896357Y-101565779D02*
X105462291Y-104999845D01*
X105462291Y-104999845D02*
X105359485Y-104999845D01*
X149377400Y-98170994D02*
X148075045Y-98170994D01*
X114191842Y-101565780D02*
X108896357Y-101565779D01*
X148075045Y-98170994D02*
X147423460Y-98822579D01*
X131943473Y-103115178D02*
X115741242Y-103115178D01*
X136236072Y-98822579D02*
X131943473Y-103115178D01*
X115741242Y-103115178D02*
X114191842Y-101565780D01*
X147423460Y-98822579D02*
X136236072Y-98822579D01*
X108129977Y-108691401D02*
X107829978Y-108991400D01*
X109601380Y-107219998D02*
X108129977Y-108691401D01*
X114980334Y-107219998D02*
X109601380Y-107219998D01*
X115846122Y-106354210D02*
X114980334Y-107219998D01*
X134667522Y-106354210D02*
X115846122Y-106354210D01*
X137512321Y-103509411D02*
X134667522Y-106354210D01*
X152313052Y-100164080D02*
X148967722Y-103509410D01*
X152313052Y-98196187D02*
X152313052Y-100164080D01*
X148967722Y-103509410D02*
X137512321Y-103509411D01*
X106850264Y-99185719D02*
X106426000Y-99185719D01*
X146321809Y-96662515D02*
X134543525Y-96662515D01*
X116635963Y-100955112D02*
X114866570Y-99185719D01*
X130250928Y-100955112D02*
X116635963Y-100955112D01*
X114866570Y-99185719D02*
X106850264Y-99185719D01*
X134543525Y-96662515D02*
X130250928Y-100955112D01*
X148424738Y-94560715D02*
X148423609Y-94560715D01*
X153658233Y-93956227D02*
X153303721Y-93601715D01*
X149383739Y-93601715D02*
X148424738Y-94560715D01*
X153303721Y-93601715D02*
X149383739Y-93601715D01*
X148423609Y-94560715D02*
X146321809Y-96662515D01*
X108229400Y-112268000D02*
X109297400Y-111200000D01*
X109297400Y-111200000D02*
X112377853Y-111200000D01*
X112377853Y-111200000D02*
X116503620Y-107074233D01*
X116503620Y-107074233D02*
X134965763Y-107074233D01*
X134965763Y-107074233D02*
X137810565Y-104229431D01*
X137810565Y-104229431D02*
X149265966Y-104229430D01*
X149265966Y-104229430D02*
X153473063Y-100022333D01*
X153473063Y-98533229D02*
X153473063Y-98108965D01*
X153473063Y-100022333D02*
X153473063Y-98533229D01*
X108072869Y-109753648D02*
X109119221Y-110800000D01*
X109119221Y-110800000D02*
X112200000Y-110800000D01*
X112200000Y-110800000D02*
X116285780Y-106714220D01*
X116285780Y-106714220D02*
X134816644Y-106714220D01*
X134816644Y-106714220D02*
X137661444Y-103869420D01*
X137661444Y-103869420D02*
X149116844Y-103869420D01*
X149116844Y-103869420D02*
X152893053Y-100093211D01*
X152893053Y-100093211D02*
X152893053Y-97970614D01*
X152893053Y-97970614D02*
X152854807Y-97932368D01*
X152854807Y-97932368D02*
X152854807Y-97508104D01*
X156000000Y-83256814D02*
X156000000Y-82832550D01*
X156000000Y-84589041D02*
X156000000Y-83256814D01*
X154377342Y-86211699D02*
X156000000Y-84589041D01*
X160769300Y-80142100D02*
X160769300Y-80519491D01*
X160446700Y-79819500D02*
X160769300Y-80142100D01*
X159524700Y-79819500D02*
X160446700Y-79819500D01*
X132100000Y-87375000D02*
X132431200Y-87706200D01*
X132431200Y-87706200D02*
X149130936Y-87706200D01*
X149130936Y-87706200D02*
X149461136Y-88036400D01*
X149461136Y-88036400D02*
X149885400Y-88036400D01*
D29*
G36*
X92394840Y-81587932D02*
X92378758Y-81562940D01*
X92202649Y-81442610D01*
X91993600Y-81400276D01*
X89993600Y-81400276D01*
X89798306Y-81437023D01*
X89618940Y-81552442D01*
X89498610Y-81728551D01*
X89456276Y-81937600D01*
X89456276Y-83437600D01*
X89493023Y-83632894D01*
X89608442Y-83812260D01*
X89784551Y-83932590D01*
X89993600Y-83974924D01*
X91993600Y-83974924D01*
X92188894Y-83938177D01*
X92368260Y-83822758D01*
X92488590Y-83646649D01*
X92530924Y-83437600D01*
X92530924Y-83151486D01*
X92582814Y-83116814D01*
X96754228Y-78945400D01*
X103637372Y-78945400D01*
X92394840Y-90187932D01*
X92378758Y-90162940D01*
X92202649Y-90042610D01*
X91993600Y-90000276D01*
X89993600Y-90000276D01*
X89798306Y-90037023D01*
X89618940Y-90152442D01*
X89498610Y-90328551D01*
X89456276Y-90537600D01*
X89456276Y-92037600D01*
X89493023Y-92232894D01*
X89608442Y-92412260D01*
X89784551Y-92532590D01*
X89993600Y-92574924D01*
X91993600Y-92574924D01*
X92188894Y-92538177D01*
X92368260Y-92422758D01*
X92488590Y-92246649D01*
X92498036Y-92200000D01*
X94923000Y-92200000D01*
X94982146Y-92497345D01*
X95150578Y-92749422D01*
X95402655Y-92917854D01*
X95700000Y-92977000D01*
X99464400Y-92977000D01*
X99761745Y-92917854D01*
X100013822Y-92749422D01*
X100059293Y-92703951D01*
X100080027Y-92695384D01*
X100282978Y-92779656D01*
X100611979Y-92779943D01*
X100860019Y-92677455D01*
X101044978Y-92754256D01*
X101373979Y-92754543D01*
X101591359Y-92664724D01*
X101806978Y-92754256D01*
X102135979Y-92754543D01*
X102440046Y-92628905D01*
X102672888Y-92396470D01*
X102799056Y-92092622D01*
X102799343Y-91763621D01*
X102673705Y-91459554D01*
X102441270Y-91226712D01*
X102137422Y-91100544D01*
X101808421Y-91100257D01*
X101591041Y-91190076D01*
X101375422Y-91100544D01*
X101046421Y-91100257D01*
X100798381Y-91202745D01*
X100613422Y-91125944D01*
X100284421Y-91125657D01*
X100079773Y-91210216D01*
X99876822Y-91125944D01*
X99547821Y-91125657D01*
X99243754Y-91251295D01*
X99071748Y-91423000D01*
X95700000Y-91423000D01*
X95402655Y-91482146D01*
X95150578Y-91650578D01*
X94982146Y-91902655D01*
X94923000Y-92200000D01*
X92498036Y-92200000D01*
X92530924Y-92037600D01*
X92530924Y-91751486D01*
X92582814Y-91716814D01*
X94473849Y-89825779D01*
X103185859Y-89825779D01*
X103311497Y-90129846D01*
X103543932Y-90362688D01*
X103847780Y-90488856D01*
X104176781Y-90489143D01*
X104480848Y-90363505D01*
X104713690Y-90131070D01*
X104839858Y-89827222D01*
X104840145Y-89498221D01*
X104714507Y-89194154D01*
X104665002Y-89144562D01*
X104665002Y-85240604D01*
X107460981Y-82444624D01*
X107527053Y-82776789D01*
X107828497Y-83227932D01*
X108279640Y-83529376D01*
X108811800Y-83635229D01*
X109280893Y-83541921D01*
X109530862Y-83791890D01*
X109067820Y-83791890D01*
X108546281Y-83946154D01*
X108123476Y-84288260D01*
X107863773Y-84766125D01*
X107849417Y-84838326D01*
X107972038Y-85053000D01*
X109822200Y-85053000D01*
X109822200Y-85033000D01*
X110076200Y-85033000D01*
X110076200Y-85053000D01*
X111926362Y-85053000D01*
X112048983Y-84838326D01*
X112034627Y-84766125D01*
X111774924Y-84288260D01*
X111550907Y-84107000D01*
X111648572Y-84107000D01*
X113745772Y-86204200D01*
X111972292Y-87977680D01*
X112023548Y-87720000D01*
X111926105Y-87230123D01*
X111648612Y-86814826D01*
X111233315Y-86537333D01*
X111054729Y-86501810D01*
X111352119Y-86413846D01*
X111774924Y-86071740D01*
X112034627Y-85593875D01*
X112048983Y-85521674D01*
X111926362Y-85307000D01*
X110076200Y-85307000D01*
X110076200Y-85327000D01*
X109822200Y-85327000D01*
X109822200Y-85307000D01*
X107972038Y-85307000D01*
X107849417Y-85521674D01*
X107863773Y-85593875D01*
X108123476Y-86071740D01*
X108546281Y-86413846D01*
X108843671Y-86501810D01*
X108665085Y-86537333D01*
X108249788Y-86814826D01*
X107972295Y-87230123D01*
X107874852Y-87720000D01*
X107972295Y-88209877D01*
X108249788Y-88625174D01*
X108665085Y-88902667D01*
X109154962Y-89000110D01*
X110743438Y-89000110D01*
X111001118Y-88948854D01*
X106157200Y-93792772D01*
X106024821Y-93792657D01*
X105720754Y-93918295D01*
X105487912Y-94150730D01*
X105404530Y-94351536D01*
X105313621Y-94351457D01*
X105009554Y-94477095D01*
X104776712Y-94709530D01*
X104650544Y-95013378D01*
X104650257Y-95342379D01*
X104775895Y-95646446D01*
X105008330Y-95879288D01*
X105312178Y-96005456D01*
X105641179Y-96005743D01*
X105945246Y-95880105D01*
X106039916Y-95785600D01*
X106606804Y-95785600D01*
X106839093Y-95739395D01*
X107036018Y-95607814D01*
X115616730Y-87027102D01*
X115663779Y-87027143D01*
X115967846Y-86901505D01*
X116200688Y-86669070D01*
X116287770Y-86459350D01*
X116703600Y-86459350D01*
X116703600Y-87024909D01*
X116800273Y-87258298D01*
X116978901Y-87436927D01*
X117212290Y-87533600D01*
X118052850Y-87533600D01*
X118211600Y-87374850D01*
X118211600Y-86300600D01*
X118465600Y-86300600D01*
X118465600Y-87374850D01*
X118624350Y-87533600D01*
X119464910Y-87533600D01*
X119698299Y-87436927D01*
X119876927Y-87258298D01*
X119973600Y-87024909D01*
X119973600Y-86459350D01*
X125003600Y-86459350D01*
X125003600Y-87024909D01*
X125100273Y-87258298D01*
X125278901Y-87436927D01*
X125512290Y-87533600D01*
X126352850Y-87533600D01*
X126511600Y-87374850D01*
X126511600Y-86300600D01*
X126765600Y-86300600D01*
X126765600Y-87374850D01*
X126924350Y-87533600D01*
X127764910Y-87533600D01*
X127998299Y-87436927D01*
X128176927Y-87258298D01*
X128273600Y-87024909D01*
X128273600Y-86459350D01*
X128114850Y-86300600D01*
X126765600Y-86300600D01*
X126511600Y-86300600D01*
X125162350Y-86300600D01*
X125003600Y-86459350D01*
X119973600Y-86459350D01*
X119814850Y-86300600D01*
X118465600Y-86300600D01*
X118211600Y-86300600D01*
X116862350Y-86300600D01*
X116703600Y-86459350D01*
X116287770Y-86459350D01*
X116326856Y-86365222D01*
X116327143Y-86036221D01*
X116253353Y-85857637D01*
X116703600Y-85407390D01*
X116703600Y-85887850D01*
X116862350Y-86046600D01*
X118211600Y-86046600D01*
X118211600Y-86026600D01*
X118465600Y-86026600D01*
X118465600Y-86046600D01*
X119814850Y-86046600D01*
X119973600Y-85887850D01*
X119973600Y-85322291D01*
X119876927Y-85088902D01*
X119768437Y-84980411D01*
X125208763Y-84980411D01*
X125100273Y-85088902D01*
X125003600Y-85322291D01*
X125003600Y-85887850D01*
X125162350Y-86046600D01*
X126511600Y-86046600D01*
X126511600Y-86026600D01*
X126765600Y-86026600D01*
X126765600Y-86046600D01*
X128114850Y-86046600D01*
X128215618Y-85945832D01*
X128410759Y-86141314D01*
X128714607Y-86267482D01*
X129043608Y-86267769D01*
X129347675Y-86142131D01*
X129442345Y-86047626D01*
X132092379Y-86047626D01*
X131973144Y-86334778D01*
X131972958Y-86547889D01*
X131936221Y-86547857D01*
X131632154Y-86673495D01*
X131399312Y-86905930D01*
X131273144Y-87209778D01*
X131272857Y-87538779D01*
X131398495Y-87842846D01*
X131630930Y-88075688D01*
X131934778Y-88201856D01*
X132101641Y-88202002D01*
X132198911Y-88266995D01*
X132229824Y-88273144D01*
X132431200Y-88313201D01*
X132431205Y-88313200D01*
X148879508Y-88313200D01*
X149031922Y-88465614D01*
X149228847Y-88597195D01*
X149288533Y-88609067D01*
X149416330Y-88737088D01*
X149720178Y-88863256D01*
X150049179Y-88863543D01*
X150353246Y-88737905D01*
X150586088Y-88505470D01*
X150712256Y-88201622D01*
X150712473Y-87953190D01*
X150874162Y-87953190D01*
X151894586Y-88973614D01*
X152091511Y-89105195D01*
X152323800Y-89151400D01*
X153640810Y-89151400D01*
X153734334Y-89245088D01*
X154038182Y-89371256D01*
X154367183Y-89371543D01*
X154671250Y-89245905D01*
X154904092Y-89013470D01*
X154954356Y-88892421D01*
X155086183Y-88892536D01*
X155390250Y-88766898D01*
X155623092Y-88534463D01*
X155749260Y-88230615D01*
X155749270Y-88218635D01*
X155904845Y-88154353D01*
X156137687Y-87921918D01*
X156263855Y-87618070D01*
X156264142Y-87289069D01*
X156138504Y-86985002D01*
X155956128Y-86802306D01*
X157744723Y-85013711D01*
X161896048Y-85013711D01*
X161895869Y-85218410D01*
X162021507Y-85522477D01*
X162116012Y-85617147D01*
X162116012Y-86377360D01*
X161698986Y-86794386D01*
X161567405Y-86991311D01*
X161521200Y-87223600D01*
X161521200Y-87753073D01*
X161503712Y-87770530D01*
X161377544Y-88074378D01*
X161377257Y-88403379D01*
X161502895Y-88707446D01*
X161735330Y-88940288D01*
X162039178Y-89066456D01*
X162368179Y-89066743D01*
X162672246Y-88941105D01*
X162905088Y-88708670D01*
X163031256Y-88404822D01*
X163031543Y-88075821D01*
X162905905Y-87771754D01*
X162735200Y-87600750D01*
X162735200Y-87475028D01*
X163152226Y-87058002D01*
X163283807Y-86861077D01*
X163330012Y-86628788D01*
X163330012Y-85617225D01*
X163423700Y-85523701D01*
X163549868Y-85219853D01*
X163550048Y-85013711D01*
X164025622Y-85013711D01*
X163721051Y-85318281D01*
X163579716Y-85529805D01*
X163573933Y-85558878D01*
X163559283Y-85632529D01*
X163481397Y-85710278D01*
X163355229Y-86014126D01*
X163354942Y-86343127D01*
X163480580Y-86647194D01*
X163713015Y-86880036D01*
X164016863Y-87006204D01*
X164345864Y-87006491D01*
X164649931Y-86880853D01*
X164882773Y-86648418D01*
X165008941Y-86344570D01*
X165009228Y-86015569D01*
X164977475Y-85938720D01*
X165865329Y-85938720D01*
X165865334Y-85938721D01*
X165971565Y-85917590D01*
X165873846Y-86015138D01*
X165747678Y-86318986D01*
X165747391Y-86647987D01*
X165873029Y-86952054D01*
X166001877Y-87081128D01*
X166013739Y-87140761D01*
X166145320Y-87337686D01*
X166240799Y-87433165D01*
X166240799Y-88273123D01*
X165936221Y-88272857D01*
X165632154Y-88398495D01*
X165399312Y-88630930D01*
X165273144Y-88934778D01*
X165273027Y-89068545D01*
X165066386Y-89275186D01*
X164934805Y-89472111D01*
X164888600Y-89704400D01*
X164888600Y-90312676D01*
X164495600Y-90312676D01*
X164300306Y-90349423D01*
X164120940Y-90464842D01*
X164000610Y-90640951D01*
X163958276Y-90850000D01*
X163958276Y-92350000D01*
X163995023Y-92545294D01*
X164110442Y-92724660D01*
X164286551Y-92844990D01*
X164495600Y-92887324D01*
X166495600Y-92887324D01*
X166690894Y-92850577D01*
X166870260Y-92735158D01*
X166899793Y-92691935D01*
X166915978Y-92698656D01*
X167244979Y-92698943D01*
X167549046Y-92573305D01*
X167781888Y-92340870D01*
X167908056Y-92037022D01*
X167908343Y-91708021D01*
X167782705Y-91403954D01*
X167653857Y-91274880D01*
X167641995Y-91215247D01*
X167510414Y-91018322D01*
X167454799Y-90962707D01*
X167454799Y-87181737D01*
X167408594Y-86949448D01*
X167327320Y-86827812D01*
X167401390Y-86649430D01*
X167401677Y-86320429D01*
X167276039Y-86016362D01*
X167043604Y-85783520D01*
X166739756Y-85657352D01*
X166664173Y-85657286D01*
X166866021Y-85455791D01*
X166992189Y-85151943D01*
X166992310Y-85013711D01*
X169279958Y-85013711D01*
X169462827Y-85196580D01*
X169462827Y-88580052D01*
X169369139Y-88673576D01*
X169242971Y-88977424D01*
X169242684Y-89306425D01*
X169344238Y-89552205D01*
X169261746Y-89750870D01*
X169261459Y-90079871D01*
X169387097Y-90383938D01*
X169619532Y-90616780D01*
X169923380Y-90742948D01*
X170252381Y-90743235D01*
X170556448Y-90617597D01*
X170651118Y-90523092D01*
X171483908Y-90523092D01*
X171716197Y-90476887D01*
X171913122Y-90345306D01*
X172169216Y-90089212D01*
X172300797Y-89892287D01*
X172347003Y-89659998D01*
X172347002Y-89659993D01*
X172347002Y-89044452D01*
X173615226Y-90312676D01*
X173345600Y-90312676D01*
X173150306Y-90349423D01*
X172970940Y-90464842D01*
X172850610Y-90640951D01*
X172808276Y-90850000D01*
X172808276Y-92350000D01*
X172845023Y-92545294D01*
X172960442Y-92724660D01*
X173136551Y-92844990D01*
X173345600Y-92887324D01*
X175345600Y-92887324D01*
X175540894Y-92850577D01*
X175720260Y-92735158D01*
X175840590Y-92559049D01*
X175882924Y-92350000D01*
X175882924Y-90850000D01*
X175846177Y-90654706D01*
X175730758Y-90475340D01*
X175554649Y-90355010D01*
X175345600Y-90312676D01*
X174952600Y-90312676D01*
X174952600Y-90184622D01*
X174906395Y-89952333D01*
X174774814Y-89755408D01*
X172086416Y-87067010D01*
X173614814Y-85538612D01*
X173746395Y-85341687D01*
X173792600Y-85109398D01*
X173792600Y-84287324D01*
X175345600Y-84287324D01*
X175540894Y-84250577D01*
X175720260Y-84135158D01*
X175840590Y-83959049D01*
X175882924Y-83750000D01*
X175882924Y-82250000D01*
X175846177Y-82054706D01*
X175730758Y-81875340D01*
X175554649Y-81755010D01*
X175345600Y-81712676D01*
X173345600Y-81712676D01*
X173150306Y-81749423D01*
X172970940Y-81864842D01*
X172850610Y-82040951D01*
X172808276Y-82250000D01*
X172808276Y-83428896D01*
X172756386Y-83480786D01*
X172624805Y-83677711D01*
X172578600Y-83910000D01*
X172578600Y-84857970D01*
X172055028Y-85381542D01*
X172055141Y-85251702D01*
X171929503Y-84947635D01*
X171800655Y-84818561D01*
X171788793Y-84758928D01*
X171657212Y-84562003D01*
X169665995Y-82570786D01*
X169469070Y-82439205D01*
X169236781Y-82393000D01*
X167032924Y-82393000D01*
X167032924Y-82250000D01*
X166996177Y-82054706D01*
X166880758Y-81875340D01*
X166704649Y-81755010D01*
X166495600Y-81712676D01*
X164495600Y-81712676D01*
X164300306Y-81749423D01*
X164120940Y-81864842D01*
X164000610Y-82040951D01*
X163958276Y-82250000D01*
X163958276Y-83479700D01*
X163793535Y-83479700D01*
X163793654Y-83342911D01*
X163668016Y-83038844D01*
X163539168Y-82909770D01*
X163527306Y-82850137D01*
X163395725Y-82653212D01*
X163081459Y-82338946D01*
X162884534Y-82207365D01*
X162652245Y-82161160D01*
X158920254Y-82161160D01*
X158826730Y-82067472D01*
X158522882Y-81941304D01*
X158193881Y-81941017D01*
X157889814Y-82066655D01*
X157656972Y-82299090D01*
X157600711Y-82434583D01*
X156989454Y-81823326D01*
X156792529Y-81691745D01*
X156560240Y-81645540D01*
X151995912Y-81645540D01*
X151763623Y-81691745D01*
X151566698Y-81823326D01*
X150657064Y-82732960D01*
X150524685Y-82732845D01*
X150220618Y-82858483D01*
X149987776Y-83090918D01*
X149861608Y-83394766D01*
X149861321Y-83723767D01*
X149986959Y-84027834D01*
X150219394Y-84260676D01*
X150523242Y-84386844D01*
X150852243Y-84387131D01*
X151156310Y-84261493D01*
X151389152Y-84029058D01*
X151515320Y-83725210D01*
X151515437Y-83591443D01*
X152247340Y-82859540D01*
X155172976Y-82859540D01*
X155172857Y-82996329D01*
X155298495Y-83300396D01*
X155393000Y-83395066D01*
X155393000Y-84337613D01*
X154345942Y-85384671D01*
X154213563Y-85384556D01*
X153909496Y-85510194D01*
X153774668Y-85644787D01*
X153553993Y-85553155D01*
X153420226Y-85553038D01*
X153384123Y-85516935D01*
X153187198Y-85385354D01*
X152954909Y-85339149D01*
X135803777Y-85339149D01*
X134088814Y-83624186D01*
X133891889Y-83492605D01*
X133659600Y-83446400D01*
X131907550Y-83446400D01*
X132007948Y-83242078D01*
X131881414Y-83071140D01*
X130915680Y-83071140D01*
X130915680Y-83091140D01*
X130661680Y-83091140D01*
X130661680Y-83071140D01*
X129695946Y-83071140D01*
X129569412Y-83242078D01*
X129669810Y-83446400D01*
X126907550Y-83446400D01*
X127007948Y-83242078D01*
X126881414Y-83071140D01*
X125915680Y-83071140D01*
X125915680Y-83091140D01*
X125661680Y-83091140D01*
X125661680Y-83071140D01*
X124695946Y-83071140D01*
X124569412Y-83242078D01*
X124669810Y-83446400D01*
X117825026Y-83446400D01*
X117833727Y-83437699D01*
X117930400Y-83204310D01*
X117930400Y-82646202D01*
X124569412Y-82646202D01*
X124695946Y-82817140D01*
X125661680Y-82817140D01*
X125661680Y-81991577D01*
X125915680Y-81991577D01*
X125915680Y-82817140D01*
X126881414Y-82817140D01*
X127007948Y-82646202D01*
X129569412Y-82646202D01*
X129695946Y-82817140D01*
X130661680Y-82817140D01*
X130661680Y-81991577D01*
X130915680Y-81991577D01*
X130915680Y-82817140D01*
X131881414Y-82817140D01*
X132007948Y-82646202D01*
X131824232Y-82272319D01*
X131499729Y-81984572D01*
X131089811Y-81842911D01*
X130915680Y-81991577D01*
X130661680Y-81991577D01*
X130487549Y-81842911D01*
X130077631Y-81984572D01*
X129753128Y-82272319D01*
X129569412Y-82646202D01*
X127007948Y-82646202D01*
X126824232Y-82272319D01*
X126499729Y-81984572D01*
X126089811Y-81842911D01*
X125915680Y-81991577D01*
X125661680Y-81991577D01*
X125487549Y-81842911D01*
X125077631Y-81984572D01*
X124753128Y-82272319D01*
X124569412Y-82646202D01*
X117930400Y-82646202D01*
X117930400Y-82347750D01*
X117771650Y-82189000D01*
X116558800Y-82189000D01*
X116558800Y-82209000D01*
X116304800Y-82209000D01*
X116304800Y-82189000D01*
X116284800Y-82189000D01*
X116284800Y-81935000D01*
X116304800Y-81935000D01*
X116304800Y-80569750D01*
X116558800Y-80569750D01*
X116558800Y-81935000D01*
X117771650Y-81935000D01*
X117930400Y-81776250D01*
X117930400Y-80919690D01*
X117833727Y-80686301D01*
X117655098Y-80507673D01*
X117421709Y-80411000D01*
X116717550Y-80411000D01*
X116558800Y-80569750D01*
X116304800Y-80569750D01*
X116146050Y-80411000D01*
X115441891Y-80411000D01*
X115208502Y-80507673D01*
X115029873Y-80686301D01*
X114933200Y-80919690D01*
X114933200Y-80983016D01*
X114875103Y-80896068D01*
X114423960Y-80594624D01*
X113891800Y-80488771D01*
X113475788Y-80571521D01*
X113275408Y-80371140D01*
X123653680Y-80371140D01*
X123653680Y-80646140D01*
X123788678Y-81070818D01*
X124075917Y-81411508D01*
X124486806Y-81613259D01*
X124661680Y-81487094D01*
X124661680Y-80371140D01*
X124915680Y-80371140D01*
X124915680Y-81487094D01*
X125090554Y-81613259D01*
X125501443Y-81411508D01*
X125788682Y-81070818D01*
X125923680Y-80646140D01*
X125923680Y-80371140D01*
X130653680Y-80371140D01*
X130653680Y-80646140D01*
X130788678Y-81070818D01*
X131075917Y-81411508D01*
X131486806Y-81613259D01*
X131661680Y-81487094D01*
X131661680Y-80371140D01*
X131915680Y-80371140D01*
X131915680Y-81487094D01*
X132090554Y-81613259D01*
X132501443Y-81411508D01*
X132788682Y-81070818D01*
X132923680Y-80646140D01*
X132923680Y-80371140D01*
X131915680Y-80371140D01*
X131661680Y-80371140D01*
X130653680Y-80371140D01*
X125923680Y-80371140D01*
X124915680Y-80371140D01*
X124661680Y-80371140D01*
X123653680Y-80371140D01*
X113275408Y-80371140D01*
X113164224Y-80259956D01*
X112952700Y-80118621D01*
X112911303Y-80110386D01*
X112703190Y-80068989D01*
X112703185Y-80068990D01*
X108262553Y-80068990D01*
X108262548Y-80068989D01*
X108013039Y-80118620D01*
X107977899Y-80142100D01*
X107801514Y-80259956D01*
X107801512Y-80259959D01*
X103551968Y-84509502D01*
X103410633Y-84721026D01*
X103407034Y-84739121D01*
X103361001Y-84970536D01*
X103361002Y-84970541D01*
X103361002Y-89144327D01*
X103312314Y-89192930D01*
X103186146Y-89496778D01*
X103185859Y-89825779D01*
X94473849Y-89825779D01*
X104994217Y-79305411D01*
X123883149Y-79305411D01*
X123788678Y-79417462D01*
X123653680Y-79842140D01*
X123653680Y-80117140D01*
X124661680Y-80117140D01*
X124661680Y-80097140D01*
X124915680Y-80097140D01*
X124915680Y-80117140D01*
X125923680Y-80117140D01*
X125923680Y-79842140D01*
X125788682Y-79417462D01*
X125694211Y-79305411D01*
X130883149Y-79305411D01*
X130788678Y-79417462D01*
X130653680Y-79842140D01*
X130653680Y-80117140D01*
X131661680Y-80117140D01*
X131661680Y-80097140D01*
X131915680Y-80097140D01*
X131915680Y-80117140D01*
X132923680Y-80117140D01*
X132923680Y-79842140D01*
X132788682Y-79417462D01*
X132694211Y-79305411D01*
X148043876Y-79305411D01*
X148043876Y-80764000D01*
X148080623Y-80959294D01*
X148196042Y-81138660D01*
X148372151Y-81258990D01*
X148581200Y-81301324D01*
X148765099Y-81301324D01*
X148764979Y-81438419D01*
X148890617Y-81742486D01*
X149123052Y-81975328D01*
X149426900Y-82101496D01*
X149755901Y-82101783D01*
X150059968Y-81976145D01*
X150292810Y-81743710D01*
X150370817Y-81555847D01*
X150461490Y-81593497D01*
X150790491Y-81593784D01*
X151094558Y-81468146D01*
X151261672Y-81301324D01*
X152645200Y-81301324D01*
X152840494Y-81264577D01*
X153019860Y-81149158D01*
X153090559Y-81045686D01*
X153122873Y-81123698D01*
X153301501Y-81302327D01*
X153534890Y-81399000D01*
X154137450Y-81399000D01*
X154296200Y-81240250D01*
X154296200Y-80091000D01*
X154276200Y-80091000D01*
X154276200Y-79837000D01*
X154296200Y-79837000D01*
X154296200Y-79817000D01*
X154550200Y-79817000D01*
X154550200Y-79837000D01*
X154570200Y-79837000D01*
X154570200Y-80091000D01*
X154550200Y-80091000D01*
X154550200Y-81240250D01*
X154708950Y-81399000D01*
X155311510Y-81399000D01*
X155544899Y-81302327D01*
X155723527Y-81123698D01*
X155755987Y-81045332D01*
X155816042Y-81138660D01*
X155992151Y-81258990D01*
X156201200Y-81301324D01*
X157725200Y-81301324D01*
X157893394Y-81269676D01*
X158013278Y-81319456D01*
X158342279Y-81319743D01*
X158516008Y-81247960D01*
X158532151Y-81258990D01*
X158741200Y-81301324D01*
X160265200Y-81301324D01*
X160423787Y-81271484D01*
X160604078Y-81346347D01*
X160933079Y-81346634D01*
X161121169Y-81268917D01*
X161281200Y-81301324D01*
X162805200Y-81301324D01*
X163000494Y-81264577D01*
X163179860Y-81149158D01*
X163300190Y-80973049D01*
X163342524Y-80764000D01*
X163342524Y-79305411D01*
X167651783Y-79305411D01*
X169175172Y-80828800D01*
X169175057Y-80961179D01*
X169300695Y-81265246D01*
X169533130Y-81498088D01*
X169836978Y-81624256D01*
X170165979Y-81624543D01*
X170470046Y-81498905D01*
X170702888Y-81266470D01*
X170829056Y-80962622D01*
X170829259Y-80730287D01*
X170927772Y-80828800D01*
X170927657Y-80961179D01*
X171053295Y-81265246D01*
X171285730Y-81498088D01*
X171589578Y-81624256D01*
X171918579Y-81624543D01*
X172222646Y-81498905D01*
X172455488Y-81266470D01*
X172581656Y-80962622D01*
X172581943Y-80633621D01*
X172456305Y-80329554D01*
X172223870Y-80096712D01*
X171920022Y-79970544D01*
X171786255Y-79970427D01*
X170141548Y-78325720D01*
X173739464Y-78325720D01*
X175926825Y-80513082D01*
X175927995Y-141990648D01*
X173740644Y-144178000D01*
X82799357Y-144178000D01*
X80611995Y-141990639D01*
X80611977Y-141030152D01*
X169572536Y-141030152D01*
X169979226Y-142014418D01*
X170731621Y-142768127D01*
X171715176Y-143176535D01*
X172780152Y-143177464D01*
X173764418Y-142770774D01*
X174518127Y-142018379D01*
X174926535Y-141034824D01*
X174927464Y-139969848D01*
X174520774Y-138985582D01*
X173768379Y-138231873D01*
X172784824Y-137823465D01*
X171719848Y-137822536D01*
X170735582Y-138229226D01*
X169981873Y-138981621D01*
X169573465Y-139965176D01*
X169572536Y-141030152D01*
X80611977Y-141030152D01*
X80611737Y-128408379D01*
X85659857Y-128408379D01*
X85785495Y-128712446D01*
X86017930Y-128945288D01*
X86321778Y-129071456D01*
X86650779Y-129071743D01*
X86954846Y-128946105D01*
X87187688Y-128713670D01*
X87226200Y-128620922D01*
X87226200Y-131269772D01*
X86709600Y-131786372D01*
X86577221Y-131786257D01*
X86273154Y-131911895D01*
X86040312Y-132144330D01*
X85914144Y-132448178D01*
X85913857Y-132777179D01*
X86039495Y-133081246D01*
X86271930Y-133314088D01*
X86575778Y-133440256D01*
X86904779Y-133440543D01*
X87208846Y-133314905D01*
X87441688Y-133082470D01*
X87567856Y-132778622D01*
X87567973Y-132644855D01*
X88262414Y-131950414D01*
X88393995Y-131753489D01*
X88440200Y-131521200D01*
X88440200Y-109674628D01*
X93047425Y-105067403D01*
X93047362Y-105139501D01*
X93256556Y-105645789D01*
X93643574Y-106033483D01*
X94149496Y-106243560D01*
X94697301Y-106244038D01*
X95203589Y-106034844D01*
X95591283Y-105647826D01*
X95801360Y-105141904D01*
X95801376Y-105122701D01*
X98072762Y-105122701D01*
X98281956Y-105628989D01*
X98668974Y-106016683D01*
X99174896Y-106226760D01*
X99722701Y-106227238D01*
X100228989Y-106018044D01*
X100616683Y-105631026D01*
X100826760Y-105125104D01*
X100827238Y-104577299D01*
X100618044Y-104071011D01*
X100231026Y-103683317D01*
X99725104Y-103473240D01*
X99177299Y-103472762D01*
X98671011Y-103681956D01*
X98283317Y-104068974D01*
X98073240Y-104574896D01*
X98072762Y-105122701D01*
X95801376Y-105122701D01*
X95801838Y-104594099D01*
X95592644Y-104087811D01*
X95205626Y-103700117D01*
X94699704Y-103490040D01*
X94624853Y-103489975D01*
X97022079Y-101092749D01*
X104060024Y-101092749D01*
X103783317Y-101368974D01*
X103573240Y-101874896D01*
X103572762Y-102422701D01*
X103781956Y-102928989D01*
X104168974Y-103316683D01*
X104434679Y-103427013D01*
X104373386Y-103439205D01*
X104176461Y-103570786D01*
X101494259Y-106252988D01*
X93139612Y-106252988D01*
X92907323Y-106299193D01*
X92710398Y-106430774D01*
X92070786Y-107070386D01*
X91939205Y-107267311D01*
X91893000Y-107499600D01*
X91893000Y-113066464D01*
X91939205Y-113298753D01*
X92070786Y-113495678D01*
X95778821Y-117203713D01*
X95816201Y-117391627D01*
X95816201Y-121188813D01*
X95862406Y-121421102D01*
X95993987Y-121618027D01*
X96167000Y-121791040D01*
X96167000Y-127707406D01*
X96073312Y-127800930D01*
X95947144Y-128104778D01*
X95946857Y-128433779D01*
X96072495Y-128737846D01*
X96304930Y-128970688D01*
X96608778Y-129096856D01*
X96937779Y-129097143D01*
X97241846Y-128971505D01*
X97474688Y-128739070D01*
X97600856Y-128435222D01*
X97601143Y-128106221D01*
X97475505Y-127802154D01*
X97381000Y-127707484D01*
X97381000Y-122010433D01*
X97506569Y-122010543D01*
X97810636Y-121884905D01*
X98043478Y-121652470D01*
X98169646Y-121348622D01*
X98169933Y-121019621D01*
X98044295Y-120715554D01*
X97949790Y-120620884D01*
X97949790Y-114193958D01*
X98585647Y-114193958D01*
X98665920Y-114445259D01*
X99221279Y-114646718D01*
X99811458Y-114620315D01*
X100234080Y-114445259D01*
X100314353Y-114193958D01*
X99450000Y-113329605D01*
X98585647Y-114193958D01*
X97949790Y-114193958D01*
X97949790Y-112966638D01*
X97955075Y-112961353D01*
X97979685Y-113511458D01*
X98154741Y-113934080D01*
X98406042Y-114014353D01*
X99270395Y-113150000D01*
X99256253Y-113135858D01*
X99435858Y-112956253D01*
X99450000Y-112970395D01*
X99464143Y-112956253D01*
X99643748Y-113135858D01*
X99629605Y-113150000D01*
X100493958Y-114014353D01*
X100745259Y-113934080D01*
X100946718Y-113378721D01*
X100920315Y-112788542D01*
X100745259Y-112365920D01*
X100493960Y-112285648D01*
X100608670Y-112170938D01*
X100576132Y-112138400D01*
X100585132Y-112138400D01*
X100817421Y-112092195D01*
X101014346Y-111960614D01*
X101906230Y-111068730D01*
X101906230Y-126825943D01*
X96939200Y-131792972D01*
X96806821Y-131792857D01*
X96502754Y-131918495D01*
X96269912Y-132150930D01*
X96143744Y-132454778D01*
X96143457Y-132783779D01*
X96269095Y-133087846D01*
X96501530Y-133320688D01*
X96805378Y-133446856D01*
X97134379Y-133447143D01*
X97438446Y-133321505D01*
X97671288Y-133089070D01*
X97797456Y-132785222D01*
X97797573Y-132651455D01*
X102942441Y-127506586D01*
X102942444Y-127506584D01*
X103074025Y-127309659D01*
X103102698Y-127165511D01*
X103120231Y-127077370D01*
X103120230Y-127077365D01*
X103120230Y-117029179D01*
X106030657Y-117029179D01*
X106156295Y-117333246D01*
X106250800Y-117427916D01*
X106250800Y-127758165D01*
X106182516Y-127826330D01*
X106056348Y-128130178D01*
X106056061Y-128459179D01*
X106181699Y-128763246D01*
X106414134Y-128996088D01*
X106717982Y-129122256D01*
X107046983Y-129122543D01*
X107351050Y-128996905D01*
X107583892Y-128764470D01*
X107710060Y-128460622D01*
X107710347Y-128131621D01*
X107584709Y-127827554D01*
X107464800Y-127707435D01*
X107464800Y-121993407D01*
X107505378Y-122010256D01*
X107834379Y-122010543D01*
X108138446Y-121884905D01*
X108371288Y-121652470D01*
X108497456Y-121348622D01*
X108497573Y-121214855D01*
X112293000Y-117419428D01*
X112293000Y-126522972D01*
X107029600Y-131786372D01*
X106897221Y-131786257D01*
X106593154Y-131911895D01*
X106360312Y-132144330D01*
X106234144Y-132448178D01*
X106233857Y-132777179D01*
X106359495Y-133081246D01*
X106591930Y-133314088D01*
X106895778Y-133440256D01*
X107224779Y-133440543D01*
X107528846Y-133314905D01*
X107761688Y-133082470D01*
X107887856Y-132778622D01*
X107887973Y-132644855D01*
X113329214Y-127203614D01*
X113460795Y-127006689D01*
X113507000Y-126774400D01*
X113507000Y-112202103D01*
X116423500Y-109285602D01*
X116423500Y-116264772D01*
X116291712Y-116396330D01*
X116165544Y-116700178D01*
X116165257Y-117029179D01*
X116290895Y-117333246D01*
X116385400Y-117427916D01*
X116385400Y-127758119D01*
X116342514Y-127800930D01*
X116216346Y-128104778D01*
X116216059Y-128433779D01*
X116341697Y-128737846D01*
X116574132Y-128970688D01*
X116877980Y-129096856D01*
X117206981Y-129097143D01*
X117511048Y-128971505D01*
X117655400Y-128827405D01*
X117655400Y-131345972D01*
X117215000Y-131786372D01*
X117082621Y-131786257D01*
X116778554Y-131911895D01*
X116545712Y-132144330D01*
X116419544Y-132448178D01*
X116419257Y-132777179D01*
X116544895Y-133081246D01*
X116777330Y-133314088D01*
X117081178Y-133440256D01*
X117410179Y-133440543D01*
X117714246Y-133314905D01*
X117947088Y-133082470D01*
X118073256Y-132778622D01*
X118073373Y-132644855D01*
X118691614Y-132026614D01*
X118823195Y-131829689D01*
X118869400Y-131597400D01*
X118869400Y-111224028D01*
X120252132Y-109841295D01*
X126443002Y-109841295D01*
X126442869Y-109993377D01*
X126568507Y-110297444D01*
X126570800Y-110299741D01*
X126570800Y-116328206D01*
X126477112Y-116421730D01*
X126350944Y-116725578D01*
X126350657Y-117054579D01*
X126476295Y-117358646D01*
X126570800Y-117453316D01*
X126570800Y-127732759D01*
X126502512Y-127800928D01*
X126376344Y-128104776D01*
X126376057Y-128433777D01*
X126501695Y-128737844D01*
X126734130Y-128970686D01*
X127037978Y-129096854D01*
X127366979Y-129097141D01*
X127671046Y-128971503D01*
X127840800Y-128802046D01*
X127840800Y-131244372D01*
X127298800Y-131786372D01*
X127166421Y-131786257D01*
X126862354Y-131911895D01*
X126629512Y-132144330D01*
X126503344Y-132448178D01*
X126503057Y-132777179D01*
X126628695Y-133081246D01*
X126861130Y-133314088D01*
X127164978Y-133440256D01*
X127493979Y-133440543D01*
X127798046Y-133314905D01*
X128030888Y-133082470D01*
X128157056Y-132778622D01*
X128157173Y-132644855D01*
X128877014Y-131925014D01*
X129008595Y-131728089D01*
X129054800Y-131495800D01*
X129054800Y-111757428D01*
X129205797Y-111606431D01*
X136131885Y-111606431D01*
X136364174Y-111560226D01*
X136561099Y-111428645D01*
X136705400Y-111284344D01*
X136705400Y-116302806D01*
X136611712Y-116396330D01*
X136485544Y-116700178D01*
X136485257Y-117029179D01*
X136610895Y-117333246D01*
X136705400Y-117427916D01*
X136705400Y-127758117D01*
X136662512Y-127800930D01*
X136536344Y-128104778D01*
X136536057Y-128433779D01*
X136661695Y-128737846D01*
X136894130Y-128970688D01*
X137197978Y-129096856D01*
X137526979Y-129097143D01*
X137831046Y-128971505D01*
X138000800Y-128802048D01*
X138000800Y-131244372D01*
X137458800Y-131786372D01*
X137326421Y-131786257D01*
X137022354Y-131911895D01*
X136789512Y-132144330D01*
X136663344Y-132448178D01*
X136663057Y-132777179D01*
X136788695Y-133081246D01*
X137021130Y-133314088D01*
X137324978Y-133440256D01*
X137653979Y-133440543D01*
X137958046Y-133314905D01*
X138190888Y-133082470D01*
X138317056Y-132778622D01*
X138317173Y-132644855D01*
X139037014Y-131925014D01*
X139168595Y-131728089D01*
X139214800Y-131495800D01*
X139214800Y-111630479D01*
X140968706Y-109876573D01*
X146762988Y-109876573D01*
X146762869Y-110013362D01*
X146865400Y-110261506D01*
X146865400Y-116302806D01*
X146771712Y-116396330D01*
X146645544Y-116700178D01*
X146645257Y-117029179D01*
X146770895Y-117333246D01*
X146865400Y-117427916D01*
X146865400Y-127732761D01*
X146797112Y-127800930D01*
X146670944Y-128104778D01*
X146670657Y-128433779D01*
X146796295Y-128737846D01*
X147028730Y-128970688D01*
X147332578Y-129096856D01*
X147661579Y-129097143D01*
X147965646Y-128971505D01*
X148198488Y-128739070D01*
X148324656Y-128435222D01*
X148324943Y-128106221D01*
X148199305Y-127802154D01*
X148079400Y-127682039D01*
X148079400Y-122035767D01*
X148281169Y-122035943D01*
X148585236Y-121910305D01*
X148818078Y-121677870D01*
X148944246Y-121374022D01*
X148944533Y-121045021D01*
X148818895Y-120740954D01*
X148724390Y-120646284D01*
X148724390Y-114311706D01*
X151767600Y-111268496D01*
X151767600Y-127637572D01*
X147618800Y-131786372D01*
X147486421Y-131786257D01*
X147182354Y-131911895D01*
X146949512Y-132144330D01*
X146823344Y-132448178D01*
X146823057Y-132777179D01*
X146948695Y-133081246D01*
X147181130Y-133314088D01*
X147484978Y-133440256D01*
X147813979Y-133440543D01*
X148118046Y-133314905D01*
X148350888Y-133082470D01*
X148477056Y-132778622D01*
X148477173Y-132644855D01*
X152803814Y-128318214D01*
X152935395Y-128121289D01*
X152981601Y-127889000D01*
X152981600Y-127888995D01*
X152981600Y-110563628D01*
X154491649Y-109053579D01*
X156856057Y-109053579D01*
X156981695Y-109357646D01*
X157076200Y-109452316D01*
X157076200Y-116353517D01*
X157033312Y-116396330D01*
X156907144Y-116700178D01*
X156906857Y-117029179D01*
X157032495Y-117333246D01*
X157127000Y-117427916D01*
X157127000Y-127707406D01*
X157033312Y-127800930D01*
X156907144Y-128104778D01*
X156906857Y-128433779D01*
X157032495Y-128737846D01*
X157264930Y-128970688D01*
X157568778Y-129096856D01*
X157897779Y-129097143D01*
X158201846Y-128971505D01*
X158434688Y-128739070D01*
X158560856Y-128435222D01*
X158561143Y-128106221D01*
X158435505Y-127802154D01*
X158341000Y-127707484D01*
X158341000Y-122010331D01*
X158583579Y-122010543D01*
X158828800Y-121909220D01*
X158828800Y-130736372D01*
X157753400Y-131811772D01*
X157621021Y-131811657D01*
X157316954Y-131937295D01*
X157084112Y-132169730D01*
X156957944Y-132473578D01*
X156957657Y-132802579D01*
X157083295Y-133106646D01*
X157315730Y-133339488D01*
X157619578Y-133465656D01*
X157948579Y-133465943D01*
X158252646Y-133340305D01*
X158485488Y-133107870D01*
X158611656Y-132804022D01*
X158611773Y-132670255D01*
X159865014Y-131417014D01*
X159996595Y-131220089D01*
X160042801Y-130987800D01*
X160042800Y-130987795D01*
X160042800Y-109297858D01*
X167111087Y-102229570D01*
X167111087Y-108303586D01*
X167017399Y-108397110D01*
X166891231Y-108700958D01*
X166890944Y-109029959D01*
X167016582Y-109334026D01*
X167111087Y-109428696D01*
X167111087Y-116316021D01*
X167121197Y-116366850D01*
X167117112Y-116370928D01*
X166990944Y-116674776D01*
X166990657Y-117003777D01*
X167116295Y-117307844D01*
X167236200Y-117427959D01*
X167236200Y-127707406D01*
X167142512Y-127800930D01*
X167016344Y-128104778D01*
X167016057Y-128433779D01*
X167141695Y-128737846D01*
X167374130Y-128970688D01*
X167677978Y-129096856D01*
X168006979Y-129097143D01*
X168311046Y-128971505D01*
X168543888Y-128739070D01*
X168670056Y-128435222D01*
X168670343Y-128106221D01*
X168544705Y-127802154D01*
X168450200Y-127707484D01*
X168450200Y-121982860D01*
X168516178Y-122010256D01*
X168709400Y-122010425D01*
X168709400Y-131015772D01*
X167913400Y-131811772D01*
X167781021Y-131811657D01*
X167476954Y-131937295D01*
X167244112Y-132169730D01*
X167117944Y-132473578D01*
X167117657Y-132802579D01*
X167243295Y-133106646D01*
X167475730Y-133339488D01*
X167779578Y-133465656D01*
X168108579Y-133465943D01*
X168412646Y-133340305D01*
X168645488Y-133107870D01*
X168771656Y-132804022D01*
X168771773Y-132670255D01*
X169745614Y-131696414D01*
X169877195Y-131499489D01*
X169923400Y-131267200D01*
X169923400Y-129096976D01*
X170115179Y-129097143D01*
X170419246Y-128971505D01*
X170652088Y-128739070D01*
X170778256Y-128435222D01*
X170778373Y-128301455D01*
X172045898Y-127033930D01*
X172177479Y-126837005D01*
X172223685Y-126604716D01*
X172223684Y-126604711D01*
X172223684Y-108058766D01*
X172317372Y-107965242D01*
X172443540Y-107661394D01*
X172443827Y-107332393D01*
X172318189Y-107028326D01*
X172085754Y-106795484D01*
X171781906Y-106669316D01*
X171452905Y-106669029D01*
X171148838Y-106794667D01*
X170997926Y-106945315D01*
X170702021Y-106945057D01*
X170397954Y-107070695D01*
X170165112Y-107303130D01*
X170106999Y-107443082D01*
X170106999Y-92700004D01*
X170107000Y-92699999D01*
X170060794Y-92467710D01*
X170026985Y-92417112D01*
X170027143Y-92236221D01*
X169901505Y-91932154D01*
X169669070Y-91699312D01*
X169365222Y-91573144D01*
X169036221Y-91572857D01*
X168732154Y-91698495D01*
X168499312Y-91930930D01*
X168395410Y-92181155D01*
X168112812Y-92297922D01*
X167879970Y-92530357D01*
X167813517Y-92690393D01*
X167807300Y-92690388D01*
X167503233Y-92816026D01*
X167270391Y-93048461D01*
X167269149Y-93051453D01*
X167044421Y-93051257D01*
X166740354Y-93176895D01*
X166507512Y-93409330D01*
X166381344Y-93713178D01*
X166381057Y-94042179D01*
X166506695Y-94346246D01*
X166739130Y-94579088D01*
X167042978Y-94705256D01*
X167111087Y-94705315D01*
X167111087Y-94990798D01*
X167100916Y-94986575D01*
X166771915Y-94986288D01*
X166467848Y-95111926D01*
X166235006Y-95344361D01*
X166108838Y-95648209D01*
X166108636Y-95880247D01*
X165912189Y-96076350D01*
X165801779Y-96342248D01*
X165597093Y-96426823D01*
X165497026Y-96526715D01*
X165457934Y-96510483D01*
X165128933Y-96510196D01*
X164824866Y-96635834D01*
X164592024Y-96868269D01*
X164465856Y-97172117D01*
X164465569Y-97501118D01*
X164591207Y-97805185D01*
X164823642Y-98038027D01*
X165117446Y-98160024D01*
X165117446Y-100597126D01*
X157651800Y-108062772D01*
X157519421Y-108062657D01*
X157215354Y-108188295D01*
X156982512Y-108420730D01*
X156856344Y-108724578D01*
X156856057Y-109053579D01*
X154491649Y-109053579D01*
X163243214Y-100302014D01*
X163374795Y-100105089D01*
X163421000Y-99872800D01*
X163421000Y-99800394D01*
X163514688Y-99706870D01*
X163640856Y-99403022D01*
X163641143Y-99074021D01*
X163515505Y-98769954D01*
X163513455Y-98767901D01*
X163513845Y-98767512D01*
X163640013Y-98463664D01*
X163640300Y-98134663D01*
X163514662Y-97830596D01*
X163282227Y-97597754D01*
X163169618Y-97550995D01*
X163169618Y-97265278D01*
X163263306Y-97171754D01*
X163389474Y-96867906D01*
X163389761Y-96538905D01*
X163264123Y-96234838D01*
X163031688Y-96001996D01*
X162727840Y-95875828D01*
X162398839Y-95875541D01*
X162094772Y-96001179D01*
X162042642Y-96053218D01*
X162027542Y-96038092D01*
X161723694Y-95911924D01*
X161394693Y-95911637D01*
X161090626Y-96037275D01*
X160960147Y-96167526D01*
X160752296Y-96081219D01*
X160423295Y-96080932D01*
X160211660Y-96168378D01*
X160106343Y-96062877D01*
X159802495Y-95936709D01*
X159473494Y-95936422D01*
X159169427Y-96062060D01*
X159052488Y-96178795D01*
X159038122Y-96172830D01*
X158872576Y-96172686D01*
X158829117Y-96067506D01*
X158596682Y-95834664D01*
X158292834Y-95708496D01*
X157963833Y-95708209D01*
X157719158Y-95809307D01*
X157700789Y-95790906D01*
X157396941Y-95664738D01*
X157067940Y-95664451D01*
X156808996Y-95771445D01*
X156806070Y-95768514D01*
X156502222Y-95642346D01*
X156173221Y-95642059D01*
X155869154Y-95767697D01*
X155636312Y-96000132D01*
X155510144Y-96303980D01*
X155509863Y-96626508D01*
X155436020Y-96552536D01*
X155132172Y-96426368D01*
X154803171Y-96426081D01*
X154499104Y-96551719D01*
X154366938Y-96683654D01*
X154151722Y-96594289D01*
X153822721Y-96594002D01*
X153518654Y-96719640D01*
X153377207Y-96860840D01*
X153323877Y-96807416D01*
X153020029Y-96681248D01*
X152691028Y-96680961D01*
X152536955Y-96744623D01*
X152502111Y-96709718D01*
X152198263Y-96583550D01*
X151869262Y-96583263D01*
X151565195Y-96708901D01*
X151332353Y-96941336D01*
X151206185Y-97245184D01*
X151206026Y-97427562D01*
X151172247Y-97478116D01*
X151126042Y-97710405D01*
X151126042Y-99983530D01*
X148567172Y-102542400D01*
X137363200Y-102542400D01*
X137130911Y-102588605D01*
X136933986Y-102720186D01*
X134266973Y-105387199D01*
X115697001Y-105387199D01*
X115464712Y-105433404D01*
X115267787Y-105564985D01*
X114579785Y-106252987D01*
X108786013Y-106252987D01*
X108553724Y-106299192D01*
X108356799Y-106430773D01*
X106428586Y-108358986D01*
X106297005Y-108555911D01*
X106250800Y-108788200D01*
X106250800Y-116302806D01*
X106157112Y-116396330D01*
X106030944Y-116700178D01*
X106030657Y-117029179D01*
X103120230Y-117029179D01*
X103120230Y-109218598D01*
X107216127Y-105122701D01*
X109172762Y-105122701D01*
X109381956Y-105628989D01*
X109768974Y-106016683D01*
X110274896Y-106226760D01*
X110822701Y-106227238D01*
X111328989Y-106018044D01*
X111716683Y-105631026D01*
X111926760Y-105125104D01*
X111927238Y-104577299D01*
X111718044Y-104071011D01*
X111331026Y-103683317D01*
X110825104Y-103473240D01*
X110277299Y-103472762D01*
X109771011Y-103681956D01*
X109383317Y-104068974D01*
X109173240Y-104574896D01*
X109172762Y-105122701D01*
X107216127Y-105122701D01*
X109446028Y-102892800D01*
X113642172Y-102892800D01*
X115013784Y-104264411D01*
X115013786Y-104264414D01*
X115130577Y-104342451D01*
X115210711Y-104395995D01*
X115443000Y-104442200D01*
X132496276Y-104442200D01*
X132728565Y-104395995D01*
X132925490Y-104264414D01*
X136303704Y-100886200D01*
X146706606Y-100886200D01*
X146800130Y-100979888D01*
X147103978Y-101106056D01*
X147432979Y-101106343D01*
X147737046Y-100980705D01*
X147969888Y-100748270D01*
X148096056Y-100444422D01*
X148096343Y-100115421D01*
X148079495Y-100074647D01*
X148235342Y-100010252D01*
X148468184Y-99777817D01*
X148594352Y-99473969D01*
X148594639Y-99144968D01*
X148469001Y-98840901D01*
X148406204Y-98777994D01*
X148814806Y-98777994D01*
X148908330Y-98871682D01*
X149212178Y-98997850D01*
X149541179Y-98998137D01*
X149845246Y-98872499D01*
X150078088Y-98640064D01*
X150204256Y-98336216D01*
X150204543Y-98007215D01*
X150078905Y-97703148D01*
X149960819Y-97584855D01*
X150185818Y-97360249D01*
X150311986Y-97056401D01*
X150312273Y-96727400D01*
X150264210Y-96611080D01*
X150695609Y-96179680D01*
X150695612Y-96179678D01*
X150827193Y-95982753D01*
X150839065Y-95923067D01*
X150967086Y-95795270D01*
X151069162Y-95549443D01*
X151279064Y-95636602D01*
X151608065Y-95636889D01*
X151912132Y-95511251D01*
X152144974Y-95278816D01*
X152271142Y-94974968D01*
X152271429Y-94645967D01*
X152145791Y-94341900D01*
X152016943Y-94212826D01*
X152016125Y-94208715D01*
X152867744Y-94208715D01*
X152956728Y-94424073D01*
X153189163Y-94656915D01*
X153493011Y-94783083D01*
X153822012Y-94783370D01*
X154126079Y-94657732D01*
X154160800Y-94623071D01*
X154285678Y-94674925D01*
X154614679Y-94675212D01*
X154918746Y-94549574D01*
X155151588Y-94317139D01*
X155277756Y-94013291D01*
X155278043Y-93684290D01*
X155178631Y-93443695D01*
X160673944Y-93443695D01*
X160906233Y-93397490D01*
X161103158Y-93265909D01*
X162441306Y-91927761D01*
X162573685Y-91927876D01*
X162877752Y-91802238D01*
X163110594Y-91569803D01*
X163236762Y-91265955D01*
X163237049Y-90936954D01*
X163111411Y-90632887D01*
X162878976Y-90400045D01*
X162575128Y-90273877D01*
X162246127Y-90273590D01*
X161953573Y-90394471D01*
X161682990Y-90282116D01*
X161353989Y-90281829D01*
X161049922Y-90407467D01*
X160817080Y-90639902D01*
X160690912Y-90943750D01*
X160690795Y-91077517D01*
X159901668Y-91866644D01*
X158128352Y-91866644D01*
X160390691Y-89604305D01*
X160522272Y-89407380D01*
X160568477Y-89175091D01*
X160568477Y-87594464D01*
X160662165Y-87500940D01*
X160720380Y-87360741D01*
X160772964Y-87360787D01*
X161077031Y-87235149D01*
X161309873Y-87002714D01*
X161371699Y-86853818D01*
X161427391Y-86853867D01*
X161731458Y-86728229D01*
X161964300Y-86495794D01*
X162090468Y-86191946D01*
X162090755Y-85862945D01*
X161965117Y-85558878D01*
X161732682Y-85326036D01*
X161428834Y-85199868D01*
X161246456Y-85199709D01*
X161195902Y-85165930D01*
X160963613Y-85119725D01*
X159723447Y-85119725D01*
X159491158Y-85165930D01*
X159294233Y-85297511D01*
X156964397Y-87627347D01*
X156832816Y-87824272D01*
X156786611Y-88056561D01*
X156786611Y-89964133D01*
X156324144Y-90426600D01*
X150915596Y-90426600D01*
X150915741Y-90260221D01*
X150790103Y-89956154D01*
X150557668Y-89723312D01*
X150253820Y-89597144D01*
X149924819Y-89596857D01*
X149620752Y-89722495D01*
X149526082Y-89817000D01*
X148488405Y-89817000D01*
X148488400Y-89816999D01*
X148256111Y-89863205D01*
X148059186Y-89994786D01*
X146980341Y-91073631D01*
X140526451Y-91073631D01*
X140596348Y-90905299D01*
X140596791Y-90397051D01*
X140402703Y-89927320D01*
X140043630Y-89567620D01*
X139574239Y-89372712D01*
X139065991Y-89372269D01*
X138596260Y-89566357D01*
X138236560Y-89925430D01*
X138041652Y-90394821D01*
X138041209Y-90903069D01*
X138111683Y-91073631D01*
X129320859Y-91073631D01*
X126972014Y-88724786D01*
X126775089Y-88593205D01*
X126542800Y-88547000D01*
X120038270Y-88547000D01*
X119805981Y-88593205D01*
X119609056Y-88724786D01*
X115208406Y-93125436D01*
X115076027Y-93125321D01*
X114771960Y-93250959D01*
X114539118Y-93483394D01*
X114412950Y-93787242D01*
X114412663Y-94116243D01*
X114538301Y-94420310D01*
X114770736Y-94653152D01*
X115074584Y-94779320D01*
X115403585Y-94779607D01*
X115707652Y-94653969D01*
X115940494Y-94421534D01*
X116066662Y-94117686D01*
X116066779Y-93983919D01*
X119675953Y-90374745D01*
X119680537Y-90399108D01*
X119651276Y-90543600D01*
X119651276Y-91343600D01*
X119680537Y-91499108D01*
X119651276Y-91643600D01*
X119651276Y-92443600D01*
X119680537Y-92599108D01*
X119651276Y-92743600D01*
X119651276Y-93543600D01*
X119680537Y-93699108D01*
X119651276Y-93843600D01*
X119651276Y-94582899D01*
X119650273Y-94583902D01*
X119553600Y-94817291D01*
X119553600Y-95057850D01*
X119712350Y-95216600D01*
X120811600Y-95216600D01*
X120811600Y-95196600D01*
X121065600Y-95196600D01*
X121065600Y-95216600D01*
X122164850Y-95216600D01*
X122323600Y-95057850D01*
X122323600Y-94850600D01*
X128242572Y-94850600D01*
X127476600Y-95616572D01*
X127344221Y-95616457D01*
X127040154Y-95742095D01*
X126990562Y-95791600D01*
X122323600Y-95791600D01*
X122323600Y-95629350D01*
X122164850Y-95470600D01*
X121065600Y-95470600D01*
X121065600Y-95490600D01*
X120811600Y-95490600D01*
X120811600Y-95470600D01*
X119712350Y-95470600D01*
X119553600Y-95629350D01*
X119553600Y-95869909D01*
X119650273Y-96103298D01*
X119651276Y-96104301D01*
X119651276Y-96843600D01*
X119680537Y-96999108D01*
X119651276Y-97143600D01*
X119651276Y-97292848D01*
X118929214Y-96570786D01*
X118732289Y-96439205D01*
X118500000Y-96393000D01*
X93991405Y-96393000D01*
X93991400Y-96392999D01*
X93759111Y-96439205D01*
X93562186Y-96570786D01*
X89271568Y-100861404D01*
X89099704Y-100790040D01*
X88551899Y-100789562D01*
X88045611Y-100998756D01*
X87657917Y-101385774D01*
X87447840Y-101891696D01*
X87447362Y-102439501D01*
X87656556Y-102945789D01*
X88043574Y-103333483D01*
X88549496Y-103543560D01*
X89097301Y-103544038D01*
X89603589Y-103334844D01*
X89991283Y-102947826D01*
X90201360Y-102441904D01*
X90201838Y-101894099D01*
X90129880Y-101719948D01*
X94242828Y-97607000D01*
X118248572Y-97607000D01*
X119205172Y-98563600D01*
X118624350Y-98563600D01*
X118465600Y-98722350D01*
X118465600Y-99796600D01*
X119814850Y-99796600D01*
X119973600Y-99637850D01*
X119973600Y-99322334D01*
X120141310Y-99434394D01*
X120373599Y-99480599D01*
X125003600Y-99480599D01*
X125003600Y-99637850D01*
X125162350Y-99796600D01*
X126511600Y-99796600D01*
X126511600Y-99776600D01*
X126765600Y-99776600D01*
X126765600Y-99796600D01*
X128114850Y-99796600D01*
X128273600Y-99637850D01*
X128273600Y-99480599D01*
X130867013Y-99480599D01*
X129999500Y-100348112D01*
X128273600Y-100348112D01*
X128273600Y-100209350D01*
X128114850Y-100050600D01*
X126765600Y-100050600D01*
X126765600Y-100070600D01*
X126511600Y-100070600D01*
X126511600Y-100050600D01*
X125162350Y-100050600D01*
X125003600Y-100209350D01*
X125003600Y-100348112D01*
X119973600Y-100348112D01*
X119973600Y-100209350D01*
X119814850Y-100050600D01*
X118465600Y-100050600D01*
X118465600Y-100070600D01*
X118211600Y-100070600D01*
X118211600Y-100050600D01*
X116862350Y-100050600D01*
X116726115Y-100186836D01*
X115611570Y-99072291D01*
X116703600Y-99072291D01*
X116703600Y-99637850D01*
X116862350Y-99796600D01*
X118211600Y-99796600D01*
X118211600Y-98722350D01*
X118052850Y-98563600D01*
X117212290Y-98563600D01*
X116978901Y-98660273D01*
X116800273Y-98838902D01*
X116703600Y-99072291D01*
X115611570Y-99072291D01*
X115295784Y-98756505D01*
X115098859Y-98624924D01*
X114866570Y-98578719D01*
X106988594Y-98578719D01*
X106895070Y-98485031D01*
X106591222Y-98358863D01*
X106262221Y-98358576D01*
X105958154Y-98484214D01*
X105725312Y-98716649D01*
X105599144Y-99020497D01*
X105599023Y-99158730D01*
X96217848Y-99158730D01*
X95985559Y-99204935D01*
X95788634Y-99336516D01*
X86083184Y-109041966D01*
X85951603Y-109238891D01*
X85905398Y-109471180D01*
X85905398Y-116302806D01*
X85811710Y-116396330D01*
X85685542Y-116700178D01*
X85685255Y-117029179D01*
X85810893Y-117333246D01*
X85880000Y-117402474D01*
X85880000Y-127682006D01*
X85786312Y-127775530D01*
X85660144Y-128079378D01*
X85659857Y-128408379D01*
X80611737Y-128408379D01*
X80611467Y-114210758D01*
X82460247Y-114210758D01*
X82540520Y-114462059D01*
X83095879Y-114663518D01*
X83686058Y-114637115D01*
X84108680Y-114462059D01*
X84188953Y-114210758D01*
X83324600Y-113346405D01*
X82460247Y-114210758D01*
X80611467Y-114210758D01*
X80611442Y-112938079D01*
X81827882Y-112938079D01*
X81854285Y-113528258D01*
X82029341Y-113950880D01*
X82280642Y-114031153D01*
X83144995Y-113166800D01*
X83504205Y-113166800D01*
X84368558Y-114031153D01*
X84619859Y-113950880D01*
X84821318Y-113395521D01*
X84794915Y-112805342D01*
X84619859Y-112382720D01*
X84368558Y-112302447D01*
X83504205Y-113166800D01*
X83144995Y-113166800D01*
X82280642Y-112302447D01*
X82029341Y-112382720D01*
X81827882Y-112938079D01*
X80611442Y-112938079D01*
X80611427Y-112122842D01*
X82460247Y-112122842D01*
X83324600Y-112987195D01*
X84188953Y-112122842D01*
X84108680Y-111871541D01*
X83553321Y-111670082D01*
X82963142Y-111696485D01*
X82540520Y-111871541D01*
X82460247Y-112122842D01*
X80611427Y-112122842D01*
X80611375Y-109418226D01*
X80847249Y-109418226D01*
X81155191Y-110163503D01*
X81724898Y-110734205D01*
X82469636Y-111043447D01*
X83276026Y-111044151D01*
X84021303Y-110736209D01*
X84592005Y-110166502D01*
X84901247Y-109421764D01*
X84901951Y-108615374D01*
X84594009Y-107870097D01*
X84024302Y-107299395D01*
X83279564Y-106990153D01*
X82473174Y-106989449D01*
X81727897Y-107297391D01*
X81157195Y-107867098D01*
X80847953Y-108611836D01*
X80847249Y-109418226D01*
X80611375Y-109418226D01*
X80611294Y-105139501D01*
X81947362Y-105139501D01*
X82156556Y-105645789D01*
X82543574Y-106033483D01*
X83049496Y-106243560D01*
X83597301Y-106244038D01*
X84103589Y-106034844D01*
X84491283Y-105647826D01*
X84701360Y-105141904D01*
X84701838Y-104594099D01*
X84492644Y-104087811D01*
X84105626Y-103700117D01*
X83599704Y-103490040D01*
X83051899Y-103489562D01*
X82545611Y-103698756D01*
X82157917Y-104085774D01*
X81947840Y-104591696D01*
X81947362Y-105139501D01*
X80611294Y-105139501D01*
X80611051Y-92403077D01*
X80783902Y-92575927D01*
X81017291Y-92672600D01*
X81857850Y-92672600D01*
X82016600Y-92513850D01*
X82016600Y-91414600D01*
X82270600Y-91414600D01*
X82270600Y-92513850D01*
X82429350Y-92672600D01*
X83269909Y-92672600D01*
X83503298Y-92575927D01*
X83681927Y-92397299D01*
X83778600Y-92163910D01*
X83778600Y-91573350D01*
X83619850Y-91414600D01*
X82270600Y-91414600D01*
X82016600Y-91414600D01*
X81996600Y-91414600D01*
X81996600Y-91160600D01*
X82016600Y-91160600D01*
X82016600Y-90061350D01*
X82270600Y-90061350D01*
X82270600Y-91160600D01*
X83619850Y-91160600D01*
X83778600Y-91001850D01*
X83778600Y-90411290D01*
X83681927Y-90177901D01*
X83503298Y-89999273D01*
X83269909Y-89902600D01*
X82429350Y-89902600D01*
X82270600Y-90061350D01*
X82016600Y-90061350D01*
X81857850Y-89902600D01*
X81017291Y-89902600D01*
X80783902Y-89999273D01*
X80611009Y-90172165D01*
X80610887Y-83802913D01*
X80783902Y-83975927D01*
X81017291Y-84072600D01*
X81857850Y-84072600D01*
X82016600Y-83913850D01*
X82016600Y-82814600D01*
X82270600Y-82814600D01*
X82270600Y-83913850D01*
X82429350Y-84072600D01*
X83269909Y-84072600D01*
X83503298Y-83975927D01*
X83681927Y-83797299D01*
X83778600Y-83563910D01*
X83778600Y-82973350D01*
X83619850Y-82814600D01*
X82270600Y-82814600D01*
X82016600Y-82814600D01*
X81996600Y-82814600D01*
X81996600Y-82560600D01*
X82016600Y-82560600D01*
X82016600Y-81461350D01*
X82270600Y-81461350D01*
X82270600Y-82560600D01*
X83619850Y-82560600D01*
X83778600Y-82401850D01*
X83778600Y-81811290D01*
X83681927Y-81577901D01*
X83503298Y-81399273D01*
X83269909Y-81302600D01*
X82429350Y-81302600D01*
X82270600Y-81461350D01*
X82016600Y-81461350D01*
X81857850Y-81302600D01*
X81017291Y-81302600D01*
X80783902Y-81399273D01*
X80610845Y-81572329D01*
X80610825Y-80510531D01*
X82795637Y-78325720D01*
X95657052Y-78325720D01*
X92394840Y-81587932D01*
X92394840Y-81587932D01*
G37*
X92394840Y-81587932D02*
X92378758Y-81562940D01*
X92202649Y-81442610D01*
X91993600Y-81400276D01*
X89993600Y-81400276D01*
X89798306Y-81437023D01*
X89618940Y-81552442D01*
X89498610Y-81728551D01*
X89456276Y-81937600D01*
X89456276Y-83437600D01*
X89493023Y-83632894D01*
X89608442Y-83812260D01*
X89784551Y-83932590D01*
X89993600Y-83974924D01*
X91993600Y-83974924D01*
X92188894Y-83938177D01*
X92368260Y-83822758D01*
X92488590Y-83646649D01*
X92530924Y-83437600D01*
X92530924Y-83151486D01*
X92582814Y-83116814D01*
X96754228Y-78945400D01*
X103637372Y-78945400D01*
X92394840Y-90187932D01*
X92378758Y-90162940D01*
X92202649Y-90042610D01*
X91993600Y-90000276D01*
X89993600Y-90000276D01*
X89798306Y-90037023D01*
X89618940Y-90152442D01*
X89498610Y-90328551D01*
X89456276Y-90537600D01*
X89456276Y-92037600D01*
X89493023Y-92232894D01*
X89608442Y-92412260D01*
X89784551Y-92532590D01*
X89993600Y-92574924D01*
X91993600Y-92574924D01*
X92188894Y-92538177D01*
X92368260Y-92422758D01*
X92488590Y-92246649D01*
X92498036Y-92200000D01*
X94923000Y-92200000D01*
X94982146Y-92497345D01*
X95150578Y-92749422D01*
X95402655Y-92917854D01*
X95700000Y-92977000D01*
X99464400Y-92977000D01*
X99761745Y-92917854D01*
X100013822Y-92749422D01*
X100059293Y-92703951D01*
X100080027Y-92695384D01*
X100282978Y-92779656D01*
X100611979Y-92779943D01*
X100860019Y-92677455D01*
X101044978Y-92754256D01*
X101373979Y-92754543D01*
X101591359Y-92664724D01*
X101806978Y-92754256D01*
X102135979Y-92754543D01*
X102440046Y-92628905D01*
X102672888Y-92396470D01*
X102799056Y-92092622D01*
X102799343Y-91763621D01*
X102673705Y-91459554D01*
X102441270Y-91226712D01*
X102137422Y-91100544D01*
X101808421Y-91100257D01*
X101591041Y-91190076D01*
X101375422Y-91100544D01*
X101046421Y-91100257D01*
X100798381Y-91202745D01*
X100613422Y-91125944D01*
X100284421Y-91125657D01*
X100079773Y-91210216D01*
X99876822Y-91125944D01*
X99547821Y-91125657D01*
X99243754Y-91251295D01*
X99071748Y-91423000D01*
X95700000Y-91423000D01*
X95402655Y-91482146D01*
X95150578Y-91650578D01*
X94982146Y-91902655D01*
X94923000Y-92200000D01*
X92498036Y-92200000D01*
X92530924Y-92037600D01*
X92530924Y-91751486D01*
X92582814Y-91716814D01*
X94473849Y-89825779D01*
X103185859Y-89825779D01*
X103311497Y-90129846D01*
X103543932Y-90362688D01*
X103847780Y-90488856D01*
X104176781Y-90489143D01*
X104480848Y-90363505D01*
X104713690Y-90131070D01*
X104839858Y-89827222D01*
X104840145Y-89498221D01*
X104714507Y-89194154D01*
X104665002Y-89144562D01*
X104665002Y-85240604D01*
X107460981Y-82444624D01*
X107527053Y-82776789D01*
X107828497Y-83227932D01*
X108279640Y-83529376D01*
X108811800Y-83635229D01*
X109280893Y-83541921D01*
X109530862Y-83791890D01*
X109067820Y-83791890D01*
X108546281Y-83946154D01*
X108123476Y-84288260D01*
X107863773Y-84766125D01*
X107849417Y-84838326D01*
X107972038Y-85053000D01*
X109822200Y-85053000D01*
X109822200Y-85033000D01*
X110076200Y-85033000D01*
X110076200Y-85053000D01*
X111926362Y-85053000D01*
X112048983Y-84838326D01*
X112034627Y-84766125D01*
X111774924Y-84288260D01*
X111550907Y-84107000D01*
X111648572Y-84107000D01*
X113745772Y-86204200D01*
X111972292Y-87977680D01*
X112023548Y-87720000D01*
X111926105Y-87230123D01*
X111648612Y-86814826D01*
X111233315Y-86537333D01*
X111054729Y-86501810D01*
X111352119Y-86413846D01*
X111774924Y-86071740D01*
X112034627Y-85593875D01*
X112048983Y-85521674D01*
X111926362Y-85307000D01*
X110076200Y-85307000D01*
X110076200Y-85327000D01*
X109822200Y-85327000D01*
X109822200Y-85307000D01*
X107972038Y-85307000D01*
X107849417Y-85521674D01*
X107863773Y-85593875D01*
X108123476Y-86071740D01*
X108546281Y-86413846D01*
X108843671Y-86501810D01*
X108665085Y-86537333D01*
X108249788Y-86814826D01*
X107972295Y-87230123D01*
X107874852Y-87720000D01*
X107972295Y-88209877D01*
X108249788Y-88625174D01*
X108665085Y-88902667D01*
X109154962Y-89000110D01*
X110743438Y-89000110D01*
X111001118Y-88948854D01*
X106157200Y-93792772D01*
X106024821Y-93792657D01*
X105720754Y-93918295D01*
X105487912Y-94150730D01*
X105404530Y-94351536D01*
X105313621Y-94351457D01*
X105009554Y-94477095D01*
X104776712Y-94709530D01*
X104650544Y-95013378D01*
X104650257Y-95342379D01*
X104775895Y-95646446D01*
X105008330Y-95879288D01*
X105312178Y-96005456D01*
X105641179Y-96005743D01*
X105945246Y-95880105D01*
X106039916Y-95785600D01*
X106606804Y-95785600D01*
X106839093Y-95739395D01*
X107036018Y-95607814D01*
X115616730Y-87027102D01*
X115663779Y-87027143D01*
X115967846Y-86901505D01*
X116200688Y-86669070D01*
X116287770Y-86459350D01*
X116703600Y-86459350D01*
X116703600Y-87024909D01*
X116800273Y-87258298D01*
X116978901Y-87436927D01*
X117212290Y-87533600D01*
X118052850Y-87533600D01*
X118211600Y-87374850D01*
X118211600Y-86300600D01*
X118465600Y-86300600D01*
X118465600Y-87374850D01*
X118624350Y-87533600D01*
X119464910Y-87533600D01*
X119698299Y-87436927D01*
X119876927Y-87258298D01*
X119973600Y-87024909D01*
X119973600Y-86459350D01*
X125003600Y-86459350D01*
X125003600Y-87024909D01*
X125100273Y-87258298D01*
X125278901Y-87436927D01*
X125512290Y-87533600D01*
X126352850Y-87533600D01*
X126511600Y-87374850D01*
X126511600Y-86300600D01*
X126765600Y-86300600D01*
X126765600Y-87374850D01*
X126924350Y-87533600D01*
X127764910Y-87533600D01*
X127998299Y-87436927D01*
X128176927Y-87258298D01*
X128273600Y-87024909D01*
X128273600Y-86459350D01*
X128114850Y-86300600D01*
X126765600Y-86300600D01*
X126511600Y-86300600D01*
X125162350Y-86300600D01*
X125003600Y-86459350D01*
X119973600Y-86459350D01*
X119814850Y-86300600D01*
X118465600Y-86300600D01*
X118211600Y-86300600D01*
X116862350Y-86300600D01*
X116703600Y-86459350D01*
X116287770Y-86459350D01*
X116326856Y-86365222D01*
X116327143Y-86036221D01*
X116253353Y-85857637D01*
X116703600Y-85407390D01*
X116703600Y-85887850D01*
X116862350Y-86046600D01*
X118211600Y-86046600D01*
X118211600Y-86026600D01*
X118465600Y-86026600D01*
X118465600Y-86046600D01*
X119814850Y-86046600D01*
X119973600Y-85887850D01*
X119973600Y-85322291D01*
X119876927Y-85088902D01*
X119768437Y-84980411D01*
X125208763Y-84980411D01*
X125100273Y-85088902D01*
X125003600Y-85322291D01*
X125003600Y-85887850D01*
X125162350Y-86046600D01*
X126511600Y-86046600D01*
X126511600Y-86026600D01*
X126765600Y-86026600D01*
X126765600Y-86046600D01*
X128114850Y-86046600D01*
X128215618Y-85945832D01*
X128410759Y-86141314D01*
X128714607Y-86267482D01*
X129043608Y-86267769D01*
X129347675Y-86142131D01*
X129442345Y-86047626D01*
X132092379Y-86047626D01*
X131973144Y-86334778D01*
X131972958Y-86547889D01*
X131936221Y-86547857D01*
X131632154Y-86673495D01*
X131399312Y-86905930D01*
X131273144Y-87209778D01*
X131272857Y-87538779D01*
X131398495Y-87842846D01*
X131630930Y-88075688D01*
X131934778Y-88201856D01*
X132101641Y-88202002D01*
X132198911Y-88266995D01*
X132229824Y-88273144D01*
X132431200Y-88313201D01*
X132431205Y-88313200D01*
X148879508Y-88313200D01*
X149031922Y-88465614D01*
X149228847Y-88597195D01*
X149288533Y-88609067D01*
X149416330Y-88737088D01*
X149720178Y-88863256D01*
X150049179Y-88863543D01*
X150353246Y-88737905D01*
X150586088Y-88505470D01*
X150712256Y-88201622D01*
X150712473Y-87953190D01*
X150874162Y-87953190D01*
X151894586Y-88973614D01*
X152091511Y-89105195D01*
X152323800Y-89151400D01*
X153640810Y-89151400D01*
X153734334Y-89245088D01*
X154038182Y-89371256D01*
X154367183Y-89371543D01*
X154671250Y-89245905D01*
X154904092Y-89013470D01*
X154954356Y-88892421D01*
X155086183Y-88892536D01*
X155390250Y-88766898D01*
X155623092Y-88534463D01*
X155749260Y-88230615D01*
X155749270Y-88218635D01*
X155904845Y-88154353D01*
X156137687Y-87921918D01*
X156263855Y-87618070D01*
X156264142Y-87289069D01*
X156138504Y-86985002D01*
X155956128Y-86802306D01*
X157744723Y-85013711D01*
X161896048Y-85013711D01*
X161895869Y-85218410D01*
X162021507Y-85522477D01*
X162116012Y-85617147D01*
X162116012Y-86377360D01*
X161698986Y-86794386D01*
X161567405Y-86991311D01*
X161521200Y-87223600D01*
X161521200Y-87753073D01*
X161503712Y-87770530D01*
X161377544Y-88074378D01*
X161377257Y-88403379D01*
X161502895Y-88707446D01*
X161735330Y-88940288D01*
X162039178Y-89066456D01*
X162368179Y-89066743D01*
X162672246Y-88941105D01*
X162905088Y-88708670D01*
X163031256Y-88404822D01*
X163031543Y-88075821D01*
X162905905Y-87771754D01*
X162735200Y-87600750D01*
X162735200Y-87475028D01*
X163152226Y-87058002D01*
X163283807Y-86861077D01*
X163330012Y-86628788D01*
X163330012Y-85617225D01*
X163423700Y-85523701D01*
X163549868Y-85219853D01*
X163550048Y-85013711D01*
X164025622Y-85013711D01*
X163721051Y-85318281D01*
X163579716Y-85529805D01*
X163573933Y-85558878D01*
X163559283Y-85632529D01*
X163481397Y-85710278D01*
X163355229Y-86014126D01*
X163354942Y-86343127D01*
X163480580Y-86647194D01*
X163713015Y-86880036D01*
X164016863Y-87006204D01*
X164345864Y-87006491D01*
X164649931Y-86880853D01*
X164882773Y-86648418D01*
X165008941Y-86344570D01*
X165009228Y-86015569D01*
X164977475Y-85938720D01*
X165865329Y-85938720D01*
X165865334Y-85938721D01*
X165971565Y-85917590D01*
X165873846Y-86015138D01*
X165747678Y-86318986D01*
X165747391Y-86647987D01*
X165873029Y-86952054D01*
X166001877Y-87081128D01*
X166013739Y-87140761D01*
X166145320Y-87337686D01*
X166240799Y-87433165D01*
X166240799Y-88273123D01*
X165936221Y-88272857D01*
X165632154Y-88398495D01*
X165399312Y-88630930D01*
X165273144Y-88934778D01*
X165273027Y-89068545D01*
X165066386Y-89275186D01*
X164934805Y-89472111D01*
X164888600Y-89704400D01*
X164888600Y-90312676D01*
X164495600Y-90312676D01*
X164300306Y-90349423D01*
X164120940Y-90464842D01*
X164000610Y-90640951D01*
X163958276Y-90850000D01*
X163958276Y-92350000D01*
X163995023Y-92545294D01*
X164110442Y-92724660D01*
X164286551Y-92844990D01*
X164495600Y-92887324D01*
X166495600Y-92887324D01*
X166690894Y-92850577D01*
X166870260Y-92735158D01*
X166899793Y-92691935D01*
X166915978Y-92698656D01*
X167244979Y-92698943D01*
X167549046Y-92573305D01*
X167781888Y-92340870D01*
X167908056Y-92037022D01*
X167908343Y-91708021D01*
X167782705Y-91403954D01*
X167653857Y-91274880D01*
X167641995Y-91215247D01*
X167510414Y-91018322D01*
X167454799Y-90962707D01*
X167454799Y-87181737D01*
X167408594Y-86949448D01*
X167327320Y-86827812D01*
X167401390Y-86649430D01*
X167401677Y-86320429D01*
X167276039Y-86016362D01*
X167043604Y-85783520D01*
X166739756Y-85657352D01*
X166664173Y-85657286D01*
X166866021Y-85455791D01*
X166992189Y-85151943D01*
X166992310Y-85013711D01*
X169279958Y-85013711D01*
X169462827Y-85196580D01*
X169462827Y-88580052D01*
X169369139Y-88673576D01*
X169242971Y-88977424D01*
X169242684Y-89306425D01*
X169344238Y-89552205D01*
X169261746Y-89750870D01*
X169261459Y-90079871D01*
X169387097Y-90383938D01*
X169619532Y-90616780D01*
X169923380Y-90742948D01*
X170252381Y-90743235D01*
X170556448Y-90617597D01*
X170651118Y-90523092D01*
X171483908Y-90523092D01*
X171716197Y-90476887D01*
X171913122Y-90345306D01*
X172169216Y-90089212D01*
X172300797Y-89892287D01*
X172347003Y-89659998D01*
X172347002Y-89659993D01*
X172347002Y-89044452D01*
X173615226Y-90312676D01*
X173345600Y-90312676D01*
X173150306Y-90349423D01*
X172970940Y-90464842D01*
X172850610Y-90640951D01*
X172808276Y-90850000D01*
X172808276Y-92350000D01*
X172845023Y-92545294D01*
X172960442Y-92724660D01*
X173136551Y-92844990D01*
X173345600Y-92887324D01*
X175345600Y-92887324D01*
X175540894Y-92850577D01*
X175720260Y-92735158D01*
X175840590Y-92559049D01*
X175882924Y-92350000D01*
X175882924Y-90850000D01*
X175846177Y-90654706D01*
X175730758Y-90475340D01*
X175554649Y-90355010D01*
X175345600Y-90312676D01*
X174952600Y-90312676D01*
X174952600Y-90184622D01*
X174906395Y-89952333D01*
X174774814Y-89755408D01*
X172086416Y-87067010D01*
X173614814Y-85538612D01*
X173746395Y-85341687D01*
X173792600Y-85109398D01*
X173792600Y-84287324D01*
X175345600Y-84287324D01*
X175540894Y-84250577D01*
X175720260Y-84135158D01*
X175840590Y-83959049D01*
X175882924Y-83750000D01*
X175882924Y-82250000D01*
X175846177Y-82054706D01*
X175730758Y-81875340D01*
X175554649Y-81755010D01*
X175345600Y-81712676D01*
X173345600Y-81712676D01*
X173150306Y-81749423D01*
X172970940Y-81864842D01*
X172850610Y-82040951D01*
X172808276Y-82250000D01*
X172808276Y-83428896D01*
X172756386Y-83480786D01*
X172624805Y-83677711D01*
X172578600Y-83910000D01*
X172578600Y-84857970D01*
X172055028Y-85381542D01*
X172055141Y-85251702D01*
X171929503Y-84947635D01*
X171800655Y-84818561D01*
X171788793Y-84758928D01*
X171657212Y-84562003D01*
X169665995Y-82570786D01*
X169469070Y-82439205D01*
X169236781Y-82393000D01*
X167032924Y-82393000D01*
X167032924Y-82250000D01*
X166996177Y-82054706D01*
X166880758Y-81875340D01*
X166704649Y-81755010D01*
X166495600Y-81712676D01*
X164495600Y-81712676D01*
X164300306Y-81749423D01*
X164120940Y-81864842D01*
X164000610Y-82040951D01*
X163958276Y-82250000D01*
X163958276Y-83479700D01*
X163793535Y-83479700D01*
X163793654Y-83342911D01*
X163668016Y-83038844D01*
X163539168Y-82909770D01*
X163527306Y-82850137D01*
X163395725Y-82653212D01*
X163081459Y-82338946D01*
X162884534Y-82207365D01*
X162652245Y-82161160D01*
X158920254Y-82161160D01*
X158826730Y-82067472D01*
X158522882Y-81941304D01*
X158193881Y-81941017D01*
X157889814Y-82066655D01*
X157656972Y-82299090D01*
X157600711Y-82434583D01*
X156989454Y-81823326D01*
X156792529Y-81691745D01*
X156560240Y-81645540D01*
X151995912Y-81645540D01*
X151763623Y-81691745D01*
X151566698Y-81823326D01*
X150657064Y-82732960D01*
X150524685Y-82732845D01*
X150220618Y-82858483D01*
X149987776Y-83090918D01*
X149861608Y-83394766D01*
X149861321Y-83723767D01*
X149986959Y-84027834D01*
X150219394Y-84260676D01*
X150523242Y-84386844D01*
X150852243Y-84387131D01*
X151156310Y-84261493D01*
X151389152Y-84029058D01*
X151515320Y-83725210D01*
X151515437Y-83591443D01*
X152247340Y-82859540D01*
X155172976Y-82859540D01*
X155172857Y-82996329D01*
X155298495Y-83300396D01*
X155393000Y-83395066D01*
X155393000Y-84337613D01*
X154345942Y-85384671D01*
X154213563Y-85384556D01*
X153909496Y-85510194D01*
X153774668Y-85644787D01*
X153553993Y-85553155D01*
X153420226Y-85553038D01*
X153384123Y-85516935D01*
X153187198Y-85385354D01*
X152954909Y-85339149D01*
X135803777Y-85339149D01*
X134088814Y-83624186D01*
X133891889Y-83492605D01*
X133659600Y-83446400D01*
X131907550Y-83446400D01*
X132007948Y-83242078D01*
X131881414Y-83071140D01*
X130915680Y-83071140D01*
X130915680Y-83091140D01*
X130661680Y-83091140D01*
X130661680Y-83071140D01*
X129695946Y-83071140D01*
X129569412Y-83242078D01*
X129669810Y-83446400D01*
X126907550Y-83446400D01*
X127007948Y-83242078D01*
X126881414Y-83071140D01*
X125915680Y-83071140D01*
X125915680Y-83091140D01*
X125661680Y-83091140D01*
X125661680Y-83071140D01*
X124695946Y-83071140D01*
X124569412Y-83242078D01*
X124669810Y-83446400D01*
X117825026Y-83446400D01*
X117833727Y-83437699D01*
X117930400Y-83204310D01*
X117930400Y-82646202D01*
X124569412Y-82646202D01*
X124695946Y-82817140D01*
X125661680Y-82817140D01*
X125661680Y-81991577D01*
X125915680Y-81991577D01*
X125915680Y-82817140D01*
X126881414Y-82817140D01*
X127007948Y-82646202D01*
X129569412Y-82646202D01*
X129695946Y-82817140D01*
X130661680Y-82817140D01*
X130661680Y-81991577D01*
X130915680Y-81991577D01*
X130915680Y-82817140D01*
X131881414Y-82817140D01*
X132007948Y-82646202D01*
X131824232Y-82272319D01*
X131499729Y-81984572D01*
X131089811Y-81842911D01*
X130915680Y-81991577D01*
X130661680Y-81991577D01*
X130487549Y-81842911D01*
X130077631Y-81984572D01*
X129753128Y-82272319D01*
X129569412Y-82646202D01*
X127007948Y-82646202D01*
X126824232Y-82272319D01*
X126499729Y-81984572D01*
X126089811Y-81842911D01*
X125915680Y-81991577D01*
X125661680Y-81991577D01*
X125487549Y-81842911D01*
X125077631Y-81984572D01*
X124753128Y-82272319D01*
X124569412Y-82646202D01*
X117930400Y-82646202D01*
X117930400Y-82347750D01*
X117771650Y-82189000D01*
X116558800Y-82189000D01*
X116558800Y-82209000D01*
X116304800Y-82209000D01*
X116304800Y-82189000D01*
X116284800Y-82189000D01*
X116284800Y-81935000D01*
X116304800Y-81935000D01*
X116304800Y-80569750D01*
X116558800Y-80569750D01*
X116558800Y-81935000D01*
X117771650Y-81935000D01*
X117930400Y-81776250D01*
X117930400Y-80919690D01*
X117833727Y-80686301D01*
X117655098Y-80507673D01*
X117421709Y-80411000D01*
X116717550Y-80411000D01*
X116558800Y-80569750D01*
X116304800Y-80569750D01*
X116146050Y-80411000D01*
X115441891Y-80411000D01*
X115208502Y-80507673D01*
X115029873Y-80686301D01*
X114933200Y-80919690D01*
X114933200Y-80983016D01*
X114875103Y-80896068D01*
X114423960Y-80594624D01*
X113891800Y-80488771D01*
X113475788Y-80571521D01*
X113275408Y-80371140D01*
X123653680Y-80371140D01*
X123653680Y-80646140D01*
X123788678Y-81070818D01*
X124075917Y-81411508D01*
X124486806Y-81613259D01*
X124661680Y-81487094D01*
X124661680Y-80371140D01*
X124915680Y-80371140D01*
X124915680Y-81487094D01*
X125090554Y-81613259D01*
X125501443Y-81411508D01*
X125788682Y-81070818D01*
X125923680Y-80646140D01*
X125923680Y-80371140D01*
X130653680Y-80371140D01*
X130653680Y-80646140D01*
X130788678Y-81070818D01*
X131075917Y-81411508D01*
X131486806Y-81613259D01*
X131661680Y-81487094D01*
X131661680Y-80371140D01*
X131915680Y-80371140D01*
X131915680Y-81487094D01*
X132090554Y-81613259D01*
X132501443Y-81411508D01*
X132788682Y-81070818D01*
X132923680Y-80646140D01*
X132923680Y-80371140D01*
X131915680Y-80371140D01*
X131661680Y-80371140D01*
X130653680Y-80371140D01*
X125923680Y-80371140D01*
X124915680Y-80371140D01*
X124661680Y-80371140D01*
X123653680Y-80371140D01*
X113275408Y-80371140D01*
X113164224Y-80259956D01*
X112952700Y-80118621D01*
X112911303Y-80110386D01*
X112703190Y-80068989D01*
X112703185Y-80068990D01*
X108262553Y-80068990D01*
X108262548Y-80068989D01*
X108013039Y-80118620D01*
X107977899Y-80142100D01*
X107801514Y-80259956D01*
X107801512Y-80259959D01*
X103551968Y-84509502D01*
X103410633Y-84721026D01*
X103407034Y-84739121D01*
X103361001Y-84970536D01*
X103361002Y-84970541D01*
X103361002Y-89144327D01*
X103312314Y-89192930D01*
X103186146Y-89496778D01*
X103185859Y-89825779D01*
X94473849Y-89825779D01*
X104994217Y-79305411D01*
X123883149Y-79305411D01*
X123788678Y-79417462D01*
X123653680Y-79842140D01*
X123653680Y-80117140D01*
X124661680Y-80117140D01*
X124661680Y-80097140D01*
X124915680Y-80097140D01*
X124915680Y-80117140D01*
X125923680Y-80117140D01*
X125923680Y-79842140D01*
X125788682Y-79417462D01*
X125694211Y-79305411D01*
X130883149Y-79305411D01*
X130788678Y-79417462D01*
X130653680Y-79842140D01*
X130653680Y-80117140D01*
X131661680Y-80117140D01*
X131661680Y-80097140D01*
X131915680Y-80097140D01*
X131915680Y-80117140D01*
X132923680Y-80117140D01*
X132923680Y-79842140D01*
X132788682Y-79417462D01*
X132694211Y-79305411D01*
X148043876Y-79305411D01*
X148043876Y-80764000D01*
X148080623Y-80959294D01*
X148196042Y-81138660D01*
X148372151Y-81258990D01*
X148581200Y-81301324D01*
X148765099Y-81301324D01*
X148764979Y-81438419D01*
X148890617Y-81742486D01*
X149123052Y-81975328D01*
X149426900Y-82101496D01*
X149755901Y-82101783D01*
X150059968Y-81976145D01*
X150292810Y-81743710D01*
X150370817Y-81555847D01*
X150461490Y-81593497D01*
X150790491Y-81593784D01*
X151094558Y-81468146D01*
X151261672Y-81301324D01*
X152645200Y-81301324D01*
X152840494Y-81264577D01*
X153019860Y-81149158D01*
X153090559Y-81045686D01*
X153122873Y-81123698D01*
X153301501Y-81302327D01*
X153534890Y-81399000D01*
X154137450Y-81399000D01*
X154296200Y-81240250D01*
X154296200Y-80091000D01*
X154276200Y-80091000D01*
X154276200Y-79837000D01*
X154296200Y-79837000D01*
X154296200Y-79817000D01*
X154550200Y-79817000D01*
X154550200Y-79837000D01*
X154570200Y-79837000D01*
X154570200Y-80091000D01*
X154550200Y-80091000D01*
X154550200Y-81240250D01*
X154708950Y-81399000D01*
X155311510Y-81399000D01*
X155544899Y-81302327D01*
X155723527Y-81123698D01*
X155755987Y-81045332D01*
X155816042Y-81138660D01*
X155992151Y-81258990D01*
X156201200Y-81301324D01*
X157725200Y-81301324D01*
X157893394Y-81269676D01*
X158013278Y-81319456D01*
X158342279Y-81319743D01*
X158516008Y-81247960D01*
X158532151Y-81258990D01*
X158741200Y-81301324D01*
X160265200Y-81301324D01*
X160423787Y-81271484D01*
X160604078Y-81346347D01*
X160933079Y-81346634D01*
X161121169Y-81268917D01*
X161281200Y-81301324D01*
X162805200Y-81301324D01*
X163000494Y-81264577D01*
X163179860Y-81149158D01*
X163300190Y-80973049D01*
X163342524Y-80764000D01*
X163342524Y-79305411D01*
X167651783Y-79305411D01*
X169175172Y-80828800D01*
X169175057Y-80961179D01*
X169300695Y-81265246D01*
X169533130Y-81498088D01*
X169836978Y-81624256D01*
X170165979Y-81624543D01*
X170470046Y-81498905D01*
X170702888Y-81266470D01*
X170829056Y-80962622D01*
X170829259Y-80730287D01*
X170927772Y-80828800D01*
X170927657Y-80961179D01*
X171053295Y-81265246D01*
X171285730Y-81498088D01*
X171589578Y-81624256D01*
X171918579Y-81624543D01*
X172222646Y-81498905D01*
X172455488Y-81266470D01*
X172581656Y-80962622D01*
X172581943Y-80633621D01*
X172456305Y-80329554D01*
X172223870Y-80096712D01*
X171920022Y-79970544D01*
X171786255Y-79970427D01*
X170141548Y-78325720D01*
X173739464Y-78325720D01*
X175926825Y-80513082D01*
X175927995Y-141990648D01*
X173740644Y-144178000D01*
X82799357Y-144178000D01*
X80611995Y-141990639D01*
X80611977Y-141030152D01*
X169572536Y-141030152D01*
X169979226Y-142014418D01*
X170731621Y-142768127D01*
X171715176Y-143176535D01*
X172780152Y-143177464D01*
X173764418Y-142770774D01*
X174518127Y-142018379D01*
X174926535Y-141034824D01*
X174927464Y-139969848D01*
X174520774Y-138985582D01*
X173768379Y-138231873D01*
X172784824Y-137823465D01*
X171719848Y-137822536D01*
X170735582Y-138229226D01*
X169981873Y-138981621D01*
X169573465Y-139965176D01*
X169572536Y-141030152D01*
X80611977Y-141030152D01*
X80611737Y-128408379D01*
X85659857Y-128408379D01*
X85785495Y-128712446D01*
X86017930Y-128945288D01*
X86321778Y-129071456D01*
X86650779Y-129071743D01*
X86954846Y-128946105D01*
X87187688Y-128713670D01*
X87226200Y-128620922D01*
X87226200Y-131269772D01*
X86709600Y-131786372D01*
X86577221Y-131786257D01*
X86273154Y-131911895D01*
X86040312Y-132144330D01*
X85914144Y-132448178D01*
X85913857Y-132777179D01*
X86039495Y-133081246D01*
X86271930Y-133314088D01*
X86575778Y-133440256D01*
X86904779Y-133440543D01*
X87208846Y-133314905D01*
X87441688Y-133082470D01*
X87567856Y-132778622D01*
X87567973Y-132644855D01*
X88262414Y-131950414D01*
X88393995Y-131753489D01*
X88440200Y-131521200D01*
X88440200Y-109674628D01*
X93047425Y-105067403D01*
X93047362Y-105139501D01*
X93256556Y-105645789D01*
X93643574Y-106033483D01*
X94149496Y-106243560D01*
X94697301Y-106244038D01*
X95203589Y-106034844D01*
X95591283Y-105647826D01*
X95801360Y-105141904D01*
X95801376Y-105122701D01*
X98072762Y-105122701D01*
X98281956Y-105628989D01*
X98668974Y-106016683D01*
X99174896Y-106226760D01*
X99722701Y-106227238D01*
X100228989Y-106018044D01*
X100616683Y-105631026D01*
X100826760Y-105125104D01*
X100827238Y-104577299D01*
X100618044Y-104071011D01*
X100231026Y-103683317D01*
X99725104Y-103473240D01*
X99177299Y-103472762D01*
X98671011Y-103681956D01*
X98283317Y-104068974D01*
X98073240Y-104574896D01*
X98072762Y-105122701D01*
X95801376Y-105122701D01*
X95801838Y-104594099D01*
X95592644Y-104087811D01*
X95205626Y-103700117D01*
X94699704Y-103490040D01*
X94624853Y-103489975D01*
X97022079Y-101092749D01*
X104060024Y-101092749D01*
X103783317Y-101368974D01*
X103573240Y-101874896D01*
X103572762Y-102422701D01*
X103781956Y-102928989D01*
X104168974Y-103316683D01*
X104434679Y-103427013D01*
X104373386Y-103439205D01*
X104176461Y-103570786D01*
X101494259Y-106252988D01*
X93139612Y-106252988D01*
X92907323Y-106299193D01*
X92710398Y-106430774D01*
X92070786Y-107070386D01*
X91939205Y-107267311D01*
X91893000Y-107499600D01*
X91893000Y-113066464D01*
X91939205Y-113298753D01*
X92070786Y-113495678D01*
X95778821Y-117203713D01*
X95816201Y-117391627D01*
X95816201Y-121188813D01*
X95862406Y-121421102D01*
X95993987Y-121618027D01*
X96167000Y-121791040D01*
X96167000Y-127707406D01*
X96073312Y-127800930D01*
X95947144Y-128104778D01*
X95946857Y-128433779D01*
X96072495Y-128737846D01*
X96304930Y-128970688D01*
X96608778Y-129096856D01*
X96937779Y-129097143D01*
X97241846Y-128971505D01*
X97474688Y-128739070D01*
X97600856Y-128435222D01*
X97601143Y-128106221D01*
X97475505Y-127802154D01*
X97381000Y-127707484D01*
X97381000Y-122010433D01*
X97506569Y-122010543D01*
X97810636Y-121884905D01*
X98043478Y-121652470D01*
X98169646Y-121348622D01*
X98169933Y-121019621D01*
X98044295Y-120715554D01*
X97949790Y-120620884D01*
X97949790Y-114193958D01*
X98585647Y-114193958D01*
X98665920Y-114445259D01*
X99221279Y-114646718D01*
X99811458Y-114620315D01*
X100234080Y-114445259D01*
X100314353Y-114193958D01*
X99450000Y-113329605D01*
X98585647Y-114193958D01*
X97949790Y-114193958D01*
X97949790Y-112966638D01*
X97955075Y-112961353D01*
X97979685Y-113511458D01*
X98154741Y-113934080D01*
X98406042Y-114014353D01*
X99270395Y-113150000D01*
X99256253Y-113135858D01*
X99435858Y-112956253D01*
X99450000Y-112970395D01*
X99464143Y-112956253D01*
X99643748Y-113135858D01*
X99629605Y-113150000D01*
X100493958Y-114014353D01*
X100745259Y-113934080D01*
X100946718Y-113378721D01*
X100920315Y-112788542D01*
X100745259Y-112365920D01*
X100493960Y-112285648D01*
X100608670Y-112170938D01*
X100576132Y-112138400D01*
X100585132Y-112138400D01*
X100817421Y-112092195D01*
X101014346Y-111960614D01*
X101906230Y-111068730D01*
X101906230Y-126825943D01*
X96939200Y-131792972D01*
X96806821Y-131792857D01*
X96502754Y-131918495D01*
X96269912Y-132150930D01*
X96143744Y-132454778D01*
X96143457Y-132783779D01*
X96269095Y-133087846D01*
X96501530Y-133320688D01*
X96805378Y-133446856D01*
X97134379Y-133447143D01*
X97438446Y-133321505D01*
X97671288Y-133089070D01*
X97797456Y-132785222D01*
X97797573Y-132651455D01*
X102942441Y-127506586D01*
X102942444Y-127506584D01*
X103074025Y-127309659D01*
X103102698Y-127165511D01*
X103120231Y-127077370D01*
X103120230Y-127077365D01*
X103120230Y-117029179D01*
X106030657Y-117029179D01*
X106156295Y-117333246D01*
X106250800Y-117427916D01*
X106250800Y-127758165D01*
X106182516Y-127826330D01*
X106056348Y-128130178D01*
X106056061Y-128459179D01*
X106181699Y-128763246D01*
X106414134Y-128996088D01*
X106717982Y-129122256D01*
X107046983Y-129122543D01*
X107351050Y-128996905D01*
X107583892Y-128764470D01*
X107710060Y-128460622D01*
X107710347Y-128131621D01*
X107584709Y-127827554D01*
X107464800Y-127707435D01*
X107464800Y-121993407D01*
X107505378Y-122010256D01*
X107834379Y-122010543D01*
X108138446Y-121884905D01*
X108371288Y-121652470D01*
X108497456Y-121348622D01*
X108497573Y-121214855D01*
X112293000Y-117419428D01*
X112293000Y-126522972D01*
X107029600Y-131786372D01*
X106897221Y-131786257D01*
X106593154Y-131911895D01*
X106360312Y-132144330D01*
X106234144Y-132448178D01*
X106233857Y-132777179D01*
X106359495Y-133081246D01*
X106591930Y-133314088D01*
X106895778Y-133440256D01*
X107224779Y-133440543D01*
X107528846Y-133314905D01*
X107761688Y-133082470D01*
X107887856Y-132778622D01*
X107887973Y-132644855D01*
X113329214Y-127203614D01*
X113460795Y-127006689D01*
X113507000Y-126774400D01*
X113507000Y-112202103D01*
X116423500Y-109285602D01*
X116423500Y-116264772D01*
X116291712Y-116396330D01*
X116165544Y-116700178D01*
X116165257Y-117029179D01*
X116290895Y-117333246D01*
X116385400Y-117427916D01*
X116385400Y-127758119D01*
X116342514Y-127800930D01*
X116216346Y-128104778D01*
X116216059Y-128433779D01*
X116341697Y-128737846D01*
X116574132Y-128970688D01*
X116877980Y-129096856D01*
X117206981Y-129097143D01*
X117511048Y-128971505D01*
X117655400Y-128827405D01*
X117655400Y-131345972D01*
X117215000Y-131786372D01*
X117082621Y-131786257D01*
X116778554Y-131911895D01*
X116545712Y-132144330D01*
X116419544Y-132448178D01*
X116419257Y-132777179D01*
X116544895Y-133081246D01*
X116777330Y-133314088D01*
X117081178Y-133440256D01*
X117410179Y-133440543D01*
X117714246Y-133314905D01*
X117947088Y-133082470D01*
X118073256Y-132778622D01*
X118073373Y-132644855D01*
X118691614Y-132026614D01*
X118823195Y-131829689D01*
X118869400Y-131597400D01*
X118869400Y-111224028D01*
X120252132Y-109841295D01*
X126443002Y-109841295D01*
X126442869Y-109993377D01*
X126568507Y-110297444D01*
X126570800Y-110299741D01*
X126570800Y-116328206D01*
X126477112Y-116421730D01*
X126350944Y-116725578D01*
X126350657Y-117054579D01*
X126476295Y-117358646D01*
X126570800Y-117453316D01*
X126570800Y-127732759D01*
X126502512Y-127800928D01*
X126376344Y-128104776D01*
X126376057Y-128433777D01*
X126501695Y-128737844D01*
X126734130Y-128970686D01*
X127037978Y-129096854D01*
X127366979Y-129097141D01*
X127671046Y-128971503D01*
X127840800Y-128802046D01*
X127840800Y-131244372D01*
X127298800Y-131786372D01*
X127166421Y-131786257D01*
X126862354Y-131911895D01*
X126629512Y-132144330D01*
X126503344Y-132448178D01*
X126503057Y-132777179D01*
X126628695Y-133081246D01*
X126861130Y-133314088D01*
X127164978Y-133440256D01*
X127493979Y-133440543D01*
X127798046Y-133314905D01*
X128030888Y-133082470D01*
X128157056Y-132778622D01*
X128157173Y-132644855D01*
X128877014Y-131925014D01*
X129008595Y-131728089D01*
X129054800Y-131495800D01*
X129054800Y-111757428D01*
X129205797Y-111606431D01*
X136131885Y-111606431D01*
X136364174Y-111560226D01*
X136561099Y-111428645D01*
X136705400Y-111284344D01*
X136705400Y-116302806D01*
X136611712Y-116396330D01*
X136485544Y-116700178D01*
X136485257Y-117029179D01*
X136610895Y-117333246D01*
X136705400Y-117427916D01*
X136705400Y-127758117D01*
X136662512Y-127800930D01*
X136536344Y-128104778D01*
X136536057Y-128433779D01*
X136661695Y-128737846D01*
X136894130Y-128970688D01*
X137197978Y-129096856D01*
X137526979Y-129097143D01*
X137831046Y-128971505D01*
X138000800Y-128802048D01*
X138000800Y-131244372D01*
X137458800Y-131786372D01*
X137326421Y-131786257D01*
X137022354Y-131911895D01*
X136789512Y-132144330D01*
X136663344Y-132448178D01*
X136663057Y-132777179D01*
X136788695Y-133081246D01*
X137021130Y-133314088D01*
X137324978Y-133440256D01*
X137653979Y-133440543D01*
X137958046Y-133314905D01*
X138190888Y-133082470D01*
X138317056Y-132778622D01*
X138317173Y-132644855D01*
X139037014Y-131925014D01*
X139168595Y-131728089D01*
X139214800Y-131495800D01*
X139214800Y-111630479D01*
X140968706Y-109876573D01*
X146762988Y-109876573D01*
X146762869Y-110013362D01*
X146865400Y-110261506D01*
X146865400Y-116302806D01*
X146771712Y-116396330D01*
X146645544Y-116700178D01*
X146645257Y-117029179D01*
X146770895Y-117333246D01*
X146865400Y-117427916D01*
X146865400Y-127732761D01*
X146797112Y-127800930D01*
X146670944Y-128104778D01*
X146670657Y-128433779D01*
X146796295Y-128737846D01*
X147028730Y-128970688D01*
X147332578Y-129096856D01*
X147661579Y-129097143D01*
X147965646Y-128971505D01*
X148198488Y-128739070D01*
X148324656Y-128435222D01*
X148324943Y-128106221D01*
X148199305Y-127802154D01*
X148079400Y-127682039D01*
X148079400Y-122035767D01*
X148281169Y-122035943D01*
X148585236Y-121910305D01*
X148818078Y-121677870D01*
X148944246Y-121374022D01*
X148944533Y-121045021D01*
X148818895Y-120740954D01*
X148724390Y-120646284D01*
X148724390Y-114311706D01*
X151767600Y-111268496D01*
X151767600Y-127637572D01*
X147618800Y-131786372D01*
X147486421Y-131786257D01*
X147182354Y-131911895D01*
X146949512Y-132144330D01*
X146823344Y-132448178D01*
X146823057Y-132777179D01*
X146948695Y-133081246D01*
X147181130Y-133314088D01*
X147484978Y-133440256D01*
X147813979Y-133440543D01*
X148118046Y-133314905D01*
X148350888Y-133082470D01*
X148477056Y-132778622D01*
X148477173Y-132644855D01*
X152803814Y-128318214D01*
X152935395Y-128121289D01*
X152981601Y-127889000D01*
X152981600Y-127888995D01*
X152981600Y-110563628D01*
X154491649Y-109053579D01*
X156856057Y-109053579D01*
X156981695Y-109357646D01*
X157076200Y-109452316D01*
X157076200Y-116353517D01*
X157033312Y-116396330D01*
X156907144Y-116700178D01*
X156906857Y-117029179D01*
X157032495Y-117333246D01*
X157127000Y-117427916D01*
X157127000Y-127707406D01*
X157033312Y-127800930D01*
X156907144Y-128104778D01*
X156906857Y-128433779D01*
X157032495Y-128737846D01*
X157264930Y-128970688D01*
X157568778Y-129096856D01*
X157897779Y-129097143D01*
X158201846Y-128971505D01*
X158434688Y-128739070D01*
X158560856Y-128435222D01*
X158561143Y-128106221D01*
X158435505Y-127802154D01*
X158341000Y-127707484D01*
X158341000Y-122010331D01*
X158583579Y-122010543D01*
X158828800Y-121909220D01*
X158828800Y-130736372D01*
X157753400Y-131811772D01*
X157621021Y-131811657D01*
X157316954Y-131937295D01*
X157084112Y-132169730D01*
X156957944Y-132473578D01*
X156957657Y-132802579D01*
X157083295Y-133106646D01*
X157315730Y-133339488D01*
X157619578Y-133465656D01*
X157948579Y-133465943D01*
X158252646Y-133340305D01*
X158485488Y-133107870D01*
X158611656Y-132804022D01*
X158611773Y-132670255D01*
X159865014Y-131417014D01*
X159996595Y-131220089D01*
X160042801Y-130987800D01*
X160042800Y-130987795D01*
X160042800Y-109297858D01*
X167111087Y-102229570D01*
X167111087Y-108303586D01*
X167017399Y-108397110D01*
X166891231Y-108700958D01*
X166890944Y-109029959D01*
X167016582Y-109334026D01*
X167111087Y-109428696D01*
X167111087Y-116316021D01*
X167121197Y-116366850D01*
X167117112Y-116370928D01*
X166990944Y-116674776D01*
X166990657Y-117003777D01*
X167116295Y-117307844D01*
X167236200Y-117427959D01*
X167236200Y-127707406D01*
X167142512Y-127800930D01*
X167016344Y-128104778D01*
X167016057Y-128433779D01*
X167141695Y-128737846D01*
X167374130Y-128970688D01*
X167677978Y-129096856D01*
X168006979Y-129097143D01*
X168311046Y-128971505D01*
X168543888Y-128739070D01*
X168670056Y-128435222D01*
X168670343Y-128106221D01*
X168544705Y-127802154D01*
X168450200Y-127707484D01*
X168450200Y-121982860D01*
X168516178Y-122010256D01*
X168709400Y-122010425D01*
X168709400Y-131015772D01*
X167913400Y-131811772D01*
X167781021Y-131811657D01*
X167476954Y-131937295D01*
X167244112Y-132169730D01*
X167117944Y-132473578D01*
X167117657Y-132802579D01*
X167243295Y-133106646D01*
X167475730Y-133339488D01*
X167779578Y-133465656D01*
X168108579Y-133465943D01*
X168412646Y-133340305D01*
X168645488Y-133107870D01*
X168771656Y-132804022D01*
X168771773Y-132670255D01*
X169745614Y-131696414D01*
X169877195Y-131499489D01*
X169923400Y-131267200D01*
X169923400Y-129096976D01*
X170115179Y-129097143D01*
X170419246Y-128971505D01*
X170652088Y-128739070D01*
X170778256Y-128435222D01*
X170778373Y-128301455D01*
X172045898Y-127033930D01*
X172177479Y-126837005D01*
X172223685Y-126604716D01*
X172223684Y-126604711D01*
X172223684Y-108058766D01*
X172317372Y-107965242D01*
X172443540Y-107661394D01*
X172443827Y-107332393D01*
X172318189Y-107028326D01*
X172085754Y-106795484D01*
X171781906Y-106669316D01*
X171452905Y-106669029D01*
X171148838Y-106794667D01*
X170997926Y-106945315D01*
X170702021Y-106945057D01*
X170397954Y-107070695D01*
X170165112Y-107303130D01*
X170106999Y-107443082D01*
X170106999Y-92700004D01*
X170107000Y-92699999D01*
X170060794Y-92467710D01*
X170026985Y-92417112D01*
X170027143Y-92236221D01*
X169901505Y-91932154D01*
X169669070Y-91699312D01*
X169365222Y-91573144D01*
X169036221Y-91572857D01*
X168732154Y-91698495D01*
X168499312Y-91930930D01*
X168395410Y-92181155D01*
X168112812Y-92297922D01*
X167879970Y-92530357D01*
X167813517Y-92690393D01*
X167807300Y-92690388D01*
X167503233Y-92816026D01*
X167270391Y-93048461D01*
X167269149Y-93051453D01*
X167044421Y-93051257D01*
X166740354Y-93176895D01*
X166507512Y-93409330D01*
X166381344Y-93713178D01*
X166381057Y-94042179D01*
X166506695Y-94346246D01*
X166739130Y-94579088D01*
X167042978Y-94705256D01*
X167111087Y-94705315D01*
X167111087Y-94990798D01*
X167100916Y-94986575D01*
X166771915Y-94986288D01*
X166467848Y-95111926D01*
X166235006Y-95344361D01*
X166108838Y-95648209D01*
X166108636Y-95880247D01*
X165912189Y-96076350D01*
X165801779Y-96342248D01*
X165597093Y-96426823D01*
X165497026Y-96526715D01*
X165457934Y-96510483D01*
X165128933Y-96510196D01*
X164824866Y-96635834D01*
X164592024Y-96868269D01*
X164465856Y-97172117D01*
X164465569Y-97501118D01*
X164591207Y-97805185D01*
X164823642Y-98038027D01*
X165117446Y-98160024D01*
X165117446Y-100597126D01*
X157651800Y-108062772D01*
X157519421Y-108062657D01*
X157215354Y-108188295D01*
X156982512Y-108420730D01*
X156856344Y-108724578D01*
X156856057Y-109053579D01*
X154491649Y-109053579D01*
X163243214Y-100302014D01*
X163374795Y-100105089D01*
X163421000Y-99872800D01*
X163421000Y-99800394D01*
X163514688Y-99706870D01*
X163640856Y-99403022D01*
X163641143Y-99074021D01*
X163515505Y-98769954D01*
X163513455Y-98767901D01*
X163513845Y-98767512D01*
X163640013Y-98463664D01*
X163640300Y-98134663D01*
X163514662Y-97830596D01*
X163282227Y-97597754D01*
X163169618Y-97550995D01*
X163169618Y-97265278D01*
X163263306Y-97171754D01*
X163389474Y-96867906D01*
X163389761Y-96538905D01*
X163264123Y-96234838D01*
X163031688Y-96001996D01*
X162727840Y-95875828D01*
X162398839Y-95875541D01*
X162094772Y-96001179D01*
X162042642Y-96053218D01*
X162027542Y-96038092D01*
X161723694Y-95911924D01*
X161394693Y-95911637D01*
X161090626Y-96037275D01*
X160960147Y-96167526D01*
X160752296Y-96081219D01*
X160423295Y-96080932D01*
X160211660Y-96168378D01*
X160106343Y-96062877D01*
X159802495Y-95936709D01*
X159473494Y-95936422D01*
X159169427Y-96062060D01*
X159052488Y-96178795D01*
X159038122Y-96172830D01*
X158872576Y-96172686D01*
X158829117Y-96067506D01*
X158596682Y-95834664D01*
X158292834Y-95708496D01*
X157963833Y-95708209D01*
X157719158Y-95809307D01*
X157700789Y-95790906D01*
X157396941Y-95664738D01*
X157067940Y-95664451D01*
X156808996Y-95771445D01*
X156806070Y-95768514D01*
X156502222Y-95642346D01*
X156173221Y-95642059D01*
X155869154Y-95767697D01*
X155636312Y-96000132D01*
X155510144Y-96303980D01*
X155509863Y-96626508D01*
X155436020Y-96552536D01*
X155132172Y-96426368D01*
X154803171Y-96426081D01*
X154499104Y-96551719D01*
X154366938Y-96683654D01*
X154151722Y-96594289D01*
X153822721Y-96594002D01*
X153518654Y-96719640D01*
X153377207Y-96860840D01*
X153323877Y-96807416D01*
X153020029Y-96681248D01*
X152691028Y-96680961D01*
X152536955Y-96744623D01*
X152502111Y-96709718D01*
X152198263Y-96583550D01*
X151869262Y-96583263D01*
X151565195Y-96708901D01*
X151332353Y-96941336D01*
X151206185Y-97245184D01*
X151206026Y-97427562D01*
X151172247Y-97478116D01*
X151126042Y-97710405D01*
X151126042Y-99983530D01*
X148567172Y-102542400D01*
X137363200Y-102542400D01*
X137130911Y-102588605D01*
X136933986Y-102720186D01*
X134266973Y-105387199D01*
X115697001Y-105387199D01*
X115464712Y-105433404D01*
X115267787Y-105564985D01*
X114579785Y-106252987D01*
X108786013Y-106252987D01*
X108553724Y-106299192D01*
X108356799Y-106430773D01*
X106428586Y-108358986D01*
X106297005Y-108555911D01*
X106250800Y-108788200D01*
X106250800Y-116302806D01*
X106157112Y-116396330D01*
X106030944Y-116700178D01*
X106030657Y-117029179D01*
X103120230Y-117029179D01*
X103120230Y-109218598D01*
X107216127Y-105122701D01*
X109172762Y-105122701D01*
X109381956Y-105628989D01*
X109768974Y-106016683D01*
X110274896Y-106226760D01*
X110822701Y-106227238D01*
X111328989Y-106018044D01*
X111716683Y-105631026D01*
X111926760Y-105125104D01*
X111927238Y-104577299D01*
X111718044Y-104071011D01*
X111331026Y-103683317D01*
X110825104Y-103473240D01*
X110277299Y-103472762D01*
X109771011Y-103681956D01*
X109383317Y-104068974D01*
X109173240Y-104574896D01*
X109172762Y-105122701D01*
X107216127Y-105122701D01*
X109446028Y-102892800D01*
X113642172Y-102892800D01*
X115013784Y-104264411D01*
X115013786Y-104264414D01*
X115130577Y-104342451D01*
X115210711Y-104395995D01*
X115443000Y-104442200D01*
X132496276Y-104442200D01*
X132728565Y-104395995D01*
X132925490Y-104264414D01*
X136303704Y-100886200D01*
X146706606Y-100886200D01*
X146800130Y-100979888D01*
X147103978Y-101106056D01*
X147432979Y-101106343D01*
X147737046Y-100980705D01*
X147969888Y-100748270D01*
X148096056Y-100444422D01*
X148096343Y-100115421D01*
X148079495Y-100074647D01*
X148235342Y-100010252D01*
X148468184Y-99777817D01*
X148594352Y-99473969D01*
X148594639Y-99144968D01*
X148469001Y-98840901D01*
X148406204Y-98777994D01*
X148814806Y-98777994D01*
X148908330Y-98871682D01*
X149212178Y-98997850D01*
X149541179Y-98998137D01*
X149845246Y-98872499D01*
X150078088Y-98640064D01*
X150204256Y-98336216D01*
X150204543Y-98007215D01*
X150078905Y-97703148D01*
X149960819Y-97584855D01*
X150185818Y-97360249D01*
X150311986Y-97056401D01*
X150312273Y-96727400D01*
X150264210Y-96611080D01*
X150695609Y-96179680D01*
X150695612Y-96179678D01*
X150827193Y-95982753D01*
X150839065Y-95923067D01*
X150967086Y-95795270D01*
X151069162Y-95549443D01*
X151279064Y-95636602D01*
X151608065Y-95636889D01*
X151912132Y-95511251D01*
X152144974Y-95278816D01*
X152271142Y-94974968D01*
X152271429Y-94645967D01*
X152145791Y-94341900D01*
X152016943Y-94212826D01*
X152016125Y-94208715D01*
X152867744Y-94208715D01*
X152956728Y-94424073D01*
X153189163Y-94656915D01*
X153493011Y-94783083D01*
X153822012Y-94783370D01*
X154126079Y-94657732D01*
X154160800Y-94623071D01*
X154285678Y-94674925D01*
X154614679Y-94675212D01*
X154918746Y-94549574D01*
X155151588Y-94317139D01*
X155277756Y-94013291D01*
X155278043Y-93684290D01*
X155178631Y-93443695D01*
X160673944Y-93443695D01*
X160906233Y-93397490D01*
X161103158Y-93265909D01*
X162441306Y-91927761D01*
X162573685Y-91927876D01*
X162877752Y-91802238D01*
X163110594Y-91569803D01*
X163236762Y-91265955D01*
X163237049Y-90936954D01*
X163111411Y-90632887D01*
X162878976Y-90400045D01*
X162575128Y-90273877D01*
X162246127Y-90273590D01*
X161953573Y-90394471D01*
X161682990Y-90282116D01*
X161353989Y-90281829D01*
X161049922Y-90407467D01*
X160817080Y-90639902D01*
X160690912Y-90943750D01*
X160690795Y-91077517D01*
X159901668Y-91866644D01*
X158128352Y-91866644D01*
X160390691Y-89604305D01*
X160522272Y-89407380D01*
X160568477Y-89175091D01*
X160568477Y-87594464D01*
X160662165Y-87500940D01*
X160720380Y-87360741D01*
X160772964Y-87360787D01*
X161077031Y-87235149D01*
X161309873Y-87002714D01*
X161371699Y-86853818D01*
X161427391Y-86853867D01*
X161731458Y-86728229D01*
X161964300Y-86495794D01*
X162090468Y-86191946D01*
X162090755Y-85862945D01*
X161965117Y-85558878D01*
X161732682Y-85326036D01*
X161428834Y-85199868D01*
X161246456Y-85199709D01*
X161195902Y-85165930D01*
X160963613Y-85119725D01*
X159723447Y-85119725D01*
X159491158Y-85165930D01*
X159294233Y-85297511D01*
X156964397Y-87627347D01*
X156832816Y-87824272D01*
X156786611Y-88056561D01*
X156786611Y-89964133D01*
X156324144Y-90426600D01*
X150915596Y-90426600D01*
X150915741Y-90260221D01*
X150790103Y-89956154D01*
X150557668Y-89723312D01*
X150253820Y-89597144D01*
X149924819Y-89596857D01*
X149620752Y-89722495D01*
X149526082Y-89817000D01*
X148488405Y-89817000D01*
X148488400Y-89816999D01*
X148256111Y-89863205D01*
X148059186Y-89994786D01*
X146980341Y-91073631D01*
X140526451Y-91073631D01*
X140596348Y-90905299D01*
X140596791Y-90397051D01*
X140402703Y-89927320D01*
X140043630Y-89567620D01*
X139574239Y-89372712D01*
X139065991Y-89372269D01*
X138596260Y-89566357D01*
X138236560Y-89925430D01*
X138041652Y-90394821D01*
X138041209Y-90903069D01*
X138111683Y-91073631D01*
X129320859Y-91073631D01*
X126972014Y-88724786D01*
X126775089Y-88593205D01*
X126542800Y-88547000D01*
X120038270Y-88547000D01*
X119805981Y-88593205D01*
X119609056Y-88724786D01*
X115208406Y-93125436D01*
X115076027Y-93125321D01*
X114771960Y-93250959D01*
X114539118Y-93483394D01*
X114412950Y-93787242D01*
X114412663Y-94116243D01*
X114538301Y-94420310D01*
X114770736Y-94653152D01*
X115074584Y-94779320D01*
X115403585Y-94779607D01*
X115707652Y-94653969D01*
X115940494Y-94421534D01*
X116066662Y-94117686D01*
X116066779Y-93983919D01*
X119675953Y-90374745D01*
X119680537Y-90399108D01*
X119651276Y-90543600D01*
X119651276Y-91343600D01*
X119680537Y-91499108D01*
X119651276Y-91643600D01*
X119651276Y-92443600D01*
X119680537Y-92599108D01*
X119651276Y-92743600D01*
X119651276Y-93543600D01*
X119680537Y-93699108D01*
X119651276Y-93843600D01*
X119651276Y-94582899D01*
X119650273Y-94583902D01*
X119553600Y-94817291D01*
X119553600Y-95057850D01*
X119712350Y-95216600D01*
X120811600Y-95216600D01*
X120811600Y-95196600D01*
X121065600Y-95196600D01*
X121065600Y-95216600D01*
X122164850Y-95216600D01*
X122323600Y-95057850D01*
X122323600Y-94850600D01*
X128242572Y-94850600D01*
X127476600Y-95616572D01*
X127344221Y-95616457D01*
X127040154Y-95742095D01*
X126990562Y-95791600D01*
X122323600Y-95791600D01*
X122323600Y-95629350D01*
X122164850Y-95470600D01*
X121065600Y-95470600D01*
X121065600Y-95490600D01*
X120811600Y-95490600D01*
X120811600Y-95470600D01*
X119712350Y-95470600D01*
X119553600Y-95629350D01*
X119553600Y-95869909D01*
X119650273Y-96103298D01*
X119651276Y-96104301D01*
X119651276Y-96843600D01*
X119680537Y-96999108D01*
X119651276Y-97143600D01*
X119651276Y-97292848D01*
X118929214Y-96570786D01*
X118732289Y-96439205D01*
X118500000Y-96393000D01*
X93991405Y-96393000D01*
X93991400Y-96392999D01*
X93759111Y-96439205D01*
X93562186Y-96570786D01*
X89271568Y-100861404D01*
X89099704Y-100790040D01*
X88551899Y-100789562D01*
X88045611Y-100998756D01*
X87657917Y-101385774D01*
X87447840Y-101891696D01*
X87447362Y-102439501D01*
X87656556Y-102945789D01*
X88043574Y-103333483D01*
X88549496Y-103543560D01*
X89097301Y-103544038D01*
X89603589Y-103334844D01*
X89991283Y-102947826D01*
X90201360Y-102441904D01*
X90201838Y-101894099D01*
X90129880Y-101719948D01*
X94242828Y-97607000D01*
X118248572Y-97607000D01*
X119205172Y-98563600D01*
X118624350Y-98563600D01*
X118465600Y-98722350D01*
X118465600Y-99796600D01*
X119814850Y-99796600D01*
X119973600Y-99637850D01*
X119973600Y-99322334D01*
X120141310Y-99434394D01*
X120373599Y-99480599D01*
X125003600Y-99480599D01*
X125003600Y-99637850D01*
X125162350Y-99796600D01*
X126511600Y-99796600D01*
X126511600Y-99776600D01*
X126765600Y-99776600D01*
X126765600Y-99796600D01*
X128114850Y-99796600D01*
X128273600Y-99637850D01*
X128273600Y-99480599D01*
X130867013Y-99480599D01*
X129999500Y-100348112D01*
X128273600Y-100348112D01*
X128273600Y-100209350D01*
X128114850Y-100050600D01*
X126765600Y-100050600D01*
X126765600Y-100070600D01*
X126511600Y-100070600D01*
X126511600Y-100050600D01*
X125162350Y-100050600D01*
X125003600Y-100209350D01*
X125003600Y-100348112D01*
X119973600Y-100348112D01*
X119973600Y-100209350D01*
X119814850Y-100050600D01*
X118465600Y-100050600D01*
X118465600Y-100070600D01*
X118211600Y-100070600D01*
X118211600Y-100050600D01*
X116862350Y-100050600D01*
X116726115Y-100186836D01*
X115611570Y-99072291D01*
X116703600Y-99072291D01*
X116703600Y-99637850D01*
X116862350Y-99796600D01*
X118211600Y-99796600D01*
X118211600Y-98722350D01*
X118052850Y-98563600D01*
X117212290Y-98563600D01*
X116978901Y-98660273D01*
X116800273Y-98838902D01*
X116703600Y-99072291D01*
X115611570Y-99072291D01*
X115295784Y-98756505D01*
X115098859Y-98624924D01*
X114866570Y-98578719D01*
X106988594Y-98578719D01*
X106895070Y-98485031D01*
X106591222Y-98358863D01*
X106262221Y-98358576D01*
X105958154Y-98484214D01*
X105725312Y-98716649D01*
X105599144Y-99020497D01*
X105599023Y-99158730D01*
X96217848Y-99158730D01*
X95985559Y-99204935D01*
X95788634Y-99336516D01*
X86083184Y-109041966D01*
X85951603Y-109238891D01*
X85905398Y-109471180D01*
X85905398Y-116302806D01*
X85811710Y-116396330D01*
X85685542Y-116700178D01*
X85685255Y-117029179D01*
X85810893Y-117333246D01*
X85880000Y-117402474D01*
X85880000Y-127682006D01*
X85786312Y-127775530D01*
X85660144Y-128079378D01*
X85659857Y-128408379D01*
X80611737Y-128408379D01*
X80611467Y-114210758D01*
X82460247Y-114210758D01*
X82540520Y-114462059D01*
X83095879Y-114663518D01*
X83686058Y-114637115D01*
X84108680Y-114462059D01*
X84188953Y-114210758D01*
X83324600Y-113346405D01*
X82460247Y-114210758D01*
X80611467Y-114210758D01*
X80611442Y-112938079D01*
X81827882Y-112938079D01*
X81854285Y-113528258D01*
X82029341Y-113950880D01*
X82280642Y-114031153D01*
X83144995Y-113166800D01*
X83504205Y-113166800D01*
X84368558Y-114031153D01*
X84619859Y-113950880D01*
X84821318Y-113395521D01*
X84794915Y-112805342D01*
X84619859Y-112382720D01*
X84368558Y-112302447D01*
X83504205Y-113166800D01*
X83144995Y-113166800D01*
X82280642Y-112302447D01*
X82029341Y-112382720D01*
X81827882Y-112938079D01*
X80611442Y-112938079D01*
X80611427Y-112122842D01*
X82460247Y-112122842D01*
X83324600Y-112987195D01*
X84188953Y-112122842D01*
X84108680Y-111871541D01*
X83553321Y-111670082D01*
X82963142Y-111696485D01*
X82540520Y-111871541D01*
X82460247Y-112122842D01*
X80611427Y-112122842D01*
X80611375Y-109418226D01*
X80847249Y-109418226D01*
X81155191Y-110163503D01*
X81724898Y-110734205D01*
X82469636Y-111043447D01*
X83276026Y-111044151D01*
X84021303Y-110736209D01*
X84592005Y-110166502D01*
X84901247Y-109421764D01*
X84901951Y-108615374D01*
X84594009Y-107870097D01*
X84024302Y-107299395D01*
X83279564Y-106990153D01*
X82473174Y-106989449D01*
X81727897Y-107297391D01*
X81157195Y-107867098D01*
X80847953Y-108611836D01*
X80847249Y-109418226D01*
X80611375Y-109418226D01*
X80611294Y-105139501D01*
X81947362Y-105139501D01*
X82156556Y-105645789D01*
X82543574Y-106033483D01*
X83049496Y-106243560D01*
X83597301Y-106244038D01*
X84103589Y-106034844D01*
X84491283Y-105647826D01*
X84701360Y-105141904D01*
X84701838Y-104594099D01*
X84492644Y-104087811D01*
X84105626Y-103700117D01*
X83599704Y-103490040D01*
X83051899Y-103489562D01*
X82545611Y-103698756D01*
X82157917Y-104085774D01*
X81947840Y-104591696D01*
X81947362Y-105139501D01*
X80611294Y-105139501D01*
X80611051Y-92403077D01*
X80783902Y-92575927D01*
X81017291Y-92672600D01*
X81857850Y-92672600D01*
X82016600Y-92513850D01*
X82016600Y-91414600D01*
X82270600Y-91414600D01*
X82270600Y-92513850D01*
X82429350Y-92672600D01*
X83269909Y-92672600D01*
X83503298Y-92575927D01*
X83681927Y-92397299D01*
X83778600Y-92163910D01*
X83778600Y-91573350D01*
X83619850Y-91414600D01*
X82270600Y-91414600D01*
X82016600Y-91414600D01*
X81996600Y-91414600D01*
X81996600Y-91160600D01*
X82016600Y-91160600D01*
X82016600Y-90061350D01*
X82270600Y-90061350D01*
X82270600Y-91160600D01*
X83619850Y-91160600D01*
X83778600Y-91001850D01*
X83778600Y-90411290D01*
X83681927Y-90177901D01*
X83503298Y-89999273D01*
X83269909Y-89902600D01*
X82429350Y-89902600D01*
X82270600Y-90061350D01*
X82016600Y-90061350D01*
X81857850Y-89902600D01*
X81017291Y-89902600D01*
X80783902Y-89999273D01*
X80611009Y-90172165D01*
X80610887Y-83802913D01*
X80783902Y-83975927D01*
X81017291Y-84072600D01*
X81857850Y-84072600D01*
X82016600Y-83913850D01*
X82016600Y-82814600D01*
X82270600Y-82814600D01*
X82270600Y-83913850D01*
X82429350Y-84072600D01*
X83269909Y-84072600D01*
X83503298Y-83975927D01*
X83681927Y-83797299D01*
X83778600Y-83563910D01*
X83778600Y-82973350D01*
X83619850Y-82814600D01*
X82270600Y-82814600D01*
X82016600Y-82814600D01*
X81996600Y-82814600D01*
X81996600Y-82560600D01*
X82016600Y-82560600D01*
X82016600Y-81461350D01*
X82270600Y-81461350D01*
X82270600Y-82560600D01*
X83619850Y-82560600D01*
X83778600Y-82401850D01*
X83778600Y-81811290D01*
X83681927Y-81577901D01*
X83503298Y-81399273D01*
X83269909Y-81302600D01*
X82429350Y-81302600D01*
X82270600Y-81461350D01*
X82016600Y-81461350D01*
X81857850Y-81302600D01*
X81017291Y-81302600D01*
X80783902Y-81399273D01*
X80610845Y-81572329D01*
X80610825Y-80510531D01*
X82795637Y-78325720D01*
X95657052Y-78325720D01*
X92394840Y-81587932D01*
M02*
