G04 #@! TF.FileFunction,Soldermask,Bot*
%FSLAX46Y46*%
G04 Gerber Fmt 4.6, Leading zero omitted, Abs format (unit mm)*
G04 Created by KiCad (PCBNEW 4.0.6-e0-6349~52~ubuntu16.10.1) date Mon May  8 18:25:15 2017*
%MOMM*%
%LPD*%
G01*
G04 APERTURE LIST*
%ADD10C,0.100000*%
%ADD11O,3.174980X1.666220*%
%ADD12O,1.410000X1.110000*%
%ADD13O,1.160000X1.710000*%
%ADD14C,1.661140*%
%ADD15R,2.160000X1.660000*%
%ADD16R,2.160000X1.610000*%
%ADD17R,1.660000X0.960000*%
%ADD18C,4.460000*%
%ADD19R,1.887200X2.192000*%
%ADD20O,1.887200X2.192000*%
%ADD21R,1.684000X1.760000*%
%ADD22C,1.860000*%
%ADD23C,3.160000*%
G04 APERTURE END LIST*
D10*
D11*
X109949200Y-87720000D03*
X109949200Y-85180000D03*
D12*
X130788680Y-82944140D03*
X125788680Y-82944140D03*
D13*
X131788680Y-80244140D03*
X124788680Y-80244140D03*
D14*
X139319000Y-90650060D03*
X139319000Y-95531940D03*
D15*
X174345600Y-83000000D03*
X165495600Y-83000000D03*
X174345600Y-91600000D03*
X165495600Y-91600000D03*
X82143600Y-91287600D03*
X90993600Y-91287600D03*
X82143600Y-82687600D03*
X90993600Y-82687600D03*
D16*
X118338600Y-99923600D03*
X118338600Y-86173600D03*
X126638600Y-99923600D03*
X126638600Y-86173600D03*
D17*
X120938600Y-97543600D03*
X120938600Y-96443600D03*
X120938600Y-95343600D03*
X120938600Y-94243600D03*
X120938600Y-93143600D03*
X120938600Y-92043600D03*
X120938600Y-90943600D03*
X120938600Y-89843600D03*
D18*
X172250000Y-140500000D03*
D19*
X116431800Y-82062000D03*
D20*
X113891800Y-82062000D03*
X111351800Y-82062000D03*
X108811800Y-82062000D03*
D21*
X149343200Y-79964000D03*
X151883200Y-79964000D03*
X154423200Y-79964000D03*
X156963200Y-79964000D03*
X159503200Y-79964000D03*
X162043200Y-79964000D03*
D22*
X104950000Y-102150000D03*
X110950000Y-112350000D03*
X99450000Y-113150000D03*
X110550000Y-104850000D03*
X99450000Y-104850000D03*
D23*
X99000000Y-109000000D03*
X111000000Y-109000000D03*
D22*
X88824600Y-102166800D03*
X94824600Y-112366800D03*
X83324600Y-113166800D03*
X94424600Y-104866800D03*
X83324600Y-104866800D03*
D23*
X82874600Y-109016800D03*
X94874600Y-109016800D03*
M02*
