G04 #@! TF.FileFunction,Legend,Top*
%FSLAX46Y46*%
G04 Gerber Fmt 4.6, Leading zero omitted, Abs format (unit mm)*
G04 Created by KiCad (PCBNEW 4.0.6-e0-6349~52~ubuntu16.10.1) date Mon May  8 18:25:15 2017*
%MOMM*%
%LPD*%
G01*
G04 APERTURE LIST*
%ADD10C,0.100000*%
%ADD11C,0.200000*%
%ADD12C,0.150000*%
%ADD13C,0.300000*%
%ADD14C,1.000000*%
%ADD15C,0.010000*%
%ADD16C,0.120000*%
%ADD17C,0.125000*%
%ADD18C,0.254000*%
G04 APERTURE END LIST*
D10*
D11*
X104754020Y-79436260D02*
X104754020Y-86936260D01*
X104754020Y-86936260D02*
X81754020Y-86936260D01*
X81754020Y-79436260D02*
X104754020Y-79436260D01*
X81754020Y-86936260D02*
X81754020Y-79436260D01*
D12*
X109713381Y-79426790D02*
X109599095Y-79388695D01*
X109408619Y-79388695D01*
X109332429Y-79426790D01*
X109294333Y-79464886D01*
X109256238Y-79541076D01*
X109256238Y-79617267D01*
X109294333Y-79693457D01*
X109332429Y-79731552D01*
X109408619Y-79769648D01*
X109561000Y-79807743D01*
X109637191Y-79845838D01*
X109675286Y-79883933D01*
X109713381Y-79960124D01*
X109713381Y-80036314D01*
X109675286Y-80112505D01*
X109637191Y-80150600D01*
X109561000Y-80188695D01*
X109370524Y-80188695D01*
X109256238Y-80150600D01*
X108456238Y-79464886D02*
X108494333Y-79426790D01*
X108608619Y-79388695D01*
X108684809Y-79388695D01*
X108799095Y-79426790D01*
X108875286Y-79502981D01*
X108913381Y-79579171D01*
X108951476Y-79731552D01*
X108951476Y-79845838D01*
X108913381Y-79998219D01*
X108875286Y-80074410D01*
X108799095Y-80150600D01*
X108684809Y-80188695D01*
X108608619Y-80188695D01*
X108494333Y-80150600D01*
X108456238Y-80112505D01*
X107732428Y-79388695D02*
X108113381Y-79388695D01*
X108113381Y-80188695D01*
X112247028Y-79426790D02*
X112132742Y-79388695D01*
X111942266Y-79388695D01*
X111866076Y-79426790D01*
X111827980Y-79464886D01*
X111789885Y-79541076D01*
X111789885Y-79617267D01*
X111827980Y-79693457D01*
X111866076Y-79731552D01*
X111942266Y-79769648D01*
X112094647Y-79807743D01*
X112170838Y-79845838D01*
X112208933Y-79883933D01*
X112247028Y-79960124D01*
X112247028Y-80036314D01*
X112208933Y-80112505D01*
X112170838Y-80150600D01*
X112094647Y-80188695D01*
X111904171Y-80188695D01*
X111789885Y-80150600D01*
X111447028Y-79388695D02*
X111447028Y-80188695D01*
X111256552Y-80188695D01*
X111142266Y-80150600D01*
X111066075Y-80074410D01*
X111027980Y-79998219D01*
X110989885Y-79845838D01*
X110989885Y-79731552D01*
X111027980Y-79579171D01*
X111066075Y-79502981D01*
X111142266Y-79426790D01*
X111256552Y-79388695D01*
X111447028Y-79388695D01*
X110685123Y-79617267D02*
X110304171Y-79617267D01*
X110761314Y-79388695D02*
X110494647Y-80188695D01*
X110227980Y-79388695D01*
X114831476Y-80188695D02*
X114336238Y-80188695D01*
X114602905Y-79883933D01*
X114488619Y-79883933D01*
X114412429Y-79845838D01*
X114374333Y-79807743D01*
X114336238Y-79731552D01*
X114336238Y-79541076D01*
X114374333Y-79464886D01*
X114412429Y-79426790D01*
X114488619Y-79388695D01*
X114717191Y-79388695D01*
X114793381Y-79426790D01*
X114831476Y-79464886D01*
X114107667Y-80188695D02*
X113841000Y-79388695D01*
X113574333Y-80188695D01*
X113383857Y-80188695D02*
X112888619Y-80188695D01*
X113155286Y-79883933D01*
X113041000Y-79883933D01*
X112964810Y-79845838D01*
X112926714Y-79807743D01*
X112888619Y-79731552D01*
X112888619Y-79541076D01*
X112926714Y-79464886D01*
X112964810Y-79426790D01*
X113041000Y-79388695D01*
X113269572Y-79388695D01*
X113345762Y-79426790D01*
X113383857Y-79464886D01*
X116990523Y-80125200D02*
X117066714Y-80163295D01*
X117180999Y-80163295D01*
X117295285Y-80125200D01*
X117371476Y-80049010D01*
X117409571Y-79972819D01*
X117447666Y-79820438D01*
X117447666Y-79706152D01*
X117409571Y-79553771D01*
X117371476Y-79477581D01*
X117295285Y-79401390D01*
X117180999Y-79363295D01*
X117104809Y-79363295D01*
X116990523Y-79401390D01*
X116952428Y-79439486D01*
X116952428Y-79706152D01*
X117104809Y-79706152D01*
X116609571Y-79363295D02*
X116609571Y-80163295D01*
X116152428Y-79363295D01*
X116152428Y-80163295D01*
X115771476Y-79363295D02*
X115771476Y-80163295D01*
X115581000Y-80163295D01*
X115466714Y-80125200D01*
X115390523Y-80049010D01*
X115352428Y-79972819D01*
X115314333Y-79820438D01*
X115314333Y-79706152D01*
X115352428Y-79553771D01*
X115390523Y-79477581D01*
X115466714Y-79401390D01*
X115581000Y-79363295D01*
X115771476Y-79363295D01*
D11*
X149991914Y-80386181D02*
X149991914Y-79386181D01*
X150230009Y-79386181D01*
X150372867Y-79433800D01*
X150468105Y-79529038D01*
X150515724Y-79624276D01*
X150563343Y-79814752D01*
X150563343Y-79957610D01*
X150515724Y-80148086D01*
X150468105Y-80243324D01*
X150372867Y-80338562D01*
X150230009Y-80386181D01*
X149991914Y-80386181D01*
X151325248Y-79862371D02*
X150991914Y-79862371D01*
X150991914Y-80386181D02*
X150991914Y-79386181D01*
X151468105Y-79386181D01*
X151849057Y-79386181D02*
X151849057Y-80195705D01*
X151896676Y-80290943D01*
X151944295Y-80338562D01*
X152039533Y-80386181D01*
X152230010Y-80386181D01*
X152325248Y-80338562D01*
X152372867Y-80290943D01*
X152420486Y-80195705D01*
X152420486Y-79386181D01*
X172466000Y-118110000D02*
X172720000Y-118364000D01*
X172720000Y-117856000D02*
X172466000Y-118110000D01*
X172720000Y-117348000D02*
X172212000Y-117856000D01*
X171958000Y-117602000D02*
X172720000Y-116840000D01*
X172212000Y-117856000D02*
X171958000Y-117602000D01*
X172212000Y-117094000D02*
X172212000Y-117856000D01*
X172466000Y-116840000D02*
X172212000Y-117094000D01*
X172466000Y-118364000D02*
X172466000Y-116840000D01*
X172720000Y-118364000D02*
X172466000Y-118364000D01*
X172720000Y-117602000D02*
X172720000Y-118364000D01*
X172212000Y-118110000D02*
X172720000Y-117602000D01*
X172720000Y-117094000D02*
X172212000Y-117602000D01*
X171958000Y-117856000D02*
X172720000Y-117094000D01*
X161950400Y-104140000D02*
X161950400Y-105410000D01*
X123850400Y-104140000D02*
X113055400Y-104140000D01*
X161950400Y-104140000D02*
X123850400Y-104140000D01*
X113055400Y-104140000D02*
X113055400Y-105664000D01*
X82550000Y-116332000D02*
X163830000Y-116332000D01*
X82550000Y-140208000D02*
X82550000Y-116332000D01*
X163830000Y-140208000D02*
X82550000Y-140208000D01*
X163830000Y-116332000D02*
X163830000Y-140208000D01*
X162052000Y-119126000D02*
X162052000Y-117094000D01*
X162052000Y-117094000D02*
X161544000Y-117602000D01*
X162052000Y-117094000D02*
X162560000Y-117602000D01*
X90932000Y-119126000D02*
X90424000Y-118618000D01*
X90932000Y-119126000D02*
X91440000Y-118618000D01*
X90932000Y-117094000D02*
X90932000Y-119126000D01*
D13*
X154897972Y-105810857D02*
X155397972Y-105810857D01*
X155612258Y-106596571D02*
X154897972Y-106596571D01*
X154897972Y-105096571D01*
X155612258Y-105096571D01*
X144666543Y-106596571D02*
X144666543Y-105096571D01*
X145023686Y-105096571D01*
X145237971Y-105168000D01*
X145380829Y-105310857D01*
X145452257Y-105453714D01*
X145523686Y-105739429D01*
X145523686Y-105953714D01*
X145452257Y-106239429D01*
X145380829Y-106382286D01*
X145237971Y-106525143D01*
X145023686Y-106596571D01*
X144666543Y-106596571D01*
X135363686Y-106453714D02*
X135292257Y-106525143D01*
X135077971Y-106596571D01*
X134935114Y-106596571D01*
X134720829Y-106525143D01*
X134577971Y-106382286D01*
X134506543Y-106239429D01*
X134435114Y-105953714D01*
X134435114Y-105739429D01*
X134506543Y-105453714D01*
X134577971Y-105310857D01*
X134720829Y-105168000D01*
X134935114Y-105096571D01*
X135077971Y-105096571D01*
X135292257Y-105168000D01*
X135363686Y-105239429D01*
X124846543Y-105810857D02*
X125060829Y-105882286D01*
X125132257Y-105953714D01*
X125203686Y-106096571D01*
X125203686Y-106310857D01*
X125132257Y-106453714D01*
X125060829Y-106525143D01*
X124917971Y-106596571D01*
X124346543Y-106596571D01*
X124346543Y-105096571D01*
X124846543Y-105096571D01*
X124989400Y-105168000D01*
X125060829Y-105239429D01*
X125132257Y-105382286D01*
X125132257Y-105525143D01*
X125060829Y-105668000D01*
X124989400Y-105739429D01*
X124846543Y-105810857D01*
X124346543Y-105810857D01*
X114222257Y-106168000D02*
X114936543Y-106168000D01*
X114079400Y-106596571D02*
X114579400Y-105096571D01*
X115079400Y-106596571D01*
X171966001Y-105302857D02*
X171466001Y-105302857D01*
X171466001Y-106088571D02*
X171466001Y-104588571D01*
X172180287Y-104588571D01*
X172608858Y-104588571D02*
X173608858Y-106088571D01*
X173608858Y-104588571D02*
X172608858Y-106088571D01*
X154908286Y-129964571D02*
X154051143Y-129964571D01*
X154479715Y-129964571D02*
X154479715Y-128464571D01*
X154336858Y-128678857D01*
X154194000Y-128821714D01*
X154051143Y-128893143D01*
X156194000Y-128464571D02*
X155908286Y-128464571D01*
X155765429Y-128536000D01*
X155694000Y-128607429D01*
X155551143Y-128821714D01*
X155479714Y-129107429D01*
X155479714Y-129678857D01*
X155551143Y-129821714D01*
X155622571Y-129893143D01*
X155765429Y-129964571D01*
X156051143Y-129964571D01*
X156194000Y-129893143D01*
X156265429Y-129821714D01*
X156336857Y-129678857D01*
X156336857Y-129321714D01*
X156265429Y-129178857D01*
X156194000Y-129107429D01*
X156051143Y-129036000D01*
X155765429Y-129036000D01*
X155622571Y-129107429D01*
X155551143Y-129178857D01*
X155479714Y-129321714D01*
X144748286Y-129964571D02*
X143891143Y-129964571D01*
X144319715Y-129964571D02*
X144319715Y-128464571D01*
X144176858Y-128678857D01*
X144034000Y-128821714D01*
X143891143Y-128893143D01*
X146105429Y-128464571D02*
X145391143Y-128464571D01*
X145319714Y-129178857D01*
X145391143Y-129107429D01*
X145534000Y-129036000D01*
X145891143Y-129036000D01*
X146034000Y-129107429D01*
X146105429Y-129178857D01*
X146176857Y-129321714D01*
X146176857Y-129678857D01*
X146105429Y-129821714D01*
X146034000Y-129893143D01*
X145891143Y-129964571D01*
X145534000Y-129964571D01*
X145391143Y-129893143D01*
X145319714Y-129821714D01*
X134588286Y-129964571D02*
X133731143Y-129964571D01*
X134159715Y-129964571D02*
X134159715Y-128464571D01*
X134016858Y-128678857D01*
X133874000Y-128821714D01*
X133731143Y-128893143D01*
X135874000Y-128964571D02*
X135874000Y-129964571D01*
X135516857Y-128393143D02*
X135159714Y-129464571D01*
X136088286Y-129464571D01*
X124428286Y-129964571D02*
X123571143Y-129964571D01*
X123999715Y-129964571D02*
X123999715Y-128464571D01*
X123856858Y-128678857D01*
X123714000Y-128821714D01*
X123571143Y-128893143D01*
X124928286Y-128464571D02*
X125856857Y-128464571D01*
X125356857Y-129036000D01*
X125571143Y-129036000D01*
X125714000Y-129107429D01*
X125785429Y-129178857D01*
X125856857Y-129321714D01*
X125856857Y-129678857D01*
X125785429Y-129821714D01*
X125714000Y-129893143D01*
X125571143Y-129964571D01*
X125142571Y-129964571D01*
X124999714Y-129893143D01*
X124928286Y-129821714D01*
X114268286Y-129964571D02*
X113411143Y-129964571D01*
X113839715Y-129964571D02*
X113839715Y-128464571D01*
X113696858Y-128678857D01*
X113554000Y-128821714D01*
X113411143Y-128893143D01*
X114839714Y-128607429D02*
X114911143Y-128536000D01*
X115054000Y-128464571D01*
X115411143Y-128464571D01*
X115554000Y-128536000D01*
X115625429Y-128607429D01*
X115696857Y-128750286D01*
X115696857Y-128893143D01*
X115625429Y-129107429D01*
X114768286Y-129964571D01*
X115696857Y-129964571D01*
X104108286Y-129964571D02*
X103251143Y-129964571D01*
X103679715Y-129964571D02*
X103679715Y-128464571D01*
X103536858Y-128678857D01*
X103394000Y-128821714D01*
X103251143Y-128893143D01*
X105536857Y-129964571D02*
X104679714Y-129964571D01*
X105108286Y-129964571D02*
X105108286Y-128464571D01*
X104965429Y-128678857D01*
X104822571Y-128821714D01*
X104679714Y-128893143D01*
X93948286Y-129964571D02*
X93091143Y-129964571D01*
X93519715Y-129964571D02*
X93519715Y-128464571D01*
X93376858Y-128678857D01*
X93234000Y-128821714D01*
X93091143Y-128893143D01*
X94876857Y-128464571D02*
X95019714Y-128464571D01*
X95162571Y-128536000D01*
X95234000Y-128607429D01*
X95305429Y-128750286D01*
X95376857Y-129036000D01*
X95376857Y-129393143D01*
X95305429Y-129678857D01*
X95234000Y-129821714D01*
X95162571Y-129893143D01*
X95019714Y-129964571D01*
X94876857Y-129964571D01*
X94734000Y-129893143D01*
X94662571Y-129821714D01*
X94591143Y-129678857D01*
X94519714Y-129393143D01*
X94519714Y-129036000D01*
X94591143Y-128750286D01*
X94662571Y-128607429D01*
X94734000Y-128536000D01*
X94876857Y-128464571D01*
X83788286Y-129964571D02*
X84074001Y-129964571D01*
X84216858Y-129893143D01*
X84288286Y-129821714D01*
X84431144Y-129607429D01*
X84502572Y-129321714D01*
X84502572Y-128750286D01*
X84431144Y-128607429D01*
X84359715Y-128536000D01*
X84216858Y-128464571D01*
X83931144Y-128464571D01*
X83788286Y-128536000D01*
X83716858Y-128607429D01*
X83645429Y-128750286D01*
X83645429Y-129107429D01*
X83716858Y-129250286D01*
X83788286Y-129321714D01*
X83931144Y-129393143D01*
X84216858Y-129393143D01*
X84359715Y-129321714D01*
X84431144Y-129250286D01*
X84502572Y-129107429D01*
D11*
X172720000Y-118618000D02*
X172720000Y-116586000D01*
X171704000Y-117602000D02*
X172720000Y-118618000D01*
X172720000Y-116586000D02*
X171704000Y-117602000D01*
D14*
X172825210Y-129286000D02*
G75*
G03X172825210Y-129286000I-359210J0D01*
G01*
D13*
X155051144Y-117677429D02*
X154908286Y-117606000D01*
X154836858Y-117534571D01*
X154765429Y-117391714D01*
X154765429Y-117320286D01*
X154836858Y-117177429D01*
X154908286Y-117106000D01*
X155051144Y-117034571D01*
X155336858Y-117034571D01*
X155479715Y-117106000D01*
X155551144Y-117177429D01*
X155622572Y-117320286D01*
X155622572Y-117391714D01*
X155551144Y-117534571D01*
X155479715Y-117606000D01*
X155336858Y-117677429D01*
X155051144Y-117677429D01*
X154908286Y-117748857D01*
X154836858Y-117820286D01*
X154765429Y-117963143D01*
X154765429Y-118248857D01*
X154836858Y-118391714D01*
X154908286Y-118463143D01*
X155051144Y-118534571D01*
X155336858Y-118534571D01*
X155479715Y-118463143D01*
X155551144Y-118391714D01*
X155622572Y-118248857D01*
X155622572Y-117963143D01*
X155551144Y-117820286D01*
X155479715Y-117748857D01*
X155336858Y-117677429D01*
X144534001Y-117034571D02*
X145534001Y-117034571D01*
X144891144Y-118534571D01*
X135159715Y-117034571D02*
X134874001Y-117034571D01*
X134731144Y-117106000D01*
X134659715Y-117177429D01*
X134516858Y-117391714D01*
X134445429Y-117677429D01*
X134445429Y-118248857D01*
X134516858Y-118391714D01*
X134588286Y-118463143D01*
X134731144Y-118534571D01*
X135016858Y-118534571D01*
X135159715Y-118463143D01*
X135231144Y-118391714D01*
X135302572Y-118248857D01*
X135302572Y-117891714D01*
X135231144Y-117748857D01*
X135159715Y-117677429D01*
X135016858Y-117606000D01*
X134731144Y-117606000D01*
X134588286Y-117677429D01*
X134516858Y-117748857D01*
X134445429Y-117891714D01*
X125071144Y-117034571D02*
X124356858Y-117034571D01*
X124285429Y-117748857D01*
X124356858Y-117677429D01*
X124499715Y-117606000D01*
X124856858Y-117606000D01*
X124999715Y-117677429D01*
X125071144Y-117748857D01*
X125142572Y-117891714D01*
X125142572Y-118248857D01*
X125071144Y-118391714D01*
X124999715Y-118463143D01*
X124856858Y-118534571D01*
X124499715Y-118534571D01*
X124356858Y-118463143D01*
X124285429Y-118391714D01*
X114839715Y-117534571D02*
X114839715Y-118534571D01*
X114482572Y-116963143D02*
X114125429Y-118034571D01*
X115054001Y-118034571D01*
X103894001Y-117034571D02*
X104822572Y-117034571D01*
X104322572Y-117606000D01*
X104536858Y-117606000D01*
X104679715Y-117677429D01*
X104751144Y-117748857D01*
X104822572Y-117891714D01*
X104822572Y-118248857D01*
X104751144Y-118391714D01*
X104679715Y-118463143D01*
X104536858Y-118534571D01*
X104108286Y-118534571D01*
X103965429Y-118463143D01*
X103894001Y-118391714D01*
X93805429Y-117177429D02*
X93876858Y-117106000D01*
X94019715Y-117034571D01*
X94376858Y-117034571D01*
X94519715Y-117106000D01*
X94591144Y-117177429D01*
X94662572Y-117320286D01*
X94662572Y-117463143D01*
X94591144Y-117677429D01*
X93734001Y-118534571D01*
X94662572Y-118534571D01*
X84502572Y-118534571D02*
X83645429Y-118534571D01*
X84074001Y-118534571D02*
X84074001Y-117034571D01*
X83931144Y-117248857D01*
X83788286Y-117391714D01*
X83645429Y-117463143D01*
D15*
G36*
X87702249Y-81162698D02*
X87883420Y-81187049D01*
X88035491Y-81224646D01*
X88145655Y-81273043D01*
X88153023Y-81277809D01*
X88227895Y-81352752D01*
X88254455Y-81445792D01*
X88232220Y-81558400D01*
X88160702Y-81692049D01*
X88039417Y-81848208D01*
X87923590Y-81972776D01*
X87794949Y-82093289D01*
X87682587Y-82170947D01*
X87573342Y-82211051D01*
X87454053Y-82218906D01*
X87344924Y-82205945D01*
X87186117Y-82178585D01*
X87160936Y-82280144D01*
X87133052Y-82395921D01*
X87118274Y-82470488D01*
X87115164Y-82517172D01*
X87122284Y-82549303D01*
X87130121Y-82565751D01*
X87169178Y-82602973D01*
X87242474Y-82647901D01*
X87303453Y-82677205D01*
X87384776Y-82708343D01*
X87461600Y-82726069D01*
X87552626Y-82732756D01*
X87676554Y-82730775D01*
X87713801Y-82729250D01*
X87836581Y-82724605D01*
X87913576Y-82724965D01*
X87955358Y-82732200D01*
X87972502Y-82748178D01*
X87975578Y-82774766D01*
X87975567Y-82775511D01*
X87958088Y-82843543D01*
X87932043Y-82889704D01*
X87902710Y-82917904D01*
X87857964Y-82935728D01*
X87784941Y-82945960D01*
X87670776Y-82951383D01*
X87643663Y-82952092D01*
X87521151Y-82951989D01*
X87411497Y-82946486D01*
X87333570Y-82936692D01*
X87318959Y-82933008D01*
X87198398Y-82878354D01*
X87066581Y-82793019D01*
X86944845Y-82692402D01*
X86863814Y-82604516D01*
X86767574Y-82449082D01*
X86722597Y-82295511D01*
X86725881Y-82130133D01*
X86741956Y-82049637D01*
X86764429Y-81947692D01*
X86767856Y-81909341D01*
X87262714Y-81909341D01*
X87270981Y-81940788D01*
X87314596Y-81934182D01*
X87397345Y-81890592D01*
X87420345Y-81876657D01*
X87487496Y-81825693D01*
X87557219Y-81757842D01*
X87619244Y-81685504D01*
X87663301Y-81621083D01*
X87679120Y-81576980D01*
X87675722Y-81568258D01*
X87677092Y-81535233D01*
X87704731Y-81480161D01*
X87704787Y-81480076D01*
X87734002Y-81429505D01*
X87725494Y-81405891D01*
X87679250Y-81391183D01*
X87595805Y-81394813D01*
X87552317Y-81422886D01*
X87492181Y-81491411D01*
X87421214Y-81592656D01*
X87351498Y-81707753D01*
X87295113Y-81817838D01*
X87286005Y-81838773D01*
X87262714Y-81909341D01*
X86767856Y-81909341D01*
X86770420Y-81880656D01*
X86760159Y-81829525D01*
X86745027Y-81796093D01*
X86720641Y-81742123D01*
X86732462Y-81721682D01*
X86790159Y-81718482D01*
X86791105Y-81718482D01*
X86864237Y-81703713D01*
X86903151Y-81654982D01*
X86936059Y-81599860D01*
X86994016Y-81523646D01*
X87045064Y-81464482D01*
X87122883Y-81377087D01*
X87197308Y-81290023D01*
X87233426Y-81245760D01*
X87274780Y-81197643D01*
X87314923Y-81170192D01*
X87370957Y-81157628D01*
X87459983Y-81154167D01*
X87504781Y-81154037D01*
X87702249Y-81162698D01*
X87702249Y-81162698D01*
G37*
X87702249Y-81162698D02*
X87883420Y-81187049D01*
X88035491Y-81224646D01*
X88145655Y-81273043D01*
X88153023Y-81277809D01*
X88227895Y-81352752D01*
X88254455Y-81445792D01*
X88232220Y-81558400D01*
X88160702Y-81692049D01*
X88039417Y-81848208D01*
X87923590Y-81972776D01*
X87794949Y-82093289D01*
X87682587Y-82170947D01*
X87573342Y-82211051D01*
X87454053Y-82218906D01*
X87344924Y-82205945D01*
X87186117Y-82178585D01*
X87160936Y-82280144D01*
X87133052Y-82395921D01*
X87118274Y-82470488D01*
X87115164Y-82517172D01*
X87122284Y-82549303D01*
X87130121Y-82565751D01*
X87169178Y-82602973D01*
X87242474Y-82647901D01*
X87303453Y-82677205D01*
X87384776Y-82708343D01*
X87461600Y-82726069D01*
X87552626Y-82732756D01*
X87676554Y-82730775D01*
X87713801Y-82729250D01*
X87836581Y-82724605D01*
X87913576Y-82724965D01*
X87955358Y-82732200D01*
X87972502Y-82748178D01*
X87975578Y-82774766D01*
X87975567Y-82775511D01*
X87958088Y-82843543D01*
X87932043Y-82889704D01*
X87902710Y-82917904D01*
X87857964Y-82935728D01*
X87784941Y-82945960D01*
X87670776Y-82951383D01*
X87643663Y-82952092D01*
X87521151Y-82951989D01*
X87411497Y-82946486D01*
X87333570Y-82936692D01*
X87318959Y-82933008D01*
X87198398Y-82878354D01*
X87066581Y-82793019D01*
X86944845Y-82692402D01*
X86863814Y-82604516D01*
X86767574Y-82449082D01*
X86722597Y-82295511D01*
X86725881Y-82130133D01*
X86741956Y-82049637D01*
X86764429Y-81947692D01*
X86767856Y-81909341D01*
X87262714Y-81909341D01*
X87270981Y-81940788D01*
X87314596Y-81934182D01*
X87397345Y-81890592D01*
X87420345Y-81876657D01*
X87487496Y-81825693D01*
X87557219Y-81757842D01*
X87619244Y-81685504D01*
X87663301Y-81621083D01*
X87679120Y-81576980D01*
X87675722Y-81568258D01*
X87677092Y-81535233D01*
X87704731Y-81480161D01*
X87704787Y-81480076D01*
X87734002Y-81429505D01*
X87725494Y-81405891D01*
X87679250Y-81391183D01*
X87595805Y-81394813D01*
X87552317Y-81422886D01*
X87492181Y-81491411D01*
X87421214Y-81592656D01*
X87351498Y-81707753D01*
X87295113Y-81817838D01*
X87286005Y-81838773D01*
X87262714Y-81909341D01*
X86767856Y-81909341D01*
X86770420Y-81880656D01*
X86760159Y-81829525D01*
X86745027Y-81796093D01*
X86720641Y-81742123D01*
X86732462Y-81721682D01*
X86790159Y-81718482D01*
X86791105Y-81718482D01*
X86864237Y-81703713D01*
X86903151Y-81654982D01*
X86936059Y-81599860D01*
X86994016Y-81523646D01*
X87045064Y-81464482D01*
X87122883Y-81377087D01*
X87197308Y-81290023D01*
X87233426Y-81245760D01*
X87274780Y-81197643D01*
X87314923Y-81170192D01*
X87370957Y-81157628D01*
X87459983Y-81154167D01*
X87504781Y-81154037D01*
X87702249Y-81162698D01*
G36*
X85965898Y-81308372D02*
X86127909Y-81326056D01*
X86318570Y-81359173D01*
X86454648Y-81406196D01*
X86536437Y-81467823D01*
X86564234Y-81544750D01*
X86538331Y-81637677D01*
X86459025Y-81747300D01*
X86350647Y-81853419D01*
X86188618Y-81978690D01*
X86039317Y-82053994D01*
X85894903Y-82081929D01*
X85747534Y-82065090D01*
X85727598Y-82059704D01*
X85668839Y-82047085D01*
X85634738Y-82061209D01*
X85606507Y-82113497D01*
X85595772Y-82139836D01*
X85566263Y-82227660D01*
X85535436Y-82340907D01*
X85517965Y-82417388D01*
X85499816Y-82519047D01*
X85497545Y-82582198D01*
X85511256Y-82622528D01*
X85519377Y-82633590D01*
X85584902Y-82669053D01*
X85696616Y-82674485D01*
X85852941Y-82649924D01*
X85959187Y-82623137D01*
X86064463Y-82595604D01*
X86130087Y-82584785D01*
X86170047Y-82589833D01*
X86197149Y-82608719D01*
X86220804Y-82642757D01*
X86211257Y-82681469D01*
X86181294Y-82725375D01*
X86062319Y-82842127D01*
X85918875Y-82908866D01*
X85754366Y-82924663D01*
X85577576Y-82890333D01*
X85440263Y-82822761D01*
X85315926Y-82718854D01*
X85215119Y-82591713D01*
X85148394Y-82454441D01*
X85126178Y-82329892D01*
X85134199Y-82262664D01*
X85155132Y-82167286D01*
X85183854Y-82061591D01*
X85215239Y-81963417D01*
X85244165Y-81890598D01*
X85259846Y-81864633D01*
X85278403Y-81824781D01*
X85754693Y-81824781D01*
X85769495Y-81831371D01*
X85807009Y-81815362D01*
X85871377Y-81774307D01*
X85918888Y-81739648D01*
X86000187Y-81671597D01*
X86044393Y-81622766D01*
X86050397Y-81597892D01*
X86017092Y-81601710D01*
X85943368Y-81638956D01*
X85942308Y-81639581D01*
X85866859Y-81691109D01*
X85804481Y-81745765D01*
X85764113Y-81793628D01*
X85754693Y-81824781D01*
X85278403Y-81824781D01*
X85284343Y-81812027D01*
X85295312Y-81735342D01*
X85295354Y-81730577D01*
X85305433Y-81658327D01*
X85332903Y-81633815D01*
X85369022Y-81612454D01*
X85422143Y-81557472D01*
X85461656Y-81506815D01*
X85516181Y-81436829D01*
X85560291Y-81390702D01*
X85578444Y-81379815D01*
X85592465Y-81359058D01*
X85587782Y-81337482D01*
X85602244Y-81310557D01*
X85670698Y-81296717D01*
X85792222Y-81295982D01*
X85965898Y-81308372D01*
X85965898Y-81308372D01*
G37*
X85965898Y-81308372D02*
X86127909Y-81326056D01*
X86318570Y-81359173D01*
X86454648Y-81406196D01*
X86536437Y-81467823D01*
X86564234Y-81544750D01*
X86538331Y-81637677D01*
X86459025Y-81747300D01*
X86350647Y-81853419D01*
X86188618Y-81978690D01*
X86039317Y-82053994D01*
X85894903Y-82081929D01*
X85747534Y-82065090D01*
X85727598Y-82059704D01*
X85668839Y-82047085D01*
X85634738Y-82061209D01*
X85606507Y-82113497D01*
X85595772Y-82139836D01*
X85566263Y-82227660D01*
X85535436Y-82340907D01*
X85517965Y-82417388D01*
X85499816Y-82519047D01*
X85497545Y-82582198D01*
X85511256Y-82622528D01*
X85519377Y-82633590D01*
X85584902Y-82669053D01*
X85696616Y-82674485D01*
X85852941Y-82649924D01*
X85959187Y-82623137D01*
X86064463Y-82595604D01*
X86130087Y-82584785D01*
X86170047Y-82589833D01*
X86197149Y-82608719D01*
X86220804Y-82642757D01*
X86211257Y-82681469D01*
X86181294Y-82725375D01*
X86062319Y-82842127D01*
X85918875Y-82908866D01*
X85754366Y-82924663D01*
X85577576Y-82890333D01*
X85440263Y-82822761D01*
X85315926Y-82718854D01*
X85215119Y-82591713D01*
X85148394Y-82454441D01*
X85126178Y-82329892D01*
X85134199Y-82262664D01*
X85155132Y-82167286D01*
X85183854Y-82061591D01*
X85215239Y-81963417D01*
X85244165Y-81890598D01*
X85259846Y-81864633D01*
X85278403Y-81824781D01*
X85754693Y-81824781D01*
X85769495Y-81831371D01*
X85807009Y-81815362D01*
X85871377Y-81774307D01*
X85918888Y-81739648D01*
X86000187Y-81671597D01*
X86044393Y-81622766D01*
X86050397Y-81597892D01*
X86017092Y-81601710D01*
X85943368Y-81638956D01*
X85942308Y-81639581D01*
X85866859Y-81691109D01*
X85804481Y-81745765D01*
X85764113Y-81793628D01*
X85754693Y-81824781D01*
X85278403Y-81824781D01*
X85284343Y-81812027D01*
X85295312Y-81735342D01*
X85295354Y-81730577D01*
X85305433Y-81658327D01*
X85332903Y-81633815D01*
X85369022Y-81612454D01*
X85422143Y-81557472D01*
X85461656Y-81506815D01*
X85516181Y-81436829D01*
X85560291Y-81390702D01*
X85578444Y-81379815D01*
X85592465Y-81359058D01*
X85587782Y-81337482D01*
X85602244Y-81310557D01*
X85670698Y-81296717D01*
X85792222Y-81295982D01*
X85965898Y-81308372D01*
G36*
X85363674Y-79945267D02*
X85376152Y-80015942D01*
X85353729Y-80128628D01*
X85321529Y-80223102D01*
X85283292Y-80325109D01*
X85248504Y-80419227D01*
X85232768Y-80462593D01*
X85202886Y-80533721D01*
X85175451Y-80581891D01*
X85157118Y-80629985D01*
X85143360Y-80709394D01*
X85140500Y-80742091D01*
X85124891Y-80844754D01*
X85091585Y-80980892D01*
X85045775Y-81132383D01*
X84992658Y-81281109D01*
X84969804Y-81337482D01*
X84941650Y-81406483D01*
X84901923Y-81506823D01*
X84859103Y-81617075D01*
X84858092Y-81619704D01*
X84817538Y-81716017D01*
X84757289Y-81847404D01*
X84684314Y-81999191D01*
X84605582Y-82156703D01*
X84573108Y-82219815D01*
X84501508Y-82362444D01*
X84440469Y-82493149D01*
X84394567Y-82601398D01*
X84368376Y-82676663D01*
X84364020Y-82701004D01*
X84344610Y-82789099D01*
X84291017Y-82837472D01*
X84210197Y-82845047D01*
X84109106Y-82810749D01*
X84020492Y-82754112D01*
X83898354Y-82660853D01*
X83898354Y-82380167D01*
X83900680Y-82222911D01*
X83906904Y-82039623D01*
X83915891Y-81860490D01*
X83920552Y-81789037D01*
X83929600Y-81654810D01*
X83933259Y-81569136D01*
X83930853Y-81524321D01*
X83921707Y-81512670D01*
X83905145Y-81526489D01*
X83898238Y-81534945D01*
X83846817Y-81612904D01*
X83782071Y-81729699D01*
X83710589Y-81871351D01*
X83638961Y-82023881D01*
X83573778Y-82173312D01*
X83521628Y-82305665D01*
X83491580Y-82397538D01*
X83432340Y-82600035D01*
X83379271Y-82748625D01*
X83331460Y-82845400D01*
X83287996Y-82892451D01*
X83273421Y-82897593D01*
X83223829Y-82887279D01*
X83145159Y-82852620D01*
X83058743Y-82803695D01*
X82972845Y-82748115D01*
X82924313Y-82706714D01*
X82902482Y-82664024D01*
X82896684Y-82604577D01*
X82896465Y-82568346D01*
X82889469Y-82474439D01*
X82871029Y-82351207D01*
X82844964Y-82223669D01*
X82841853Y-82210688D01*
X82783014Y-81962590D01*
X82737954Y-81756112D01*
X82704226Y-81578813D01*
X82679388Y-81418250D01*
X82667680Y-81324301D01*
X82649720Y-81175622D01*
X82633621Y-81073585D01*
X82616195Y-81008613D01*
X82594257Y-80971128D01*
X82564621Y-80951555D01*
X82541241Y-80944279D01*
X82485369Y-80913004D01*
X82478480Y-80870781D01*
X82520439Y-80834471D01*
X82542188Y-80827336D01*
X82635869Y-80826561D01*
X82745336Y-80858291D01*
X82846531Y-80915048D01*
X82860806Y-80926335D01*
X82913478Y-80983553D01*
X82952502Y-81061146D01*
X82981512Y-81170051D01*
X83004145Y-81321205D01*
X83010147Y-81375574D01*
X83031142Y-81523279D01*
X83062632Y-81684304D01*
X83097813Y-81823872D01*
X83097936Y-81824286D01*
X83161188Y-82037350D01*
X83203280Y-81948471D01*
X83237368Y-81889068D01*
X83265661Y-81860137D01*
X83268474Y-81859593D01*
X83289575Y-81836972D01*
X83291576Y-81821513D01*
X83306566Y-81768846D01*
X83348008Y-81678997D01*
X83410605Y-81561454D01*
X83489065Y-81425708D01*
X83578093Y-81281246D01*
X83672393Y-81137558D01*
X83676849Y-81131008D01*
X83749306Y-81019042D01*
X83807711Y-80918049D01*
X83845354Y-80840338D01*
X83856020Y-80802416D01*
X83865674Y-80753663D01*
X83901078Y-80723322D01*
X83971898Y-80707561D01*
X84087796Y-80702545D01*
X84107955Y-80702482D01*
X84198863Y-80704832D01*
X84265253Y-80716985D01*
X84310968Y-80746592D01*
X84339856Y-80801304D01*
X84355762Y-80888774D01*
X84362533Y-81016654D01*
X84364015Y-81192595D01*
X84364020Y-81211928D01*
X84364445Y-81369692D01*
X84366315Y-81478048D01*
X84370523Y-81544030D01*
X84377960Y-81574671D01*
X84389520Y-81577005D01*
X84406095Y-81558065D01*
X84407661Y-81555847D01*
X84441852Y-81493534D01*
X84481391Y-81402576D01*
X84502869Y-81344956D01*
X84539393Y-81239628D01*
X84574376Y-81138602D01*
X84588555Y-81097593D01*
X84650083Y-80939082D01*
X84707146Y-80831868D01*
X84719062Y-80815371D01*
X84746085Y-80759776D01*
X84768521Y-80679982D01*
X84770436Y-80669929D01*
X84792924Y-80598087D01*
X84824513Y-80554077D01*
X84830455Y-80550870D01*
X84866014Y-80512527D01*
X84872020Y-80483869D01*
X84887702Y-80422930D01*
X84917314Y-80368154D01*
X84961073Y-80288416D01*
X84984013Y-80227818D01*
X85009481Y-80175280D01*
X85037498Y-80159204D01*
X85062830Y-80148943D01*
X85062520Y-80139495D01*
X85073028Y-80090208D01*
X85113107Y-80025383D01*
X85167813Y-79964182D01*
X85222197Y-79925766D01*
X85231791Y-79922485D01*
X85315740Y-79914737D01*
X85363674Y-79945267D01*
X85363674Y-79945267D01*
G37*
X85363674Y-79945267D02*
X85376152Y-80015942D01*
X85353729Y-80128628D01*
X85321529Y-80223102D01*
X85283292Y-80325109D01*
X85248504Y-80419227D01*
X85232768Y-80462593D01*
X85202886Y-80533721D01*
X85175451Y-80581891D01*
X85157118Y-80629985D01*
X85143360Y-80709394D01*
X85140500Y-80742091D01*
X85124891Y-80844754D01*
X85091585Y-80980892D01*
X85045775Y-81132383D01*
X84992658Y-81281109D01*
X84969804Y-81337482D01*
X84941650Y-81406483D01*
X84901923Y-81506823D01*
X84859103Y-81617075D01*
X84858092Y-81619704D01*
X84817538Y-81716017D01*
X84757289Y-81847404D01*
X84684314Y-81999191D01*
X84605582Y-82156703D01*
X84573108Y-82219815D01*
X84501508Y-82362444D01*
X84440469Y-82493149D01*
X84394567Y-82601398D01*
X84368376Y-82676663D01*
X84364020Y-82701004D01*
X84344610Y-82789099D01*
X84291017Y-82837472D01*
X84210197Y-82845047D01*
X84109106Y-82810749D01*
X84020492Y-82754112D01*
X83898354Y-82660853D01*
X83898354Y-82380167D01*
X83900680Y-82222911D01*
X83906904Y-82039623D01*
X83915891Y-81860490D01*
X83920552Y-81789037D01*
X83929600Y-81654810D01*
X83933259Y-81569136D01*
X83930853Y-81524321D01*
X83921707Y-81512670D01*
X83905145Y-81526489D01*
X83898238Y-81534945D01*
X83846817Y-81612904D01*
X83782071Y-81729699D01*
X83710589Y-81871351D01*
X83638961Y-82023881D01*
X83573778Y-82173312D01*
X83521628Y-82305665D01*
X83491580Y-82397538D01*
X83432340Y-82600035D01*
X83379271Y-82748625D01*
X83331460Y-82845400D01*
X83287996Y-82892451D01*
X83273421Y-82897593D01*
X83223829Y-82887279D01*
X83145159Y-82852620D01*
X83058743Y-82803695D01*
X82972845Y-82748115D01*
X82924313Y-82706714D01*
X82902482Y-82664024D01*
X82896684Y-82604577D01*
X82896465Y-82568346D01*
X82889469Y-82474439D01*
X82871029Y-82351207D01*
X82844964Y-82223669D01*
X82841853Y-82210688D01*
X82783014Y-81962590D01*
X82737954Y-81756112D01*
X82704226Y-81578813D01*
X82679388Y-81418250D01*
X82667680Y-81324301D01*
X82649720Y-81175622D01*
X82633621Y-81073585D01*
X82616195Y-81008613D01*
X82594257Y-80971128D01*
X82564621Y-80951555D01*
X82541241Y-80944279D01*
X82485369Y-80913004D01*
X82478480Y-80870781D01*
X82520439Y-80834471D01*
X82542188Y-80827336D01*
X82635869Y-80826561D01*
X82745336Y-80858291D01*
X82846531Y-80915048D01*
X82860806Y-80926335D01*
X82913478Y-80983553D01*
X82952502Y-81061146D01*
X82981512Y-81170051D01*
X83004145Y-81321205D01*
X83010147Y-81375574D01*
X83031142Y-81523279D01*
X83062632Y-81684304D01*
X83097813Y-81823872D01*
X83097936Y-81824286D01*
X83161188Y-82037350D01*
X83203280Y-81948471D01*
X83237368Y-81889068D01*
X83265661Y-81860137D01*
X83268474Y-81859593D01*
X83289575Y-81836972D01*
X83291576Y-81821513D01*
X83306566Y-81768846D01*
X83348008Y-81678997D01*
X83410605Y-81561454D01*
X83489065Y-81425708D01*
X83578093Y-81281246D01*
X83672393Y-81137558D01*
X83676849Y-81131008D01*
X83749306Y-81019042D01*
X83807711Y-80918049D01*
X83845354Y-80840338D01*
X83856020Y-80802416D01*
X83865674Y-80753663D01*
X83901078Y-80723322D01*
X83971898Y-80707561D01*
X84087796Y-80702545D01*
X84107955Y-80702482D01*
X84198863Y-80704832D01*
X84265253Y-80716985D01*
X84310968Y-80746592D01*
X84339856Y-80801304D01*
X84355762Y-80888774D01*
X84362533Y-81016654D01*
X84364015Y-81192595D01*
X84364020Y-81211928D01*
X84364445Y-81369692D01*
X84366315Y-81478048D01*
X84370523Y-81544030D01*
X84377960Y-81574671D01*
X84389520Y-81577005D01*
X84406095Y-81558065D01*
X84407661Y-81555847D01*
X84441852Y-81493534D01*
X84481391Y-81402576D01*
X84502869Y-81344956D01*
X84539393Y-81239628D01*
X84574376Y-81138602D01*
X84588555Y-81097593D01*
X84650083Y-80939082D01*
X84707146Y-80831868D01*
X84719062Y-80815371D01*
X84746085Y-80759776D01*
X84768521Y-80679982D01*
X84770436Y-80669929D01*
X84792924Y-80598087D01*
X84824513Y-80554077D01*
X84830455Y-80550870D01*
X84866014Y-80512527D01*
X84872020Y-80483869D01*
X84887702Y-80422930D01*
X84917314Y-80368154D01*
X84961073Y-80288416D01*
X84984013Y-80227818D01*
X85009481Y-80175280D01*
X85037498Y-80159204D01*
X85062830Y-80148943D01*
X85062520Y-80139495D01*
X85073028Y-80090208D01*
X85113107Y-80025383D01*
X85167813Y-79964182D01*
X85222197Y-79925766D01*
X85231791Y-79922485D01*
X85315740Y-79914737D01*
X85363674Y-79945267D01*
G36*
X91585507Y-79954776D02*
X91574429Y-79993842D01*
X91534415Y-80037494D01*
X91493170Y-80092079D01*
X91481328Y-80133591D01*
X91478538Y-80191086D01*
X91469859Y-80274021D01*
X91467342Y-80293260D01*
X91456346Y-80381501D01*
X91443077Y-80498605D01*
X91432003Y-80603704D01*
X91416537Y-80711560D01*
X91395332Y-80802883D01*
X91373483Y-80856928D01*
X91344907Y-80926412D01*
X91334909Y-80998161D01*
X91325290Y-81067680D01*
X91300060Y-81167959D01*
X91264665Y-81277389D01*
X91264354Y-81278247D01*
X91229545Y-81380072D01*
X91204284Y-81465132D01*
X91193685Y-81516086D01*
X91193624Y-81518014D01*
X91181093Y-81576396D01*
X91157432Y-81633815D01*
X91126705Y-81705256D01*
X91093150Y-81799159D01*
X91082981Y-81831371D01*
X91048994Y-81942367D01*
X91013362Y-82056853D01*
X91006285Y-82079301D01*
X90982969Y-82158963D01*
X90969414Y-82216840D01*
X90968020Y-82228896D01*
X90956389Y-82286567D01*
X90926044Y-82372880D01*
X90883814Y-82473104D01*
X90836526Y-82572505D01*
X90791005Y-82656350D01*
X90754078Y-82709905D01*
X90739952Y-82721098D01*
X90668236Y-82719046D01*
X90584778Y-82681544D01*
X90502590Y-82620131D01*
X90434680Y-82546352D01*
X90394058Y-82471750D01*
X90391958Y-82412345D01*
X90401749Y-82359080D01*
X90410250Y-82266019D01*
X90417194Y-82145270D01*
X90422312Y-82008941D01*
X90425338Y-81869138D01*
X90426003Y-81737968D01*
X90424040Y-81627539D01*
X90419182Y-81549956D01*
X90411731Y-81517793D01*
X90394194Y-81533287D01*
X90364268Y-81594096D01*
X90325724Y-81691453D01*
X90282334Y-81816590D01*
X90279693Y-81824687D01*
X90225896Y-81982934D01*
X90165799Y-82147823D01*
X90103467Y-82309391D01*
X90042969Y-82457678D01*
X89988373Y-82582723D01*
X89943745Y-82674564D01*
X89913154Y-82723240D01*
X89912502Y-82723922D01*
X89845468Y-82760292D01*
X89752251Y-82774561D01*
X89672469Y-82765602D01*
X89594890Y-82727126D01*
X89563424Y-82662807D01*
X89576240Y-82567461D01*
X89589241Y-82529949D01*
X89625152Y-82434089D01*
X89657412Y-82344367D01*
X89663995Y-82325260D01*
X89694121Y-82237083D01*
X89726632Y-82142857D01*
X89726993Y-82141815D01*
X89755034Y-82050849D01*
X89783692Y-81942767D01*
X89791674Y-81908982D01*
X89815190Y-81829457D01*
X89839737Y-81781724D01*
X89859499Y-81773250D01*
X89868616Y-81810204D01*
X89876270Y-81806855D01*
X89895063Y-81761467D01*
X89921085Y-81686401D01*
X89950422Y-81594019D01*
X89979165Y-81496682D01*
X90003401Y-81406752D01*
X90019219Y-81336590D01*
X90020164Y-81331277D01*
X90044550Y-81232106D01*
X90080527Y-81127898D01*
X90086401Y-81113868D01*
X90113794Y-81039015D01*
X90112771Y-81001067D01*
X90099624Y-80991572D01*
X90075700Y-80961800D01*
X90071851Y-80942371D01*
X90121354Y-80942371D01*
X90135465Y-80956482D01*
X90149576Y-80942371D01*
X90135465Y-80928260D01*
X90121354Y-80942371D01*
X90071851Y-80942371D01*
X90065423Y-80909928D01*
X90070536Y-80861952D01*
X90089699Y-80843593D01*
X90111736Y-80819084D01*
X90135701Y-80758178D01*
X90141362Y-80737716D01*
X90173578Y-80648382D01*
X90223360Y-80547018D01*
X90246017Y-80508627D01*
X90323798Y-80385414D01*
X90469521Y-80404415D01*
X90595304Y-80422751D01*
X90675962Y-80440985D01*
X90722641Y-80463435D01*
X90746484Y-80494419D01*
X90753302Y-80514372D01*
X90764555Y-80584538D01*
X90769222Y-80690035D01*
X90767209Y-80835696D01*
X90758421Y-81026351D01*
X90742765Y-81266832D01*
X90737140Y-81343724D01*
X90726723Y-81498765D01*
X90719842Y-81633626D01*
X90716824Y-81738472D01*
X90717997Y-81803469D01*
X90721271Y-81819806D01*
X90750806Y-81816609D01*
X90791750Y-81785774D01*
X90822934Y-81745754D01*
X90828255Y-81726545D01*
X90838336Y-81668879D01*
X90863470Y-81620225D01*
X90885256Y-81605593D01*
X90903964Y-81581122D01*
X90911576Y-81523568D01*
X90921077Y-81462774D01*
X90946674Y-81364913D01*
X90984009Y-81245523D01*
X91012506Y-81163735D01*
X91055322Y-81042103D01*
X91090313Y-80935590D01*
X91112995Y-80858262D01*
X91119102Y-80829482D01*
X91137840Y-80757714D01*
X91156500Y-80716593D01*
X91184511Y-80659749D01*
X91194396Y-80631926D01*
X91208558Y-80585883D01*
X91227720Y-80533148D01*
X91248557Y-80455591D01*
X91262199Y-80363294D01*
X91262659Y-80357513D01*
X91282316Y-80285959D01*
X91292602Y-80265037D01*
X91334909Y-80265037D01*
X91349020Y-80279148D01*
X91363132Y-80265037D01*
X91349020Y-80250926D01*
X91334909Y-80265037D01*
X91292602Y-80265037D01*
X91326271Y-80196555D01*
X91384873Y-80103306D01*
X91448471Y-80020221D01*
X91507413Y-79961306D01*
X91550008Y-79940482D01*
X91585507Y-79954776D01*
X91585507Y-79954776D01*
G37*
X91585507Y-79954776D02*
X91574429Y-79993842D01*
X91534415Y-80037494D01*
X91493170Y-80092079D01*
X91481328Y-80133591D01*
X91478538Y-80191086D01*
X91469859Y-80274021D01*
X91467342Y-80293260D01*
X91456346Y-80381501D01*
X91443077Y-80498605D01*
X91432003Y-80603704D01*
X91416537Y-80711560D01*
X91395332Y-80802883D01*
X91373483Y-80856928D01*
X91344907Y-80926412D01*
X91334909Y-80998161D01*
X91325290Y-81067680D01*
X91300060Y-81167959D01*
X91264665Y-81277389D01*
X91264354Y-81278247D01*
X91229545Y-81380072D01*
X91204284Y-81465132D01*
X91193685Y-81516086D01*
X91193624Y-81518014D01*
X91181093Y-81576396D01*
X91157432Y-81633815D01*
X91126705Y-81705256D01*
X91093150Y-81799159D01*
X91082981Y-81831371D01*
X91048994Y-81942367D01*
X91013362Y-82056853D01*
X91006285Y-82079301D01*
X90982969Y-82158963D01*
X90969414Y-82216840D01*
X90968020Y-82228896D01*
X90956389Y-82286567D01*
X90926044Y-82372880D01*
X90883814Y-82473104D01*
X90836526Y-82572505D01*
X90791005Y-82656350D01*
X90754078Y-82709905D01*
X90739952Y-82721098D01*
X90668236Y-82719046D01*
X90584778Y-82681544D01*
X90502590Y-82620131D01*
X90434680Y-82546352D01*
X90394058Y-82471750D01*
X90391958Y-82412345D01*
X90401749Y-82359080D01*
X90410250Y-82266019D01*
X90417194Y-82145270D01*
X90422312Y-82008941D01*
X90425338Y-81869138D01*
X90426003Y-81737968D01*
X90424040Y-81627539D01*
X90419182Y-81549956D01*
X90411731Y-81517793D01*
X90394194Y-81533287D01*
X90364268Y-81594096D01*
X90325724Y-81691453D01*
X90282334Y-81816590D01*
X90279693Y-81824687D01*
X90225896Y-81982934D01*
X90165799Y-82147823D01*
X90103467Y-82309391D01*
X90042969Y-82457678D01*
X89988373Y-82582723D01*
X89943745Y-82674564D01*
X89913154Y-82723240D01*
X89912502Y-82723922D01*
X89845468Y-82760292D01*
X89752251Y-82774561D01*
X89672469Y-82765602D01*
X89594890Y-82727126D01*
X89563424Y-82662807D01*
X89576240Y-82567461D01*
X89589241Y-82529949D01*
X89625152Y-82434089D01*
X89657412Y-82344367D01*
X89663995Y-82325260D01*
X89694121Y-82237083D01*
X89726632Y-82142857D01*
X89726993Y-82141815D01*
X89755034Y-82050849D01*
X89783692Y-81942767D01*
X89791674Y-81908982D01*
X89815190Y-81829457D01*
X89839737Y-81781724D01*
X89859499Y-81773250D01*
X89868616Y-81810204D01*
X89876270Y-81806855D01*
X89895063Y-81761467D01*
X89921085Y-81686401D01*
X89950422Y-81594019D01*
X89979165Y-81496682D01*
X90003401Y-81406752D01*
X90019219Y-81336590D01*
X90020164Y-81331277D01*
X90044550Y-81232106D01*
X90080527Y-81127898D01*
X90086401Y-81113868D01*
X90113794Y-81039015D01*
X90112771Y-81001067D01*
X90099624Y-80991572D01*
X90075700Y-80961800D01*
X90071851Y-80942371D01*
X90121354Y-80942371D01*
X90135465Y-80956482D01*
X90149576Y-80942371D01*
X90135465Y-80928260D01*
X90121354Y-80942371D01*
X90071851Y-80942371D01*
X90065423Y-80909928D01*
X90070536Y-80861952D01*
X90089699Y-80843593D01*
X90111736Y-80819084D01*
X90135701Y-80758178D01*
X90141362Y-80737716D01*
X90173578Y-80648382D01*
X90223360Y-80547018D01*
X90246017Y-80508627D01*
X90323798Y-80385414D01*
X90469521Y-80404415D01*
X90595304Y-80422751D01*
X90675962Y-80440985D01*
X90722641Y-80463435D01*
X90746484Y-80494419D01*
X90753302Y-80514372D01*
X90764555Y-80584538D01*
X90769222Y-80690035D01*
X90767209Y-80835696D01*
X90758421Y-81026351D01*
X90742765Y-81266832D01*
X90737140Y-81343724D01*
X90726723Y-81498765D01*
X90719842Y-81633626D01*
X90716824Y-81738472D01*
X90717997Y-81803469D01*
X90721271Y-81819806D01*
X90750806Y-81816609D01*
X90791750Y-81785774D01*
X90822934Y-81745754D01*
X90828255Y-81726545D01*
X90838336Y-81668879D01*
X90863470Y-81620225D01*
X90885256Y-81605593D01*
X90903964Y-81581122D01*
X90911576Y-81523568D01*
X90921077Y-81462774D01*
X90946674Y-81364913D01*
X90984009Y-81245523D01*
X91012506Y-81163735D01*
X91055322Y-81042103D01*
X91090313Y-80935590D01*
X91112995Y-80858262D01*
X91119102Y-80829482D01*
X91137840Y-80757714D01*
X91156500Y-80716593D01*
X91184511Y-80659749D01*
X91194396Y-80631926D01*
X91208558Y-80585883D01*
X91227720Y-80533148D01*
X91248557Y-80455591D01*
X91262199Y-80363294D01*
X91262659Y-80357513D01*
X91282316Y-80285959D01*
X91292602Y-80265037D01*
X91334909Y-80265037D01*
X91349020Y-80279148D01*
X91363132Y-80265037D01*
X91349020Y-80250926D01*
X91334909Y-80265037D01*
X91292602Y-80265037D01*
X91326271Y-80196555D01*
X91384873Y-80103306D01*
X91448471Y-80020221D01*
X91507413Y-79961306D01*
X91550008Y-79940482D01*
X91585507Y-79954776D01*
G36*
X98159257Y-80211141D02*
X98234881Y-80244823D01*
X98273645Y-80292170D01*
X98269509Y-80341052D01*
X98238142Y-80369528D01*
X98197031Y-80416884D01*
X98206877Y-80474128D01*
X98232127Y-80502340D01*
X98279887Y-80568024D01*
X98328179Y-80680953D01*
X98375522Y-80831963D01*
X98420437Y-81011890D01*
X98461443Y-81211571D01*
X98497060Y-81421842D01*
X98525808Y-81633539D01*
X98546206Y-81837498D01*
X98556774Y-82024556D01*
X98556032Y-82185550D01*
X98542500Y-82311314D01*
X98531437Y-82355229D01*
X98492539Y-82448666D01*
X98439369Y-82544261D01*
X98381361Y-82628219D01*
X98327949Y-82686740D01*
X98291419Y-82706260D01*
X98259171Y-82680913D01*
X98227954Y-82615146D01*
X98219600Y-82587684D01*
X98204937Y-82519261D01*
X98194798Y-82434752D01*
X98188832Y-82325420D01*
X98186691Y-82182528D01*
X98188022Y-81997343D01*
X98190396Y-81859593D01*
X98184057Y-81588859D01*
X98156961Y-81293001D01*
X98111809Y-80998230D01*
X98090806Y-80893470D01*
X98043844Y-80675236D01*
X97951752Y-80865248D01*
X97854769Y-81070789D01*
X97756352Y-81289122D01*
X97661459Y-81508454D01*
X97575046Y-81716992D01*
X97502070Y-81902944D01*
X97447489Y-82054516D01*
X97433001Y-82099354D01*
X97391322Y-82213897D01*
X97337173Y-82334815D01*
X97278117Y-82447818D01*
X97221716Y-82538616D01*
X97175535Y-82592917D01*
X97169431Y-82597372D01*
X97111746Y-82604534D01*
X97029805Y-82579164D01*
X96939852Y-82528047D01*
X96873783Y-82473898D01*
X96778665Y-82381705D01*
X96797190Y-82127705D01*
X96808846Y-81997734D01*
X96816967Y-81930148D01*
X97092243Y-81930148D01*
X97106354Y-81944260D01*
X97120465Y-81930148D01*
X97106354Y-81916037D01*
X97092243Y-81930148D01*
X96816967Y-81930148D01*
X96823584Y-81875082D01*
X96838745Y-81780965D01*
X96843137Y-81760815D01*
X96862586Y-81669077D01*
X96884647Y-81547217D01*
X96906822Y-81411461D01*
X96926615Y-81278035D01*
X96941530Y-81163166D01*
X96949070Y-81083080D01*
X96949518Y-81069371D01*
X96943047Y-81041116D01*
X96922816Y-81062842D01*
X96888446Y-81135437D01*
X96839555Y-81259785D01*
X96775760Y-81436776D01*
X96712803Y-81619620D01*
X96606189Y-81914462D01*
X96504793Y-82154314D01*
X96407858Y-82340312D01*
X96314632Y-82473594D01*
X96224361Y-82555297D01*
X96136289Y-82586558D01*
X96076243Y-82579260D01*
X96029445Y-82538725D01*
X96019798Y-82485403D01*
X96030450Y-82418360D01*
X96059560Y-82311866D01*
X96102860Y-82178137D01*
X96156081Y-82029389D01*
X96214956Y-81877838D01*
X96275215Y-81735700D01*
X96302552Y-81676148D01*
X96339160Y-81593907D01*
X96386249Y-81481502D01*
X96434360Y-81361577D01*
X96439958Y-81347231D01*
X96540841Y-81096191D01*
X96631775Y-80887207D01*
X96711373Y-80723069D01*
X96778254Y-80606564D01*
X96831033Y-80540484D01*
X96845267Y-80530137D01*
X96901068Y-80517869D01*
X96987585Y-80517205D01*
X97037663Y-80521949D01*
X97131926Y-80541017D01*
X97197848Y-80574927D01*
X97240041Y-80632499D01*
X97263116Y-80722553D01*
X97271683Y-80853908D01*
X97271602Y-80969443D01*
X97253108Y-81240440D01*
X97202942Y-81520518D01*
X97193570Y-81560487D01*
X97165231Y-81684686D01*
X97144599Y-81787590D01*
X97133818Y-81857579D01*
X97134155Y-81882691D01*
X97146433Y-81873016D01*
X97148687Y-81850185D01*
X97159742Y-81809663D01*
X97171073Y-81803148D01*
X97193317Y-81779072D01*
X97218035Y-81720226D01*
X97220757Y-81711426D01*
X97247394Y-81651432D01*
X97276567Y-81625605D01*
X97279986Y-81625742D01*
X97302933Y-81604398D01*
X97323818Y-81542845D01*
X97330809Y-81505798D01*
X97347376Y-81430540D01*
X97367488Y-81385500D01*
X97376194Y-81379815D01*
X97396216Y-81355683D01*
X97402687Y-81310252D01*
X97423866Y-81242938D01*
X97456838Y-81211709D01*
X97502017Y-81164260D01*
X97529344Y-81099153D01*
X97561578Y-81013076D01*
X97602270Y-80946203D01*
X97635857Y-80884125D01*
X97639873Y-80832615D01*
X97645963Y-80792653D01*
X97673231Y-80719400D01*
X97714219Y-80628209D01*
X97761471Y-80534431D01*
X97807530Y-80453418D01*
X97844940Y-80400523D01*
X97853872Y-80392037D01*
X97878773Y-80355928D01*
X97890062Y-80330182D01*
X97945173Y-80255338D01*
X98034029Y-80211678D01*
X98139005Y-80206996D01*
X98159257Y-80211141D01*
X98159257Y-80211141D01*
G37*
X98159257Y-80211141D02*
X98234881Y-80244823D01*
X98273645Y-80292170D01*
X98269509Y-80341052D01*
X98238142Y-80369528D01*
X98197031Y-80416884D01*
X98206877Y-80474128D01*
X98232127Y-80502340D01*
X98279887Y-80568024D01*
X98328179Y-80680953D01*
X98375522Y-80831963D01*
X98420437Y-81011890D01*
X98461443Y-81211571D01*
X98497060Y-81421842D01*
X98525808Y-81633539D01*
X98546206Y-81837498D01*
X98556774Y-82024556D01*
X98556032Y-82185550D01*
X98542500Y-82311314D01*
X98531437Y-82355229D01*
X98492539Y-82448666D01*
X98439369Y-82544261D01*
X98381361Y-82628219D01*
X98327949Y-82686740D01*
X98291419Y-82706260D01*
X98259171Y-82680913D01*
X98227954Y-82615146D01*
X98219600Y-82587684D01*
X98204937Y-82519261D01*
X98194798Y-82434752D01*
X98188832Y-82325420D01*
X98186691Y-82182528D01*
X98188022Y-81997343D01*
X98190396Y-81859593D01*
X98184057Y-81588859D01*
X98156961Y-81293001D01*
X98111809Y-80998230D01*
X98090806Y-80893470D01*
X98043844Y-80675236D01*
X97951752Y-80865248D01*
X97854769Y-81070789D01*
X97756352Y-81289122D01*
X97661459Y-81508454D01*
X97575046Y-81716992D01*
X97502070Y-81902944D01*
X97447489Y-82054516D01*
X97433001Y-82099354D01*
X97391322Y-82213897D01*
X97337173Y-82334815D01*
X97278117Y-82447818D01*
X97221716Y-82538616D01*
X97175535Y-82592917D01*
X97169431Y-82597372D01*
X97111746Y-82604534D01*
X97029805Y-82579164D01*
X96939852Y-82528047D01*
X96873783Y-82473898D01*
X96778665Y-82381705D01*
X96797190Y-82127705D01*
X96808846Y-81997734D01*
X96816967Y-81930148D01*
X97092243Y-81930148D01*
X97106354Y-81944260D01*
X97120465Y-81930148D01*
X97106354Y-81916037D01*
X97092243Y-81930148D01*
X96816967Y-81930148D01*
X96823584Y-81875082D01*
X96838745Y-81780965D01*
X96843137Y-81760815D01*
X96862586Y-81669077D01*
X96884647Y-81547217D01*
X96906822Y-81411461D01*
X96926615Y-81278035D01*
X96941530Y-81163166D01*
X96949070Y-81083080D01*
X96949518Y-81069371D01*
X96943047Y-81041116D01*
X96922816Y-81062842D01*
X96888446Y-81135437D01*
X96839555Y-81259785D01*
X96775760Y-81436776D01*
X96712803Y-81619620D01*
X96606189Y-81914462D01*
X96504793Y-82154314D01*
X96407858Y-82340312D01*
X96314632Y-82473594D01*
X96224361Y-82555297D01*
X96136289Y-82586558D01*
X96076243Y-82579260D01*
X96029445Y-82538725D01*
X96019798Y-82485403D01*
X96030450Y-82418360D01*
X96059560Y-82311866D01*
X96102860Y-82178137D01*
X96156081Y-82029389D01*
X96214956Y-81877838D01*
X96275215Y-81735700D01*
X96302552Y-81676148D01*
X96339160Y-81593907D01*
X96386249Y-81481502D01*
X96434360Y-81361577D01*
X96439958Y-81347231D01*
X96540841Y-81096191D01*
X96631775Y-80887207D01*
X96711373Y-80723069D01*
X96778254Y-80606564D01*
X96831033Y-80540484D01*
X96845267Y-80530137D01*
X96901068Y-80517869D01*
X96987585Y-80517205D01*
X97037663Y-80521949D01*
X97131926Y-80541017D01*
X97197848Y-80574927D01*
X97240041Y-80632499D01*
X97263116Y-80722553D01*
X97271683Y-80853908D01*
X97271602Y-80969443D01*
X97253108Y-81240440D01*
X97202942Y-81520518D01*
X97193570Y-81560487D01*
X97165231Y-81684686D01*
X97144599Y-81787590D01*
X97133818Y-81857579D01*
X97134155Y-81882691D01*
X97146433Y-81873016D01*
X97148687Y-81850185D01*
X97159742Y-81809663D01*
X97171073Y-81803148D01*
X97193317Y-81779072D01*
X97218035Y-81720226D01*
X97220757Y-81711426D01*
X97247394Y-81651432D01*
X97276567Y-81625605D01*
X97279986Y-81625742D01*
X97302933Y-81604398D01*
X97323818Y-81542845D01*
X97330809Y-81505798D01*
X97347376Y-81430540D01*
X97367488Y-81385500D01*
X97376194Y-81379815D01*
X97396216Y-81355683D01*
X97402687Y-81310252D01*
X97423866Y-81242938D01*
X97456838Y-81211709D01*
X97502017Y-81164260D01*
X97529344Y-81099153D01*
X97561578Y-81013076D01*
X97602270Y-80946203D01*
X97635857Y-80884125D01*
X97639873Y-80832615D01*
X97645963Y-80792653D01*
X97673231Y-80719400D01*
X97714219Y-80628209D01*
X97761471Y-80534431D01*
X97807530Y-80453418D01*
X97844940Y-80400523D01*
X97853872Y-80392037D01*
X97878773Y-80355928D01*
X97890062Y-80330182D01*
X97945173Y-80255338D01*
X98034029Y-80211678D01*
X98139005Y-80206996D01*
X98159257Y-80211141D01*
G36*
X92570889Y-81451580D02*
X92672952Y-81476075D01*
X92744095Y-81519604D01*
X92792391Y-81584479D01*
X92805046Y-81611824D01*
X92820641Y-81687922D01*
X92824373Y-81799649D01*
X92817927Y-81932139D01*
X92802989Y-82070522D01*
X92781244Y-82199929D01*
X92754377Y-82305492D01*
X92724075Y-82372342D01*
X92718026Y-82379483D01*
X92684021Y-82409810D01*
X92653222Y-82415511D01*
X92608277Y-82393817D01*
X92546487Y-82352111D01*
X92445335Y-82275914D01*
X92389358Y-82212295D01*
X92373552Y-82147990D01*
X92392911Y-82069734D01*
X92418365Y-82012551D01*
X92476285Y-81877551D01*
X92520460Y-81745557D01*
X92545109Y-81635123D01*
X92548307Y-81595396D01*
X92540554Y-81562225D01*
X92506933Y-81553024D01*
X92442632Y-81561084D01*
X92306945Y-81586340D01*
X92220253Y-81611539D01*
X92175689Y-81644720D01*
X92166387Y-81693927D01*
X92185481Y-81767201D01*
X92210450Y-81833025D01*
X92259279Y-82006027D01*
X92259005Y-82159420D01*
X92209194Y-82302180D01*
X92185846Y-82342203D01*
X92073120Y-82484261D01*
X91943087Y-82588763D01*
X91804580Y-82651595D01*
X91666429Y-82668641D01*
X91546576Y-82640052D01*
X91472647Y-82588824D01*
X91421192Y-82525879D01*
X91411810Y-82488921D01*
X91649457Y-82488921D01*
X91708259Y-82430119D01*
X91756853Y-82363685D01*
X91799551Y-82277190D01*
X91804560Y-82263622D01*
X91829561Y-82164759D01*
X91840766Y-82066504D01*
X91840805Y-82057148D01*
X91839550Y-81958371D01*
X91771709Y-82102567D01*
X91726759Y-82210187D01*
X91689143Y-82320831D01*
X91676662Y-82367842D01*
X91649457Y-82488921D01*
X91411810Y-82488921D01*
X91396451Y-82428422D01*
X91401708Y-82292701D01*
X91434875Y-82126891D01*
X91493863Y-81939165D01*
X91576583Y-81737696D01*
X91670807Y-81549148D01*
X91695558Y-81524268D01*
X91744399Y-81504050D01*
X91824261Y-81487298D01*
X91942074Y-81472813D01*
X92104768Y-81459396D01*
X92241719Y-81450446D01*
X92429835Y-81443808D01*
X92570889Y-81451580D01*
X92570889Y-81451580D01*
G37*
X92570889Y-81451580D02*
X92672952Y-81476075D01*
X92744095Y-81519604D01*
X92792391Y-81584479D01*
X92805046Y-81611824D01*
X92820641Y-81687922D01*
X92824373Y-81799649D01*
X92817927Y-81932139D01*
X92802989Y-82070522D01*
X92781244Y-82199929D01*
X92754377Y-82305492D01*
X92724075Y-82372342D01*
X92718026Y-82379483D01*
X92684021Y-82409810D01*
X92653222Y-82415511D01*
X92608277Y-82393817D01*
X92546487Y-82352111D01*
X92445335Y-82275914D01*
X92389358Y-82212295D01*
X92373552Y-82147990D01*
X92392911Y-82069734D01*
X92418365Y-82012551D01*
X92476285Y-81877551D01*
X92520460Y-81745557D01*
X92545109Y-81635123D01*
X92548307Y-81595396D01*
X92540554Y-81562225D01*
X92506933Y-81553024D01*
X92442632Y-81561084D01*
X92306945Y-81586340D01*
X92220253Y-81611539D01*
X92175689Y-81644720D01*
X92166387Y-81693927D01*
X92185481Y-81767201D01*
X92210450Y-81833025D01*
X92259279Y-82006027D01*
X92259005Y-82159420D01*
X92209194Y-82302180D01*
X92185846Y-82342203D01*
X92073120Y-82484261D01*
X91943087Y-82588763D01*
X91804580Y-82651595D01*
X91666429Y-82668641D01*
X91546576Y-82640052D01*
X91472647Y-82588824D01*
X91421192Y-82525879D01*
X91411810Y-82488921D01*
X91649457Y-82488921D01*
X91708259Y-82430119D01*
X91756853Y-82363685D01*
X91799551Y-82277190D01*
X91804560Y-82263622D01*
X91829561Y-82164759D01*
X91840766Y-82066504D01*
X91840805Y-82057148D01*
X91839550Y-81958371D01*
X91771709Y-82102567D01*
X91726759Y-82210187D01*
X91689143Y-82320831D01*
X91676662Y-82367842D01*
X91649457Y-82488921D01*
X91411810Y-82488921D01*
X91396451Y-82428422D01*
X91401708Y-82292701D01*
X91434875Y-82126891D01*
X91493863Y-81939165D01*
X91576583Y-81737696D01*
X91670807Y-81549148D01*
X91695558Y-81524268D01*
X91744399Y-81504050D01*
X91824261Y-81487298D01*
X91942074Y-81472813D01*
X92104768Y-81459396D01*
X92241719Y-81450446D01*
X92429835Y-81443808D01*
X92570889Y-81451580D01*
G36*
X101477932Y-80408056D02*
X101537313Y-80448560D01*
X101563974Y-80482087D01*
X101574164Y-80516473D01*
X101567842Y-80568065D01*
X101544968Y-80653208D01*
X101536734Y-80681393D01*
X101506858Y-80776904D01*
X101480160Y-80851435D01*
X101463949Y-80886149D01*
X101442355Y-80928835D01*
X101413024Y-81002425D01*
X101401529Y-81034660D01*
X101377830Y-81109726D01*
X101377319Y-81152853D01*
X101404439Y-81185346D01*
X101438168Y-81210270D01*
X101503226Y-81274237D01*
X101559349Y-81357351D01*
X101564612Y-81367892D01*
X101597495Y-81471877D01*
X101594098Y-81577169D01*
X101551660Y-81690525D01*
X101467416Y-81818704D01*
X101338606Y-81968463D01*
X101304359Y-82004617D01*
X101234080Y-82083171D01*
X101200017Y-82138528D01*
X101195123Y-82183742D01*
X101199038Y-82199714D01*
X101216972Y-82242488D01*
X101234864Y-82234767D01*
X101245673Y-82216968D01*
X101281423Y-82177333D01*
X101323691Y-82182642D01*
X101377777Y-82235562D01*
X101430496Y-82309947D01*
X101483879Y-82387393D01*
X101522266Y-82425684D01*
X101559454Y-82434217D01*
X101599829Y-82425268D01*
X101690135Y-82394853D01*
X101743370Y-82360864D01*
X101773675Y-82306912D01*
X101776657Y-82294396D01*
X101956099Y-82294396D01*
X101983000Y-82311022D01*
X102034537Y-82285920D01*
X102105112Y-82220032D01*
X102115062Y-82208897D01*
X102205283Y-82092806D01*
X102247165Y-82005163D01*
X102240625Y-81946151D01*
X102234332Y-81938615D01*
X102193267Y-81920571D01*
X102129532Y-81939296D01*
X102129208Y-81939444D01*
X102057979Y-82001170D01*
X101997447Y-82114466D01*
X101959433Y-82235100D01*
X101956099Y-82294396D01*
X101776657Y-82294396D01*
X101795192Y-82216607D01*
X101799470Y-82193901D01*
X101836797Y-82031045D01*
X101883659Y-81916457D01*
X101948224Y-81841976D01*
X102038655Y-81799441D01*
X102163118Y-81780693D01*
X102215352Y-81778265D01*
X102338358Y-81790561D01*
X102416534Y-81833994D01*
X102450001Y-81905566D01*
X102438879Y-82002277D01*
X102383289Y-82121127D01*
X102283352Y-82259117D01*
X102191884Y-82360537D01*
X102125111Y-82432339D01*
X102100930Y-82469077D01*
X102120775Y-82474314D01*
X102186084Y-82451617D01*
X102222538Y-82436651D01*
X102354129Y-82362899D01*
X102442336Y-82272395D01*
X102481303Y-82171626D01*
X102482687Y-82148475D01*
X102509723Y-82043934D01*
X102587031Y-81952193D01*
X102708911Y-81878760D01*
X102793611Y-81847954D01*
X102881833Y-81829500D01*
X102998475Y-81815508D01*
X103128804Y-81806470D01*
X103258088Y-81802881D01*
X103371595Y-81805233D01*
X103454592Y-81814017D01*
X103487407Y-81824747D01*
X103541168Y-81891451D01*
X103581950Y-82008879D01*
X103596898Y-82085371D01*
X103624950Y-82191959D01*
X103670433Y-82302977D01*
X103686031Y-82332315D01*
X103728539Y-82401271D01*
X103766917Y-82436929D01*
X103821584Y-82450265D01*
X103909099Y-82452260D01*
X103993733Y-82456854D01*
X104049681Y-82468699D01*
X104063132Y-82480006D01*
X104039928Y-82506731D01*
X103979884Y-82547231D01*
X103917211Y-82581696D01*
X103765939Y-82634944D01*
X103630544Y-82634426D01*
X103513050Y-82580765D01*
X103415479Y-82474580D01*
X103382540Y-82417650D01*
X103350362Y-82344296D01*
X103334642Y-82272392D01*
X103332529Y-82180982D01*
X103337947Y-82089800D01*
X103353784Y-81880402D01*
X103216086Y-81896710D01*
X103059100Y-81929952D01*
X102951082Y-81986228D01*
X102893544Y-82064661D01*
X102887276Y-82087369D01*
X102850999Y-82156526D01*
X102771442Y-82241322D01*
X102657087Y-82334887D01*
X102516417Y-82430353D01*
X102357915Y-82520849D01*
X102341576Y-82529277D01*
X102226909Y-82582665D01*
X102134632Y-82610260D01*
X102040692Y-82618343D01*
X102002909Y-82617723D01*
X101885194Y-82617951D01*
X101765902Y-82624564D01*
X101720687Y-82629390D01*
X101629938Y-82635545D01*
X101554816Y-82630683D01*
X101537243Y-82626331D01*
X101352907Y-82541464D01*
X101187662Y-82427909D01*
X101051883Y-82295077D01*
X100955946Y-82152378D01*
X100922694Y-82068963D01*
X100886807Y-81945889D01*
X100765875Y-82086284D01*
X100700226Y-82167200D01*
X100661792Y-82234072D01*
X100641151Y-82310049D01*
X100628882Y-82418285D01*
X100628388Y-82424135D01*
X100612773Y-82542363D01*
X100586859Y-82607834D01*
X100545387Y-82624014D01*
X100483095Y-82594365D01*
X100431137Y-82554003D01*
X100376953Y-82511841D01*
X100337024Y-82501823D01*
X100284974Y-82521692D01*
X100252583Y-82538709D01*
X100149623Y-82573427D01*
X100018805Y-82590545D01*
X99883032Y-82589509D01*
X99765208Y-82569769D01*
X99718000Y-82551601D01*
X99640297Y-82497373D01*
X99578985Y-82435790D01*
X99520744Y-82361749D01*
X99414216Y-82445358D01*
X99325251Y-82501492D01*
X99231023Y-82541179D01*
X99203405Y-82548046D01*
X99126869Y-82554512D01*
X99068319Y-82532993D01*
X99013852Y-82488525D01*
X98957553Y-82421033D01*
X98925470Y-82352825D01*
X98924444Y-82346621D01*
X99152465Y-82346621D01*
X99169387Y-82345346D01*
X99212195Y-82313623D01*
X99268948Y-82262904D01*
X99327707Y-82204636D01*
X99376533Y-82150269D01*
X99403487Y-82111253D01*
X99405541Y-82103933D01*
X99422154Y-82067102D01*
X99461051Y-82010780D01*
X99462909Y-82008405D01*
X99503404Y-81936743D01*
X99519354Y-81870503D01*
X99513805Y-81825298D01*
X99486102Y-81821213D01*
X99449875Y-81836015D01*
X99388210Y-81885112D01*
X99318900Y-81971727D01*
X99251418Y-82079594D01*
X99195241Y-82192444D01*
X99159843Y-82294011D01*
X99152465Y-82346621D01*
X98924444Y-82346621D01*
X98923245Y-82339371D01*
X98923012Y-82195915D01*
X98947867Y-82102735D01*
X98965297Y-82079015D01*
X99004091Y-82021828D01*
X99025545Y-81971165D01*
X99048281Y-81913473D01*
X99064913Y-81887815D01*
X99085623Y-81853438D01*
X99110713Y-81790386D01*
X99110951Y-81789681D01*
X99163609Y-81709006D01*
X99249040Y-81644078D01*
X99308007Y-81615361D01*
X99370631Y-81597403D01*
X99451675Y-81588058D01*
X99565900Y-81585184D01*
X99651524Y-81585620D01*
X99807808Y-81589742D01*
X99914527Y-81601396D01*
X99978494Y-81625377D01*
X100006523Y-81666480D01*
X100005425Y-81729500D01*
X99982273Y-81818398D01*
X99954301Y-81918918D01*
X99926494Y-82035047D01*
X99901474Y-82153330D01*
X99881861Y-82260316D01*
X99870278Y-82342552D01*
X99869348Y-82386586D01*
X99870894Y-82389874D01*
X99901307Y-82386050D01*
X99952595Y-82358831D01*
X100004562Y-82319284D01*
X100080750Y-82254715D01*
X100170922Y-82174596D01*
X100264840Y-82088400D01*
X100352267Y-82005599D01*
X100422965Y-81935665D01*
X100466698Y-81888070D01*
X100475485Y-81875025D01*
X100568022Y-81633645D01*
X101145557Y-81633645D01*
X101146050Y-81633815D01*
X101177559Y-81622155D01*
X101236252Y-81593882D01*
X101240311Y-81591791D01*
X101303394Y-81544914D01*
X101339790Y-81492379D01*
X101346815Y-81431941D01*
X101340430Y-81359775D01*
X101324492Y-81297663D01*
X101302860Y-81267388D01*
X101299856Y-81266926D01*
X101279734Y-81291144D01*
X101246874Y-81354826D01*
X101208169Y-81444521D01*
X101205837Y-81450371D01*
X101171723Y-81540621D01*
X101150198Y-81606103D01*
X101145557Y-81633645D01*
X100568022Y-81633645D01*
X100606025Y-81534516D01*
X100737360Y-81231340D01*
X100806373Y-81092799D01*
X101062733Y-81092799D01*
X101068799Y-81097593D01*
X101096556Y-81074281D01*
X101137583Y-81013899D01*
X101172755Y-80949426D01*
X101206225Y-80874924D01*
X101211684Y-80845103D01*
X101192677Y-80857847D01*
X101152749Y-80911038D01*
X101101848Y-80991760D01*
X101070155Y-81054957D01*
X101062733Y-81092799D01*
X100806373Y-81092799D01*
X100866394Y-80972311D01*
X100957132Y-80815371D01*
X100981862Y-80773037D01*
X101240909Y-80773037D01*
X101255020Y-80787148D01*
X101269132Y-80773037D01*
X101255020Y-80758926D01*
X101240909Y-80773037D01*
X100981862Y-80773037D01*
X101012348Y-80720850D01*
X101052943Y-80639942D01*
X101071220Y-80588215D01*
X101071560Y-80583974D01*
X101092591Y-80537857D01*
X101145083Y-80481144D01*
X101165962Y-80464029D01*
X101269416Y-80409494D01*
X101379165Y-80390596D01*
X101477932Y-80408056D01*
X101477932Y-80408056D01*
G37*
X101477932Y-80408056D02*
X101537313Y-80448560D01*
X101563974Y-80482087D01*
X101574164Y-80516473D01*
X101567842Y-80568065D01*
X101544968Y-80653208D01*
X101536734Y-80681393D01*
X101506858Y-80776904D01*
X101480160Y-80851435D01*
X101463949Y-80886149D01*
X101442355Y-80928835D01*
X101413024Y-81002425D01*
X101401529Y-81034660D01*
X101377830Y-81109726D01*
X101377319Y-81152853D01*
X101404439Y-81185346D01*
X101438168Y-81210270D01*
X101503226Y-81274237D01*
X101559349Y-81357351D01*
X101564612Y-81367892D01*
X101597495Y-81471877D01*
X101594098Y-81577169D01*
X101551660Y-81690525D01*
X101467416Y-81818704D01*
X101338606Y-81968463D01*
X101304359Y-82004617D01*
X101234080Y-82083171D01*
X101200017Y-82138528D01*
X101195123Y-82183742D01*
X101199038Y-82199714D01*
X101216972Y-82242488D01*
X101234864Y-82234767D01*
X101245673Y-82216968D01*
X101281423Y-82177333D01*
X101323691Y-82182642D01*
X101377777Y-82235562D01*
X101430496Y-82309947D01*
X101483879Y-82387393D01*
X101522266Y-82425684D01*
X101559454Y-82434217D01*
X101599829Y-82425268D01*
X101690135Y-82394853D01*
X101743370Y-82360864D01*
X101773675Y-82306912D01*
X101776657Y-82294396D01*
X101956099Y-82294396D01*
X101983000Y-82311022D01*
X102034537Y-82285920D01*
X102105112Y-82220032D01*
X102115062Y-82208897D01*
X102205283Y-82092806D01*
X102247165Y-82005163D01*
X102240625Y-81946151D01*
X102234332Y-81938615D01*
X102193267Y-81920571D01*
X102129532Y-81939296D01*
X102129208Y-81939444D01*
X102057979Y-82001170D01*
X101997447Y-82114466D01*
X101959433Y-82235100D01*
X101956099Y-82294396D01*
X101776657Y-82294396D01*
X101795192Y-82216607D01*
X101799470Y-82193901D01*
X101836797Y-82031045D01*
X101883659Y-81916457D01*
X101948224Y-81841976D01*
X102038655Y-81799441D01*
X102163118Y-81780693D01*
X102215352Y-81778265D01*
X102338358Y-81790561D01*
X102416534Y-81833994D01*
X102450001Y-81905566D01*
X102438879Y-82002277D01*
X102383289Y-82121127D01*
X102283352Y-82259117D01*
X102191884Y-82360537D01*
X102125111Y-82432339D01*
X102100930Y-82469077D01*
X102120775Y-82474314D01*
X102186084Y-82451617D01*
X102222538Y-82436651D01*
X102354129Y-82362899D01*
X102442336Y-82272395D01*
X102481303Y-82171626D01*
X102482687Y-82148475D01*
X102509723Y-82043934D01*
X102587031Y-81952193D01*
X102708911Y-81878760D01*
X102793611Y-81847954D01*
X102881833Y-81829500D01*
X102998475Y-81815508D01*
X103128804Y-81806470D01*
X103258088Y-81802881D01*
X103371595Y-81805233D01*
X103454592Y-81814017D01*
X103487407Y-81824747D01*
X103541168Y-81891451D01*
X103581950Y-82008879D01*
X103596898Y-82085371D01*
X103624950Y-82191959D01*
X103670433Y-82302977D01*
X103686031Y-82332315D01*
X103728539Y-82401271D01*
X103766917Y-82436929D01*
X103821584Y-82450265D01*
X103909099Y-82452260D01*
X103993733Y-82456854D01*
X104049681Y-82468699D01*
X104063132Y-82480006D01*
X104039928Y-82506731D01*
X103979884Y-82547231D01*
X103917211Y-82581696D01*
X103765939Y-82634944D01*
X103630544Y-82634426D01*
X103513050Y-82580765D01*
X103415479Y-82474580D01*
X103382540Y-82417650D01*
X103350362Y-82344296D01*
X103334642Y-82272392D01*
X103332529Y-82180982D01*
X103337947Y-82089800D01*
X103353784Y-81880402D01*
X103216086Y-81896710D01*
X103059100Y-81929952D01*
X102951082Y-81986228D01*
X102893544Y-82064661D01*
X102887276Y-82087369D01*
X102850999Y-82156526D01*
X102771442Y-82241322D01*
X102657087Y-82334887D01*
X102516417Y-82430353D01*
X102357915Y-82520849D01*
X102341576Y-82529277D01*
X102226909Y-82582665D01*
X102134632Y-82610260D01*
X102040692Y-82618343D01*
X102002909Y-82617723D01*
X101885194Y-82617951D01*
X101765902Y-82624564D01*
X101720687Y-82629390D01*
X101629938Y-82635545D01*
X101554816Y-82630683D01*
X101537243Y-82626331D01*
X101352907Y-82541464D01*
X101187662Y-82427909D01*
X101051883Y-82295077D01*
X100955946Y-82152378D01*
X100922694Y-82068963D01*
X100886807Y-81945889D01*
X100765875Y-82086284D01*
X100700226Y-82167200D01*
X100661792Y-82234072D01*
X100641151Y-82310049D01*
X100628882Y-82418285D01*
X100628388Y-82424135D01*
X100612773Y-82542363D01*
X100586859Y-82607834D01*
X100545387Y-82624014D01*
X100483095Y-82594365D01*
X100431137Y-82554003D01*
X100376953Y-82511841D01*
X100337024Y-82501823D01*
X100284974Y-82521692D01*
X100252583Y-82538709D01*
X100149623Y-82573427D01*
X100018805Y-82590545D01*
X99883032Y-82589509D01*
X99765208Y-82569769D01*
X99718000Y-82551601D01*
X99640297Y-82497373D01*
X99578985Y-82435790D01*
X99520744Y-82361749D01*
X99414216Y-82445358D01*
X99325251Y-82501492D01*
X99231023Y-82541179D01*
X99203405Y-82548046D01*
X99126869Y-82554512D01*
X99068319Y-82532993D01*
X99013852Y-82488525D01*
X98957553Y-82421033D01*
X98925470Y-82352825D01*
X98924444Y-82346621D01*
X99152465Y-82346621D01*
X99169387Y-82345346D01*
X99212195Y-82313623D01*
X99268948Y-82262904D01*
X99327707Y-82204636D01*
X99376533Y-82150269D01*
X99403487Y-82111253D01*
X99405541Y-82103933D01*
X99422154Y-82067102D01*
X99461051Y-82010780D01*
X99462909Y-82008405D01*
X99503404Y-81936743D01*
X99519354Y-81870503D01*
X99513805Y-81825298D01*
X99486102Y-81821213D01*
X99449875Y-81836015D01*
X99388210Y-81885112D01*
X99318900Y-81971727D01*
X99251418Y-82079594D01*
X99195241Y-82192444D01*
X99159843Y-82294011D01*
X99152465Y-82346621D01*
X98924444Y-82346621D01*
X98923245Y-82339371D01*
X98923012Y-82195915D01*
X98947867Y-82102735D01*
X98965297Y-82079015D01*
X99004091Y-82021828D01*
X99025545Y-81971165D01*
X99048281Y-81913473D01*
X99064913Y-81887815D01*
X99085623Y-81853438D01*
X99110713Y-81790386D01*
X99110951Y-81789681D01*
X99163609Y-81709006D01*
X99249040Y-81644078D01*
X99308007Y-81615361D01*
X99370631Y-81597403D01*
X99451675Y-81588058D01*
X99565900Y-81585184D01*
X99651524Y-81585620D01*
X99807808Y-81589742D01*
X99914527Y-81601396D01*
X99978494Y-81625377D01*
X100006523Y-81666480D01*
X100005425Y-81729500D01*
X99982273Y-81818398D01*
X99954301Y-81918918D01*
X99926494Y-82035047D01*
X99901474Y-82153330D01*
X99881861Y-82260316D01*
X99870278Y-82342552D01*
X99869348Y-82386586D01*
X99870894Y-82389874D01*
X99901307Y-82386050D01*
X99952595Y-82358831D01*
X100004562Y-82319284D01*
X100080750Y-82254715D01*
X100170922Y-82174596D01*
X100264840Y-82088400D01*
X100352267Y-82005599D01*
X100422965Y-81935665D01*
X100466698Y-81888070D01*
X100475485Y-81875025D01*
X100568022Y-81633645D01*
X101145557Y-81633645D01*
X101146050Y-81633815D01*
X101177559Y-81622155D01*
X101236252Y-81593882D01*
X101240311Y-81591791D01*
X101303394Y-81544914D01*
X101339790Y-81492379D01*
X101346815Y-81431941D01*
X101340430Y-81359775D01*
X101324492Y-81297663D01*
X101302860Y-81267388D01*
X101299856Y-81266926D01*
X101279734Y-81291144D01*
X101246874Y-81354826D01*
X101208169Y-81444521D01*
X101205837Y-81450371D01*
X101171723Y-81540621D01*
X101150198Y-81606103D01*
X101145557Y-81633645D01*
X100568022Y-81633645D01*
X100606025Y-81534516D01*
X100737360Y-81231340D01*
X100806373Y-81092799D01*
X101062733Y-81092799D01*
X101068799Y-81097593D01*
X101096556Y-81074281D01*
X101137583Y-81013899D01*
X101172755Y-80949426D01*
X101206225Y-80874924D01*
X101211684Y-80845103D01*
X101192677Y-80857847D01*
X101152749Y-80911038D01*
X101101848Y-80991760D01*
X101070155Y-81054957D01*
X101062733Y-81092799D01*
X100806373Y-81092799D01*
X100866394Y-80972311D01*
X100957132Y-80815371D01*
X100981862Y-80773037D01*
X101240909Y-80773037D01*
X101255020Y-80787148D01*
X101269132Y-80773037D01*
X101255020Y-80758926D01*
X101240909Y-80773037D01*
X100981862Y-80773037D01*
X101012348Y-80720850D01*
X101052943Y-80639942D01*
X101071220Y-80588215D01*
X101071560Y-80583974D01*
X101092591Y-80537857D01*
X101145083Y-80481144D01*
X101165962Y-80464029D01*
X101269416Y-80409494D01*
X101379165Y-80390596D01*
X101477932Y-80408056D01*
G36*
X93857564Y-81391772D02*
X93893678Y-81408352D01*
X93899068Y-81411408D01*
X93941525Y-81443901D01*
X93962530Y-81487587D01*
X93962190Y-81553010D01*
X93940613Y-81650709D01*
X93902768Y-81776063D01*
X93873437Y-81883427D01*
X93849259Y-82000526D01*
X93831810Y-82114599D01*
X93822663Y-82212883D01*
X93823392Y-82282615D01*
X93835571Y-82311035D01*
X93836784Y-82311148D01*
X93871558Y-82297246D01*
X93940828Y-82260306D01*
X94031397Y-82207484D01*
X94059011Y-82190678D01*
X94159885Y-82125729D01*
X94221715Y-82075822D01*
X94255434Y-82029769D01*
X94271978Y-81976384D01*
X94272798Y-81971955D01*
X94311905Y-81818239D01*
X94328231Y-81786306D01*
X94552243Y-81786306D01*
X94568950Y-81795988D01*
X94612731Y-81770206D01*
X94674073Y-81716476D01*
X94743465Y-81642316D01*
X94761193Y-81621176D01*
X94818698Y-81543327D01*
X94835118Y-81501456D01*
X94810856Y-81496847D01*
X94746311Y-81530784D01*
X94735191Y-81537957D01*
X94683064Y-81584593D01*
X94626033Y-81652851D01*
X94578090Y-81723739D01*
X94553226Y-81778262D01*
X94552243Y-81786306D01*
X94328231Y-81786306D01*
X94373542Y-81697683D01*
X94469375Y-81592025D01*
X94563533Y-81516794D01*
X94674642Y-81453312D01*
X94769476Y-81433187D01*
X94841208Y-81455143D01*
X94883012Y-81517905D01*
X94890909Y-81577962D01*
X94872705Y-81625536D01*
X94826453Y-81696837D01*
X94764698Y-81776372D01*
X94699983Y-81848647D01*
X94644851Y-81898166D01*
X94621727Y-81910477D01*
X94596908Y-81941099D01*
X94574568Y-82008824D01*
X94567012Y-82048487D01*
X94560914Y-82144880D01*
X94584075Y-82199494D01*
X94644342Y-82222778D01*
X94700409Y-82226050D01*
X94762117Y-82236424D01*
X94772501Y-82263298D01*
X94732467Y-82301764D01*
X94681266Y-82329978D01*
X94605199Y-82358559D01*
X94543119Y-82356239D01*
X94499862Y-82341054D01*
X94423146Y-82298793D01*
X94367042Y-82252763D01*
X94340542Y-82227789D01*
X94313989Y-82223088D01*
X94276041Y-82243698D01*
X94215356Y-82294657D01*
X94160390Y-82344571D01*
X94070185Y-82423688D01*
X93983706Y-82493808D01*
X93919124Y-82540221D01*
X93917243Y-82541383D01*
X93814718Y-82580572D01*
X93697538Y-82591286D01*
X93590059Y-82573001D01*
X93542522Y-82549437D01*
X93500667Y-82496003D01*
X93483078Y-82422714D01*
X93487053Y-82344752D01*
X93509885Y-82277297D01*
X93548872Y-82235529D01*
X93598789Y-82233614D01*
X93620123Y-82231236D01*
X93638778Y-82200518D01*
X93657506Y-82133244D01*
X93679061Y-82021197D01*
X93688388Y-81966237D01*
X93706678Y-81846237D01*
X93718539Y-81748193D01*
X93722641Y-81684587D01*
X93720244Y-81667298D01*
X93689112Y-81673104D01*
X93633412Y-81720104D01*
X93558916Y-81801894D01*
X93471396Y-81912070D01*
X93376622Y-82044227D01*
X93364480Y-82062080D01*
X93269960Y-82194369D01*
X93194751Y-82280017D01*
X93133129Y-82322969D01*
X93079368Y-82327172D01*
X93027741Y-82296572D01*
X93026220Y-82295207D01*
X92985296Y-82233416D01*
X92972518Y-82161291D01*
X92988360Y-82099826D01*
X93021187Y-82072687D01*
X93060162Y-82043825D01*
X93121591Y-81981026D01*
X93194515Y-81895846D01*
X93223125Y-81859800D01*
X93372879Y-81693286D01*
X93549968Y-81549995D01*
X93600062Y-81516085D01*
X93705081Y-81448119D01*
X93775109Y-81407509D01*
X93821988Y-81390109D01*
X93857564Y-81391772D01*
X93857564Y-81391772D01*
G37*
X93857564Y-81391772D02*
X93893678Y-81408352D01*
X93899068Y-81411408D01*
X93941525Y-81443901D01*
X93962530Y-81487587D01*
X93962190Y-81553010D01*
X93940613Y-81650709D01*
X93902768Y-81776063D01*
X93873437Y-81883427D01*
X93849259Y-82000526D01*
X93831810Y-82114599D01*
X93822663Y-82212883D01*
X93823392Y-82282615D01*
X93835571Y-82311035D01*
X93836784Y-82311148D01*
X93871558Y-82297246D01*
X93940828Y-82260306D01*
X94031397Y-82207484D01*
X94059011Y-82190678D01*
X94159885Y-82125729D01*
X94221715Y-82075822D01*
X94255434Y-82029769D01*
X94271978Y-81976384D01*
X94272798Y-81971955D01*
X94311905Y-81818239D01*
X94328231Y-81786306D01*
X94552243Y-81786306D01*
X94568950Y-81795988D01*
X94612731Y-81770206D01*
X94674073Y-81716476D01*
X94743465Y-81642316D01*
X94761193Y-81621176D01*
X94818698Y-81543327D01*
X94835118Y-81501456D01*
X94810856Y-81496847D01*
X94746311Y-81530784D01*
X94735191Y-81537957D01*
X94683064Y-81584593D01*
X94626033Y-81652851D01*
X94578090Y-81723739D01*
X94553226Y-81778262D01*
X94552243Y-81786306D01*
X94328231Y-81786306D01*
X94373542Y-81697683D01*
X94469375Y-81592025D01*
X94563533Y-81516794D01*
X94674642Y-81453312D01*
X94769476Y-81433187D01*
X94841208Y-81455143D01*
X94883012Y-81517905D01*
X94890909Y-81577962D01*
X94872705Y-81625536D01*
X94826453Y-81696837D01*
X94764698Y-81776372D01*
X94699983Y-81848647D01*
X94644851Y-81898166D01*
X94621727Y-81910477D01*
X94596908Y-81941099D01*
X94574568Y-82008824D01*
X94567012Y-82048487D01*
X94560914Y-82144880D01*
X94584075Y-82199494D01*
X94644342Y-82222778D01*
X94700409Y-82226050D01*
X94762117Y-82236424D01*
X94772501Y-82263298D01*
X94732467Y-82301764D01*
X94681266Y-82329978D01*
X94605199Y-82358559D01*
X94543119Y-82356239D01*
X94499862Y-82341054D01*
X94423146Y-82298793D01*
X94367042Y-82252763D01*
X94340542Y-82227789D01*
X94313989Y-82223088D01*
X94276041Y-82243698D01*
X94215356Y-82294657D01*
X94160390Y-82344571D01*
X94070185Y-82423688D01*
X93983706Y-82493808D01*
X93919124Y-82540221D01*
X93917243Y-82541383D01*
X93814718Y-82580572D01*
X93697538Y-82591286D01*
X93590059Y-82573001D01*
X93542522Y-82549437D01*
X93500667Y-82496003D01*
X93483078Y-82422714D01*
X93487053Y-82344752D01*
X93509885Y-82277297D01*
X93548872Y-82235529D01*
X93598789Y-82233614D01*
X93620123Y-82231236D01*
X93638778Y-82200518D01*
X93657506Y-82133244D01*
X93679061Y-82021197D01*
X93688388Y-81966237D01*
X93706678Y-81846237D01*
X93718539Y-81748193D01*
X93722641Y-81684587D01*
X93720244Y-81667298D01*
X93689112Y-81673104D01*
X93633412Y-81720104D01*
X93558916Y-81801894D01*
X93471396Y-81912070D01*
X93376622Y-82044227D01*
X93364480Y-82062080D01*
X93269960Y-82194369D01*
X93194751Y-82280017D01*
X93133129Y-82322969D01*
X93079368Y-82327172D01*
X93027741Y-82296572D01*
X93026220Y-82295207D01*
X92985296Y-82233416D01*
X92972518Y-82161291D01*
X92988360Y-82099826D01*
X93021187Y-82072687D01*
X93060162Y-82043825D01*
X93121591Y-81981026D01*
X93194515Y-81895846D01*
X93223125Y-81859800D01*
X93372879Y-81693286D01*
X93549968Y-81549995D01*
X93600062Y-81516085D01*
X93705081Y-81448119D01*
X93775109Y-81407509D01*
X93821988Y-81390109D01*
X93857564Y-81391772D01*
G36*
X93025603Y-80577095D02*
X93094953Y-80637488D01*
X93182329Y-80742500D01*
X93220124Y-80836531D01*
X93212334Y-80926223D01*
X93172346Y-80972836D01*
X93103892Y-80987038D01*
X93024189Y-80969572D01*
X92950449Y-80921181D01*
X92944032Y-80914633D01*
X92883077Y-80860893D01*
X92827313Y-80828421D01*
X92826223Y-80828065D01*
X92782995Y-80789082D01*
X92779912Y-80716466D01*
X92817240Y-80616530D01*
X92817301Y-80616414D01*
X92872123Y-80549927D01*
X92941129Y-80536788D01*
X93025603Y-80577095D01*
X93025603Y-80577095D01*
G37*
X93025603Y-80577095D02*
X93094953Y-80637488D01*
X93182329Y-80742500D01*
X93220124Y-80836531D01*
X93212334Y-80926223D01*
X93172346Y-80972836D01*
X93103892Y-80987038D01*
X93024189Y-80969572D01*
X92950449Y-80921181D01*
X92944032Y-80914633D01*
X92883077Y-80860893D01*
X92827313Y-80828421D01*
X92826223Y-80828065D01*
X92782995Y-80789082D01*
X92779912Y-80716466D01*
X92817240Y-80616530D01*
X92817301Y-80616414D01*
X92872123Y-80549927D01*
X92941129Y-80536788D01*
X93025603Y-80577095D01*
D12*
X135424800Y-79896600D02*
X134424800Y-79896600D01*
X134424800Y-81596600D02*
X135424800Y-81596600D01*
X148958000Y-85585000D02*
X148958000Y-86235000D01*
X163208000Y-85585000D02*
X163208000Y-86345000D01*
X163208000Y-99835000D02*
X163208000Y-99075000D01*
X148958000Y-99835000D02*
X148958000Y-99075000D01*
X148958000Y-85585000D02*
X149718000Y-85585000D01*
X148958000Y-99835000D02*
X149718000Y-99835000D01*
X163208000Y-99835000D02*
X162448000Y-99835000D01*
X163208000Y-85585000D02*
X162448000Y-85585000D01*
X148958000Y-86235000D02*
X147433000Y-86235000D01*
X84485200Y-97350000D02*
X85485200Y-97350000D01*
X85485200Y-95650000D02*
X84485200Y-95650000D01*
X84501200Y-99148000D02*
X85501200Y-99148000D01*
X85501200Y-97448000D02*
X84501200Y-97448000D01*
X157150000Y-107430000D02*
X159850000Y-107430000D01*
X157150000Y-105930000D02*
X159850000Y-105930000D01*
X158650000Y-106830000D02*
X158650000Y-106580000D01*
X158650000Y-106580000D02*
X158500000Y-106730000D01*
X158400000Y-106330000D02*
X158400000Y-107030000D01*
X158750000Y-106680000D02*
X159100000Y-106680000D01*
X158400000Y-106680000D02*
X158750000Y-106330000D01*
X158750000Y-106330000D02*
X158750000Y-107030000D01*
X158750000Y-107030000D02*
X158400000Y-106680000D01*
X119360000Y-123190000D02*
G75*
G03X119360000Y-123190000I-1250000J0D01*
G01*
X121360000Y-125940000D02*
X121360000Y-126590000D01*
X121360000Y-126590000D02*
X114860000Y-126590000D01*
X114860000Y-126590000D02*
X114860000Y-125940000D01*
X121360000Y-120440000D02*
X121360000Y-119790000D01*
X121360000Y-119790000D02*
X114860000Y-119790000D01*
X114860000Y-119790000D02*
X114860000Y-120440000D01*
X121360000Y-121940000D02*
X121360000Y-124440000D01*
X114860000Y-121940000D02*
X114860000Y-124440000D01*
X173728000Y-83986000D02*
X172728000Y-83986000D01*
X172728000Y-85686000D02*
X173728000Y-85686000D01*
X88880000Y-123190000D02*
G75*
G03X88880000Y-123190000I-1250000J0D01*
G01*
X90880000Y-125940000D02*
X90880000Y-126590000D01*
X90880000Y-126590000D02*
X84380000Y-126590000D01*
X84380000Y-126590000D02*
X84380000Y-125940000D01*
X90880000Y-120440000D02*
X90880000Y-119790000D01*
X90880000Y-119790000D02*
X84380000Y-119790000D01*
X84380000Y-119790000D02*
X84380000Y-120440000D01*
X90880000Y-121940000D02*
X90880000Y-124440000D01*
X84380000Y-121940000D02*
X84380000Y-124440000D01*
X167310000Y-107430000D02*
X170010000Y-107430000D01*
X167310000Y-105930000D02*
X170010000Y-105930000D01*
X168810000Y-106830000D02*
X168810000Y-106580000D01*
X168810000Y-106580000D02*
X168660000Y-106730000D01*
X168560000Y-106330000D02*
X168560000Y-107030000D01*
X168910000Y-106680000D02*
X169260000Y-106680000D01*
X168560000Y-106680000D02*
X168910000Y-106330000D01*
X168910000Y-106330000D02*
X168910000Y-107030000D01*
X168910000Y-107030000D02*
X168560000Y-106680000D01*
X149840000Y-123190000D02*
G75*
G03X149840000Y-123190000I-1250000J0D01*
G01*
X151840000Y-125940000D02*
X151840000Y-126590000D01*
X151840000Y-126590000D02*
X145340000Y-126590000D01*
X145340000Y-126590000D02*
X145340000Y-125940000D01*
X151840000Y-120440000D02*
X151840000Y-119790000D01*
X151840000Y-119790000D02*
X145340000Y-119790000D01*
X145340000Y-119790000D02*
X145340000Y-120440000D01*
X151840000Y-121940000D02*
X151840000Y-124440000D01*
X145340000Y-121940000D02*
X145340000Y-124440000D01*
X120712200Y-85607600D02*
X120712200Y-86807600D01*
X118962200Y-86807600D02*
X118962200Y-85607600D01*
X160000000Y-123190000D02*
G75*
G03X160000000Y-123190000I-1250000J0D01*
G01*
X162000000Y-125940000D02*
X162000000Y-126590000D01*
X162000000Y-126590000D02*
X155500000Y-126590000D01*
X155500000Y-126590000D02*
X155500000Y-125940000D01*
X162000000Y-120440000D02*
X162000000Y-119790000D01*
X162000000Y-119790000D02*
X155500000Y-119790000D01*
X155500000Y-119790000D02*
X155500000Y-120440000D01*
X162000000Y-121940000D02*
X162000000Y-124440000D01*
X155500000Y-121940000D02*
X155500000Y-124440000D01*
X99040000Y-123190000D02*
G75*
G03X99040000Y-123190000I-1250000J0D01*
G01*
X101040000Y-125940000D02*
X101040000Y-126590000D01*
X101040000Y-126590000D02*
X94540000Y-126590000D01*
X94540000Y-126590000D02*
X94540000Y-125940000D01*
X101040000Y-120440000D02*
X101040000Y-119790000D01*
X101040000Y-119790000D02*
X94540000Y-119790000D01*
X94540000Y-119790000D02*
X94540000Y-120440000D01*
X101040000Y-121940000D02*
X101040000Y-124440000D01*
X94540000Y-121940000D02*
X94540000Y-124440000D01*
X109200000Y-123190000D02*
G75*
G03X109200000Y-123190000I-1250000J0D01*
G01*
X111200000Y-125940000D02*
X111200000Y-126590000D01*
X111200000Y-126590000D02*
X104700000Y-126590000D01*
X104700000Y-126590000D02*
X104700000Y-125940000D01*
X111200000Y-120440000D02*
X111200000Y-119790000D01*
X111200000Y-119790000D02*
X104700000Y-119790000D01*
X104700000Y-119790000D02*
X104700000Y-120440000D01*
X111200000Y-121940000D02*
X111200000Y-124440000D01*
X104700000Y-121940000D02*
X104700000Y-124440000D01*
X129520000Y-123190000D02*
G75*
G03X129520000Y-123190000I-1250000J0D01*
G01*
X131520000Y-125940000D02*
X131520000Y-126590000D01*
X131520000Y-126590000D02*
X125020000Y-126590000D01*
X125020000Y-126590000D02*
X125020000Y-125940000D01*
X131520000Y-120440000D02*
X131520000Y-119790000D01*
X131520000Y-119790000D02*
X125020000Y-119790000D01*
X125020000Y-119790000D02*
X125020000Y-120440000D01*
X131520000Y-121940000D02*
X131520000Y-124440000D01*
X125020000Y-121940000D02*
X125020000Y-124440000D01*
X139680000Y-123190000D02*
G75*
G03X139680000Y-123190000I-1250000J0D01*
G01*
X141680000Y-125940000D02*
X141680000Y-126590000D01*
X141680000Y-126590000D02*
X135180000Y-126590000D01*
X135180000Y-126590000D02*
X135180000Y-125940000D01*
X141680000Y-120440000D02*
X141680000Y-119790000D01*
X141680000Y-119790000D02*
X135180000Y-119790000D01*
X135180000Y-119790000D02*
X135180000Y-120440000D01*
X141680000Y-121940000D02*
X141680000Y-124440000D01*
X135180000Y-121940000D02*
X135180000Y-124440000D01*
X88880000Y-134620000D02*
G75*
G03X88880000Y-134620000I-1250000J0D01*
G01*
X90880000Y-137370000D02*
X90880000Y-138020000D01*
X90880000Y-138020000D02*
X84380000Y-138020000D01*
X84380000Y-138020000D02*
X84380000Y-137370000D01*
X90880000Y-131870000D02*
X90880000Y-131220000D01*
X90880000Y-131220000D02*
X84380000Y-131220000D01*
X84380000Y-131220000D02*
X84380000Y-131870000D01*
X90880000Y-133370000D02*
X90880000Y-135870000D01*
X84380000Y-133370000D02*
X84380000Y-135870000D01*
X99040000Y-134620000D02*
G75*
G03X99040000Y-134620000I-1250000J0D01*
G01*
X101040000Y-137370000D02*
X101040000Y-138020000D01*
X101040000Y-138020000D02*
X94540000Y-138020000D01*
X94540000Y-138020000D02*
X94540000Y-137370000D01*
X101040000Y-131870000D02*
X101040000Y-131220000D01*
X101040000Y-131220000D02*
X94540000Y-131220000D01*
X94540000Y-131220000D02*
X94540000Y-131870000D01*
X101040000Y-133370000D02*
X101040000Y-135870000D01*
X94540000Y-133370000D02*
X94540000Y-135870000D01*
X109200000Y-134620000D02*
G75*
G03X109200000Y-134620000I-1250000J0D01*
G01*
X111200000Y-137370000D02*
X111200000Y-138020000D01*
X111200000Y-138020000D02*
X104700000Y-138020000D01*
X104700000Y-138020000D02*
X104700000Y-137370000D01*
X111200000Y-131870000D02*
X111200000Y-131220000D01*
X111200000Y-131220000D02*
X104700000Y-131220000D01*
X104700000Y-131220000D02*
X104700000Y-131870000D01*
X111200000Y-133370000D02*
X111200000Y-135870000D01*
X104700000Y-133370000D02*
X104700000Y-135870000D01*
X119360000Y-134620000D02*
G75*
G03X119360000Y-134620000I-1250000J0D01*
G01*
X121360000Y-137370000D02*
X121360000Y-138020000D01*
X121360000Y-138020000D02*
X114860000Y-138020000D01*
X114860000Y-138020000D02*
X114860000Y-137370000D01*
X121360000Y-131870000D02*
X121360000Y-131220000D01*
X121360000Y-131220000D02*
X114860000Y-131220000D01*
X114860000Y-131220000D02*
X114860000Y-131870000D01*
X121360000Y-133370000D02*
X121360000Y-135870000D01*
X114860000Y-133370000D02*
X114860000Y-135870000D01*
X129520000Y-134620000D02*
G75*
G03X129520000Y-134620000I-1250000J0D01*
G01*
X131520000Y-137370000D02*
X131520000Y-138020000D01*
X131520000Y-138020000D02*
X125020000Y-138020000D01*
X125020000Y-138020000D02*
X125020000Y-137370000D01*
X131520000Y-131870000D02*
X131520000Y-131220000D01*
X131520000Y-131220000D02*
X125020000Y-131220000D01*
X125020000Y-131220000D02*
X125020000Y-131870000D01*
X131520000Y-133370000D02*
X131520000Y-135870000D01*
X125020000Y-133370000D02*
X125020000Y-135870000D01*
X139680000Y-134620000D02*
G75*
G03X139680000Y-134620000I-1250000J0D01*
G01*
X141680000Y-137370000D02*
X141680000Y-138020000D01*
X141680000Y-138020000D02*
X135180000Y-138020000D01*
X135180000Y-138020000D02*
X135180000Y-137370000D01*
X141680000Y-131870000D02*
X141680000Y-131220000D01*
X141680000Y-131220000D02*
X135180000Y-131220000D01*
X135180000Y-131220000D02*
X135180000Y-131870000D01*
X141680000Y-133370000D02*
X141680000Y-135870000D01*
X135180000Y-133370000D02*
X135180000Y-135870000D01*
X149840000Y-134620000D02*
G75*
G03X149840000Y-134620000I-1250000J0D01*
G01*
X151840000Y-137370000D02*
X151840000Y-138020000D01*
X151840000Y-138020000D02*
X145340000Y-138020000D01*
X145340000Y-138020000D02*
X145340000Y-137370000D01*
X151840000Y-131870000D02*
X151840000Y-131220000D01*
X151840000Y-131220000D02*
X145340000Y-131220000D01*
X145340000Y-131220000D02*
X145340000Y-131870000D01*
X151840000Y-133370000D02*
X151840000Y-135870000D01*
X145340000Y-133370000D02*
X145340000Y-135870000D01*
X160000000Y-134620000D02*
G75*
G03X160000000Y-134620000I-1250000J0D01*
G01*
X162000000Y-137370000D02*
X162000000Y-138020000D01*
X162000000Y-138020000D02*
X155500000Y-138020000D01*
X155500000Y-138020000D02*
X155500000Y-137370000D01*
X162000000Y-131870000D02*
X162000000Y-131220000D01*
X162000000Y-131220000D02*
X155500000Y-131220000D01*
X155500000Y-131220000D02*
X155500000Y-131870000D01*
X162000000Y-133370000D02*
X162000000Y-135870000D01*
X155500000Y-133370000D02*
X155500000Y-135870000D01*
X170160000Y-123190000D02*
G75*
G03X170160000Y-123190000I-1250000J0D01*
G01*
X172160000Y-125940000D02*
X172160000Y-126590000D01*
X172160000Y-126590000D02*
X165660000Y-126590000D01*
X165660000Y-126590000D02*
X165660000Y-125940000D01*
X172160000Y-120440000D02*
X172160000Y-119790000D01*
X172160000Y-119790000D02*
X165660000Y-119790000D01*
X165660000Y-119790000D02*
X165660000Y-120440000D01*
X172160000Y-121940000D02*
X172160000Y-124440000D01*
X165660000Y-121940000D02*
X165660000Y-124440000D01*
X170160000Y-134620000D02*
G75*
G03X170160000Y-134620000I-1250000J0D01*
G01*
X172160000Y-137370000D02*
X172160000Y-138020000D01*
X172160000Y-138020000D02*
X165660000Y-138020000D01*
X165660000Y-138020000D02*
X165660000Y-137370000D01*
X172160000Y-131870000D02*
X172160000Y-131220000D01*
X172160000Y-131220000D02*
X165660000Y-131220000D01*
X165660000Y-131220000D02*
X165660000Y-131870000D01*
X172160000Y-133370000D02*
X172160000Y-135870000D01*
X165660000Y-133370000D02*
X165660000Y-135870000D01*
X170160000Y-111760000D02*
G75*
G03X170160000Y-111760000I-1250000J0D01*
G01*
X172160000Y-114510000D02*
X172160000Y-115160000D01*
X172160000Y-115160000D02*
X165660000Y-115160000D01*
X165660000Y-115160000D02*
X165660000Y-114510000D01*
X172160000Y-109010000D02*
X172160000Y-108360000D01*
X172160000Y-108360000D02*
X165660000Y-108360000D01*
X165660000Y-108360000D02*
X165660000Y-109010000D01*
X172160000Y-110510000D02*
X172160000Y-113010000D01*
X165660000Y-110510000D02*
X165660000Y-113010000D01*
X119360000Y-111760000D02*
G75*
G03X119360000Y-111760000I-1250000J0D01*
G01*
X121360000Y-114510000D02*
X121360000Y-115160000D01*
X121360000Y-115160000D02*
X114860000Y-115160000D01*
X114860000Y-115160000D02*
X114860000Y-114510000D01*
X121360000Y-109010000D02*
X121360000Y-108360000D01*
X121360000Y-108360000D02*
X114860000Y-108360000D01*
X114860000Y-108360000D02*
X114860000Y-109010000D01*
X121360000Y-110510000D02*
X121360000Y-113010000D01*
X114860000Y-110510000D02*
X114860000Y-113010000D01*
X129520000Y-111760000D02*
G75*
G03X129520000Y-111760000I-1250000J0D01*
G01*
X131520000Y-114510000D02*
X131520000Y-115160000D01*
X131520000Y-115160000D02*
X125020000Y-115160000D01*
X125020000Y-115160000D02*
X125020000Y-114510000D01*
X131520000Y-109010000D02*
X131520000Y-108360000D01*
X131520000Y-108360000D02*
X125020000Y-108360000D01*
X125020000Y-108360000D02*
X125020000Y-109010000D01*
X131520000Y-110510000D02*
X131520000Y-113010000D01*
X125020000Y-110510000D02*
X125020000Y-113010000D01*
X139680000Y-111760000D02*
G75*
G03X139680000Y-111760000I-1250000J0D01*
G01*
X141680000Y-114510000D02*
X141680000Y-115160000D01*
X141680000Y-115160000D02*
X135180000Y-115160000D01*
X135180000Y-115160000D02*
X135180000Y-114510000D01*
X141680000Y-109010000D02*
X141680000Y-108360000D01*
X141680000Y-108360000D02*
X135180000Y-108360000D01*
X135180000Y-108360000D02*
X135180000Y-109010000D01*
X141680000Y-110510000D02*
X141680000Y-113010000D01*
X135180000Y-110510000D02*
X135180000Y-113010000D01*
X149840000Y-111760000D02*
G75*
G03X149840000Y-111760000I-1250000J0D01*
G01*
X151840000Y-114510000D02*
X151840000Y-115160000D01*
X151840000Y-115160000D02*
X145340000Y-115160000D01*
X145340000Y-115160000D02*
X145340000Y-114510000D01*
X151840000Y-109010000D02*
X151840000Y-108360000D01*
X151840000Y-108360000D02*
X145340000Y-108360000D01*
X145340000Y-108360000D02*
X145340000Y-109010000D01*
X151840000Y-110510000D02*
X151840000Y-113010000D01*
X145340000Y-110510000D02*
X145340000Y-113010000D01*
X160000000Y-111760000D02*
G75*
G03X160000000Y-111760000I-1250000J0D01*
G01*
X162000000Y-114510000D02*
X162000000Y-115160000D01*
X162000000Y-115160000D02*
X155500000Y-115160000D01*
X155500000Y-115160000D02*
X155500000Y-114510000D01*
X162000000Y-109010000D02*
X162000000Y-108360000D01*
X162000000Y-108360000D02*
X155500000Y-108360000D01*
X155500000Y-108360000D02*
X155500000Y-109010000D01*
X162000000Y-110510000D02*
X162000000Y-113010000D01*
X155500000Y-110510000D02*
X155500000Y-113010000D01*
X86030000Y-130290000D02*
X88730000Y-130290000D01*
X86030000Y-128790000D02*
X88730000Y-128790000D01*
X87530000Y-129690000D02*
X87530000Y-129440000D01*
X87530000Y-129440000D02*
X87380000Y-129590000D01*
X87280000Y-129190000D02*
X87280000Y-129890000D01*
X87630000Y-129540000D02*
X87980000Y-129540000D01*
X87280000Y-129540000D02*
X87630000Y-129190000D01*
X87630000Y-129190000D02*
X87630000Y-129890000D01*
X87630000Y-129890000D02*
X87280000Y-129540000D01*
X96190000Y-130290000D02*
X98890000Y-130290000D01*
X96190000Y-128790000D02*
X98890000Y-128790000D01*
X97690000Y-129690000D02*
X97690000Y-129440000D01*
X97690000Y-129440000D02*
X97540000Y-129590000D01*
X97440000Y-129190000D02*
X97440000Y-129890000D01*
X97790000Y-129540000D02*
X98140000Y-129540000D01*
X97440000Y-129540000D02*
X97790000Y-129190000D01*
X97790000Y-129190000D02*
X97790000Y-129890000D01*
X97790000Y-129890000D02*
X97440000Y-129540000D01*
X106350000Y-130290000D02*
X109050000Y-130290000D01*
X106350000Y-128790000D02*
X109050000Y-128790000D01*
X107850000Y-129690000D02*
X107850000Y-129440000D01*
X107850000Y-129440000D02*
X107700000Y-129590000D01*
X107600000Y-129190000D02*
X107600000Y-129890000D01*
X107950000Y-129540000D02*
X108300000Y-129540000D01*
X107600000Y-129540000D02*
X107950000Y-129190000D01*
X107950000Y-129190000D02*
X107950000Y-129890000D01*
X107950000Y-129890000D02*
X107600000Y-129540000D01*
X116510000Y-130290000D02*
X119210000Y-130290000D01*
X116510000Y-128790000D02*
X119210000Y-128790000D01*
X118010000Y-129690000D02*
X118010000Y-129440000D01*
X118010000Y-129440000D02*
X117860000Y-129590000D01*
X117760000Y-129190000D02*
X117760000Y-129890000D01*
X118110000Y-129540000D02*
X118460000Y-129540000D01*
X117760000Y-129540000D02*
X118110000Y-129190000D01*
X118110000Y-129190000D02*
X118110000Y-129890000D01*
X118110000Y-129890000D02*
X117760000Y-129540000D01*
X126670000Y-130290000D02*
X129370000Y-130290000D01*
X126670000Y-128790000D02*
X129370000Y-128790000D01*
X128170000Y-129690000D02*
X128170000Y-129440000D01*
X128170000Y-129440000D02*
X128020000Y-129590000D01*
X127920000Y-129190000D02*
X127920000Y-129890000D01*
X128270000Y-129540000D02*
X128620000Y-129540000D01*
X127920000Y-129540000D02*
X128270000Y-129190000D01*
X128270000Y-129190000D02*
X128270000Y-129890000D01*
X128270000Y-129890000D02*
X127920000Y-129540000D01*
X136830000Y-130290000D02*
X139530000Y-130290000D01*
X136830000Y-128790000D02*
X139530000Y-128790000D01*
X138330000Y-129690000D02*
X138330000Y-129440000D01*
X138330000Y-129440000D02*
X138180000Y-129590000D01*
X138080000Y-129190000D02*
X138080000Y-129890000D01*
X138430000Y-129540000D02*
X138780000Y-129540000D01*
X138080000Y-129540000D02*
X138430000Y-129190000D01*
X138430000Y-129190000D02*
X138430000Y-129890000D01*
X138430000Y-129890000D02*
X138080000Y-129540000D01*
X146990000Y-130290000D02*
X149690000Y-130290000D01*
X146990000Y-128790000D02*
X149690000Y-128790000D01*
X148490000Y-129690000D02*
X148490000Y-129440000D01*
X148490000Y-129440000D02*
X148340000Y-129590000D01*
X148240000Y-129190000D02*
X148240000Y-129890000D01*
X148590000Y-129540000D02*
X148940000Y-129540000D01*
X148240000Y-129540000D02*
X148590000Y-129190000D01*
X148590000Y-129190000D02*
X148590000Y-129890000D01*
X148590000Y-129890000D02*
X148240000Y-129540000D01*
X157150000Y-130290000D02*
X159850000Y-130290000D01*
X157150000Y-128790000D02*
X159850000Y-128790000D01*
X158650000Y-129690000D02*
X158650000Y-129440000D01*
X158650000Y-129440000D02*
X158500000Y-129590000D01*
X158400000Y-129190000D02*
X158400000Y-129890000D01*
X158750000Y-129540000D02*
X159100000Y-129540000D01*
X158400000Y-129540000D02*
X158750000Y-129190000D01*
X158750000Y-129190000D02*
X158750000Y-129890000D01*
X158750000Y-129890000D02*
X158400000Y-129540000D01*
X167310000Y-130290000D02*
X170010000Y-130290000D01*
X167310000Y-128790000D02*
X170010000Y-128790000D01*
X168810000Y-129690000D02*
X168810000Y-129440000D01*
X168810000Y-129440000D02*
X168660000Y-129590000D01*
X168560000Y-129190000D02*
X168560000Y-129890000D01*
X168910000Y-129540000D02*
X169260000Y-129540000D01*
X168560000Y-129540000D02*
X168910000Y-129190000D01*
X168910000Y-129190000D02*
X168910000Y-129890000D01*
X168910000Y-129890000D02*
X168560000Y-129540000D01*
X86030000Y-118860000D02*
X88730000Y-118860000D01*
X86030000Y-117360000D02*
X88730000Y-117360000D01*
X87530000Y-118260000D02*
X87530000Y-118010000D01*
X87530000Y-118010000D02*
X87380000Y-118160000D01*
X87280000Y-117760000D02*
X87280000Y-118460000D01*
X87630000Y-118110000D02*
X87980000Y-118110000D01*
X87280000Y-118110000D02*
X87630000Y-117760000D01*
X87630000Y-117760000D02*
X87630000Y-118460000D01*
X87630000Y-118460000D02*
X87280000Y-118110000D01*
X96190000Y-118860000D02*
X98890000Y-118860000D01*
X96190000Y-117360000D02*
X98890000Y-117360000D01*
X97690000Y-118260000D02*
X97690000Y-118010000D01*
X97690000Y-118010000D02*
X97540000Y-118160000D01*
X97440000Y-117760000D02*
X97440000Y-118460000D01*
X97790000Y-118110000D02*
X98140000Y-118110000D01*
X97440000Y-118110000D02*
X97790000Y-117760000D01*
X97790000Y-117760000D02*
X97790000Y-118460000D01*
X97790000Y-118460000D02*
X97440000Y-118110000D01*
X106350000Y-118860000D02*
X109050000Y-118860000D01*
X106350000Y-117360000D02*
X109050000Y-117360000D01*
X107850000Y-118260000D02*
X107850000Y-118010000D01*
X107850000Y-118010000D02*
X107700000Y-118160000D01*
X107600000Y-117760000D02*
X107600000Y-118460000D01*
X107950000Y-118110000D02*
X108300000Y-118110000D01*
X107600000Y-118110000D02*
X107950000Y-117760000D01*
X107950000Y-117760000D02*
X107950000Y-118460000D01*
X107950000Y-118460000D02*
X107600000Y-118110000D01*
X116510000Y-118860000D02*
X119210000Y-118860000D01*
X116510000Y-117360000D02*
X119210000Y-117360000D01*
X118010000Y-118260000D02*
X118010000Y-118010000D01*
X118010000Y-118010000D02*
X117860000Y-118160000D01*
X117760000Y-117760000D02*
X117760000Y-118460000D01*
X118110000Y-118110000D02*
X118460000Y-118110000D01*
X117760000Y-118110000D02*
X118110000Y-117760000D01*
X118110000Y-117760000D02*
X118110000Y-118460000D01*
X118110000Y-118460000D02*
X117760000Y-118110000D01*
X126670000Y-118860000D02*
X129370000Y-118860000D01*
X126670000Y-117360000D02*
X129370000Y-117360000D01*
X128170000Y-118260000D02*
X128170000Y-118010000D01*
X128170000Y-118010000D02*
X128020000Y-118160000D01*
X127920000Y-117760000D02*
X127920000Y-118460000D01*
X128270000Y-118110000D02*
X128620000Y-118110000D01*
X127920000Y-118110000D02*
X128270000Y-117760000D01*
X128270000Y-117760000D02*
X128270000Y-118460000D01*
X128270000Y-118460000D02*
X127920000Y-118110000D01*
X136830000Y-118860000D02*
X139530000Y-118860000D01*
X136830000Y-117360000D02*
X139530000Y-117360000D01*
X138330000Y-118260000D02*
X138330000Y-118010000D01*
X138330000Y-118010000D02*
X138180000Y-118160000D01*
X138080000Y-117760000D02*
X138080000Y-118460000D01*
X138430000Y-118110000D02*
X138780000Y-118110000D01*
X138080000Y-118110000D02*
X138430000Y-117760000D01*
X138430000Y-117760000D02*
X138430000Y-118460000D01*
X138430000Y-118460000D02*
X138080000Y-118110000D01*
X146990000Y-118860000D02*
X149690000Y-118860000D01*
X146990000Y-117360000D02*
X149690000Y-117360000D01*
X148490000Y-118260000D02*
X148490000Y-118010000D01*
X148490000Y-118010000D02*
X148340000Y-118160000D01*
X148240000Y-117760000D02*
X148240000Y-118460000D01*
X148590000Y-118110000D02*
X148940000Y-118110000D01*
X148240000Y-118110000D02*
X148590000Y-117760000D01*
X148590000Y-117760000D02*
X148590000Y-118460000D01*
X148590000Y-118460000D02*
X148240000Y-118110000D01*
X157150000Y-118860000D02*
X159850000Y-118860000D01*
X157150000Y-117360000D02*
X159850000Y-117360000D01*
X158650000Y-118260000D02*
X158650000Y-118010000D01*
X158650000Y-118010000D02*
X158500000Y-118160000D01*
X158400000Y-117760000D02*
X158400000Y-118460000D01*
X158750000Y-118110000D02*
X159100000Y-118110000D01*
X158400000Y-118110000D02*
X158750000Y-117760000D01*
X158750000Y-117760000D02*
X158750000Y-118460000D01*
X158750000Y-118460000D02*
X158400000Y-118110000D01*
X167310000Y-118860000D02*
X170010000Y-118860000D01*
X167310000Y-117360000D02*
X170010000Y-117360000D01*
X168810000Y-118260000D02*
X168810000Y-118010000D01*
X168810000Y-118010000D02*
X168660000Y-118160000D01*
X168560000Y-117760000D02*
X168560000Y-118460000D01*
X168910000Y-118110000D02*
X169260000Y-118110000D01*
X168560000Y-118110000D02*
X168910000Y-117760000D01*
X168910000Y-117760000D02*
X168910000Y-118460000D01*
X168910000Y-118460000D02*
X168560000Y-118110000D01*
X116510000Y-107430000D02*
X119210000Y-107430000D01*
X116510000Y-105930000D02*
X119210000Y-105930000D01*
X118010000Y-106830000D02*
X118010000Y-106580000D01*
X118010000Y-106580000D02*
X117860000Y-106730000D01*
X117760000Y-106330000D02*
X117760000Y-107030000D01*
X118110000Y-106680000D02*
X118460000Y-106680000D01*
X117760000Y-106680000D02*
X118110000Y-106330000D01*
X118110000Y-106330000D02*
X118110000Y-107030000D01*
X118110000Y-107030000D02*
X117760000Y-106680000D01*
X126670000Y-107430000D02*
X129370000Y-107430000D01*
X126670000Y-105930000D02*
X129370000Y-105930000D01*
X128170000Y-106830000D02*
X128170000Y-106580000D01*
X128170000Y-106580000D02*
X128020000Y-106730000D01*
X127920000Y-106330000D02*
X127920000Y-107030000D01*
X128270000Y-106680000D02*
X128620000Y-106680000D01*
X127920000Y-106680000D02*
X128270000Y-106330000D01*
X128270000Y-106330000D02*
X128270000Y-107030000D01*
X128270000Y-107030000D02*
X127920000Y-106680000D01*
X136830000Y-107430000D02*
X139530000Y-107430000D01*
X136830000Y-105930000D02*
X139530000Y-105930000D01*
X138330000Y-106830000D02*
X138330000Y-106580000D01*
X138330000Y-106580000D02*
X138180000Y-106730000D01*
X138080000Y-106330000D02*
X138080000Y-107030000D01*
X138430000Y-106680000D02*
X138780000Y-106680000D01*
X138080000Y-106680000D02*
X138430000Y-106330000D01*
X138430000Y-106330000D02*
X138430000Y-107030000D01*
X138430000Y-107030000D02*
X138080000Y-106680000D01*
X146990000Y-107430000D02*
X149690000Y-107430000D01*
X146990000Y-105930000D02*
X149690000Y-105930000D01*
X148490000Y-106830000D02*
X148490000Y-106580000D01*
X148490000Y-106580000D02*
X148340000Y-106730000D01*
X148240000Y-106330000D02*
X148240000Y-107030000D01*
X148590000Y-106680000D02*
X148940000Y-106680000D01*
X148240000Y-106680000D02*
X148590000Y-106330000D01*
X148590000Y-106330000D02*
X148590000Y-107030000D01*
X148590000Y-107030000D02*
X148240000Y-106680000D01*
D16*
X117562200Y-84597600D02*
X115762200Y-84597600D01*
X115762200Y-87817600D02*
X118212200Y-87817600D01*
D12*
X132638680Y-77564140D02*
X123938680Y-77564140D01*
X132638680Y-83969140D02*
X123938680Y-83969140D01*
X123938680Y-83969140D02*
X123938680Y-77564140D01*
X123938680Y-78794140D02*
X132638680Y-78794140D01*
X132638680Y-77564140D02*
X132638680Y-83969140D01*
X119250000Y-81700000D02*
X119250000Y-82700000D01*
X120950000Y-82700000D02*
X120950000Y-81700000D01*
X141723000Y-81727800D02*
X141723000Y-83727800D01*
X143773000Y-83727800D02*
X143773000Y-81727800D01*
X112104200Y-86934600D02*
X112104200Y-85734600D01*
X113854200Y-85734600D02*
X113854200Y-86934600D01*
D16*
X133602000Y-88956000D02*
X133602000Y-88026000D01*
X133602000Y-85796000D02*
X133602000Y-86726000D01*
X133602000Y-85796000D02*
X131442000Y-85796000D01*
X133602000Y-88956000D02*
X132142000Y-88956000D01*
D12*
X164076000Y-101512000D02*
X163076000Y-101512000D01*
X163076000Y-103212000D02*
X164076000Y-103212000D01*
X167682800Y-89447000D02*
X166682800Y-89447000D01*
X166682800Y-91147000D02*
X167682800Y-91147000D01*
X173728000Y-85637000D02*
X172728000Y-85637000D01*
X172728000Y-87337000D02*
X173728000Y-87337000D01*
X167475800Y-81288000D02*
X167475800Y-82288000D01*
X169175800Y-82288000D02*
X169175800Y-81288000D01*
X173728000Y-87288000D02*
X172728000Y-87288000D01*
X172728000Y-88988000D02*
X173728000Y-88988000D01*
X170877600Y-82313400D02*
X170877600Y-81313400D01*
X169177600Y-81313400D02*
X169177600Y-82313400D01*
X172604800Y-82313400D02*
X172604800Y-81313400D01*
X170904800Y-81313400D02*
X170904800Y-82313400D01*
X167285000Y-88112000D02*
X167285000Y-87612000D01*
X170535000Y-84862000D02*
X170535000Y-85362000D01*
X167285000Y-84862000D02*
X167285000Y-85362000D01*
X170535000Y-88112000D02*
X170035000Y-88112000D01*
X170535000Y-84862000D02*
X170035000Y-84862000D01*
X167285000Y-84862000D02*
X167785000Y-84862000D01*
X167285000Y-88112000D02*
X167785000Y-88112000D01*
X122619200Y-87680600D02*
X122619200Y-84980600D01*
X121119200Y-87680600D02*
X121119200Y-84980600D01*
X122019200Y-86180600D02*
X121769200Y-86180600D01*
X121769200Y-86180600D02*
X121919200Y-86330600D01*
X121519200Y-86430600D02*
X122219200Y-86430600D01*
X121869200Y-86080600D02*
X121869200Y-85730600D01*
X121869200Y-86430600D02*
X121519200Y-86080600D01*
X121519200Y-86080600D02*
X122219200Y-86080600D01*
X122219200Y-86080600D02*
X121869200Y-86430600D01*
X136486000Y-91432000D02*
X136486000Y-90432000D01*
X134786000Y-90432000D02*
X134786000Y-91432000D01*
X134786000Y-94496000D02*
X134786000Y-95496000D01*
X136486000Y-95496000D02*
X136486000Y-94496000D01*
X145000600Y-96750000D02*
X144000600Y-96750000D01*
X144000600Y-98450000D02*
X145000600Y-98450000D01*
X145000000Y-98450000D02*
X144000000Y-98450000D01*
X144000000Y-100150000D02*
X145000000Y-100150000D01*
X144067400Y-86850000D02*
X145067400Y-86850000D01*
X145067400Y-85150000D02*
X144067400Y-85150000D01*
X144076800Y-90410400D02*
X145076800Y-90410400D01*
X145076800Y-88710400D02*
X144076800Y-88710400D01*
X145000000Y-95050000D02*
X144000000Y-95050000D01*
X144000000Y-96750000D02*
X145000000Y-96750000D01*
X147486000Y-101608000D02*
X147486000Y-102608000D01*
X149186000Y-102608000D02*
X149186000Y-101608000D01*
X164500000Y-101053000D02*
X165500000Y-101053000D01*
X165500000Y-99353000D02*
X164500000Y-99353000D01*
X167448600Y-82288000D02*
X167448600Y-81288000D01*
X165748600Y-81288000D02*
X165748600Y-82288000D01*
X147308200Y-83294600D02*
X147308200Y-84294600D01*
X149008200Y-84294600D02*
X149008200Y-83294600D01*
X145550000Y-100150000D02*
X144550000Y-100150000D01*
X144550000Y-101850000D02*
X145550000Y-101850000D01*
X172551800Y-94883000D02*
X173751800Y-94883000D01*
X173751800Y-96633000D02*
X172551800Y-96633000D01*
X172551800Y-93105000D02*
X173751800Y-93105000D01*
X173751800Y-94855000D02*
X172551800Y-94855000D01*
X154767840Y-82297240D02*
X153567840Y-82297240D01*
X153567840Y-80547240D02*
X154767840Y-80547240D01*
X143900000Y-93275000D02*
X145100000Y-93275000D01*
X145100000Y-95025000D02*
X143900000Y-95025000D01*
X171337000Y-99888600D02*
X171337000Y-98688600D01*
X173087000Y-98688600D02*
X173087000Y-99888600D01*
X169559000Y-99888600D02*
X169559000Y-98688600D01*
X171309000Y-98688600D02*
X171309000Y-99888600D01*
X167781000Y-99873400D02*
X167781000Y-98673400D01*
X169531000Y-98673400D02*
X169531000Y-99873400D01*
X128950000Y-86900000D02*
X128950000Y-87900000D01*
X130650000Y-87900000D02*
X130650000Y-86900000D01*
X131900000Y-94225000D02*
X133100000Y-94225000D01*
X133100000Y-95975000D02*
X131900000Y-95975000D01*
X131900000Y-92425000D02*
X133100000Y-92425000D01*
X133100000Y-94175000D02*
X131900000Y-94175000D01*
X131899100Y-90625000D02*
X133099100Y-90625000D01*
X133099100Y-92375000D02*
X131899100Y-92375000D01*
X131900000Y-97825000D02*
X133100000Y-97825000D01*
X133100000Y-99575000D02*
X131900000Y-99575000D01*
X131900000Y-96025000D02*
X133100000Y-96025000D01*
X133100000Y-97775000D02*
X131900000Y-97775000D01*
X132002400Y-101279060D02*
X133002400Y-101279060D01*
X133002400Y-99579060D02*
X132002400Y-99579060D01*
X119454040Y-101634660D02*
X120454040Y-101634660D01*
X120454040Y-99934660D02*
X119454040Y-99934660D01*
X84501200Y-93814000D02*
X85501200Y-93814000D01*
X85501200Y-92114000D02*
X84501200Y-92114000D01*
X85501200Y-88304000D02*
X84501200Y-88304000D01*
X84501200Y-90004000D02*
X85501200Y-90004000D01*
X85501200Y-90336000D02*
X84501200Y-90336000D01*
X84501200Y-92036000D02*
X85501200Y-92036000D01*
X84401200Y-93867000D02*
X85601200Y-93867000D01*
X85601200Y-95617000D02*
X84401200Y-95617000D01*
X83751800Y-101103800D02*
X84751800Y-101103800D01*
X84751800Y-99403800D02*
X83751800Y-99403800D01*
X93972000Y-99403800D02*
X92972000Y-99403800D01*
X92972000Y-101103800D02*
X93972000Y-101103800D01*
X99906200Y-101103800D02*
X100906200Y-101103800D01*
X100906200Y-99403800D02*
X99906200Y-99403800D01*
X110101000Y-99403800D02*
X109101000Y-99403800D01*
X109101000Y-101103800D02*
X110101000Y-101103800D01*
X84864500Y-102856000D02*
X83664500Y-102856000D01*
X83664500Y-101106000D02*
X84864500Y-101106000D01*
X94072000Y-102856000D02*
X92872000Y-102856000D01*
X92872000Y-101106000D02*
X94072000Y-101106000D01*
X100993500Y-102856000D02*
X99793500Y-102856000D01*
X99793500Y-101106000D02*
X100993500Y-101106000D01*
X110201000Y-102856000D02*
X109001000Y-102856000D01*
X109001000Y-101106000D02*
X110201000Y-101106000D01*
X140319760Y-97790000D02*
X139918440Y-97990660D01*
X139918440Y-97990660D02*
X139319000Y-98092260D01*
X139319000Y-98092260D02*
X138818620Y-97990660D01*
X138818620Y-97990660D02*
X138120120Y-97591880D01*
X138120120Y-97591880D02*
X137718800Y-96989900D01*
X137718800Y-96989900D02*
X137518140Y-96390460D01*
X137518140Y-96390460D02*
X137518140Y-89791540D01*
X137518140Y-89791540D02*
X137718800Y-89090500D01*
X137718800Y-89090500D02*
X138018520Y-88691720D01*
X138018520Y-88691720D02*
X138518900Y-88290400D01*
X138518900Y-88290400D02*
X139118340Y-88089740D01*
X139118340Y-88089740D02*
X139618720Y-88089740D01*
X139618720Y-88089740D02*
X140119100Y-88290400D01*
X140119100Y-88290400D02*
X140718540Y-88790780D01*
X140718540Y-88790780D02*
X141018260Y-89291160D01*
X141018260Y-89291160D02*
X141119860Y-89791540D01*
X141119860Y-89890600D02*
X141119860Y-96492060D01*
X141119860Y-96492060D02*
X141018260Y-96890840D01*
X141018260Y-96890840D02*
X140718540Y-97391220D01*
X140718540Y-97391220D02*
X140218160Y-97891600D01*
X141648180Y-89900760D02*
X141599920Y-89441020D01*
X141599920Y-89441020D02*
X141488160Y-89042240D01*
X141488160Y-89042240D02*
X141269720Y-88610440D01*
X141269720Y-88610440D02*
X141038580Y-88320880D01*
X141038580Y-88320880D02*
X140688060Y-87990680D01*
X140688060Y-87990680D02*
X140149580Y-87701120D01*
X140149580Y-87701120D02*
X139550140Y-87571580D01*
X139550140Y-87571580D02*
X139039600Y-87571580D01*
X139039600Y-87571580D02*
X138338560Y-87741760D01*
X138338560Y-87741760D02*
X137749280Y-88140540D01*
X137749280Y-88140540D02*
X137378440Y-88600280D01*
X137378440Y-88600280D02*
X137170160Y-89021920D01*
X137170160Y-89021920D02*
X137010140Y-89471500D01*
X137010140Y-89471500D02*
X136979660Y-89910920D01*
X137198100Y-97251520D02*
X137419080Y-97629980D01*
X137419080Y-97629980D02*
X137698480Y-97950020D01*
X137698480Y-97950020D02*
X138028680Y-98201480D01*
X138028680Y-98201480D02*
X138579860Y-98501200D01*
X138579860Y-98501200D02*
X139049760Y-98610420D01*
X139049760Y-98610420D02*
X139509500Y-98630740D01*
X139509500Y-98630740D02*
X139969240Y-98541840D01*
X139969240Y-98541840D02*
X140418820Y-98351340D01*
X140418820Y-98351340D02*
X140888720Y-97990660D01*
X140888720Y-97990660D02*
X141208760Y-97640140D01*
X141208760Y-97640140D02*
X141439900Y-97251520D01*
X141439900Y-97251520D02*
X141579600Y-96822260D01*
X141579600Y-96822260D02*
X141648180Y-96380300D01*
X136989820Y-89890600D02*
X136989820Y-96342200D01*
X136989820Y-96342200D02*
X137027920Y-96761300D01*
X137027920Y-96761300D02*
X137198100Y-97251520D01*
X141648180Y-89890600D02*
X141648180Y-96342200D01*
X145914600Y-78804000D02*
X145914600Y-78254000D01*
X145914600Y-78254000D02*
X147614600Y-78254000D01*
X147614600Y-78254000D02*
X147614600Y-78804000D01*
X148514600Y-81904000D02*
X145014600Y-81904000D01*
X145014600Y-78804000D02*
X148514600Y-78804000D01*
X139571807Y-86705800D02*
G75*
G03X139571807Y-86705800I-223607J0D01*
G01*
X139848200Y-82005800D02*
X139848200Y-87005800D01*
X136148200Y-82005800D02*
X139848200Y-82005800D01*
X136148200Y-87005800D02*
X136148200Y-82005800D01*
X139848200Y-87005800D02*
X136148200Y-87005800D01*
X115161800Y-83332000D02*
X107541800Y-83332000D01*
X115161800Y-80792000D02*
X107541800Y-80792000D01*
X117981800Y-80512000D02*
X116431800Y-80512000D01*
X107541800Y-83332000D02*
X107541800Y-80792000D01*
X115161800Y-80792000D02*
X115161800Y-83332000D01*
X116431800Y-83612000D02*
X117981800Y-83612000D01*
X117981800Y-83612000D02*
X117981800Y-80512000D01*
X105652600Y-87315600D02*
X105652600Y-86115600D01*
X107402600Y-86115600D02*
X107402600Y-87315600D01*
X105652600Y-84155800D02*
X105652600Y-82955800D01*
X107402600Y-82955800D02*
X107402600Y-84155800D01*
D16*
X171587000Y-91701400D02*
X172517000Y-91701400D01*
X174747000Y-91701400D02*
X173817000Y-91701400D01*
X174747000Y-91701400D02*
X174747000Y-89541400D01*
X171587000Y-91701400D02*
X171587000Y-90241400D01*
D11*
X98750000Y-112600000D02*
X98750000Y-105400000D01*
X109000000Y-114850000D02*
X101000000Y-114850000D01*
X111250000Y-105400000D02*
X111250000Y-112600000D01*
X101000000Y-103150000D02*
X109000000Y-103150000D01*
X109000000Y-114850000D02*
X111250000Y-112600000D01*
X101000000Y-114850000D02*
X98750000Y-112600000D01*
X101000000Y-103150000D02*
X98750000Y-105400000D01*
X111250000Y-105400000D02*
X109000000Y-103150000D01*
X82624600Y-112616800D02*
X82624600Y-105416800D01*
X92874600Y-114866800D02*
X84874600Y-114866800D01*
X95124600Y-105416800D02*
X95124600Y-112616800D01*
X84874600Y-103166800D02*
X92874600Y-103166800D01*
X92874600Y-114866800D02*
X95124600Y-112616800D01*
X84874600Y-114866800D02*
X82624600Y-112616800D01*
X84874600Y-103166800D02*
X82624600Y-105416800D01*
X95124600Y-105416800D02*
X92874600Y-103166800D01*
X94232736Y-89479346D02*
X98032736Y-88979346D01*
X87332736Y-89479346D02*
X94232736Y-89479346D01*
X94232736Y-98479346D02*
X98032736Y-98979346D01*
X87532736Y-98479346D02*
X94232736Y-98479346D01*
X127532736Y-98979346D02*
X127532736Y-88979346D01*
X98032736Y-88979346D02*
X127532736Y-88979346D01*
X98032736Y-98979346D02*
X98032736Y-88979346D01*
X127532736Y-98979346D02*
X98032736Y-98979346D01*
X87332736Y-89479346D02*
X87332736Y-89979346D01*
D17*
X137560067Y-81032314D02*
X137521972Y-81070410D01*
X137407686Y-81108505D01*
X137331496Y-81108505D01*
X137217210Y-81070410D01*
X137141019Y-80994219D01*
X137102924Y-80918029D01*
X137064829Y-80765648D01*
X137064829Y-80651362D01*
X137102924Y-80498981D01*
X137141019Y-80422790D01*
X137217210Y-80346600D01*
X137331496Y-80308505D01*
X137407686Y-80308505D01*
X137521972Y-80346600D01*
X137560067Y-80384695D01*
X137864829Y-80384695D02*
X137902924Y-80346600D01*
X137979115Y-80308505D01*
X138169591Y-80308505D01*
X138245781Y-80346600D01*
X138283877Y-80384695D01*
X138321972Y-80460886D01*
X138321972Y-80537076D01*
X138283877Y-80651362D01*
X137826734Y-81108505D01*
X138321972Y-81108505D01*
X81676914Y-96772714D02*
X81638819Y-96810810D01*
X81524533Y-96848905D01*
X81448343Y-96848905D01*
X81334057Y-96810810D01*
X81257866Y-96734619D01*
X81219771Y-96658429D01*
X81181676Y-96506048D01*
X81181676Y-96391762D01*
X81219771Y-96239381D01*
X81257866Y-96163190D01*
X81334057Y-96087000D01*
X81448343Y-96048905D01*
X81524533Y-96048905D01*
X81638819Y-96087000D01*
X81676914Y-96125095D01*
X81981676Y-96125095D02*
X82019771Y-96087000D01*
X82095962Y-96048905D01*
X82286438Y-96048905D01*
X82362628Y-96087000D01*
X82400724Y-96125095D01*
X82438819Y-96201286D01*
X82438819Y-96277476D01*
X82400724Y-96391762D01*
X81943581Y-96848905D01*
X82438819Y-96848905D01*
X83124533Y-96048905D02*
X82972152Y-96048905D01*
X82895962Y-96087000D01*
X82857867Y-96125095D01*
X82781676Y-96239381D01*
X82743581Y-96391762D01*
X82743581Y-96696524D01*
X82781676Y-96772714D01*
X82819771Y-96810810D01*
X82895962Y-96848905D01*
X83048343Y-96848905D01*
X83124533Y-96810810D01*
X83162629Y-96772714D01*
X83200724Y-96696524D01*
X83200724Y-96506048D01*
X83162629Y-96429857D01*
X83124533Y-96391762D01*
X83048343Y-96353667D01*
X82895962Y-96353667D01*
X82819771Y-96391762D01*
X82781676Y-96429857D01*
X82743581Y-96506048D01*
X81629414Y-98583714D02*
X81591319Y-98621810D01*
X81477033Y-98659905D01*
X81400843Y-98659905D01*
X81286557Y-98621810D01*
X81210366Y-98545619D01*
X81172271Y-98469429D01*
X81134176Y-98317048D01*
X81134176Y-98202762D01*
X81172271Y-98050381D01*
X81210366Y-97974190D01*
X81286557Y-97898000D01*
X81400843Y-97859905D01*
X81477033Y-97859905D01*
X81591319Y-97898000D01*
X81629414Y-97936095D01*
X81934176Y-97936095D02*
X81972271Y-97898000D01*
X82048462Y-97859905D01*
X82238938Y-97859905D01*
X82315128Y-97898000D01*
X82353224Y-97936095D01*
X82391319Y-98012286D01*
X82391319Y-98088476D01*
X82353224Y-98202762D01*
X81896081Y-98659905D01*
X82391319Y-98659905D01*
X82657986Y-97859905D02*
X83191319Y-97859905D01*
X82848462Y-98659905D01*
X175494967Y-85121714D02*
X175456872Y-85159810D01*
X175342586Y-85197905D01*
X175266396Y-85197905D01*
X175152110Y-85159810D01*
X175075919Y-85083619D01*
X175037824Y-85007429D01*
X174999729Y-84855048D01*
X174999729Y-84740762D01*
X175037824Y-84588381D01*
X175075919Y-84512190D01*
X175152110Y-84436000D01*
X175266396Y-84397905D01*
X175342586Y-84397905D01*
X175456872Y-84436000D01*
X175494967Y-84474095D01*
X176180681Y-84397905D02*
X176028300Y-84397905D01*
X175952110Y-84436000D01*
X175914015Y-84474095D01*
X175837824Y-84588381D01*
X175799729Y-84740762D01*
X175799729Y-85045524D01*
X175837824Y-85121714D01*
X175875919Y-85159810D01*
X175952110Y-85197905D01*
X176104491Y-85197905D01*
X176180681Y-85159810D01*
X176218777Y-85121714D01*
X176256872Y-85045524D01*
X176256872Y-84855048D01*
X176218777Y-84778857D01*
X176180681Y-84740762D01*
X176104491Y-84702667D01*
X175952110Y-84702667D01*
X175875919Y-84740762D01*
X175837824Y-84778857D01*
X175799729Y-84855048D01*
X119703867Y-88561905D02*
X119437200Y-88180952D01*
X119246724Y-88561905D02*
X119246724Y-87761905D01*
X119551486Y-87761905D01*
X119627677Y-87800000D01*
X119665772Y-87838095D01*
X119703867Y-87914286D01*
X119703867Y-88028571D01*
X119665772Y-88104762D01*
X119627677Y-88142857D01*
X119551486Y-88180952D01*
X119246724Y-88180952D01*
X120465772Y-88561905D02*
X120008629Y-88561905D01*
X120237200Y-88561905D02*
X120237200Y-87761905D01*
X120161010Y-87876190D01*
X120084819Y-87952381D01*
X120008629Y-87990476D01*
X121866667Y-81485714D02*
X121828572Y-81523810D01*
X121714286Y-81561905D01*
X121638096Y-81561905D01*
X121523810Y-81523810D01*
X121447619Y-81447619D01*
X121409524Y-81371429D01*
X121371429Y-81219048D01*
X121371429Y-81104762D01*
X121409524Y-80952381D01*
X121447619Y-80876190D01*
X121523810Y-80800000D01*
X121638096Y-80761905D01*
X121714286Y-80761905D01*
X121828572Y-80800000D01*
X121866667Y-80838095D01*
X122628572Y-81561905D02*
X122171429Y-81561905D01*
X122400000Y-81561905D02*
X122400000Y-80761905D01*
X122323810Y-80876190D01*
X122247619Y-80952381D01*
X122171429Y-80990476D01*
X144697414Y-82861133D02*
X144735510Y-82899228D01*
X144773605Y-83013514D01*
X144773605Y-83089704D01*
X144735510Y-83203990D01*
X144659319Y-83280181D01*
X144583129Y-83318276D01*
X144430748Y-83356371D01*
X144316462Y-83356371D01*
X144164081Y-83318276D01*
X144087890Y-83280181D01*
X144011700Y-83203990D01*
X143973605Y-83089704D01*
X143973605Y-83013514D01*
X144011700Y-82899228D01*
X144049795Y-82861133D01*
X143973605Y-82594466D02*
X143973605Y-82099228D01*
X144278367Y-82365895D01*
X144278367Y-82251609D01*
X144316462Y-82175419D01*
X144354557Y-82137323D01*
X144430748Y-82099228D01*
X144621224Y-82099228D01*
X144697414Y-82137323D01*
X144735510Y-82175419D01*
X144773605Y-82251609D01*
X144773605Y-82480181D01*
X144735510Y-82556371D01*
X144697414Y-82594466D01*
X112845867Y-84537505D02*
X112579200Y-84156552D01*
X112388724Y-84537505D02*
X112388724Y-83737505D01*
X112693486Y-83737505D01*
X112769677Y-83775600D01*
X112807772Y-83813695D01*
X112845867Y-83889886D01*
X112845867Y-84004171D01*
X112807772Y-84080362D01*
X112769677Y-84118457D01*
X112693486Y-84156552D01*
X112388724Y-84156552D01*
X113150629Y-83813695D02*
X113188724Y-83775600D01*
X113264915Y-83737505D01*
X113455391Y-83737505D01*
X113531581Y-83775600D01*
X113569677Y-83813695D01*
X113607772Y-83889886D01*
X113607772Y-83966076D01*
X113569677Y-84080362D01*
X113112534Y-84537505D01*
X113607772Y-84537505D01*
X165893767Y-102647714D02*
X165855672Y-102685810D01*
X165741386Y-102723905D01*
X165665196Y-102723905D01*
X165550910Y-102685810D01*
X165474719Y-102609619D01*
X165436624Y-102533429D01*
X165398529Y-102381048D01*
X165398529Y-102266762D01*
X165436624Y-102114381D01*
X165474719Y-102038190D01*
X165550910Y-101962000D01*
X165665196Y-101923905D01*
X165741386Y-101923905D01*
X165855672Y-101962000D01*
X165893767Y-102000095D01*
X166579481Y-102190571D02*
X166579481Y-102723905D01*
X166389005Y-101885810D02*
X166198529Y-102457238D01*
X166693767Y-102457238D01*
X169462467Y-90582714D02*
X169424372Y-90620810D01*
X169310086Y-90658905D01*
X169233896Y-90658905D01*
X169119610Y-90620810D01*
X169043419Y-90544619D01*
X169005324Y-90468429D01*
X168967229Y-90316048D01*
X168967229Y-90201762D01*
X169005324Y-90049381D01*
X169043419Y-89973190D01*
X169119610Y-89897000D01*
X169233896Y-89858905D01*
X169310086Y-89858905D01*
X169424372Y-89897000D01*
X169462467Y-89935095D01*
X170186277Y-89858905D02*
X169805324Y-89858905D01*
X169767229Y-90239857D01*
X169805324Y-90201762D01*
X169881515Y-90163667D01*
X170071991Y-90163667D01*
X170148181Y-90201762D01*
X170186277Y-90239857D01*
X170224372Y-90316048D01*
X170224372Y-90506524D01*
X170186277Y-90582714D01*
X170148181Y-90620810D01*
X170071991Y-90658905D01*
X169881515Y-90658905D01*
X169805324Y-90620810D01*
X169767229Y-90582714D01*
X175466667Y-86772714D02*
X175428572Y-86810810D01*
X175314286Y-86848905D01*
X175238096Y-86848905D01*
X175123810Y-86810810D01*
X175047619Y-86734619D01*
X175009524Y-86658429D01*
X174971429Y-86506048D01*
X174971429Y-86391762D01*
X175009524Y-86239381D01*
X175047619Y-86163190D01*
X175123810Y-86087000D01*
X175238096Y-86048905D01*
X175314286Y-86048905D01*
X175428572Y-86087000D01*
X175466667Y-86125095D01*
X175733334Y-86048905D02*
X176266667Y-86048905D01*
X175923810Y-86848905D01*
X168192467Y-79787714D02*
X168154372Y-79825810D01*
X168040086Y-79863905D01*
X167963896Y-79863905D01*
X167849610Y-79825810D01*
X167773419Y-79749619D01*
X167735324Y-79673429D01*
X167697229Y-79521048D01*
X167697229Y-79406762D01*
X167735324Y-79254381D01*
X167773419Y-79178190D01*
X167849610Y-79102000D01*
X167963896Y-79063905D01*
X168040086Y-79063905D01*
X168154372Y-79102000D01*
X168192467Y-79140095D01*
X168649610Y-79406762D02*
X168573419Y-79368667D01*
X168535324Y-79330571D01*
X168497229Y-79254381D01*
X168497229Y-79216286D01*
X168535324Y-79140095D01*
X168573419Y-79102000D01*
X168649610Y-79063905D01*
X168801991Y-79063905D01*
X168878181Y-79102000D01*
X168916277Y-79140095D01*
X168954372Y-79216286D01*
X168954372Y-79254381D01*
X168916277Y-79330571D01*
X168878181Y-79368667D01*
X168801991Y-79406762D01*
X168649610Y-79406762D01*
X168573419Y-79444857D01*
X168535324Y-79482952D01*
X168497229Y-79559143D01*
X168497229Y-79711524D01*
X168535324Y-79787714D01*
X168573419Y-79825810D01*
X168649610Y-79863905D01*
X168801991Y-79863905D01*
X168878181Y-79825810D01*
X168916277Y-79787714D01*
X168954372Y-79711524D01*
X168954372Y-79559143D01*
X168916277Y-79482952D01*
X168878181Y-79444857D01*
X168801991Y-79406762D01*
X175466667Y-88385714D02*
X175428572Y-88423810D01*
X175314286Y-88461905D01*
X175238096Y-88461905D01*
X175123810Y-88423810D01*
X175047619Y-88347619D01*
X175009524Y-88271429D01*
X174971429Y-88119048D01*
X174971429Y-88004762D01*
X175009524Y-87852381D01*
X175047619Y-87776190D01*
X175123810Y-87700000D01*
X175238096Y-87661905D01*
X175314286Y-87661905D01*
X175428572Y-87700000D01*
X175466667Y-87738095D01*
X175847619Y-88461905D02*
X176000000Y-88461905D01*
X176076191Y-88423810D01*
X176114286Y-88385714D01*
X176190477Y-88271429D01*
X176228572Y-88119048D01*
X176228572Y-87814286D01*
X176190477Y-87738095D01*
X176152381Y-87700000D01*
X176076191Y-87661905D01*
X175923810Y-87661905D01*
X175847619Y-87700000D01*
X175809524Y-87738095D01*
X175771429Y-87814286D01*
X175771429Y-88004762D01*
X175809524Y-88080952D01*
X175847619Y-88119048D01*
X175923810Y-88157143D01*
X176076191Y-88157143D01*
X176152381Y-88119048D01*
X176190477Y-88080952D01*
X176228572Y-88004762D01*
X169653014Y-79762314D02*
X169614919Y-79800410D01*
X169500633Y-79838505D01*
X169424443Y-79838505D01*
X169310157Y-79800410D01*
X169233966Y-79724219D01*
X169195871Y-79648029D01*
X169157776Y-79495648D01*
X169157776Y-79381362D01*
X169195871Y-79228981D01*
X169233966Y-79152790D01*
X169310157Y-79076600D01*
X169424443Y-79038505D01*
X169500633Y-79038505D01*
X169614919Y-79076600D01*
X169653014Y-79114695D01*
X170414919Y-79838505D02*
X169957776Y-79838505D01*
X170186347Y-79838505D02*
X170186347Y-79038505D01*
X170110157Y-79152790D01*
X170033966Y-79228981D01*
X169957776Y-79267076D01*
X170910157Y-79038505D02*
X170986348Y-79038505D01*
X171062538Y-79076600D01*
X171100633Y-79114695D01*
X171138729Y-79190886D01*
X171176824Y-79343267D01*
X171176824Y-79533743D01*
X171138729Y-79686124D01*
X171100633Y-79762314D01*
X171062538Y-79800410D01*
X170986348Y-79838505D01*
X170910157Y-79838505D01*
X170833967Y-79800410D01*
X170795871Y-79762314D01*
X170757776Y-79686124D01*
X170719681Y-79533743D01*
X170719681Y-79343267D01*
X170757776Y-79190886D01*
X170795871Y-79114695D01*
X170833967Y-79076600D01*
X170910157Y-79038505D01*
X173272514Y-82149914D02*
X173234419Y-82188010D01*
X173120133Y-82226105D01*
X173043943Y-82226105D01*
X172929657Y-82188010D01*
X172853466Y-82111819D01*
X172815371Y-82035629D01*
X172777276Y-81883248D01*
X172777276Y-81768962D01*
X172815371Y-81616581D01*
X172853466Y-81540390D01*
X172929657Y-81464200D01*
X173043943Y-81426105D01*
X173120133Y-81426105D01*
X173234419Y-81464200D01*
X173272514Y-81502295D01*
X174034419Y-82226105D02*
X173577276Y-82226105D01*
X173805847Y-82226105D02*
X173805847Y-81426105D01*
X173729657Y-81540390D01*
X173653466Y-81616581D01*
X173577276Y-81654676D01*
X174796324Y-82226105D02*
X174339181Y-82226105D01*
X174567752Y-82226105D02*
X174567752Y-81426105D01*
X174491562Y-81540390D01*
X174415371Y-81616581D01*
X174339181Y-81654676D01*
X135121714Y-88677714D02*
X135083619Y-88715810D01*
X134969333Y-88753905D01*
X134893143Y-88753905D01*
X134778857Y-88715810D01*
X134702666Y-88639619D01*
X134664571Y-88563429D01*
X134626476Y-88411048D01*
X134626476Y-88296762D01*
X134664571Y-88144381D01*
X134702666Y-88068190D01*
X134778857Y-87992000D01*
X134893143Y-87953905D01*
X134969333Y-87953905D01*
X135083619Y-87992000D01*
X135121714Y-88030095D01*
X135883619Y-88753905D02*
X135426476Y-88753905D01*
X135655047Y-88753905D02*
X135655047Y-87953905D01*
X135578857Y-88068190D01*
X135502666Y-88144381D01*
X135426476Y-88182476D01*
X136188381Y-88030095D02*
X136226476Y-87992000D01*
X136302667Y-87953905D01*
X136493143Y-87953905D01*
X136569333Y-87992000D01*
X136607429Y-88030095D01*
X136645524Y-88106286D01*
X136645524Y-88182476D01*
X136607429Y-88296762D01*
X136150286Y-88753905D01*
X136645524Y-88753905D01*
X135121714Y-97821714D02*
X135083619Y-97859810D01*
X134969333Y-97897905D01*
X134893143Y-97897905D01*
X134778857Y-97859810D01*
X134702666Y-97783619D01*
X134664571Y-97707429D01*
X134626476Y-97555048D01*
X134626476Y-97440762D01*
X134664571Y-97288381D01*
X134702666Y-97212190D01*
X134778857Y-97136000D01*
X134893143Y-97097905D01*
X134969333Y-97097905D01*
X135083619Y-97136000D01*
X135121714Y-97174095D01*
X135883619Y-97897905D02*
X135426476Y-97897905D01*
X135655047Y-97897905D02*
X135655047Y-97097905D01*
X135578857Y-97212190D01*
X135502666Y-97288381D01*
X135426476Y-97326476D01*
X136150286Y-97097905D02*
X136645524Y-97097905D01*
X136378857Y-97402667D01*
X136493143Y-97402667D01*
X136569333Y-97440762D01*
X136607429Y-97478857D01*
X136645524Y-97555048D01*
X136645524Y-97745524D01*
X136607429Y-97821714D01*
X136569333Y-97859810D01*
X136493143Y-97897905D01*
X136264571Y-97897905D01*
X136188381Y-97859810D01*
X136150286Y-97821714D01*
X141179614Y-97885714D02*
X141141519Y-97923810D01*
X141027233Y-97961905D01*
X140951043Y-97961905D01*
X140836757Y-97923810D01*
X140760566Y-97847619D01*
X140722471Y-97771429D01*
X140684376Y-97619048D01*
X140684376Y-97504762D01*
X140722471Y-97352381D01*
X140760566Y-97276190D01*
X140836757Y-97200000D01*
X140951043Y-97161905D01*
X141027233Y-97161905D01*
X141141519Y-97200000D01*
X141179614Y-97238095D01*
X141941519Y-97961905D02*
X141484376Y-97961905D01*
X141712947Y-97961905D02*
X141712947Y-97161905D01*
X141636757Y-97276190D01*
X141560566Y-97352381D01*
X141484376Y-97390476D01*
X142627233Y-97428571D02*
X142627233Y-97961905D01*
X142436757Y-97123810D02*
X142246281Y-97695238D01*
X142741519Y-97695238D01*
X141204414Y-99585714D02*
X141166319Y-99623810D01*
X141052033Y-99661905D01*
X140975843Y-99661905D01*
X140861557Y-99623810D01*
X140785366Y-99547619D01*
X140747271Y-99471429D01*
X140709176Y-99319048D01*
X140709176Y-99204762D01*
X140747271Y-99052381D01*
X140785366Y-98976190D01*
X140861557Y-98900000D01*
X140975843Y-98861905D01*
X141052033Y-98861905D01*
X141166319Y-98900000D01*
X141204414Y-98938095D01*
X141966319Y-99661905D02*
X141509176Y-99661905D01*
X141737747Y-99661905D02*
X141737747Y-98861905D01*
X141661557Y-98976190D01*
X141585366Y-99052381D01*
X141509176Y-99090476D01*
X142690129Y-98861905D02*
X142309176Y-98861905D01*
X142271081Y-99242857D01*
X142309176Y-99204762D01*
X142385367Y-99166667D01*
X142575843Y-99166667D01*
X142652033Y-99204762D01*
X142690129Y-99242857D01*
X142728224Y-99319048D01*
X142728224Y-99509524D01*
X142690129Y-99585714D01*
X142652033Y-99623810D01*
X142575843Y-99661905D01*
X142385367Y-99661905D01*
X142309176Y-99623810D01*
X142271081Y-99585714D01*
X144621314Y-84867714D02*
X144583219Y-84905810D01*
X144468933Y-84943905D01*
X144392743Y-84943905D01*
X144278457Y-84905810D01*
X144202266Y-84829619D01*
X144164171Y-84753429D01*
X144126076Y-84601048D01*
X144126076Y-84486762D01*
X144164171Y-84334381D01*
X144202266Y-84258190D01*
X144278457Y-84182000D01*
X144392743Y-84143905D01*
X144468933Y-84143905D01*
X144583219Y-84182000D01*
X144621314Y-84220095D01*
X145383219Y-84943905D02*
X144926076Y-84943905D01*
X145154647Y-84943905D02*
X145154647Y-84143905D01*
X145078457Y-84258190D01*
X145002266Y-84334381D01*
X144926076Y-84372476D01*
X146068933Y-84143905D02*
X145916552Y-84143905D01*
X145840362Y-84182000D01*
X145802267Y-84220095D01*
X145726076Y-84334381D01*
X145687981Y-84486762D01*
X145687981Y-84791524D01*
X145726076Y-84867714D01*
X145764171Y-84905810D01*
X145840362Y-84943905D01*
X145992743Y-84943905D01*
X146068933Y-84905810D01*
X146107029Y-84867714D01*
X146145124Y-84791524D01*
X146145124Y-84601048D01*
X146107029Y-84524857D01*
X146068933Y-84486762D01*
X145992743Y-84448667D01*
X145840362Y-84448667D01*
X145764171Y-84486762D01*
X145726076Y-84524857D01*
X145687981Y-84601048D01*
X144062514Y-88334814D02*
X144024419Y-88372910D01*
X143910133Y-88411005D01*
X143833943Y-88411005D01*
X143719657Y-88372910D01*
X143643466Y-88296719D01*
X143605371Y-88220529D01*
X143567276Y-88068148D01*
X143567276Y-87953862D01*
X143605371Y-87801481D01*
X143643466Y-87725290D01*
X143719657Y-87649100D01*
X143833943Y-87611005D01*
X143910133Y-87611005D01*
X144024419Y-87649100D01*
X144062514Y-87687195D01*
X144824419Y-88411005D02*
X144367276Y-88411005D01*
X144595847Y-88411005D02*
X144595847Y-87611005D01*
X144519657Y-87725290D01*
X144443466Y-87801481D01*
X144367276Y-87839576D01*
X145091086Y-87611005D02*
X145624419Y-87611005D01*
X145281562Y-88411005D01*
X141244514Y-96192914D02*
X141206419Y-96231010D01*
X141092133Y-96269105D01*
X141015943Y-96269105D01*
X140901657Y-96231010D01*
X140825466Y-96154819D01*
X140787371Y-96078629D01*
X140749276Y-95926248D01*
X140749276Y-95811962D01*
X140787371Y-95659581D01*
X140825466Y-95583390D01*
X140901657Y-95507200D01*
X141015943Y-95469105D01*
X141092133Y-95469105D01*
X141206419Y-95507200D01*
X141244514Y-95545295D01*
X142006419Y-96269105D02*
X141549276Y-96269105D01*
X141777847Y-96269105D02*
X141777847Y-95469105D01*
X141701657Y-95583390D01*
X141625466Y-95659581D01*
X141549276Y-95697676D01*
X142463562Y-95811962D02*
X142387371Y-95773867D01*
X142349276Y-95735771D01*
X142311181Y-95659581D01*
X142311181Y-95621486D01*
X142349276Y-95545295D01*
X142387371Y-95507200D01*
X142463562Y-95469105D01*
X142615943Y-95469105D01*
X142692133Y-95507200D01*
X142730229Y-95545295D01*
X142768324Y-95621486D01*
X142768324Y-95659581D01*
X142730229Y-95735771D01*
X142692133Y-95773867D01*
X142615943Y-95811962D01*
X142463562Y-95811962D01*
X142387371Y-95850057D01*
X142349276Y-95888152D01*
X142311181Y-95964343D01*
X142311181Y-96116724D01*
X142349276Y-96192914D01*
X142387371Y-96231010D01*
X142463562Y-96269105D01*
X142615943Y-96269105D01*
X142692133Y-96231010D01*
X142730229Y-96192914D01*
X142768324Y-96116724D01*
X142768324Y-95964343D01*
X142730229Y-95888152D01*
X142692133Y-95850057D01*
X142615943Y-95811962D01*
X149917214Y-102736614D02*
X149879119Y-102774710D01*
X149764833Y-102812805D01*
X149688643Y-102812805D01*
X149574357Y-102774710D01*
X149498166Y-102698519D01*
X149460071Y-102622329D01*
X149421976Y-102469948D01*
X149421976Y-102355662D01*
X149460071Y-102203281D01*
X149498166Y-102127090D01*
X149574357Y-102050900D01*
X149688643Y-102012805D01*
X149764833Y-102012805D01*
X149879119Y-102050900D01*
X149917214Y-102088995D01*
X150679119Y-102812805D02*
X150221976Y-102812805D01*
X150450547Y-102812805D02*
X150450547Y-102012805D01*
X150374357Y-102127090D01*
X150298166Y-102203281D01*
X150221976Y-102241376D01*
X151060071Y-102812805D02*
X151212452Y-102812805D01*
X151288643Y-102774710D01*
X151326738Y-102736614D01*
X151402929Y-102622329D01*
X151441024Y-102469948D01*
X151441024Y-102165186D01*
X151402929Y-102088995D01*
X151364833Y-102050900D01*
X151288643Y-102012805D01*
X151136262Y-102012805D01*
X151060071Y-102050900D01*
X151021976Y-102088995D01*
X150983881Y-102165186D01*
X150983881Y-102355662D01*
X151021976Y-102431852D01*
X151060071Y-102469948D01*
X151136262Y-102508043D01*
X151288643Y-102508043D01*
X151364833Y-102469948D01*
X151402929Y-102431852D01*
X151441024Y-102355662D01*
X165669114Y-98918714D02*
X165631019Y-98956810D01*
X165516733Y-98994905D01*
X165440543Y-98994905D01*
X165326257Y-98956810D01*
X165250066Y-98880619D01*
X165211971Y-98804429D01*
X165173876Y-98652048D01*
X165173876Y-98537762D01*
X165211971Y-98385381D01*
X165250066Y-98309190D01*
X165326257Y-98233000D01*
X165440543Y-98194905D01*
X165516733Y-98194905D01*
X165631019Y-98233000D01*
X165669114Y-98271095D01*
X165973876Y-98271095D02*
X166011971Y-98233000D01*
X166088162Y-98194905D01*
X166278638Y-98194905D01*
X166354828Y-98233000D01*
X166392924Y-98271095D01*
X166431019Y-98347286D01*
X166431019Y-98423476D01*
X166392924Y-98537762D01*
X165935781Y-98994905D01*
X166431019Y-98994905D01*
X166926257Y-98194905D02*
X167002448Y-98194905D01*
X167078638Y-98233000D01*
X167116733Y-98271095D01*
X167154829Y-98347286D01*
X167192924Y-98499667D01*
X167192924Y-98690143D01*
X167154829Y-98842524D01*
X167116733Y-98918714D01*
X167078638Y-98956810D01*
X167002448Y-98994905D01*
X166926257Y-98994905D01*
X166850067Y-98956810D01*
X166811971Y-98918714D01*
X166773876Y-98842524D01*
X166735781Y-98690143D01*
X166735781Y-98499667D01*
X166773876Y-98347286D01*
X166811971Y-98271095D01*
X166850067Y-98233000D01*
X166926257Y-98194905D01*
X164090414Y-82061014D02*
X164052319Y-82099110D01*
X163938033Y-82137205D01*
X163861843Y-82137205D01*
X163747557Y-82099110D01*
X163671366Y-82022919D01*
X163633271Y-81946729D01*
X163595176Y-81794348D01*
X163595176Y-81680062D01*
X163633271Y-81527681D01*
X163671366Y-81451490D01*
X163747557Y-81375300D01*
X163861843Y-81337205D01*
X163938033Y-81337205D01*
X164052319Y-81375300D01*
X164090414Y-81413395D01*
X164395176Y-81413395D02*
X164433271Y-81375300D01*
X164509462Y-81337205D01*
X164699938Y-81337205D01*
X164776128Y-81375300D01*
X164814224Y-81413395D01*
X164852319Y-81489586D01*
X164852319Y-81565776D01*
X164814224Y-81680062D01*
X164357081Y-82137205D01*
X164852319Y-82137205D01*
X165614224Y-82137205D02*
X165157081Y-82137205D01*
X165385652Y-82137205D02*
X165385652Y-81337205D01*
X165309462Y-81451490D01*
X165233271Y-81527681D01*
X165157081Y-81565776D01*
X149675914Y-83381814D02*
X149637819Y-83419910D01*
X149523533Y-83458005D01*
X149447343Y-83458005D01*
X149333057Y-83419910D01*
X149256866Y-83343719D01*
X149218771Y-83267529D01*
X149180676Y-83115148D01*
X149180676Y-83000862D01*
X149218771Y-82848481D01*
X149256866Y-82772290D01*
X149333057Y-82696100D01*
X149447343Y-82658005D01*
X149523533Y-82658005D01*
X149637819Y-82696100D01*
X149675914Y-82734195D01*
X149980676Y-82734195D02*
X150018771Y-82696100D01*
X150094962Y-82658005D01*
X150285438Y-82658005D01*
X150361628Y-82696100D01*
X150399724Y-82734195D01*
X150437819Y-82810386D01*
X150437819Y-82886576D01*
X150399724Y-83000862D01*
X149942581Y-83458005D01*
X150437819Y-83458005D01*
X150742581Y-82734195D02*
X150780676Y-82696100D01*
X150856867Y-82658005D01*
X151047343Y-82658005D01*
X151123533Y-82696100D01*
X151161629Y-82734195D01*
X151199724Y-82810386D01*
X151199724Y-82886576D01*
X151161629Y-83000862D01*
X150704486Y-83458005D01*
X151199724Y-83458005D01*
X142376667Y-101361905D02*
X141995714Y-101361905D01*
X141995714Y-100561905D01*
X143062381Y-101361905D02*
X142605238Y-101361905D01*
X142833809Y-101361905D02*
X142833809Y-100561905D01*
X142757619Y-100676190D01*
X142681428Y-100752381D01*
X142605238Y-100790476D01*
X175406067Y-96107205D02*
X175139400Y-95726252D01*
X174948924Y-96107205D02*
X174948924Y-95307205D01*
X175253686Y-95307205D01*
X175329877Y-95345300D01*
X175367972Y-95383395D01*
X175406067Y-95459586D01*
X175406067Y-95573871D01*
X175367972Y-95650062D01*
X175329877Y-95688157D01*
X175253686Y-95726252D01*
X174948924Y-95726252D01*
X175672734Y-95307205D02*
X176167972Y-95307205D01*
X175901305Y-95611967D01*
X176015591Y-95611967D01*
X176091781Y-95650062D01*
X176129877Y-95688157D01*
X176167972Y-95764348D01*
X176167972Y-95954824D01*
X176129877Y-96031014D01*
X176091781Y-96069110D01*
X176015591Y-96107205D01*
X175787019Y-96107205D01*
X175710829Y-96069110D01*
X175672734Y-96031014D01*
X175406067Y-94380005D02*
X175139400Y-93999052D01*
X174948924Y-94380005D02*
X174948924Y-93580005D01*
X175253686Y-93580005D01*
X175329877Y-93618100D01*
X175367972Y-93656195D01*
X175406067Y-93732386D01*
X175406067Y-93846671D01*
X175367972Y-93922862D01*
X175329877Y-93960957D01*
X175253686Y-93999052D01*
X174948924Y-93999052D01*
X176091781Y-93846671D02*
X176091781Y-94380005D01*
X175901305Y-93541910D02*
X175710829Y-94113338D01*
X176206067Y-94113338D01*
X156279867Y-81768905D02*
X156013200Y-81387952D01*
X155822724Y-81768905D02*
X155822724Y-80968905D01*
X156127486Y-80968905D01*
X156203677Y-81007000D01*
X156241772Y-81045095D01*
X156279867Y-81121286D01*
X156279867Y-81235571D01*
X156241772Y-81311762D01*
X156203677Y-81349857D01*
X156127486Y-81387952D01*
X155822724Y-81387952D01*
X157003677Y-80968905D02*
X156622724Y-80968905D01*
X156584629Y-81349857D01*
X156622724Y-81311762D01*
X156698915Y-81273667D01*
X156889391Y-81273667D01*
X156965581Y-81311762D01*
X157003677Y-81349857D01*
X157041772Y-81426048D01*
X157041772Y-81616524D01*
X157003677Y-81692714D01*
X156965581Y-81730810D01*
X156889391Y-81768905D01*
X156698915Y-81768905D01*
X156622724Y-81730810D01*
X156584629Y-81692714D01*
X141877467Y-94486505D02*
X141610800Y-94105552D01*
X141420324Y-94486505D02*
X141420324Y-93686505D01*
X141725086Y-93686505D01*
X141801277Y-93724600D01*
X141839372Y-93762695D01*
X141877467Y-93838886D01*
X141877467Y-93953171D01*
X141839372Y-94029362D01*
X141801277Y-94067457D01*
X141725086Y-94105552D01*
X141420324Y-94105552D01*
X142563181Y-93686505D02*
X142410800Y-93686505D01*
X142334610Y-93724600D01*
X142296515Y-93762695D01*
X142220324Y-93876981D01*
X142182229Y-94029362D01*
X142182229Y-94334124D01*
X142220324Y-94410314D01*
X142258419Y-94448410D01*
X142334610Y-94486505D01*
X142486991Y-94486505D01*
X142563181Y-94448410D01*
X142601277Y-94410314D01*
X142639372Y-94334124D01*
X142639372Y-94143648D01*
X142601277Y-94067457D01*
X142563181Y-94029362D01*
X142486991Y-93991267D01*
X142334610Y-93991267D01*
X142258419Y-94029362D01*
X142220324Y-94067457D01*
X142182229Y-94143648D01*
X172101527Y-101822205D02*
X171834860Y-101441252D01*
X171644384Y-101822205D02*
X171644384Y-101022205D01*
X171949146Y-101022205D01*
X172025337Y-101060300D01*
X172063432Y-101098395D01*
X172101527Y-101174586D01*
X172101527Y-101288871D01*
X172063432Y-101365062D01*
X172025337Y-101403157D01*
X171949146Y-101441252D01*
X171644384Y-101441252D01*
X172368194Y-101022205D02*
X172901527Y-101022205D01*
X172558670Y-101822205D01*
X170254947Y-101827285D02*
X169988280Y-101446332D01*
X169797804Y-101827285D02*
X169797804Y-101027285D01*
X170102566Y-101027285D01*
X170178757Y-101065380D01*
X170216852Y-101103475D01*
X170254947Y-101179666D01*
X170254947Y-101293951D01*
X170216852Y-101370142D01*
X170178757Y-101408237D01*
X170102566Y-101446332D01*
X169797804Y-101446332D01*
X170712090Y-101370142D02*
X170635899Y-101332047D01*
X170597804Y-101293951D01*
X170559709Y-101217761D01*
X170559709Y-101179666D01*
X170597804Y-101103475D01*
X170635899Y-101065380D01*
X170712090Y-101027285D01*
X170864471Y-101027285D01*
X170940661Y-101065380D01*
X170978757Y-101103475D01*
X171016852Y-101179666D01*
X171016852Y-101217761D01*
X170978757Y-101293951D01*
X170940661Y-101332047D01*
X170864471Y-101370142D01*
X170712090Y-101370142D01*
X170635899Y-101408237D01*
X170597804Y-101446332D01*
X170559709Y-101522523D01*
X170559709Y-101674904D01*
X170597804Y-101751094D01*
X170635899Y-101789190D01*
X170712090Y-101827285D01*
X170864471Y-101827285D01*
X170940661Y-101789190D01*
X170978757Y-101751094D01*
X171016852Y-101674904D01*
X171016852Y-101522523D01*
X170978757Y-101446332D01*
X170940661Y-101408237D01*
X170864471Y-101370142D01*
X168515047Y-101837485D02*
X168248380Y-101456532D01*
X168057904Y-101837485D02*
X168057904Y-101037485D01*
X168362666Y-101037485D01*
X168438857Y-101075580D01*
X168476952Y-101113675D01*
X168515047Y-101189866D01*
X168515047Y-101304151D01*
X168476952Y-101380342D01*
X168438857Y-101418437D01*
X168362666Y-101456532D01*
X168057904Y-101456532D01*
X168895999Y-101837485D02*
X169048380Y-101837485D01*
X169124571Y-101799390D01*
X169162666Y-101761294D01*
X169238857Y-101647009D01*
X169276952Y-101494628D01*
X169276952Y-101189866D01*
X169238857Y-101113675D01*
X169200761Y-101075580D01*
X169124571Y-101037485D01*
X168972190Y-101037485D01*
X168895999Y-101075580D01*
X168857904Y-101113675D01*
X168819809Y-101189866D01*
X168819809Y-101380342D01*
X168857904Y-101456532D01*
X168895999Y-101494628D01*
X168972190Y-101532723D01*
X169124571Y-101532723D01*
X169200761Y-101494628D01*
X169238857Y-101456532D01*
X169276952Y-101380342D01*
X127766667Y-87761905D02*
X127385714Y-87761905D01*
X127385714Y-86961905D01*
X127995238Y-87038095D02*
X128033333Y-87000000D01*
X128109524Y-86961905D01*
X128300000Y-86961905D01*
X128376190Y-87000000D01*
X128414286Y-87038095D01*
X128452381Y-87114286D01*
X128452381Y-87190476D01*
X128414286Y-87304762D01*
X127957143Y-87761905D01*
X128452381Y-87761905D01*
X129547314Y-95461905D02*
X129280647Y-95080952D01*
X129090171Y-95461905D02*
X129090171Y-94661905D01*
X129394933Y-94661905D01*
X129471124Y-94700000D01*
X129509219Y-94738095D01*
X129547314Y-94814286D01*
X129547314Y-94928571D01*
X129509219Y-95004762D01*
X129471124Y-95042857D01*
X129394933Y-95080952D01*
X129090171Y-95080952D01*
X130309219Y-95461905D02*
X129852076Y-95461905D01*
X130080647Y-95461905D02*
X130080647Y-94661905D01*
X130004457Y-94776190D01*
X129928266Y-94852381D01*
X129852076Y-94890476D01*
X130804457Y-94661905D02*
X130880648Y-94661905D01*
X130956838Y-94700000D01*
X130994933Y-94738095D01*
X131033029Y-94814286D01*
X131071124Y-94966667D01*
X131071124Y-95157143D01*
X131033029Y-95309524D01*
X130994933Y-95385714D01*
X130956838Y-95423810D01*
X130880648Y-95461905D01*
X130804457Y-95461905D01*
X130728267Y-95423810D01*
X130690171Y-95385714D01*
X130652076Y-95309524D01*
X130613981Y-95157143D01*
X130613981Y-94966667D01*
X130652076Y-94814286D01*
X130690171Y-94738095D01*
X130728267Y-94700000D01*
X130804457Y-94661905D01*
X129547314Y-93661905D02*
X129280647Y-93280952D01*
X129090171Y-93661905D02*
X129090171Y-92861905D01*
X129394933Y-92861905D01*
X129471124Y-92900000D01*
X129509219Y-92938095D01*
X129547314Y-93014286D01*
X129547314Y-93128571D01*
X129509219Y-93204762D01*
X129471124Y-93242857D01*
X129394933Y-93280952D01*
X129090171Y-93280952D01*
X130309219Y-93661905D02*
X129852076Y-93661905D01*
X130080647Y-93661905D02*
X130080647Y-92861905D01*
X130004457Y-92976190D01*
X129928266Y-93052381D01*
X129852076Y-93090476D01*
X131071124Y-93661905D02*
X130613981Y-93661905D01*
X130842552Y-93661905D02*
X130842552Y-92861905D01*
X130766362Y-92976190D01*
X130690171Y-93052381D01*
X130613981Y-93090476D01*
X129546414Y-91861905D02*
X129279747Y-91480952D01*
X129089271Y-91861905D02*
X129089271Y-91061905D01*
X129394033Y-91061905D01*
X129470224Y-91100000D01*
X129508319Y-91138095D01*
X129546414Y-91214286D01*
X129546414Y-91328571D01*
X129508319Y-91404762D01*
X129470224Y-91442857D01*
X129394033Y-91480952D01*
X129089271Y-91480952D01*
X130308319Y-91861905D02*
X129851176Y-91861905D01*
X130079747Y-91861905D02*
X130079747Y-91061905D01*
X130003557Y-91176190D01*
X129927366Y-91252381D01*
X129851176Y-91290476D01*
X130613081Y-91138095D02*
X130651176Y-91100000D01*
X130727367Y-91061905D01*
X130917843Y-91061905D01*
X130994033Y-91100000D01*
X131032129Y-91138095D01*
X131070224Y-91214286D01*
X131070224Y-91290476D01*
X131032129Y-91404762D01*
X130574986Y-91861905D01*
X131070224Y-91861905D01*
X129496514Y-99061905D02*
X129229847Y-98680952D01*
X129039371Y-99061905D02*
X129039371Y-98261905D01*
X129344133Y-98261905D01*
X129420324Y-98300000D01*
X129458419Y-98338095D01*
X129496514Y-98414286D01*
X129496514Y-98528571D01*
X129458419Y-98604762D01*
X129420324Y-98642857D01*
X129344133Y-98680952D01*
X129039371Y-98680952D01*
X130258419Y-99061905D02*
X129801276Y-99061905D01*
X130029847Y-99061905D02*
X130029847Y-98261905D01*
X129953657Y-98376190D01*
X129877466Y-98452381D01*
X129801276Y-98490476D01*
X130525086Y-98261905D02*
X131020324Y-98261905D01*
X130753657Y-98566667D01*
X130867943Y-98566667D01*
X130944133Y-98604762D01*
X130982229Y-98642857D01*
X131020324Y-98719048D01*
X131020324Y-98909524D01*
X130982229Y-98985714D01*
X130944133Y-99023810D01*
X130867943Y-99061905D01*
X130639371Y-99061905D01*
X130563181Y-99023810D01*
X130525086Y-98985714D01*
X129521914Y-97287305D02*
X129255247Y-96906352D01*
X129064771Y-97287305D02*
X129064771Y-96487305D01*
X129369533Y-96487305D01*
X129445724Y-96525400D01*
X129483819Y-96563495D01*
X129521914Y-96639686D01*
X129521914Y-96753971D01*
X129483819Y-96830162D01*
X129445724Y-96868257D01*
X129369533Y-96906352D01*
X129064771Y-96906352D01*
X130283819Y-97287305D02*
X129826676Y-97287305D01*
X130055247Y-97287305D02*
X130055247Y-96487305D01*
X129979057Y-96601590D01*
X129902866Y-96677781D01*
X129826676Y-96715876D01*
X130969533Y-96753971D02*
X130969533Y-97287305D01*
X130779057Y-96449210D02*
X130588581Y-97020638D01*
X131083819Y-97020638D01*
X129206814Y-100714774D02*
X129168719Y-100752870D01*
X129054433Y-100790965D01*
X128978243Y-100790965D01*
X128863957Y-100752870D01*
X128787766Y-100676679D01*
X128749671Y-100600489D01*
X128711576Y-100448108D01*
X128711576Y-100333822D01*
X128749671Y-100181441D01*
X128787766Y-100105250D01*
X128863957Y-100029060D01*
X128978243Y-99990965D01*
X129054433Y-99990965D01*
X129168719Y-100029060D01*
X129206814Y-100067155D01*
X129511576Y-100067155D02*
X129549671Y-100029060D01*
X129625862Y-99990965D01*
X129816338Y-99990965D01*
X129892528Y-100029060D01*
X129930624Y-100067155D01*
X129968719Y-100143346D01*
X129968719Y-100219536D01*
X129930624Y-100333822D01*
X129473481Y-100790965D01*
X129968719Y-100790965D01*
X130235386Y-99990965D02*
X130730624Y-99990965D01*
X130463957Y-100295727D01*
X130578243Y-100295727D01*
X130654433Y-100333822D01*
X130692529Y-100371917D01*
X130730624Y-100448108D01*
X130730624Y-100638584D01*
X130692529Y-100714774D01*
X130654433Y-100752870D01*
X130578243Y-100790965D01*
X130349671Y-100790965D01*
X130273481Y-100752870D01*
X130235386Y-100714774D01*
X116658454Y-101070374D02*
X116620359Y-101108470D01*
X116506073Y-101146565D01*
X116429883Y-101146565D01*
X116315597Y-101108470D01*
X116239406Y-101032279D01*
X116201311Y-100956089D01*
X116163216Y-100803708D01*
X116163216Y-100689422D01*
X116201311Y-100537041D01*
X116239406Y-100460850D01*
X116315597Y-100384660D01*
X116429883Y-100346565D01*
X116506073Y-100346565D01*
X116620359Y-100384660D01*
X116658454Y-100422755D01*
X116963216Y-100422755D02*
X117001311Y-100384660D01*
X117077502Y-100346565D01*
X117267978Y-100346565D01*
X117344168Y-100384660D01*
X117382264Y-100422755D01*
X117420359Y-100498946D01*
X117420359Y-100575136D01*
X117382264Y-100689422D01*
X116925121Y-101146565D01*
X117420359Y-101146565D01*
X118106073Y-100613231D02*
X118106073Y-101146565D01*
X117915597Y-100308470D02*
X117725121Y-100879898D01*
X118220359Y-100879898D01*
X81692914Y-93237014D02*
X81654819Y-93275110D01*
X81540533Y-93313205D01*
X81464343Y-93313205D01*
X81350057Y-93275110D01*
X81273866Y-93198919D01*
X81235771Y-93122729D01*
X81197676Y-92970348D01*
X81197676Y-92856062D01*
X81235771Y-92703681D01*
X81273866Y-92627490D01*
X81350057Y-92551300D01*
X81464343Y-92513205D01*
X81540533Y-92513205D01*
X81654819Y-92551300D01*
X81692914Y-92589395D01*
X81997676Y-92589395D02*
X82035771Y-92551300D01*
X82111962Y-92513205D01*
X82302438Y-92513205D01*
X82378628Y-92551300D01*
X82416724Y-92589395D01*
X82454819Y-92665586D01*
X82454819Y-92741776D01*
X82416724Y-92856062D01*
X81959581Y-93313205D01*
X82454819Y-93313205D01*
X83178629Y-92513205D02*
X82797676Y-92513205D01*
X82759581Y-92894157D01*
X82797676Y-92856062D01*
X82873867Y-92817967D01*
X83064343Y-92817967D01*
X83140533Y-92856062D01*
X83178629Y-92894157D01*
X83216724Y-92970348D01*
X83216724Y-93160824D01*
X83178629Y-93237014D01*
X83140533Y-93275110D01*
X83064343Y-93313205D01*
X82873867Y-93313205D01*
X82797676Y-93275110D01*
X82759581Y-93237014D01*
X81692914Y-89439714D02*
X81654819Y-89477810D01*
X81540533Y-89515905D01*
X81464343Y-89515905D01*
X81350057Y-89477810D01*
X81273866Y-89401619D01*
X81235771Y-89325429D01*
X81197676Y-89173048D01*
X81197676Y-89058762D01*
X81235771Y-88906381D01*
X81273866Y-88830190D01*
X81350057Y-88754000D01*
X81464343Y-88715905D01*
X81540533Y-88715905D01*
X81654819Y-88754000D01*
X81692914Y-88792095D01*
X81997676Y-88792095D02*
X82035771Y-88754000D01*
X82111962Y-88715905D01*
X82302438Y-88715905D01*
X82378628Y-88754000D01*
X82416724Y-88792095D01*
X82454819Y-88868286D01*
X82454819Y-88944476D01*
X82416724Y-89058762D01*
X81959581Y-89515905D01*
X82454819Y-89515905D01*
X82911962Y-89058762D02*
X82835771Y-89020667D01*
X82797676Y-88982571D01*
X82759581Y-88906381D01*
X82759581Y-88868286D01*
X82797676Y-88792095D01*
X82835771Y-88754000D01*
X82911962Y-88715905D01*
X83064343Y-88715905D01*
X83140533Y-88754000D01*
X83178629Y-88792095D01*
X83216724Y-88868286D01*
X83216724Y-88906381D01*
X83178629Y-88982571D01*
X83140533Y-89020667D01*
X83064343Y-89058762D01*
X82911962Y-89058762D01*
X82835771Y-89096857D01*
X82797676Y-89134952D01*
X82759581Y-89211143D01*
X82759581Y-89363524D01*
X82797676Y-89439714D01*
X82835771Y-89477810D01*
X82911962Y-89515905D01*
X83064343Y-89515905D01*
X83140533Y-89477810D01*
X83178629Y-89439714D01*
X83216724Y-89363524D01*
X83216724Y-89211143D01*
X83178629Y-89134952D01*
X83140533Y-89096857D01*
X83064343Y-89058762D01*
X81692914Y-91471714D02*
X81654819Y-91509810D01*
X81540533Y-91547905D01*
X81464343Y-91547905D01*
X81350057Y-91509810D01*
X81273866Y-91433619D01*
X81235771Y-91357429D01*
X81197676Y-91205048D01*
X81197676Y-91090762D01*
X81235771Y-90938381D01*
X81273866Y-90862190D01*
X81350057Y-90786000D01*
X81464343Y-90747905D01*
X81540533Y-90747905D01*
X81654819Y-90786000D01*
X81692914Y-90824095D01*
X81997676Y-90824095D02*
X82035771Y-90786000D01*
X82111962Y-90747905D01*
X82302438Y-90747905D01*
X82378628Y-90786000D01*
X82416724Y-90824095D01*
X82454819Y-90900286D01*
X82454819Y-90976476D01*
X82416724Y-91090762D01*
X81959581Y-91547905D01*
X82454819Y-91547905D01*
X82835771Y-91547905D02*
X82988152Y-91547905D01*
X83064343Y-91509810D01*
X83102438Y-91471714D01*
X83178629Y-91357429D01*
X83216724Y-91205048D01*
X83216724Y-90900286D01*
X83178629Y-90824095D01*
X83140533Y-90786000D01*
X83064343Y-90747905D01*
X82911962Y-90747905D01*
X82835771Y-90786000D01*
X82797676Y-90824095D01*
X82759581Y-90900286D01*
X82759581Y-91090762D01*
X82797676Y-91166952D01*
X82835771Y-91205048D01*
X82911962Y-91243143D01*
X83064343Y-91243143D01*
X83140533Y-91205048D01*
X83178629Y-91166952D01*
X83216724Y-91090762D01*
X81718314Y-95103905D02*
X81451647Y-94722952D01*
X81261171Y-95103905D02*
X81261171Y-94303905D01*
X81565933Y-94303905D01*
X81642124Y-94342000D01*
X81680219Y-94380095D01*
X81718314Y-94456286D01*
X81718314Y-94570571D01*
X81680219Y-94646762D01*
X81642124Y-94684857D01*
X81565933Y-94722952D01*
X81261171Y-94722952D01*
X82480219Y-95103905D02*
X82023076Y-95103905D01*
X82251647Y-95103905D02*
X82251647Y-94303905D01*
X82175457Y-94418190D01*
X82099266Y-94494381D01*
X82023076Y-94532476D01*
X83204029Y-94303905D02*
X82823076Y-94303905D01*
X82784981Y-94684857D01*
X82823076Y-94646762D01*
X82899267Y-94608667D01*
X83089743Y-94608667D01*
X83165933Y-94646762D01*
X83204029Y-94684857D01*
X83242124Y-94761048D01*
X83242124Y-94951524D01*
X83204029Y-95027714D01*
X83165933Y-95065810D01*
X83089743Y-95103905D01*
X82899267Y-95103905D01*
X82823076Y-95065810D01*
X82784981Y-95027714D01*
X86518814Y-100564914D02*
X86480719Y-100603010D01*
X86366433Y-100641105D01*
X86290243Y-100641105D01*
X86175957Y-100603010D01*
X86099766Y-100526819D01*
X86061671Y-100450629D01*
X86023576Y-100298248D01*
X86023576Y-100183962D01*
X86061671Y-100031581D01*
X86099766Y-99955390D01*
X86175957Y-99879200D01*
X86290243Y-99841105D01*
X86366433Y-99841105D01*
X86480719Y-99879200D01*
X86518814Y-99917295D01*
X86785481Y-99841105D02*
X87280719Y-99841105D01*
X87014052Y-100145867D01*
X87128338Y-100145867D01*
X87204528Y-100183962D01*
X87242624Y-100222057D01*
X87280719Y-100298248D01*
X87280719Y-100488724D01*
X87242624Y-100564914D01*
X87204528Y-100603010D01*
X87128338Y-100641105D01*
X86899766Y-100641105D01*
X86823576Y-100603010D01*
X86785481Y-100564914D01*
X87775957Y-99841105D02*
X87852148Y-99841105D01*
X87928338Y-99879200D01*
X87966433Y-99917295D01*
X88004529Y-99993486D01*
X88042624Y-100145867D01*
X88042624Y-100336343D01*
X88004529Y-100488724D01*
X87966433Y-100564914D01*
X87928338Y-100603010D01*
X87852148Y-100641105D01*
X87775957Y-100641105D01*
X87699767Y-100603010D01*
X87661671Y-100564914D01*
X87623576Y-100488724D01*
X87585481Y-100336343D01*
X87585481Y-100145867D01*
X87623576Y-99993486D01*
X87661671Y-99917295D01*
X87699767Y-99879200D01*
X87775957Y-99841105D01*
X90176414Y-100539514D02*
X90138319Y-100577610D01*
X90024033Y-100615705D01*
X89947843Y-100615705D01*
X89833557Y-100577610D01*
X89757366Y-100501419D01*
X89719271Y-100425229D01*
X89681176Y-100272848D01*
X89681176Y-100158562D01*
X89719271Y-100006181D01*
X89757366Y-99929990D01*
X89833557Y-99853800D01*
X89947843Y-99815705D01*
X90024033Y-99815705D01*
X90138319Y-99853800D01*
X90176414Y-99891895D01*
X90443081Y-99815705D02*
X90938319Y-99815705D01*
X90671652Y-100120467D01*
X90785938Y-100120467D01*
X90862128Y-100158562D01*
X90900224Y-100196657D01*
X90938319Y-100272848D01*
X90938319Y-100463324D01*
X90900224Y-100539514D01*
X90862128Y-100577610D01*
X90785938Y-100615705D01*
X90557366Y-100615705D01*
X90481176Y-100577610D01*
X90443081Y-100539514D01*
X91700224Y-100615705D02*
X91243081Y-100615705D01*
X91471652Y-100615705D02*
X91471652Y-99815705D01*
X91395462Y-99929990D01*
X91319271Y-100006181D01*
X91243081Y-100044276D01*
X102685914Y-100539514D02*
X102647819Y-100577610D01*
X102533533Y-100615705D01*
X102457343Y-100615705D01*
X102343057Y-100577610D01*
X102266866Y-100501419D01*
X102228771Y-100425229D01*
X102190676Y-100272848D01*
X102190676Y-100158562D01*
X102228771Y-100006181D01*
X102266866Y-99929990D01*
X102343057Y-99853800D01*
X102457343Y-99815705D01*
X102533533Y-99815705D01*
X102647819Y-99853800D01*
X102685914Y-99891895D01*
X102952581Y-99815705D02*
X103447819Y-99815705D01*
X103181152Y-100120467D01*
X103295438Y-100120467D01*
X103371628Y-100158562D01*
X103409724Y-100196657D01*
X103447819Y-100272848D01*
X103447819Y-100463324D01*
X103409724Y-100539514D01*
X103371628Y-100577610D01*
X103295438Y-100615705D01*
X103066866Y-100615705D01*
X102990676Y-100577610D01*
X102952581Y-100539514D01*
X103752581Y-99891895D02*
X103790676Y-99853800D01*
X103866867Y-99815705D01*
X104057343Y-99815705D01*
X104133533Y-99853800D01*
X104171629Y-99891895D01*
X104209724Y-99968086D01*
X104209724Y-100044276D01*
X104171629Y-100158562D01*
X103714486Y-100615705D01*
X104209724Y-100615705D01*
X106305414Y-100539514D02*
X106267319Y-100577610D01*
X106153033Y-100615705D01*
X106076843Y-100615705D01*
X105962557Y-100577610D01*
X105886366Y-100501419D01*
X105848271Y-100425229D01*
X105810176Y-100272848D01*
X105810176Y-100158562D01*
X105848271Y-100006181D01*
X105886366Y-99929990D01*
X105962557Y-99853800D01*
X106076843Y-99815705D01*
X106153033Y-99815705D01*
X106267319Y-99853800D01*
X106305414Y-99891895D01*
X106572081Y-99815705D02*
X107067319Y-99815705D01*
X106800652Y-100120467D01*
X106914938Y-100120467D01*
X106991128Y-100158562D01*
X107029224Y-100196657D01*
X107067319Y-100272848D01*
X107067319Y-100463324D01*
X107029224Y-100539514D01*
X106991128Y-100577610D01*
X106914938Y-100615705D01*
X106686366Y-100615705D01*
X106610176Y-100577610D01*
X106572081Y-100539514D01*
X107333986Y-99815705D02*
X107829224Y-99815705D01*
X107562557Y-100120467D01*
X107676843Y-100120467D01*
X107753033Y-100158562D01*
X107791129Y-100196657D01*
X107829224Y-100272848D01*
X107829224Y-100463324D01*
X107791129Y-100539514D01*
X107753033Y-100577610D01*
X107676843Y-100615705D01*
X107448271Y-100615705D01*
X107372081Y-100577610D01*
X107333986Y-100539514D01*
X86290214Y-102342905D02*
X86023547Y-101961952D01*
X85833071Y-102342905D02*
X85833071Y-101542905D01*
X86137833Y-101542905D01*
X86214024Y-101581000D01*
X86252119Y-101619095D01*
X86290214Y-101695286D01*
X86290214Y-101809571D01*
X86252119Y-101885762D01*
X86214024Y-101923857D01*
X86137833Y-101961952D01*
X85833071Y-101961952D01*
X87052119Y-102342905D02*
X86594976Y-102342905D01*
X86823547Y-102342905D02*
X86823547Y-101542905D01*
X86747357Y-101657190D01*
X86671166Y-101733381D01*
X86594976Y-101771476D01*
X87737833Y-101542905D02*
X87585452Y-101542905D01*
X87509262Y-101581000D01*
X87471167Y-101619095D01*
X87394976Y-101733381D01*
X87356881Y-101885762D01*
X87356881Y-102190524D01*
X87394976Y-102266714D01*
X87433071Y-102304810D01*
X87509262Y-102342905D01*
X87661643Y-102342905D01*
X87737833Y-102304810D01*
X87775929Y-102266714D01*
X87814024Y-102190524D01*
X87814024Y-102000048D01*
X87775929Y-101923857D01*
X87737833Y-101885762D01*
X87661643Y-101847667D01*
X87509262Y-101847667D01*
X87433071Y-101885762D01*
X87394976Y-101923857D01*
X87356881Y-102000048D01*
X90316114Y-102342905D02*
X90049447Y-101961952D01*
X89858971Y-102342905D02*
X89858971Y-101542905D01*
X90163733Y-101542905D01*
X90239924Y-101581000D01*
X90278019Y-101619095D01*
X90316114Y-101695286D01*
X90316114Y-101809571D01*
X90278019Y-101885762D01*
X90239924Y-101923857D01*
X90163733Y-101961952D01*
X89858971Y-101961952D01*
X91078019Y-102342905D02*
X90620876Y-102342905D01*
X90849447Y-102342905D02*
X90849447Y-101542905D01*
X90773257Y-101657190D01*
X90697066Y-101733381D01*
X90620876Y-101771476D01*
X91344686Y-101542905D02*
X91878019Y-101542905D01*
X91535162Y-102342905D01*
X102419214Y-102361905D02*
X102152547Y-101980952D01*
X101962071Y-102361905D02*
X101962071Y-101561905D01*
X102266833Y-101561905D01*
X102343024Y-101600000D01*
X102381119Y-101638095D01*
X102419214Y-101714286D01*
X102419214Y-101828571D01*
X102381119Y-101904762D01*
X102343024Y-101942857D01*
X102266833Y-101980952D01*
X101962071Y-101980952D01*
X103181119Y-102361905D02*
X102723976Y-102361905D01*
X102952547Y-102361905D02*
X102952547Y-101561905D01*
X102876357Y-101676190D01*
X102800166Y-101752381D01*
X102723976Y-101790476D01*
X103638262Y-101904762D02*
X103562071Y-101866667D01*
X103523976Y-101828571D01*
X103485881Y-101752381D01*
X103485881Y-101714286D01*
X103523976Y-101638095D01*
X103562071Y-101600000D01*
X103638262Y-101561905D01*
X103790643Y-101561905D01*
X103866833Y-101600000D01*
X103904929Y-101638095D01*
X103943024Y-101714286D01*
X103943024Y-101752381D01*
X103904929Y-101828571D01*
X103866833Y-101866667D01*
X103790643Y-101904762D01*
X103638262Y-101904762D01*
X103562071Y-101942857D01*
X103523976Y-101980952D01*
X103485881Y-102057143D01*
X103485881Y-102209524D01*
X103523976Y-102285714D01*
X103562071Y-102323810D01*
X103638262Y-102361905D01*
X103790643Y-102361905D01*
X103866833Y-102323810D01*
X103904929Y-102285714D01*
X103943024Y-102209524D01*
X103943024Y-102057143D01*
X103904929Y-101980952D01*
X103866833Y-101942857D01*
X103790643Y-101904762D01*
X106508614Y-102342905D02*
X106241947Y-101961952D01*
X106051471Y-102342905D02*
X106051471Y-101542905D01*
X106356233Y-101542905D01*
X106432424Y-101581000D01*
X106470519Y-101619095D01*
X106508614Y-101695286D01*
X106508614Y-101809571D01*
X106470519Y-101885762D01*
X106432424Y-101923857D01*
X106356233Y-101961952D01*
X106051471Y-101961952D01*
X107270519Y-102342905D02*
X106813376Y-102342905D01*
X107041947Y-102342905D02*
X107041947Y-101542905D01*
X106965757Y-101657190D01*
X106889566Y-101733381D01*
X106813376Y-101771476D01*
X107651471Y-102342905D02*
X107803852Y-102342905D01*
X107880043Y-102304810D01*
X107918138Y-102266714D01*
X107994329Y-102152429D01*
X108032424Y-102000048D01*
X108032424Y-101695286D01*
X107994329Y-101619095D01*
X107956233Y-101581000D01*
X107880043Y-101542905D01*
X107727662Y-101542905D01*
X107651471Y-101581000D01*
X107613376Y-101619095D01*
X107575281Y-101695286D01*
X107575281Y-101885762D01*
X107613376Y-101961952D01*
X107651471Y-102000048D01*
X107727662Y-102038143D01*
X107880043Y-102038143D01*
X107956233Y-102000048D01*
X107994329Y-101961952D01*
X108032424Y-101885762D01*
X105987914Y-90023905D02*
X105721247Y-89642952D01*
X105530771Y-90023905D02*
X105530771Y-89223905D01*
X105835533Y-89223905D01*
X105911724Y-89262000D01*
X105949819Y-89300095D01*
X105987914Y-89376286D01*
X105987914Y-89490571D01*
X105949819Y-89566762D01*
X105911724Y-89604857D01*
X105835533Y-89642952D01*
X105530771Y-89642952D01*
X106292676Y-89300095D02*
X106330771Y-89262000D01*
X106406962Y-89223905D01*
X106597438Y-89223905D01*
X106673628Y-89262000D01*
X106711724Y-89300095D01*
X106749819Y-89376286D01*
X106749819Y-89452476D01*
X106711724Y-89566762D01*
X106254581Y-90023905D01*
X106749819Y-90023905D01*
X107245057Y-89223905D02*
X107321248Y-89223905D01*
X107397438Y-89262000D01*
X107435533Y-89300095D01*
X107473629Y-89376286D01*
X107511724Y-89528667D01*
X107511724Y-89719143D01*
X107473629Y-89871524D01*
X107435533Y-89947714D01*
X107397438Y-89985810D01*
X107321248Y-90023905D01*
X107245057Y-90023905D01*
X107168867Y-89985810D01*
X107130771Y-89947714D01*
X107092676Y-89871524D01*
X107054581Y-89719143D01*
X107054581Y-89528667D01*
X107092676Y-89376286D01*
X107130771Y-89300095D01*
X107168867Y-89262000D01*
X107245057Y-89223905D01*
X105813314Y-81592705D02*
X105546647Y-81211752D01*
X105356171Y-81592705D02*
X105356171Y-80792705D01*
X105660933Y-80792705D01*
X105737124Y-80830800D01*
X105775219Y-80868895D01*
X105813314Y-80945086D01*
X105813314Y-81059371D01*
X105775219Y-81135562D01*
X105737124Y-81173657D01*
X105660933Y-81211752D01*
X105356171Y-81211752D01*
X106118076Y-80868895D02*
X106156171Y-80830800D01*
X106232362Y-80792705D01*
X106422838Y-80792705D01*
X106499028Y-80830800D01*
X106537124Y-80868895D01*
X106575219Y-80945086D01*
X106575219Y-81021276D01*
X106537124Y-81135562D01*
X106079981Y-81592705D01*
X106575219Y-81592705D01*
X107337124Y-81592705D02*
X106879981Y-81592705D01*
X107108552Y-81592705D02*
X107108552Y-80792705D01*
X107032362Y-80906990D01*
X106956171Y-80983181D01*
X106879981Y-81021276D01*
D12*
X175119381Y-91703305D02*
X175928905Y-91703305D01*
X176024143Y-91655686D01*
X176071762Y-91608067D01*
X176119381Y-91512829D01*
X176119381Y-91322352D01*
X176071762Y-91227114D01*
X176024143Y-91179495D01*
X175928905Y-91131876D01*
X175119381Y-91131876D01*
X176119381Y-90131876D02*
X176119381Y-90703305D01*
X176119381Y-90417591D02*
X175119381Y-90417591D01*
X175262238Y-90512829D01*
X175357476Y-90608067D01*
X175405095Y-90703305D01*
X104238095Y-108952381D02*
X104238095Y-109761905D01*
X104285714Y-109857143D01*
X104333333Y-109904762D01*
X104428571Y-109952381D01*
X104619048Y-109952381D01*
X104714286Y-109904762D01*
X104761905Y-109857143D01*
X104809524Y-109761905D01*
X104809524Y-108952381D01*
X105190476Y-108952381D02*
X105857143Y-108952381D01*
X105428571Y-109952381D01*
X88112695Y-108969181D02*
X88112695Y-109778705D01*
X88160314Y-109873943D01*
X88207933Y-109921562D01*
X88303171Y-109969181D01*
X88493648Y-109969181D01*
X88588886Y-109921562D01*
X88636505Y-109873943D01*
X88684124Y-109778705D01*
X88684124Y-108969181D01*
X89588886Y-108969181D02*
X89398409Y-108969181D01*
X89303171Y-109016800D01*
X89255552Y-109064419D01*
X89160314Y-109207276D01*
X89112695Y-109397752D01*
X89112695Y-109778705D01*
X89160314Y-109873943D01*
X89207933Y-109921562D01*
X89303171Y-109969181D01*
X89493648Y-109969181D01*
X89588886Y-109921562D01*
X89636505Y-109873943D01*
X89684124Y-109778705D01*
X89684124Y-109540610D01*
X89636505Y-109445371D01*
X89588886Y-109397752D01*
X89493648Y-109350133D01*
X89303171Y-109350133D01*
X89207933Y-109397752D01*
X89160314Y-109445371D01*
X89112695Y-109540610D01*
X90226831Y-100879727D02*
X90226831Y-101689251D01*
X90274450Y-101784489D01*
X90322069Y-101832108D01*
X90417307Y-101879727D01*
X90607784Y-101879727D01*
X90703022Y-101832108D01*
X90750641Y-101784489D01*
X90798260Y-101689251D01*
X90798260Y-100879727D01*
X91322069Y-101879727D02*
X91512545Y-101879727D01*
X91607784Y-101832108D01*
X91655403Y-101784489D01*
X91750641Y-101641632D01*
X91798260Y-101451156D01*
X91798260Y-101070203D01*
X91750641Y-100974965D01*
X91703022Y-100927346D01*
X91607784Y-100879727D01*
X91417307Y-100879727D01*
X91322069Y-100927346D01*
X91274450Y-100974965D01*
X91226831Y-101070203D01*
X91226831Y-101308298D01*
X91274450Y-101403536D01*
X91322069Y-101451156D01*
X91417307Y-101498775D01*
X91607784Y-101498775D01*
X91703022Y-101451156D01*
X91750641Y-101403536D01*
X91798260Y-101308298D01*
D18*
G36*
X151765000Y-139319000D02*
X145415000Y-139319000D01*
X145415000Y-137541000D01*
X151765000Y-137541000D01*
X151765000Y-139319000D01*
X151765000Y-139319000D01*
G37*
X151765000Y-139319000D02*
X145415000Y-139319000D01*
X145415000Y-137541000D01*
X151765000Y-137541000D01*
X151765000Y-139319000D01*
G36*
X90805000Y-139319000D02*
X84455000Y-139319000D01*
X84455000Y-137541000D01*
X90805000Y-137541000D01*
X90805000Y-139319000D01*
X90805000Y-139319000D01*
G37*
X90805000Y-139319000D02*
X84455000Y-139319000D01*
X84455000Y-137541000D01*
X90805000Y-137541000D01*
X90805000Y-139319000D01*
G36*
X131445000Y-139319000D02*
X125095000Y-139319000D01*
X125095000Y-137541000D01*
X131445000Y-137541000D01*
X131445000Y-139319000D01*
X131445000Y-139319000D01*
G37*
X131445000Y-139319000D02*
X125095000Y-139319000D01*
X125095000Y-137541000D01*
X131445000Y-137541000D01*
X131445000Y-139319000D01*
G36*
X161925000Y-139319000D02*
X155575000Y-139319000D01*
X155575000Y-137541000D01*
X161925000Y-137541000D01*
X161925000Y-139319000D01*
X161925000Y-139319000D01*
G37*
X161925000Y-139319000D02*
X155575000Y-139319000D01*
X155575000Y-137541000D01*
X161925000Y-137541000D01*
X161925000Y-139319000D01*
G36*
X161925000Y-139319000D02*
X155575000Y-139319000D01*
X155575000Y-137541000D01*
X161925000Y-137541000D01*
X161925000Y-139319000D01*
X161925000Y-139319000D01*
G37*
X161925000Y-139319000D02*
X155575000Y-139319000D01*
X155575000Y-137541000D01*
X161925000Y-137541000D01*
X161925000Y-139319000D01*
G36*
X141605000Y-139319000D02*
X135255000Y-139319000D01*
X135255000Y-137541000D01*
X141605000Y-137541000D01*
X141605000Y-139319000D01*
X141605000Y-139319000D01*
G37*
X141605000Y-139319000D02*
X135255000Y-139319000D01*
X135255000Y-137541000D01*
X141605000Y-137541000D01*
X141605000Y-139319000D01*
G36*
X121285000Y-139319000D02*
X114935000Y-139319000D01*
X114935000Y-137541000D01*
X121285000Y-137541000D01*
X121285000Y-139319000D01*
X121285000Y-139319000D01*
G37*
X121285000Y-139319000D02*
X114935000Y-139319000D01*
X114935000Y-137541000D01*
X121285000Y-137541000D01*
X121285000Y-139319000D01*
G36*
X111125000Y-139319000D02*
X104775000Y-139319000D01*
X104775000Y-137541000D01*
X111125000Y-137541000D01*
X111125000Y-139319000D01*
X111125000Y-139319000D01*
G37*
X111125000Y-139319000D02*
X104775000Y-139319000D01*
X104775000Y-137541000D01*
X111125000Y-137541000D01*
X111125000Y-139319000D01*
G36*
X100965000Y-139319000D02*
X94615000Y-139319000D01*
X94615000Y-137541000D01*
X100965000Y-137541000D01*
X100965000Y-139319000D01*
X100965000Y-139319000D01*
G37*
X100965000Y-139319000D02*
X94615000Y-139319000D01*
X94615000Y-137541000D01*
X100965000Y-137541000D01*
X100965000Y-139319000D01*
G36*
X100956499Y-127838200D02*
X94606499Y-127838200D01*
X94606499Y-126060200D01*
X100956499Y-126060200D01*
X100956499Y-127838200D01*
X100956499Y-127838200D01*
G37*
X100956499Y-127838200D02*
X94606499Y-127838200D01*
X94606499Y-126060200D01*
X100956499Y-126060200D01*
X100956499Y-127838200D01*
G36*
X111117818Y-127838200D02*
X104767818Y-127838200D01*
X104767818Y-126060200D01*
X111117818Y-126060200D01*
X111117818Y-127838200D01*
X111117818Y-127838200D01*
G37*
X111117818Y-127838200D02*
X104767818Y-127838200D01*
X104767818Y-126060200D01*
X111117818Y-126060200D01*
X111117818Y-127838200D01*
G36*
X131445000Y-127785777D02*
X125095000Y-127785777D01*
X125095000Y-126007777D01*
X131445000Y-126007777D01*
X131445000Y-127785777D01*
X131445000Y-127785777D01*
G37*
X131445000Y-127785777D02*
X125095000Y-127785777D01*
X125095000Y-126007777D01*
X131445000Y-126007777D01*
X131445000Y-127785777D01*
G36*
X141579600Y-127762000D02*
X135229600Y-127762000D01*
X135229600Y-125984000D01*
X141579600Y-125984000D01*
X141579600Y-127762000D01*
X141579600Y-127762000D01*
G37*
X141579600Y-127762000D02*
X135229600Y-127762000D01*
X135229600Y-125984000D01*
X141579600Y-125984000D01*
X141579600Y-127762000D01*
G36*
X151790400Y-127762000D02*
X145440400Y-127762000D01*
X145440400Y-125984000D01*
X151790400Y-125984000D01*
X151790400Y-127762000D01*
X151790400Y-127762000D01*
G37*
X151790400Y-127762000D02*
X145440400Y-127762000D01*
X145440400Y-125984000D01*
X151790400Y-125984000D01*
X151790400Y-127762000D01*
M02*
