G04 #@! TF.FileFunction,Copper,L2,Bot,Signal*
%FSLAX46Y46*%
G04 Gerber Fmt 4.6, Leading zero omitted, Abs format (unit mm)*
G04 Created by KiCad (PCBNEW 4.0.5-e0-6337~52~ubuntu16.10.1) date Sun Jan 15 19:46:15 2017*
%MOMM*%
%LPD*%
G01*
G04 APERTURE LIST*
%ADD10C,0.100000*%
%ADD11O,3.014980X1.506220*%
%ADD12O,1.250000X0.950000*%
%ADD13O,1.000000X1.550000*%
%ADD14R,1.524000X2.000000*%
%ADD15C,1.501140*%
%ADD16R,2.000000X1.500000*%
%ADD17C,1.524000*%
%ADD18C,3.000000*%
%ADD19R,2.000000X1.450000*%
%ADD20R,1.500000X0.800000*%
%ADD21C,0.600000*%
%ADD22C,0.160000*%
%ADD23C,0.250000*%
%ADD24C,0.500000*%
%ADD25C,0.200000*%
%ADD26C,0.254000*%
G04 APERTURE END LIST*
D10*
D11*
X110000000Y-85090000D03*
X110000000Y-82550000D03*
D12*
X130770900Y-84112540D03*
X125770900Y-84112540D03*
D13*
X131770900Y-81412540D03*
X124770900Y-81412540D03*
D14*
X149364700Y-79819500D03*
X151904700Y-79819500D03*
X154444700Y-79819500D03*
X156984700Y-79819500D03*
X159524700Y-79819500D03*
X162064700Y-79819500D03*
D15*
X139319000Y-90650060D03*
X139319000Y-95531940D03*
D16*
X174345600Y-83000000D03*
X165495600Y-83000000D03*
X174345600Y-91600000D03*
X165495600Y-91600000D03*
X82143600Y-91287600D03*
X90993600Y-91287600D03*
X82143600Y-82687600D03*
X90993600Y-82687600D03*
D17*
X88824600Y-102166800D03*
X94424600Y-113166800D03*
X83324600Y-113166800D03*
X94424600Y-104866800D03*
X83324600Y-104866800D03*
D18*
X83324600Y-109016800D03*
X94424600Y-109016800D03*
D17*
X104950000Y-102150000D03*
X110550000Y-113150000D03*
X99450000Y-113150000D03*
X110550000Y-104850000D03*
X99450000Y-104850000D03*
D18*
X99450000Y-109000000D03*
X110550000Y-109000000D03*
D19*
X118338600Y-99923600D03*
X118338600Y-86173600D03*
X126638600Y-99923600D03*
X126638600Y-86173600D03*
D20*
X120938600Y-97543600D03*
X120938600Y-96443600D03*
X120938600Y-95343600D03*
X120938600Y-94243600D03*
X120938600Y-93143600D03*
X120938600Y-92043600D03*
X120938600Y-90943600D03*
X120938600Y-89843600D03*
D21*
X144297400Y-84099400D03*
X144932400Y-84099400D03*
X144272000Y-83464400D03*
X144932400Y-83464400D03*
X151444286Y-94809746D03*
X86487000Y-128244600D03*
X86512398Y-116865400D03*
X150266398Y-95326200D03*
X96774000Y-128270000D03*
X96723200Y-116865400D03*
X152033041Y-97410406D03*
X106883204Y-128295400D03*
X106857800Y-116865400D03*
X154966950Y-97253224D03*
X117043202Y-128270000D03*
X117030500Y-108712000D03*
X116992400Y-116865400D03*
X157712888Y-97219474D03*
X127203200Y-128269998D03*
X127177800Y-116890800D03*
X127270012Y-109829598D03*
X168046400Y-93294200D03*
X168360047Y-109830664D03*
X158346156Y-82219522D03*
X162966511Y-83506690D03*
X158178500Y-80492600D03*
X162723012Y-85054631D03*
X162204400Y-88239600D03*
X168402000Y-92506796D03*
X168681400Y-121183400D03*
X158419800Y-121183400D03*
X166623348Y-96521539D03*
X167944800Y-132638800D03*
X169167062Y-91995738D03*
X157784800Y-132638800D03*
X166935694Y-95785021D03*
X148117390Y-121208800D03*
X162813157Y-98298442D03*
X137982790Y-121183400D03*
X160587074Y-96908075D03*
X162814000Y-99237800D03*
X147650200Y-132613400D03*
X137490200Y-132613400D03*
X161219414Y-97463389D03*
X158127612Y-96535352D03*
X127822790Y-121183400D03*
X95504000Y-94488000D03*
X153388771Y-86380011D03*
X169914594Y-89128600D03*
X149441078Y-95566815D03*
X86741000Y-132613400D03*
X156337000Y-96469202D03*
X117637390Y-121183400D03*
X95504000Y-95250000D03*
X152509444Y-86620022D03*
X168935400Y-88949422D03*
X158872900Y-96999686D03*
X127330200Y-132613400D03*
X153986500Y-97421145D03*
X107670600Y-121183400D03*
X157231719Y-96491594D03*
X117246400Y-132613400D03*
X154633075Y-97980235D03*
X107061000Y-132613400D03*
X147767496Y-99308747D03*
X97342790Y-121183400D03*
X147269200Y-100279200D03*
X96970600Y-132620000D03*
X150448714Y-94541728D03*
X87208190Y-121183400D03*
X155041600Y-90297000D03*
X159131000Y-90855800D03*
X159816800Y-90855800D03*
X159816800Y-91516200D03*
X159131000Y-91516200D03*
X147015200Y-84785200D03*
X149326600Y-84785200D03*
X153898598Y-83108800D03*
X154711400Y-83108800D03*
X140589000Y-80187800D03*
X175285400Y-94030800D03*
X175285400Y-95631000D03*
X144983200Y-89560400D03*
X148158200Y-83820000D03*
X134340600Y-89052400D03*
X155168600Y-93494620D03*
X154584400Y-94640400D03*
X153111200Y-94640400D03*
X151917400Y-89230200D03*
X150985136Y-96799400D03*
X152069800Y-96139000D03*
X150622000Y-98983800D03*
X146329400Y-102158800D03*
X151371298Y-88709500D03*
X138342000Y-84230590D03*
X143000000Y-85284690D03*
X137502000Y-84230590D03*
X138342000Y-85284688D03*
X137501186Y-85284688D03*
X154432000Y-89916000D03*
X169164000Y-90170000D03*
X170434000Y-92964000D03*
X170434000Y-92964000D03*
X170434000Y-92202000D03*
X94996000Y-92202000D03*
X155702000Y-79832200D03*
X175412400Y-85572600D03*
X174193200Y-81330800D03*
X162756282Y-87419202D03*
X165099445Y-100354232D03*
X126212600Y-81407000D03*
X130327400Y-81432400D03*
X166293800Y-104368600D03*
X154940000Y-96012000D03*
X165354000Y-80772000D03*
X119634000Y-84074000D03*
X118872000Y-84074000D03*
X167815779Y-89161371D03*
X168447500Y-86949500D03*
X169372500Y-86949500D03*
X169372500Y-86024500D03*
X168447500Y-86024500D03*
X155792855Y-97685428D03*
X117779802Y-109829600D03*
X158072898Y-98000482D03*
X127965200Y-110464600D03*
X159991161Y-97494167D03*
X138205340Y-110444413D03*
X148361400Y-110209594D03*
X162562618Y-96702684D03*
X158318200Y-109753400D03*
X166081772Y-97110364D03*
X149809200Y-88697832D03*
X132969000Y-88366600D03*
X156286200Y-89809535D03*
X132842000Y-86614000D03*
X149860000Y-81178400D03*
X166165333Y-84986721D03*
X164182085Y-86179348D03*
X119481600Y-93141800D03*
X122148600Y-93192600D03*
X150852170Y-82903823D03*
X150723600Y-81203800D03*
X162033741Y-83297400D03*
X129028113Y-85660790D03*
X156099305Y-89031660D03*
X156261063Y-88248172D03*
X128495568Y-82991177D03*
X159637273Y-96763565D03*
X137363200Y-128270000D03*
X137312400Y-116865400D03*
X138301388Y-109650188D03*
X161558472Y-96738780D03*
X147497800Y-128270000D03*
X147472400Y-116865400D03*
X147590012Y-109849583D03*
X157734000Y-116865400D03*
X165301348Y-97335002D03*
X157734000Y-128270000D03*
X157683200Y-108889800D03*
X167144105Y-93584990D03*
X167718087Y-108866180D03*
X167843200Y-128270000D03*
X167817800Y-116839998D03*
X166513033Y-86309570D03*
X167081200Y-91871800D03*
X149485130Y-96891179D03*
X171616684Y-107496172D03*
X169951400Y-128270000D03*
X169926000Y-116840002D03*
X170865800Y-107772200D03*
X161517768Y-91108972D03*
X127508000Y-96443600D03*
X162409906Y-91100733D03*
X127508000Y-97543600D03*
X161263612Y-86026724D03*
X127558800Y-90123000D03*
X160609185Y-86533644D03*
X127533400Y-91223000D03*
X159961477Y-87031870D03*
X159317021Y-87528400D03*
X127508000Y-93472000D03*
X170002200Y-80797400D03*
X171754800Y-80797400D03*
X171267998Y-87045800D03*
X171227998Y-85415481D03*
X171069000Y-87909400D03*
X115239806Y-93853000D03*
X149860000Y-89560400D03*
X154450900Y-93848069D03*
X104903497Y-104968112D03*
X149377400Y-98170994D03*
X152313052Y-98196187D03*
X107829978Y-108991400D03*
X153658233Y-93956227D03*
X106426000Y-99491800D03*
X153473063Y-98108965D03*
X108229400Y-112268000D03*
X152854807Y-97508104D03*
X108072869Y-109753648D03*
X154377342Y-86211699D03*
X160769300Y-80519491D03*
X155929017Y-83560194D03*
D22*
X86512398Y-109471180D02*
X95820601Y-100162977D01*
X95820601Y-100162977D02*
X107753500Y-100162977D01*
X151444286Y-94385482D02*
X151444286Y-94809746D01*
X151020530Y-93961726D02*
X151444286Y-94385482D01*
X116486842Y-101315123D02*
X130561477Y-101315123D01*
X148573860Y-94920725D02*
X149532860Y-93961726D01*
X130561477Y-101315123D02*
X134854074Y-97022526D01*
X86512398Y-116865400D02*
X86512398Y-109471180D01*
X114937448Y-99765730D02*
X116486842Y-101315123D01*
X148572730Y-94920726D02*
X148573860Y-94920725D01*
X134854074Y-97022526D02*
X146470931Y-97022525D01*
X108150750Y-99765729D02*
X114937448Y-99765730D01*
X107753500Y-100162977D02*
X108150750Y-99765729D01*
X149532860Y-93961726D02*
X151020530Y-93961726D01*
X146470931Y-97022525D02*
X148572730Y-94920726D01*
D23*
X86487000Y-116890798D02*
X86512398Y-116865400D01*
D22*
X86487000Y-128244600D02*
X86487000Y-116890798D01*
X150266398Y-95750464D02*
X150266398Y-95326200D01*
X107175715Y-101429960D02*
X108013912Y-101429960D01*
X149825868Y-96190994D02*
X150266398Y-95750464D01*
X149008578Y-96190994D02*
X149825868Y-96190994D01*
X101644087Y-106859988D02*
X104475975Y-104028100D01*
X147097013Y-98102559D02*
X149008578Y-96190994D01*
X135683271Y-98102559D02*
X147097013Y-98102559D01*
X116039482Y-102395156D02*
X131390674Y-102395156D01*
X131390674Y-102395156D02*
X135683271Y-98102559D01*
X93139612Y-106859988D02*
X101644087Y-106859988D01*
X108598113Y-100845759D02*
X114490084Y-100845760D01*
X108013912Y-101429960D02*
X108598113Y-100845759D01*
X104577575Y-104028100D02*
X107175715Y-101429960D01*
X91338400Y-108661200D02*
X93139612Y-106859988D01*
X104475975Y-104028100D02*
X104577575Y-104028100D01*
X114490084Y-100845760D02*
X116039482Y-102395156D01*
X96774000Y-128270000D02*
X96774000Y-121539612D01*
X96774000Y-121539612D02*
X96423201Y-121188813D01*
X96423201Y-121188813D02*
X96423201Y-117165399D01*
X91338400Y-111904864D02*
X91338400Y-108661200D01*
X96723200Y-116865400D02*
X96298936Y-116865400D01*
X96298936Y-116865400D02*
X91338400Y-111904864D01*
D23*
X96423201Y-117165399D02*
X96723200Y-116865400D01*
D22*
X134518400Y-105994200D02*
X137363200Y-103149400D01*
X151733042Y-100234958D02*
X151733042Y-97710405D01*
X148818600Y-103149400D02*
X151733042Y-100234958D01*
X112448018Y-105994200D02*
X134518400Y-105994200D01*
X137363200Y-103149400D02*
X148818600Y-103149400D01*
X151733042Y-97710405D02*
X152033041Y-97410406D01*
X106857800Y-116865400D02*
X106857800Y-109016800D01*
X111584418Y-106857800D02*
X112448018Y-105994200D01*
X109016800Y-106857800D02*
X111584418Y-106857800D01*
X106857800Y-109016800D02*
X109016800Y-106857800D01*
D23*
X106857800Y-128269996D02*
X106883204Y-128295400D01*
D22*
X106857800Y-116865400D02*
X106857800Y-128269996D01*
D23*
X106870500Y-116852700D02*
X106857800Y-116865400D01*
D22*
X149740360Y-105309460D02*
X155213077Y-99836743D01*
X138257931Y-105309461D02*
X149740360Y-105309460D01*
X155213077Y-99836743D02*
X155213077Y-97701833D01*
X155213077Y-97701833D02*
X154966950Y-97455706D01*
X154966950Y-97455706D02*
X154966950Y-97253224D01*
D23*
X116992400Y-128219198D02*
X117043202Y-128270000D01*
D22*
X116992400Y-116865400D02*
X116992400Y-128219198D01*
X135413128Y-108154264D02*
X138257931Y-105309461D01*
X117588236Y-108154264D02*
X135413128Y-108154264D01*
X117030500Y-108712000D02*
X117588236Y-108154264D01*
D23*
X117030500Y-116827300D02*
X116992400Y-116865400D01*
D22*
X117030500Y-108712000D02*
X117030500Y-116827300D01*
X150336847Y-106749501D02*
X157318633Y-99767715D01*
X157318633Y-97613729D02*
X157412889Y-97519473D01*
X157412889Y-97519473D02*
X157712888Y-97219474D01*
X157318633Y-99767715D02*
X157318633Y-97613729D01*
X135954522Y-109649398D02*
X138854418Y-106749502D01*
X138854418Y-106749502D02*
X150336847Y-106749501D01*
D23*
X127177800Y-128244598D02*
X127203200Y-128269998D01*
D22*
X127177800Y-116890800D02*
X127177800Y-128244598D01*
X127270012Y-109829598D02*
X127694276Y-109829598D01*
X127694276Y-109829598D02*
X127874476Y-109649398D01*
X127874476Y-109649398D02*
X135954522Y-109649398D01*
X127177800Y-116890800D02*
X127177800Y-109921810D01*
D23*
X127177800Y-109921810D02*
X127270012Y-109829598D01*
D22*
X168343093Y-108566177D02*
X168343093Y-109389446D01*
X168360047Y-109406400D02*
X168360047Y-109830664D01*
X168231389Y-108454473D02*
X168343093Y-108566177D01*
X168343093Y-109389446D02*
X168360047Y-109406400D01*
X168046400Y-93294200D02*
X168046400Y-93718464D01*
X168231389Y-93903453D02*
X168231389Y-108454473D01*
X168046400Y-93718464D02*
X168231389Y-93903453D01*
X162966511Y-83506690D02*
X162966511Y-83082426D01*
X162103607Y-82219522D02*
X158770420Y-82219522D01*
X158770420Y-82219522D02*
X158346156Y-82219522D01*
X162966511Y-83082426D02*
X162103607Y-82219522D01*
X162935827Y-83537374D02*
X162966511Y-83506690D01*
X162935827Y-83571173D02*
X162935827Y-83537374D01*
X158178500Y-80091300D02*
X158178500Y-80492600D01*
X157906700Y-79819500D02*
X158178500Y-80091300D01*
X156984700Y-79819500D02*
X157906700Y-79819500D01*
X161904401Y-85873242D02*
X162423013Y-85354630D01*
X162204400Y-88239600D02*
X161904401Y-87939601D01*
X162423013Y-85354630D02*
X162723012Y-85054631D01*
X161904401Y-87939601D02*
X161904401Y-85873242D01*
X168985049Y-108695344D02*
X168793101Y-108503396D01*
X168681400Y-121183400D02*
X168681400Y-110434315D01*
X168793101Y-108379778D02*
X168715013Y-108301690D01*
X168793101Y-108503396D02*
X168793101Y-108379778D01*
X168985049Y-110130666D02*
X168985049Y-108695344D01*
X168715013Y-108301690D02*
X168715013Y-92819809D01*
X168681400Y-110434315D02*
X168985049Y-110130666D01*
X168715013Y-92819809D02*
X168701999Y-92806795D01*
X168701999Y-92806795D02*
X168402000Y-92506796D01*
X166779005Y-96677196D02*
X166623348Y-96521539D01*
X158419800Y-121183400D02*
X158978600Y-120624600D01*
X158978600Y-120624600D02*
X158978600Y-108867220D01*
X158978600Y-108867220D02*
X166779005Y-101066815D01*
X166779005Y-101066815D02*
X166779005Y-96677196D01*
X169167062Y-91995738D02*
X169316400Y-92145076D01*
X169300998Y-117063802D02*
X169324612Y-117087416D01*
X169316400Y-110435726D02*
X169316400Y-116092796D01*
X169324612Y-131258988D02*
X167944800Y-132638800D01*
X169300998Y-116108198D02*
X169300998Y-117063802D01*
X169435060Y-110317066D02*
X169316400Y-110435726D01*
X169316400Y-116092796D02*
X169300998Y-116108198D01*
X169435060Y-108508944D02*
X169435060Y-110317066D01*
X169316400Y-108390284D02*
X169435060Y-108508944D01*
X169316400Y-92145076D02*
X169316400Y-108390284D01*
X169324612Y-117087416D02*
X169324612Y-131258988D01*
X159435800Y-109046430D02*
X167249002Y-101233228D01*
X167249002Y-96098329D02*
X167235693Y-96085020D01*
X167249002Y-101233228D02*
X167249002Y-96098329D01*
X157784800Y-132638800D02*
X159435800Y-130987800D01*
X167235693Y-96085020D02*
X166935694Y-95785021D01*
X159435800Y-130987800D02*
X159435800Y-109046430D01*
X148117390Y-114060278D02*
X148117390Y-120784536D01*
X148117390Y-120784536D02*
X148117390Y-121208800D01*
X162813157Y-98298442D02*
X162233998Y-98877601D01*
X162233998Y-98877601D02*
X162233998Y-99943670D01*
X162233998Y-99943670D02*
X148117390Y-114060278D01*
X137982790Y-120759136D02*
X137982790Y-121183400D01*
X140568157Y-108909562D02*
X137982790Y-111494929D01*
X151231578Y-108909562D02*
X140568157Y-108909562D01*
X160493434Y-99647706D02*
X151231578Y-108909562D01*
X160587074Y-97792867D02*
X160493434Y-97886507D01*
X160587074Y-96908075D02*
X160587074Y-97792867D01*
X160493434Y-97886507D02*
X160493434Y-99647706D01*
X137982790Y-111494929D02*
X137982790Y-120759136D01*
X162814000Y-99872800D02*
X162814000Y-99662064D01*
X152374600Y-110312200D02*
X162814000Y-99872800D01*
X147650200Y-132613400D02*
X152374600Y-127889000D01*
X152374600Y-127889000D02*
X152374600Y-110312200D01*
X162814000Y-99662064D02*
X162814000Y-99237800D01*
X161219414Y-97887653D02*
X161219414Y-97463389D01*
X161219414Y-97910094D02*
X161219414Y-97887653D01*
X160943447Y-99706825D02*
X160943447Y-98186061D01*
X140717278Y-109269573D02*
X151380699Y-109269573D01*
X138607800Y-131495800D02*
X138607800Y-111379051D01*
X138607800Y-111379051D02*
X140717278Y-109269573D01*
X160943447Y-98186061D02*
X161219414Y-97910094D01*
X151380699Y-109269573D02*
X160943447Y-99706825D01*
X137490200Y-132613400D02*
X138607800Y-131495800D01*
X158292890Y-97363467D02*
X158292890Y-96700630D01*
X158652900Y-99451712D02*
X158652900Y-97723477D01*
X128767969Y-110549420D02*
X136072764Y-110549420D01*
X150635091Y-107469521D02*
X158652900Y-99451712D01*
X158292890Y-96700630D02*
X158127612Y-96535352D01*
X136072764Y-110549420D02*
X139152662Y-107469522D01*
X127822790Y-111494599D02*
X128767969Y-110549420D01*
X139152662Y-107469522D02*
X150635091Y-107469521D01*
X127822790Y-121183400D02*
X127822790Y-111494599D01*
X158652900Y-97723477D02*
X158292890Y-97363467D01*
X95504000Y-94488000D02*
X104512000Y-94488000D01*
X116500000Y-82500000D02*
X125978002Y-82500000D01*
X129287163Y-81834601D02*
X130038151Y-82585589D01*
X126643401Y-81834601D02*
X129287163Y-81834601D01*
X130038151Y-82585589D02*
X132191789Y-82585589D01*
X125978002Y-82500000D02*
X126643401Y-81834601D01*
X132191789Y-82585589D02*
X135686212Y-86080012D01*
X135686212Y-86080012D02*
X153088772Y-86080012D01*
X153088772Y-86080012D02*
X153388771Y-86380011D01*
X104512000Y-94488000D02*
X116500000Y-82500000D01*
X153800460Y-86791700D02*
X153688770Y-86680010D01*
X169663938Y-84086700D02*
X157360743Y-84086700D01*
X153688770Y-86680010D02*
X153388771Y-86380011D01*
X154655743Y-86791700D02*
X153800460Y-86791700D01*
X170434000Y-88609194D02*
X170434000Y-84856762D01*
X170434000Y-84856762D02*
X169663938Y-84086700D01*
X169914594Y-89128600D02*
X170434000Y-88609194D01*
X157360743Y-84086700D02*
X154655743Y-86791700D01*
X87833200Y-109423200D02*
X96178778Y-101077622D01*
X104413616Y-101077622D02*
X104428239Y-101062999D01*
X116188602Y-102035145D02*
X131114275Y-102035145D01*
X135406872Y-97742548D02*
X146841081Y-97742548D01*
X149016814Y-95566815D02*
X149441078Y-95566815D01*
X108448991Y-100485749D02*
X114639206Y-100485750D01*
X131114275Y-102035145D02*
X135406872Y-97742548D01*
X107871741Y-101062999D02*
X108448991Y-100485749D01*
X86741000Y-132613400D02*
X87833200Y-131521200D01*
X96178778Y-101077622D02*
X104413616Y-101077622D01*
X104428239Y-101062999D02*
X107871741Y-101062999D01*
X114639206Y-100485750D02*
X116188602Y-102035145D01*
X87833200Y-131521200D02*
X87833200Y-109423200D01*
X146841081Y-97742548D02*
X149016814Y-95566815D01*
X117637390Y-121183400D02*
X117637390Y-110961199D01*
X150038600Y-106029484D02*
X156372857Y-99695227D01*
X119724305Y-108874284D02*
X135711372Y-108874284D01*
X156337000Y-96893466D02*
X156337000Y-96469202D01*
X117637390Y-110961199D02*
X119724305Y-108874284D01*
X156372857Y-99695227D02*
X156372857Y-96929323D01*
X156372857Y-96929323D02*
X156337000Y-96893466D01*
X135711372Y-108874284D02*
X138556172Y-106029484D01*
X138556172Y-106029484D02*
X150038600Y-106029484D01*
X95504000Y-95250000D02*
X104202562Y-95250000D01*
X104202562Y-95250000D02*
X116452562Y-83000000D01*
X126775953Y-82154612D02*
X129154611Y-82154612D01*
X131640137Y-82905600D02*
X135354559Y-86620022D01*
X135354559Y-86620022D02*
X152085180Y-86620022D01*
X129154611Y-82154612D02*
X129905599Y-82905600D01*
X152085180Y-86620022D02*
X152509444Y-86620022D01*
X116452562Y-83000000D02*
X125930565Y-83000000D01*
X129905599Y-82905600D02*
X131640137Y-82905600D01*
X125930565Y-83000000D02*
X126775953Y-82154612D01*
X153001133Y-87111711D02*
X152809443Y-86920021D01*
X154788295Y-87111711D02*
X153001133Y-87111711D01*
X152809443Y-86920021D02*
X152509444Y-86620022D01*
X170113989Y-84989314D02*
X169531386Y-84406711D01*
X168935400Y-88949422D02*
X170113989Y-87770833D01*
X169531386Y-84406711D02*
X157493295Y-84406711D01*
X157493295Y-84406711D02*
X154788295Y-87111711D01*
X170113989Y-87770833D02*
X170113989Y-84989314D01*
X127330200Y-132613400D02*
X128447800Y-131495800D01*
X159012911Y-97563961D02*
X158872900Y-97423950D01*
X139301785Y-107829531D02*
X150784213Y-107829531D01*
X128954369Y-110999431D02*
X136131885Y-110999431D01*
X128447800Y-111506000D02*
X128954369Y-110999431D01*
X128447800Y-131495800D02*
X128447800Y-111506000D01*
X158872900Y-97423950D02*
X158872900Y-96999686D01*
X150784213Y-107829531D02*
X159012911Y-99600833D01*
X136131885Y-110999431D02*
X139301785Y-107829531D01*
X159012911Y-99600833D02*
X159012911Y-97563961D01*
X149415088Y-104589440D02*
X154053064Y-99951464D01*
X110048591Y-111637411D02*
X112576853Y-111637411D01*
X107670600Y-114015402D02*
X110048591Y-111637411D01*
X107670600Y-121183400D02*
X107670600Y-114015402D01*
X135114885Y-107434243D02*
X137959688Y-104589440D01*
X116780020Y-107434244D02*
X135114885Y-107434243D01*
X137959688Y-104589440D02*
X149415088Y-104589440D01*
X112576853Y-111637411D02*
X116780020Y-107434244D01*
X154053064Y-99951464D02*
X154053064Y-97487709D01*
X154053064Y-97487709D02*
X153986500Y-97421145D01*
X156931720Y-96791593D02*
X157231719Y-96491594D01*
X138705293Y-106389495D02*
X150187722Y-106389494D01*
X156866202Y-99711014D02*
X156866202Y-96857111D01*
X156866202Y-96857111D02*
X156931720Y-96791593D01*
X135860494Y-109234294D02*
X138705293Y-106389495D01*
X120000705Y-109234295D02*
X135860494Y-109234294D01*
X118262400Y-131597400D02*
X118262400Y-110972600D01*
X150187722Y-106389494D02*
X156866202Y-99711014D01*
X118262400Y-110972600D02*
X120000705Y-109234295D01*
X117246400Y-132613400D02*
X118262400Y-131597400D01*
X154633075Y-98404499D02*
X154633075Y-97980235D01*
X107061000Y-132613400D02*
X109499612Y-130174788D01*
X149591238Y-104949450D02*
X154633075Y-99907613D01*
X109499612Y-112695522D02*
X110144712Y-112050422D01*
X135264006Y-107794254D02*
X138108810Y-104949450D01*
X112800253Y-112050422D02*
X117056420Y-107794255D01*
X154633075Y-99907613D02*
X154633075Y-98404499D01*
X109499612Y-130174788D02*
X109499612Y-112695522D01*
X138108810Y-104949450D02*
X149591238Y-104949450D01*
X117056420Y-107794255D02*
X135264006Y-107794254D01*
X110144712Y-112050422D02*
X112800253Y-112050422D01*
X114042722Y-101925790D02*
X115592121Y-103475189D01*
X97342790Y-113628478D02*
X109045479Y-101925789D01*
X147343232Y-99308747D02*
X147767496Y-99308747D01*
X132219875Y-103475189D02*
X136512475Y-99182589D01*
X115592121Y-103475189D02*
X132219875Y-103475189D01*
X109045479Y-101925789D02*
X114042722Y-101925790D01*
X97342790Y-121183400D02*
X97342790Y-113628478D01*
X147217074Y-99182589D02*
X147343232Y-99308747D01*
X136512475Y-99182589D02*
X147217074Y-99182589D01*
X96970600Y-132620000D02*
X100941401Y-128649199D01*
X100941401Y-128649199D02*
X100941401Y-110538999D01*
X132496276Y-103835200D02*
X136788876Y-99542600D01*
X146532600Y-99542600D02*
X147269200Y-100279200D01*
X115443000Y-103835200D02*
X132496276Y-103835200D01*
X109194600Y-102285800D02*
X113893600Y-102285800D01*
X113893600Y-102285800D02*
X115443000Y-103835200D01*
X100941401Y-110538999D02*
X109194600Y-102285800D01*
X136788876Y-99542600D02*
X146532600Y-99542600D01*
X150024450Y-94541728D02*
X150448714Y-94541728D01*
X96007001Y-100612988D02*
X107812620Y-100612988D01*
X148722982Y-95280735D02*
X149461990Y-94541728D01*
X116337721Y-101675134D02*
X130837876Y-101675134D01*
X87208190Y-109411799D02*
X96007001Y-100612988D01*
X148721853Y-95280735D02*
X148722982Y-95280735D01*
X146620051Y-97382537D02*
X148721853Y-95280735D01*
X108299871Y-100125740D02*
X114788327Y-100125740D01*
X87208190Y-121183400D02*
X87208190Y-109411799D01*
X114788327Y-100125740D02*
X116337721Y-101675134D01*
X107812620Y-100612988D02*
X108299871Y-100125740D01*
X130837876Y-101675134D02*
X135130473Y-97382537D01*
X149461990Y-94541728D02*
X150024450Y-94541728D01*
X135130473Y-97382537D02*
X146620051Y-97382537D01*
D24*
X159766000Y-90855800D02*
X159131000Y-90855800D01*
X159131000Y-91516200D02*
X159740600Y-91516200D01*
X159740600Y-91516200D02*
X159766000Y-91490800D01*
X154711400Y-83108800D02*
X153898598Y-83108800D01*
D23*
X152577798Y-89916000D02*
X151671297Y-89009499D01*
X151671297Y-89009499D02*
X151371298Y-88709500D01*
X154432000Y-89916000D02*
X152577798Y-89916000D01*
D24*
X170434000Y-92964000D02*
X172618400Y-92964000D01*
X172618400Y-92964000D02*
X175285400Y-95631000D01*
D25*
X163749618Y-82376382D02*
X163428146Y-82376382D01*
X165354000Y-80772000D02*
X163749618Y-82376382D01*
D23*
X167322222Y-85611722D02*
X166216578Y-85611722D01*
X163180546Y-87419202D02*
X162756282Y-87419202D01*
X166216578Y-85611722D02*
X164409098Y-87419202D01*
X168447500Y-86024500D02*
X167735000Y-86024500D01*
X167735000Y-86024500D02*
X167322222Y-85611722D01*
X164409098Y-87419202D02*
X163180546Y-87419202D01*
D24*
X170434000Y-92964000D02*
X171196000Y-92964000D01*
X170434000Y-92202000D02*
X171196000Y-92202000D01*
X155277736Y-79832200D02*
X155702000Y-79832200D01*
X154457400Y-79832200D02*
X155277736Y-79832200D01*
X154444700Y-79819500D02*
X154457400Y-79832200D01*
X131770900Y-81412540D02*
X130347260Y-81412540D01*
X130347260Y-81412540D02*
X130327400Y-81432400D01*
D23*
X138454500Y-84353500D02*
X138454500Y-84352500D01*
X138454500Y-84352500D02*
X138430000Y-84328000D01*
X138454500Y-85318500D02*
X138454500Y-85319500D01*
X138454500Y-85319500D02*
X138430000Y-85344000D01*
X137643500Y-84353500D02*
X137643500Y-84352500D01*
X137643500Y-84352500D02*
X137668000Y-84328000D01*
D22*
X117779802Y-109829600D02*
X119095127Y-108514275D01*
X149889482Y-105669470D02*
X155792855Y-99766097D01*
X155792855Y-98109692D02*
X155792855Y-97685428D01*
X135562250Y-108514274D02*
X138407054Y-105669470D01*
X138407054Y-105669470D02*
X149889482Y-105669470D01*
X155792855Y-99766097D02*
X155792855Y-98109692D01*
X119095127Y-108514275D02*
X135562250Y-108514274D01*
X158072898Y-99522582D02*
X158072898Y-98424746D01*
X127965200Y-110464600D02*
X128265199Y-110164601D01*
X135948451Y-110164601D02*
X139003541Y-107109511D01*
X150485969Y-107109511D02*
X158072898Y-99522582D01*
X158072898Y-98424746D02*
X158072898Y-98000482D01*
X128265199Y-110164601D02*
X135948451Y-110164601D01*
X139003541Y-107109511D02*
X150485969Y-107109511D01*
X159991161Y-97918431D02*
X159991161Y-97494167D01*
X151082455Y-108549553D02*
X159991161Y-99640847D01*
X138340167Y-110444413D02*
X140235027Y-108549553D01*
X138205340Y-110444413D02*
X138340167Y-110444413D01*
X159991161Y-99640847D02*
X159991161Y-97918431D01*
X140235027Y-108549553D02*
X151082455Y-108549553D01*
X148785664Y-110209594D02*
X148361400Y-110209594D01*
X161843469Y-99825067D02*
X151458942Y-110209594D01*
X151458942Y-110209594D02*
X148785664Y-110209594D01*
X162188155Y-97998440D02*
X162188155Y-98214175D01*
X162562618Y-97623977D02*
X162188155Y-97998440D01*
X162562618Y-96702684D02*
X162562618Y-97623977D01*
X162188155Y-98214175D02*
X161843469Y-98558861D01*
X161843469Y-98558861D02*
X161843469Y-99825067D01*
X158318200Y-109753400D02*
X158318200Y-108891210D01*
X166174457Y-97203049D02*
X166081772Y-97110364D01*
X158318200Y-108891210D02*
X166174457Y-101034953D01*
X166174457Y-101034953D02*
X166174457Y-97203049D01*
D23*
X132969000Y-88366600D02*
X134619132Y-88366600D01*
X149384936Y-88697832D02*
X149809200Y-88697832D01*
X134950364Y-88697832D02*
X149384936Y-88697832D01*
X134619132Y-88366600D02*
X134950364Y-88697832D01*
X155861936Y-89809535D02*
X156286200Y-89809535D01*
X151764418Y-88072822D02*
X152541820Y-88850224D01*
X134961765Y-88072822D02*
X151764418Y-88072822D01*
X134212932Y-87323989D02*
X134961765Y-88072822D01*
X152541820Y-88850224D02*
X154902625Y-88850224D01*
X154902625Y-88850224D02*
X155861936Y-89809535D01*
X133864084Y-87323989D02*
X134212932Y-87323989D01*
D25*
X133864084Y-87323989D02*
X133551989Y-87323989D01*
X133551989Y-87323989D02*
X132842000Y-86614000D01*
D24*
X149860000Y-81178400D02*
X149860000Y-80314800D01*
X149860000Y-80314800D02*
X149364700Y-79819500D01*
D23*
X164182085Y-86179348D02*
X164182085Y-85779315D01*
X164182085Y-85779315D02*
X164674680Y-85286720D01*
X164674680Y-85286720D02*
X165865334Y-85286720D01*
X165865334Y-85286720D02*
X166165333Y-84986721D01*
D24*
X149364700Y-79819500D02*
X149364700Y-80544411D01*
X120913200Y-93169000D02*
X122125000Y-93169000D01*
X122125000Y-93169000D02*
X122148600Y-93192600D01*
X119481600Y-93141800D02*
X120886000Y-93141800D01*
X120886000Y-93141800D02*
X120913200Y-93169000D01*
D23*
X119508800Y-93169000D02*
X119481600Y-93141800D01*
D22*
X162033741Y-83297400D02*
X161565741Y-82829400D01*
X161565741Y-82829400D02*
X157137100Y-82829400D01*
X157137100Y-82829400D02*
X156307223Y-81999523D01*
X156307223Y-81999523D02*
X152180734Y-81999523D01*
X152180734Y-81999523D02*
X151276434Y-82903823D01*
X151276434Y-82903823D02*
X150852170Y-82903823D01*
D23*
X151904700Y-80057500D02*
X150758400Y-81203800D01*
X151904700Y-79819500D02*
X151904700Y-80057500D01*
X150758400Y-81203800D02*
X150723600Y-81203800D01*
X135148165Y-87622811D02*
X133186144Y-85660790D01*
X133186144Y-85660790D02*
X129452377Y-85660790D01*
X151950818Y-87622811D02*
X135148165Y-87622811D01*
X152728220Y-88400213D02*
X151950818Y-87622811D01*
X156099305Y-89031660D02*
X155467858Y-88400213D01*
X129452377Y-85660790D02*
X129028113Y-85660790D01*
X155467858Y-88400213D02*
X152728220Y-88400213D01*
X152137218Y-87172800D02*
X152912591Y-87948173D01*
X155961064Y-87948173D02*
X156261063Y-88248172D01*
X131472376Y-83310611D02*
X135334565Y-87172800D01*
X135334565Y-87172800D02*
X152137218Y-87172800D01*
X128815002Y-83310611D02*
X131472376Y-83310611D01*
X128495568Y-82991177D02*
X128815002Y-83310611D01*
X152912591Y-87948173D02*
X155961064Y-87948173D01*
D22*
X159452902Y-97278088D02*
X159452902Y-96947936D01*
X159372920Y-99749956D02*
X159372920Y-97358070D01*
X159372920Y-97358070D02*
X159452902Y-97278088D01*
X159452902Y-96947936D02*
X159637273Y-96763565D01*
X137312400Y-116865400D02*
X137312400Y-128219200D01*
D23*
X137312400Y-128219200D02*
X137363200Y-128270000D01*
D22*
X137312400Y-116865400D02*
X137312400Y-110391688D01*
X139762034Y-108189542D02*
X150933335Y-108189541D01*
X150933335Y-108189541D02*
X159372920Y-99749956D01*
X138301388Y-109650188D02*
X139762034Y-108189542D01*
D23*
X137312400Y-110391688D02*
X138053900Y-109650188D01*
X138053900Y-109650188D02*
X138301388Y-109650188D01*
D22*
X161558472Y-96738780D02*
X161858471Y-97038779D01*
X161858471Y-97691713D02*
X161738144Y-97812040D01*
X161858471Y-97038779D02*
X161858471Y-97691713D01*
X147472400Y-116865400D02*
X147472400Y-128244600D01*
D23*
X147472400Y-128244600D02*
X147497800Y-128270000D01*
D22*
X161393458Y-98372461D02*
X161393458Y-99765946D01*
X161738144Y-97812040D02*
X161738144Y-98027775D01*
D23*
X147472400Y-109967195D02*
X147590012Y-109849583D01*
D22*
X147472400Y-116865400D02*
X147472400Y-109967195D01*
X147810011Y-109629584D02*
X147590012Y-109849583D01*
X161393458Y-99765946D02*
X151529820Y-109629584D01*
X161738144Y-98027775D02*
X161393458Y-98372461D01*
X151529820Y-109629584D02*
X147810011Y-109629584D01*
X165601347Y-97635001D02*
X165301348Y-97335002D01*
X165724446Y-97758100D02*
X165601347Y-97635001D01*
X165724446Y-100848554D02*
X165724446Y-97758100D01*
X157683200Y-108889800D02*
X157683200Y-116814600D01*
X157683200Y-116814600D02*
X157734000Y-116865400D01*
X157683200Y-108889800D02*
X165724446Y-100848554D01*
X157734000Y-116865400D02*
X157734000Y-128270000D01*
X167444104Y-93884989D02*
X167144105Y-93584990D01*
X167718087Y-116316021D02*
X167718087Y-109290444D01*
X167718087Y-94158972D02*
X167444104Y-93884989D01*
X167718087Y-108866180D02*
X167718087Y-94158972D01*
X167718087Y-109290444D02*
X167718087Y-108866180D01*
X167817800Y-116415734D02*
X167718087Y-116316021D01*
X167817800Y-116839998D02*
X167817800Y-116415734D01*
X167843200Y-116865398D02*
X167817800Y-116839998D01*
X167843200Y-128270000D02*
X167843200Y-116865398D01*
X166847799Y-86644336D02*
X166813032Y-86609569D01*
X166847799Y-90982800D02*
X166847799Y-86644336D01*
X166813032Y-86609569D02*
X166513033Y-86309570D01*
X166847799Y-90982800D02*
X166847799Y-91241601D01*
X167081200Y-91871800D02*
X167081200Y-91447536D01*
X167081200Y-91447536D02*
X166847799Y-91214135D01*
X166847799Y-91214135D02*
X166847799Y-90982800D01*
X131667072Y-102755167D02*
X135959669Y-98462570D01*
X97669999Y-109921401D02*
X97669999Y-108145599D01*
X98595599Y-107219999D02*
X101793208Y-107219999D01*
X149185131Y-97191178D02*
X149485130Y-96891179D01*
X148007574Y-98368735D02*
X149185131Y-97191178D01*
X147339974Y-98368735D02*
X148007574Y-98368735D01*
X147246139Y-98462570D02*
X147339974Y-98368735D01*
X135959669Y-98462570D02*
X147246139Y-98462570D01*
X115890362Y-102755167D02*
X131667072Y-102755167D01*
X108163035Y-101789969D02*
X108747235Y-101205769D01*
X108747235Y-101205769D02*
X114340964Y-101205770D01*
X107324837Y-101789970D02*
X108163035Y-101789969D01*
X104625096Y-104388111D02*
X104726696Y-104388111D01*
X101793208Y-107219999D02*
X104625096Y-104388111D01*
X97669999Y-108145599D02*
X98595599Y-107219999D01*
X94424600Y-113166800D02*
X97669999Y-109921401D01*
X104726696Y-104388111D02*
X107324837Y-101789970D01*
X114340964Y-101205770D02*
X115890362Y-102755167D01*
X171616684Y-107496172D02*
X171616684Y-126604716D01*
X171616684Y-126604716D02*
X170251399Y-127970001D01*
X170251399Y-127970001D02*
X169951400Y-128270000D01*
X170865800Y-107772200D02*
X169926000Y-108712000D01*
X169926000Y-116415738D02*
X169926000Y-116840002D01*
X169926000Y-108712000D02*
X169926000Y-116415738D01*
X161217769Y-91408971D02*
X161517768Y-91108972D01*
X147977373Y-93480684D02*
X148984414Y-92473644D01*
X130470916Y-93480684D02*
X147977373Y-93480684D01*
X127508000Y-96443600D02*
X130470916Y-93480684D01*
X148984414Y-92473644D02*
X160153096Y-92473644D01*
X160153096Y-92473644D02*
X161217769Y-91408971D01*
D23*
X127508000Y-96443600D02*
X127000000Y-96443600D01*
X127000000Y-96443600D02*
X120938600Y-96443600D01*
D22*
X148126494Y-93840695D02*
X131210905Y-93840695D01*
X131210905Y-93840695D02*
X127807999Y-97243601D01*
X162409906Y-91100733D02*
X160673944Y-92836695D01*
X149130495Y-92836695D02*
X148126494Y-93840695D01*
X160673944Y-92836695D02*
X149130495Y-92836695D01*
X127807999Y-97243601D02*
X127508000Y-97543600D01*
D23*
X127508000Y-97543600D02*
X120938600Y-97543600D01*
D22*
X127983064Y-90123000D02*
X127558800Y-90123000D01*
X159434075Y-85726725D02*
X158242000Y-86918800D01*
X129644268Y-90123000D02*
X127983064Y-90123000D01*
X131561910Y-92040642D02*
X129644268Y-90123000D01*
X147380890Y-92040642D02*
X131561910Y-92040642D01*
X158242000Y-89146380D02*
X156354780Y-91033600D01*
X158242000Y-86918800D02*
X158242000Y-89146380D01*
X156354780Y-91033600D02*
X148387932Y-91033600D01*
X161263612Y-86026724D02*
X160963613Y-85726725D01*
X148387932Y-91033600D02*
X147380890Y-92040642D01*
X160963613Y-85726725D02*
X159434075Y-85726725D01*
D23*
X127558800Y-90123000D02*
X122167200Y-90123000D01*
X122167200Y-90123000D02*
X121913200Y-89869000D01*
X121913200Y-89869000D02*
X120913200Y-89869000D01*
D22*
X159576953Y-86233645D02*
X158692011Y-87118587D01*
X147530011Y-92400653D02*
X131412788Y-92400652D01*
X148537053Y-91393611D02*
X147530011Y-92400653D01*
X160609185Y-86533644D02*
X160309186Y-86233645D01*
X130235136Y-91223000D02*
X127957664Y-91223000D01*
X158692011Y-87118587D02*
X158692011Y-89205501D01*
X158692011Y-89205501D02*
X156503901Y-91393611D01*
X156503901Y-91393611D02*
X148537053Y-91393611D01*
X160309186Y-86233645D02*
X159576953Y-86233645D01*
X131412788Y-92400652D02*
X130235136Y-91223000D01*
X127957664Y-91223000D02*
X127533400Y-91223000D01*
D23*
X127533400Y-91223000D02*
X122167200Y-91223000D01*
X122167200Y-91223000D02*
X121913200Y-90969000D01*
X121913200Y-90969000D02*
X120913200Y-90969000D01*
D22*
X121848600Y-94243600D02*
X120938600Y-94243600D01*
X130119927Y-93120673D02*
X128997000Y-94243600D01*
X147828252Y-93120673D02*
X130119927Y-93120673D01*
X148835294Y-92113633D02*
X147828252Y-93120673D01*
X159961477Y-88954299D02*
X156802143Y-92113633D01*
X156802143Y-92113633D02*
X148835294Y-92113633D01*
X159961477Y-87031870D02*
X159961477Y-88954299D01*
X128997000Y-94243600D02*
X121848600Y-94243600D01*
X131263666Y-92760662D02*
X131247226Y-92744222D01*
X147679131Y-92760663D02*
X131263666Y-92760662D01*
X131247226Y-92744222D02*
X128235778Y-92744222D01*
X159317021Y-87528400D02*
X159317021Y-89089623D01*
X127807999Y-93172001D02*
X127508000Y-93472000D01*
X156653022Y-91753622D02*
X148686174Y-91753622D01*
X159317021Y-89089623D02*
X156653022Y-91753622D01*
X128235778Y-92744222D02*
X127807999Y-93172001D01*
X148686174Y-91753622D02*
X147679131Y-92760663D01*
D23*
X127508000Y-93472000D02*
X126079600Y-92043600D01*
X126079600Y-92043600D02*
X120938600Y-92043600D01*
X169702201Y-80497401D02*
X170002200Y-80797400D01*
X92243600Y-91287600D02*
X103218670Y-80312530D01*
X164917399Y-80141801D02*
X169346601Y-80141801D01*
X151210002Y-82278813D02*
X151894303Y-81594512D01*
X151894303Y-81594512D02*
X163464688Y-81594512D01*
X138400920Y-80312530D02*
X140367202Y-82278813D01*
X103218670Y-80312530D02*
X138400920Y-80312530D01*
X90993600Y-91287600D02*
X92243600Y-91287600D01*
X140367202Y-82278813D02*
X151210002Y-82278813D01*
X169346601Y-80141801D02*
X169702201Y-80497401D01*
X163464688Y-81594512D02*
X164917399Y-80141801D01*
X90993600Y-82687600D02*
X92243600Y-82687600D01*
X92243600Y-82687600D02*
X95068681Y-79862519D01*
X95068681Y-79862519D02*
X138587320Y-79862519D01*
X138587320Y-79862519D02*
X140553602Y-81828802D01*
X140553602Y-81828802D02*
X150998202Y-81828802D01*
X150998202Y-81828802D02*
X151682503Y-81144501D01*
X151682503Y-81144501D02*
X163254299Y-81144501D01*
X163254299Y-81144501D02*
X164998400Y-79400400D01*
X164998400Y-79400400D02*
X170357800Y-79400400D01*
X170357800Y-79400400D02*
X171454801Y-80497401D01*
X171454801Y-80497401D02*
X171754800Y-80797400D01*
D22*
X171267998Y-87045800D02*
X174345600Y-83968198D01*
X174345600Y-83968198D02*
X174345600Y-83000000D01*
X171267998Y-87045800D02*
X174345600Y-90123402D01*
X174345600Y-90123402D02*
X174345600Y-91600000D01*
X171227998Y-85415481D02*
X171227998Y-84991217D01*
X171227998Y-84991217D02*
X169236781Y-83000000D01*
X169236781Y-83000000D02*
X169029800Y-83000000D01*
X169029800Y-83000000D02*
X165495600Y-83000000D01*
X171069000Y-87909400D02*
X171069000Y-89941400D01*
X171069000Y-89941400D02*
X169773600Y-91236800D01*
X169773600Y-91236800D02*
X168681400Y-91236800D01*
X168681400Y-91236800D02*
X167436800Y-92481400D01*
X167436800Y-92481400D02*
X166377000Y-92481400D01*
X166377000Y-92481400D02*
X165495600Y-91600000D01*
X119938806Y-89154000D02*
X115539805Y-93553001D01*
X131711031Y-91680631D02*
X129184400Y-89154000D01*
X149860000Y-89560400D02*
X149352000Y-89560400D01*
X129184400Y-89154000D02*
X119938806Y-89154000D01*
X149352000Y-89560400D02*
X147231769Y-91680631D01*
X115539805Y-93553001D02*
X115239806Y-93853000D01*
X147231769Y-91680631D02*
X131711031Y-91680631D01*
X153844535Y-93241704D02*
X154150901Y-93548070D01*
X149234618Y-93241704D02*
X153844535Y-93241704D01*
X154150901Y-93548070D02*
X154450900Y-93848069D01*
X120373599Y-98873599D02*
X131759533Y-98873599D01*
X118500000Y-97000000D02*
X120373599Y-98873599D01*
X93991400Y-97000000D02*
X118500000Y-97000000D01*
X88824600Y-102166800D02*
X93991400Y-97000000D01*
X131759533Y-98873599D02*
X136432427Y-94200705D01*
X136432427Y-94200705D02*
X148275616Y-94200705D01*
X148275616Y-94200705D02*
X149234618Y-93241704D01*
X147517293Y-98728746D02*
X147423460Y-98822579D01*
X114191842Y-101565780D02*
X108896357Y-101565779D01*
X105327761Y-104968112D02*
X104903497Y-104968112D01*
X108896357Y-101565779D02*
X105494024Y-104968112D01*
X131943473Y-103115178D02*
X115741242Y-103115178D01*
X147423460Y-98822579D02*
X136236072Y-98822579D01*
X148819648Y-98728746D02*
X147517293Y-98728746D01*
X149377400Y-98170994D02*
X148819648Y-98728746D01*
X105494024Y-104968112D02*
X105327761Y-104968112D01*
X136236072Y-98822579D02*
X131943473Y-103115178D01*
X115741242Y-103115178D02*
X114191842Y-101565780D01*
X107829978Y-108991400D02*
X109603567Y-107217811D01*
X111733540Y-107217810D02*
X112597139Y-106354211D01*
X137512321Y-103509411D02*
X148967722Y-103509410D01*
X109603567Y-107217811D02*
X111733540Y-107217810D01*
X112597139Y-106354211D02*
X134667522Y-106354210D01*
X148967722Y-103509410D02*
X152313052Y-100164080D01*
X134667522Y-106354210D02*
X137512321Y-103509411D01*
X152313052Y-98620451D02*
X152313052Y-98196187D01*
X152313052Y-100164080D02*
X152313052Y-98620451D01*
X134543525Y-96662515D02*
X146321809Y-96662515D01*
X153358234Y-93656228D02*
X153658233Y-93956227D01*
X106725999Y-99191801D02*
X114872652Y-99191801D01*
X148423609Y-94560715D02*
X148424738Y-94560715D01*
X153303721Y-93601715D02*
X153358234Y-93656228D01*
X146321809Y-96662515D02*
X148423609Y-94560715D01*
X130250928Y-100955112D02*
X134543525Y-96662515D01*
X106426000Y-99491800D02*
X106725999Y-99191801D01*
X148424738Y-94560715D02*
X149383739Y-93601715D01*
X149383739Y-93601715D02*
X153303721Y-93601715D01*
X114872652Y-99191801D02*
X116635963Y-100955112D01*
X116635963Y-100955112D02*
X130250928Y-100955112D01*
X149265966Y-104229430D02*
X153473063Y-100022333D01*
X112300453Y-111277400D02*
X116503620Y-107074233D01*
X137810565Y-104229431D02*
X149265966Y-104229430D01*
X153473063Y-100022333D02*
X153473063Y-98533229D01*
X116503620Y-107074233D02*
X134965763Y-107074233D01*
X108229400Y-112268000D02*
X109220000Y-111277400D01*
X134965763Y-107074233D02*
X137810565Y-104229431D01*
X109220000Y-111277400D02*
X112300453Y-111277400D01*
X153473063Y-98533229D02*
X153473063Y-98108965D01*
X152854807Y-97932368D02*
X152854807Y-97508104D01*
X152893053Y-97970614D02*
X152854807Y-97932368D01*
X152893053Y-100093211D02*
X152893053Y-97970614D01*
X137661444Y-103869420D02*
X149116844Y-103869420D01*
X109099222Y-110780001D02*
X111404401Y-110780001D01*
X149116844Y-103869420D02*
X152893053Y-100093211D01*
X115470180Y-106714222D02*
X134816644Y-106714220D01*
X108072869Y-109753648D02*
X109099222Y-110780001D01*
X111404401Y-110780001D02*
X115470180Y-106714222D01*
X134816644Y-106714220D02*
X137661444Y-103869420D01*
X155929017Y-83560194D02*
X154377342Y-85111869D01*
X154377342Y-85111869D02*
X154377342Y-85787435D01*
X154377342Y-85787435D02*
X154377342Y-86211699D01*
X160769300Y-80142100D02*
X160769300Y-80519491D01*
X160446700Y-79819500D02*
X160769300Y-80142100D01*
X159524700Y-79819500D02*
X160446700Y-79819500D01*
D26*
G36*
X92405737Y-81450661D02*
X92245490Y-81341169D01*
X91993600Y-81290160D01*
X89993600Y-81290160D01*
X89758283Y-81334438D01*
X89542159Y-81473510D01*
X89397169Y-81685710D01*
X89346160Y-81937600D01*
X89346160Y-83437600D01*
X89390438Y-83672917D01*
X89529510Y-83889041D01*
X89741710Y-84034031D01*
X89993600Y-84085040D01*
X91993600Y-84085040D01*
X92228917Y-84040762D01*
X92445041Y-83901690D01*
X92590031Y-83689490D01*
X92641040Y-83437600D01*
X92641040Y-83318520D01*
X92781001Y-83225001D01*
X95383483Y-80622519D01*
X101833879Y-80622519D01*
X92405737Y-90050661D01*
X92245490Y-89941169D01*
X91993600Y-89890160D01*
X89993600Y-89890160D01*
X89758283Y-89934438D01*
X89542159Y-90073510D01*
X89397169Y-90285710D01*
X89346160Y-90537600D01*
X89346160Y-92037600D01*
X89390438Y-92272917D01*
X89529510Y-92489041D01*
X89741710Y-92634031D01*
X89993600Y-92685040D01*
X91993600Y-92685040D01*
X92228917Y-92640762D01*
X92445041Y-92501690D01*
X92590031Y-92289490D01*
X92641040Y-92037600D01*
X92641040Y-91918520D01*
X92781001Y-91825001D01*
X99516002Y-85090000D01*
X107815536Y-85090000D01*
X107921200Y-85621207D01*
X108222104Y-86071542D01*
X108672439Y-86372446D01*
X109203646Y-86478110D01*
X110796354Y-86478110D01*
X111327561Y-86372446D01*
X111777896Y-86071542D01*
X112078800Y-85621207D01*
X112184464Y-85090000D01*
X112078800Y-84558793D01*
X111777896Y-84108458D01*
X111327561Y-83807554D01*
X111324694Y-83806984D01*
X111402919Y-83783846D01*
X111825724Y-83441740D01*
X112085427Y-82963875D01*
X112099783Y-82891674D01*
X111977162Y-82677000D01*
X110127000Y-82677000D01*
X110127000Y-82697000D01*
X109873000Y-82697000D01*
X109873000Y-82677000D01*
X108022838Y-82677000D01*
X107900217Y-82891674D01*
X107914573Y-82963875D01*
X108174276Y-83441740D01*
X108597081Y-83783846D01*
X108675306Y-83806984D01*
X108672439Y-83807554D01*
X108222104Y-84108458D01*
X107921200Y-84558793D01*
X107815536Y-85090000D01*
X99516002Y-85090000D01*
X102397676Y-82208326D01*
X107900217Y-82208326D01*
X108022838Y-82423000D01*
X109873000Y-82423000D01*
X109873000Y-81161890D01*
X110127000Y-81161890D01*
X110127000Y-82423000D01*
X111977162Y-82423000D01*
X112099783Y-82208326D01*
X112085427Y-82136125D01*
X111825724Y-81658260D01*
X111402919Y-81316154D01*
X110881380Y-81161890D01*
X110127000Y-81161890D01*
X109873000Y-81161890D01*
X109118620Y-81161890D01*
X108597081Y-81316154D01*
X108174276Y-81658260D01*
X107914573Y-82136125D01*
X107900217Y-82208326D01*
X102397676Y-82208326D01*
X103533472Y-81072530D01*
X123635900Y-81072530D01*
X123635900Y-81285540D01*
X124643900Y-81285540D01*
X124643900Y-81265540D01*
X124897900Y-81265540D01*
X124897900Y-81285540D01*
X125905900Y-81285540D01*
X125905900Y-81072530D01*
X130635900Y-81072530D01*
X130635900Y-81285540D01*
X131643900Y-81285540D01*
X131643900Y-81265540D01*
X131897900Y-81265540D01*
X131897900Y-81285540D01*
X132905900Y-81285540D01*
X132905900Y-81072530D01*
X138086118Y-81072530D01*
X139829800Y-82816214D01*
X139963577Y-82905600D01*
X140076363Y-82980961D01*
X140367202Y-83038813D01*
X149917052Y-83038813D01*
X149917008Y-83088990D01*
X150059053Y-83432766D01*
X150321843Y-83696015D01*
X150665371Y-83838661D01*
X151037337Y-83838985D01*
X151381113Y-83696940D01*
X151504888Y-83573381D01*
X151550053Y-83564397D01*
X151782015Y-83409404D01*
X152476897Y-82714523D01*
X155527265Y-82714523D01*
X155400074Y-82767077D01*
X155136825Y-83029867D01*
X154994179Y-83373395D01*
X154994083Y-83483966D01*
X153871761Y-84606288D01*
X153716768Y-84838250D01*
X153662342Y-85111869D01*
X153662342Y-85481204D01*
X153575570Y-85445173D01*
X153400678Y-85445021D01*
X153362391Y-85419438D01*
X153088772Y-85365012D01*
X135982375Y-85365012D01*
X132791568Y-82174206D01*
X132905900Y-81814540D01*
X132905900Y-81539540D01*
X131897900Y-81539540D01*
X131897900Y-81559540D01*
X131643900Y-81559540D01*
X131643900Y-81539540D01*
X130635900Y-81539540D01*
X130635900Y-81814540D01*
X130653717Y-81870589D01*
X130334314Y-81870589D01*
X129792744Y-81329020D01*
X129560782Y-81174027D01*
X129287163Y-81119601D01*
X126643401Y-81119601D01*
X126389017Y-81170201D01*
X126369782Y-81174027D01*
X126137819Y-81329020D01*
X125905900Y-81560939D01*
X125905900Y-81539540D01*
X124897900Y-81539540D01*
X124897900Y-81559540D01*
X124643900Y-81559540D01*
X124643900Y-81539540D01*
X123635900Y-81539540D01*
X123635900Y-81785000D01*
X116500000Y-81785000D01*
X116250638Y-81834601D01*
X116226381Y-81839426D01*
X115994419Y-81994419D01*
X104215838Y-93773000D01*
X96111384Y-93773000D01*
X96034327Y-93695808D01*
X95690799Y-93553162D01*
X95318833Y-93552838D01*
X94975057Y-93694883D01*
X94711808Y-93957673D01*
X94569162Y-94301201D01*
X94568838Y-94673167D01*
X94649778Y-94869057D01*
X94569162Y-95063201D01*
X94568838Y-95435167D01*
X94710883Y-95778943D01*
X94973673Y-96042192D01*
X95317201Y-96184838D01*
X95689167Y-96185162D01*
X96032943Y-96043117D01*
X96111196Y-95965000D01*
X104202562Y-95965000D01*
X104476181Y-95910574D01*
X104708143Y-95755581D01*
X114004374Y-86459350D01*
X116703600Y-86459350D01*
X116703600Y-87024909D01*
X116800273Y-87258298D01*
X116978901Y-87436927D01*
X117212290Y-87533600D01*
X118052850Y-87533600D01*
X118211600Y-87374850D01*
X118211600Y-86300600D01*
X118465600Y-86300600D01*
X118465600Y-87374850D01*
X118624350Y-87533600D01*
X119464910Y-87533600D01*
X119698299Y-87436927D01*
X119876927Y-87258298D01*
X119973600Y-87024909D01*
X119973600Y-86459350D01*
X125003600Y-86459350D01*
X125003600Y-87024909D01*
X125100273Y-87258298D01*
X125278901Y-87436927D01*
X125512290Y-87533600D01*
X126352850Y-87533600D01*
X126511600Y-87374850D01*
X126511600Y-86300600D01*
X125162350Y-86300600D01*
X125003600Y-86459350D01*
X119973600Y-86459350D01*
X119814850Y-86300600D01*
X118465600Y-86300600D01*
X118211600Y-86300600D01*
X116862350Y-86300600D01*
X116703600Y-86459350D01*
X114004374Y-86459350D01*
X115141433Y-85322291D01*
X116703600Y-85322291D01*
X116703600Y-85887850D01*
X116862350Y-86046600D01*
X118211600Y-86046600D01*
X118211600Y-84972350D01*
X118465600Y-84972350D01*
X118465600Y-86046600D01*
X119814850Y-86046600D01*
X119973600Y-85887850D01*
X119973600Y-85322291D01*
X119876927Y-85088902D01*
X119698299Y-84910273D01*
X119464910Y-84813600D01*
X118624350Y-84813600D01*
X118465600Y-84972350D01*
X118211600Y-84972350D01*
X118052850Y-84813600D01*
X117212290Y-84813600D01*
X116978901Y-84910273D01*
X116800273Y-85088902D01*
X116703600Y-85322291D01*
X115141433Y-85322291D01*
X116748724Y-83715000D01*
X124600574Y-83715000D01*
X124551632Y-83814602D01*
X124678166Y-83985540D01*
X125643900Y-83985540D01*
X125643900Y-83965540D01*
X125897900Y-83965540D01*
X125897900Y-83985540D01*
X126863634Y-83985540D01*
X126990168Y-83814602D01*
X126806452Y-83440719D01*
X126644561Y-83297166D01*
X127072115Y-82869612D01*
X127560673Y-82869612D01*
X127560406Y-83176344D01*
X127702451Y-83520120D01*
X127965241Y-83783369D01*
X128308769Y-83926015D01*
X128394453Y-83926090D01*
X128524163Y-84012759D01*
X128815002Y-84070611D01*
X130917900Y-84070611D01*
X130917900Y-84239540D01*
X130897900Y-84239540D01*
X130897900Y-84259540D01*
X130643900Y-84259540D01*
X130643900Y-84239540D01*
X129678166Y-84239540D01*
X129551632Y-84410478D01*
X129735348Y-84784361D01*
X129866649Y-84900790D01*
X129590576Y-84900790D01*
X129558440Y-84868598D01*
X129214912Y-84725952D01*
X128842946Y-84725628D01*
X128499170Y-84867673D01*
X128235921Y-85130463D01*
X128215006Y-85180832D01*
X128176927Y-85088902D01*
X127998299Y-84910273D01*
X127764910Y-84813600D01*
X126924350Y-84813600D01*
X126765602Y-84972348D01*
X126765602Y-84820584D01*
X126806452Y-84784361D01*
X126990168Y-84410478D01*
X126863634Y-84239540D01*
X125897900Y-84239540D01*
X125897900Y-84259540D01*
X125643900Y-84259540D01*
X125643900Y-84239540D01*
X124678166Y-84239540D01*
X124551632Y-84410478D01*
X124735348Y-84784361D01*
X125059851Y-85072108D01*
X125102372Y-85086803D01*
X125100273Y-85088902D01*
X125003600Y-85322291D01*
X125003600Y-85887850D01*
X125162350Y-86046600D01*
X126511600Y-86046600D01*
X126511600Y-86026600D01*
X126765600Y-86026600D01*
X126765600Y-86046600D01*
X126785600Y-86046600D01*
X126785600Y-86300600D01*
X126765600Y-86300600D01*
X126765600Y-87374850D01*
X126924350Y-87533600D01*
X127764910Y-87533600D01*
X127998299Y-87436927D01*
X128176927Y-87258298D01*
X128273600Y-87024909D01*
X128273600Y-86459350D01*
X128114852Y-86300602D01*
X128273600Y-86300602D01*
X128273600Y-86228404D01*
X128497786Y-86452982D01*
X128841314Y-86595628D01*
X129213280Y-86595952D01*
X129557056Y-86453907D01*
X129590231Y-86420790D01*
X131909824Y-86420790D01*
X131907162Y-86427201D01*
X131906838Y-86799167D01*
X132048883Y-87142943D01*
X132311673Y-87406192D01*
X132577644Y-87516633D01*
X132440057Y-87573483D01*
X132176808Y-87836273D01*
X132034162Y-88179801D01*
X132033838Y-88551767D01*
X132175883Y-88895543D01*
X132438673Y-89158792D01*
X132782201Y-89301438D01*
X133154167Y-89301762D01*
X133497943Y-89159717D01*
X133531118Y-89126600D01*
X134304330Y-89126600D01*
X134412963Y-89235233D01*
X134659525Y-89399980D01*
X134950364Y-89457832D01*
X138576098Y-89457832D01*
X138535163Y-89474746D01*
X138145056Y-89864173D01*
X137933671Y-90373244D01*
X137933190Y-90924458D01*
X137950202Y-90965631D01*
X132007193Y-90965631D01*
X129689981Y-88648419D01*
X129458019Y-88493426D01*
X129184400Y-88439000D01*
X119938806Y-88439000D01*
X119665187Y-88493426D01*
X119506202Y-88599657D01*
X119433225Y-88648419D01*
X115163711Y-92917933D01*
X115054639Y-92917838D01*
X114710863Y-93059883D01*
X114447614Y-93322673D01*
X114304968Y-93666201D01*
X114304644Y-94038167D01*
X114446689Y-94381943D01*
X114709479Y-94645192D01*
X115053007Y-94787838D01*
X115424973Y-94788162D01*
X115768749Y-94646117D01*
X116031998Y-94383327D01*
X116174644Y-94039799D01*
X116174740Y-93929228D01*
X119541160Y-90562808D01*
X119541160Y-91343600D01*
X119570421Y-91499107D01*
X119541160Y-91643600D01*
X119541160Y-92206851D01*
X119296433Y-92206638D01*
X118952657Y-92348683D01*
X118689408Y-92611473D01*
X118546762Y-92955001D01*
X118546438Y-93326967D01*
X118688483Y-93670743D01*
X118951273Y-93933992D01*
X119294801Y-94076638D01*
X119541160Y-94076853D01*
X119541160Y-94643600D01*
X119567519Y-94783687D01*
X119553600Y-94817291D01*
X119553600Y-95057850D01*
X119712350Y-95216600D01*
X119902418Y-95216600D01*
X119936710Y-95240031D01*
X120188600Y-95291040D01*
X121688600Y-95291040D01*
X121923917Y-95246762D01*
X121970790Y-95216600D01*
X122164850Y-95216600D01*
X122323600Y-95057850D01*
X122323600Y-94958600D01*
X127981838Y-94958600D01*
X127431905Y-95508533D01*
X127322833Y-95508438D01*
X126979057Y-95650483D01*
X126945882Y-95683600D01*
X122323600Y-95683600D01*
X122323600Y-95629350D01*
X122164850Y-95470600D01*
X121974782Y-95470600D01*
X121940490Y-95447169D01*
X121688600Y-95396160D01*
X120188600Y-95396160D01*
X119953283Y-95440438D01*
X119906410Y-95470600D01*
X119712350Y-95470600D01*
X119553600Y-95629350D01*
X119553600Y-95869909D01*
X119568869Y-95906771D01*
X119541160Y-96043600D01*
X119541160Y-96843600D01*
X119570421Y-96999107D01*
X119560291Y-97049129D01*
X119005581Y-96494419D01*
X118773619Y-96339426D01*
X118500000Y-96285000D01*
X93991400Y-96285000D01*
X93717781Y-96339426D01*
X93634064Y-96395364D01*
X93485819Y-96494418D01*
X89178949Y-100801289D01*
X89103700Y-100770043D01*
X88547939Y-100769558D01*
X88034297Y-100981790D01*
X87640971Y-101374430D01*
X87427843Y-101887700D01*
X87427358Y-102443461D01*
X87639590Y-102957103D01*
X88032230Y-103350429D01*
X88545500Y-103563557D01*
X89101261Y-103564042D01*
X89614903Y-103351810D01*
X90008229Y-102959170D01*
X90221357Y-102445900D01*
X90221842Y-101890139D01*
X90189850Y-101812712D01*
X94287563Y-97715000D01*
X118203838Y-97715000D01*
X119052438Y-98563600D01*
X118624350Y-98563600D01*
X118465600Y-98722350D01*
X118465600Y-99796600D01*
X119814850Y-99796600D01*
X119973600Y-99637850D01*
X119973600Y-99449728D01*
X120099980Y-99534173D01*
X120373599Y-99588599D01*
X125003600Y-99588599D01*
X125003600Y-99637850D01*
X125162350Y-99796600D01*
X126511600Y-99796600D01*
X126511600Y-99776600D01*
X126765600Y-99776600D01*
X126765600Y-99796600D01*
X128114850Y-99796600D01*
X128273600Y-99637850D01*
X128273600Y-99588599D01*
X130606279Y-99588599D01*
X129954766Y-100240112D01*
X128273600Y-100240112D01*
X128273600Y-100209350D01*
X128114850Y-100050600D01*
X126765600Y-100050600D01*
X126765600Y-100070600D01*
X126511600Y-100070600D01*
X126511600Y-100050600D01*
X125162350Y-100050600D01*
X125003600Y-100209350D01*
X125003600Y-100240112D01*
X119973600Y-100240112D01*
X119973600Y-100209350D01*
X119814850Y-100050600D01*
X118465600Y-100050600D01*
X118465600Y-100070600D01*
X118211600Y-100070600D01*
X118211600Y-100050600D01*
X116862350Y-100050600D01*
X116802482Y-100110468D01*
X115764305Y-99072291D01*
X116703600Y-99072291D01*
X116703600Y-99637850D01*
X116862350Y-99796600D01*
X118211600Y-99796600D01*
X118211600Y-98722350D01*
X118052850Y-98563600D01*
X117212290Y-98563600D01*
X116978901Y-98660273D01*
X116800273Y-98838902D01*
X116703600Y-99072291D01*
X115764305Y-99072291D01*
X115378233Y-98686220D01*
X115146271Y-98531227D01*
X114872652Y-98476801D01*
X106725999Y-98476801D01*
X106452380Y-98531227D01*
X106414124Y-98556789D01*
X106240833Y-98556638D01*
X105897057Y-98698683D01*
X105633808Y-98961473D01*
X105491162Y-99305001D01*
X105491037Y-99447977D01*
X95820601Y-99447977D01*
X95546982Y-99502403D01*
X95339787Y-99640847D01*
X95315020Y-99657396D01*
X86006817Y-108965599D01*
X85851824Y-109197561D01*
X85797398Y-109471180D01*
X85797398Y-116258016D01*
X85720206Y-116335073D01*
X85577560Y-116678601D01*
X85577236Y-117050567D01*
X85719281Y-117394343D01*
X85772000Y-117447154D01*
X85772000Y-127637216D01*
X85694808Y-127714273D01*
X85552162Y-128057801D01*
X85551838Y-128429767D01*
X85693883Y-128773543D01*
X85956673Y-129036792D01*
X86300201Y-129179438D01*
X86672167Y-129179762D01*
X87015943Y-129037717D01*
X87118200Y-128935638D01*
X87118200Y-131225038D01*
X86664905Y-131678333D01*
X86555833Y-131678238D01*
X86212057Y-131820283D01*
X85948808Y-132083073D01*
X85806162Y-132426601D01*
X85805838Y-132798567D01*
X85947883Y-133142343D01*
X86210673Y-133405592D01*
X86554201Y-133548238D01*
X86926167Y-133548562D01*
X87269943Y-133406517D01*
X87533192Y-133143727D01*
X87675838Y-132800199D01*
X87675934Y-132689628D01*
X88338781Y-132026781D01*
X88493774Y-131794819D01*
X88499791Y-131764569D01*
X88548200Y-131521200D01*
X88548200Y-109719362D01*
X93055644Y-105211919D01*
X93239590Y-105657103D01*
X93632230Y-106050429D01*
X93859954Y-106144988D01*
X93139612Y-106144988D01*
X92876993Y-106197226D01*
X92865993Y-106199414D01*
X92634030Y-106354407D01*
X90832819Y-108155619D01*
X90677826Y-108387581D01*
X90623400Y-108661200D01*
X90623400Y-111904864D01*
X90677826Y-112178483D01*
X90832819Y-112410445D01*
X95681930Y-117259557D01*
X95708201Y-117391627D01*
X95708201Y-121188813D01*
X95762627Y-121462432D01*
X95917620Y-121694394D01*
X96059000Y-121835774D01*
X96059000Y-127662616D01*
X95981808Y-127739673D01*
X95839162Y-128083201D01*
X95838838Y-128455167D01*
X95980883Y-128798943D01*
X96243673Y-129062192D01*
X96587201Y-129204838D01*
X96959167Y-129205162D01*
X97302943Y-129063117D01*
X97566192Y-128800327D01*
X97708838Y-128456799D01*
X97709162Y-128084833D01*
X97567117Y-127741057D01*
X97489000Y-127662804D01*
X97489000Y-122118528D01*
X97527957Y-122118562D01*
X97871733Y-121976517D01*
X98134982Y-121713727D01*
X98277628Y-121370199D01*
X98277952Y-120998233D01*
X98135907Y-120654457D01*
X98057790Y-120576204D01*
X98057790Y-113924640D01*
X98190606Y-113791824D01*
X98227603Y-113881143D01*
X98469787Y-113950608D01*
X99270395Y-113150000D01*
X99256253Y-113135858D01*
X99435858Y-112956253D01*
X99450000Y-112970395D01*
X99464143Y-112956253D01*
X99643748Y-113135858D01*
X99629605Y-113150000D01*
X99643748Y-113164143D01*
X99464143Y-113343748D01*
X99450000Y-113329605D01*
X98649392Y-114130213D01*
X98718857Y-114372397D01*
X99242302Y-114559144D01*
X99797368Y-114531362D01*
X100181143Y-114372397D01*
X100226401Y-114214609D01*
X100226401Y-128353036D01*
X96894505Y-131684933D01*
X96785433Y-131684838D01*
X96441657Y-131826883D01*
X96178408Y-132089673D01*
X96035762Y-132433201D01*
X96035438Y-132805167D01*
X96177483Y-133148943D01*
X96440273Y-133412192D01*
X96783801Y-133554838D01*
X97155767Y-133555162D01*
X97499543Y-133413117D01*
X97762792Y-133150327D01*
X97905438Y-132806799D01*
X97905534Y-132696228D01*
X101446983Y-129154780D01*
X101560429Y-128984996D01*
X101601975Y-128922818D01*
X101656401Y-128649199D01*
X101656401Y-117050567D01*
X105922638Y-117050567D01*
X106064683Y-117394343D01*
X106142800Y-117472596D01*
X106142800Y-127713375D01*
X106091012Y-127765073D01*
X105948366Y-128108601D01*
X105948042Y-128480567D01*
X106090087Y-128824343D01*
X106352877Y-129087592D01*
X106696405Y-129230238D01*
X107068371Y-129230562D01*
X107412147Y-129088517D01*
X107675396Y-128825727D01*
X107818042Y-128482199D01*
X107818366Y-128110233D01*
X107676321Y-127766457D01*
X107572800Y-127662755D01*
X107572800Y-122118316D01*
X107855767Y-122118562D01*
X108199543Y-121976517D01*
X108462792Y-121713727D01*
X108605438Y-121370199D01*
X108605762Y-120998233D01*
X108463717Y-120654457D01*
X108385600Y-120576204D01*
X108385600Y-114311564D01*
X108784612Y-113912552D01*
X108784612Y-129878626D01*
X106984905Y-131678333D01*
X106875833Y-131678238D01*
X106532057Y-131820283D01*
X106268808Y-132083073D01*
X106126162Y-132426601D01*
X106125838Y-132798567D01*
X106267883Y-133142343D01*
X106530673Y-133405592D01*
X106874201Y-133548238D01*
X107246167Y-133548562D01*
X107589943Y-133406517D01*
X107853192Y-133143727D01*
X107995838Y-132800199D01*
X107995934Y-132689628D01*
X110005193Y-130680369D01*
X110160186Y-130448407D01*
X110195116Y-130272800D01*
X110214612Y-130174788D01*
X110214612Y-114523384D01*
X110270900Y-114546757D01*
X110826661Y-114547242D01*
X111340303Y-114335010D01*
X111733629Y-113942370D01*
X111946757Y-113429100D01*
X111947242Y-112873339D01*
X111902652Y-112765422D01*
X112800253Y-112765422D01*
X113073872Y-112710996D01*
X113305834Y-112556003D01*
X116315500Y-109546337D01*
X116315500Y-116219982D01*
X116200208Y-116335073D01*
X116057562Y-116678601D01*
X116057238Y-117050567D01*
X116199283Y-117394343D01*
X116277400Y-117472596D01*
X116277400Y-127713329D01*
X116251010Y-127739673D01*
X116108364Y-128083201D01*
X116108040Y-128455167D01*
X116250085Y-128798943D01*
X116512875Y-129062192D01*
X116856403Y-129204838D01*
X117228369Y-129205162D01*
X117547400Y-129073341D01*
X117547400Y-131301238D01*
X117170305Y-131678333D01*
X117061233Y-131678238D01*
X116717457Y-131820283D01*
X116454208Y-132083073D01*
X116311562Y-132426601D01*
X116311238Y-132798567D01*
X116453283Y-133142343D01*
X116716073Y-133405592D01*
X117059601Y-133548238D01*
X117431567Y-133548562D01*
X117775343Y-133406517D01*
X118038592Y-133143727D01*
X118181238Y-132800199D01*
X118181334Y-132689628D01*
X118767981Y-132102981D01*
X118781283Y-132083073D01*
X118922974Y-131871019D01*
X118977400Y-131597400D01*
X118977400Y-111268762D01*
X120296868Y-109949295D01*
X126334907Y-109949295D01*
X126334850Y-110014765D01*
X126462800Y-110324428D01*
X126462800Y-116283416D01*
X126385608Y-116360473D01*
X126242962Y-116704001D01*
X126242638Y-117075967D01*
X126384683Y-117419743D01*
X126462800Y-117497996D01*
X126462800Y-127687969D01*
X126411008Y-127739671D01*
X126268362Y-128083199D01*
X126268038Y-128455165D01*
X126410083Y-128798941D01*
X126672873Y-129062190D01*
X127016401Y-129204836D01*
X127388367Y-129205160D01*
X127732143Y-129063115D01*
X127732800Y-129062459D01*
X127732800Y-131199638D01*
X127254105Y-131678333D01*
X127145033Y-131678238D01*
X126801257Y-131820283D01*
X126538008Y-132083073D01*
X126395362Y-132426601D01*
X126395038Y-132798567D01*
X126537083Y-133142343D01*
X126799873Y-133405592D01*
X127143401Y-133548238D01*
X127515367Y-133548562D01*
X127859143Y-133406517D01*
X128122392Y-133143727D01*
X128265038Y-132800199D01*
X128265134Y-132689628D01*
X128953381Y-132001381D01*
X129108374Y-131769419D01*
X129121394Y-131703962D01*
X129162800Y-131495800D01*
X129162800Y-111802162D01*
X129250532Y-111714431D01*
X136131885Y-111714431D01*
X136405504Y-111660005D01*
X136597400Y-111531783D01*
X136597400Y-116258016D01*
X136520208Y-116335073D01*
X136377562Y-116678601D01*
X136377238Y-117050567D01*
X136519283Y-117394343D01*
X136597400Y-117472596D01*
X136597400Y-127713327D01*
X136571008Y-127739673D01*
X136428362Y-128083201D01*
X136428038Y-128455167D01*
X136570083Y-128798943D01*
X136832873Y-129062192D01*
X137176401Y-129204838D01*
X137548367Y-129205162D01*
X137892143Y-129063117D01*
X137892800Y-129062461D01*
X137892800Y-131199638D01*
X137414105Y-131678333D01*
X137305033Y-131678238D01*
X136961257Y-131820283D01*
X136698008Y-132083073D01*
X136555362Y-132426601D01*
X136555038Y-132798567D01*
X136697083Y-133142343D01*
X136959873Y-133405592D01*
X137303401Y-133548238D01*
X137675367Y-133548562D01*
X138019143Y-133406517D01*
X138282392Y-133143727D01*
X138425038Y-132800199D01*
X138425134Y-132689628D01*
X139113381Y-132001381D01*
X139268374Y-131769419D01*
X139281394Y-131703962D01*
X139322800Y-131495800D01*
X139322800Y-111675213D01*
X141013441Y-109984573D01*
X146654894Y-109984573D01*
X146654850Y-110034750D01*
X146757400Y-110282941D01*
X146757400Y-116258016D01*
X146680208Y-116335073D01*
X146537562Y-116678601D01*
X146537238Y-117050567D01*
X146679283Y-117394343D01*
X146757400Y-117472596D01*
X146757400Y-127687971D01*
X146705608Y-127739673D01*
X146562962Y-128083201D01*
X146562638Y-128455167D01*
X146704683Y-128798943D01*
X146967473Y-129062192D01*
X147311001Y-129204838D01*
X147682967Y-129205162D01*
X148026743Y-129063117D01*
X148289992Y-128800327D01*
X148432638Y-128456799D01*
X148432962Y-128084833D01*
X148290917Y-127741057D01*
X148187400Y-127637359D01*
X148187400Y-122143862D01*
X148302557Y-122143962D01*
X148646333Y-122001917D01*
X148909582Y-121739127D01*
X149052228Y-121395599D01*
X149052552Y-121023633D01*
X148910507Y-120679857D01*
X148832390Y-120601604D01*
X148832390Y-114356440D01*
X151659600Y-111529230D01*
X151659600Y-127592837D01*
X147574105Y-131678333D01*
X147465033Y-131678238D01*
X147121257Y-131820283D01*
X146858008Y-132083073D01*
X146715362Y-132426601D01*
X146715038Y-132798567D01*
X146857083Y-133142343D01*
X147119873Y-133405592D01*
X147463401Y-133548238D01*
X147835367Y-133548562D01*
X148179143Y-133406517D01*
X148442392Y-133143727D01*
X148585038Y-132800199D01*
X148585134Y-132689628D01*
X152880182Y-128394581D01*
X153035175Y-128162618D01*
X153089600Y-127889000D01*
X153089600Y-110608362D01*
X163319581Y-100378381D01*
X163474574Y-100146419D01*
X163482531Y-100106414D01*
X163529000Y-99872800D01*
X163529000Y-99845184D01*
X163606192Y-99768127D01*
X163748838Y-99424599D01*
X163749162Y-99052633D01*
X163631070Y-98766827D01*
X163747995Y-98485241D01*
X163748319Y-98113275D01*
X163606274Y-97769499D01*
X163343484Y-97506250D01*
X163277618Y-97478900D01*
X163277618Y-97310068D01*
X163354810Y-97233011D01*
X163497456Y-96889483D01*
X163497780Y-96517517D01*
X163355735Y-96173741D01*
X163092945Y-95910492D01*
X162749417Y-95767846D01*
X162377451Y-95767522D01*
X162033675Y-95909567D01*
X162023678Y-95919547D01*
X161745271Y-95803942D01*
X161373305Y-95803618D01*
X161029529Y-95945663D01*
X160934918Y-96040109D01*
X160773873Y-95973237D01*
X160401907Y-95972913D01*
X160237111Y-96041005D01*
X160167600Y-95971373D01*
X159824072Y-95828727D01*
X159452106Y-95828403D01*
X159108330Y-95970448D01*
X159013805Y-96064808D01*
X158944834Y-96064748D01*
X158920729Y-96006409D01*
X158657939Y-95743160D01*
X158314411Y-95600514D01*
X157942445Y-95600190D01*
X157732263Y-95687035D01*
X157418518Y-95556756D01*
X157046552Y-95556432D01*
X156811168Y-95653691D01*
X156523799Y-95534364D01*
X156151833Y-95534040D01*
X155808057Y-95676085D01*
X155544808Y-95938875D01*
X155402162Y-96282403D01*
X155402041Y-96421486D01*
X155153749Y-96318386D01*
X154781783Y-96318062D01*
X154438007Y-96460107D01*
X154341709Y-96556237D01*
X154173299Y-96486307D01*
X153801333Y-96485983D01*
X153457557Y-96628028D01*
X153374107Y-96711333D01*
X153041606Y-96573266D01*
X152669640Y-96572942D01*
X152561725Y-96617532D01*
X152219840Y-96475568D01*
X151847874Y-96475244D01*
X151504098Y-96617289D01*
X151240849Y-96880079D01*
X151098203Y-97223607D01*
X151098051Y-97398499D01*
X151072468Y-97436786D01*
X151018042Y-97710405D01*
X151018042Y-99938795D01*
X148522438Y-102434400D01*
X137363200Y-102434400D01*
X137089581Y-102488826D01*
X137011908Y-102540726D01*
X136857619Y-102643818D01*
X134222238Y-105279200D01*
X112448018Y-105279200D01*
X112174399Y-105333626D01*
X112081272Y-105395852D01*
X111942437Y-105488619D01*
X111288256Y-106142800D01*
X111079431Y-106142800D01*
X111340303Y-106035010D01*
X111733629Y-105642370D01*
X111946757Y-105129100D01*
X111947242Y-104573339D01*
X111735010Y-104059697D01*
X111342370Y-103666371D01*
X110829100Y-103453243D01*
X110273339Y-103452758D01*
X109759697Y-103664990D01*
X109366371Y-104057630D01*
X109153243Y-104570900D01*
X109152758Y-105126661D01*
X109364990Y-105640303D01*
X109757630Y-106033629D01*
X110020543Y-106142800D01*
X109016800Y-106142800D01*
X108743181Y-106197226D01*
X108511219Y-106352219D01*
X106352219Y-108511219D01*
X106197226Y-108743181D01*
X106142800Y-109016800D01*
X106142800Y-116258016D01*
X106065608Y-116335073D01*
X105922962Y-116678601D01*
X105922638Y-117050567D01*
X101656401Y-117050567D01*
X101656401Y-110835161D01*
X109490762Y-103000800D01*
X113597438Y-103000800D01*
X114937418Y-104340781D01*
X115169381Y-104495774D01*
X115443000Y-104550200D01*
X132496276Y-104550200D01*
X132769895Y-104495774D01*
X133001857Y-104340781D01*
X137085038Y-100257600D01*
X146236438Y-100257600D01*
X146334133Y-100355295D01*
X146334038Y-100464367D01*
X146476083Y-100808143D01*
X146738873Y-101071392D01*
X147082401Y-101214038D01*
X147454367Y-101214362D01*
X147798143Y-101072317D01*
X148061392Y-100809527D01*
X148204038Y-100465999D01*
X148204322Y-100139926D01*
X148296439Y-100101864D01*
X148559688Y-99839074D01*
X148702334Y-99495546D01*
X148702379Y-99443746D01*
X148819648Y-99443746D01*
X149093267Y-99389320D01*
X149325229Y-99234327D01*
X149453495Y-99106061D01*
X149562567Y-99106156D01*
X149906343Y-98964111D01*
X150169592Y-98701321D01*
X150312238Y-98357793D01*
X150312562Y-97985827D01*
X150170517Y-97642051D01*
X150113554Y-97584988D01*
X150277322Y-97421506D01*
X150419968Y-97077978D01*
X150420292Y-96706012D01*
X150391557Y-96636467D01*
X150771980Y-96256045D01*
X150926973Y-96024082D01*
X150935949Y-95978954D01*
X151058590Y-95856527D01*
X151127488Y-95690603D01*
X151257487Y-95744584D01*
X151629453Y-95744908D01*
X151973229Y-95602863D01*
X152236478Y-95340073D01*
X152379124Y-94996545D01*
X152379448Y-94624579D01*
X152252241Y-94316715D01*
X152795512Y-94316715D01*
X152865116Y-94485170D01*
X153127906Y-94748419D01*
X153471434Y-94891065D01*
X153843400Y-94891389D01*
X154185220Y-94750152D01*
X154264101Y-94782907D01*
X154636067Y-94783231D01*
X154979843Y-94641186D01*
X155243092Y-94378396D01*
X155385738Y-94034868D01*
X155386062Y-93662902D01*
X155340112Y-93551695D01*
X160673944Y-93551695D01*
X160947563Y-93497269D01*
X161179525Y-93342276D01*
X162486001Y-92035800D01*
X162595073Y-92035895D01*
X162938849Y-91893850D01*
X163202098Y-91631060D01*
X163344744Y-91287532D01*
X163345068Y-90915566D01*
X163203023Y-90571790D01*
X162940233Y-90308541D01*
X162596705Y-90165895D01*
X162224739Y-90165571D01*
X161953674Y-90277573D01*
X161704567Y-90174134D01*
X161332601Y-90173810D01*
X160988825Y-90315855D01*
X160725576Y-90578645D01*
X160582930Y-90922173D01*
X160582834Y-91032744D01*
X159856934Y-91758644D01*
X158168294Y-91758644D01*
X160467058Y-89459880D01*
X160507082Y-89399980D01*
X160622051Y-89227918D01*
X160676477Y-88954299D01*
X160676477Y-87639254D01*
X160753669Y-87562197D01*
X160792449Y-87468804D01*
X160794352Y-87468806D01*
X161138128Y-87326761D01*
X161189401Y-87275577D01*
X161189401Y-87939601D01*
X161243827Y-88213220D01*
X161269389Y-88251476D01*
X161269238Y-88424767D01*
X161411283Y-88768543D01*
X161674073Y-89031792D01*
X162017601Y-89174438D01*
X162389567Y-89174762D01*
X162733343Y-89032717D01*
X162996592Y-88769927D01*
X163139238Y-88426399D01*
X163139562Y-88054433D01*
X162997517Y-87710657D01*
X162734727Y-87447408D01*
X162619401Y-87399520D01*
X162619401Y-86169404D01*
X162799107Y-85989698D01*
X162908179Y-85989793D01*
X163251955Y-85847748D01*
X163346610Y-85753258D01*
X163247247Y-85992549D01*
X163246923Y-86364515D01*
X163388968Y-86708291D01*
X163651758Y-86971540D01*
X163995286Y-87114186D01*
X164367252Y-87114510D01*
X164711028Y-86972465D01*
X164974277Y-86709675D01*
X165116923Y-86366147D01*
X165117201Y-86046720D01*
X165609774Y-86046720D01*
X165578195Y-86122771D01*
X165577871Y-86494737D01*
X165719916Y-86838513D01*
X165982706Y-87101762D01*
X166132799Y-87164086D01*
X166132799Y-90202560D01*
X164495600Y-90202560D01*
X164260283Y-90246838D01*
X164044159Y-90385910D01*
X163899169Y-90598110D01*
X163848160Y-90850000D01*
X163848160Y-92350000D01*
X163892438Y-92585317D01*
X164031510Y-92801441D01*
X164243710Y-92946431D01*
X164495600Y-92997440D01*
X165887072Y-92997440D01*
X166103381Y-93141974D01*
X166299463Y-93180977D01*
X166209267Y-93398191D01*
X166208943Y-93770157D01*
X166350988Y-94113933D01*
X166613778Y-94377182D01*
X166957306Y-94519828D01*
X167003087Y-94519868D01*
X167003087Y-94850079D01*
X166750527Y-94849859D01*
X166406751Y-94991904D01*
X166143502Y-95254694D01*
X166000856Y-95598222D01*
X166000661Y-95822002D01*
X165831156Y-95991212D01*
X165725379Y-96245951D01*
X165552829Y-96317247D01*
X165469783Y-96400148D01*
X165116181Y-96399840D01*
X164772405Y-96541885D01*
X164509156Y-96804675D01*
X164366510Y-97148203D01*
X164366186Y-97520169D01*
X164508231Y-97863945D01*
X164771021Y-98127194D01*
X165009446Y-98226197D01*
X165009446Y-100552392D01*
X157607105Y-107954733D01*
X157498033Y-107954638D01*
X157154257Y-108096683D01*
X156891008Y-108359473D01*
X156748362Y-108703001D01*
X156748038Y-109074967D01*
X156890083Y-109418743D01*
X156968200Y-109496996D01*
X156968200Y-116308727D01*
X156941808Y-116335073D01*
X156799162Y-116678601D01*
X156798838Y-117050567D01*
X156940883Y-117394343D01*
X157019000Y-117472596D01*
X157019000Y-127662616D01*
X156941808Y-127739673D01*
X156799162Y-128083201D01*
X156798838Y-128455167D01*
X156940883Y-128798943D01*
X157203673Y-129062192D01*
X157547201Y-129204838D01*
X157919167Y-129205162D01*
X158262943Y-129063117D01*
X158526192Y-128800327D01*
X158668838Y-128456799D01*
X158669162Y-128084833D01*
X158527117Y-127741057D01*
X158449000Y-127662804D01*
X158449000Y-122118426D01*
X158604967Y-122118562D01*
X158720800Y-122070701D01*
X158720800Y-130691637D01*
X157708705Y-131703733D01*
X157599633Y-131703638D01*
X157255857Y-131845683D01*
X156992608Y-132108473D01*
X156849962Y-132452001D01*
X156849638Y-132823967D01*
X156991683Y-133167743D01*
X157254473Y-133430992D01*
X157598001Y-133573638D01*
X157969967Y-133573962D01*
X158313743Y-133431917D01*
X158576992Y-133169127D01*
X158719638Y-132825599D01*
X158719734Y-132715028D01*
X159941382Y-131493381D01*
X160054705Y-131323781D01*
X160096374Y-131261419D01*
X160150800Y-130987800D01*
X160150800Y-109342592D01*
X167003087Y-102490306D01*
X167003087Y-108258796D01*
X166925895Y-108335853D01*
X166783249Y-108679381D01*
X166782925Y-109051347D01*
X166924970Y-109395123D01*
X167003087Y-109473376D01*
X167003087Y-116316021D01*
X167009527Y-116348398D01*
X166882962Y-116653199D01*
X166882638Y-117025165D01*
X167024683Y-117368941D01*
X167128200Y-117472639D01*
X167128200Y-127662616D01*
X167051008Y-127739673D01*
X166908362Y-128083201D01*
X166908038Y-128455167D01*
X167050083Y-128798943D01*
X167312873Y-129062192D01*
X167656401Y-129204838D01*
X168028367Y-129205162D01*
X168372143Y-129063117D01*
X168609612Y-128826062D01*
X168609612Y-130962826D01*
X167868705Y-131703733D01*
X167759633Y-131703638D01*
X167415857Y-131845683D01*
X167152608Y-132108473D01*
X167009962Y-132452001D01*
X167009638Y-132823967D01*
X167151683Y-133167743D01*
X167414473Y-133430992D01*
X167758001Y-133573638D01*
X168129967Y-133573962D01*
X168473743Y-133431917D01*
X168736992Y-133169127D01*
X168879638Y-132825599D01*
X168879734Y-132715028D01*
X169830193Y-131764569D01*
X169985186Y-131532607D01*
X170039612Y-131258988D01*
X170039612Y-129205078D01*
X170136567Y-129205162D01*
X170480343Y-129063117D01*
X170743592Y-128800327D01*
X170886238Y-128456799D01*
X170886334Y-128346228D01*
X172122266Y-127110297D01*
X172277259Y-126878334D01*
X172331684Y-126604716D01*
X172331684Y-108103556D01*
X172408876Y-108026499D01*
X172551522Y-107682971D01*
X172551846Y-107311005D01*
X172409801Y-106967229D01*
X172147011Y-106703980D01*
X171803483Y-106561334D01*
X171431517Y-106561010D01*
X171087741Y-106703055D01*
X170953286Y-106837275D01*
X170680633Y-106837038D01*
X170336857Y-106979083D01*
X170073608Y-107241873D01*
X170031400Y-107343521D01*
X170031400Y-92352319D01*
X170101900Y-92182537D01*
X170102180Y-91860650D01*
X170279181Y-91742381D01*
X171574581Y-90446982D01*
X171729574Y-90215019D01*
X171736957Y-90177901D01*
X171784000Y-89941400D01*
X171784000Y-88572964D01*
X173413595Y-90202560D01*
X173345600Y-90202560D01*
X173110283Y-90246838D01*
X172894159Y-90385910D01*
X172749169Y-90598110D01*
X172698160Y-90850000D01*
X172698160Y-92350000D01*
X172742438Y-92585317D01*
X172881510Y-92801441D01*
X173093710Y-92946431D01*
X173345600Y-92997440D01*
X175345600Y-92997440D01*
X175580917Y-92953162D01*
X175797041Y-92814090D01*
X175820000Y-92780488D01*
X175820000Y-141945909D01*
X173695908Y-144070000D01*
X82844091Y-144070000D01*
X80720000Y-141945908D01*
X80720000Y-141051540D01*
X169464518Y-141051540D01*
X169887616Y-142075515D01*
X170670365Y-142859631D01*
X171693599Y-143284515D01*
X172801540Y-143285482D01*
X173825515Y-142862384D01*
X174609631Y-142079635D01*
X175034515Y-141056401D01*
X175035482Y-139948460D01*
X174612384Y-138924485D01*
X173829635Y-138140369D01*
X172806401Y-137715485D01*
X171698460Y-137714518D01*
X170674485Y-138137616D01*
X169890369Y-138920365D01*
X169465485Y-139943599D01*
X169464518Y-141051540D01*
X80720000Y-141051540D01*
X80720000Y-114147013D01*
X82523992Y-114147013D01*
X82593457Y-114389197D01*
X83116902Y-114575944D01*
X83671968Y-114548162D01*
X84055743Y-114389197D01*
X84125208Y-114147013D01*
X83324600Y-113346405D01*
X82523992Y-114147013D01*
X80720000Y-114147013D01*
X80720000Y-112959102D01*
X81915456Y-112959102D01*
X81943238Y-113514168D01*
X82102203Y-113897943D01*
X82344387Y-113967408D01*
X83144995Y-113166800D01*
X83504205Y-113166800D01*
X84304813Y-113967408D01*
X84546997Y-113897943D01*
X84733744Y-113374498D01*
X84705962Y-112819432D01*
X84546997Y-112435657D01*
X84304813Y-112366192D01*
X83504205Y-113166800D01*
X83144995Y-113166800D01*
X82344387Y-112366192D01*
X82102203Y-112435657D01*
X81915456Y-112959102D01*
X80720000Y-112959102D01*
X80720000Y-112186587D01*
X82523992Y-112186587D01*
X83324600Y-112987195D01*
X84125208Y-112186587D01*
X84055743Y-111944403D01*
X83532298Y-111757656D01*
X82977232Y-111785438D01*
X82593457Y-111944403D01*
X82523992Y-112186587D01*
X80720000Y-112186587D01*
X80720000Y-109439615D01*
X81189230Y-109439615D01*
X81513580Y-110224600D01*
X82113641Y-110825709D01*
X82898059Y-111151428D01*
X83747415Y-111152170D01*
X84532400Y-110827820D01*
X85133509Y-110227759D01*
X85459228Y-109443341D01*
X85459970Y-108593985D01*
X85135620Y-107809000D01*
X84535559Y-107207891D01*
X83751141Y-106882172D01*
X82901785Y-106881430D01*
X82116800Y-107205780D01*
X81515691Y-107805841D01*
X81189972Y-108590259D01*
X81189230Y-109439615D01*
X80720000Y-109439615D01*
X80720000Y-105143461D01*
X81927358Y-105143461D01*
X82139590Y-105657103D01*
X82532230Y-106050429D01*
X83045500Y-106263557D01*
X83601261Y-106264042D01*
X84114903Y-106051810D01*
X84508229Y-105659170D01*
X84721357Y-105145900D01*
X84721842Y-104590139D01*
X84509610Y-104076497D01*
X84116970Y-103683171D01*
X83603700Y-103470043D01*
X83047939Y-103469558D01*
X82534297Y-103681790D01*
X82140971Y-104074430D01*
X81927843Y-104587700D01*
X81927358Y-105143461D01*
X80720000Y-105143461D01*
X80720000Y-92512025D01*
X80783902Y-92575927D01*
X81017291Y-92672600D01*
X81857850Y-92672600D01*
X82016600Y-92513850D01*
X82016600Y-91414600D01*
X82270600Y-91414600D01*
X82270600Y-92513850D01*
X82429350Y-92672600D01*
X83269909Y-92672600D01*
X83503298Y-92575927D01*
X83681927Y-92397299D01*
X83778600Y-92163910D01*
X83778600Y-91573350D01*
X83619850Y-91414600D01*
X82270600Y-91414600D01*
X82016600Y-91414600D01*
X81996600Y-91414600D01*
X81996600Y-91160600D01*
X82016600Y-91160600D01*
X82016600Y-90061350D01*
X82270600Y-90061350D01*
X82270600Y-91160600D01*
X83619850Y-91160600D01*
X83778600Y-91001850D01*
X83778600Y-90411290D01*
X83681927Y-90177901D01*
X83503298Y-89999273D01*
X83269909Y-89902600D01*
X82429350Y-89902600D01*
X82270600Y-90061350D01*
X82016600Y-90061350D01*
X81857850Y-89902600D01*
X81017291Y-89902600D01*
X80783902Y-89999273D01*
X80720000Y-90063175D01*
X80720000Y-83912025D01*
X80783902Y-83975927D01*
X81017291Y-84072600D01*
X81857850Y-84072600D01*
X82016600Y-83913850D01*
X82016600Y-82814600D01*
X82270600Y-82814600D01*
X82270600Y-83913850D01*
X82429350Y-84072600D01*
X83269909Y-84072600D01*
X83503298Y-83975927D01*
X83681927Y-83797299D01*
X83778600Y-83563910D01*
X83778600Y-82973350D01*
X83619850Y-82814600D01*
X82270600Y-82814600D01*
X82016600Y-82814600D01*
X81996600Y-82814600D01*
X81996600Y-82560600D01*
X82016600Y-82560600D01*
X82016600Y-81461350D01*
X82270600Y-81461350D01*
X82270600Y-82560600D01*
X83619850Y-82560600D01*
X83778600Y-82401850D01*
X83778600Y-81811290D01*
X83681927Y-81577901D01*
X83503298Y-81399273D01*
X83269909Y-81302600D01*
X82429350Y-81302600D01*
X82270600Y-81461350D01*
X82016600Y-81461350D01*
X81857850Y-81302600D01*
X81017291Y-81302600D01*
X80973249Y-81320843D01*
X82844091Y-79450000D01*
X94406398Y-79450000D01*
X92405737Y-81450661D01*
X92405737Y-81450661D01*
G37*
X92405737Y-81450661D02*
X92245490Y-81341169D01*
X91993600Y-81290160D01*
X89993600Y-81290160D01*
X89758283Y-81334438D01*
X89542159Y-81473510D01*
X89397169Y-81685710D01*
X89346160Y-81937600D01*
X89346160Y-83437600D01*
X89390438Y-83672917D01*
X89529510Y-83889041D01*
X89741710Y-84034031D01*
X89993600Y-84085040D01*
X91993600Y-84085040D01*
X92228917Y-84040762D01*
X92445041Y-83901690D01*
X92590031Y-83689490D01*
X92641040Y-83437600D01*
X92641040Y-83318520D01*
X92781001Y-83225001D01*
X95383483Y-80622519D01*
X101833879Y-80622519D01*
X92405737Y-90050661D01*
X92245490Y-89941169D01*
X91993600Y-89890160D01*
X89993600Y-89890160D01*
X89758283Y-89934438D01*
X89542159Y-90073510D01*
X89397169Y-90285710D01*
X89346160Y-90537600D01*
X89346160Y-92037600D01*
X89390438Y-92272917D01*
X89529510Y-92489041D01*
X89741710Y-92634031D01*
X89993600Y-92685040D01*
X91993600Y-92685040D01*
X92228917Y-92640762D01*
X92445041Y-92501690D01*
X92590031Y-92289490D01*
X92641040Y-92037600D01*
X92641040Y-91918520D01*
X92781001Y-91825001D01*
X99516002Y-85090000D01*
X107815536Y-85090000D01*
X107921200Y-85621207D01*
X108222104Y-86071542D01*
X108672439Y-86372446D01*
X109203646Y-86478110D01*
X110796354Y-86478110D01*
X111327561Y-86372446D01*
X111777896Y-86071542D01*
X112078800Y-85621207D01*
X112184464Y-85090000D01*
X112078800Y-84558793D01*
X111777896Y-84108458D01*
X111327561Y-83807554D01*
X111324694Y-83806984D01*
X111402919Y-83783846D01*
X111825724Y-83441740D01*
X112085427Y-82963875D01*
X112099783Y-82891674D01*
X111977162Y-82677000D01*
X110127000Y-82677000D01*
X110127000Y-82697000D01*
X109873000Y-82697000D01*
X109873000Y-82677000D01*
X108022838Y-82677000D01*
X107900217Y-82891674D01*
X107914573Y-82963875D01*
X108174276Y-83441740D01*
X108597081Y-83783846D01*
X108675306Y-83806984D01*
X108672439Y-83807554D01*
X108222104Y-84108458D01*
X107921200Y-84558793D01*
X107815536Y-85090000D01*
X99516002Y-85090000D01*
X102397676Y-82208326D01*
X107900217Y-82208326D01*
X108022838Y-82423000D01*
X109873000Y-82423000D01*
X109873000Y-81161890D01*
X110127000Y-81161890D01*
X110127000Y-82423000D01*
X111977162Y-82423000D01*
X112099783Y-82208326D01*
X112085427Y-82136125D01*
X111825724Y-81658260D01*
X111402919Y-81316154D01*
X110881380Y-81161890D01*
X110127000Y-81161890D01*
X109873000Y-81161890D01*
X109118620Y-81161890D01*
X108597081Y-81316154D01*
X108174276Y-81658260D01*
X107914573Y-82136125D01*
X107900217Y-82208326D01*
X102397676Y-82208326D01*
X103533472Y-81072530D01*
X123635900Y-81072530D01*
X123635900Y-81285540D01*
X124643900Y-81285540D01*
X124643900Y-81265540D01*
X124897900Y-81265540D01*
X124897900Y-81285540D01*
X125905900Y-81285540D01*
X125905900Y-81072530D01*
X130635900Y-81072530D01*
X130635900Y-81285540D01*
X131643900Y-81285540D01*
X131643900Y-81265540D01*
X131897900Y-81265540D01*
X131897900Y-81285540D01*
X132905900Y-81285540D01*
X132905900Y-81072530D01*
X138086118Y-81072530D01*
X139829800Y-82816214D01*
X139963577Y-82905600D01*
X140076363Y-82980961D01*
X140367202Y-83038813D01*
X149917052Y-83038813D01*
X149917008Y-83088990D01*
X150059053Y-83432766D01*
X150321843Y-83696015D01*
X150665371Y-83838661D01*
X151037337Y-83838985D01*
X151381113Y-83696940D01*
X151504888Y-83573381D01*
X151550053Y-83564397D01*
X151782015Y-83409404D01*
X152476897Y-82714523D01*
X155527265Y-82714523D01*
X155400074Y-82767077D01*
X155136825Y-83029867D01*
X154994179Y-83373395D01*
X154994083Y-83483966D01*
X153871761Y-84606288D01*
X153716768Y-84838250D01*
X153662342Y-85111869D01*
X153662342Y-85481204D01*
X153575570Y-85445173D01*
X153400678Y-85445021D01*
X153362391Y-85419438D01*
X153088772Y-85365012D01*
X135982375Y-85365012D01*
X132791568Y-82174206D01*
X132905900Y-81814540D01*
X132905900Y-81539540D01*
X131897900Y-81539540D01*
X131897900Y-81559540D01*
X131643900Y-81559540D01*
X131643900Y-81539540D01*
X130635900Y-81539540D01*
X130635900Y-81814540D01*
X130653717Y-81870589D01*
X130334314Y-81870589D01*
X129792744Y-81329020D01*
X129560782Y-81174027D01*
X129287163Y-81119601D01*
X126643401Y-81119601D01*
X126389017Y-81170201D01*
X126369782Y-81174027D01*
X126137819Y-81329020D01*
X125905900Y-81560939D01*
X125905900Y-81539540D01*
X124897900Y-81539540D01*
X124897900Y-81559540D01*
X124643900Y-81559540D01*
X124643900Y-81539540D01*
X123635900Y-81539540D01*
X123635900Y-81785000D01*
X116500000Y-81785000D01*
X116250638Y-81834601D01*
X116226381Y-81839426D01*
X115994419Y-81994419D01*
X104215838Y-93773000D01*
X96111384Y-93773000D01*
X96034327Y-93695808D01*
X95690799Y-93553162D01*
X95318833Y-93552838D01*
X94975057Y-93694883D01*
X94711808Y-93957673D01*
X94569162Y-94301201D01*
X94568838Y-94673167D01*
X94649778Y-94869057D01*
X94569162Y-95063201D01*
X94568838Y-95435167D01*
X94710883Y-95778943D01*
X94973673Y-96042192D01*
X95317201Y-96184838D01*
X95689167Y-96185162D01*
X96032943Y-96043117D01*
X96111196Y-95965000D01*
X104202562Y-95965000D01*
X104476181Y-95910574D01*
X104708143Y-95755581D01*
X114004374Y-86459350D01*
X116703600Y-86459350D01*
X116703600Y-87024909D01*
X116800273Y-87258298D01*
X116978901Y-87436927D01*
X117212290Y-87533600D01*
X118052850Y-87533600D01*
X118211600Y-87374850D01*
X118211600Y-86300600D01*
X118465600Y-86300600D01*
X118465600Y-87374850D01*
X118624350Y-87533600D01*
X119464910Y-87533600D01*
X119698299Y-87436927D01*
X119876927Y-87258298D01*
X119973600Y-87024909D01*
X119973600Y-86459350D01*
X125003600Y-86459350D01*
X125003600Y-87024909D01*
X125100273Y-87258298D01*
X125278901Y-87436927D01*
X125512290Y-87533600D01*
X126352850Y-87533600D01*
X126511600Y-87374850D01*
X126511600Y-86300600D01*
X125162350Y-86300600D01*
X125003600Y-86459350D01*
X119973600Y-86459350D01*
X119814850Y-86300600D01*
X118465600Y-86300600D01*
X118211600Y-86300600D01*
X116862350Y-86300600D01*
X116703600Y-86459350D01*
X114004374Y-86459350D01*
X115141433Y-85322291D01*
X116703600Y-85322291D01*
X116703600Y-85887850D01*
X116862350Y-86046600D01*
X118211600Y-86046600D01*
X118211600Y-84972350D01*
X118465600Y-84972350D01*
X118465600Y-86046600D01*
X119814850Y-86046600D01*
X119973600Y-85887850D01*
X119973600Y-85322291D01*
X119876927Y-85088902D01*
X119698299Y-84910273D01*
X119464910Y-84813600D01*
X118624350Y-84813600D01*
X118465600Y-84972350D01*
X118211600Y-84972350D01*
X118052850Y-84813600D01*
X117212290Y-84813600D01*
X116978901Y-84910273D01*
X116800273Y-85088902D01*
X116703600Y-85322291D01*
X115141433Y-85322291D01*
X116748724Y-83715000D01*
X124600574Y-83715000D01*
X124551632Y-83814602D01*
X124678166Y-83985540D01*
X125643900Y-83985540D01*
X125643900Y-83965540D01*
X125897900Y-83965540D01*
X125897900Y-83985540D01*
X126863634Y-83985540D01*
X126990168Y-83814602D01*
X126806452Y-83440719D01*
X126644561Y-83297166D01*
X127072115Y-82869612D01*
X127560673Y-82869612D01*
X127560406Y-83176344D01*
X127702451Y-83520120D01*
X127965241Y-83783369D01*
X128308769Y-83926015D01*
X128394453Y-83926090D01*
X128524163Y-84012759D01*
X128815002Y-84070611D01*
X130917900Y-84070611D01*
X130917900Y-84239540D01*
X130897900Y-84239540D01*
X130897900Y-84259540D01*
X130643900Y-84259540D01*
X130643900Y-84239540D01*
X129678166Y-84239540D01*
X129551632Y-84410478D01*
X129735348Y-84784361D01*
X129866649Y-84900790D01*
X129590576Y-84900790D01*
X129558440Y-84868598D01*
X129214912Y-84725952D01*
X128842946Y-84725628D01*
X128499170Y-84867673D01*
X128235921Y-85130463D01*
X128215006Y-85180832D01*
X128176927Y-85088902D01*
X127998299Y-84910273D01*
X127764910Y-84813600D01*
X126924350Y-84813600D01*
X126765602Y-84972348D01*
X126765602Y-84820584D01*
X126806452Y-84784361D01*
X126990168Y-84410478D01*
X126863634Y-84239540D01*
X125897900Y-84239540D01*
X125897900Y-84259540D01*
X125643900Y-84259540D01*
X125643900Y-84239540D01*
X124678166Y-84239540D01*
X124551632Y-84410478D01*
X124735348Y-84784361D01*
X125059851Y-85072108D01*
X125102372Y-85086803D01*
X125100273Y-85088902D01*
X125003600Y-85322291D01*
X125003600Y-85887850D01*
X125162350Y-86046600D01*
X126511600Y-86046600D01*
X126511600Y-86026600D01*
X126765600Y-86026600D01*
X126765600Y-86046600D01*
X126785600Y-86046600D01*
X126785600Y-86300600D01*
X126765600Y-86300600D01*
X126765600Y-87374850D01*
X126924350Y-87533600D01*
X127764910Y-87533600D01*
X127998299Y-87436927D01*
X128176927Y-87258298D01*
X128273600Y-87024909D01*
X128273600Y-86459350D01*
X128114852Y-86300602D01*
X128273600Y-86300602D01*
X128273600Y-86228404D01*
X128497786Y-86452982D01*
X128841314Y-86595628D01*
X129213280Y-86595952D01*
X129557056Y-86453907D01*
X129590231Y-86420790D01*
X131909824Y-86420790D01*
X131907162Y-86427201D01*
X131906838Y-86799167D01*
X132048883Y-87142943D01*
X132311673Y-87406192D01*
X132577644Y-87516633D01*
X132440057Y-87573483D01*
X132176808Y-87836273D01*
X132034162Y-88179801D01*
X132033838Y-88551767D01*
X132175883Y-88895543D01*
X132438673Y-89158792D01*
X132782201Y-89301438D01*
X133154167Y-89301762D01*
X133497943Y-89159717D01*
X133531118Y-89126600D01*
X134304330Y-89126600D01*
X134412963Y-89235233D01*
X134659525Y-89399980D01*
X134950364Y-89457832D01*
X138576098Y-89457832D01*
X138535163Y-89474746D01*
X138145056Y-89864173D01*
X137933671Y-90373244D01*
X137933190Y-90924458D01*
X137950202Y-90965631D01*
X132007193Y-90965631D01*
X129689981Y-88648419D01*
X129458019Y-88493426D01*
X129184400Y-88439000D01*
X119938806Y-88439000D01*
X119665187Y-88493426D01*
X119506202Y-88599657D01*
X119433225Y-88648419D01*
X115163711Y-92917933D01*
X115054639Y-92917838D01*
X114710863Y-93059883D01*
X114447614Y-93322673D01*
X114304968Y-93666201D01*
X114304644Y-94038167D01*
X114446689Y-94381943D01*
X114709479Y-94645192D01*
X115053007Y-94787838D01*
X115424973Y-94788162D01*
X115768749Y-94646117D01*
X116031998Y-94383327D01*
X116174644Y-94039799D01*
X116174740Y-93929228D01*
X119541160Y-90562808D01*
X119541160Y-91343600D01*
X119570421Y-91499107D01*
X119541160Y-91643600D01*
X119541160Y-92206851D01*
X119296433Y-92206638D01*
X118952657Y-92348683D01*
X118689408Y-92611473D01*
X118546762Y-92955001D01*
X118546438Y-93326967D01*
X118688483Y-93670743D01*
X118951273Y-93933992D01*
X119294801Y-94076638D01*
X119541160Y-94076853D01*
X119541160Y-94643600D01*
X119567519Y-94783687D01*
X119553600Y-94817291D01*
X119553600Y-95057850D01*
X119712350Y-95216600D01*
X119902418Y-95216600D01*
X119936710Y-95240031D01*
X120188600Y-95291040D01*
X121688600Y-95291040D01*
X121923917Y-95246762D01*
X121970790Y-95216600D01*
X122164850Y-95216600D01*
X122323600Y-95057850D01*
X122323600Y-94958600D01*
X127981838Y-94958600D01*
X127431905Y-95508533D01*
X127322833Y-95508438D01*
X126979057Y-95650483D01*
X126945882Y-95683600D01*
X122323600Y-95683600D01*
X122323600Y-95629350D01*
X122164850Y-95470600D01*
X121974782Y-95470600D01*
X121940490Y-95447169D01*
X121688600Y-95396160D01*
X120188600Y-95396160D01*
X119953283Y-95440438D01*
X119906410Y-95470600D01*
X119712350Y-95470600D01*
X119553600Y-95629350D01*
X119553600Y-95869909D01*
X119568869Y-95906771D01*
X119541160Y-96043600D01*
X119541160Y-96843600D01*
X119570421Y-96999107D01*
X119560291Y-97049129D01*
X119005581Y-96494419D01*
X118773619Y-96339426D01*
X118500000Y-96285000D01*
X93991400Y-96285000D01*
X93717781Y-96339426D01*
X93634064Y-96395364D01*
X93485819Y-96494418D01*
X89178949Y-100801289D01*
X89103700Y-100770043D01*
X88547939Y-100769558D01*
X88034297Y-100981790D01*
X87640971Y-101374430D01*
X87427843Y-101887700D01*
X87427358Y-102443461D01*
X87639590Y-102957103D01*
X88032230Y-103350429D01*
X88545500Y-103563557D01*
X89101261Y-103564042D01*
X89614903Y-103351810D01*
X90008229Y-102959170D01*
X90221357Y-102445900D01*
X90221842Y-101890139D01*
X90189850Y-101812712D01*
X94287563Y-97715000D01*
X118203838Y-97715000D01*
X119052438Y-98563600D01*
X118624350Y-98563600D01*
X118465600Y-98722350D01*
X118465600Y-99796600D01*
X119814850Y-99796600D01*
X119973600Y-99637850D01*
X119973600Y-99449728D01*
X120099980Y-99534173D01*
X120373599Y-99588599D01*
X125003600Y-99588599D01*
X125003600Y-99637850D01*
X125162350Y-99796600D01*
X126511600Y-99796600D01*
X126511600Y-99776600D01*
X126765600Y-99776600D01*
X126765600Y-99796600D01*
X128114850Y-99796600D01*
X128273600Y-99637850D01*
X128273600Y-99588599D01*
X130606279Y-99588599D01*
X129954766Y-100240112D01*
X128273600Y-100240112D01*
X128273600Y-100209350D01*
X128114850Y-100050600D01*
X126765600Y-100050600D01*
X126765600Y-100070600D01*
X126511600Y-100070600D01*
X126511600Y-100050600D01*
X125162350Y-100050600D01*
X125003600Y-100209350D01*
X125003600Y-100240112D01*
X119973600Y-100240112D01*
X119973600Y-100209350D01*
X119814850Y-100050600D01*
X118465600Y-100050600D01*
X118465600Y-100070600D01*
X118211600Y-100070600D01*
X118211600Y-100050600D01*
X116862350Y-100050600D01*
X116802482Y-100110468D01*
X115764305Y-99072291D01*
X116703600Y-99072291D01*
X116703600Y-99637850D01*
X116862350Y-99796600D01*
X118211600Y-99796600D01*
X118211600Y-98722350D01*
X118052850Y-98563600D01*
X117212290Y-98563600D01*
X116978901Y-98660273D01*
X116800273Y-98838902D01*
X116703600Y-99072291D01*
X115764305Y-99072291D01*
X115378233Y-98686220D01*
X115146271Y-98531227D01*
X114872652Y-98476801D01*
X106725999Y-98476801D01*
X106452380Y-98531227D01*
X106414124Y-98556789D01*
X106240833Y-98556638D01*
X105897057Y-98698683D01*
X105633808Y-98961473D01*
X105491162Y-99305001D01*
X105491037Y-99447977D01*
X95820601Y-99447977D01*
X95546982Y-99502403D01*
X95339787Y-99640847D01*
X95315020Y-99657396D01*
X86006817Y-108965599D01*
X85851824Y-109197561D01*
X85797398Y-109471180D01*
X85797398Y-116258016D01*
X85720206Y-116335073D01*
X85577560Y-116678601D01*
X85577236Y-117050567D01*
X85719281Y-117394343D01*
X85772000Y-117447154D01*
X85772000Y-127637216D01*
X85694808Y-127714273D01*
X85552162Y-128057801D01*
X85551838Y-128429767D01*
X85693883Y-128773543D01*
X85956673Y-129036792D01*
X86300201Y-129179438D01*
X86672167Y-129179762D01*
X87015943Y-129037717D01*
X87118200Y-128935638D01*
X87118200Y-131225038D01*
X86664905Y-131678333D01*
X86555833Y-131678238D01*
X86212057Y-131820283D01*
X85948808Y-132083073D01*
X85806162Y-132426601D01*
X85805838Y-132798567D01*
X85947883Y-133142343D01*
X86210673Y-133405592D01*
X86554201Y-133548238D01*
X86926167Y-133548562D01*
X87269943Y-133406517D01*
X87533192Y-133143727D01*
X87675838Y-132800199D01*
X87675934Y-132689628D01*
X88338781Y-132026781D01*
X88493774Y-131794819D01*
X88499791Y-131764569D01*
X88548200Y-131521200D01*
X88548200Y-109719362D01*
X93055644Y-105211919D01*
X93239590Y-105657103D01*
X93632230Y-106050429D01*
X93859954Y-106144988D01*
X93139612Y-106144988D01*
X92876993Y-106197226D01*
X92865993Y-106199414D01*
X92634030Y-106354407D01*
X90832819Y-108155619D01*
X90677826Y-108387581D01*
X90623400Y-108661200D01*
X90623400Y-111904864D01*
X90677826Y-112178483D01*
X90832819Y-112410445D01*
X95681930Y-117259557D01*
X95708201Y-117391627D01*
X95708201Y-121188813D01*
X95762627Y-121462432D01*
X95917620Y-121694394D01*
X96059000Y-121835774D01*
X96059000Y-127662616D01*
X95981808Y-127739673D01*
X95839162Y-128083201D01*
X95838838Y-128455167D01*
X95980883Y-128798943D01*
X96243673Y-129062192D01*
X96587201Y-129204838D01*
X96959167Y-129205162D01*
X97302943Y-129063117D01*
X97566192Y-128800327D01*
X97708838Y-128456799D01*
X97709162Y-128084833D01*
X97567117Y-127741057D01*
X97489000Y-127662804D01*
X97489000Y-122118528D01*
X97527957Y-122118562D01*
X97871733Y-121976517D01*
X98134982Y-121713727D01*
X98277628Y-121370199D01*
X98277952Y-120998233D01*
X98135907Y-120654457D01*
X98057790Y-120576204D01*
X98057790Y-113924640D01*
X98190606Y-113791824D01*
X98227603Y-113881143D01*
X98469787Y-113950608D01*
X99270395Y-113150000D01*
X99256253Y-113135858D01*
X99435858Y-112956253D01*
X99450000Y-112970395D01*
X99464143Y-112956253D01*
X99643748Y-113135858D01*
X99629605Y-113150000D01*
X99643748Y-113164143D01*
X99464143Y-113343748D01*
X99450000Y-113329605D01*
X98649392Y-114130213D01*
X98718857Y-114372397D01*
X99242302Y-114559144D01*
X99797368Y-114531362D01*
X100181143Y-114372397D01*
X100226401Y-114214609D01*
X100226401Y-128353036D01*
X96894505Y-131684933D01*
X96785433Y-131684838D01*
X96441657Y-131826883D01*
X96178408Y-132089673D01*
X96035762Y-132433201D01*
X96035438Y-132805167D01*
X96177483Y-133148943D01*
X96440273Y-133412192D01*
X96783801Y-133554838D01*
X97155767Y-133555162D01*
X97499543Y-133413117D01*
X97762792Y-133150327D01*
X97905438Y-132806799D01*
X97905534Y-132696228D01*
X101446983Y-129154780D01*
X101560429Y-128984996D01*
X101601975Y-128922818D01*
X101656401Y-128649199D01*
X101656401Y-117050567D01*
X105922638Y-117050567D01*
X106064683Y-117394343D01*
X106142800Y-117472596D01*
X106142800Y-127713375D01*
X106091012Y-127765073D01*
X105948366Y-128108601D01*
X105948042Y-128480567D01*
X106090087Y-128824343D01*
X106352877Y-129087592D01*
X106696405Y-129230238D01*
X107068371Y-129230562D01*
X107412147Y-129088517D01*
X107675396Y-128825727D01*
X107818042Y-128482199D01*
X107818366Y-128110233D01*
X107676321Y-127766457D01*
X107572800Y-127662755D01*
X107572800Y-122118316D01*
X107855767Y-122118562D01*
X108199543Y-121976517D01*
X108462792Y-121713727D01*
X108605438Y-121370199D01*
X108605762Y-120998233D01*
X108463717Y-120654457D01*
X108385600Y-120576204D01*
X108385600Y-114311564D01*
X108784612Y-113912552D01*
X108784612Y-129878626D01*
X106984905Y-131678333D01*
X106875833Y-131678238D01*
X106532057Y-131820283D01*
X106268808Y-132083073D01*
X106126162Y-132426601D01*
X106125838Y-132798567D01*
X106267883Y-133142343D01*
X106530673Y-133405592D01*
X106874201Y-133548238D01*
X107246167Y-133548562D01*
X107589943Y-133406517D01*
X107853192Y-133143727D01*
X107995838Y-132800199D01*
X107995934Y-132689628D01*
X110005193Y-130680369D01*
X110160186Y-130448407D01*
X110195116Y-130272800D01*
X110214612Y-130174788D01*
X110214612Y-114523384D01*
X110270900Y-114546757D01*
X110826661Y-114547242D01*
X111340303Y-114335010D01*
X111733629Y-113942370D01*
X111946757Y-113429100D01*
X111947242Y-112873339D01*
X111902652Y-112765422D01*
X112800253Y-112765422D01*
X113073872Y-112710996D01*
X113305834Y-112556003D01*
X116315500Y-109546337D01*
X116315500Y-116219982D01*
X116200208Y-116335073D01*
X116057562Y-116678601D01*
X116057238Y-117050567D01*
X116199283Y-117394343D01*
X116277400Y-117472596D01*
X116277400Y-127713329D01*
X116251010Y-127739673D01*
X116108364Y-128083201D01*
X116108040Y-128455167D01*
X116250085Y-128798943D01*
X116512875Y-129062192D01*
X116856403Y-129204838D01*
X117228369Y-129205162D01*
X117547400Y-129073341D01*
X117547400Y-131301238D01*
X117170305Y-131678333D01*
X117061233Y-131678238D01*
X116717457Y-131820283D01*
X116454208Y-132083073D01*
X116311562Y-132426601D01*
X116311238Y-132798567D01*
X116453283Y-133142343D01*
X116716073Y-133405592D01*
X117059601Y-133548238D01*
X117431567Y-133548562D01*
X117775343Y-133406517D01*
X118038592Y-133143727D01*
X118181238Y-132800199D01*
X118181334Y-132689628D01*
X118767981Y-132102981D01*
X118781283Y-132083073D01*
X118922974Y-131871019D01*
X118977400Y-131597400D01*
X118977400Y-111268762D01*
X120296868Y-109949295D01*
X126334907Y-109949295D01*
X126334850Y-110014765D01*
X126462800Y-110324428D01*
X126462800Y-116283416D01*
X126385608Y-116360473D01*
X126242962Y-116704001D01*
X126242638Y-117075967D01*
X126384683Y-117419743D01*
X126462800Y-117497996D01*
X126462800Y-127687969D01*
X126411008Y-127739671D01*
X126268362Y-128083199D01*
X126268038Y-128455165D01*
X126410083Y-128798941D01*
X126672873Y-129062190D01*
X127016401Y-129204836D01*
X127388367Y-129205160D01*
X127732143Y-129063115D01*
X127732800Y-129062459D01*
X127732800Y-131199638D01*
X127254105Y-131678333D01*
X127145033Y-131678238D01*
X126801257Y-131820283D01*
X126538008Y-132083073D01*
X126395362Y-132426601D01*
X126395038Y-132798567D01*
X126537083Y-133142343D01*
X126799873Y-133405592D01*
X127143401Y-133548238D01*
X127515367Y-133548562D01*
X127859143Y-133406517D01*
X128122392Y-133143727D01*
X128265038Y-132800199D01*
X128265134Y-132689628D01*
X128953381Y-132001381D01*
X129108374Y-131769419D01*
X129121394Y-131703962D01*
X129162800Y-131495800D01*
X129162800Y-111802162D01*
X129250532Y-111714431D01*
X136131885Y-111714431D01*
X136405504Y-111660005D01*
X136597400Y-111531783D01*
X136597400Y-116258016D01*
X136520208Y-116335073D01*
X136377562Y-116678601D01*
X136377238Y-117050567D01*
X136519283Y-117394343D01*
X136597400Y-117472596D01*
X136597400Y-127713327D01*
X136571008Y-127739673D01*
X136428362Y-128083201D01*
X136428038Y-128455167D01*
X136570083Y-128798943D01*
X136832873Y-129062192D01*
X137176401Y-129204838D01*
X137548367Y-129205162D01*
X137892143Y-129063117D01*
X137892800Y-129062461D01*
X137892800Y-131199638D01*
X137414105Y-131678333D01*
X137305033Y-131678238D01*
X136961257Y-131820283D01*
X136698008Y-132083073D01*
X136555362Y-132426601D01*
X136555038Y-132798567D01*
X136697083Y-133142343D01*
X136959873Y-133405592D01*
X137303401Y-133548238D01*
X137675367Y-133548562D01*
X138019143Y-133406517D01*
X138282392Y-133143727D01*
X138425038Y-132800199D01*
X138425134Y-132689628D01*
X139113381Y-132001381D01*
X139268374Y-131769419D01*
X139281394Y-131703962D01*
X139322800Y-131495800D01*
X139322800Y-111675213D01*
X141013441Y-109984573D01*
X146654894Y-109984573D01*
X146654850Y-110034750D01*
X146757400Y-110282941D01*
X146757400Y-116258016D01*
X146680208Y-116335073D01*
X146537562Y-116678601D01*
X146537238Y-117050567D01*
X146679283Y-117394343D01*
X146757400Y-117472596D01*
X146757400Y-127687971D01*
X146705608Y-127739673D01*
X146562962Y-128083201D01*
X146562638Y-128455167D01*
X146704683Y-128798943D01*
X146967473Y-129062192D01*
X147311001Y-129204838D01*
X147682967Y-129205162D01*
X148026743Y-129063117D01*
X148289992Y-128800327D01*
X148432638Y-128456799D01*
X148432962Y-128084833D01*
X148290917Y-127741057D01*
X148187400Y-127637359D01*
X148187400Y-122143862D01*
X148302557Y-122143962D01*
X148646333Y-122001917D01*
X148909582Y-121739127D01*
X149052228Y-121395599D01*
X149052552Y-121023633D01*
X148910507Y-120679857D01*
X148832390Y-120601604D01*
X148832390Y-114356440D01*
X151659600Y-111529230D01*
X151659600Y-127592837D01*
X147574105Y-131678333D01*
X147465033Y-131678238D01*
X147121257Y-131820283D01*
X146858008Y-132083073D01*
X146715362Y-132426601D01*
X146715038Y-132798567D01*
X146857083Y-133142343D01*
X147119873Y-133405592D01*
X147463401Y-133548238D01*
X147835367Y-133548562D01*
X148179143Y-133406517D01*
X148442392Y-133143727D01*
X148585038Y-132800199D01*
X148585134Y-132689628D01*
X152880182Y-128394581D01*
X153035175Y-128162618D01*
X153089600Y-127889000D01*
X153089600Y-110608362D01*
X163319581Y-100378381D01*
X163474574Y-100146419D01*
X163482531Y-100106414D01*
X163529000Y-99872800D01*
X163529000Y-99845184D01*
X163606192Y-99768127D01*
X163748838Y-99424599D01*
X163749162Y-99052633D01*
X163631070Y-98766827D01*
X163747995Y-98485241D01*
X163748319Y-98113275D01*
X163606274Y-97769499D01*
X163343484Y-97506250D01*
X163277618Y-97478900D01*
X163277618Y-97310068D01*
X163354810Y-97233011D01*
X163497456Y-96889483D01*
X163497780Y-96517517D01*
X163355735Y-96173741D01*
X163092945Y-95910492D01*
X162749417Y-95767846D01*
X162377451Y-95767522D01*
X162033675Y-95909567D01*
X162023678Y-95919547D01*
X161745271Y-95803942D01*
X161373305Y-95803618D01*
X161029529Y-95945663D01*
X160934918Y-96040109D01*
X160773873Y-95973237D01*
X160401907Y-95972913D01*
X160237111Y-96041005D01*
X160167600Y-95971373D01*
X159824072Y-95828727D01*
X159452106Y-95828403D01*
X159108330Y-95970448D01*
X159013805Y-96064808D01*
X158944834Y-96064748D01*
X158920729Y-96006409D01*
X158657939Y-95743160D01*
X158314411Y-95600514D01*
X157942445Y-95600190D01*
X157732263Y-95687035D01*
X157418518Y-95556756D01*
X157046552Y-95556432D01*
X156811168Y-95653691D01*
X156523799Y-95534364D01*
X156151833Y-95534040D01*
X155808057Y-95676085D01*
X155544808Y-95938875D01*
X155402162Y-96282403D01*
X155402041Y-96421486D01*
X155153749Y-96318386D01*
X154781783Y-96318062D01*
X154438007Y-96460107D01*
X154341709Y-96556237D01*
X154173299Y-96486307D01*
X153801333Y-96485983D01*
X153457557Y-96628028D01*
X153374107Y-96711333D01*
X153041606Y-96573266D01*
X152669640Y-96572942D01*
X152561725Y-96617532D01*
X152219840Y-96475568D01*
X151847874Y-96475244D01*
X151504098Y-96617289D01*
X151240849Y-96880079D01*
X151098203Y-97223607D01*
X151098051Y-97398499D01*
X151072468Y-97436786D01*
X151018042Y-97710405D01*
X151018042Y-99938795D01*
X148522438Y-102434400D01*
X137363200Y-102434400D01*
X137089581Y-102488826D01*
X137011908Y-102540726D01*
X136857619Y-102643818D01*
X134222238Y-105279200D01*
X112448018Y-105279200D01*
X112174399Y-105333626D01*
X112081272Y-105395852D01*
X111942437Y-105488619D01*
X111288256Y-106142800D01*
X111079431Y-106142800D01*
X111340303Y-106035010D01*
X111733629Y-105642370D01*
X111946757Y-105129100D01*
X111947242Y-104573339D01*
X111735010Y-104059697D01*
X111342370Y-103666371D01*
X110829100Y-103453243D01*
X110273339Y-103452758D01*
X109759697Y-103664990D01*
X109366371Y-104057630D01*
X109153243Y-104570900D01*
X109152758Y-105126661D01*
X109364990Y-105640303D01*
X109757630Y-106033629D01*
X110020543Y-106142800D01*
X109016800Y-106142800D01*
X108743181Y-106197226D01*
X108511219Y-106352219D01*
X106352219Y-108511219D01*
X106197226Y-108743181D01*
X106142800Y-109016800D01*
X106142800Y-116258016D01*
X106065608Y-116335073D01*
X105922962Y-116678601D01*
X105922638Y-117050567D01*
X101656401Y-117050567D01*
X101656401Y-110835161D01*
X109490762Y-103000800D01*
X113597438Y-103000800D01*
X114937418Y-104340781D01*
X115169381Y-104495774D01*
X115443000Y-104550200D01*
X132496276Y-104550200D01*
X132769895Y-104495774D01*
X133001857Y-104340781D01*
X137085038Y-100257600D01*
X146236438Y-100257600D01*
X146334133Y-100355295D01*
X146334038Y-100464367D01*
X146476083Y-100808143D01*
X146738873Y-101071392D01*
X147082401Y-101214038D01*
X147454367Y-101214362D01*
X147798143Y-101072317D01*
X148061392Y-100809527D01*
X148204038Y-100465999D01*
X148204322Y-100139926D01*
X148296439Y-100101864D01*
X148559688Y-99839074D01*
X148702334Y-99495546D01*
X148702379Y-99443746D01*
X148819648Y-99443746D01*
X149093267Y-99389320D01*
X149325229Y-99234327D01*
X149453495Y-99106061D01*
X149562567Y-99106156D01*
X149906343Y-98964111D01*
X150169592Y-98701321D01*
X150312238Y-98357793D01*
X150312562Y-97985827D01*
X150170517Y-97642051D01*
X150113554Y-97584988D01*
X150277322Y-97421506D01*
X150419968Y-97077978D01*
X150420292Y-96706012D01*
X150391557Y-96636467D01*
X150771980Y-96256045D01*
X150926973Y-96024082D01*
X150935949Y-95978954D01*
X151058590Y-95856527D01*
X151127488Y-95690603D01*
X151257487Y-95744584D01*
X151629453Y-95744908D01*
X151973229Y-95602863D01*
X152236478Y-95340073D01*
X152379124Y-94996545D01*
X152379448Y-94624579D01*
X152252241Y-94316715D01*
X152795512Y-94316715D01*
X152865116Y-94485170D01*
X153127906Y-94748419D01*
X153471434Y-94891065D01*
X153843400Y-94891389D01*
X154185220Y-94750152D01*
X154264101Y-94782907D01*
X154636067Y-94783231D01*
X154979843Y-94641186D01*
X155243092Y-94378396D01*
X155385738Y-94034868D01*
X155386062Y-93662902D01*
X155340112Y-93551695D01*
X160673944Y-93551695D01*
X160947563Y-93497269D01*
X161179525Y-93342276D01*
X162486001Y-92035800D01*
X162595073Y-92035895D01*
X162938849Y-91893850D01*
X163202098Y-91631060D01*
X163344744Y-91287532D01*
X163345068Y-90915566D01*
X163203023Y-90571790D01*
X162940233Y-90308541D01*
X162596705Y-90165895D01*
X162224739Y-90165571D01*
X161953674Y-90277573D01*
X161704567Y-90174134D01*
X161332601Y-90173810D01*
X160988825Y-90315855D01*
X160725576Y-90578645D01*
X160582930Y-90922173D01*
X160582834Y-91032744D01*
X159856934Y-91758644D01*
X158168294Y-91758644D01*
X160467058Y-89459880D01*
X160507082Y-89399980D01*
X160622051Y-89227918D01*
X160676477Y-88954299D01*
X160676477Y-87639254D01*
X160753669Y-87562197D01*
X160792449Y-87468804D01*
X160794352Y-87468806D01*
X161138128Y-87326761D01*
X161189401Y-87275577D01*
X161189401Y-87939601D01*
X161243827Y-88213220D01*
X161269389Y-88251476D01*
X161269238Y-88424767D01*
X161411283Y-88768543D01*
X161674073Y-89031792D01*
X162017601Y-89174438D01*
X162389567Y-89174762D01*
X162733343Y-89032717D01*
X162996592Y-88769927D01*
X163139238Y-88426399D01*
X163139562Y-88054433D01*
X162997517Y-87710657D01*
X162734727Y-87447408D01*
X162619401Y-87399520D01*
X162619401Y-86169404D01*
X162799107Y-85989698D01*
X162908179Y-85989793D01*
X163251955Y-85847748D01*
X163346610Y-85753258D01*
X163247247Y-85992549D01*
X163246923Y-86364515D01*
X163388968Y-86708291D01*
X163651758Y-86971540D01*
X163995286Y-87114186D01*
X164367252Y-87114510D01*
X164711028Y-86972465D01*
X164974277Y-86709675D01*
X165116923Y-86366147D01*
X165117201Y-86046720D01*
X165609774Y-86046720D01*
X165578195Y-86122771D01*
X165577871Y-86494737D01*
X165719916Y-86838513D01*
X165982706Y-87101762D01*
X166132799Y-87164086D01*
X166132799Y-90202560D01*
X164495600Y-90202560D01*
X164260283Y-90246838D01*
X164044159Y-90385910D01*
X163899169Y-90598110D01*
X163848160Y-90850000D01*
X163848160Y-92350000D01*
X163892438Y-92585317D01*
X164031510Y-92801441D01*
X164243710Y-92946431D01*
X164495600Y-92997440D01*
X165887072Y-92997440D01*
X166103381Y-93141974D01*
X166299463Y-93180977D01*
X166209267Y-93398191D01*
X166208943Y-93770157D01*
X166350988Y-94113933D01*
X166613778Y-94377182D01*
X166957306Y-94519828D01*
X167003087Y-94519868D01*
X167003087Y-94850079D01*
X166750527Y-94849859D01*
X166406751Y-94991904D01*
X166143502Y-95254694D01*
X166000856Y-95598222D01*
X166000661Y-95822002D01*
X165831156Y-95991212D01*
X165725379Y-96245951D01*
X165552829Y-96317247D01*
X165469783Y-96400148D01*
X165116181Y-96399840D01*
X164772405Y-96541885D01*
X164509156Y-96804675D01*
X164366510Y-97148203D01*
X164366186Y-97520169D01*
X164508231Y-97863945D01*
X164771021Y-98127194D01*
X165009446Y-98226197D01*
X165009446Y-100552392D01*
X157607105Y-107954733D01*
X157498033Y-107954638D01*
X157154257Y-108096683D01*
X156891008Y-108359473D01*
X156748362Y-108703001D01*
X156748038Y-109074967D01*
X156890083Y-109418743D01*
X156968200Y-109496996D01*
X156968200Y-116308727D01*
X156941808Y-116335073D01*
X156799162Y-116678601D01*
X156798838Y-117050567D01*
X156940883Y-117394343D01*
X157019000Y-117472596D01*
X157019000Y-127662616D01*
X156941808Y-127739673D01*
X156799162Y-128083201D01*
X156798838Y-128455167D01*
X156940883Y-128798943D01*
X157203673Y-129062192D01*
X157547201Y-129204838D01*
X157919167Y-129205162D01*
X158262943Y-129063117D01*
X158526192Y-128800327D01*
X158668838Y-128456799D01*
X158669162Y-128084833D01*
X158527117Y-127741057D01*
X158449000Y-127662804D01*
X158449000Y-122118426D01*
X158604967Y-122118562D01*
X158720800Y-122070701D01*
X158720800Y-130691637D01*
X157708705Y-131703733D01*
X157599633Y-131703638D01*
X157255857Y-131845683D01*
X156992608Y-132108473D01*
X156849962Y-132452001D01*
X156849638Y-132823967D01*
X156991683Y-133167743D01*
X157254473Y-133430992D01*
X157598001Y-133573638D01*
X157969967Y-133573962D01*
X158313743Y-133431917D01*
X158576992Y-133169127D01*
X158719638Y-132825599D01*
X158719734Y-132715028D01*
X159941382Y-131493381D01*
X160054705Y-131323781D01*
X160096374Y-131261419D01*
X160150800Y-130987800D01*
X160150800Y-109342592D01*
X167003087Y-102490306D01*
X167003087Y-108258796D01*
X166925895Y-108335853D01*
X166783249Y-108679381D01*
X166782925Y-109051347D01*
X166924970Y-109395123D01*
X167003087Y-109473376D01*
X167003087Y-116316021D01*
X167009527Y-116348398D01*
X166882962Y-116653199D01*
X166882638Y-117025165D01*
X167024683Y-117368941D01*
X167128200Y-117472639D01*
X167128200Y-127662616D01*
X167051008Y-127739673D01*
X166908362Y-128083201D01*
X166908038Y-128455167D01*
X167050083Y-128798943D01*
X167312873Y-129062192D01*
X167656401Y-129204838D01*
X168028367Y-129205162D01*
X168372143Y-129063117D01*
X168609612Y-128826062D01*
X168609612Y-130962826D01*
X167868705Y-131703733D01*
X167759633Y-131703638D01*
X167415857Y-131845683D01*
X167152608Y-132108473D01*
X167009962Y-132452001D01*
X167009638Y-132823967D01*
X167151683Y-133167743D01*
X167414473Y-133430992D01*
X167758001Y-133573638D01*
X168129967Y-133573962D01*
X168473743Y-133431917D01*
X168736992Y-133169127D01*
X168879638Y-132825599D01*
X168879734Y-132715028D01*
X169830193Y-131764569D01*
X169985186Y-131532607D01*
X170039612Y-131258988D01*
X170039612Y-129205078D01*
X170136567Y-129205162D01*
X170480343Y-129063117D01*
X170743592Y-128800327D01*
X170886238Y-128456799D01*
X170886334Y-128346228D01*
X172122266Y-127110297D01*
X172277259Y-126878334D01*
X172331684Y-126604716D01*
X172331684Y-108103556D01*
X172408876Y-108026499D01*
X172551522Y-107682971D01*
X172551846Y-107311005D01*
X172409801Y-106967229D01*
X172147011Y-106703980D01*
X171803483Y-106561334D01*
X171431517Y-106561010D01*
X171087741Y-106703055D01*
X170953286Y-106837275D01*
X170680633Y-106837038D01*
X170336857Y-106979083D01*
X170073608Y-107241873D01*
X170031400Y-107343521D01*
X170031400Y-92352319D01*
X170101900Y-92182537D01*
X170102180Y-91860650D01*
X170279181Y-91742381D01*
X171574581Y-90446982D01*
X171729574Y-90215019D01*
X171736957Y-90177901D01*
X171784000Y-89941400D01*
X171784000Y-88572964D01*
X173413595Y-90202560D01*
X173345600Y-90202560D01*
X173110283Y-90246838D01*
X172894159Y-90385910D01*
X172749169Y-90598110D01*
X172698160Y-90850000D01*
X172698160Y-92350000D01*
X172742438Y-92585317D01*
X172881510Y-92801441D01*
X173093710Y-92946431D01*
X173345600Y-92997440D01*
X175345600Y-92997440D01*
X175580917Y-92953162D01*
X175797041Y-92814090D01*
X175820000Y-92780488D01*
X175820000Y-141945909D01*
X173695908Y-144070000D01*
X82844091Y-144070000D01*
X80720000Y-141945908D01*
X80720000Y-141051540D01*
X169464518Y-141051540D01*
X169887616Y-142075515D01*
X170670365Y-142859631D01*
X171693599Y-143284515D01*
X172801540Y-143285482D01*
X173825515Y-142862384D01*
X174609631Y-142079635D01*
X175034515Y-141056401D01*
X175035482Y-139948460D01*
X174612384Y-138924485D01*
X173829635Y-138140369D01*
X172806401Y-137715485D01*
X171698460Y-137714518D01*
X170674485Y-138137616D01*
X169890369Y-138920365D01*
X169465485Y-139943599D01*
X169464518Y-141051540D01*
X80720000Y-141051540D01*
X80720000Y-114147013D01*
X82523992Y-114147013D01*
X82593457Y-114389197D01*
X83116902Y-114575944D01*
X83671968Y-114548162D01*
X84055743Y-114389197D01*
X84125208Y-114147013D01*
X83324600Y-113346405D01*
X82523992Y-114147013D01*
X80720000Y-114147013D01*
X80720000Y-112959102D01*
X81915456Y-112959102D01*
X81943238Y-113514168D01*
X82102203Y-113897943D01*
X82344387Y-113967408D01*
X83144995Y-113166800D01*
X83504205Y-113166800D01*
X84304813Y-113967408D01*
X84546997Y-113897943D01*
X84733744Y-113374498D01*
X84705962Y-112819432D01*
X84546997Y-112435657D01*
X84304813Y-112366192D01*
X83504205Y-113166800D01*
X83144995Y-113166800D01*
X82344387Y-112366192D01*
X82102203Y-112435657D01*
X81915456Y-112959102D01*
X80720000Y-112959102D01*
X80720000Y-112186587D01*
X82523992Y-112186587D01*
X83324600Y-112987195D01*
X84125208Y-112186587D01*
X84055743Y-111944403D01*
X83532298Y-111757656D01*
X82977232Y-111785438D01*
X82593457Y-111944403D01*
X82523992Y-112186587D01*
X80720000Y-112186587D01*
X80720000Y-109439615D01*
X81189230Y-109439615D01*
X81513580Y-110224600D01*
X82113641Y-110825709D01*
X82898059Y-111151428D01*
X83747415Y-111152170D01*
X84532400Y-110827820D01*
X85133509Y-110227759D01*
X85459228Y-109443341D01*
X85459970Y-108593985D01*
X85135620Y-107809000D01*
X84535559Y-107207891D01*
X83751141Y-106882172D01*
X82901785Y-106881430D01*
X82116800Y-107205780D01*
X81515691Y-107805841D01*
X81189972Y-108590259D01*
X81189230Y-109439615D01*
X80720000Y-109439615D01*
X80720000Y-105143461D01*
X81927358Y-105143461D01*
X82139590Y-105657103D01*
X82532230Y-106050429D01*
X83045500Y-106263557D01*
X83601261Y-106264042D01*
X84114903Y-106051810D01*
X84508229Y-105659170D01*
X84721357Y-105145900D01*
X84721842Y-104590139D01*
X84509610Y-104076497D01*
X84116970Y-103683171D01*
X83603700Y-103470043D01*
X83047939Y-103469558D01*
X82534297Y-103681790D01*
X82140971Y-104074430D01*
X81927843Y-104587700D01*
X81927358Y-105143461D01*
X80720000Y-105143461D01*
X80720000Y-92512025D01*
X80783902Y-92575927D01*
X81017291Y-92672600D01*
X81857850Y-92672600D01*
X82016600Y-92513850D01*
X82016600Y-91414600D01*
X82270600Y-91414600D01*
X82270600Y-92513850D01*
X82429350Y-92672600D01*
X83269909Y-92672600D01*
X83503298Y-92575927D01*
X83681927Y-92397299D01*
X83778600Y-92163910D01*
X83778600Y-91573350D01*
X83619850Y-91414600D01*
X82270600Y-91414600D01*
X82016600Y-91414600D01*
X81996600Y-91414600D01*
X81996600Y-91160600D01*
X82016600Y-91160600D01*
X82016600Y-90061350D01*
X82270600Y-90061350D01*
X82270600Y-91160600D01*
X83619850Y-91160600D01*
X83778600Y-91001850D01*
X83778600Y-90411290D01*
X83681927Y-90177901D01*
X83503298Y-89999273D01*
X83269909Y-89902600D01*
X82429350Y-89902600D01*
X82270600Y-90061350D01*
X82016600Y-90061350D01*
X81857850Y-89902600D01*
X81017291Y-89902600D01*
X80783902Y-89999273D01*
X80720000Y-90063175D01*
X80720000Y-83912025D01*
X80783902Y-83975927D01*
X81017291Y-84072600D01*
X81857850Y-84072600D01*
X82016600Y-83913850D01*
X82016600Y-82814600D01*
X82270600Y-82814600D01*
X82270600Y-83913850D01*
X82429350Y-84072600D01*
X83269909Y-84072600D01*
X83503298Y-83975927D01*
X83681927Y-83797299D01*
X83778600Y-83563910D01*
X83778600Y-82973350D01*
X83619850Y-82814600D01*
X82270600Y-82814600D01*
X82016600Y-82814600D01*
X81996600Y-82814600D01*
X81996600Y-82560600D01*
X82016600Y-82560600D01*
X82016600Y-81461350D01*
X82270600Y-81461350D01*
X82270600Y-82560600D01*
X83619850Y-82560600D01*
X83778600Y-82401850D01*
X83778600Y-81811290D01*
X83681927Y-81577901D01*
X83503298Y-81399273D01*
X83269909Y-81302600D01*
X82429350Y-81302600D01*
X82270600Y-81461350D01*
X82016600Y-81461350D01*
X81857850Y-81302600D01*
X81017291Y-81302600D01*
X80973249Y-81320843D01*
X82844091Y-79450000D01*
X94406398Y-79450000D01*
X92405737Y-81450661D01*
G36*
X169398989Y-85285476D02*
X169398989Y-87474670D01*
X168859305Y-88014355D01*
X168750233Y-88014260D01*
X168406457Y-88156305D01*
X168143208Y-88419095D01*
X168000562Y-88762623D01*
X168000238Y-89134589D01*
X168142283Y-89478365D01*
X168405073Y-89741614D01*
X168748601Y-89884260D01*
X169120567Y-89884584D01*
X169281671Y-89818017D01*
X169384267Y-89920792D01*
X169727795Y-90063438D01*
X169935618Y-90063619D01*
X169477438Y-90521800D01*
X168681400Y-90521800D01*
X168407781Y-90576226D01*
X168175819Y-90731219D01*
X167738308Y-91168730D01*
X167586781Y-90941955D01*
X167562799Y-90917973D01*
X167562799Y-86644336D01*
X167508373Y-86370717D01*
X167448059Y-86280451D01*
X167448195Y-86124403D01*
X167306150Y-85780627D01*
X167043360Y-85517378D01*
X166970031Y-85486929D01*
X167100171Y-85173520D01*
X167100216Y-85121711D01*
X169235224Y-85121711D01*
X169398989Y-85285476D01*
X169398989Y-85285476D01*
G37*
X169398989Y-85285476D02*
X169398989Y-87474670D01*
X168859305Y-88014355D01*
X168750233Y-88014260D01*
X168406457Y-88156305D01*
X168143208Y-88419095D01*
X168000562Y-88762623D01*
X168000238Y-89134589D01*
X168142283Y-89478365D01*
X168405073Y-89741614D01*
X168748601Y-89884260D01*
X169120567Y-89884584D01*
X169281671Y-89818017D01*
X169384267Y-89920792D01*
X169727795Y-90063438D01*
X169935618Y-90063619D01*
X169477438Y-90521800D01*
X168681400Y-90521800D01*
X168407781Y-90576226D01*
X168175819Y-90731219D01*
X167738308Y-91168730D01*
X167586781Y-90941955D01*
X167562799Y-90917973D01*
X167562799Y-86644336D01*
X167508373Y-86370717D01*
X167448059Y-86280451D01*
X167448195Y-86124403D01*
X167306150Y-85780627D01*
X167043360Y-85517378D01*
X166970031Y-85486929D01*
X167100171Y-85173520D01*
X167100216Y-85121711D01*
X169235224Y-85121711D01*
X169398989Y-85285476D01*
G36*
X146935607Y-90965631D02*
X140688236Y-90965631D01*
X140704329Y-90926876D01*
X140704810Y-90375662D01*
X140494314Y-89866223D01*
X140104887Y-89476116D01*
X140060854Y-89457832D01*
X148443405Y-89457832D01*
X146935607Y-90965631D01*
X146935607Y-90965631D01*
G37*
X146935607Y-90965631D02*
X140688236Y-90965631D01*
X140704329Y-90926876D01*
X140704810Y-90375662D01*
X140494314Y-89866223D01*
X140104887Y-89476116D01*
X140060854Y-89457832D01*
X148443405Y-89457832D01*
X146935607Y-90965631D01*
G36*
X175820000Y-90414581D02*
X175809690Y-90398559D01*
X175597490Y-90253569D01*
X175345600Y-90202560D01*
X175060600Y-90202560D01*
X175060600Y-90123402D01*
X175006174Y-89849783D01*
X174979281Y-89809535D01*
X174851181Y-89617820D01*
X172279160Y-87045800D01*
X174851181Y-84473780D01*
X174902190Y-84397440D01*
X175345600Y-84397440D01*
X175580917Y-84353162D01*
X175797041Y-84214090D01*
X175820000Y-84180488D01*
X175820000Y-90414581D01*
X175820000Y-90414581D01*
G37*
X175820000Y-90414581D02*
X175809690Y-90398559D01*
X175597490Y-90253569D01*
X175345600Y-90202560D01*
X175060600Y-90202560D01*
X175060600Y-90123402D01*
X175006174Y-89849783D01*
X174979281Y-89809535D01*
X174851181Y-89617820D01*
X172279160Y-87045800D01*
X174851181Y-84473780D01*
X174902190Y-84397440D01*
X175345600Y-84397440D01*
X175580917Y-84353162D01*
X175797041Y-84214090D01*
X175820000Y-84180488D01*
X175820000Y-90414581D01*
G36*
X152004419Y-89387625D02*
X152250980Y-89552372D01*
X152291340Y-89560400D01*
X152541820Y-89610224D01*
X154587823Y-89610224D01*
X155296199Y-90318600D01*
X150423921Y-90318600D01*
X150652192Y-90090727D01*
X150794838Y-89747199D01*
X150795162Y-89375233D01*
X150668057Y-89067614D01*
X150744038Y-88884631D01*
X150744083Y-88832822D01*
X151449616Y-88832822D01*
X152004419Y-89387625D01*
X152004419Y-89387625D01*
G37*
X152004419Y-89387625D02*
X152250980Y-89552372D01*
X152291340Y-89560400D01*
X152541820Y-89610224D01*
X154587823Y-89610224D01*
X155296199Y-90318600D01*
X150423921Y-90318600D01*
X150652192Y-90090727D01*
X150794838Y-89747199D01*
X150795162Y-89375233D01*
X150668057Y-89067614D01*
X150744038Y-88884631D01*
X150744083Y-88832822D01*
X151449616Y-88832822D01*
X152004419Y-89387625D01*
G36*
X175820000Y-81574091D02*
X175820000Y-81814581D01*
X175809690Y-81798559D01*
X175597490Y-81653569D01*
X175345600Y-81602560D01*
X173345600Y-81602560D01*
X173110283Y-81646838D01*
X172894159Y-81785910D01*
X172749169Y-81998110D01*
X172698160Y-82250000D01*
X172698160Y-83750000D01*
X172742438Y-83985317D01*
X172881510Y-84201441D01*
X173012020Y-84290615D01*
X172136601Y-85166035D01*
X172021115Y-84886538D01*
X171897556Y-84762763D01*
X171888572Y-84717598D01*
X171733579Y-84485636D01*
X169742362Y-82494419D01*
X169510400Y-82339426D01*
X169236781Y-82285000D01*
X167143040Y-82285000D01*
X167143040Y-82250000D01*
X167098762Y-82014683D01*
X166959690Y-81798559D01*
X166747490Y-81653569D01*
X166495600Y-81602560D01*
X164531442Y-81602560D01*
X165232201Y-80901801D01*
X169031799Y-80901801D01*
X169067078Y-80937080D01*
X169067038Y-80982567D01*
X169209083Y-81326343D01*
X169471873Y-81589592D01*
X169815401Y-81732238D01*
X170187367Y-81732562D01*
X170531143Y-81590517D01*
X170794392Y-81327727D01*
X170878531Y-81125099D01*
X170961683Y-81326343D01*
X171224473Y-81589592D01*
X171568001Y-81732238D01*
X171939967Y-81732562D01*
X172283743Y-81590517D01*
X172546992Y-81327727D01*
X172689638Y-80984199D01*
X172689962Y-80612233D01*
X172547917Y-80268457D01*
X172285127Y-80005208D01*
X171941599Y-79862562D01*
X171894723Y-79862521D01*
X171482202Y-79450000D01*
X173695908Y-79450000D01*
X175820000Y-81574091D01*
X175820000Y-81574091D01*
G37*
X175820000Y-81574091D02*
X175820000Y-81814581D01*
X175809690Y-81798559D01*
X175597490Y-81653569D01*
X175345600Y-81602560D01*
X173345600Y-81602560D01*
X173110283Y-81646838D01*
X172894159Y-81785910D01*
X172749169Y-81998110D01*
X172698160Y-82250000D01*
X172698160Y-83750000D01*
X172742438Y-83985317D01*
X172881510Y-84201441D01*
X173012020Y-84290615D01*
X172136601Y-85166035D01*
X172021115Y-84886538D01*
X171897556Y-84762763D01*
X171888572Y-84717598D01*
X171733579Y-84485636D01*
X169742362Y-82494419D01*
X169510400Y-82339426D01*
X169236781Y-82285000D01*
X167143040Y-82285000D01*
X167143040Y-82250000D01*
X167098762Y-82014683D01*
X166959690Y-81798559D01*
X166747490Y-81653569D01*
X166495600Y-81602560D01*
X164531442Y-81602560D01*
X165232201Y-80901801D01*
X169031799Y-80901801D01*
X169067078Y-80937080D01*
X169067038Y-80982567D01*
X169209083Y-81326343D01*
X169471873Y-81589592D01*
X169815401Y-81732238D01*
X170187367Y-81732562D01*
X170531143Y-81590517D01*
X170794392Y-81327727D01*
X170878531Y-81125099D01*
X170961683Y-81326343D01*
X171224473Y-81589592D01*
X171568001Y-81732238D01*
X171939967Y-81732562D01*
X172283743Y-81590517D01*
X172546992Y-81327727D01*
X172689638Y-80984199D01*
X172689962Y-80612233D01*
X172547917Y-80268457D01*
X172285127Y-80005208D01*
X171941599Y-79862562D01*
X171894723Y-79862521D01*
X171482202Y-79450000D01*
X173695908Y-79450000D01*
X175820000Y-81574091D01*
G36*
X163848160Y-82250000D02*
X163848160Y-83192011D01*
X163759628Y-82977747D01*
X163636070Y-82853973D01*
X163627086Y-82808808D01*
X163472093Y-82576845D01*
X163249760Y-82354512D01*
X163464688Y-82354512D01*
X163755527Y-82296660D01*
X163851728Y-82232381D01*
X163848160Y-82250000D01*
X163848160Y-82250000D01*
G37*
X163848160Y-82250000D02*
X163848160Y-83192011D01*
X163759628Y-82977747D01*
X163636070Y-82853973D01*
X163627086Y-82808808D01*
X163472093Y-82576845D01*
X163249760Y-82354512D01*
X163464688Y-82354512D01*
X163755527Y-82296660D01*
X163851728Y-82232381D01*
X163848160Y-82250000D01*
G36*
X147955260Y-80819500D02*
X147999538Y-81054817D01*
X148008537Y-81068802D01*
X140868404Y-81068802D01*
X139249603Y-79450000D01*
X147955260Y-79450000D01*
X147955260Y-80819500D01*
X147955260Y-80819500D01*
G37*
X147955260Y-80819500D02*
X147999538Y-81054817D01*
X148008537Y-81068802D01*
X140868404Y-81068802D01*
X139249603Y-79450000D01*
X147955260Y-79450000D01*
X147955260Y-80819500D01*
G36*
X154571700Y-79692500D02*
X154591700Y-79692500D01*
X154591700Y-79946500D01*
X154571700Y-79946500D01*
X154571700Y-79966500D01*
X154317700Y-79966500D01*
X154317700Y-79946500D01*
X154297700Y-79946500D01*
X154297700Y-79692500D01*
X154317700Y-79692500D01*
X154317700Y-79672500D01*
X154571700Y-79672500D01*
X154571700Y-79692500D01*
X154571700Y-79692500D01*
G37*
X154571700Y-79692500D02*
X154591700Y-79692500D01*
X154591700Y-79946500D01*
X154571700Y-79946500D01*
X154571700Y-79966500D01*
X154317700Y-79966500D01*
X154317700Y-79946500D01*
X154297700Y-79946500D01*
X154297700Y-79692500D01*
X154317700Y-79692500D01*
X154317700Y-79672500D01*
X154571700Y-79672500D01*
X154571700Y-79692500D01*
M02*
