G04 #@! TF.FileFunction,Legend,Bot*
%FSLAX46Y46*%
G04 Gerber Fmt 4.6, Leading zero omitted, Abs format (unit mm)*
G04 Created by KiCad (PCBNEW 4.0.5-e0-6337~52~ubuntu16.10.1) date Sun Jan 15 19:46:15 2017*
%MOMM*%
%LPD*%
G01*
G04 APERTURE LIST*
%ADD10C,0.100000*%
%ADD11C,0.250000*%
%ADD12C,0.300000*%
%ADD13C,0.150000*%
%ADD14C,0.200000*%
G04 APERTURE END LIST*
D10*
D11*
X162482162Y-81321448D02*
X162529781Y-81464305D01*
X162529781Y-81702401D01*
X162482162Y-81797639D01*
X162434543Y-81845258D01*
X162339305Y-81892877D01*
X162244067Y-81892877D01*
X162148829Y-81845258D01*
X162101210Y-81797639D01*
X162053590Y-81702401D01*
X162005971Y-81511924D01*
X161958352Y-81416686D01*
X161910733Y-81369067D01*
X161815495Y-81321448D01*
X161720257Y-81321448D01*
X161625019Y-81369067D01*
X161577400Y-81416686D01*
X161529781Y-81511924D01*
X161529781Y-81750020D01*
X161577400Y-81892877D01*
X161529781Y-82226210D02*
X162529781Y-82464305D01*
X161815495Y-82654782D01*
X162529781Y-82845258D01*
X161529781Y-83083353D01*
X161529781Y-83654781D02*
X161529781Y-83845258D01*
X161577400Y-83940496D01*
X161672638Y-84035734D01*
X161863114Y-84083353D01*
X162196448Y-84083353D01*
X162386924Y-84035734D01*
X162482162Y-83940496D01*
X162529781Y-83845258D01*
X162529781Y-83654781D01*
X162482162Y-83559543D01*
X162386924Y-83464305D01*
X162196448Y-83416686D01*
X161863114Y-83416686D01*
X161672638Y-83464305D01*
X161577400Y-83559543D01*
X161529781Y-83654781D01*
X159875481Y-81453243D02*
X158875481Y-81453243D01*
X159875481Y-82024672D01*
X158875481Y-82024672D01*
X159875481Y-83072291D02*
X159399290Y-82738957D01*
X159875481Y-82500862D02*
X158875481Y-82500862D01*
X158875481Y-82881815D01*
X158923100Y-82977053D01*
X158970719Y-83024672D01*
X159065957Y-83072291D01*
X159208814Y-83072291D01*
X159304052Y-83024672D01*
X159351671Y-82977053D01*
X159399290Y-82881815D01*
X159399290Y-82500862D01*
X159827862Y-83453243D02*
X159875481Y-83596100D01*
X159875481Y-83834196D01*
X159827862Y-83929434D01*
X159780243Y-83977053D01*
X159685005Y-84024672D01*
X159589767Y-84024672D01*
X159494529Y-83977053D01*
X159446910Y-83929434D01*
X159399290Y-83834196D01*
X159351671Y-83643719D01*
X159304052Y-83548481D01*
X159256433Y-83500862D01*
X159161195Y-83453243D01*
X159065957Y-83453243D01*
X158970719Y-83500862D01*
X158923100Y-83548481D01*
X158875481Y-83643719D01*
X158875481Y-83881815D01*
X158923100Y-84024672D01*
X158875481Y-84310386D02*
X158875481Y-84881815D01*
X159875481Y-84596100D02*
X158875481Y-84596100D01*
X157376762Y-81434253D02*
X157424381Y-81577110D01*
X157424381Y-81815206D01*
X157376762Y-81910444D01*
X157329143Y-81958063D01*
X157233905Y-82005682D01*
X157138667Y-82005682D01*
X157043429Y-81958063D01*
X156995810Y-81910444D01*
X156948190Y-81815206D01*
X156900571Y-81624729D01*
X156852952Y-81529491D01*
X156805333Y-81481872D01*
X156710095Y-81434253D01*
X156614857Y-81434253D01*
X156519619Y-81481872D01*
X156472000Y-81529491D01*
X156424381Y-81624729D01*
X156424381Y-81862825D01*
X156472000Y-82005682D01*
X156424381Y-82339015D02*
X157424381Y-82577110D01*
X156710095Y-82767587D01*
X157424381Y-82958063D01*
X156424381Y-83196158D01*
X157424381Y-83577110D02*
X156424381Y-83577110D01*
X156424381Y-83815205D01*
X156472000Y-83958063D01*
X156567238Y-84053301D01*
X156662476Y-84100920D01*
X156852952Y-84148539D01*
X156995810Y-84148539D01*
X157186286Y-84100920D01*
X157281524Y-84053301D01*
X157376762Y-83958063D01*
X157424381Y-83815205D01*
X157424381Y-83577110D01*
X157424381Y-84577110D02*
X156424381Y-84577110D01*
X156424381Y-85243776D02*
X156424381Y-85434253D01*
X156472000Y-85529491D01*
X156567238Y-85624729D01*
X156757714Y-85672348D01*
X157091048Y-85672348D01*
X157281524Y-85624729D01*
X157376762Y-85529491D01*
X157424381Y-85434253D01*
X157424381Y-85243776D01*
X157376762Y-85148538D01*
X157281524Y-85053300D01*
X157091048Y-85005681D01*
X156757714Y-85005681D01*
X156567238Y-85053300D01*
X156472000Y-85148538D01*
X156424381Y-85243776D01*
X153919300Y-81940496D02*
X153871681Y-81845258D01*
X153871681Y-81702401D01*
X153919300Y-81559543D01*
X154014538Y-81464305D01*
X154109776Y-81416686D01*
X154300252Y-81369067D01*
X154443110Y-81369067D01*
X154633586Y-81416686D01*
X154728824Y-81464305D01*
X154824062Y-81559543D01*
X154871681Y-81702401D01*
X154871681Y-81797639D01*
X154824062Y-81940496D01*
X154776443Y-81988115D01*
X154443110Y-81988115D01*
X154443110Y-81797639D01*
X154871681Y-82416686D02*
X153871681Y-82416686D01*
X154871681Y-82988115D01*
X153871681Y-82988115D01*
X154871681Y-83464305D02*
X153871681Y-83464305D01*
X153871681Y-83702400D01*
X153919300Y-83845258D01*
X154014538Y-83940496D01*
X154109776Y-83988115D01*
X154300252Y-84035734D01*
X154443110Y-84035734D01*
X154633586Y-83988115D01*
X154728824Y-83940496D01*
X154824062Y-83845258D01*
X154871681Y-83702400D01*
X154871681Y-83464305D01*
X152271362Y-81354895D02*
X152318981Y-81497752D01*
X152318981Y-81735848D01*
X152271362Y-81831086D01*
X152223743Y-81878705D01*
X152128505Y-81926324D01*
X152033267Y-81926324D01*
X151938029Y-81878705D01*
X151890410Y-81831086D01*
X151842790Y-81735848D01*
X151795171Y-81545371D01*
X151747552Y-81450133D01*
X151699933Y-81402514D01*
X151604695Y-81354895D01*
X151509457Y-81354895D01*
X151414219Y-81402514D01*
X151366600Y-81450133D01*
X151318981Y-81545371D01*
X151318981Y-81783467D01*
X151366600Y-81926324D01*
X151318981Y-82259657D02*
X152318981Y-82497752D01*
X151604695Y-82688229D01*
X152318981Y-82878705D01*
X151318981Y-83116800D01*
X152223743Y-84069181D02*
X152271362Y-84021562D01*
X152318981Y-83878705D01*
X152318981Y-83783467D01*
X152271362Y-83640609D01*
X152176124Y-83545371D01*
X152080886Y-83497752D01*
X151890410Y-83450133D01*
X151747552Y-83450133D01*
X151557076Y-83497752D01*
X151461838Y-83545371D01*
X151366600Y-83640609D01*
X151318981Y-83783467D01*
X151318981Y-83878705D01*
X151366600Y-84021562D01*
X151414219Y-84069181D01*
X152318981Y-84973943D02*
X152318981Y-84497752D01*
X151318981Y-84497752D01*
X152318981Y-85307276D02*
X151318981Y-85307276D01*
X152318981Y-85878705D02*
X151747552Y-85450133D01*
X151318981Y-85878705D02*
X151890410Y-85307276D01*
X148842481Y-81369067D02*
X149842481Y-81702400D01*
X148842481Y-82035734D01*
X149747243Y-82940496D02*
X149794862Y-82892877D01*
X149842481Y-82750020D01*
X149842481Y-82654782D01*
X149794862Y-82511924D01*
X149699624Y-82416686D01*
X149604386Y-82369067D01*
X149413910Y-82321448D01*
X149271052Y-82321448D01*
X149080576Y-82369067D01*
X148985338Y-82416686D01*
X148890100Y-82511924D01*
X148842481Y-82654782D01*
X148842481Y-82750020D01*
X148890100Y-82892877D01*
X148937719Y-82940496D01*
X149747243Y-83940496D02*
X149794862Y-83892877D01*
X149842481Y-83750020D01*
X149842481Y-83654782D01*
X149794862Y-83511924D01*
X149699624Y-83416686D01*
X149604386Y-83369067D01*
X149413910Y-83321448D01*
X149271052Y-83321448D01*
X149080576Y-83369067D01*
X148985338Y-83416686D01*
X148890100Y-83511924D01*
X148842481Y-83654782D01*
X148842481Y-83750020D01*
X148890100Y-83892877D01*
X148937719Y-83940496D01*
D12*
X171476800Y-81906371D02*
X171191086Y-81906371D01*
X171048228Y-81977800D01*
X170905371Y-82120657D01*
X170833943Y-82406371D01*
X170833943Y-82906371D01*
X170905371Y-83192086D01*
X171048228Y-83334943D01*
X171191086Y-83406371D01*
X171476800Y-83406371D01*
X171619657Y-83334943D01*
X171762514Y-83192086D01*
X171833943Y-82906371D01*
X171833943Y-82406371D01*
X171762514Y-82120657D01*
X171619657Y-81977800D01*
X171476800Y-81906371D01*
X170191085Y-81906371D02*
X170191085Y-83120657D01*
X170119657Y-83263514D01*
X170048228Y-83334943D01*
X169905371Y-83406371D01*
X169619657Y-83406371D01*
X169476799Y-83334943D01*
X169405371Y-83263514D01*
X169333942Y-83120657D01*
X169333942Y-81906371D01*
X168833942Y-81906371D02*
X167976799Y-81906371D01*
X168405370Y-83406371D02*
X168405370Y-81906371D01*
X87018714Y-82999971D02*
X87018714Y-81499971D01*
X86304428Y-82999971D02*
X86304428Y-81499971D01*
X85447285Y-82999971D01*
X85447285Y-81499971D01*
D13*
X111270000Y-81280000D02*
X111270000Y-86360000D01*
X106825000Y-81280000D02*
X106825000Y-86360000D01*
X113175000Y-86360000D02*
X113175000Y-81280000D01*
X113175000Y-86360000D02*
X106825000Y-86360000D01*
X113175000Y-81280000D02*
X106825000Y-81280000D01*
D14*
X176345600Y-85000000D02*
X177345600Y-85000000D01*
X177345600Y-85000000D02*
X177345600Y-89750000D01*
X177345600Y-89750000D02*
X176345600Y-89750000D01*
X176345600Y-84000000D02*
X176345600Y-90750000D01*
X176345600Y-90750000D02*
X164345600Y-90750000D01*
X164345600Y-90750000D02*
X164345600Y-84000000D01*
X164345600Y-84000000D02*
X176345600Y-84000000D01*
X80143600Y-89287600D02*
X79143600Y-89287600D01*
X79143600Y-89287600D02*
X79143600Y-84537600D01*
X79143600Y-84537600D02*
X80143600Y-84537600D01*
X80143600Y-90287600D02*
X80143600Y-83537600D01*
X80143600Y-83537600D02*
X92143600Y-83537600D01*
X92143600Y-83537600D02*
X92143600Y-90287600D01*
X92143600Y-90287600D02*
X80143600Y-90287600D01*
X115798600Y-86207600D02*
X116814600Y-87223600D01*
X115798600Y-99923600D02*
X116814600Y-98907600D01*
X116814600Y-98907600D02*
X116814600Y-87223600D01*
X115798600Y-86207600D02*
X130530600Y-86207600D01*
X130530600Y-86207600D02*
X130530600Y-99923600D01*
X130530600Y-99923600D02*
X115798600Y-99923600D01*
M02*
