M48
INCH,TZ
T1C0.016
T2C0.020
T3C0.022
T4C0.030
T5C0.032
T6C0.039
T7C0.081
T8C0.169
%
G90
G05
T1
X34050Y-50490
X34060Y-46010
X34150Y-52210
X34334Y-47710
X37400Y-36300
X37600Y-37200
X37600Y-37500
X38080Y-46010
X38100Y-50500
X38177Y-52213
X38324Y-47710
X41301Y-41326
X41900Y-39170
X42070Y-46010
X42080Y-50510
X42150Y-52210
X42390Y-47710
X42453Y-42910
X42548Y-43210
X42610Y-44200
X45370Y-36950
X46060Y-46010
X46075Y-42800
X46080Y-50500
X46160Y-52210
X46314Y-47710
X46370Y-43240
X46800Y-33100
X47040Y-36670
X47100Y-33100
X48090Y-36690
X49690Y-32050
X50070Y-46020
X50080Y-50500
X50106Y-43240
X50130Y-52210
X50200Y-36800
X50200Y-37970
X50200Y-38403
X50210Y-35915
X50220Y-35481
X50324Y-47710
X50380Y-43490
X50589Y-32674
X50798Y-33725
X51310Y-32060
X52300Y-34100
X52350Y-34790
X52890Y-35060
X54060Y-46010
X54080Y-50500
X54130Y-52210
X54134Y-33577
X54135Y-33162
X54324Y-47710
X54412Y-43482
X54449Y-43169
X54465Y-33162
X54465Y-33577
X55350Y-31570
X56299Y-33577
X56800Y-32860
X56810Y-33110
X57060Y-32860
X57060Y-33110
X57080Y-35260
X57610Y-40220
X57880Y-33380
X57980Y-39480
X58060Y-46010
X58070Y-50500
X58106Y-43248
X58130Y-52210
X58176Y-39098
X58314Y-47720
X58330Y-33000
X58410Y-43390
X58790Y-33380
X58810Y-38650
X58835Y-37625
X58852Y-38146
X58980Y-34920
X59000Y-31960
X59000Y-35260
X59160Y-37530
X59232Y-37221
X59300Y-38970
X59340Y-31970
X59391Y-32639
X59443Y-38110
X59595Y-34925
X59624Y-37327
X59810Y-35130
X59856Y-38351
X59870Y-37850
X59966Y-38660
X60043Y-34102
X60179Y-38389
X60280Y-37260
X60389Y-34008
X60422Y-38626
X60495Y-36991
X60590Y-32720
X60625Y-38355
X60778Y-33942
X60800Y-35400
X60807Y-36948
X60860Y-37260
X60879Y-38575
X60910Y-32720
X61000Y-37800
X61011Y-38289
X61040Y-35550
X61090Y-36809
X61300Y-31430
X61336Y-38459
X61389Y-32898
X61456Y-35052
X61520Y-34743
X61530Y-35358
X61550Y-37980
X61902Y-37989
X62080Y-42870
X62092Y-38275
X62100Y-46010
X62100Y-50500
X62120Y-52220
X62233Y-38583
X62255Y-38006
X62275Y-31690
X62330Y-43210
X62341Y-32370
X62370Y-47710
X62548Y-38189
X62650Y-35770
X62650Y-36030
X62723Y-34460
X62849Y-38096
X62920Y-35770
X62920Y-36030
X62977Y-34265
X62989Y-38384
X63223Y-38153
X63232Y-34068
X63295Y-31701
X63472Y-38371
X63490Y-33869
X63590Y-35870
X63606Y-38086
X63793Y-32794
X63860Y-34740
X63941Y-35866
X64001Y-38072
X64064Y-33486
X64077Y-34417
X64100Y-38700
X64100Y-39070
X64160Y-32877
X64639Y-33929
X65000Y-39510
X65079Y-38321
X65100Y-31800
X65387Y-38232
X65419Y-33459
X65470Y-41090
X65556Y-33980
X65600Y-38001
X65723Y-37711
X65780Y-36170
X65805Y-36844
X66031Y-42861
X66069Y-35103
X66070Y-46000
X66080Y-50500
X66120Y-52220
X66160Y-36730
X66283Y-43240
X66300Y-36420
X66318Y-33868
X66318Y-34232
X66410Y-47710
X66510Y-35019
X66600Y-35500
X66601Y-36219
X66682Y-33868
X66682Y-34232
X66896Y-35090
X66900Y-46000
X66910Y-50500
X66930Y-31810
X67100Y-36300
X67100Y-36600
X67100Y-36600
X67270Y-42430
X67350Y-34610
X67413Y-33628
X67428Y-34270
X67566Y-42321
X67620Y-31810
X68580Y-32020
X69010Y-37020
X69010Y-37650
X69060Y-33690
T4
X32805Y-41286
X32805Y-44554
X34970Y-40223
X37175Y-41286
X37175Y-44554
X39154Y-41280
X39154Y-44547
X41319Y-40217
X43524Y-41280
X43524Y-44547
T5
X54850Y-35689
X54850Y-37611
T6
X43307Y-32500
X43307Y-33500
T7
X32805Y-42920
X37175Y-42920
X39154Y-42913
X43524Y-42913
T8
X67815Y-55315
T2
X49122Y-31924G85X49122Y-32180
G05
X51878Y-31924G85X51878Y-32180
G05
T3
X49575Y-33115G85X49457Y-33115
G05
X51544Y-33115G85X51426Y-33115
G05
T0
M30
