G04 #@! TF.FileFunction,Soldermask,Top*
%FSLAX46Y46*%
G04 Gerber Fmt 4.6, Leading zero omitted, Abs format (unit mm)*
G04 Created by KiCad (PCBNEW 4.0.5-e0-6337~52~ubuntu16.10.1) date Sun Jan 15 19:46:15 2017*
%MOMM*%
%LPD*%
G01*
G04 APERTURE LIST*
%ADD10C,0.100000*%
%ADD11C,0.010000*%
%ADD12R,1.160000X1.410000*%
%ADD13R,1.660000X0.440000*%
%ADD14R,0.440000X1.660000*%
%ADD15O,3.174980X1.666220*%
%ADD16R,1.358880X1.358880*%
%ADD17R,2.910000X1.160000*%
%ADD18R,1.460000X0.860000*%
%ADD19R,1.220000X0.810000*%
%ADD20R,1.050000X0.580000*%
%ADD21R,1.000000X1.100000*%
%ADD22R,0.560000X1.510000*%
%ADD23O,1.410000X1.110000*%
%ADD24O,1.160000X1.710000*%
%ADD25R,1.760000X1.160000*%
%ADD26R,1.060000X0.960000*%
%ADD27R,1.410000X1.160000*%
%ADD28O,0.910000X0.360000*%
%ADD29O,0.360000X0.910000*%
%ADD30R,1.085000X1.085000*%
%ADD31R,0.860000X1.460000*%
%ADD32C,1.661140*%
%ADD33C,1.684000*%
%ADD34C,3.160000*%
%ADD35R,2.160000X0.480000*%
%ADD36C,4.460000*%
%ADD37R,1.560000X1.210000*%
G04 APERTURE END LIST*
D10*
D11*
G36*
X92827999Y-83905577D02*
X92860373Y-83965281D01*
X92866957Y-84027953D01*
X92868778Y-84135493D01*
X92866401Y-84276577D01*
X92860386Y-84439882D01*
X92851295Y-84614082D01*
X92839691Y-84787853D01*
X92826137Y-84949871D01*
X92811192Y-85088813D01*
X92801008Y-85161334D01*
X92779846Y-85313605D01*
X92761103Y-85483918D01*
X92748778Y-85635864D01*
X92748633Y-85638317D01*
X92734753Y-85875412D01*
X92805728Y-85751206D01*
X92855901Y-85660298D01*
X92917201Y-85544910D01*
X92971982Y-85438600D01*
X93022525Y-85344391D01*
X93067536Y-85270511D01*
X93098146Y-85231377D01*
X93100468Y-85229677D01*
X93142270Y-85228187D01*
X93174671Y-85265898D01*
X93188439Y-85325568D01*
X93179747Y-85377758D01*
X93162571Y-85447549D01*
X93154663Y-85529866D01*
X93156058Y-85606132D01*
X93166789Y-85657767D01*
X93179221Y-85669334D01*
X93191112Y-85664528D01*
X93205170Y-85646222D01*
X93223595Y-85608581D01*
X93248588Y-85545770D01*
X93282349Y-85451953D01*
X93327078Y-85321297D01*
X93376448Y-85173494D01*
X93555266Y-85173494D01*
X93556722Y-85246471D01*
X93561301Y-85266820D01*
X93581759Y-85297782D01*
X93600900Y-85279287D01*
X93619109Y-85209701D01*
X93636772Y-85087390D01*
X93654274Y-84910718D01*
X93659103Y-84852482D01*
X93669551Y-84712979D01*
X93676971Y-84595210D01*
X93680800Y-84509797D01*
X93680473Y-84467362D01*
X93679683Y-84464721D01*
X93668919Y-84483583D01*
X93651625Y-84542798D01*
X93631135Y-84627142D01*
X93610783Y-84721391D01*
X93593904Y-84810322D01*
X93583832Y-84878712D01*
X93582746Y-84907334D01*
X93581539Y-84959271D01*
X93571906Y-85041810D01*
X93565296Y-85083376D01*
X93555266Y-85173494D01*
X93376448Y-85173494D01*
X93384976Y-85147966D01*
X93449564Y-84952476D01*
X93503123Y-84792539D01*
X93553540Y-84646783D01*
X93597101Y-84525584D01*
X93630093Y-84439320D01*
X93646537Y-84402143D01*
X93674746Y-84328467D01*
X93698102Y-84230950D01*
X93703798Y-84194722D01*
X93724488Y-84106877D01*
X93754246Y-84063765D01*
X93787132Y-84069109D01*
X93816421Y-84124167D01*
X93823186Y-84170550D01*
X93830384Y-84264020D01*
X93837527Y-84395227D01*
X93844131Y-84554819D01*
X93849707Y-84733447D01*
X93851161Y-84791639D01*
X93865341Y-85395612D01*
X93947697Y-85243195D01*
X94016196Y-85123586D01*
X94076272Y-85032186D01*
X94122589Y-84976327D01*
X94149807Y-84963342D01*
X94150832Y-84964200D01*
X94147556Y-84995064D01*
X94125754Y-85062444D01*
X94092023Y-85147222D01*
X94045342Y-85291772D01*
X94014366Y-85459507D01*
X94001336Y-85629024D01*
X94008491Y-85778920D01*
X94019779Y-85837716D01*
X94030619Y-85874592D01*
X94041932Y-85890763D01*
X94057509Y-85880330D01*
X94081141Y-85837397D01*
X94116620Y-85756065D01*
X94167737Y-85630439D01*
X94192153Y-85569605D01*
X94245707Y-85431917D01*
X94290489Y-85308930D01*
X94322559Y-85212069D01*
X94337975Y-85152756D01*
X94338772Y-85144541D01*
X94358748Y-85080846D01*
X94393757Y-85035559D01*
X94432236Y-85005975D01*
X94462658Y-85009152D01*
X94504546Y-85049907D01*
X94519039Y-85066463D01*
X94571158Y-85150179D01*
X94605966Y-85248326D01*
X94608238Y-85260111D01*
X94624709Y-85340464D01*
X94641796Y-85398587D01*
X94645456Y-85406672D01*
X94668546Y-85400424D01*
X94716240Y-85351786D01*
X94783475Y-85266387D01*
X94829547Y-85202060D01*
X94915516Y-85083856D01*
X94982474Y-85008434D01*
X95039739Y-84969758D01*
X95096628Y-84961789D01*
X95162459Y-84978490D01*
X95170116Y-84981370D01*
X95214544Y-85020239D01*
X95262633Y-85093372D01*
X95303616Y-85180463D01*
X95326726Y-85261204D01*
X95328535Y-85280154D01*
X95338757Y-85295405D01*
X95366488Y-85257821D01*
X95411401Y-85168117D01*
X95473167Y-85027006D01*
X95551455Y-84835206D01*
X95645936Y-84593430D01*
X95652161Y-84577226D01*
X95708816Y-84431974D01*
X95760421Y-84304066D01*
X95802838Y-84203425D01*
X95831931Y-84139976D01*
X95841036Y-84124167D01*
X95882593Y-84099859D01*
X95941039Y-84089266D01*
X95990935Y-84094546D01*
X96007417Y-84110056D01*
X96012880Y-84152072D01*
X96018355Y-84201778D01*
X96032087Y-84253896D01*
X96064286Y-84345072D01*
X96110279Y-84462879D01*
X96165397Y-84594891D01*
X96170790Y-84607376D01*
X96258355Y-84820618D01*
X96330601Y-85019026D01*
X96384669Y-85193507D01*
X96417703Y-85334969D01*
X96427111Y-85423164D01*
X96429249Y-85456994D01*
X96440467Y-85469032D01*
X96467970Y-85455022D01*
X96518963Y-85410709D01*
X96600650Y-85331839D01*
X96629079Y-85303895D01*
X96730248Y-85207600D01*
X96812812Y-85141297D01*
X96895240Y-85094488D01*
X96996000Y-85056672D01*
X97132667Y-85017590D01*
X97185505Y-85010384D01*
X97289949Y-85002526D01*
X97441166Y-84994148D01*
X97634321Y-84985379D01*
X97864582Y-84976351D01*
X98127116Y-84967194D01*
X98417088Y-84958038D01*
X98729666Y-84949015D01*
X99060017Y-84940255D01*
X99403306Y-84931889D01*
X99754701Y-84924048D01*
X100109368Y-84916862D01*
X100462474Y-84910461D01*
X100809186Y-84904977D01*
X101144669Y-84900541D01*
X101464092Y-84897282D01*
X101627048Y-84896066D01*
X101778245Y-84894035D01*
X101907377Y-84890273D01*
X102004926Y-84885219D01*
X102061370Y-84879315D01*
X102071548Y-84875477D01*
X102096197Y-84870470D01*
X102159013Y-84877459D01*
X102204431Y-84886071D01*
X102293298Y-84900274D01*
X102338503Y-84894217D01*
X102347953Y-84882474D01*
X102375898Y-84865270D01*
X102391466Y-84870994D01*
X102429286Y-84878118D01*
X102513699Y-84885137D01*
X102634853Y-84891514D01*
X102782899Y-84896713D01*
X102918222Y-84899732D01*
X103080604Y-84902468D01*
X103223819Y-84904905D01*
X103338136Y-84906877D01*
X103413822Y-84908215D01*
X103440333Y-84908724D01*
X103476689Y-84908690D01*
X103559590Y-84908147D01*
X103679142Y-84907175D01*
X103825448Y-84905852D01*
X103948333Y-84904663D01*
X104210030Y-84903357D01*
X104422146Y-84905093D01*
X104583165Y-84909816D01*
X104691572Y-84917469D01*
X104745852Y-84927997D01*
X104752234Y-84934102D01*
X104725113Y-84977530D01*
X104655355Y-85017755D01*
X104556748Y-85050087D01*
X104443081Y-85069835D01*
X104343444Y-85073163D01*
X104286003Y-85077333D01*
X104195724Y-85090589D01*
X104117667Y-85105046D01*
X104078059Y-85112686D01*
X104037309Y-85119286D01*
X103991292Y-85124904D01*
X103935883Y-85129600D01*
X103866957Y-85133432D01*
X103780388Y-85136458D01*
X103672053Y-85138737D01*
X103537825Y-85140328D01*
X103373581Y-85141288D01*
X103175195Y-85141676D01*
X102938542Y-85141551D01*
X102659497Y-85140972D01*
X102333935Y-85139996D01*
X101957732Y-85138683D01*
X101789333Y-85138066D01*
X101474753Y-85137514D01*
X101154739Y-85138081D01*
X100838052Y-85139677D01*
X100533451Y-85142213D01*
X100249695Y-85145601D01*
X99995544Y-85149750D01*
X99779756Y-85154572D01*
X99611090Y-85159977D01*
X99602111Y-85160341D01*
X99355184Y-85169232D01*
X99074330Y-85177269D01*
X98781993Y-85183942D01*
X98500617Y-85188739D01*
X98252643Y-85191150D01*
X98247444Y-85191173D01*
X98032553Y-85192926D01*
X97813714Y-85196146D01*
X97604764Y-85200527D01*
X97419536Y-85205761D01*
X97271866Y-85211542D01*
X97230023Y-85213729D01*
X97069031Y-85224674D01*
X96953512Y-85240165D01*
X96872523Y-85266544D01*
X96815120Y-85310151D01*
X96770360Y-85377326D01*
X96727301Y-85474410D01*
X96711591Y-85514111D01*
X96661227Y-85630118D01*
X96602621Y-85747307D01*
X96566570Y-85810445D01*
X96509052Y-85912049D01*
X96456695Y-86018735D01*
X96440986Y-86055668D01*
X96384104Y-86148949D01*
X96313548Y-86195667D01*
X96240799Y-86196020D01*
X96177339Y-86150207D01*
X96134651Y-86058428D01*
X96132748Y-86050334D01*
X96126660Y-86003831D01*
X96117971Y-85911948D01*
X96107600Y-85785641D01*
X96096468Y-85635864D01*
X96089593Y-85536122D01*
X96073558Y-85345097D01*
X96050894Y-85139901D01*
X96024307Y-84942093D01*
X95996502Y-84773233D01*
X95989048Y-84734963D01*
X95962317Y-84602499D01*
X95940255Y-84490862D01*
X95925046Y-84411268D01*
X95918873Y-84374935D01*
X95918835Y-84374286D01*
X95909784Y-84376127D01*
X95886587Y-84419307D01*
X95854088Y-84492010D01*
X95817132Y-84582420D01*
X95780564Y-84678724D01*
X95749227Y-84769105D01*
X95729205Y-84836778D01*
X95703249Y-84930842D01*
X95679468Y-85003450D01*
X95665589Y-85034334D01*
X95649918Y-85072085D01*
X95624001Y-85151504D01*
X95591898Y-85259657D01*
X95568127Y-85344778D01*
X95514366Y-85538962D01*
X95471308Y-85685942D01*
X95436246Y-85793341D01*
X95406468Y-85868783D01*
X95379267Y-85919890D01*
X95351933Y-85954286D01*
X95351270Y-85954952D01*
X95311476Y-86003181D01*
X95298222Y-86032767D01*
X95278896Y-86069416D01*
X95255007Y-86093399D01*
X95215584Y-86110324D01*
X95182663Y-86086880D01*
X95154762Y-86019214D01*
X95130400Y-85903473D01*
X95108097Y-85735803D01*
X95104365Y-85701493D01*
X95080400Y-85504709D01*
X95055615Y-85355527D01*
X95030672Y-85255486D01*
X95006232Y-85206126D01*
X94982956Y-85208984D01*
X94961505Y-85265600D01*
X94948001Y-85337569D01*
X94897827Y-85526291D01*
X94811085Y-85688680D01*
X94694356Y-85813159D01*
X94665889Y-85833913D01*
X94590567Y-85883163D01*
X94545626Y-85903481D01*
X94514911Y-85897882D01*
X94482267Y-85869378D01*
X94481242Y-85868353D01*
X94444301Y-85806802D01*
X94415954Y-85715812D01*
X94409463Y-85678423D01*
X94397511Y-85589051D01*
X94387861Y-85519140D01*
X94385077Y-85500000D01*
X94375895Y-85503895D01*
X94357460Y-85552687D01*
X94333431Y-85636324D01*
X94328561Y-85655222D01*
X94270784Y-85882948D01*
X94224830Y-86062187D01*
X94188611Y-86199157D01*
X94160042Y-86300075D01*
X94137035Y-86371157D01*
X94117505Y-86418622D01*
X94099363Y-86448686D01*
X94080524Y-86467566D01*
X94058901Y-86481480D01*
X94049458Y-86486793D01*
X93967192Y-86510215D01*
X93901785Y-86486609D01*
X93865698Y-86420867D01*
X93864493Y-86414197D01*
X93854414Y-86357133D01*
X93837744Y-86268409D01*
X93825578Y-86205556D01*
X93807526Y-86121037D01*
X93794104Y-86085506D01*
X93781031Y-86092213D01*
X93769982Y-86117924D01*
X93756564Y-86190884D01*
X93761409Y-86237868D01*
X93763965Y-86273073D01*
X93732664Y-86287802D01*
X93678673Y-86290222D01*
X93612105Y-86284624D01*
X93576396Y-86257042D01*
X93551863Y-86191296D01*
X93549928Y-86184389D01*
X93524895Y-86036864D01*
X93525809Y-85861076D01*
X93552897Y-85647469D01*
X93564220Y-85584745D01*
X93582633Y-85476898D01*
X93593347Y-85391717D01*
X93594751Y-85343126D01*
X93592812Y-85337405D01*
X93572869Y-85347907D01*
X93545871Y-85398828D01*
X93517330Y-85475563D01*
X93492760Y-85563503D01*
X93478629Y-85639922D01*
X93465816Y-85714104D01*
X93442178Y-85826816D01*
X93411233Y-85961996D01*
X93380733Y-86086854D01*
X93343809Y-86239807D01*
X93308958Y-86395477D01*
X93280678Y-86533170D01*
X93266247Y-86613687D01*
X93241141Y-86743951D01*
X93212750Y-86826456D01*
X93176565Y-86869874D01*
X93128078Y-86882878D01*
X93126282Y-86882889D01*
X93081234Y-86855889D01*
X93042679Y-86779314D01*
X93012000Y-86659801D01*
X92990579Y-86503989D01*
X92979800Y-86318514D01*
X92979280Y-86177334D01*
X92985246Y-85824556D01*
X92917907Y-85951556D01*
X92871022Y-86057440D01*
X92829371Y-86180222D01*
X92815376Y-86233778D01*
X92785101Y-86340963D01*
X92747153Y-86441194D01*
X92726869Y-86482336D01*
X92691205Y-86560857D01*
X92673983Y-86630394D01*
X92673691Y-86637558D01*
X92664349Y-86693426D01*
X92639569Y-86783634D01*
X92604440Y-86889941D01*
X92599356Y-86904056D01*
X92555082Y-87015314D01*
X92518729Y-87080083D01*
X92485076Y-87106765D01*
X92472220Y-87108667D01*
X92443483Y-87101795D01*
X92427512Y-87072973D01*
X92420743Y-87009893D01*
X92419556Y-86926888D01*
X92414684Y-86823014D01*
X92401563Y-86750627D01*
X92387189Y-86725105D01*
X92373853Y-86696975D01*
X92366920Y-86629591D01*
X92366214Y-86517695D01*
X92371557Y-86356031D01*
X92373451Y-86314850D01*
X92380620Y-86197355D01*
X92392099Y-86048175D01*
X92407008Y-85875712D01*
X92424466Y-85688368D01*
X92443589Y-85494545D01*
X92463498Y-85302644D01*
X92483309Y-85121067D01*
X92502142Y-84958216D01*
X92519114Y-84822493D01*
X92533345Y-84722299D01*
X92543952Y-84666036D01*
X92547397Y-84657196D01*
X92575571Y-84662378D01*
X92599630Y-84678759D01*
X92626696Y-84691079D01*
X92644603Y-84665508D01*
X92659559Y-84596212D01*
X92669156Y-84521644D01*
X92669597Y-84474557D01*
X92667347Y-84468384D01*
X92647845Y-84484692D01*
X92606425Y-84538468D01*
X92550971Y-84619244D01*
X92533099Y-84646675D01*
X92456502Y-84764870D01*
X92374689Y-84889975D01*
X92307298Y-84992000D01*
X92199230Y-85160331D01*
X92121620Y-85296937D01*
X92068696Y-85413374D01*
X92034682Y-85521199D01*
X92027732Y-85551556D01*
X91986834Y-85703816D01*
X91938559Y-85803986D01*
X91880355Y-85856213D01*
X91833944Y-85866457D01*
X91808360Y-85841563D01*
X91798667Y-85776901D01*
X91798667Y-85686912D01*
X91741123Y-85748679D01*
X91687597Y-85793295D01*
X91645031Y-85810445D01*
X91621378Y-85825716D01*
X91617069Y-85878609D01*
X91622203Y-85927654D01*
X91628148Y-86001525D01*
X91618284Y-86027969D01*
X91604263Y-86024059D01*
X91550755Y-85969622D01*
X91490277Y-85874331D01*
X91430084Y-85751955D01*
X91377434Y-85616264D01*
X91359725Y-85560023D01*
X91299031Y-85351935D01*
X91280150Y-85475357D01*
X91270739Y-85547861D01*
X91257783Y-85662737D01*
X91242764Y-85806136D01*
X91227162Y-85964208D01*
X91221681Y-86022111D01*
X91206519Y-86174173D01*
X91191330Y-86308871D01*
X91177517Y-86414935D01*
X91166485Y-86481094D01*
X91162805Y-86494834D01*
X91122777Y-86529913D01*
X91054040Y-86544284D01*
X90980836Y-86536787D01*
X90927408Y-86506263D01*
X90927270Y-86506097D01*
X90905398Y-86456710D01*
X90885961Y-86374875D01*
X90879240Y-86329708D01*
X90864221Y-86235687D01*
X90845187Y-86157739D01*
X90836798Y-86135000D01*
X90826400Y-86088031D01*
X90814996Y-85995963D01*
X90803677Y-85870105D01*
X90793534Y-85721762D01*
X90789166Y-85641111D01*
X90767586Y-85203667D01*
X90715383Y-85302445D01*
X90657590Y-85390876D01*
X90588361Y-85471098D01*
X90584076Y-85475175D01*
X90536065Y-85540733D01*
X90484900Y-85642396D01*
X90438109Y-85760847D01*
X90403216Y-85876765D01*
X90387749Y-85970831D01*
X90387556Y-85979624D01*
X90370514Y-86037845D01*
X90335509Y-86094244D01*
X90261042Y-86149106D01*
X90173585Y-86157464D01*
X90083248Y-86124316D01*
X90000140Y-86054660D01*
X89934372Y-85953492D01*
X89908366Y-85883102D01*
X89874748Y-85763030D01*
X89658430Y-85730106D01*
X89535925Y-85713767D01*
X89419013Y-85702033D01*
X89332137Y-85697337D01*
X89329222Y-85697331D01*
X89245755Y-85692666D01*
X89130105Y-85680223D01*
X89005577Y-85662563D01*
X88990556Y-85660118D01*
X88938784Y-85653458D01*
X88867020Y-85647629D01*
X88772073Y-85642597D01*
X88650753Y-85638323D01*
X88499871Y-85634772D01*
X88316238Y-85631906D01*
X88096664Y-85629690D01*
X87837959Y-85628086D01*
X87536934Y-85627058D01*
X87190399Y-85626570D01*
X86795165Y-85626584D01*
X86348042Y-85627064D01*
X86140111Y-85627402D01*
X85757360Y-85628314D01*
X85388834Y-85629645D01*
X85038696Y-85631356D01*
X84711104Y-85633406D01*
X84410220Y-85635753D01*
X84140203Y-85638358D01*
X83905213Y-85641179D01*
X83709412Y-85644175D01*
X83556959Y-85647307D01*
X83452015Y-85650532D01*
X83398740Y-85653811D01*
X83395500Y-85654298D01*
X83275556Y-85676548D01*
X83275556Y-85395597D01*
X83578944Y-85379260D01*
X83685983Y-85375486D01*
X83839150Y-85372860D01*
X84028141Y-85371418D01*
X84242651Y-85371195D01*
X84472376Y-85372227D01*
X84707011Y-85374548D01*
X84757222Y-85375221D01*
X85026642Y-85378514D01*
X85325000Y-85381321D01*
X85634500Y-85383528D01*
X85937343Y-85385025D01*
X86215733Y-85385700D01*
X86408222Y-85385575D01*
X86621985Y-85385281D01*
X86826052Y-85385451D01*
X87010967Y-85386041D01*
X87167272Y-85387010D01*
X87285513Y-85388315D01*
X87353667Y-85389816D01*
X87455666Y-85392287D01*
X87592736Y-85393917D01*
X87743507Y-85394508D01*
X87833444Y-85394271D01*
X87997710Y-85395379D01*
X88190878Y-85399992D01*
X88404264Y-85407592D01*
X88629187Y-85417659D01*
X88856964Y-85429672D01*
X89078912Y-85443113D01*
X89286349Y-85457461D01*
X89470592Y-85472196D01*
X89622958Y-85486799D01*
X89734765Y-85500750D01*
X89790406Y-85511424D01*
X89888547Y-85544021D01*
X89958204Y-85586697D01*
X90015612Y-85653530D01*
X90077008Y-85758595D01*
X90078320Y-85761056D01*
X90117850Y-85826250D01*
X90149741Y-85863513D01*
X90157158Y-85866889D01*
X90178675Y-85842856D01*
X90212306Y-85780268D01*
X90245743Y-85704611D01*
X90316981Y-85541448D01*
X90399387Y-85371700D01*
X90488181Y-85203373D01*
X90578582Y-85044472D01*
X90665811Y-84903004D01*
X90745087Y-84786974D01*
X90811631Y-84704388D01*
X90860661Y-84663251D01*
X90869195Y-84660452D01*
X90937952Y-84672632D01*
X90983447Y-84730912D01*
X90997800Y-84799807D01*
X91005633Y-84871297D01*
X91021439Y-84978115D01*
X91042189Y-85100226D01*
X91048225Y-85133111D01*
X91069208Y-85254345D01*
X91085310Y-85364189D01*
X91093791Y-85443408D01*
X91094430Y-85457667D01*
X91097449Y-85497613D01*
X91108309Y-85503186D01*
X91132462Y-85469274D01*
X91175355Y-85390768D01*
X91184702Y-85373000D01*
X91228819Y-85281809D01*
X91258155Y-85207235D01*
X91266306Y-85166350D01*
X91281852Y-85139748D01*
X91337642Y-85138128D01*
X91403214Y-85162902D01*
X91460521Y-85227796D01*
X91479994Y-85260111D01*
X91519337Y-85342806D01*
X91542038Y-85415681D01*
X91544202Y-85434835D01*
X91553485Y-85495370D01*
X91580399Y-85503934D01*
X91625491Y-85460199D01*
X91689307Y-85363838D01*
X91703696Y-85339378D01*
X91773029Y-85226533D01*
X91823537Y-85162265D01*
X91859239Y-85143535D01*
X91884156Y-85167305D01*
X91894187Y-85195457D01*
X91906176Y-85221176D01*
X91924268Y-85216785D01*
X91954060Y-85176106D01*
X92001147Y-85092955D01*
X92021751Y-85054548D01*
X92078198Y-84946334D01*
X92128067Y-84846729D01*
X92162041Y-84774428D01*
X92165950Y-84765271D01*
X92200935Y-84707219D01*
X92238017Y-84681617D01*
X92239535Y-84681556D01*
X92270623Y-84657917D01*
X92278444Y-84622519D01*
X92295414Y-84559587D01*
X92336340Y-84489828D01*
X92337405Y-84488464D01*
X92460858Y-84326567D01*
X92562181Y-84183887D01*
X92636303Y-84067922D01*
X92678150Y-83986170D01*
X92679326Y-83983056D01*
X92722754Y-83913819D01*
X92777056Y-83887527D01*
X92827999Y-83905577D01*
X92827999Y-83905577D01*
G37*
X92827999Y-83905577D02*
X92860373Y-83965281D01*
X92866957Y-84027953D01*
X92868778Y-84135493D01*
X92866401Y-84276577D01*
X92860386Y-84439882D01*
X92851295Y-84614082D01*
X92839691Y-84787853D01*
X92826137Y-84949871D01*
X92811192Y-85088813D01*
X92801008Y-85161334D01*
X92779846Y-85313605D01*
X92761103Y-85483918D01*
X92748778Y-85635864D01*
X92748633Y-85638317D01*
X92734753Y-85875412D01*
X92805728Y-85751206D01*
X92855901Y-85660298D01*
X92917201Y-85544910D01*
X92971982Y-85438600D01*
X93022525Y-85344391D01*
X93067536Y-85270511D01*
X93098146Y-85231377D01*
X93100468Y-85229677D01*
X93142270Y-85228187D01*
X93174671Y-85265898D01*
X93188439Y-85325568D01*
X93179747Y-85377758D01*
X93162571Y-85447549D01*
X93154663Y-85529866D01*
X93156058Y-85606132D01*
X93166789Y-85657767D01*
X93179221Y-85669334D01*
X93191112Y-85664528D01*
X93205170Y-85646222D01*
X93223595Y-85608581D01*
X93248588Y-85545770D01*
X93282349Y-85451953D01*
X93327078Y-85321297D01*
X93376448Y-85173494D01*
X93555266Y-85173494D01*
X93556722Y-85246471D01*
X93561301Y-85266820D01*
X93581759Y-85297782D01*
X93600900Y-85279287D01*
X93619109Y-85209701D01*
X93636772Y-85087390D01*
X93654274Y-84910718D01*
X93659103Y-84852482D01*
X93669551Y-84712979D01*
X93676971Y-84595210D01*
X93680800Y-84509797D01*
X93680473Y-84467362D01*
X93679683Y-84464721D01*
X93668919Y-84483583D01*
X93651625Y-84542798D01*
X93631135Y-84627142D01*
X93610783Y-84721391D01*
X93593904Y-84810322D01*
X93583832Y-84878712D01*
X93582746Y-84907334D01*
X93581539Y-84959271D01*
X93571906Y-85041810D01*
X93565296Y-85083376D01*
X93555266Y-85173494D01*
X93376448Y-85173494D01*
X93384976Y-85147966D01*
X93449564Y-84952476D01*
X93503123Y-84792539D01*
X93553540Y-84646783D01*
X93597101Y-84525584D01*
X93630093Y-84439320D01*
X93646537Y-84402143D01*
X93674746Y-84328467D01*
X93698102Y-84230950D01*
X93703798Y-84194722D01*
X93724488Y-84106877D01*
X93754246Y-84063765D01*
X93787132Y-84069109D01*
X93816421Y-84124167D01*
X93823186Y-84170550D01*
X93830384Y-84264020D01*
X93837527Y-84395227D01*
X93844131Y-84554819D01*
X93849707Y-84733447D01*
X93851161Y-84791639D01*
X93865341Y-85395612D01*
X93947697Y-85243195D01*
X94016196Y-85123586D01*
X94076272Y-85032186D01*
X94122589Y-84976327D01*
X94149807Y-84963342D01*
X94150832Y-84964200D01*
X94147556Y-84995064D01*
X94125754Y-85062444D01*
X94092023Y-85147222D01*
X94045342Y-85291772D01*
X94014366Y-85459507D01*
X94001336Y-85629024D01*
X94008491Y-85778920D01*
X94019779Y-85837716D01*
X94030619Y-85874592D01*
X94041932Y-85890763D01*
X94057509Y-85880330D01*
X94081141Y-85837397D01*
X94116620Y-85756065D01*
X94167737Y-85630439D01*
X94192153Y-85569605D01*
X94245707Y-85431917D01*
X94290489Y-85308930D01*
X94322559Y-85212069D01*
X94337975Y-85152756D01*
X94338772Y-85144541D01*
X94358748Y-85080846D01*
X94393757Y-85035559D01*
X94432236Y-85005975D01*
X94462658Y-85009152D01*
X94504546Y-85049907D01*
X94519039Y-85066463D01*
X94571158Y-85150179D01*
X94605966Y-85248326D01*
X94608238Y-85260111D01*
X94624709Y-85340464D01*
X94641796Y-85398587D01*
X94645456Y-85406672D01*
X94668546Y-85400424D01*
X94716240Y-85351786D01*
X94783475Y-85266387D01*
X94829547Y-85202060D01*
X94915516Y-85083856D01*
X94982474Y-85008434D01*
X95039739Y-84969758D01*
X95096628Y-84961789D01*
X95162459Y-84978490D01*
X95170116Y-84981370D01*
X95214544Y-85020239D01*
X95262633Y-85093372D01*
X95303616Y-85180463D01*
X95326726Y-85261204D01*
X95328535Y-85280154D01*
X95338757Y-85295405D01*
X95366488Y-85257821D01*
X95411401Y-85168117D01*
X95473167Y-85027006D01*
X95551455Y-84835206D01*
X95645936Y-84593430D01*
X95652161Y-84577226D01*
X95708816Y-84431974D01*
X95760421Y-84304066D01*
X95802838Y-84203425D01*
X95831931Y-84139976D01*
X95841036Y-84124167D01*
X95882593Y-84099859D01*
X95941039Y-84089266D01*
X95990935Y-84094546D01*
X96007417Y-84110056D01*
X96012880Y-84152072D01*
X96018355Y-84201778D01*
X96032087Y-84253896D01*
X96064286Y-84345072D01*
X96110279Y-84462879D01*
X96165397Y-84594891D01*
X96170790Y-84607376D01*
X96258355Y-84820618D01*
X96330601Y-85019026D01*
X96384669Y-85193507D01*
X96417703Y-85334969D01*
X96427111Y-85423164D01*
X96429249Y-85456994D01*
X96440467Y-85469032D01*
X96467970Y-85455022D01*
X96518963Y-85410709D01*
X96600650Y-85331839D01*
X96629079Y-85303895D01*
X96730248Y-85207600D01*
X96812812Y-85141297D01*
X96895240Y-85094488D01*
X96996000Y-85056672D01*
X97132667Y-85017590D01*
X97185505Y-85010384D01*
X97289949Y-85002526D01*
X97441166Y-84994148D01*
X97634321Y-84985379D01*
X97864582Y-84976351D01*
X98127116Y-84967194D01*
X98417088Y-84958038D01*
X98729666Y-84949015D01*
X99060017Y-84940255D01*
X99403306Y-84931889D01*
X99754701Y-84924048D01*
X100109368Y-84916862D01*
X100462474Y-84910461D01*
X100809186Y-84904977D01*
X101144669Y-84900541D01*
X101464092Y-84897282D01*
X101627048Y-84896066D01*
X101778245Y-84894035D01*
X101907377Y-84890273D01*
X102004926Y-84885219D01*
X102061370Y-84879315D01*
X102071548Y-84875477D01*
X102096197Y-84870470D01*
X102159013Y-84877459D01*
X102204431Y-84886071D01*
X102293298Y-84900274D01*
X102338503Y-84894217D01*
X102347953Y-84882474D01*
X102375898Y-84865270D01*
X102391466Y-84870994D01*
X102429286Y-84878118D01*
X102513699Y-84885137D01*
X102634853Y-84891514D01*
X102782899Y-84896713D01*
X102918222Y-84899732D01*
X103080604Y-84902468D01*
X103223819Y-84904905D01*
X103338136Y-84906877D01*
X103413822Y-84908215D01*
X103440333Y-84908724D01*
X103476689Y-84908690D01*
X103559590Y-84908147D01*
X103679142Y-84907175D01*
X103825448Y-84905852D01*
X103948333Y-84904663D01*
X104210030Y-84903357D01*
X104422146Y-84905093D01*
X104583165Y-84909816D01*
X104691572Y-84917469D01*
X104745852Y-84927997D01*
X104752234Y-84934102D01*
X104725113Y-84977530D01*
X104655355Y-85017755D01*
X104556748Y-85050087D01*
X104443081Y-85069835D01*
X104343444Y-85073163D01*
X104286003Y-85077333D01*
X104195724Y-85090589D01*
X104117667Y-85105046D01*
X104078059Y-85112686D01*
X104037309Y-85119286D01*
X103991292Y-85124904D01*
X103935883Y-85129600D01*
X103866957Y-85133432D01*
X103780388Y-85136458D01*
X103672053Y-85138737D01*
X103537825Y-85140328D01*
X103373581Y-85141288D01*
X103175195Y-85141676D01*
X102938542Y-85141551D01*
X102659497Y-85140972D01*
X102333935Y-85139996D01*
X101957732Y-85138683D01*
X101789333Y-85138066D01*
X101474753Y-85137514D01*
X101154739Y-85138081D01*
X100838052Y-85139677D01*
X100533451Y-85142213D01*
X100249695Y-85145601D01*
X99995544Y-85149750D01*
X99779756Y-85154572D01*
X99611090Y-85159977D01*
X99602111Y-85160341D01*
X99355184Y-85169232D01*
X99074330Y-85177269D01*
X98781993Y-85183942D01*
X98500617Y-85188739D01*
X98252643Y-85191150D01*
X98247444Y-85191173D01*
X98032553Y-85192926D01*
X97813714Y-85196146D01*
X97604764Y-85200527D01*
X97419536Y-85205761D01*
X97271866Y-85211542D01*
X97230023Y-85213729D01*
X97069031Y-85224674D01*
X96953512Y-85240165D01*
X96872523Y-85266544D01*
X96815120Y-85310151D01*
X96770360Y-85377326D01*
X96727301Y-85474410D01*
X96711591Y-85514111D01*
X96661227Y-85630118D01*
X96602621Y-85747307D01*
X96566570Y-85810445D01*
X96509052Y-85912049D01*
X96456695Y-86018735D01*
X96440986Y-86055668D01*
X96384104Y-86148949D01*
X96313548Y-86195667D01*
X96240799Y-86196020D01*
X96177339Y-86150207D01*
X96134651Y-86058428D01*
X96132748Y-86050334D01*
X96126660Y-86003831D01*
X96117971Y-85911948D01*
X96107600Y-85785641D01*
X96096468Y-85635864D01*
X96089593Y-85536122D01*
X96073558Y-85345097D01*
X96050894Y-85139901D01*
X96024307Y-84942093D01*
X95996502Y-84773233D01*
X95989048Y-84734963D01*
X95962317Y-84602499D01*
X95940255Y-84490862D01*
X95925046Y-84411268D01*
X95918873Y-84374935D01*
X95918835Y-84374286D01*
X95909784Y-84376127D01*
X95886587Y-84419307D01*
X95854088Y-84492010D01*
X95817132Y-84582420D01*
X95780564Y-84678724D01*
X95749227Y-84769105D01*
X95729205Y-84836778D01*
X95703249Y-84930842D01*
X95679468Y-85003450D01*
X95665589Y-85034334D01*
X95649918Y-85072085D01*
X95624001Y-85151504D01*
X95591898Y-85259657D01*
X95568127Y-85344778D01*
X95514366Y-85538962D01*
X95471308Y-85685942D01*
X95436246Y-85793341D01*
X95406468Y-85868783D01*
X95379267Y-85919890D01*
X95351933Y-85954286D01*
X95351270Y-85954952D01*
X95311476Y-86003181D01*
X95298222Y-86032767D01*
X95278896Y-86069416D01*
X95255007Y-86093399D01*
X95215584Y-86110324D01*
X95182663Y-86086880D01*
X95154762Y-86019214D01*
X95130400Y-85903473D01*
X95108097Y-85735803D01*
X95104365Y-85701493D01*
X95080400Y-85504709D01*
X95055615Y-85355527D01*
X95030672Y-85255486D01*
X95006232Y-85206126D01*
X94982956Y-85208984D01*
X94961505Y-85265600D01*
X94948001Y-85337569D01*
X94897827Y-85526291D01*
X94811085Y-85688680D01*
X94694356Y-85813159D01*
X94665889Y-85833913D01*
X94590567Y-85883163D01*
X94545626Y-85903481D01*
X94514911Y-85897882D01*
X94482267Y-85869378D01*
X94481242Y-85868353D01*
X94444301Y-85806802D01*
X94415954Y-85715812D01*
X94409463Y-85678423D01*
X94397511Y-85589051D01*
X94387861Y-85519140D01*
X94385077Y-85500000D01*
X94375895Y-85503895D01*
X94357460Y-85552687D01*
X94333431Y-85636324D01*
X94328561Y-85655222D01*
X94270784Y-85882948D01*
X94224830Y-86062187D01*
X94188611Y-86199157D01*
X94160042Y-86300075D01*
X94137035Y-86371157D01*
X94117505Y-86418622D01*
X94099363Y-86448686D01*
X94080524Y-86467566D01*
X94058901Y-86481480D01*
X94049458Y-86486793D01*
X93967192Y-86510215D01*
X93901785Y-86486609D01*
X93865698Y-86420867D01*
X93864493Y-86414197D01*
X93854414Y-86357133D01*
X93837744Y-86268409D01*
X93825578Y-86205556D01*
X93807526Y-86121037D01*
X93794104Y-86085506D01*
X93781031Y-86092213D01*
X93769982Y-86117924D01*
X93756564Y-86190884D01*
X93761409Y-86237868D01*
X93763965Y-86273073D01*
X93732664Y-86287802D01*
X93678673Y-86290222D01*
X93612105Y-86284624D01*
X93576396Y-86257042D01*
X93551863Y-86191296D01*
X93549928Y-86184389D01*
X93524895Y-86036864D01*
X93525809Y-85861076D01*
X93552897Y-85647469D01*
X93564220Y-85584745D01*
X93582633Y-85476898D01*
X93593347Y-85391717D01*
X93594751Y-85343126D01*
X93592812Y-85337405D01*
X93572869Y-85347907D01*
X93545871Y-85398828D01*
X93517330Y-85475563D01*
X93492760Y-85563503D01*
X93478629Y-85639922D01*
X93465816Y-85714104D01*
X93442178Y-85826816D01*
X93411233Y-85961996D01*
X93380733Y-86086854D01*
X93343809Y-86239807D01*
X93308958Y-86395477D01*
X93280678Y-86533170D01*
X93266247Y-86613687D01*
X93241141Y-86743951D01*
X93212750Y-86826456D01*
X93176565Y-86869874D01*
X93128078Y-86882878D01*
X93126282Y-86882889D01*
X93081234Y-86855889D01*
X93042679Y-86779314D01*
X93012000Y-86659801D01*
X92990579Y-86503989D01*
X92979800Y-86318514D01*
X92979280Y-86177334D01*
X92985246Y-85824556D01*
X92917907Y-85951556D01*
X92871022Y-86057440D01*
X92829371Y-86180222D01*
X92815376Y-86233778D01*
X92785101Y-86340963D01*
X92747153Y-86441194D01*
X92726869Y-86482336D01*
X92691205Y-86560857D01*
X92673983Y-86630394D01*
X92673691Y-86637558D01*
X92664349Y-86693426D01*
X92639569Y-86783634D01*
X92604440Y-86889941D01*
X92599356Y-86904056D01*
X92555082Y-87015314D01*
X92518729Y-87080083D01*
X92485076Y-87106765D01*
X92472220Y-87108667D01*
X92443483Y-87101795D01*
X92427512Y-87072973D01*
X92420743Y-87009893D01*
X92419556Y-86926888D01*
X92414684Y-86823014D01*
X92401563Y-86750627D01*
X92387189Y-86725105D01*
X92373853Y-86696975D01*
X92366920Y-86629591D01*
X92366214Y-86517695D01*
X92371557Y-86356031D01*
X92373451Y-86314850D01*
X92380620Y-86197355D01*
X92392099Y-86048175D01*
X92407008Y-85875712D01*
X92424466Y-85688368D01*
X92443589Y-85494545D01*
X92463498Y-85302644D01*
X92483309Y-85121067D01*
X92502142Y-84958216D01*
X92519114Y-84822493D01*
X92533345Y-84722299D01*
X92543952Y-84666036D01*
X92547397Y-84657196D01*
X92575571Y-84662378D01*
X92599630Y-84678759D01*
X92626696Y-84691079D01*
X92644603Y-84665508D01*
X92659559Y-84596212D01*
X92669156Y-84521644D01*
X92669597Y-84474557D01*
X92667347Y-84468384D01*
X92647845Y-84484692D01*
X92606425Y-84538468D01*
X92550971Y-84619244D01*
X92533099Y-84646675D01*
X92456502Y-84764870D01*
X92374689Y-84889975D01*
X92307298Y-84992000D01*
X92199230Y-85160331D01*
X92121620Y-85296937D01*
X92068696Y-85413374D01*
X92034682Y-85521199D01*
X92027732Y-85551556D01*
X91986834Y-85703816D01*
X91938559Y-85803986D01*
X91880355Y-85856213D01*
X91833944Y-85866457D01*
X91808360Y-85841563D01*
X91798667Y-85776901D01*
X91798667Y-85686912D01*
X91741123Y-85748679D01*
X91687597Y-85793295D01*
X91645031Y-85810445D01*
X91621378Y-85825716D01*
X91617069Y-85878609D01*
X91622203Y-85927654D01*
X91628148Y-86001525D01*
X91618284Y-86027969D01*
X91604263Y-86024059D01*
X91550755Y-85969622D01*
X91490277Y-85874331D01*
X91430084Y-85751955D01*
X91377434Y-85616264D01*
X91359725Y-85560023D01*
X91299031Y-85351935D01*
X91280150Y-85475357D01*
X91270739Y-85547861D01*
X91257783Y-85662737D01*
X91242764Y-85806136D01*
X91227162Y-85964208D01*
X91221681Y-86022111D01*
X91206519Y-86174173D01*
X91191330Y-86308871D01*
X91177517Y-86414935D01*
X91166485Y-86481094D01*
X91162805Y-86494834D01*
X91122777Y-86529913D01*
X91054040Y-86544284D01*
X90980836Y-86536787D01*
X90927408Y-86506263D01*
X90927270Y-86506097D01*
X90905398Y-86456710D01*
X90885961Y-86374875D01*
X90879240Y-86329708D01*
X90864221Y-86235687D01*
X90845187Y-86157739D01*
X90836798Y-86135000D01*
X90826400Y-86088031D01*
X90814996Y-85995963D01*
X90803677Y-85870105D01*
X90793534Y-85721762D01*
X90789166Y-85641111D01*
X90767586Y-85203667D01*
X90715383Y-85302445D01*
X90657590Y-85390876D01*
X90588361Y-85471098D01*
X90584076Y-85475175D01*
X90536065Y-85540733D01*
X90484900Y-85642396D01*
X90438109Y-85760847D01*
X90403216Y-85876765D01*
X90387749Y-85970831D01*
X90387556Y-85979624D01*
X90370514Y-86037845D01*
X90335509Y-86094244D01*
X90261042Y-86149106D01*
X90173585Y-86157464D01*
X90083248Y-86124316D01*
X90000140Y-86054660D01*
X89934372Y-85953492D01*
X89908366Y-85883102D01*
X89874748Y-85763030D01*
X89658430Y-85730106D01*
X89535925Y-85713767D01*
X89419013Y-85702033D01*
X89332137Y-85697337D01*
X89329222Y-85697331D01*
X89245755Y-85692666D01*
X89130105Y-85680223D01*
X89005577Y-85662563D01*
X88990556Y-85660118D01*
X88938784Y-85653458D01*
X88867020Y-85647629D01*
X88772073Y-85642597D01*
X88650753Y-85638323D01*
X88499871Y-85634772D01*
X88316238Y-85631906D01*
X88096664Y-85629690D01*
X87837959Y-85628086D01*
X87536934Y-85627058D01*
X87190399Y-85626570D01*
X86795165Y-85626584D01*
X86348042Y-85627064D01*
X86140111Y-85627402D01*
X85757360Y-85628314D01*
X85388834Y-85629645D01*
X85038696Y-85631356D01*
X84711104Y-85633406D01*
X84410220Y-85635753D01*
X84140203Y-85638358D01*
X83905213Y-85641179D01*
X83709412Y-85644175D01*
X83556959Y-85647307D01*
X83452015Y-85650532D01*
X83398740Y-85653811D01*
X83395500Y-85654298D01*
X83275556Y-85676548D01*
X83275556Y-85395597D01*
X83578944Y-85379260D01*
X83685983Y-85375486D01*
X83839150Y-85372860D01*
X84028141Y-85371418D01*
X84242651Y-85371195D01*
X84472376Y-85372227D01*
X84707011Y-85374548D01*
X84757222Y-85375221D01*
X85026642Y-85378514D01*
X85325000Y-85381321D01*
X85634500Y-85383528D01*
X85937343Y-85385025D01*
X86215733Y-85385700D01*
X86408222Y-85385575D01*
X86621985Y-85385281D01*
X86826052Y-85385451D01*
X87010967Y-85386041D01*
X87167272Y-85387010D01*
X87285513Y-85388315D01*
X87353667Y-85389816D01*
X87455666Y-85392287D01*
X87592736Y-85393917D01*
X87743507Y-85394508D01*
X87833444Y-85394271D01*
X87997710Y-85395379D01*
X88190878Y-85399992D01*
X88404264Y-85407592D01*
X88629187Y-85417659D01*
X88856964Y-85429672D01*
X89078912Y-85443113D01*
X89286349Y-85457461D01*
X89470592Y-85472196D01*
X89622958Y-85486799D01*
X89734765Y-85500750D01*
X89790406Y-85511424D01*
X89888547Y-85544021D01*
X89958204Y-85586697D01*
X90015612Y-85653530D01*
X90077008Y-85758595D01*
X90078320Y-85761056D01*
X90117850Y-85826250D01*
X90149741Y-85863513D01*
X90157158Y-85866889D01*
X90178675Y-85842856D01*
X90212306Y-85780268D01*
X90245743Y-85704611D01*
X90316981Y-85541448D01*
X90399387Y-85371700D01*
X90488181Y-85203373D01*
X90578582Y-85044472D01*
X90665811Y-84903004D01*
X90745087Y-84786974D01*
X90811631Y-84704388D01*
X90860661Y-84663251D01*
X90869195Y-84660452D01*
X90937952Y-84672632D01*
X90983447Y-84730912D01*
X90997800Y-84799807D01*
X91005633Y-84871297D01*
X91021439Y-84978115D01*
X91042189Y-85100226D01*
X91048225Y-85133111D01*
X91069208Y-85254345D01*
X91085310Y-85364189D01*
X91093791Y-85443408D01*
X91094430Y-85457667D01*
X91097449Y-85497613D01*
X91108309Y-85503186D01*
X91132462Y-85469274D01*
X91175355Y-85390768D01*
X91184702Y-85373000D01*
X91228819Y-85281809D01*
X91258155Y-85207235D01*
X91266306Y-85166350D01*
X91281852Y-85139748D01*
X91337642Y-85138128D01*
X91403214Y-85162902D01*
X91460521Y-85227796D01*
X91479994Y-85260111D01*
X91519337Y-85342806D01*
X91542038Y-85415681D01*
X91544202Y-85434835D01*
X91553485Y-85495370D01*
X91580399Y-85503934D01*
X91625491Y-85460199D01*
X91689307Y-85363838D01*
X91703696Y-85339378D01*
X91773029Y-85226533D01*
X91823537Y-85162265D01*
X91859239Y-85143535D01*
X91884156Y-85167305D01*
X91894187Y-85195457D01*
X91906176Y-85221176D01*
X91924268Y-85216785D01*
X91954060Y-85176106D01*
X92001147Y-85092955D01*
X92021751Y-85054548D01*
X92078198Y-84946334D01*
X92128067Y-84846729D01*
X92162041Y-84774428D01*
X92165950Y-84765271D01*
X92200935Y-84707219D01*
X92238017Y-84681617D01*
X92239535Y-84681556D01*
X92270623Y-84657917D01*
X92278444Y-84622519D01*
X92295414Y-84559587D01*
X92336340Y-84489828D01*
X92337405Y-84488464D01*
X92460858Y-84326567D01*
X92562181Y-84183887D01*
X92636303Y-84067922D01*
X92678150Y-83986170D01*
X92679326Y-83983056D01*
X92722754Y-83913819D01*
X92777056Y-83887527D01*
X92827999Y-83905577D01*
D12*
X135845800Y-81788000D03*
X137845800Y-81788000D03*
D13*
X148183000Y-86710000D03*
X148183000Y-87210000D03*
X148183000Y-87710000D03*
X148183000Y-88210000D03*
X148183000Y-88710000D03*
X148183000Y-89210000D03*
X148183000Y-89710000D03*
X148183000Y-90210000D03*
X148183000Y-90710000D03*
X148183000Y-91210000D03*
X148183000Y-91710000D03*
X148183000Y-92210000D03*
X148183000Y-92710000D03*
X148183000Y-93210000D03*
X148183000Y-93710000D03*
X148183000Y-94210000D03*
X148183000Y-94710000D03*
X148183000Y-95210000D03*
X148183000Y-95710000D03*
X148183000Y-96210000D03*
X148183000Y-96710000D03*
X148183000Y-97210000D03*
X148183000Y-97710000D03*
X148183000Y-98210000D03*
X148183000Y-98710000D03*
D14*
X150083000Y-100610000D03*
X150583000Y-100610000D03*
X151083000Y-100610000D03*
X151583000Y-100610000D03*
X152083000Y-100610000D03*
X152583000Y-100610000D03*
X153083000Y-100610000D03*
X153583000Y-100610000D03*
X154083000Y-100610000D03*
X154583000Y-100610000D03*
X155083000Y-100610000D03*
X155583000Y-100610000D03*
X156083000Y-100610000D03*
X156583000Y-100610000D03*
X157083000Y-100610000D03*
X157583000Y-100610000D03*
X158083000Y-100610000D03*
X158583000Y-100610000D03*
X159083000Y-100610000D03*
X159583000Y-100610000D03*
X160083000Y-100610000D03*
X160583000Y-100610000D03*
X161083000Y-100610000D03*
X161583000Y-100610000D03*
X162083000Y-100610000D03*
D13*
X163983000Y-98710000D03*
X163983000Y-98210000D03*
X163983000Y-97710000D03*
X163983000Y-97210000D03*
X163983000Y-96710000D03*
X163983000Y-96210000D03*
X163983000Y-95710000D03*
X163983000Y-95210000D03*
X163983000Y-94710000D03*
X163983000Y-94210000D03*
X163983000Y-93710000D03*
X163983000Y-93210000D03*
X163983000Y-92710000D03*
X163983000Y-92210000D03*
X163983000Y-91710000D03*
X163983000Y-91210000D03*
X163983000Y-90710000D03*
X163983000Y-90210000D03*
X163983000Y-89710000D03*
X163983000Y-89210000D03*
X163983000Y-88710000D03*
X163983000Y-88210000D03*
X163983000Y-87710000D03*
X163983000Y-87210000D03*
X163983000Y-86710000D03*
D14*
X162083000Y-84810000D03*
X161583000Y-84810000D03*
X161083000Y-84810000D03*
X160583000Y-84810000D03*
X160083000Y-84810000D03*
X159583000Y-84810000D03*
X159083000Y-84810000D03*
X158583000Y-84810000D03*
X158083000Y-84810000D03*
X157583000Y-84810000D03*
X157083000Y-84810000D03*
X156583000Y-84810000D03*
X156083000Y-84810000D03*
X155583000Y-84810000D03*
X155083000Y-84810000D03*
X154583000Y-84810000D03*
X154083000Y-84810000D03*
X153583000Y-84810000D03*
X153083000Y-84810000D03*
X152583000Y-84810000D03*
X152083000Y-84810000D03*
X151583000Y-84810000D03*
X151083000Y-84810000D03*
X150583000Y-84810000D03*
X150083000Y-84810000D03*
D12*
X90906600Y-96509840D03*
X88906600Y-96509840D03*
X90916000Y-98298000D03*
X88916000Y-98298000D03*
D15*
X110000000Y-85090000D03*
X110000000Y-82550000D03*
D16*
X159799020Y-106680000D03*
X157700980Y-106680000D03*
D17*
X115235000Y-121190000D03*
X120985000Y-121190000D03*
X120985000Y-125190000D03*
X115235000Y-125190000D03*
D12*
X172228000Y-84836000D03*
X174228000Y-84836000D03*
D17*
X84755000Y-121190000D03*
X90505000Y-121190000D03*
X90505000Y-125190000D03*
X84755000Y-125190000D03*
D16*
X169959020Y-106680000D03*
X167860980Y-106680000D03*
D17*
X145715000Y-121190000D03*
X151465000Y-121190000D03*
X151465000Y-125190000D03*
X145715000Y-125190000D03*
D18*
X119888000Y-85024000D03*
X119888000Y-83124000D03*
D17*
X155875000Y-121190000D03*
X161625000Y-121190000D03*
X161625000Y-125190000D03*
X155875000Y-125190000D03*
X94915000Y-121190000D03*
X100665000Y-121190000D03*
X100665000Y-125190000D03*
X94915000Y-125190000D03*
X105075000Y-121190000D03*
X110825000Y-121190000D03*
X110825000Y-125190000D03*
X105075000Y-125190000D03*
X125395000Y-121190000D03*
X131145000Y-121190000D03*
X131145000Y-125190000D03*
X125395000Y-125190000D03*
X135555000Y-121190000D03*
X141305000Y-121190000D03*
X141305000Y-125190000D03*
X135555000Y-125190000D03*
X84755000Y-132620000D03*
X90505000Y-132620000D03*
X90505000Y-136620000D03*
X84755000Y-136620000D03*
X94915000Y-132620000D03*
X100665000Y-132620000D03*
X100665000Y-136620000D03*
X94915000Y-136620000D03*
X105075000Y-132620000D03*
X110825000Y-132620000D03*
X110825000Y-136620000D03*
X105075000Y-136620000D03*
X115235000Y-132620000D03*
X120985000Y-132620000D03*
X120985000Y-136620000D03*
X115235000Y-136620000D03*
X125395000Y-132620000D03*
X131145000Y-132620000D03*
X131145000Y-136620000D03*
X125395000Y-136620000D03*
X135555000Y-132620000D03*
X141305000Y-132620000D03*
X141305000Y-136620000D03*
X135555000Y-136620000D03*
X145715000Y-132620000D03*
X151465000Y-132620000D03*
X151465000Y-136620000D03*
X145715000Y-136620000D03*
X155875000Y-132620000D03*
X161625000Y-132620000D03*
X161625000Y-136620000D03*
X155875000Y-136620000D03*
X166035000Y-121190000D03*
X171785000Y-121190000D03*
X171785000Y-125190000D03*
X166035000Y-125190000D03*
X166035000Y-132620000D03*
X171785000Y-132620000D03*
X171785000Y-136620000D03*
X166035000Y-136620000D03*
X166035000Y-109760000D03*
X171785000Y-109760000D03*
X171785000Y-113760000D03*
X166035000Y-113760000D03*
X115235000Y-109760000D03*
X120985000Y-109760000D03*
X120985000Y-113760000D03*
X115235000Y-113760000D03*
X125395000Y-109760000D03*
X131145000Y-109760000D03*
X131145000Y-113760000D03*
X125395000Y-113760000D03*
X135555000Y-109760000D03*
X141305000Y-109760000D03*
X141305000Y-113760000D03*
X135555000Y-113760000D03*
X145715000Y-109760000D03*
X151465000Y-109760000D03*
X151465000Y-113760000D03*
X145715000Y-113760000D03*
X155875000Y-109760000D03*
X161625000Y-109760000D03*
X161625000Y-113760000D03*
X155875000Y-113760000D03*
D16*
X88679020Y-129540000D03*
X86580980Y-129540000D03*
X98839020Y-129540000D03*
X96740980Y-129540000D03*
X108999020Y-129540000D03*
X106900980Y-129540000D03*
X119159020Y-129540000D03*
X117060980Y-129540000D03*
X129319020Y-129540000D03*
X127220980Y-129540000D03*
X139479020Y-129540000D03*
X137380980Y-129540000D03*
X149639020Y-129540000D03*
X147540980Y-129540000D03*
X159799020Y-129540000D03*
X157700980Y-129540000D03*
X169959020Y-129540000D03*
X167860980Y-129540000D03*
X88679020Y-118110000D03*
X86580980Y-118110000D03*
X98839020Y-118110000D03*
X96740980Y-118110000D03*
X108999020Y-118110000D03*
X106900980Y-118110000D03*
X119159020Y-118110000D03*
X117060980Y-118110000D03*
X129319020Y-118110000D03*
X127220980Y-118110000D03*
X139479020Y-118110000D03*
X137380980Y-118110000D03*
X149639020Y-118110000D03*
X147540980Y-118110000D03*
X159799020Y-118110000D03*
X157700980Y-118110000D03*
X169959020Y-118110000D03*
X167860980Y-118110000D03*
X119159020Y-106680000D03*
X117060980Y-106680000D03*
X129319020Y-106680000D03*
X127220980Y-106680000D03*
X139479020Y-106680000D03*
X137380980Y-106680000D03*
X149639020Y-106680000D03*
X147540980Y-106680000D03*
D19*
X117813000Y-85024000D03*
X117813000Y-84074000D03*
X117813000Y-83124000D03*
X115613000Y-83124000D03*
X115613000Y-85024000D03*
D20*
X140027000Y-85811000D03*
X140027000Y-85161000D03*
X140027000Y-84511000D03*
X140027000Y-83861000D03*
X135817000Y-83861000D03*
X135817000Y-84511000D03*
X135817000Y-85161000D03*
X135817000Y-85811000D03*
D21*
X137502000Y-84366000D03*
X137502000Y-85306000D03*
X138342000Y-84366000D03*
X138342000Y-85306000D03*
D22*
X129570900Y-84112540D03*
X128920900Y-84112540D03*
X128270900Y-84112540D03*
X127620900Y-84112540D03*
X126970900Y-84112540D03*
D23*
X130770900Y-84112540D03*
X125770900Y-84112540D03*
D24*
X131770900Y-81412540D03*
X124770900Y-81412540D03*
D12*
X117713000Y-81153000D03*
X115713000Y-81153000D03*
D25*
X142240000Y-84227800D03*
X142240000Y-81227800D03*
D18*
X113030000Y-83251000D03*
X113030000Y-85151000D03*
D26*
X131842000Y-86426000D03*
X131842000Y-88326000D03*
X133842000Y-87376000D03*
D12*
X162576000Y-102362000D03*
X164576000Y-102362000D03*
X166182800Y-90297000D03*
X168182800Y-90297000D03*
X174228000Y-86487000D03*
X172228000Y-86487000D03*
D27*
X168325800Y-80788000D03*
X168325800Y-82788000D03*
D12*
X174228000Y-88138000D03*
X172228000Y-88138000D03*
D27*
X170027600Y-80813400D03*
X170027600Y-82813400D03*
X171754800Y-80813400D03*
X171754800Y-82813400D03*
D28*
X170410000Y-87287000D03*
X170410000Y-86887000D03*
X170410000Y-86487000D03*
X170410000Y-86087000D03*
X170410000Y-85687000D03*
D29*
X169710000Y-84987000D03*
X169310000Y-84987000D03*
X168910000Y-84987000D03*
X168510000Y-84987000D03*
X168110000Y-84987000D03*
D28*
X167410000Y-85687000D03*
X167410000Y-86087000D03*
X167410000Y-86487000D03*
X167410000Y-86887000D03*
X167410000Y-87287000D03*
D29*
X168110000Y-87987000D03*
X168510000Y-87987000D03*
X168910000Y-87987000D03*
X169310000Y-87987000D03*
X169710000Y-87987000D03*
D30*
X168447500Y-86024500D03*
X168447500Y-86949500D03*
X169372500Y-86024500D03*
X169372500Y-86949500D03*
D16*
X121920000Y-82897980D03*
X121920000Y-84996020D03*
D27*
X135636000Y-89932000D03*
X135636000Y-91932000D03*
X135636000Y-95996000D03*
X135636000Y-93996000D03*
D12*
X144034000Y-96520000D03*
X146034000Y-96520000D03*
X144034000Y-98298000D03*
X146034000Y-98298000D03*
X144000000Y-86000000D03*
X146000000Y-86000000D03*
X144034000Y-89573100D03*
X146034000Y-89573100D03*
X144034000Y-94742000D03*
X146034000Y-94742000D03*
D27*
X148336000Y-103108000D03*
X148336000Y-101108000D03*
D12*
X166000000Y-100203000D03*
X164000000Y-100203000D03*
D27*
X166598600Y-80788000D03*
X166598600Y-82788000D03*
X148158200Y-84794600D03*
X148158200Y-82794600D03*
D12*
X144034000Y-100076000D03*
X146034000Y-100076000D03*
D31*
X174178000Y-91694000D03*
X172278000Y-91694000D03*
X174178000Y-89916000D03*
X172278000Y-89916000D03*
X153217840Y-81422240D03*
X155117840Y-81422240D03*
X145984000Y-93014800D03*
X144084000Y-93014800D03*
D18*
X172212000Y-95824000D03*
X172212000Y-97724000D03*
X170434000Y-95824000D03*
X170434000Y-97724000D03*
X168656000Y-95824000D03*
X168656000Y-97724000D03*
D27*
X133858000Y-82788000D03*
X133858000Y-80788000D03*
D31*
X133449100Y-93586300D03*
X131549100Y-93586300D03*
X133449100Y-91833700D03*
X131549100Y-91833700D03*
X133449100Y-90081100D03*
X131549100Y-90081100D03*
X133449100Y-97091500D03*
X131549100Y-97091500D03*
X133449100Y-95338900D03*
X131549100Y-95338900D03*
D12*
X118856000Y-98044000D03*
X116856000Y-98044000D03*
X122444000Y-98044000D03*
X124444000Y-98044000D03*
X90916000Y-92964000D03*
X88916000Y-92964000D03*
X88916000Y-89154000D03*
X90916000Y-89154000D03*
X88916000Y-91186000D03*
X90916000Y-91186000D03*
D31*
X90866000Y-94742000D03*
X88966000Y-94742000D03*
D12*
X85251800Y-100253800D03*
X83251800Y-100253800D03*
X92472000Y-100253800D03*
X94472000Y-100253800D03*
X101406200Y-100253800D03*
X99406200Y-100253800D03*
X108601000Y-100253800D03*
X110601000Y-100253800D03*
D31*
X83314500Y-101981000D03*
X85214500Y-101981000D03*
X92522000Y-101981000D03*
X94422000Y-101981000D03*
X99443500Y-101981000D03*
X101343500Y-101981000D03*
X108651000Y-101981000D03*
X110551000Y-101981000D03*
D32*
X139319000Y-90650060D03*
X139319000Y-95531940D03*
D33*
X88824600Y-102166800D03*
X94424600Y-113166800D03*
X83324600Y-113166800D03*
X94424600Y-104866800D03*
X83324600Y-104866800D03*
D34*
X83324600Y-109016800D03*
X94424600Y-109016800D03*
D33*
X104950000Y-102150000D03*
X110550000Y-113150000D03*
X99450000Y-113150000D03*
X110550000Y-104850000D03*
X99450000Y-104850000D03*
D34*
X99450000Y-109000000D03*
X110550000Y-109000000D03*
D35*
X93148564Y-88862454D03*
X93148564Y-89482454D03*
X93148564Y-90102454D03*
X93148564Y-90722454D03*
X93148564Y-91342454D03*
X93148564Y-91962454D03*
X93148564Y-92582454D03*
X93148564Y-93202454D03*
X93148564Y-93822454D03*
X93148564Y-94442454D03*
X93148564Y-95062454D03*
X93148564Y-95682454D03*
X93148564Y-96302454D03*
X93148564Y-96922454D03*
D36*
X172250000Y-140500000D03*
D37*
X144964600Y-81079000D03*
X148564600Y-81079000D03*
X144964600Y-79629000D03*
X148564600Y-79629000D03*
M02*
